<?xml version="1.0" encoding="utf-8"?>
<!-- Generator: Adobe Illustrator 18.1.1, SVG Export Plug-In . SVG Version: 6.00 Build 0)  -->
<svg version="1.1" id="Capa_1" xmlns="http://www.w3.org/2000/svg" xmlns:xlink="http://www.w3.org/1999/xlink" x="0px" y="0px"
	 viewBox="-604.1 45.7 367.8 367.7" enable-background="new -604.1 45.7 367.8 367.7" xml:space="preserve">
<g>
	<g>
		<path d="M-326.5,117.8c0-17.2-12.6-31.4-28.3-31.4h-221.2c-15.7,0-28.2,14.2-28.2,31.4v4h277.6V117.8z"/>
		<path d="M-260.5,153.6h-26.8c-11.5,0-21.3,9.1-23.8,20.9h-15.3v-41.9h-277.7l0.1,49.9c3,17.7,17.5,32,35,32c11,0,20.8-5.4,27.3-14
			c1.4-1.8,2.6-3.8,3.7-5.9c1.6-3,5.5-3,7.1,0c6.1,11.8,17.7,19.8,31,19.8c11,0,20.8-5.4,27.3-14c1.4-1.8,2.6-3.8,3.7-5.9
			c1.6-3,5.5-3,7,0c6.1,11.8,17.7,19.8,31,19.8c10.9,0,20.7-5.4,27.3-14c1.4-1.8,2.6-3.8,3.7-5.9c1.6-3,5.5-3,7.1,0
			c6.1,11.8,17.7,19.9,31,19.9c14.5,0,27-9.9,32.5-23.4h17.9v73.6h-23.5v-46.1c-7.8,5.7-16.9,9-26.8,9c-11.8,0-22.7-4.7-31-12.5
			c-2.1-1.9-5.1-1.9-7.2,0c-8.3,7.8-19.1,12.5-30.9,12.5c-11.8,0-22.6-4.7-30.9-12.5c-2.1-1.9-5.1-1.9-7.2,0
			c-8.3,7.8-19.1,12.5-30.9,12.5c-11.8,0-22.6-4.7-30.9-12.5c-2.1-1.9-5.1-1.9-7.2,0c-8.3,7.8-19.1,12.5-30.9,12.5
			c-11.9,0-22.7-4.8-31.1-12.7v136.9c0,11.5,8.5,20.8,19,20.8h19.2v-66.9c0-14,10.4-25.5,23.2-25.5h19c12.7,0,22.9,11.2,22.9,25.2
			v67.2h142.6c10.5,0,19-9.3,19-20.8v-70.4h24.1c2.4,11.8,12.2,20.9,23.8,20.9h26.9c13.3,0,24.1-11.8,24.1-26.5v-95.8
			C-236.3,165.4-247.1,153.6-260.5,153.6z M-369.5,325.5c0,11-8.2,19.7-18.2,19.7h-58.2c-10,0-18.1-8.8-18.1-19.7v-21.1h94.4h0.1
			L-369.5,325.5L-369.5,325.5z M-369.5,291L-369.5,291H-464v-21c0-11,8.1-19.8,18.1-19.8h58.2c10,0,18.2,8.9,18.2,19.8L-369.5,291
			L-369.5,291z M-263.9,245.4c-0.6,0.3-1.2,0.6-1.7,0.8c3.4,1.3,6.7,3.1,6.5,4c-0.3,1.1-5.9,0.3-9.9-0.9c-1.3-0.4-2.5-0.8-3-1.2v7.2
			c0,1.1-0.7,2-1.7,2c-1,0-1.7-0.9-1.7-2V248c-1,0.4-1.8,0.8-3.1,1.2c-4,1.2-9.7,2-10,0.9c-0.2-0.9,3.1-2.7,6.5-4
			c-0.5-0.2-1.1-0.5-1.7-0.8c-6.6-3.2-14.8-8.8-14.1-10.6c0.6-1.6,8.1,0.5,14.4,3.2c-0.3-0.5-0.5-0.9-0.8-1.4c-5-9.3-10-22.8-8-24.1
			c1.8-1.1,8.1,7,13.1,15.2c0.2-13,2.5-29.2,5.3-29.2c2.8,0,5.1,16.2,5.3,29.2c4.9-8.2,11.3-16.3,13.1-15.2c2.1,1.3-3,14.8-8,24.1
			c-0.3,0.5-0.5,1-0.8,1.4c6.3-2.7,13.8-4.8,14.4-3.2C-249.1,236.5-257.3,242.2-263.9,245.4z"/>
	</g>
</g>
</svg>
