<?xml version="1.0" encoding="utf-8"?>
<!-- Generator: Adobe Illustrator 18.1.1, SVG Export Plug-In . SVG Version: 6.00 Build 0)  -->
<svg version="1.1" id="Capa_1" xmlns="http://www.w3.org/2000/svg" xmlns:xlink="http://www.w3.org/1999/xlink" x="0px" y="0px"
	 viewBox="-413.7 249.6 152.6 147.7" enable-background="new -413.7 249.6 152.6 147.7" xml:space="preserve">
<g>
	<path d="M-261.2,340.9c-2-3.9-25.7,1.2-45.6,8c0.8-1.1,1.6-2.3,2.5-3.6c15.9-23.3,31.8-57.1,25.2-60.5c-5.6-2.9-25.8,17.5-41.4,38
		c-0.6-32.6-7.9-73.3-16.8-73.3c-8.9,0-16.2,40.7-16.8,73.3c-15.7-20.5-35.9-40.9-41.5-38c-6.5,3.4,9.4,37.2,25.2,60.5
		c0.8,1.2,1.7,2.4,2.5,3.6c-19.9-6.8-43.6-11.9-45.6-8c-2.2,4.4,23.8,18.7,44.7,26.6c1.9,0.7,3.8,1.4,5.5,2
		c-10.8,3.3-21.3,7.9-20.6,10.1c0.9,2.7,18.6,0.7,31.3-2.4c4.1-1,7.2-2,9.5-3v18.2c0,2.7,2.6,4.9,5.7,4.9s5.7-2.2,5.7-4.9v-18.2
		c2.3,1,5.3,2,9.5,3c12.7,3.1,30.5,5.1,31.3,2.4c0.7-2.2-9.8-6.7-20.6-10.1c1.7-0.6,3.5-1.2,5.5-2
		C-285.1,359.5-259,345.3-261.2,340.9z"/>
</g>
</svg>
