<?xml version="1.0" encoding="utf-8"?>
<!-- Generator: Adobe Illustrator 18.1.1, SVG Export Plug-In . SVG Version: 6.00 Build 0)  -->
<svg version="1.1" id="NO_SMOKING" xmlns="http://www.w3.org/2000/svg" xmlns:xlink="http://www.w3.org/1999/xlink" x="0px" y="0px"
	 viewBox="0 0 250.7 250.7" enable-background="new 0 0 250.7 250.7" xml:space="preserve">
<path d="M250.7,125.4c0,34.5-12.3,64-36.9,88.6c-24.6,24.5-54.1,36.8-88.5,36.8c-34.5,0-64-12.3-88.6-36.8
	C12.3,189.4,0,159.9,0,125.4c0-34.4,12.3-63.9,36.8-88.5C61.3,12.3,90.8,0,125.4,0c34.4,0,63.9,12.3,88.5,36.9
	C238.4,61.4,250.7,90.9,250.7,125.4z M104.3,130.5L36.9,78.8c-8,14.9-12.1,30.6-12.1,46.8c0,27.8,10,51.7,29.9,71.5
	c19.9,19.8,43.9,29.8,71.8,29.8c14,0,28.3-3.2,43-9.6c13-5.6,21.5-11.3,25.7-17.3l-58-44.7h-94v-24.9H104.3z M179.8,155.4l31.7,24.4
	c3.1-3.6,6.4-10.9,9.9-22c3.9-12.3,5.9-23,5.9-32.2c0-27.6-9.9-51.4-29.7-71.3c-19.8-19.9-43.4-29.8-71-29.8
	c-33.2,0-58.1,10.9-74.7,32.6l95.5,73.3h36.5v24.9H179.8z M194.6,113v12.1h-5.4v-9.9c0-2-1-3.9-2.9-5.9c-1.9-2-4-2.9-6.3-2.9h-35.4
	c-2.5,0-4.9-1.2-7.4-3.7c-2.5-2.5-3.7-4.8-3.7-7.1c0-5.4,1.6-9.8,4.8-13.3c-12.9-1.6-19.3-9.3-19.3-23c0-5.5,2.4-10.2,7.3-14.1
	c4.9-3.9,10.4-5.9,16.6-5.9v5.4c-4.7,0-8.9,1.4-12.4,4.1c-3.5,2.7-5.3,6.2-5.3,10.4c0,4.9,1.4,9.2,4.3,12.7c3,3.8,6.8,5.7,11.4,5.7
	c3,0,5.7-0.6,8.2-1.7v4.2c-5.9,2.6-8.8,7.1-8.8,13.6c0,4.2,2.3,6.3,7,6.3h34.2c3,0,5.9,1.4,8.7,4.3C193.2,107.1,194.6,110,194.6,113
	z M206.4,100.9v24.1H201v-24.1c0-3-1.3-5.6-3.9-7.9c-3.2-3-7.7-4.5-13.6-4.5h-24.9v-2.8c5.5-3.9,8.2-10.4,8.2-19.3
	c0-4.6-1.4-8.6-4.3-11.7c-2.8-3.2-6.4-4.8-10.6-4.8v-5.3c6,0,11,2.1,15.1,6.3c4.1,4.2,6.1,9.2,6.1,15.2c0,6.4-2,12.2-6,17.3h19
	c5.7,0,10.5,1.8,14.4,5.4C204.4,92.5,206.4,96.5,206.4,100.9z M194.6,130.5v24.9h-5.4v-24.9H194.6z M206.4,130.5v24.9H201v-24.9
	H206.4z"/>
</svg>
