<?xml version="1.0" encoding="utf-8" ?><svg version="1.1" xmlns = 'http://www.w3.org/2000/svg'><defs><font id='web' horiz-adv-x="1000">
<font-face font-family="web" descent="-300" cap-height="700" units-per-em="1000" bbox="-128,-282,1071,855" x-height="500" ascent="700" />
<missing-glyph horiz-adv-x="220" d="" /><glyph horiz-adv-x="220" d="" unicode=" " />
<glyph horiz-adv-x="290" d="M 192 542 L 167 162 L 131 162 L 106 542 L 106 632 L 192 632 L 192 542 Z M 198 39 C 198 25 193 13 183 3 C 173 -7 161 -12 147 -12 C 133 -12 121 -7 111 3 C 101 13 96 25 96 39 C 96 53 101 65 111 75 C 121 85 133 90 147 90 C 161 90 173 85 183 75 C 193 65 198 53 198 39 Z" unicode="!" />
<glyph horiz-adv-x="300" d="M 254 592 L 230 432 L 210 432 L 186 592 L 186 672 L 254 672 L 254 592 Z M 114 592 L 90 432 L 70 432 L 46 592 L 46 672 L 114 672 L 114 592 Z" unicode="&#x22;" />
<glyph horiz-adv-x="501" d="M 455 342 L 450 300 L 354 300 L 338 182 L 434 182 L 429 140 L 333 140 L 312 -16 L 269 -16 L 290 140 L 185 140 L 164 -16 L 121 -16 L 142 140 L 46 140 L 51 182 L 147 182 L 163 300 L 67 300 L 72 342 L 168 342 L 189 498 L 232 498 L 211 342 L 316 342 L 337 498 L 380 498 L 359 342 L 455 342 Z M 311 300 L 206 300 L 190 182 L 295 182 L 311 300 Z" unicode="#" />
<glyph horiz-adv-x="483" d="M 421 149 C 421 125 417 104 409 86 C 401 68 390 52 376 39 C 362 25 345 15 326 7 C 307 -1 286 -6 264 -8 L 264 -108 L 224 -108 L 224 -8 C 200 -8 173 -5 144 0 C 114 5 89 13 67 24 L 62 165 L 92 168 L 111 80 C 124 64 141 52 161 42 C 181 32 202 28 224 28 L 224 245 C 196 257 172 268 153 279 C 133 289 118 300 106 312 C 94 324 85 337 79 351 C 73 365 71 382 71 402 C 71 446 85 480 114 505 C 142 529 179 542 224 544 L 224 624 L 264 624 L 264 544 C 310 542 355 532 399 514 L 394 385 L 364 385 L 351 468 C 327 492 298 505 264 509 L 264 307 C 292 295 315 283 335 273 C 355 262 371 251 384 239 C 396 227 406 213 412 199 C 418 185 421 168 421 149 Z M 224 324 L 224 509 C 197 507 175 500 158 486 C 141 472 133 451 133 425 C 133 411 134 400 138 391 C 141 381 146 373 154 366 C 161 358 170 351 182 345 C 193 338 207 331 224 324 Z M 355 126 C 355 138 353 149 350 159 C 347 168 342 176 335 184 C 327 192 318 199 306 206 C 294 213 280 220 264 228 L 264 29 C 289 34 310 45 328 62 C 346 78 355 100 355 126 Z" unicode="$" />
<glyph horiz-adv-x="750" d="M 348 467 C 348 445 343 424 335 405 C 327 386 316 370 302 356 C 288 342 271 330 252 322 C 233 314 213 310 191 310 C 169 310 148 314 129 322 C 110 330 94 342 80 356 C 66 370 54 386 46 405 C 38 424 34 445 34 467 C 34 489 38 509 46 528 C 54 547 66 564 80 578 C 94 592 110 603 129 611 C 148 619 169 624 191 624 C 213 624 233 619 252 611 C 271 603 288 592 302 578 C 316 564 327 547 335 528 C 343 509 348 489 348 467 Z M 589 609 L 198 -17 L 162 6 L 553 632 L 589 609 Z M 717 149 C 717 127 712 106 704 87 C 696 68 685 52 671 38 C 657 24 640 12 621 4 C 602 -3 582 -8 560 -8 C 538 -8 517 -3 498 4 C 479 12 463 24 449 38 C 435 52 423 68 415 87 C 407 106 403 127 403 149 C 403 171 407 191 415 210 C 423 229 435 246 449 260 C 463 274 479 285 498 293 C 517 301 538 306 560 306 C 582 306 602 301 621 293 C 640 285 657 274 671 260 C 685 246 696 229 704 210 C 712 191 717 171 717 149 Z M 290 467 C 290 502 280 531 262 554 C 244 576 220 588 191 588 C 161 588 137 576 119 554 C 101 531 92 502 92 467 C 92 431 101 402 119 380 C 137 357 161 346 191 346 C 220 346 244 357 262 380 C 280 402 290 431 290 467 Z M 659 149 C 659 184 649 213 631 236 C 613 258 589 270 560 270 C 530 270 506 258 488 236 C 470 213 461 184 461 149 C 461 113 470 84 488 62 C 506 39 530 28 560 28 C 589 28 613 39 631 62 C 649 84 659 113 659 149 Z" unicode="%" />
<glyph horiz-adv-x="635" d="M 625 0 L 505 0 L 418 90 C 410 78 400 65 388 53 C 376 40 361 29 345 19 C 329 9 311 0 291 -6 C 271 -12 249 -16 226 -16 C 198 -16 173 -11 149 -3 C 125 5 105 18 88 34 C 70 50 57 69 47 91 C 37 113 32 137 32 165 C 32 187 35 207 43 225 C 51 243 61 259 74 274 C 87 289 102 302 119 314 C 136 325 154 335 172 345 C 148 367 130 389 118 411 C 106 433 100 457 100 483 C 100 505 103 525 111 543 C 119 561 129 576 143 590 C 157 603 173 613 191 621 C 209 628 230 632 252 632 C 272 632 291 629 309 623 C 327 617 342 609 355 598 C 368 587 378 574 386 558 C 393 542 397 523 397 503 C 397 483 392 465 382 449 C 372 433 360 419 346 407 C 332 395 316 384 300 376 C 284 368 269 361 255 355 L 427 175 L 460 312 L 395 320 L 395 352 L 613 352 L 613 320 L 524 312 L 455 147 L 555 44 L 625 30 L 625 0 Z M 333 511 C 333 536 325 557 311 574 C 297 591 277 600 252 600 C 226 600 206 590 190 571 C 174 551 167 527 167 498 C 167 473 174 451 188 432 C 202 412 218 393 236 375 C 268 391 293 411 309 434 C 325 457 333 483 333 511 Z M 393 116 L 191 325 C 167 309 147 290 131 268 C 115 245 108 217 108 184 C 108 163 111 144 118 126 C 125 108 135 93 148 80 C 160 67 175 57 193 50 C 210 42 229 39 251 39 C 280 39 308 46 334 61 C 360 76 379 94 393 116 Z" unicode="&#x26;" />
<glyph horiz-adv-x="180" d="M 124 592 L 100 432 L 80 432 L 56 592 L 56 672 L 124 672 L 124 592 Z" unicode="'" />
<glyph horiz-adv-x="350" d="M 306 -191 L 284 -220 C 250 -193 218 -163 190 -131 C 162 -98 137 -63 117 -25 C 96 13 80 53 69 96 C 57 138 52 183 52 231 C 52 277 57 322 69 365 C 80 408 96 449 117 487 C 137 525 162 560 190 593 C 218 625 250 655 284 682 L 306 653 C 274 625 247 595 223 562 C 199 529 178 494 162 458 C 145 422 132 384 124 346 C 115 308 111 269 111 231 C 111 192 115 153 124 115 C 132 77 145 39 162 3 C 178 -32 199 -67 223 -100 C 247 -133 274 -163 306 -191 Z" unicode="(" />
<glyph horiz-adv-x="350" d="M 298 231 C 298 183 292 138 281 96 C 269 53 253 13 233 -25 C 212 -63 187 -98 159 -131 C 131 -163 100 -193 66 -220 L 44 -191 C 74 -163 102 -133 126 -100 C 150 -67 171 -32 188 3 C 204 39 217 77 226 115 C 234 153 239 192 239 231 C 239 269 234 308 226 346 C 217 384 204 422 188 458 C 171 494 150 529 126 562 C 102 595 74 625 44 653 L 66 682 C 100 655 131 625 159 593 C 187 560 212 525 233 487 C 253 449 269 408 281 365 C 292 322 298 277 298 231 Z" unicode=")" />
<glyph horiz-adv-x="450" d="M 396 382 L 369 336 L 341 352 L 234 435 L 252 300 L 252 268 L 198 268 L 198 300 L 216 435 L 109 352 L 81 336 L 54 382 L 82 398 L 207 450 L 82 502 L 54 518 L 81 564 L 109 548 L 216 465 L 198 600 L 198 632 L 252 632 L 252 600 L 234 465 L 341 548 L 369 564 L 396 518 L 368 502 L 243 450 L 368 398 L 396 382 Z" unicode="*" />
<glyph horiz-adv-x="624" d="M 503 193 L 336 193 L 336 15 L 288 15 L 288 193 L 121 193 L 121 238 L 288 238 L 288 416 L 336 416 L 336 238 L 503 238 L 503 193 Z" unicode="+" />
<glyph horiz-adv-x="250" d="M 192 11 C 192 -27 181 -57 160 -81 C 138 -105 111 -122 78 -133 L 61 -101 C 85 -93 106 -82 124 -66 C 141 -50 150 -30 150 -4 L 67 23 C 61 29 59 39 59 52 C 59 64 63 75 72 85 C 81 95 94 100 111 100 C 122 100 133 97 143 92 C 153 87 161 80 169 72 C 176 64 182 54 186 44 C 190 33 192 22 192 11 Z" unicode="," />
<glyph horiz-adv-x="280" d="M 240 206 L 40 182 L 40 236 L 240 260 L 240 206 Z" unicode="-" />
<glyph horiz-adv-x="250" d="M 181 44 C 181 28 175 15 164 4 C 153 -6 140 -12 125 -12 C 109 -12 96 -6 85 4 C 74 15 69 28 69 44 C 69 59 74 72 85 83 C 96 94 109 100 125 100 C 140 100 153 94 164 83 C 175 72 181 59 181 44 Z" unicode="." />
<glyph horiz-adv-x="320" d="M 284 632 L 94 -50 L 36 -50 L 226 632 L 284 632 Z" unicode="/" />
<glyph horiz-adv-x="538" d="M 493 208 C 493 176 487 147 475 120 C 463 93 447 69 427 49 C 407 29 383 13 356 1 C 328 -10 299 -16 269 -16 C 237 -16 208 -10 181 1 C 154 13 130 29 110 49 C 90 69 74 93 62 120 C 50 147 45 176 45 208 C 45 238 50 267 62 295 C 74 322 90 346 110 366 C 130 386 154 402 181 414 C 208 426 237 432 269 432 C 299 432 328 426 356 414 C 383 402 407 386 427 366 C 447 346 463 322 475 295 C 487 267 493 238 493 208 Z M 417 208 C 417 233 413 257 407 279 C 400 301 390 320 378 337 C 365 353 349 366 331 376 C 313 385 292 390 269 390 C 245 390 224 385 206 376 C 188 366 172 353 160 337 C 147 320 137 301 131 279 C 124 257 121 233 121 208 C 121 182 124 159 131 137 C 137 115 147 95 160 79 C 172 62 188 49 206 40 C 224 30 245 26 269 26 C 292 26 313 30 331 40 C 349 49 365 62 378 79 C 390 95 400 115 407 137 C 413 159 417 182 417 208 Z" unicode="0" />
<glyph horiz-adv-x="375" d="M 326 0 L 62 0 L 62 28 L 158 40 L 158 369 L 62 369 L 62 397 L 234 432 L 238 428 L 230 288 L 230 40 L 326 28 L 326 0 Z" unicode="1" />
<glyph horiz-adv-x="470" d="M 426 126 L 410 0 L 47 0 L 39 38 L 164 125 C 209 157 243 186 265 213 C 287 239 299 271 299 307 C 299 332 290 352 273 367 C 256 382 235 390 210 390 C 184 390 163 383 145 369 C 127 355 112 338 101 319 L 71 348 C 87 372 108 392 132 408 C 156 424 187 432 225 432 C 271 432 308 421 334 399 C 360 377 373 348 373 313 C 373 277 363 247 345 222 C 327 197 302 174 271 152 L 143 62 L 145 58 L 373 58 L 398 132 L 426 126 Z" unicode="2" />
<glyph horiz-adv-x="422" d="M 373 -9 C 373 -39 367 -65 355 -89 C 343 -113 328 -133 309 -149 C 289 -165 267 -178 243 -187 C 218 -195 192 -200 166 -200 C 140 -200 114 -196 89 -188 C 64 -180 43 -169 26 -156 L 42 -118 C 60 -130 79 -140 101 -147 C 122 -154 142 -158 162 -158 C 202 -158 234 -145 259 -120 C 284 -95 297 -61 297 -17 C 297 3 293 20 286 36 C 278 52 268 65 256 76 C 244 86 229 94 212 100 C 195 106 177 109 159 109 C 153 109 145 108 135 107 C 125 106 118 105 113 104 L 107 149 C 131 149 153 152 173 158 C 193 164 211 173 226 185 C 240 197 252 211 260 229 C 268 246 273 266 273 289 C 273 319 264 343 247 362 C 230 380 207 390 177 390 C 153 390 133 383 115 370 C 97 357 82 341 69 322 L 38 349 C 56 375 78 396 103 410 C 127 424 156 432 190 432 C 214 432 236 428 256 421 C 275 413 291 403 305 391 C 318 378 328 363 335 347 C 341 331 345 313 345 295 C 345 257 333 225 310 200 C 287 175 257 156 219 143 L 219 141 C 239 139 259 134 278 126 C 296 118 313 107 327 94 C 341 80 352 65 360 48 C 368 30 373 11 373 -9 Z" unicode="3" />
<glyph horiz-adv-x="475" d="M 462 67 L 452 21 L 334 21 L 334 -188 L 262 -188 L 262 21 L 22 21 L 11 43 L 262 364 L 308 432 L 340 424 L 334 300 L 334 67 L 462 67 Z M 262 67 L 262 300 L 81 67 L 262 67 Z" unicode="4" />
<glyph horiz-adv-x="432" d="M 381 442 L 357 352 L 133 352 L 117 202 C 152 202 186 198 218 190 C 250 182 279 170 303 154 C 327 138 347 117 361 91 C 375 65 383 35 383 -1 C 383 -31 377 -58 365 -82 C 353 -106 338 -127 318 -145 C 298 -163 275 -176 249 -186 C 223 -195 197 -200 169 -200 C 137 -200 109 -195 86 -187 C 63 -179 42 -167 22 -153 L 37 -115 C 57 -129 76 -140 96 -147 C 115 -154 141 -158 173 -158 C 191 -158 209 -154 226 -147 C 242 -139 257 -129 270 -116 C 282 -103 292 -88 300 -71 C 307 -54 311 -36 311 -16 C 311 14 305 39 294 59 C 282 79 266 95 245 107 C 224 119 199 127 169 132 C 139 137 105 140 67 140 L 96 416 L 339 416 L 360 451 L 381 442 Z" unicode="5" />
<glyph horiz-adv-x="504" d="M 453 186 C 453 162 448 139 440 115 C 431 91 418 69 402 50 C 386 30 365 14 341 2 C 317 -9 289 -16 257 -16 C 227 -16 200 -10 176 1 C 151 12 130 29 112 52 C 94 74 80 102 70 136 C 60 169 55 207 55 251 C 55 303 62 352 78 396 C 94 440 116 477 146 509 C 176 540 212 564 255 582 C 297 599 346 608 400 608 L 400 568 C 322 568 261 546 217 504 C 172 461 144 397 134 312 C 151 328 173 342 199 354 C 225 366 254 373 284 373 C 308 373 331 368 352 358 C 373 348 391 335 406 318 C 420 301 432 281 440 259 C 448 236 453 212 453 186 Z M 379 181 C 379 209 375 232 369 251 C 363 270 354 285 344 297 C 333 308 321 316 307 321 C 293 326 278 329 262 329 C 236 329 212 323 190 313 C 167 302 149 288 135 271 C 133 265 133 260 133 254 C 133 248 133 242 133 237 C 133 205 136 176 142 150 C 148 124 156 101 168 82 C 179 62 193 47 210 36 C 227 25 246 20 268 20 C 284 20 298 23 312 31 C 325 39 337 50 347 64 C 357 78 364 95 370 115 C 376 135 379 157 379 181 Z" unicode="6" />
<glyph horiz-adv-x="425" d="M 419 416 L 226 0 L 149 -200 L 63 -200 L 172 0 L 346 352 L 78 352 L 49 281 L 21 285 L 44 424 L 365 416 L 407 432 L 419 416 Z" unicode="7" />
<glyph horiz-adv-x="482" d="M 432 155 C 432 126 425 101 413 80 C 400 58 384 40 365 26 C 346 12 325 1 303 -5 C 280 -12 258 -16 238 -16 C 217 -16 196 -13 174 -7 C 152 -1 131 7 113 20 C 95 33 80 50 68 71 C 56 91 50 117 50 147 C 50 171 55 192 65 211 C 75 229 88 245 102 259 C 116 273 131 284 146 293 C 160 302 172 309 180 314 C 166 321 153 330 141 340 C 128 350 117 362 107 374 C 97 386 90 400 84 414 C 78 428 75 444 75 460 C 75 479 78 497 86 515 C 93 533 104 548 118 562 C 132 576 149 587 170 595 C 191 603 215 607 243 607 C 268 607 291 603 311 596 C 331 588 347 578 361 566 C 375 554 385 540 392 524 C 399 508 403 491 403 475 C 403 453 398 434 390 418 C 381 401 371 387 359 375 C 347 363 334 353 322 345 C 310 337 300 331 294 327 C 340 301 374 275 397 249 C 420 223 432 191 432 155 Z M 339 467 C 339 486 335 503 329 517 C 323 531 315 542 305 551 C 295 560 285 567 273 571 C 261 575 249 577 237 577 C 225 577 213 575 202 571 C 191 567 181 561 172 553 C 163 545 156 535 151 523 C 145 511 143 498 143 484 C 143 467 145 453 149 441 C 153 429 160 418 170 408 C 180 398 193 387 209 377 C 225 367 245 355 269 341 C 273 345 280 350 288 357 C 296 364 303 373 311 383 C 319 393 325 405 331 419 C 336 433 339 449 339 467 Z M 357 143 C 357 157 354 171 349 183 C 344 195 336 207 324 219 C 312 231 296 243 276 256 C 256 268 232 283 203 300 C 199 296 192 291 183 284 C 174 277 165 268 156 257 C 147 245 139 231 132 215 C 125 198 122 178 122 156 C 122 132 125 112 132 95 C 139 77 148 63 160 52 C 171 40 184 32 199 26 C 213 20 228 18 244 18 C 258 18 271 20 285 25 C 299 29 311 37 321 47 C 331 57 340 70 347 86 C 353 102 357 121 357 143 Z" unicode="8" />
<glyph horiz-adv-x="490" d="M 435 176 C 435 122 427 73 411 29 C 395 -15 373 -54 344 -88 C 315 -121 280 -147 238 -167 C 196 -187 149 -198 97 -200 L 93 -161 C 165 -155 224 -129 270 -84 C 315 -39 342 22 352 100 C 332 80 311 66 288 58 C 264 49 239 45 211 45 C 182 45 157 50 136 61 C 114 72 96 86 82 104 C 68 122 57 142 50 164 C 43 186 40 207 40 229 C 40 257 45 283 55 308 C 65 332 78 354 96 372 C 113 390 134 405 158 416 C 182 426 208 432 236 432 C 270 432 300 425 325 411 C 350 397 371 379 387 356 C 403 332 415 305 423 274 C 431 243 435 210 435 176 Z M 357 206 C 357 228 354 250 350 273 C 345 295 337 316 327 335 C 317 353 304 368 288 380 C 272 392 254 398 232 398 C 211 398 193 393 179 384 C 164 374 152 362 142 347 C 132 331 125 314 121 294 C 116 274 114 254 114 234 C 114 186 125 149 148 123 C 171 97 202 85 240 85 C 256 85 276 90 299 100 C 321 110 340 125 355 147 C 355 154 356 164 356 176 C 356 188 357 198 357 206 Z" unicode="9" />
<glyph horiz-adv-x="280" d="M 196 344 C 196 328 190 315 179 304 C 168 293 155 288 140 288 C 124 288 111 293 100 304 C 89 315 84 328 84 344 C 84 359 89 372 100 383 C 111 394 124 400 140 400 C 155 400 168 394 179 383 C 190 372 196 359 196 344 Z M 196 44 C 196 28 190 15 179 4 C 168 -6 155 -12 140 -12 C 124 -12 111 -6 100 4 C 89 15 84 28 84 44 C 84 59 89 72 100 83 C 111 94 124 100 140 100 C 155 100 168 94 179 83 C 190 72 196 59 196 44 Z" unicode=":" />
<glyph horiz-adv-x="280" d="M 196 344 C 196 328 190 315 179 304 C 168 293 155 288 140 288 C 124 288 111 293 100 304 C 89 315 84 328 84 344 C 84 359 89 372 100 383 C 111 394 124 400 140 400 C 155 400 168 394 179 383 C 190 372 196 359 196 344 Z M 210 11 C 210 -27 199 -57 178 -81 C 156 -105 129 -122 96 -133 L 79 -101 C 103 -93 124 -82 142 -66 C 159 -50 168 -30 168 -4 L 85 23 C 79 29 77 39 77 52 C 77 64 81 75 90 85 C 99 95 112 100 129 100 C 140 100 151 97 161 92 C 171 87 179 80 187 72 C 194 64 200 54 204 44 C 208 33 210 22 210 11 Z" unicode=";" />
<glyph horiz-adv-x="624" d="M 480 11 L 108 200 L 108 232 L 480 421 L 480 371 L 173 216 L 480 61 L 480 11 Z" unicode="&#x3C;" />
<glyph horiz-adv-x="624" d="M 512 270 L 112 270 L 112 315 L 512 315 L 512 270 Z M 512 116 L 112 116 L 112 161 L 512 161 L 512 116 Z" unicode="=" />
<glyph horiz-adv-x="624" d="M 516 200 L 144 11 L 144 61 L 451 216 L 144 371 L 144 421 L 516 232 L 516 200 Z" unicode="&#x3E;" />
<glyph horiz-adv-x="410" d="M 376 428 C 376 400 370 375 359 353 C 347 330 332 310 314 293 C 295 276 273 263 248 254 C 223 244 197 240 171 240 L 171 134 L 126 134 L 126 312 L 162 312 C 184 312 204 315 223 321 C 242 327 259 337 273 349 C 287 361 298 375 306 393 C 314 410 318 430 318 452 C 318 472 313 492 305 510 C 297 528 285 544 271 558 C 257 572 240 583 221 591 C 202 599 182 603 162 603 L 69 554 L 42 620 C 54 628 69 634 87 638 C 105 642 123 645 141 645 C 175 645 206 640 235 630 C 263 620 288 605 309 587 C 330 568 346 545 358 519 C 370 492 376 462 376 428 Z M 199 39 C 199 25 194 13 184 3 C 174 -7 162 -12 148 -12 C 134 -12 122 -7 112 3 C 102 13 97 25 97 39 C 97 53 102 65 112 75 C 122 85 134 90 148 90 C 162 90 174 85 184 75 C 194 65 199 53 199 39 Z" unicode="?" />
<glyph horiz-adv-x="800" d="M 742 302 C 742 266 737 233 727 202 C 717 171 703 144 685 121 C 666 98 643 80 615 67 C 587 54 556 48 521 48 C 513 48 504 48 496 50 C 488 52 480 54 473 58 L 473 136 C 467 124 460 113 452 103 C 443 92 433 83 422 75 C 410 67 398 60 386 55 C 373 50 360 48 348 48 C 330 48 315 51 301 59 C 287 66 275 76 265 88 C 255 100 248 114 243 130 C 237 146 235 162 235 180 C 235 210 239 240 248 269 C 256 297 269 322 286 344 C 302 366 322 383 346 396 C 370 409 397 416 427 416 C 440 416 454 413 468 408 C 482 403 494 396 503 388 L 505 403 L 560 410 L 572 410 L 544 201 C 542 193 541 181 540 167 C 539 152 539 141 539 133 L 539 86 C 565 86 588 92 608 104 C 628 116 644 131 658 151 C 672 170 682 192 689 217 C 696 242 700 268 700 294 C 700 332 693 365 680 395 C 666 425 648 450 624 471 C 600 491 572 507 540 518 C 508 528 473 534 435 534 C 389 534 347 525 309 509 C 271 493 238 470 210 441 C 182 412 160 378 144 339 C 128 300 120 258 120 214 C 120 168 127 127 141 90 C 155 53 174 21 200 -5 C 226 -31 257 -52 293 -67 C 329 -81 370 -89 416 -89 C 454 -89 491 -83 529 -72 C 567 -61 601 -45 632 -25 L 647 -58 C 607 -82 567 -100 528 -112 C 488 -123 445 -129 398 -129 C 348 -129 303 -121 262 -105 C 220 -89 184 -66 154 -37 C 124 -7 100 27 83 67 C 66 107 58 152 58 202 C 58 254 68 303 88 349 C 108 394 136 433 171 466 C 205 499 246 525 293 544 C 339 562 389 572 443 572 C 484 572 523 565 559 553 C 595 540 627 522 654 499 C 681 475 702 447 718 414 C 734 380 742 343 742 302 Z M 499 357 C 490 365 480 372 468 377 C 456 381 443 384 431 384 C 409 384 391 378 376 366 C 360 354 347 339 337 320 C 327 300 319 278 314 254 C 309 229 307 204 307 178 C 307 150 311 127 321 111 C 331 94 346 86 368 86 C 381 86 394 90 407 99 C 419 108 431 121 442 137 C 453 153 463 172 471 195 C 479 217 484 243 488 271 L 499 357 Z" unicode="@" />
<glyph horiz-adv-x="606" d="M 608 0 L 383 0 L 383 32 L 466 40 L 403 200 L 169 200 L 107 43 L 188 32 L 188 0 L -2 0 L -2 34 L 58 44 L 288 616 L 318 616 L 550 40 L 608 32 L 608 0 Z M 387 240 L 285 500 L 185 240 L 387 240 Z" unicode="A" />
<glyph horiz-adv-x="574" d="M 529 175 C 529 149 524 125 514 103 C 504 81 488 63 467 48 C 445 32 418 20 385 12 C 352 4 313 0 267 0 L 43 0 L 43 32 L 121 40 L 121 576 L 43 584 L 43 616 L 290 616 C 350 616 397 604 432 581 C 466 558 484 521 484 471 C 484 451 480 434 474 418 C 467 402 458 389 447 377 C 435 365 422 356 407 348 C 392 340 376 335 360 332 L 360 328 C 382 326 404 321 424 315 C 444 309 462 299 478 287 C 493 275 505 259 515 241 C 524 223 529 201 529 175 Z M 404 462 C 404 504 391 535 366 553 C 341 571 307 580 265 580 C 251 580 239 579 229 579 C 219 578 209 577 198 576 L 198 341 L 255 341 C 304 341 341 351 366 373 C 391 394 404 424 404 462 Z M 449 167 C 449 207 434 239 406 265 C 377 290 334 303 278 303 L 198 303 L 198 44 C 207 42 217 41 227 40 C 235 38 245 37 256 37 C 266 36 277 36 288 36 C 340 36 379 47 407 71 C 435 95 449 127 449 167 Z" unicode="B" />
<glyph horiz-adv-x="619" d="M 580 85 C 514 17 436 -16 347 -16 C 302 -16 261 -8 223 6 C 185 21 152 43 124 71 C 96 99 74 132 58 172 C 42 211 35 255 35 304 C 35 352 42 397 58 437 C 74 477 96 512 124 541 C 152 569 187 592 227 608 C 267 624 311 632 360 632 C 402 632 436 629 462 623 C 488 617 511 610 530 602 L 543 632 L 575 632 L 567 451 L 535 451 L 519 530 C 495 550 470 565 444 576 C 418 586 384 592 343 592 C 313 592 284 585 258 573 C 231 560 208 542 188 519 C 168 495 152 467 140 433 C 128 399 123 361 123 319 C 123 281 128 244 138 209 C 148 174 163 143 183 117 C 202 90 226 69 255 53 C 283 37 316 29 354 29 C 394 29 431 36 465 52 C 499 67 529 89 556 117 L 580 85 Z" unicode="C" />
<glyph horiz-adv-x="675" d="M 643 316 C 643 267 635 223 619 184 C 603 145 581 112 553 85 C 524 57 489 36 449 22 C 408 7 363 0 313 0 L 43 0 L 43 32 L 121 40 L 121 576 L 43 584 L 43 616 L 308 616 C 356 616 401 609 442 596 C 483 583 518 564 548 539 C 578 513 601 482 618 445 C 634 407 643 364 643 316 Z M 556 304 C 556 391 532 459 485 507 C 437 555 369 580 281 580 C 267 580 252 579 238 579 C 223 578 210 577 199 576 L 199 44 C 208 42 217 41 227 40 C 235 38 243 37 252 37 C 261 36 269 36 277 36 C 319 36 358 41 392 52 C 426 63 456 80 480 102 C 504 124 523 152 536 186 C 549 219 556 258 556 304 Z" unicode="D" />
<glyph horiz-adv-x="537" d="M 489 0 L 43 0 L 43 32 L 121 40 L 121 576 L 43 584 L 43 616 L 475 616 L 475 476 L 439 476 L 425 576 L 199 576 L 199 341 L 363 341 L 373 410 L 407 410 L 407 232 L 373 232 L 363 301 L 199 301 L 199 42 L 437 42 L 451 150 L 489 150 L 489 0 Z" unicode="E" />
<glyph horiz-adv-x="514" d="M 475 476 L 439 476 L 425 576 L 199 576 L 199 331 L 363 331 L 373 400 L 407 400 L 407 222 L 373 222 L 363 291 L 199 291 L 199 40 L 297 32 L 297 0 L 43 0 L 43 32 L 121 40 L 121 576 L 43 584 L 43 616 L 475 616 L 475 476 Z" unicode="F" />
<glyph horiz-adv-x="661" d="M 626 215 L 587 203 L 587 46 C 565 30 534 16 493 3 C 451 -9 402 -16 346 -16 C 300 -16 258 -8 220 8 C 182 24 149 46 122 74 C 94 102 73 136 58 176 C 42 215 35 258 35 305 C 35 353 42 397 58 437 C 74 477 96 511 124 540 C 152 569 187 592 227 608 C 267 624 311 632 360 632 C 406 632 442 629 470 623 C 498 617 521 610 540 602 L 553 632 L 585 632 L 577 451 L 545 451 L 529 530 C 517 540 504 548 492 556 C 480 564 466 570 452 576 C 438 581 422 585 404 588 C 386 590 365 592 343 592 C 313 592 284 585 258 573 C 231 560 207 542 187 518 C 167 494 151 465 139 431 C 127 397 122 358 122 315 C 122 275 127 237 138 202 C 148 167 164 137 184 111 C 204 85 228 64 258 49 C 287 33 320 26 358 26 C 390 26 419 29 443 36 C 467 43 489 53 509 67 L 509 203 L 408 211 L 408 243 L 626 243 L 626 215 Z" unicode="G" />
<glyph horiz-adv-x="724" d="M 681 0 L 447 0 L 447 32 L 525 40 L 525 301 L 199 301 L 199 40 L 277 32 L 277 0 L 43 0 L 43 32 L 121 40 L 121 576 L 43 584 L 43 616 L 277 616 L 277 584 L 199 576 L 199 341 L 525 341 L 525 576 L 447 584 L 447 616 L 681 616 L 681 584 L 603 576 L 603 40 L 681 32 L 681 0 Z" unicode="H" />
<glyph horiz-adv-x="328" d="M 281 0 L 47 0 L 47 32 L 125 40 L 125 576 L 47 584 L 47 616 L 281 616 L 281 584 L 203 576 L 203 40 L 281 32 L 281 0 Z" unicode="I" />
<glyph horiz-adv-x="308" d="M 281 584 L 203 576 L 203 74 C 203 44 198 16 189 -8 C 180 -32 167 -53 151 -71 C 134 -88 114 -101 90 -111 C 66 -121 39 -126 9 -126 L -1 -90 C 43 -90 75 -78 95 -54 C 115 -30 125 7 125 57 L 125 576 L 47 584 L 47 616 L 281 616 L 281 584 Z" unicode="J" />
<glyph horiz-adv-x="606" d="M 606 0 L 478 0 L 229 285 L 199 285 L 199 40 L 277 32 L 277 0 L 43 0 L 43 32 L 121 40 L 121 576 L 43 584 L 43 616 L 277 616 L 277 584 L 199 576 L 199 320 L 212 320 L 458 576 L 407 584 L 407 616 L 585 616 L 585 584 L 513 576 L 282 335 L 545 43 L 606 32 L 606 0 Z" unicode="K" />
<glyph horiz-adv-x="506" d="M 481 0 L 43 0 L 43 32 L 121 40 L 121 576 L 43 584 L 43 616 L 287 616 L 287 584 L 199 576 L 199 42 L 427 42 L 443 156 L 481 156 L 481 0 Z" unicode="L" />
<glyph horiz-adv-x="860" d="M 825 0 L 591 0 L 591 32 L 669 40 L 641 513 L 415 0 L 403 0 L 179 493 L 154 44 L 232 32 L 232 0 L 27 0 L 27 32 L 105 44 L 136 574 L 56 584 L 56 616 L 207 616 L 426 129 L 640 616 L 795 616 L 795 584 L 715 576 L 747 40 L 825 32 L 825 0 Z" unicode="M" />
<glyph horiz-adv-x="708" d="M 676 584 L 598 572 L 598 -4 L 573 -4 L 164 497 L 164 44 L 242 32 L 242 0 L 38 0 L 38 32 L 116 44 L 116 552 L 97 575 L 38 584 L 38 616 L 167 616 L 550 144 L 550 572 L 472 584 L 472 616 L 676 616 L 676 584 Z" unicode="N" />
<glyph horiz-adv-x="694" d="M 655 313 C 655 264 647 219 631 179 C 615 139 594 104 566 75 C 538 46 506 24 468 8 C 430 -8 388 -16 344 -16 C 299 -16 258 -8 221 6 C 183 21 151 42 124 70 C 97 98 76 131 61 171 C 46 210 39 254 39 303 C 39 351 46 396 62 436 C 78 476 99 511 127 540 C 155 569 188 592 226 608 C 264 624 305 632 350 632 C 394 632 435 624 473 609 C 510 594 542 573 569 545 C 596 517 617 484 632 445 C 647 405 655 361 655 313 Z M 568 303 C 568 347 562 388 550 424 C 538 460 521 490 501 515 C 480 539 456 558 429 572 C 402 585 374 592 344 592 C 314 592 286 585 260 573 C 234 561 211 543 191 520 C 171 496 155 467 143 432 C 131 397 126 357 126 313 C 126 267 132 227 144 191 C 156 155 172 125 193 101 C 213 76 237 57 264 44 C 291 30 320 24 350 24 C 378 24 406 30 432 42 C 458 54 482 72 502 96 C 522 119 538 148 550 183 C 562 217 568 257 568 303 Z" unicode="O" />
<glyph horiz-adv-x="522" d="M 501 454 C 501 424 495 396 484 370 C 472 344 456 322 434 304 C 412 286 384 271 352 261 C 319 250 281 245 239 245 C 234 245 227 245 219 245 C 211 245 204 246 199 247 L 199 40 L 287 32 L 287 0 L 43 0 L 43 32 L 121 40 L 121 576 L 43 584 L 43 616 L 290 616 C 320 616 347 612 373 604 C 399 596 421 586 440 572 C 459 558 474 541 485 521 C 495 501 501 478 501 454 Z M 419 446 C 419 491 404 525 376 547 C 348 569 311 580 265 580 C 257 580 250 579 242 579 C 234 579 227 578 221 578 C 213 577 206 576 199 576 L 199 283 C 207 282 215 281 225 281 C 235 281 242 281 248 281 C 278 281 303 285 325 294 C 347 302 365 314 379 329 C 393 344 403 362 409 382 C 415 402 419 423 419 446 Z" unicode="P" />
<glyph horiz-adv-x="694" d="M 704 -85 L 631 -189 C 608 -183 584 -173 558 -161 C 532 -149 506 -135 480 -119 C 454 -103 428 -86 402 -68 C 376 -50 351 -33 329 -16 C 312 -16 293 -13 273 -9 C 252 -5 231 2 209 12 C 187 22 166 35 146 51 C 126 67 108 87 92 111 C 76 135 63 162 53 194 C 43 226 39 262 39 304 C 39 352 46 397 62 437 C 78 477 100 512 128 541 C 156 569 189 592 227 608 C 265 624 306 632 351 632 C 395 632 436 624 473 609 C 510 594 542 573 569 545 C 596 517 617 483 632 444 C 647 404 655 360 655 312 C 655 268 648 227 635 190 C 622 153 604 121 582 93 C 559 65 532 42 501 24 C 470 6 437 -5 401 -11 C 437 -33 474 -53 512 -69 C 550 -85 590 -99 631 -111 L 687 -69 L 704 -85 Z M 568 303 C 568 347 562 388 550 424 C 538 460 521 490 501 515 C 480 539 456 558 429 572 C 402 585 374 592 344 592 C 314 592 286 585 260 573 C 234 561 211 543 191 520 C 171 496 155 467 143 432 C 131 397 126 357 126 313 C 126 267 132 227 144 191 C 156 155 172 125 193 101 C 213 76 237 57 264 44 C 291 30 320 24 350 24 C 378 24 406 30 432 42 C 458 54 482 72 502 96 C 522 119 538 148 550 183 C 562 217 568 257 568 303 Z" unicode="Q" />
<glyph horiz-adv-x="591" d="M 599 0 L 472 0 L 284 269 L 199 261 L 199 40 L 287 32 L 287 0 L 43 0 L 43 32 L 121 40 L 121 576 L 43 584 L 43 616 L 290 616 C 317 616 343 613 368 607 C 392 601 414 592 432 580 C 450 568 465 552 476 532 C 487 512 493 489 493 462 C 493 418 480 382 455 352 C 430 322 397 300 355 288 L 538 43 L 599 32 L 599 0 Z M 411 449 C 411 495 398 528 372 549 C 346 569 311 580 265 580 C 253 580 242 579 232 579 C 222 578 211 577 199 576 L 199 303 L 248 303 C 298 303 337 315 367 339 C 396 363 411 399 411 449 Z" unicode="R" />
<glyph horiz-adv-x="493" d="M 447 166 C 447 140 441 115 431 93 C 420 71 406 52 388 36 C 370 20 349 7 325 -2 C 301 -11 277 -16 251 -16 C 217 -16 189 -13 167 -8 C 144 -2 124 5 106 15 L 94 -16 L 62 -16 L 56 188 L 88 191 L 109 95 C 125 74 143 58 165 46 C 187 34 211 28 239 28 C 278 28 310 38 336 59 C 362 80 375 108 375 144 C 375 160 372 174 367 186 C 362 198 354 209 342 220 C 330 230 315 241 297 252 C 278 262 255 274 229 287 C 199 301 174 314 154 327 C 133 340 116 354 103 368 C 89 382 79 398 73 415 C 67 432 64 452 64 474 C 64 498 68 519 78 539 C 88 558 101 575 118 589 C 135 603 155 613 177 621 C 199 628 223 632 249 632 C 275 632 297 629 317 625 C 337 620 356 613 374 604 L 386 632 L 418 632 L 414 451 L 382 451 L 364 539 C 350 558 333 572 314 580 C 295 588 274 592 250 592 C 234 592 219 589 205 585 C 191 580 178 573 168 565 C 157 556 148 545 142 533 C 136 521 133 507 133 493 C 133 477 135 464 139 454 C 143 443 150 433 161 423 C 171 413 186 402 205 391 C 224 380 249 367 280 353 C 306 340 329 327 350 315 C 370 303 388 289 402 275 C 416 261 427 245 435 227 C 443 209 447 189 447 166 Z" unicode="S" />
<glyph horiz-adv-x="554" d="M 534 616 L 534 456 L 498 456 L 484 576 L 316 576 L 316 40 L 404 32 L 404 0 L 150 0 L 150 32 L 238 40 L 238 576 L 70 576 L 56 456 L 20 456 L 20 616 L 534 616 Z" unicode="T" />
<glyph horiz-adv-x="669" d="M 653 584 L 575 572 L 575 231 C 575 195 570 161 561 131 C 551 101 537 75 517 53 C 497 31 473 14 444 2 C 414 -9 380 -16 340 -16 C 262 -16 204 6 164 50 C 124 94 104 155 104 231 L 104 576 L 26 584 L 26 616 L 260 616 L 260 584 L 182 576 L 182 250 C 182 217 184 187 190 161 C 196 135 205 112 219 93 C 232 74 249 59 271 49 C 293 39 320 34 353 34 C 385 34 412 39 434 49 C 456 59 474 74 488 93 C 502 111 512 134 518 160 C 524 186 527 216 527 248 L 527 572 L 449 584 L 449 616 L 653 616 L 653 584 Z" unicode="U" />
<glyph horiz-adv-x="604" d="M 608 584 L 546 572 L 314 -8 L 296 -8 L 60 576 L 0 584 L 0 616 L 228 616 L 228 584 L 144 576 L 321 130 L 497 573 L 416 584 L 416 616 L 608 616 L 608 584 Z" unicode="V" />
<glyph horiz-adv-x="870" d="M 872 584 L 813 572 L 605 -8 L 587 -8 L 440 406 L 286 -8 L 268 -8 L 59 576 L 0 584 L 0 616 L 225 616 L 225 584 L 142 576 L 295 141 L 416 472 L 378 576 L 317 584 L 317 616 L 547 616 L 547 584 L 464 576 L 464 566 L 612 141 L 765 573 L 685 584 L 685 616 L 872 616 L 872 584 Z" unicode="W" />
<glyph horiz-adv-x="612" d="M 610 0 L 379 0 L 379 32 L 452 40 L 292 274 L 134 42 L 205 32 L 205 0 L 4 0 L 4 32 L 83 46 L 266 311 L 80 576 L 15 584 L 15 616 L 245 616 L 245 584 L 173 576 L 317 365 L 458 574 L 387 584 L 387 616 L 585 616 L 585 584 L 510 570 L 343 328 L 545 40 L 610 32 L 610 0 Z" unicode="X" />
<glyph horiz-adv-x="566" d="M 559 584 L 499 572 L 324 258 L 324 40 L 402 32 L 402 0 L 168 0 L 168 32 L 246 40 L 246 252 L 65 576 L 7 584 L 7 616 L 235 616 L 235 584 L 153 576 L 302 303 L 451 574 L 374 584 L 374 616 L 559 616 L 559 584 Z" unicode="Y" />
<glyph horiz-adv-x="550" d="M 523 166 L 513 0 L 23 0 L 17 16 L 409 576 L 107 576 L 91 456 L 55 456 L 55 616 L 515 616 L 515 600 L 126 42 L 460 42 L 487 166 L 523 166 Z" unicode="Z" />
<glyph horiz-adv-x="320" d="M 258 -210 L 80 -210 L 80 672 L 258 672 L 258 644 L 136 636 L 136 -174 L 258 -182 L 258 -210 Z" unicode="[" />
<glyph horiz-adv-x="320" d="M 284 -50 L 226 -50 L 36 632 L 94 632 L 284 -50 Z" unicode="\" />
<glyph horiz-adv-x="320" d="M 240 -210 L 62 -210 L 62 -182 L 184 -174 L 184 636 L 62 644 L 62 672 L 240 672 L 240 -210 Z" unicode="]" />
<glyph horiz-adv-x="300" d="M 250 290 L 50 266 L 50 320 L 250 344 L 250 290 Z" unicode="^" />
<glyph horiz-adv-x="500" d="M 500 -122 L 0 -122 L 0 -80 L 500 -80 L 500 -122 Z" unicode="_" />
<glyph horiz-adv-x="500" d="M 315 465 L 298 452 L 141 607 L 194 651 L 315 465 Z" unicode="`" />
<glyph horiz-adv-x="420" d="M 429 33 C 421 23 409 13 393 3 C 377 -6 360 -12 342 -12 C 324 -12 309 -6 296 6 C 283 18 274 32 269 48 C 262 41 254 34 244 27 C 234 20 224 14 213 8 C 202 2 191 -2 180 -6 C 169 -10 159 -12 151 -12 C 117 -12 88 -2 66 16 C 43 34 32 60 32 94 C 32 112 35 129 42 143 C 49 157 59 168 71 178 C 83 188 98 196 114 202 C 130 208 148 213 167 217 L 264 235 L 264 298 C 264 325 258 344 246 356 C 234 368 214 374 186 374 C 162 374 141 367 123 354 C 105 341 89 324 75 304 L 47 330 C 63 354 85 375 112 391 C 139 407 168 416 200 416 C 290 416 336 379 336 306 L 336 101 C 336 87 337 76 340 68 C 342 59 346 52 350 47 C 354 42 358 39 363 37 C 368 35 373 35 379 35 C 387 35 394 36 402 40 C 409 43 414 47 418 51 L 429 33 Z M 264 77 L 264 206 L 195 193 C 181 190 169 187 158 183 C 146 179 136 173 128 166 C 120 159 113 151 108 141 C 103 131 101 120 101 106 C 101 84 108 67 123 55 C 137 43 156 37 178 37 C 193 37 208 40 224 48 C 239 56 252 65 264 77 Z" unicode="a" />
<glyph horiz-adv-x="479" d="M 449 216 C 449 182 443 151 433 123 C 423 95 408 71 389 51 C 369 31 345 15 317 4 C 289 -6 256 -12 220 -12 C 191 -12 163 -9 136 -3 C 109 3 87 10 71 20 L 71 616 L 6 627 L 6 653 L 143 672 L 143 353 C 155 368 172 382 195 396 C 218 409 245 416 275 416 C 297 416 318 411 339 403 C 360 394 379 381 395 364 C 411 347 424 326 434 302 C 444 277 449 248 449 216 Z M 372 211 C 372 234 369 256 365 276 C 360 296 353 313 344 327 C 334 341 322 353 308 361 C 293 369 275 374 255 374 C 229 374 206 367 187 354 C 168 340 153 323 143 302 L 143 50 C 150 42 162 36 180 31 C 197 25 215 23 233 23 C 275 23 309 40 334 74 C 359 108 372 154 372 211 Z" unicode="b" />
<glyph horiz-adv-x="421" d="M 395 65 C 389 58 381 50 372 41 C 363 32 352 24 339 16 C 326 8 311 1 294 -4 C 276 -9 257 -12 235 -12 C 206 -12 179 -6 154 3 C 129 13 107 28 89 47 C 71 66 56 89 46 115 C 35 141 30 171 30 204 C 30 236 35 265 47 291 C 59 317 74 339 93 358 C 112 376 134 391 159 401 C 183 411 209 416 235 416 C 259 416 279 414 295 411 C 311 407 329 401 349 391 L 360 416 L 384 416 L 378 291 L 352 291 C 346 318 334 340 315 357 C 296 373 271 382 239 382 C 200 382 169 367 145 337 C 121 307 109 265 109 209 C 109 182 112 158 120 136 C 127 114 137 96 150 80 C 162 64 177 52 194 44 C 210 36 228 32 248 32 C 280 32 306 37 327 48 C 348 58 364 70 375 84 L 395 65 Z" unicode="c" />
<glyph horiz-adv-x="489" d="M 473 9 L 340 -10 L 340 51 L 336 52 C 323 34 307 19 288 7 C 269 -5 243 -12 210 -12 C 188 -12 166 -7 144 1 C 122 9 103 22 86 39 C 69 55 55 76 45 101 C 35 126 30 155 30 189 C 30 222 35 252 45 280 C 55 308 68 332 86 352 C 104 372 125 387 149 399 C 173 410 199 416 227 416 C 253 416 276 411 294 403 C 312 394 326 384 336 374 L 336 616 L 271 627 L 271 653 L 408 672 L 408 46 L 473 35 L 473 9 Z M 336 105 L 336 323 C 326 339 312 352 294 364 C 276 375 256 381 236 381 C 213 381 193 375 177 365 C 161 355 147 341 137 324 C 127 307 119 287 114 265 C 109 243 107 220 107 197 C 107 171 110 148 116 128 C 122 108 131 90 143 76 C 154 61 167 50 183 42 C 198 34 215 30 234 30 C 264 30 286 37 302 53 C 317 69 328 86 336 105 Z" unicode="d" />
<glyph horiz-adv-x="433" d="M 399 224 L 109 224 L 109 213 C 109 185 112 159 119 137 C 126 115 136 96 149 80 C 161 64 176 52 193 44 C 209 36 228 32 248 32 C 280 32 306 37 327 48 C 348 58 364 70 375 84 L 395 65 C 389 58 381 50 372 41 C 363 32 352 24 339 16 C 326 8 311 1 294 -4 C 276 -9 257 -12 235 -12 C 205 -12 177 -6 152 3 C 127 13 106 28 88 47 C 70 65 55 88 45 114 C 35 140 30 170 30 202 C 30 234 35 263 47 289 C 58 315 73 338 92 357 C 110 375 132 390 156 400 C 180 410 206 416 233 416 C 286 416 327 400 356 370 C 384 339 399 299 399 249 L 399 224 Z M 322 257 C 322 273 320 288 318 304 C 315 319 310 333 303 345 C 296 357 286 366 274 373 C 262 380 246 384 228 384 C 198 384 172 372 151 350 C 130 328 117 297 112 257 L 322 257 Z" unicode="e" />
<glyph horiz-adv-x="288" d="M 337 668 L 313 605 L 221 654 C 215 654 209 652 203 648 C 196 644 190 638 184 630 C 178 622 174 611 170 599 C 166 586 165 571 165 554 L 165 400 L 288 400 L 288 360 L 165 360 L 165 36 L 261 28 L 261 0 L 28 0 L 28 28 L 93 36 L 93 360 L 28 360 L 28 386 L 93 406 L 93 500 C 93 526 96 551 104 574 C 111 597 121 617 135 634 C 149 651 165 665 185 675 C 205 685 227 690 252 690 C 270 690 285 688 299 685 C 312 682 325 676 337 668 Z" unicode="f" />
<glyph horiz-adv-x="438" d="M 421 -92 C 421 -118 415 -141 404 -162 C 392 -183 376 -201 356 -217 C 336 -232 311 -244 283 -252 C 255 -260 224 -265 190 -265 C 168 -265 146 -262 125 -256 C 103 -250 84 -242 68 -231 C 51 -219 37 -205 27 -189 C 17 -172 12 -153 12 -131 C 12 -103 19 -80 35 -62 C 51 -44 68 -31 88 -22 C 80 -17 72 -10 64 -1 C 56 8 53 20 53 36 C 53 51 59 66 71 82 C 83 97 101 110 127 120 L 127 127 C 101 140 79 157 62 179 C 44 200 36 228 36 263 C 36 285 40 305 49 324 C 58 342 70 358 86 372 C 101 386 119 396 139 404 C 159 412 181 416 204 416 C 221 416 238 413 255 409 C 271 404 286 397 300 389 L 434 416 L 434 352 L 329 364 L 328 362 C 343 348 354 334 361 319 C 368 303 372 285 372 263 C 372 239 367 218 357 200 C 347 182 335 166 319 153 C 303 140 285 130 265 123 C 245 115 224 111 204 110 C 172 107 148 101 133 92 C 118 83 111 71 111 57 C 111 49 112 44 114 40 C 116 36 119 32 123 30 L 307 11 C 319 9 332 6 346 2 C 360 -1 372 -8 383 -16 C 394 -24 403 -35 410 -48 C 417 -60 421 -75 421 -92 Z M 298 263 C 298 301 289 330 271 352 C 253 373 231 384 204 384 C 176 384 154 373 136 352 C 118 330 110 301 110 263 C 110 225 118 195 136 174 C 154 152 176 142 204 142 C 231 142 253 152 271 174 C 289 195 298 225 298 263 Z M 367 -116 C 367 -96 360 -80 348 -69 C 335 -58 318 -52 296 -50 L 113 -32 C 102 -39 92 -50 83 -64 C 73 -78 69 -93 69 -111 C 69 -125 72 -140 78 -154 C 84 -168 93 -180 106 -192 C 118 -203 134 -212 153 -219 C 172 -226 194 -230 220 -230 C 234 -230 249 -227 266 -223 C 283 -218 299 -211 314 -202 C 329 -192 342 -180 352 -166 C 362 -152 367 -135 367 -116 Z" unicode="g" />
<glyph horiz-adv-x="513" d="M 498 0 L 289 0 L 289 28 L 361 36 L 361 344 C 351 356 340 364 328 368 C 316 372 303 374 288 374 C 268 374 250 368 234 358 C 218 348 205 334 195 317 C 185 300 177 281 171 259 C 165 237 163 214 163 191 L 163 36 L 235 28 L 235 0 L 26 0 L 26 28 L 91 36 L 91 616 L 26 627 L 26 653 L 163 672 L 163 316 C 175 346 194 370 219 388 C 243 406 273 416 307 416 C 345 416 376 403 399 379 C 421 354 433 322 433 282 L 433 36 L 498 28 L 498 0 Z" unicode="h" />
<glyph horiz-adv-x="264" d="M 176 557 C 176 543 171 532 162 523 C 152 513 141 509 128 509 C 114 509 103 513 94 523 C 84 532 80 543 80 557 C 80 570 84 581 94 591 C 103 600 114 605 128 605 C 141 605 152 600 162 591 C 171 581 176 570 176 557 Z M 236 0 L 34 0 L 34 28 L 99 36 L 99 354 L 34 365 L 34 391 L 171 416 L 171 36 L 236 28 L 236 0 Z" unicode="i" />
<glyph horiz-adv-x="239" d="M 169 557 C 169 543 164 532 155 523 C 145 513 134 509 121 509 C 107 509 96 513 87 523 C 77 532 73 543 73 557 C 73 570 77 581 87 591 C 96 600 107 605 121 605 C 134 605 145 600 155 591 C 164 581 169 570 169 557 Z M 164 -60 C 164 -105 152 -144 129 -177 C 106 -210 70 -239 22 -265 L 8 -239 C 24 -231 37 -221 48 -211 C 58 -201 67 -189 73 -176 C 79 -162 84 -147 87 -130 C 90 -112 92 -92 92 -70 L 92 354 L 27 365 L 27 391 L 164 416 L 164 -60 Z" unicode="j" />
<glyph horiz-adv-x="467" d="M 475 0 L 361 0 L 183 205 L 159 205 L 159 36 L 231 28 L 231 0 L 22 0 L 22 28 L 87 36 L 87 616 L 22 627 L 22 653 L 159 672 L 159 224 L 161 224 L 319 362 L 262 371 L 262 400 L 439 400 L 439 371 L 374 362 L 236 244 L 423 40 L 475 24 L 475 0 Z" unicode="k" />
<glyph horiz-adv-x="258" d="M 230 0 L 28 0 L 28 28 L 93 36 L 93 616 L 28 627 L 28 653 L 165 672 L 165 36 L 230 28 L 230 0 Z" unicode="l" />
<glyph horiz-adv-x="774" d="M 755 0 L 546 0 L 546 28 L 618 36 L 618 342 C 610 352 600 360 590 366 C 580 371 566 374 550 374 C 532 374 516 369 502 359 C 487 349 474 336 464 320 C 453 303 445 283 439 261 C 433 239 430 215 430 191 L 430 36 L 502 28 L 502 0 L 286 0 L 286 28 L 358 36 L 358 342 C 350 352 340 360 330 366 C 320 371 306 374 290 374 C 272 374 256 369 242 359 C 227 349 214 336 204 320 C 193 303 185 283 179 261 C 173 239 170 215 170 191 L 170 36 L 242 28 L 242 0 L 33 0 L 33 28 L 98 36 L 98 354 L 33 365 L 33 391 L 166 412 L 166 317 L 170 316 C 181 344 199 367 223 387 C 247 406 275 416 309 416 C 339 416 364 407 384 391 C 404 375 418 350 426 316 L 429 316 C 440 344 458 367 483 387 C 507 406 536 416 570 416 C 608 416 637 403 658 379 C 679 354 690 322 690 282 L 690 36 L 755 28 L 755 0 Z" unicode="m" />
<glyph horiz-adv-x="524" d="M 505 0 L 296 0 L 296 28 L 368 36 L 368 344 C 358 356 347 364 335 368 C 323 372 310 374 295 374 C 275 374 257 368 241 358 C 225 348 212 334 202 317 C 192 300 184 281 178 259 C 172 237 170 214 170 191 L 170 36 L 242 28 L 242 0 L 33 0 L 33 28 L 98 36 L 98 354 L 33 365 L 33 391 L 166 412 L 166 317 L 170 316 C 182 346 201 370 226 388 C 250 406 280 416 314 416 C 352 416 383 403 406 379 C 428 354 440 322 440 282 L 440 36 L 505 28 L 505 0 Z" unicode="n" />
<glyph horiz-adv-x="472" d="M 442 202 C 442 170 436 140 426 114 C 415 88 400 65 382 47 C 363 28 341 13 316 3 C 291 -6 264 -12 236 -12 C 207 -12 180 -6 155 3 C 130 13 108 28 90 47 C 71 65 56 88 46 114 C 35 140 30 170 30 202 C 30 234 35 263 46 289 C 56 315 71 338 90 357 C 108 375 130 390 155 400 C 180 410 207 416 236 416 C 264 416 291 410 316 400 C 341 390 363 375 382 357 C 400 338 415 315 426 289 C 436 263 442 234 442 202 Z M 362 202 C 362 261 350 306 327 337 C 304 368 274 384 236 384 C 198 384 167 368 144 337 C 121 306 110 261 110 202 C 110 142 121 97 144 66 C 167 35 198 20 236 20 C 274 20 304 35 327 66 C 350 97 362 142 362 202 Z" unicode="o" />
<glyph horiz-adv-x="491" d="M 461 216 C 461 182 455 152 445 124 C 434 96 419 72 401 52 C 383 32 361 16 336 5 C 310 -6 283 -12 254 -12 C 230 -12 210 -10 194 -6 C 178 -2 165 3 155 10 L 155 -221 L 247 -229 L 247 -257 L 18 -257 L 18 -229 L 83 -221 L 83 354 L 18 365 L 18 391 L 151 412 L 151 352 L 155 351 C 167 367 185 382 207 396 C 229 409 256 416 288 416 C 310 416 331 411 352 403 C 372 394 391 381 407 364 C 423 347 436 326 446 302 C 456 277 461 248 461 216 Z M 384 211 C 384 261 373 300 353 330 C 332 359 303 374 265 374 C 239 374 216 366 197 352 C 178 338 164 320 155 300 L 155 58 C 166 46 180 38 197 32 C 213 26 229 23 245 23 C 269 23 289 28 307 39 C 324 49 338 63 350 81 C 362 98 370 118 376 141 C 381 163 384 187 384 211 Z" unicode="p" />
<glyph horiz-adv-x="475" d="M 473 -257 L 244 -257 L 244 -229 L 336 -221 L 336 52 C 323 34 307 19 288 7 C 269 -5 243 -12 210 -12 C 188 -12 166 -7 144 1 C 122 9 103 22 86 39 C 69 55 55 76 45 101 C 35 126 30 155 30 189 C 30 223 34 254 44 282 C 53 310 66 333 84 353 C 101 373 122 388 146 399 C 170 410 197 416 227 416 C 253 416 276 412 295 404 C 314 396 329 388 341 380 L 400 421 L 408 416 L 408 -221 L 473 -229 L 473 -257 Z M 336 105 L 336 323 C 326 339 312 352 294 364 C 276 375 256 381 236 381 C 212 381 193 375 177 365 C 161 354 147 340 137 323 C 126 306 118 286 114 264 C 109 242 107 219 107 197 C 107 146 118 105 142 75 C 166 45 196 30 234 30 C 262 30 284 37 300 53 C 316 69 328 86 336 105 Z" unicode="q" />
<glyph horiz-adv-x="354" d="M 344 391 L 317 324 L 240 365 C 219 355 202 336 189 309 C 175 281 169 249 169 213 L 169 36 L 262 28 L 262 0 L 33 0 L 33 28 L 98 36 L 98 354 L 33 365 L 33 391 L 163 411 L 163 318 L 167 317 C 183 355 201 381 221 395 C 241 409 263 416 286 416 C 296 416 306 413 317 408 C 328 403 337 397 344 391 Z" unicode="r" />
<glyph horiz-adv-x="356" d="M 316 110 C 316 94 312 79 306 64 C 300 49 291 36 279 24 C 267 12 252 3 235 -3 C 217 -10 198 -14 176 -14 C 137 -14 104 -5 77 11 L 67 -14 L 45 -14 L 40 122 L 66 124 C 80 53 116 18 173 18 C 195 18 213 24 228 38 C 242 51 250 68 250 90 C 250 101 247 111 243 120 C 238 128 231 136 223 143 C 215 150 205 156 194 162 C 183 168 171 173 159 179 C 145 185 131 191 118 198 C 105 204 93 212 83 221 C 72 230 63 241 57 254 C 51 266 48 282 48 300 C 48 316 51 331 58 345 C 64 359 73 372 85 382 C 96 392 109 401 125 407 C 141 413 157 416 175 416 C 193 416 209 414 223 411 C 237 407 252 402 266 394 L 278 416 L 300 416 L 298 295 L 272 295 C 262 354 230 384 177 384 C 154 384 137 377 125 363 C 113 349 108 335 108 321 C 108 309 110 299 115 291 C 120 283 127 275 135 269 C 143 262 153 256 165 251 C 176 246 188 241 200 236 C 214 229 229 222 243 215 C 257 207 269 199 280 189 C 291 179 300 168 306 155 C 312 142 316 127 316 110 Z" unicode="s" />
<glyph horiz-adv-x="306" d="M 302 46 C 290 31 275 18 255 7 C 235 -4 211 -10 183 -10 C 155 -10 132 0 113 17 C 93 35 84 64 84 104 L 84 360 L 17 360 L 17 386 L 81 411 L 130 533 L 154 533 L 154 400 L 277 400 L 277 360 L 154 360 L 154 116 C 154 88 160 67 172 54 C 184 40 199 34 219 34 C 238 34 253 37 264 45 C 275 52 283 58 288 63 L 302 46 Z" unicode="t" />
<glyph horiz-adv-x="504" d="M 485 9 L 352 -10 L 352 87 L 348 88 C 335 58 316 33 292 15 C 267 -2 238 -12 204 -12 C 165 -12 134 0 112 25 C 89 49 78 82 78 122 L 78 361 L 13 372 L 13 400 L 150 400 L 150 62 C 159 49 170 40 182 36 C 194 32 207 30 223 30 C 243 30 260 35 276 45 C 292 55 305 69 315 86 C 325 103 333 123 339 145 C 345 167 348 189 348 213 L 348 361 L 276 372 L 276 400 L 420 400 L 420 46 L 485 35 L 485 9 Z" unicode="u" />
<glyph horiz-adv-x="424" d="M 432 371 L 381 361 L 218 -16 L 206 -16 L 43 364 L -8 372 L -8 400 L 187 400 L 187 372 L 120 364 L 227 100 L 339 362 L 273 372 L 273 400 L 432 400 L 432 371 Z" unicode="v" />
<glyph horiz-adv-x="675" d="M 683 371 L 632 361 L 469 -16 L 457 -16 L 338 262 L 218 -16 L 206 -16 L 43 364 L -8 372 L -8 400 L 187 400 L 187 372 L 120 364 L 227 100 L 317 310 L 294 364 L 243 372 L 243 400 L 438 400 L 438 372 L 375 364 L 375 354 L 478 100 L 590 362 L 524 372 L 524 400 L 683 400 L 683 371 Z" unicode="w" />
<glyph horiz-adv-x="435" d="M 429 0 L 240 0 L 240 28 L 295 36 L 207 166 L 119 36 L 176 28 L 176 0 L 10 0 L 10 28 L 74 38 L 185 197 L 65 364 L 11 372 L 11 400 L 198 400 L 198 372 L 145 364 L 225 245 L 305 364 L 252 372 L 252 400 L 414 400 L 414 372 L 351 362 L 247 214 L 375 36 L 429 28 L 429 0 Z" unicode="x" />
<glyph horiz-adv-x="424" d="M 432 371 L 381 361 L 226 -8 L 140 -257 L 72 -257 L 193 5 L 43 364 L -8 372 L -8 400 L 187 400 L 187 372 L 120 364 L 230 91 L 339 363 L 273 372 L 273 400 L 432 400 L 432 371 Z" unicode="y" />
<glyph horiz-adv-x="413" d="M 385 136 L 381 0 L 30 0 L 24 16 L 285 364 L 88 364 L 78 286 L 46 286 L 46 400 L 378 400 L 378 384 L 117 36 L 338 36 L 353 136 L 385 136 Z" unicode="z" />
<glyph horiz-adv-x="350" d="M 288 -220 C 266 -220 245 -217 225 -211 C 205 -205 187 -196 172 -184 C 156 -172 144 -158 135 -141 C 126 -123 122 -103 122 -81 C 122 -59 123 -39 125 -21 C 127 -3 129 15 132 33 C 134 51 137 69 139 87 C 141 105 142 125 142 147 C 142 168 134 185 118 198 C 102 210 77 217 42 217 L 42 245 C 77 245 102 251 118 264 C 134 276 142 293 142 315 C 142 336 141 356 139 375 C 137 393 134 412 132 430 C 129 448 127 466 125 485 C 123 503 122 523 122 545 C 122 567 126 586 135 603 C 144 620 156 634 172 646 C 187 658 205 667 225 673 C 245 679 266 682 288 682 L 288 654 C 274 654 261 651 249 647 C 236 643 225 637 215 629 C 205 621 197 612 191 601 C 185 590 182 578 182 565 C 182 543 183 523 185 505 C 187 486 189 468 192 450 C 194 432 197 413 199 395 C 201 376 202 356 202 335 C 202 309 193 287 176 269 C 158 251 137 239 112 233 L 112 229 C 137 222 158 210 176 192 C 193 174 202 153 202 127 C 202 105 201 85 199 67 C 197 48 194 30 192 12 C 189 -6 187 -24 185 -43 C 183 -61 182 -81 182 -103 C 182 -116 185 -128 191 -139 C 197 -150 205 -159 215 -167 C 225 -175 236 -181 249 -185 C 261 -189 274 -192 288 -192 L 288 -220 Z" unicode="{" />
<glyph horiz-adv-x="250" d="M 153 -282 L 97 -282 L 97 696 L 153 696 L 153 -282 Z" unicode="|" />
<glyph horiz-adv-x="350" d="M 308 217 C 272 217 247 210 231 198 C 215 185 208 168 208 147 C 208 125 209 105 211 87 C 213 68 215 50 218 32 C 220 14 223 -4 225 -23 C 227 -41 228 -61 228 -83 C 228 -105 223 -124 214 -141 C 205 -158 193 -172 178 -184 C 162 -196 145 -205 125 -211 C 105 -217 84 -220 62 -220 L 62 -192 C 75 -192 88 -189 101 -185 C 113 -181 125 -175 135 -167 C 145 -159 153 -150 159 -139 C 165 -128 168 -116 168 -103 C 168 -82 167 -62 165 -44 C 163 -25 160 -6 158 11 C 155 29 153 48 151 67 C 149 85 148 105 148 127 C 148 153 156 174 174 192 C 191 210 212 222 238 229 L 238 233 C 212 239 191 251 174 269 C 156 287 148 309 148 335 C 148 356 149 376 151 395 C 153 413 155 432 158 450 C 160 468 163 486 165 505 C 167 523 168 543 168 565 C 168 578 165 590 159 601 C 153 612 145 621 135 629 C 125 637 113 643 101 647 C 88 651 75 654 62 654 L 62 682 C 84 682 105 679 125 673 C 145 667 162 658 178 646 C 193 634 205 620 214 603 C 223 586 228 567 228 545 C 228 523 227 503 225 485 C 223 466 220 448 218 430 C 215 412 213 393 211 375 C 209 356 208 336 208 315 C 208 293 215 276 231 264 C 247 251 272 245 308 245 L 308 217 Z" unicode="}" />
<glyph horiz-adv-x="624" d="M 553 271 C 545 255 536 240 526 225 C 516 210 505 197 493 185 C 481 173 467 163 452 156 C 437 148 421 145 403 145 C 387 145 370 149 352 158 C 334 167 316 177 298 188 C 280 198 262 208 245 217 C 227 226 211 231 197 231 C 177 231 157 222 139 206 C 121 190 105 171 93 150 L 71 164 C 79 179 87 194 97 209 C 107 224 118 238 130 250 C 142 262 156 271 171 279 C 186 286 203 290 221 290 C 237 290 254 285 272 276 C 290 267 308 257 326 247 C 344 236 361 226 379 217 C 396 208 412 204 427 204 C 447 204 466 212 484 228 C 502 244 518 263 531 285 L 553 271 Z" unicode="~" />
<glyph horiz-adv-x="110" d="" unicode=" " />
<glyph horiz-adv-x="290" d="M 198 365 C 198 351 193 339 183 329 C 173 319 161 314 147 314 C 133 314 121 319 111 329 C 101 339 96 351 96 365 C 96 379 101 391 111 401 C 121 411 133 416 147 416 C 161 416 173 411 183 401 C 193 391 198 379 198 365 Z M 190 -228 L 104 -228 L 104 -138 L 129 242 L 165 242 L 190 -138 L 190 -228 Z" unicode="¡" />
<glyph horiz-adv-x="480" d="M 435 69 C 429 63 422 55 414 47 C 405 39 395 31 383 24 C 371 16 357 10 341 4 C 325 -1 308 -5 289 -7 L 289 -108 L 249 -108 L 249 -8 C 221 -6 194 0 170 11 C 146 22 125 37 107 56 C 89 74 75 96 65 122 C 55 148 50 176 50 208 C 50 238 55 266 67 292 C 78 318 93 340 111 359 C 129 377 151 392 175 403 C 199 414 223 421 249 423 L 249 520 L 289 520 L 289 423 C 308 421 325 419 341 416 C 357 413 373 407 389 399 L 400 424 L 424 424 L 418 299 L 392 299 C 387 325 376 346 359 362 C 342 378 319 387 289 391 L 289 34 C 321 35 347 41 368 52 C 389 62 405 74 415 88 L 435 69 Z M 249 37 L 249 391 C 213 386 184 368 162 338 C 140 308 129 267 129 215 C 129 191 132 169 138 149 C 144 129 153 111 164 96 C 174 80 187 68 202 58 C 216 48 232 41 249 37 Z" unicode="¢" />
<glyph horiz-adv-x="530" d="M 480 107 C 480 81 474 55 464 30 C 453 4 439 -16 422 -32 C 382 -18 339 -6 293 3 C 247 13 204 19 162 19 C 154 19 145 18 137 17 C 129 16 121 14 114 11 L 62 -22 L 44 9 L 84 35 C 95 42 104 50 111 58 C 118 66 123 75 127 86 C 131 96 133 108 135 122 C 136 135 137 151 137 169 L 137 241 L 63 241 L 63 281 L 137 281 L 137 337 C 137 369 140 399 148 425 C 155 451 166 474 182 493 C 197 511 216 526 240 536 C 263 546 291 552 324 552 C 348 552 369 548 389 541 C 408 534 427 523 447 509 L 409 437 L 311 520 C 275 520 249 507 235 483 C 220 458 213 426 213 387 L 213 281 L 388 281 L 388 241 L 213 241 L 213 223 C 213 189 207 157 197 129 C 187 101 168 77 141 58 L 143 55 C 158 62 172 67 185 71 C 197 74 212 76 228 76 C 261 76 294 72 327 64 C 360 56 393 48 425 38 C 433 48 440 59 444 72 C 448 84 450 97 452 111 L 480 107 Z" unicode="£" />
<glyph horiz-adv-x="576" d="M 521 506 L 466 496 L 378 334 L 501 334 L 501 298 L 359 298 L 324 233 L 324 212 L 501 212 L 501 176 L 324 176 L 324 38 L 398 30 L 398 0 L 178 0 L 178 30 L 252 38 L 252 176 L 75 176 L 75 212 L 252 212 L 252 233 L 218 298 L 75 298 L 75 334 L 199 334 L 111 498 L 55 506 L 55 536 L 267 536 L 267 506 L 191 498 L 306 275 L 423 498 L 349 506 L 349 536 L 521 536 L 521 506 Z" unicode="¥" />
<glyph horiz-adv-x="250" d="M 153 303 L 97 303 L 97 696 L 153 696 L 153 303 Z M 153 -282 L 97 -282 L 97 111 L 153 111 L 153 -282 Z" unicode="¦" />
<glyph horiz-adv-x="500" d="M 424 162 C 424 137 417 116 404 100 C 390 83 375 69 357 58 C 371 45 384 32 394 20 C 404 7 410 -9 410 -29 C 410 -49 405 -66 396 -82 C 386 -98 374 -111 359 -123 C 343 -134 326 -143 306 -149 C 286 -155 265 -158 244 -158 C 216 -158 190 -153 164 -145 C 138 -136 115 -125 96 -112 L 92 -8 L 120 -5 L 139 -80 C 152 -91 169 -100 189 -108 C 209 -116 229 -120 249 -120 C 261 -120 274 -118 287 -114 C 299 -110 311 -105 321 -99 C 331 -92 340 -84 346 -74 C 352 -64 356 -53 356 -41 L 161 125 C 151 133 141 142 132 151 C 122 159 114 168 107 178 C 100 188 94 198 90 209 C 86 220 84 232 84 246 C 84 269 90 288 102 304 C 114 319 131 333 151 347 C 135 360 123 374 113 388 C 103 402 98 418 98 438 C 98 457 101 474 109 490 C 117 506 127 519 141 530 C 155 541 171 549 190 555 C 208 561 228 564 250 564 C 267 564 284 562 302 560 C 320 557 335 553 349 547 L 358 564 L 386 564 L 386 423 L 358 423 L 339 499 C 325 510 311 518 296 522 C 280 526 264 528 246 528 C 234 528 223 526 212 523 C 200 519 190 514 181 508 C 172 502 165 494 160 485 C 154 476 152 466 152 455 L 152 450 C 152 448 152 447 153 447 L 344 286 C 370 264 389 243 403 225 C 417 206 424 185 424 162 Z M 370 136 C 370 146 367 155 363 163 C 359 170 351 178 340 188 L 171 330 C 163 324 155 317 148 307 C 141 297 138 286 138 276 C 138 262 140 251 146 243 C 151 235 159 226 169 218 L 336 76 C 346 83 354 91 360 101 C 366 110 370 122 370 136 Z" unicode="§" />
<glyph horiz-adv-x="500" d="M 378 540 C 378 528 373 517 365 509 C 356 500 346 496 334 496 C 322 496 311 500 303 509 C 294 517 290 528 290 540 C 290 552 294 562 303 571 C 311 579 322 584 334 584 C 346 584 356 579 365 571 C 373 562 378 552 378 540 Z M 210 540 C 210 528 205 517 197 509 C 188 500 178 496 166 496 C 154 496 143 500 135 509 C 126 517 122 528 122 540 C 122 552 126 562 135 571 C 143 579 154 584 166 584 C 178 584 188 579 197 571 C 205 562 210 552 210 540 Z" unicode="¨" />
<glyph horiz-adv-x="750" d="M 691 232 C 691 188 682 146 666 108 C 649 70 626 36 598 8 C 570 -19 536 -42 498 -59 C 460 -75 419 -84 375 -84 C 331 -84 289 -75 251 -59 C 213 -42 179 -19 151 8 C 123 36 100 70 84 108 C 67 146 59 188 59 232 C 59 276 67 317 84 355 C 100 393 123 427 151 455 C 179 483 213 506 251 523 C 289 539 331 548 375 548 C 419 548 460 539 498 523 C 536 506 570 483 598 455 C 626 427 649 393 666 355 C 682 317 691 276 691 232 Z M 647 232 C 647 270 639 305 625 339 C 611 373 591 402 567 428 C 543 453 514 473 481 488 C 448 502 413 510 375 510 C 337 510 301 502 268 488 C 235 473 206 453 182 428 C 158 402 138 373 124 339 C 110 305 103 270 103 232 C 103 194 110 158 124 124 C 138 90 158 61 182 36 C 206 10 235 -9 268 -24 C 301 -38 337 -46 375 -46 C 413 -46 448 -38 481 -24 C 514 -9 543 10 567 36 C 591 61 611 90 625 124 C 639 158 647 194 647 232 Z M 523 97 C 500 79 477 66 455 59 C 433 51 407 48 378 48 C 350 48 325 52 302 61 C 279 69 259 82 242 98 C 225 114 212 133 202 155 C 192 177 188 201 188 229 C 188 257 192 282 202 305 C 212 328 225 348 243 364 C 260 380 280 393 304 402 C 328 411 354 416 382 416 C 401 416 418 414 434 412 C 450 409 466 404 483 396 L 488 416 L 514 416 L 510 308 L 484 308 L 476 354 C 460 365 444 373 430 377 C 415 381 398 384 378 384 C 358 384 340 380 325 372 C 309 364 296 354 286 340 C 275 326 267 311 262 293 C 256 275 254 257 254 237 C 254 214 257 193 263 174 C 269 155 277 139 289 125 C 301 111 315 100 333 92 C 350 84 370 80 393 80 C 416 80 437 83 455 91 C 473 99 490 110 508 125 L 523 97 Z" unicode="©" />
<glyph horiz-adv-x="317" d="M 305 286 C 300 280 292 273 280 267 C 268 260 255 257 243 257 C 219 257 202 269 193 294 C 183 286 171 277 156 269 C 141 261 127 257 114 257 C 91 257 72 263 58 275 C 43 287 36 305 36 327 C 36 352 44 371 61 384 C 77 396 97 405 121 410 L 190 423 L 190 457 C 190 474 186 487 178 496 C 170 505 156 510 138 510 C 122 510 109 505 98 497 C 86 488 76 477 67 463 L 45 483 C 55 499 70 512 89 523 C 108 534 128 540 148 540 C 180 540 204 533 221 519 C 237 505 246 486 246 461 L 246 331 C 246 313 249 302 255 297 C 261 292 267 290 274 290 C 285 290 294 293 300 299 L 305 286 Z M 190 315 L 190 402 L 145 394 C 129 390 115 384 104 376 C 93 368 88 355 88 338 C 88 322 93 310 103 302 C 113 294 124 291 134 291 C 144 291 154 293 164 298 C 174 303 182 309 190 315 Z" unicode="ª" />
<glyph horiz-adv-x="500" d="M 423 52 L 403 36 L 235 210 L 403 384 L 423 368 L 317 210 L 423 52 Z M 248 52 L 228 36 L 60 210 L 228 384 L 248 368 L 142 210 L 248 52 Z" unicode="«" />
<glyph horiz-adv-x="625" d="M 537 195 L 88 195 L 88 243 L 537 243 L 537 195 Z" unicode="¬" />
<glyph horiz-adv-x="280" d="M 240 206 L 40 182 L 40 236 L 240 260 L 240 206 Z" unicode="­" />
<glyph horiz-adv-x="520" d="M 484 408 C 484 376 478 347 466 320 C 454 293 438 270 418 250 C 398 230 374 214 347 202 C 319 190 290 185 260 185 C 228 185 199 190 172 202 C 145 214 121 230 101 250 C 81 270 65 293 53 320 C 41 347 36 376 36 408 C 36 438 41 467 53 495 C 65 522 81 546 101 566 C 121 586 145 602 172 614 C 199 626 228 632 260 632 C 290 632 319 626 347 614 C 374 602 398 586 418 566 C 438 546 454 522 466 495 C 478 467 484 438 484 408 Z M 450 408 C 450 434 445 459 435 483 C 425 507 412 528 395 546 C 378 564 358 578 335 588 C 311 598 286 604 260 604 C 233 604 208 598 185 588 C 161 578 141 564 124 546 C 107 528 94 507 84 483 C 74 459 70 434 70 408 C 70 381 74 356 84 332 C 94 308 107 288 124 270 C 141 252 161 237 185 227 C 208 217 233 212 260 212 C 286 212 311 217 335 227 C 358 237 378 252 395 270 C 412 288 425 308 435 332 C 445 356 450 381 450 408 Z M 396 283 L 332 283 L 261 389 L 226 386 L 226 304 L 258 300 L 258 283 L 152 283 L 152 300 L 184 304 L 184 516 L 152 520 L 152 537 L 263 537 C 288 537 309 531 327 521 C 344 511 353 494 353 471 C 353 453 348 437 338 425 C 328 413 315 404 299 399 L 370 305 L 396 300 L 396 283 Z M 308 467 C 308 484 302 497 292 505 C 281 513 267 518 250 518 C 245 518 241 517 238 517 C 235 517 231 516 226 516 L 226 408 L 246 408 C 287 408 308 427 308 467 Z" unicode="®" />
<glyph horiz-adv-x="500" d="M 390 517 L 110 517 L 110 565 L 390 565 L 390 517 Z" unicode="¯" />
<glyph horiz-adv-x="330" d="M 298 498 C 298 479 294 461 287 445 C 280 429 271 415 259 403 C 247 391 232 381 216 374 C 200 367 183 364 165 364 C 147 364 129 367 113 374 C 97 381 83 391 71 403 C 59 415 49 429 42 445 C 35 461 32 479 32 498 C 32 516 35 534 42 550 C 49 566 59 581 71 593 C 83 605 97 614 113 621 C 129 628 147 632 165 632 C 183 632 200 628 216 621 C 232 614 247 605 259 593 C 271 581 280 566 287 550 C 294 534 298 516 298 498 Z M 254 498 C 254 510 251 522 247 534 C 242 546 236 556 228 564 C 220 572 210 579 200 584 C 189 589 177 592 165 592 C 152 592 140 589 130 584 C 119 579 110 572 102 564 C 94 556 87 546 83 534 C 78 522 76 510 76 498 C 76 472 84 449 101 431 C 118 413 139 404 165 404 C 190 404 211 413 228 431 C 245 449 254 472 254 498 Z" unicode="°" />
<glyph horiz-adv-x="804" d="M 776 0 L 574 0 L 574 28 L 639 36 L 639 590 L 596 641 C 580 652 563 658 543 658 C 503 658 475 645 458 620 C 441 594 433 561 433 519 L 433 400 L 586 400 L 586 360 L 433 360 L 433 36 L 529 28 L 529 0 L 296 0 L 296 28 L 361 36 L 361 360 L 165 360 L 165 36 L 261 28 L 261 0 L 28 0 L 28 28 L 93 36 L 93 360 L 28 360 L 28 386 L 93 406 L 93 487 C 93 513 97 538 106 562 C 115 586 128 606 145 624 C 161 641 181 655 203 665 C 225 675 250 680 278 680 C 306 680 330 676 350 668 C 369 660 389 648 411 632 C 427 650 447 665 469 675 C 491 685 517 690 545 690 C 563 690 581 687 599 682 C 617 677 635 670 651 661 L 711 672 L 711 36 L 776 28 L 776 0 Z M 379 584 L 329 636 C 315 644 299 648 283 648 C 241 648 210 635 192 610 C 174 584 165 551 165 509 L 165 400 L 361 400 L 361 497 C 361 513 362 528 366 542 C 369 556 373 570 379 584 Z" unicode="±" />
<glyph horiz-adv-x="332" d="M 309 380 L 296 279 L 31 279 L 24 310 L 113 381 C 131 395 147 408 161 420 C 174 432 185 443 194 454 C 202 465 209 476 213 488 C 217 500 219 513 219 528 C 219 549 212 566 200 579 C 188 592 171 599 149 599 C 129 599 113 593 100 582 C 86 571 75 557 66 539 L 39 565 C 53 587 71 604 91 616 C 111 628 134 634 161 634 C 177 634 193 631 208 627 C 223 623 236 616 248 608 C 259 599 268 588 275 576 C 281 564 285 549 285 533 C 285 519 283 506 279 495 C 275 484 269 474 261 464 C 253 454 244 444 233 434 C 221 424 208 414 194 403 L 107 334 L 107 331 L 264 331 L 284 385 L 309 380 Z" unicode="²" />
<glyph horiz-adv-x="332" d="M 291 375 C 291 357 286 342 278 328 C 270 314 259 303 246 293 C 232 283 217 276 200 271 C 183 265 166 263 150 263 C 130 263 111 265 92 271 C 73 276 56 284 41 295 L 58 329 C 69 319 82 312 97 307 C 112 301 127 299 141 299 C 165 299 185 304 201 316 C 217 327 225 345 225 369 C 225 392 217 409 202 420 C 187 431 168 437 145 437 C 137 437 130 436 122 436 C 114 435 106 434 99 433 L 96 470 L 104 470 C 118 470 132 471 146 473 C 159 475 170 479 180 485 C 189 491 196 498 202 508 C 208 518 211 530 211 545 C 211 564 204 578 191 586 C 178 594 163 599 146 599 C 114 599 90 585 75 558 L 48 585 C 61 602 77 614 95 622 C 113 629 134 633 157 633 C 171 633 186 631 200 627 C 214 623 227 617 238 610 C 249 603 258 594 265 584 C 271 573 275 561 275 549 C 275 526 266 507 249 493 C 231 478 211 468 188 463 L 188 461 C 201 459 214 456 226 452 C 238 447 249 441 259 434 C 269 426 276 418 282 408 C 288 398 291 387 291 375 Z" unicode="³" />
<glyph horiz-adv-x="500" d="M 359 607 L 202 452 L 185 465 L 306 651 L 359 607 Z" unicode="´" />
<glyph horiz-adv-x="500" d="M 506 35 C 496 19 482 7 464 0 C 446 -8 427 -12 408 -12 C 396 -12 384 -9 372 -4 C 360 1 351 8 345 16 L 345 79 L 341 80 C 326 51 307 28 284 12 C 261 -3 234 -12 202 -12 C 184 -12 167 -8 152 -2 C 137 4 124 15 113 29 L 111 27 L 127 -216 L 55 -216 L 71 48 L 71 400 L 143 400 L 143 75 C 149 59 160 48 176 41 C 191 33 207 30 223 30 C 242 30 259 35 274 45 C 288 55 301 67 311 83 C 321 99 328 116 333 136 C 338 156 341 175 341 195 L 341 400 L 413 400 L 413 44 C 421 37 431 34 443 34 C 451 34 460 35 469 39 C 477 42 484 47 490 55 L 506 35 Z" unicode="µ" />
<glyph horiz-adv-x="489" d="M 453 584 L 375 576 L 375 -140 L 329 -140 L 329 136 C 287 136 248 140 212 150 C 176 160 144 175 117 195 C 89 215 68 240 52 270 C 36 300 28 335 28 377 C 28 415 34 448 46 478 C 58 507 76 532 98 553 C 120 573 147 589 179 600 C 210 610 245 616 283 616 L 453 616 L 453 584 Z M 329 172 L 329 580 L 237 580 L 237 277 C 237 241 243 214 256 197 C 268 180 293 172 329 172 Z" unicode="¶" />
<glyph horiz-adv-x="250" d="M 181 256 C 181 240 175 227 164 216 C 153 205 140 200 125 200 C 109 200 96 205 85 216 C 74 227 69 240 69 256 C 69 271 74 284 85 295 C 96 306 109 312 125 312 C 140 312 153 306 164 295 C 175 284 181 271 181 256 Z" unicode="·" />
<glyph horiz-adv-x="500" d="M 275 0 L 261 -69 C 269 -71 278 -75 288 -79 C 298 -83 306 -89 314 -95 C 322 -101 328 -109 333 -119 C 338 -128 341 -139 341 -152 C 341 -169 337 -184 330 -198 C 323 -211 314 -222 302 -231 C 290 -239 276 -246 260 -250 C 244 -254 228 -257 211 -257 C 189 -257 169 -252 151 -243 L 163 -210 C 170 -214 178 -217 188 -219 C 197 -221 206 -222 216 -222 C 234 -222 250 -217 263 -208 C 276 -198 283 -185 283 -169 C 283 -161 281 -154 279 -148 C 277 -142 272 -136 266 -131 C 259 -125 250 -120 238 -116 C 226 -112 210 -107 190 -102 L 247 0 L 275 0 Z" unicode="¸" />
<glyph horiz-adv-x="332" d="M 274 278 L 78 278 L 78 304 L 146 312 L 146 578 L 72 578 L 72 602 L 206 630 L 206 312 L 274 304 L 274 278 Z" unicode="¹" />
<glyph horiz-adv-x="340" d="M 308 400 C 308 378 304 359 297 342 C 289 325 279 310 267 298 C 255 285 240 275 223 269 C 206 262 188 259 170 259 C 150 259 132 262 116 269 C 99 275 84 285 72 298 C 60 310 50 325 43 342 C 35 359 32 378 32 400 C 32 420 35 439 43 457 C 50 474 60 489 72 501 C 84 513 99 523 116 530 C 132 536 150 540 170 540 C 188 540 206 536 223 530 C 240 523 255 513 267 501 C 279 489 289 474 297 457 C 304 439 308 420 308 400 Z M 246 400 C 246 439 239 468 225 487 C 211 505 193 515 170 515 C 146 515 128 505 114 487 C 100 468 94 439 94 400 C 94 360 100 331 114 312 C 128 293 146 284 170 284 C 193 284 211 293 225 312 C 239 331 246 360 246 400 Z" unicode="º" />
<glyph horiz-adv-x="500" d="M 440 210 L 272 36 L 252 52 L 358 210 L 252 368 L 272 384 L 440 210 Z M 265 210 L 97 36 L 77 52 L 183 210 L 77 368 L 97 384 L 265 210 Z" unicode="»" />
<glyph horiz-adv-x="750" d="M 252 278 L 54 278 L 54 304 L 122 312 L 122 578 L 48 578 L 48 602 L 184 630 L 184 312 L 252 304 L 252 278 Z M 571 609 L 180 -17 L 144 6 L 535 632 L 571 609 Z M 701 126 L 693 82 L 634 82 L 634 -24 L 574 -24 L 574 82 L 397 82 L 389 117 L 574 330 L 603 372 L 638 365 L 634 285 L 634 126 L 701 126 Z M 574 126 L 574 283 L 438 126 L 574 126 Z" unicode="¼" />
<glyph horiz-adv-x="750" d="M 242 278 L 44 278 L 44 304 L 112 312 L 112 578 L 38 578 L 38 602 L 174 630 L 174 312 L 242 304 L 242 278 Z M 561 609 L 170 -17 L 134 6 L 525 632 L 561 609 Z M 702 101 L 689 0 L 424 0 L 417 31 L 506 102 C 524 116 540 129 554 141 C 567 153 578 164 587 175 C 595 186 602 197 606 209 C 610 221 612 234 612 249 C 612 270 605 287 593 300 C 581 313 564 320 542 320 C 522 320 506 314 493 303 C 479 292 468 278 459 260 L 432 286 C 446 308 464 325 484 337 C 504 349 527 355 554 355 C 570 355 586 352 601 348 C 616 344 629 337 641 329 C 652 320 661 309 668 297 C 674 285 678 270 678 254 C 678 240 676 227 672 216 C 668 205 662 195 654 185 C 646 175 637 165 626 155 C 614 145 601 135 587 124 L 500 55 L 500 52 L 657 52 L 677 106 L 702 101 Z" unicode="½" />
<glyph horiz-adv-x="750" d="M 283 375 C 283 357 278 342 270 328 C 262 314 251 303 238 293 C 224 283 209 276 192 271 C 175 265 158 263 142 263 C 122 263 103 265 84 271 C 65 276 48 284 33 295 L 50 329 C 61 319 74 312 89 307 C 104 301 119 299 133 299 C 157 299 177 304 193 316 C 209 327 217 345 217 369 C 217 392 209 409 194 420 C 179 431 160 437 137 437 C 129 437 122 436 114 436 C 106 435 98 434 91 433 L 88 470 L 96 470 C 110 470 124 471 138 473 C 151 475 162 479 172 485 C 181 491 188 498 194 508 C 200 518 203 530 203 545 C 203 564 196 578 183 586 C 170 594 155 599 138 599 C 106 599 82 585 67 558 L 40 585 C 53 602 69 614 87 622 C 105 629 126 633 149 633 C 163 633 178 631 192 627 C 206 623 219 617 230 610 C 241 603 250 594 257 584 C 263 573 267 561 267 549 C 267 526 258 507 241 493 C 223 478 203 468 180 463 L 180 461 C 193 459 206 456 218 452 C 230 447 241 441 251 434 C 261 426 268 418 274 408 C 280 398 283 387 283 375 Z M 571 609 L 180 -17 L 144 6 L 535 632 L 571 609 Z M 701 126 L 693 82 L 634 82 L 634 -24 L 574 -24 L 574 82 L 397 82 L 389 117 L 574 330 L 603 372 L 638 365 L 634 285 L 634 126 L 701 126 Z M 574 126 L 574 283 L 438 126 L 574 126 Z" unicode="¾" />
<glyph horiz-adv-x="410" d="M 321 365 C 321 351 316 339 306 329 C 296 319 284 314 270 314 C 256 314 244 319 234 329 C 224 339 219 351 219 365 C 219 379 224 391 234 401 C 244 411 256 416 270 416 C 284 416 296 411 306 401 C 316 391 321 379 321 365 Z M 376 -216 C 363 -224 348 -230 330 -234 C 312 -238 295 -241 277 -241 C 243 -241 211 -236 183 -226 C 154 -216 129 -201 108 -183 C 87 -164 71 -141 59 -115 C 47 -88 42 -58 42 -24 C 42 2 47 27 59 50 C 70 73 85 93 104 110 C 122 127 144 140 169 150 C 193 159 219 164 247 164 L 247 270 L 292 270 L 292 92 L 256 92 C 234 92 213 88 194 82 C 175 76 159 67 145 55 C 131 43 120 28 112 11 C 104 -6 100 -26 100 -48 C 100 -68 104 -88 112 -106 C 120 -124 132 -140 146 -154 C 160 -168 177 -179 196 -187 C 215 -195 235 -199 256 -199 L 349 -150 L 376 -216 Z" unicode="¿" />
<glyph horiz-adv-x="606" d="M 348 664 L 331 651 L 174 806 L 227 850 L 348 664 Z M 608 0 L 383 0 L 383 32 L 466 40 L 403 200 L 169 200 L 107 43 L 188 32 L 188 0 L -2 0 L -2 34 L 58 44 L 288 616 L 318 616 L 550 40 L 608 32 L 608 0 Z M 387 240 L 285 500 L 185 240 L 387 240 Z" unicode="À" />
<glyph horiz-adv-x="606" d="M 428 806 L 271 651 L 254 664 L 375 850 L 428 806 Z M 608 0 L 383 0 L 383 32 L 466 40 L 403 200 L 169 200 L 107 43 L 188 32 L 188 0 L -2 0 L -2 34 L 58 44 L 288 616 L 318 616 L 550 40 L 608 32 L 608 0 Z M 387 240 L 285 500 L 185 240 L 387 240 Z" unicode="Á" />
<glyph horiz-adv-x="606" d="M 435 658 L 418 647 L 304 769 L 190 647 L 173 658 L 298 851 L 310 851 L 435 658 Z M 608 0 L 383 0 L 383 32 L 466 40 L 403 200 L 169 200 L 107 43 L 188 32 L 188 0 L -2 0 L -2 34 L 58 44 L 288 616 L 318 616 L 550 40 L 608 32 L 608 0 Z M 387 240 L 285 500 L 185 240 L 387 240 Z" unicode="Â" />
<glyph horiz-adv-x="606" d="M 465 781 C 461 771 455 760 448 749 C 441 737 433 727 425 717 C 416 707 406 698 396 692 C 385 686 374 683 364 683 C 354 683 343 686 331 692 C 319 698 307 704 295 711 C 283 718 271 725 259 731 C 247 737 237 740 227 740 C 211 740 198 734 188 722 C 178 710 170 699 163 687 L 143 698 C 147 708 152 718 159 730 C 166 741 174 752 183 762 C 191 772 201 780 211 786 C 221 792 232 796 244 796 C 254 796 264 793 276 787 C 288 781 300 774 312 767 C 324 760 336 754 348 748 C 360 742 371 739 381 739 C 397 739 409 744 419 756 C 429 768 437 780 445 792 L 465 781 Z M 608 0 L 383 0 L 383 32 L 466 40 L 403 200 L 169 200 L 107 43 L 188 32 L 188 0 L -2 0 L -2 34 L 58 44 L 288 616 L 318 616 L 550 40 L 608 32 L 608 0 Z M 387 240 L 285 500 L 185 240 L 387 240 Z" unicode="Ã" />
<glyph horiz-adv-x="606" d="M 432 739 C 432 727 427 716 419 708 C 410 699 400 695 388 695 C 376 695 365 699 357 708 C 348 716 344 727 344 739 C 344 751 348 761 357 770 C 365 778 376 783 388 783 C 400 783 410 778 419 770 C 427 761 432 751 432 739 Z M 264 739 C 264 727 259 716 251 708 C 242 699 232 695 220 695 C 208 695 197 699 189 708 C 180 716 176 727 176 739 C 176 751 180 761 189 770 C 197 778 208 783 220 783 C 232 783 242 778 251 770 C 259 761 264 751 264 739 Z M 608 0 L 383 0 L 383 32 L 466 40 L 403 200 L 169 200 L 107 43 L 188 32 L 188 0 L -2 0 L -2 34 L 58 44 L 288 616 L 318 616 L 550 40 L 608 32 L 608 0 Z M 387 240 L 285 500 L 185 240 L 387 240 Z" unicode="Ä" />
<glyph horiz-adv-x="606" d="M 405 735 C 405 707 395 685 375 668 C 355 650 332 642 304 642 C 276 642 252 650 232 668 C 212 685 203 707 203 735 C 203 762 212 784 232 802 C 252 819 276 828 304 828 C 332 828 355 819 375 802 C 395 784 405 762 405 735 Z M 608 0 L 383 0 L 383 32 L 466 40 L 403 200 L 169 200 L 107 43 L 188 32 L 188 0 L -2 0 L -2 34 L 58 44 L 288 616 L 318 616 L 550 40 L 608 32 L 608 0 Z M 357 735 C 357 753 352 769 344 783 C 335 797 322 804 304 804 C 286 804 272 797 264 783 C 255 769 251 753 251 735 C 251 717 255 701 264 687 C 272 673 286 666 304 666 C 322 666 335 673 344 687 C 352 701 357 717 357 735 Z M 387 240 L 285 500 L 185 240 L 387 240 Z" unicode="Å" />
<glyph horiz-adv-x="776" d="M 728 0 L 284 0 L 284 32 L 362 40 L 362 229 L 148 229 L 47 42 L 124 32 L 124 0 L -62 0 L -62 34 L -2 44 L 289 576 L 211 584 L 211 616 L 714 616 L 714 476 L 678 476 L 664 576 L 438 576 L 438 341 L 602 341 L 612 410 L 646 410 L 646 232 L 612 232 L 602 301 L 438 301 L 438 42 L 676 42 L 690 150 L 728 150 L 728 0 Z M 362 269 L 362 576 L 338 576 L 170 269 L 362 269 Z" unicode="Æ" />
<glyph horiz-adv-x="619" d="M 580 85 C 514 17 436 -16 347 -16 L 336 -69 C 344 -71 353 -75 363 -79 C 373 -83 381 -89 389 -95 C 397 -101 403 -109 408 -119 C 413 -128 416 -139 416 -152 C 416 -169 412 -184 405 -198 C 398 -211 389 -222 377 -231 C 365 -239 351 -246 335 -250 C 319 -254 303 -257 286 -257 C 264 -257 244 -252 226 -243 L 238 -210 C 245 -214 253 -217 263 -219 C 272 -221 281 -222 291 -222 C 309 -222 325 -217 338 -208 C 351 -198 358 -185 358 -169 C 358 -161 356 -154 354 -148 C 352 -142 347 -136 341 -131 C 334 -125 325 -120 313 -116 C 301 -112 285 -107 265 -102 L 314 -15 C 274 -11 236 0 202 15 C 168 31 138 53 114 81 C 89 109 70 141 56 179 C 42 216 35 258 35 304 C 35 352 42 397 58 437 C 74 477 96 512 124 541 C 152 569 187 592 227 608 C 267 624 311 632 360 632 C 402 632 436 629 462 623 C 488 617 511 610 530 602 L 543 632 L 575 632 L 567 451 L 535 451 L 519 530 C 495 550 470 565 444 576 C 418 586 384 592 343 592 C 313 592 284 585 258 573 C 231 560 208 542 188 519 C 168 495 152 467 140 433 C 128 399 123 361 123 319 C 123 281 128 244 138 209 C 148 174 163 143 183 117 C 202 90 226 69 255 53 C 283 37 316 29 354 29 C 394 29 431 36 465 52 C 499 67 529 89 556 117 L 580 85 Z" unicode="Ç" />
<glyph horiz-adv-x="537" d="M 345 664 L 328 651 L 171 806 L 224 850 L 345 664 Z M 489 0 L 43 0 L 43 32 L 121 40 L 121 576 L 43 584 L 43 616 L 475 616 L 475 476 L 439 476 L 425 576 L 199 576 L 199 341 L 363 341 L 373 410 L 407 410 L 407 232 L 373 232 L 363 301 L 199 301 L 199 42 L 437 42 L 451 150 L 489 150 L 489 0 Z" unicode="È" />
<glyph horiz-adv-x="537" d="M 373 806 L 216 651 L 199 664 L 320 850 L 373 806 Z M 489 0 L 43 0 L 43 32 L 121 40 L 121 576 L 43 584 L 43 616 L 475 616 L 475 476 L 439 476 L 425 576 L 199 576 L 199 341 L 363 341 L 373 410 L 407 410 L 407 232 L 373 232 L 363 301 L 199 301 L 199 42 L 437 42 L 451 150 L 489 150 L 489 0 Z" unicode="É" />
<glyph horiz-adv-x="537" d="M 415 658 L 398 647 L 284 769 L 170 647 L 153 658 L 278 851 L 290 851 L 415 658 Z M 489 0 L 43 0 L 43 32 L 121 40 L 121 576 L 43 584 L 43 616 L 475 616 L 475 476 L 439 476 L 425 576 L 199 576 L 199 341 L 363 341 L 373 410 L 407 410 L 407 232 L 373 232 L 363 301 L 199 301 L 199 42 L 437 42 L 451 150 L 489 150 L 489 0 Z" unicode="Ê" />
<glyph horiz-adv-x="537" d="M 411 739 C 411 727 406 716 398 708 C 389 699 379 695 367 695 C 355 695 344 699 336 708 C 327 716 323 727 323 739 C 323 751 327 761 336 770 C 344 778 355 783 367 783 C 379 783 389 778 398 770 C 406 761 411 751 411 739 Z M 243 739 C 243 727 238 716 230 708 C 221 699 211 695 199 695 C 187 695 176 699 168 708 C 159 716 155 727 155 739 C 155 751 159 761 168 770 C 176 778 187 783 199 783 C 211 783 221 778 230 770 C 238 761 243 751 243 739 Z M 489 0 L 43 0 L 43 32 L 121 40 L 121 576 L 43 584 L 43 616 L 475 616 L 475 476 L 439 476 L 425 576 L 199 576 L 199 341 L 363 341 L 373 410 L 407 410 L 407 232 L 373 232 L 363 301 L 199 301 L 199 42 L 437 42 L 451 150 L 489 150 L 489 0 Z" unicode="Ë" />
<glyph horiz-adv-x="328" d="M 229 664 L 212 651 L 55 806 L 108 850 L 229 664 Z M 281 0 L 47 0 L 47 32 L 125 40 L 125 576 L 47 584 L 47 616 L 281 616 L 281 584 L 203 576 L 203 40 L 281 32 L 281 0 Z" unicode="Ì" />
<glyph horiz-adv-x="328" d="M 273 806 L 116 651 L 99 664 L 220 850 L 273 806 Z M 281 0 L 47 0 L 47 32 L 125 40 L 125 576 L 47 584 L 47 616 L 281 616 L 281 584 L 203 576 L 203 40 L 281 32 L 281 0 Z" unicode="Í" />
<glyph horiz-adv-x="328" d="M 295 658 L 278 647 L 164 769 L 50 647 L 33 658 L 158 851 L 170 851 L 295 658 Z M 281 0 L 47 0 L 47 32 L 125 40 L 125 576 L 47 584 L 47 616 L 281 616 L 281 584 L 203 576 L 203 40 L 281 32 L 281 0 Z" unicode="Î" />
<glyph horiz-adv-x="328" d="M 292 739 C 292 727 287 716 279 708 C 270 699 260 695 248 695 C 236 695 225 699 217 708 C 208 716 204 727 204 739 C 204 751 208 761 217 770 C 225 778 236 783 248 783 C 260 783 270 778 279 770 C 287 761 292 751 292 739 Z M 124 739 C 124 727 119 716 111 708 C 102 699 92 695 80 695 C 68 695 57 699 49 708 C 40 716 36 727 36 739 C 36 751 40 761 49 770 C 57 778 68 783 80 783 C 92 783 102 778 111 770 C 119 761 124 751 124 739 Z M 281 0 L 47 0 L 47 32 L 125 40 L 125 576 L 47 584 L 47 616 L 281 616 L 281 584 L 203 576 L 203 40 L 281 32 L 281 0 Z" unicode="Ï" />
<glyph horiz-adv-x="675" d="M 643 316 C 643 267 635 223 619 184 C 603 145 581 112 553 85 C 524 57 489 36 449 22 C 408 7 363 0 313 0 L 43 0 L 43 32 L 121 40 L 121 297 L 43 297 L 43 341 L 121 341 L 121 576 L 43 584 L 43 616 L 308 616 C 356 616 401 609 442 596 C 483 583 518 564 548 539 C 578 513 601 482 618 445 C 634 407 643 364 643 316 Z M 556 304 C 556 391 532 459 485 507 C 437 555 369 580 281 580 C 267 580 252 579 238 579 C 223 578 210 577 199 576 L 199 341 L 345 341 L 345 297 L 199 297 L 199 44 C 208 42 217 41 227 40 C 235 38 243 37 252 37 C 261 36 269 36 277 36 C 319 36 358 41 392 52 C 426 63 456 80 480 102 C 504 124 523 152 536 186 C 549 219 556 258 556 304 Z" unicode="Ð" />
<glyph horiz-adv-x="708" d="M 521 781 C 517 771 511 760 504 749 C 497 737 489 727 481 717 C 472 707 462 698 452 692 C 441 686 430 683 420 683 C 410 683 399 686 387 692 C 375 698 363 704 351 711 C 339 718 327 725 315 731 C 303 737 293 740 283 740 C 267 740 254 734 244 722 C 234 710 226 699 219 687 L 199 698 C 203 708 208 718 215 730 C 222 741 230 752 239 762 C 247 772 257 780 267 786 C 277 792 288 796 300 796 C 310 796 320 793 332 787 C 344 781 356 774 368 767 C 380 760 392 754 404 748 C 416 742 427 739 437 739 C 453 739 465 744 475 756 C 485 768 493 780 501 792 L 521 781 Z M 676 584 L 598 572 L 598 -4 L 573 -4 L 164 497 L 164 44 L 242 32 L 242 0 L 38 0 L 38 32 L 116 44 L 116 552 L 97 575 L 38 584 L 38 616 L 167 616 L 550 144 L 550 572 L 472 584 L 472 616 L 676 616 L 676 584 Z" unicode="Ñ" />
<glyph horiz-adv-x="694" d="M 412 664 L 395 651 L 238 806 L 291 850 L 412 664 Z M 655 313 C 655 264 647 219 631 179 C 615 139 594 104 566 75 C 538 46 506 24 468 8 C 430 -8 388 -16 344 -16 C 299 -16 258 -8 221 6 C 183 21 151 42 124 70 C 97 98 76 131 61 171 C 46 210 39 254 39 303 C 39 351 46 396 62 436 C 78 476 99 511 127 540 C 155 569 188 592 226 608 C 264 624 305 632 350 632 C 394 632 435 624 473 609 C 510 594 542 573 569 545 C 596 517 617 484 632 445 C 647 405 655 361 655 313 Z M 568 303 C 568 347 562 388 550 424 C 538 460 521 490 501 515 C 480 539 456 558 429 572 C 402 585 374 592 344 592 C 314 592 286 585 260 573 C 234 561 211 543 191 520 C 171 496 155 467 143 432 C 131 397 126 357 126 313 C 126 267 132 227 144 191 C 156 155 172 125 193 101 C 213 76 237 57 264 44 C 291 30 320 24 350 24 C 378 24 406 30 432 42 C 458 54 482 72 502 96 C 522 119 538 148 550 183 C 562 217 568 257 568 303 Z" unicode="Ò" />
<glyph horiz-adv-x="694" d="M 456 806 L 299 651 L 282 664 L 403 850 L 456 806 Z M 655 313 C 655 264 647 219 631 179 C 615 139 594 104 566 75 C 538 46 506 24 468 8 C 430 -8 388 -16 344 -16 C 299 -16 258 -8 221 6 C 183 21 151 42 124 70 C 97 98 76 131 61 171 C 46 210 39 254 39 303 C 39 351 46 396 62 436 C 78 476 99 511 127 540 C 155 569 188 592 226 608 C 264 624 305 632 350 632 C 394 632 435 624 473 609 C 510 594 542 573 569 545 C 596 517 617 484 632 445 C 647 405 655 361 655 313 Z M 568 303 C 568 347 562 388 550 424 C 538 460 521 490 501 515 C 480 539 456 558 429 572 C 402 585 374 592 344 592 C 314 592 286 585 260 573 C 234 561 211 543 191 520 C 171 496 155 467 143 432 C 131 397 126 357 126 313 C 126 267 132 227 144 191 C 156 155 172 125 193 101 C 213 76 237 57 264 44 C 291 30 320 24 350 24 C 378 24 406 30 432 42 C 458 54 482 72 502 96 C 522 119 538 148 550 183 C 562 217 568 257 568 303 Z" unicode="Ó" />
<glyph horiz-adv-x="694" d="M 478 658 L 461 647 L 347 769 L 233 647 L 216 658 L 341 851 L 353 851 L 478 658 Z M 655 313 C 655 264 647 219 631 179 C 615 139 594 104 566 75 C 538 46 506 24 468 8 C 430 -8 388 -16 344 -16 C 299 -16 258 -8 221 6 C 183 21 151 42 124 70 C 97 98 76 131 61 171 C 46 210 39 254 39 303 C 39 351 46 396 62 436 C 78 476 99 511 127 540 C 155 569 188 592 226 608 C 264 624 305 632 350 632 C 394 632 435 624 473 609 C 510 594 542 573 569 545 C 596 517 617 484 632 445 C 647 405 655 361 655 313 Z M 568 303 C 568 347 562 388 550 424 C 538 460 521 490 501 515 C 480 539 456 558 429 572 C 402 585 374 592 344 592 C 314 592 286 585 260 573 C 234 561 211 543 191 520 C 171 496 155 467 143 432 C 131 397 126 357 126 313 C 126 267 132 227 144 191 C 156 155 172 125 193 101 C 213 76 237 57 264 44 C 291 30 320 24 350 24 C 378 24 406 30 432 42 C 458 54 482 72 502 96 C 522 119 538 148 550 183 C 562 217 568 257 568 303 Z" unicode="Ô" />
<glyph horiz-adv-x="694" d="M 508 781 C 504 771 498 760 491 749 C 484 737 476 727 468 717 C 459 707 449 698 439 692 C 428 686 417 683 407 683 C 397 683 386 686 374 692 C 362 698 350 704 338 711 C 326 718 314 725 302 731 C 290 737 280 740 270 740 C 254 740 241 734 231 722 C 221 710 213 699 206 687 L 186 698 C 190 708 195 718 202 730 C 209 741 217 752 226 762 C 234 772 244 780 254 786 C 264 792 275 796 287 796 C 297 796 307 793 319 787 C 331 781 343 774 355 767 C 367 760 379 754 391 748 C 403 742 414 739 424 739 C 440 739 452 744 462 756 C 472 768 480 780 488 792 L 508 781 Z M 655 313 C 655 264 647 219 631 179 C 615 139 594 104 566 75 C 538 46 506 24 468 8 C 430 -8 388 -16 344 -16 C 299 -16 258 -8 221 6 C 183 21 151 42 124 70 C 97 98 76 131 61 171 C 46 210 39 254 39 303 C 39 351 46 396 62 436 C 78 476 99 511 127 540 C 155 569 188 592 226 608 C 264 624 305 632 350 632 C 394 632 435 624 473 609 C 510 594 542 573 569 545 C 596 517 617 484 632 445 C 647 405 655 361 655 313 Z M 568 303 C 568 347 562 388 550 424 C 538 460 521 490 501 515 C 480 539 456 558 429 572 C 402 585 374 592 344 592 C 314 592 286 585 260 573 C 234 561 211 543 191 520 C 171 496 155 467 143 432 C 131 397 126 357 126 313 C 126 267 132 227 144 191 C 156 155 172 125 193 101 C 213 76 237 57 264 44 C 291 30 320 24 350 24 C 378 24 406 30 432 42 C 458 54 482 72 502 96 C 522 119 538 148 550 183 C 562 217 568 257 568 303 Z" unicode="Õ" />
<glyph horiz-adv-x="694" d="M 475 739 C 475 727 470 716 462 708 C 453 699 443 695 431 695 C 419 695 408 699 400 708 C 391 716 387 727 387 739 C 387 751 391 761 400 770 C 408 778 419 783 431 783 C 443 783 453 778 462 770 C 470 761 475 751 475 739 Z M 307 739 C 307 727 302 716 294 708 C 285 699 275 695 263 695 C 251 695 240 699 232 708 C 223 716 219 727 219 739 C 219 751 223 761 232 770 C 240 778 251 783 263 783 C 275 783 285 778 294 770 C 302 761 307 751 307 739 Z M 655 313 C 655 264 647 219 631 179 C 615 139 594 104 566 75 C 538 46 506 24 468 8 C 430 -8 388 -16 344 -16 C 299 -16 258 -8 221 6 C 183 21 151 42 124 70 C 97 98 76 131 61 171 C 46 210 39 254 39 303 C 39 351 46 396 62 436 C 78 476 99 511 127 540 C 155 569 188 592 226 608 C 264 624 305 632 350 632 C 394 632 435 624 473 609 C 510 594 542 573 569 545 C 596 517 617 484 632 445 C 647 405 655 361 655 313 Z M 568 303 C 568 347 562 388 550 424 C 538 460 521 490 501 515 C 480 539 456 558 429 572 C 402 585 374 592 344 592 C 314 592 286 585 260 573 C 234 561 211 543 191 520 C 171 496 155 467 143 432 C 131 397 126 357 126 313 C 126 267 132 227 144 191 C 156 155 172 125 193 101 C 213 76 237 57 264 44 C 291 30 320 24 350 24 C 378 24 406 30 432 42 C 458 54 482 72 502 96 C 522 119 538 148 550 183 C 562 217 568 257 568 303 Z" unicode="Ö" />
<glyph horiz-adv-x="624" d="M 498 62 L 466 30 L 312 186 L 158 30 L 126 62 L 282 216 L 126 370 L 158 402 L 312 246 L 466 402 L 498 370 L 342 216 L 498 62 Z" unicode="×" />
<glyph horiz-adv-x="694" d="M 655 313 C 655 264 647 219 631 179 C 615 139 594 104 566 75 C 538 46 506 24 468 8 C 430 -8 388 -16 344 -16 C 282 -16 227 -1 179 27 L 122 -57 L 92 -34 L 148 49 C 114 77 87 112 68 155 C 48 197 39 247 39 303 C 39 351 46 396 62 436 C 78 476 99 511 127 540 C 155 569 188 592 226 608 C 264 624 305 632 350 632 C 412 632 467 617 515 589 L 572 673 L 602 650 L 546 567 C 580 539 606 503 626 461 C 645 418 655 369 655 313 Z M 480 537 C 460 555 439 569 416 578 C 393 587 369 592 344 592 C 314 592 286 585 260 573 C 234 561 211 543 191 520 C 171 496 155 467 143 432 C 131 397 126 357 126 313 C 126 269 131 230 142 195 C 153 160 168 131 188 107 L 480 537 Z M 568 303 C 568 346 562 385 551 420 C 540 455 525 485 506 509 L 214 79 C 233 60 254 46 278 37 C 301 28 325 24 350 24 C 378 24 406 30 432 42 C 458 54 482 72 502 96 C 522 119 538 148 550 183 C 562 217 568 257 568 303 Z" unicode="Ø" />
<glyph horiz-adv-x="669" d="M 439 664 L 422 651 L 265 806 L 318 850 L 439 664 Z M 653 584 L 575 572 L 575 231 C 575 195 570 161 561 131 C 551 101 537 75 517 53 C 497 31 473 14 444 2 C 414 -9 380 -16 340 -16 C 262 -16 204 6 164 50 C 124 94 104 155 104 231 L 104 576 L 26 584 L 26 616 L 260 616 L 260 584 L 182 576 L 182 250 C 182 217 184 187 190 161 C 196 135 205 112 219 93 C 232 74 249 59 271 49 C 293 39 320 34 353 34 C 385 34 412 39 434 49 C 456 59 474 74 488 93 C 502 111 512 134 518 160 C 524 186 527 216 527 248 L 527 572 L 449 584 L 449 616 L 653 616 L 653 584 Z" unicode="Ù" />
<glyph horiz-adv-x="669" d="M 456 806 L 299 651 L 282 664 L 403 850 L 456 806 Z M 653 584 L 575 572 L 575 231 C 575 195 570 161 561 131 C 551 101 537 75 517 53 C 497 31 473 14 444 2 C 414 -9 380 -16 340 -16 C 262 -16 204 6 164 50 C 124 94 104 155 104 231 L 104 576 L 26 584 L 26 616 L 260 616 L 260 584 L 182 576 L 182 250 C 182 217 184 187 190 161 C 196 135 205 112 219 93 C 232 74 249 59 271 49 C 293 39 320 34 353 34 C 385 34 412 39 434 49 C 456 59 474 74 488 93 C 502 111 512 134 518 160 C 524 186 527 216 527 248 L 527 572 L 449 584 L 449 616 L 653 616 L 653 584 Z" unicode="Ú" />
<glyph horiz-adv-x="669" d="M 483 658 L 466 647 L 352 769 L 238 647 L 221 658 L 346 851 L 358 851 L 483 658 Z M 653 584 L 575 572 L 575 231 C 575 195 570 161 561 131 C 551 101 537 75 517 53 C 497 31 473 14 444 2 C 414 -9 380 -16 340 -16 C 262 -16 204 6 164 50 C 124 94 104 155 104 231 L 104 576 L 26 584 L 26 616 L 260 616 L 260 584 L 182 576 L 182 250 C 182 217 184 187 190 161 C 196 135 205 112 219 93 C 232 74 249 59 271 49 C 293 39 320 34 353 34 C 385 34 412 39 434 49 C 456 59 474 74 488 93 C 502 111 512 134 518 160 C 524 186 527 216 527 248 L 527 572 L 449 584 L 449 616 L 653 616 L 653 584 Z" unicode="Û" />
<glyph horiz-adv-x="669" d="M 480 739 C 480 727 475 716 467 708 C 458 699 448 695 436 695 C 424 695 413 699 405 708 C 396 716 392 727 392 739 C 392 751 396 761 405 770 C 413 778 424 783 436 783 C 448 783 458 778 467 770 C 475 761 480 751 480 739 Z M 312 739 C 312 727 307 716 299 708 C 290 699 280 695 268 695 C 256 695 245 699 237 708 C 228 716 224 727 224 739 C 224 751 228 761 237 770 C 245 778 256 783 268 783 C 280 783 290 778 299 770 C 307 761 312 751 312 739 Z M 653 584 L 575 572 L 575 231 C 575 195 570 161 561 131 C 551 101 537 75 517 53 C 497 31 473 14 444 2 C 414 -9 380 -16 340 -16 C 262 -16 204 6 164 50 C 124 94 104 155 104 231 L 104 576 L 26 584 L 26 616 L 260 616 L 260 584 L 182 576 L 182 250 C 182 217 184 187 190 161 C 196 135 205 112 219 93 C 232 74 249 59 271 49 C 293 39 320 34 353 34 C 385 34 412 39 434 49 C 456 59 474 74 488 93 C 502 111 512 134 518 160 C 524 186 527 216 527 248 L 527 572 L 449 584 L 449 616 L 653 616 L 653 584 Z" unicode="Ü" />
<glyph horiz-adv-x="566" d="M 403 806 L 246 651 L 229 664 L 350 850 L 403 806 Z M 559 584 L 499 572 L 324 258 L 324 40 L 402 32 L 402 0 L 168 0 L 168 32 L 246 40 L 246 252 L 65 576 L 7 584 L 7 616 L 235 616 L 235 584 L 153 576 L 302 303 L 451 574 L 374 584 L 374 616 L 559 616 L 559 584 Z" unicode="Ý" />
<glyph horiz-adv-x="507" d="M 491 344 C 491 314 485 286 475 261 C 464 236 448 215 428 197 C 407 179 381 166 351 156 C 321 146 286 141 247 141 C 240 141 232 141 222 143 C 212 144 204 145 199 147 L 199 40 L 287 32 L 287 0 L 43 0 L 43 32 L 121 40 L 121 576 L 43 584 L 43 616 L 277 616 L 277 584 L 199 576 L 199 506 L 280 506 C 310 506 337 502 363 494 C 389 486 411 476 430 462 C 449 448 464 431 475 411 C 485 391 491 368 491 344 Z M 409 336 C 409 381 394 415 366 437 C 338 459 301 470 255 470 C 247 470 240 469 234 469 C 227 469 221 468 216 468 C 209 467 203 466 199 466 L 199 185 C 207 183 216 181 227 180 C 238 179 246 179 252 179 C 280 179 304 183 324 191 C 344 199 360 211 373 225 C 385 239 394 256 400 275 C 406 294 409 314 409 336 Z" unicode="Þ" />
<glyph horiz-adv-x="527" d="M 515 101 C 515 82 511 65 504 51 C 496 37 486 25 474 15 C 462 5 447 -2 431 -8 C 415 -13 397 -16 379 -16 C 353 -16 328 -12 303 -5 C 277 1 257 10 243 22 L 240 120 L 265 125 C 279 52 315 16 373 16 C 395 16 412 22 426 35 C 440 48 447 65 447 85 C 447 104 438 121 422 136 C 405 151 381 170 350 193 C 335 203 322 213 310 223 C 298 232 287 242 279 252 C 271 262 264 272 260 284 C 255 295 253 308 253 324 C 253 355 263 382 285 405 C 306 427 333 446 365 460 C 368 470 370 483 371 498 C 372 512 373 526 373 538 C 373 554 371 570 367 584 C 363 598 356 611 348 622 C 340 633 329 642 317 648 C 305 654 290 658 274 658 C 240 658 214 644 194 618 C 174 592 165 549 165 491 L 165 36 L 203 28 L 203 0 L 28 0 L 28 28 L 93 36 L 93 360 L 28 360 L 28 386 L 93 410 L 93 470 C 93 502 97 531 106 558 C 115 585 128 608 144 628 C 160 647 180 662 204 673 C 227 684 253 690 282 690 C 302 690 322 686 342 678 C 361 670 378 660 393 646 C 407 632 419 616 428 598 C 436 580 441 560 441 540 C 441 528 440 514 438 500 C 436 486 434 473 431 462 C 417 457 403 451 390 444 C 376 436 365 428 355 418 C 345 408 336 397 330 385 C 324 373 321 360 321 346 C 321 334 322 324 324 316 C 326 308 330 300 336 292 C 342 284 350 276 361 268 C 371 260 385 249 403 237 C 421 224 436 212 450 202 C 464 192 475 182 485 172 C 495 162 502 151 507 140 C 512 128 515 115 515 101 Z" unicode="ß" />
<glyph horiz-adv-x="420" d="M 259 465 L 242 452 L 85 607 L 138 651 L 259 465 Z M 429 33 C 421 23 409 13 393 3 C 377 -6 360 -12 342 -12 C 324 -12 309 -6 296 6 C 283 18 274 32 269 48 C 262 41 254 34 244 27 C 234 20 224 14 213 8 C 202 2 191 -2 180 -6 C 169 -10 159 -12 151 -12 C 117 -12 88 -2 66 16 C 43 34 32 60 32 94 C 32 112 35 129 42 143 C 49 157 59 168 71 178 C 83 188 98 196 114 202 C 130 208 148 213 167 217 L 264 235 L 264 298 C 264 325 258 344 246 356 C 234 368 214 374 186 374 C 162 374 141 367 123 354 C 105 341 89 324 75 304 L 47 330 C 63 354 85 375 112 391 C 139 407 168 416 200 416 C 290 416 336 379 336 306 L 336 101 C 336 87 337 76 340 68 C 342 59 346 52 350 47 C 354 42 358 39 363 37 C 368 35 373 35 379 35 C 387 35 394 36 402 40 C 409 43 414 47 418 51 L 429 33 Z M 264 77 L 264 206 L 195 193 C 181 190 169 187 158 183 C 146 179 136 173 128 166 C 120 159 113 151 108 141 C 103 131 101 120 101 106 C 101 84 108 67 123 55 C 137 43 156 37 178 37 C 193 37 208 40 224 48 C 239 56 252 65 264 77 Z" unicode="à" />
<glyph horiz-adv-x="420" d="M 320 607 L 163 452 L 146 465 L 267 651 L 320 607 Z M 429 33 C 421 23 409 13 393 3 C 377 -6 360 -12 342 -12 C 324 -12 309 -6 296 6 C 283 18 274 32 269 48 C 262 41 254 34 244 27 C 234 20 224 14 213 8 C 202 2 191 -2 180 -6 C 169 -10 159 -12 151 -12 C 117 -12 88 -2 66 16 C 43 34 32 60 32 94 C 32 112 35 129 42 143 C 49 157 59 168 71 178 C 83 188 98 196 114 202 C 130 208 148 213 167 217 L 264 235 L 264 298 C 264 325 258 344 246 356 C 234 368 214 374 186 374 C 162 374 141 367 123 354 C 105 341 89 324 75 304 L 47 330 C 63 354 85 375 112 391 C 139 407 168 416 200 416 C 290 416 336 379 336 306 L 336 101 C 336 87 337 76 340 68 C 342 59 346 52 350 47 C 354 42 358 39 363 37 C 368 35 373 35 379 35 C 387 35 394 36 402 40 C 409 43 414 47 418 51 L 429 33 Z M 264 77 L 264 206 L 195 193 C 181 190 169 187 158 183 C 146 179 136 173 128 166 C 120 159 113 151 108 141 C 103 131 101 120 101 106 C 101 84 108 67 123 55 C 137 43 156 37 178 37 C 193 37 208 40 224 48 C 239 56 252 65 264 77 Z" unicode="á" />
<glyph horiz-adv-x="420" d="M 333 459 L 316 448 L 202 570 L 88 448 L 71 459 L 196 652 L 208 652 L 333 459 Z M 429 33 C 421 23 409 13 393 3 C 377 -6 360 -12 342 -12 C 324 -12 309 -6 296 6 C 283 18 274 32 269 48 C 262 41 254 34 244 27 C 234 20 224 14 213 8 C 202 2 191 -2 180 -6 C 169 -10 159 -12 151 -12 C 117 -12 88 -2 66 16 C 43 34 32 60 32 94 C 32 112 35 129 42 143 C 49 157 59 168 71 178 C 83 188 98 196 114 202 C 130 208 148 213 167 217 L 264 235 L 264 298 C 264 325 258 344 246 356 C 234 368 214 374 186 374 C 162 374 141 367 123 354 C 105 341 89 324 75 304 L 47 330 C 63 354 85 375 112 391 C 139 407 168 416 200 416 C 290 416 336 379 336 306 L 336 101 C 336 87 337 76 340 68 C 342 59 346 52 350 47 C 354 42 358 39 363 37 C 368 35 373 35 379 35 C 387 35 394 36 402 40 C 409 43 414 47 418 51 L 429 33 Z M 264 77 L 264 206 L 195 193 C 181 190 169 187 158 183 C 146 179 136 173 128 166 C 120 159 113 151 108 141 C 103 131 101 120 101 106 C 101 84 108 67 123 55 C 137 43 156 37 178 37 C 193 37 208 40 224 48 C 239 56 252 65 264 77 Z" unicode="â" />
<glyph horiz-adv-x="420" d="M 363 582 C 359 572 353 561 346 550 C 339 538 331 528 323 518 C 314 508 304 499 294 493 C 283 487 272 484 262 484 C 252 484 241 487 229 493 C 217 499 205 505 193 512 C 181 519 169 526 157 532 C 145 538 135 541 125 541 C 109 541 96 535 86 523 C 76 511 68 500 61 488 L 41 499 C 45 509 50 519 57 531 C 64 542 72 553 81 563 C 89 573 99 581 109 587 C 119 593 130 597 142 597 C 152 597 162 594 174 588 C 186 582 198 575 210 568 C 222 561 234 555 246 549 C 258 543 269 540 279 540 C 295 540 307 545 317 557 C 327 569 335 581 343 593 L 363 582 Z M 429 33 C 421 23 409 13 393 3 C 377 -6 360 -12 342 -12 C 324 -12 309 -6 296 6 C 283 18 274 32 269 48 C 262 41 254 34 244 27 C 234 20 224 14 213 8 C 202 2 191 -2 180 -6 C 169 -10 159 -12 151 -12 C 117 -12 88 -2 66 16 C 43 34 32 60 32 94 C 32 112 35 129 42 143 C 49 157 59 168 71 178 C 83 188 98 196 114 202 C 130 208 148 213 167 217 L 264 235 L 264 298 C 264 325 258 344 246 356 C 234 368 214 374 186 374 C 162 374 141 367 123 354 C 105 341 89 324 75 304 L 47 330 C 63 354 85 375 112 391 C 139 407 168 416 200 416 C 290 416 336 379 336 306 L 336 101 C 336 87 337 76 340 68 C 342 59 346 52 350 47 C 354 42 358 39 363 37 C 368 35 373 35 379 35 C 387 35 394 36 402 40 C 409 43 414 47 418 51 L 429 33 Z M 264 77 L 264 206 L 195 193 C 181 190 169 187 158 183 C 146 179 136 173 128 166 C 120 159 113 151 108 141 C 103 131 101 120 101 106 C 101 84 108 67 123 55 C 137 43 156 37 178 37 C 193 37 208 40 224 48 C 239 56 252 65 264 77 Z" unicode="ã" />
<glyph horiz-adv-x="420" d="M 330 540 C 330 528 325 517 317 509 C 308 500 298 496 286 496 C 274 496 263 500 255 509 C 246 517 242 528 242 540 C 242 552 246 562 255 571 C 263 579 274 584 286 584 C 298 584 308 579 317 571 C 325 562 330 552 330 540 Z M 162 540 C 162 528 157 517 149 509 C 140 500 130 496 118 496 C 106 496 95 500 87 509 C 78 517 74 528 74 540 C 74 552 78 562 87 571 C 95 579 106 584 118 584 C 130 584 140 579 149 571 C 157 562 162 552 162 540 Z M 429 33 C 421 23 409 13 393 3 C 377 -6 360 -12 342 -12 C 324 -12 309 -6 296 6 C 283 18 274 32 269 48 C 262 41 254 34 244 27 C 234 20 224 14 213 8 C 202 2 191 -2 180 -6 C 169 -10 159 -12 151 -12 C 117 -12 88 -2 66 16 C 43 34 32 60 32 94 C 32 112 35 129 42 143 C 49 157 59 168 71 178 C 83 188 98 196 114 202 C 130 208 148 213 167 217 L 264 235 L 264 298 C 264 325 258 344 246 356 C 234 368 214 374 186 374 C 162 374 141 367 123 354 C 105 341 89 324 75 304 L 47 330 C 63 354 85 375 112 391 C 139 407 168 416 200 416 C 290 416 336 379 336 306 L 336 101 C 336 87 337 76 340 68 C 342 59 346 52 350 47 C 354 42 358 39 363 37 C 368 35 373 35 379 35 C 387 35 394 36 402 40 C 409 43 414 47 418 51 L 429 33 Z M 264 77 L 264 206 L 195 193 C 181 190 169 187 158 183 C 146 179 136 173 128 166 C 120 159 113 151 108 141 C 103 131 101 120 101 106 C 101 84 108 67 123 55 C 137 43 156 37 178 37 C 193 37 208 40 224 48 C 239 56 252 65 264 77 Z" unicode="ä" />
<glyph horiz-adv-x="420" d="M 302 552 C 302 524 292 502 272 485 C 252 467 229 459 201 459 C 173 459 149 467 129 485 C 109 502 100 524 100 552 C 100 579 109 601 129 619 C 149 636 173 645 201 645 C 229 645 252 636 272 619 C 292 601 302 579 302 552 Z M 429 33 C 421 23 409 13 393 3 C 377 -6 360 -12 342 -12 C 324 -12 309 -6 296 6 C 283 18 274 32 269 48 C 262 41 254 34 244 27 C 234 20 224 14 213 8 C 202 2 191 -2 180 -6 C 169 -10 159 -12 151 -12 C 117 -12 88 -2 66 16 C 43 34 32 60 32 94 C 32 112 35 129 42 143 C 49 157 59 168 71 178 C 83 188 98 196 114 202 C 130 208 148 213 167 217 L 264 235 L 264 298 C 264 325 258 344 246 356 C 234 368 214 374 186 374 C 162 374 141 367 123 354 C 105 341 89 324 75 304 L 47 330 C 63 354 85 375 112 391 C 139 407 168 416 200 416 C 290 416 336 379 336 306 L 336 101 C 336 87 337 76 340 68 C 342 59 346 52 350 47 C 354 42 358 39 363 37 C 368 35 373 35 379 35 C 387 35 394 36 402 40 C 409 43 414 47 418 51 L 429 33 Z M 254 552 C 254 570 249 586 241 600 C 232 614 219 621 201 621 C 183 621 169 614 161 600 C 152 586 148 570 148 552 C 148 534 152 518 161 504 C 169 490 183 483 201 483 C 219 483 232 490 241 504 C 249 518 254 534 254 552 Z M 264 77 L 264 206 L 195 193 C 181 190 169 187 158 183 C 146 179 136 173 128 166 C 120 159 113 151 108 141 C 103 131 101 120 101 106 C 101 84 108 67 123 55 C 137 43 156 37 178 37 C 193 37 208 40 224 48 C 239 56 252 65 264 77 Z" unicode="å" />
<glyph horiz-adv-x="658" d="M 322 356 C 338 376 359 391 385 401 C 411 411 436 416 460 416 C 512 416 552 400 581 370 C 609 339 624 299 624 249 L 624 224 L 336 224 L 336 209 C 336 178 339 151 347 129 C 355 107 365 88 378 74 C 390 60 405 49 421 42 C 437 35 455 32 473 32 C 505 32 531 37 552 48 C 573 58 589 70 600 84 L 620 65 C 614 58 606 50 598 41 C 589 32 578 24 565 16 C 551 8 535 1 517 -4 C 498 -9 476 -12 450 -12 C 422 -12 394 -5 367 8 C 340 21 318 38 301 59 L 295 59 C 271 37 248 20 225 7 C 202 -5 175 -12 143 -12 C 110 -12 83 -1 63 18 C 42 38 32 65 32 97 C 32 115 35 130 42 144 C 49 157 59 168 71 178 C 83 188 98 196 115 202 C 131 208 149 213 169 217 L 266 235 L 266 298 C 266 325 260 344 248 356 C 236 368 216 374 188 374 C 164 374 143 367 125 354 C 107 341 91 324 77 304 L 49 330 C 65 354 87 375 114 391 C 141 407 170 416 202 416 C 232 416 257 411 277 403 C 297 394 312 378 322 356 Z M 547 257 C 547 273 545 288 543 304 C 540 319 535 333 528 345 C 521 357 511 366 499 373 C 487 380 471 384 453 384 C 437 384 423 380 410 374 C 396 367 385 358 375 346 C 365 334 356 321 350 306 C 344 290 340 274 338 257 L 547 257 Z M 266 76 L 266 206 L 194 193 C 167 187 145 178 128 165 C 110 151 102 133 102 110 C 102 98 104 87 108 78 C 112 68 118 61 125 55 C 132 49 140 44 148 41 C 156 38 165 37 173 37 C 193 37 210 40 225 48 C 239 55 253 64 266 76 Z" unicode="æ" />
<glyph horiz-adv-x="421" d="M 395 65 C 373 39 350 20 324 7 C 298 -5 269 -12 235 -12 L 223 -69 C 231 -71 240 -75 250 -79 C 260 -83 268 -89 276 -95 C 284 -101 290 -109 295 -119 C 300 -128 303 -139 303 -152 C 303 -169 299 -184 292 -198 C 285 -211 276 -222 264 -231 C 252 -239 238 -246 222 -250 C 206 -254 190 -257 173 -257 C 151 -257 131 -252 113 -243 L 125 -210 C 132 -214 140 -217 150 -219 C 159 -221 168 -222 178 -222 C 196 -222 212 -217 225 -208 C 238 -198 245 -185 245 -169 C 245 -161 243 -154 241 -148 C 239 -142 234 -136 228 -131 C 221 -125 212 -120 200 -116 C 188 -112 172 -107 152 -102 L 204 -10 C 178 -6 155 0 134 12 C 113 24 95 39 79 58 C 63 76 51 98 43 123 C 34 147 30 174 30 204 C 30 236 35 265 47 291 C 59 317 74 339 93 358 C 112 376 134 391 159 401 C 183 411 209 416 235 416 C 259 416 279 414 295 411 C 311 407 329 401 349 391 L 360 416 L 384 416 L 378 291 L 352 291 C 346 318 334 340 315 357 C 296 373 271 382 239 382 C 200 382 169 367 145 337 C 121 307 109 265 109 209 C 109 182 112 158 120 136 C 127 114 137 96 150 80 C 162 64 177 52 194 44 C 210 36 228 32 248 32 C 280 32 306 37 327 48 C 348 58 364 70 375 84 L 395 65 Z" unicode="ç" />
<glyph horiz-adv-x="433" d="M 277 465 L 260 452 L 103 607 L 156 651 L 277 465 Z M 399 224 L 109 224 L 109 213 C 109 185 112 159 119 137 C 126 115 136 96 149 80 C 161 64 176 52 193 44 C 209 36 228 32 248 32 C 280 32 306 37 327 48 C 348 58 364 70 375 84 L 395 65 C 389 58 381 50 372 41 C 363 32 352 24 339 16 C 326 8 311 1 294 -4 C 276 -9 257 -12 235 -12 C 205 -12 177 -6 152 3 C 127 13 106 28 88 47 C 70 65 55 88 45 114 C 35 140 30 170 30 202 C 30 234 35 263 47 289 C 58 315 73 338 92 357 C 110 375 132 390 156 400 C 180 410 206 416 233 416 C 286 416 327 400 356 370 C 384 339 399 299 399 249 L 399 224 Z M 322 257 C 322 273 320 288 318 304 C 315 319 310 333 303 345 C 296 357 286 366 274 373 C 262 380 246 384 228 384 C 198 384 172 372 151 350 C 130 328 117 297 112 257 L 322 257 Z" unicode="è" />
<glyph horiz-adv-x="433" d="M 345 607 L 188 452 L 171 465 L 292 651 L 345 607 Z M 399 224 L 109 224 L 109 213 C 109 185 112 159 119 137 C 126 115 136 96 149 80 C 161 64 176 52 193 44 C 209 36 228 32 248 32 C 280 32 306 37 327 48 C 348 58 364 70 375 84 L 395 65 C 389 58 381 50 372 41 C 363 32 352 24 339 16 C 326 8 311 1 294 -4 C 276 -9 257 -12 235 -12 C 205 -12 177 -6 152 3 C 127 13 106 28 88 47 C 70 65 55 88 45 114 C 35 140 30 170 30 202 C 30 234 35 263 47 289 C 58 315 73 338 92 357 C 110 375 132 390 156 400 C 180 410 206 416 233 416 C 286 416 327 400 356 370 C 384 339 399 299 399 249 L 399 224 Z M 322 257 C 322 273 320 288 318 304 C 315 319 310 333 303 345 C 296 357 286 366 274 373 C 262 380 246 384 228 384 C 198 384 172 372 151 350 C 130 328 117 297 112 257 L 322 257 Z" unicode="é" />
<glyph horiz-adv-x="433" d="M 355 459 L 338 448 L 224 570 L 110 448 L 93 459 L 218 652 L 230 652 L 355 459 Z M 399 224 L 109 224 L 109 213 C 109 185 112 159 119 137 C 126 115 136 96 149 80 C 161 64 176 52 193 44 C 209 36 228 32 248 32 C 280 32 306 37 327 48 C 348 58 364 70 375 84 L 395 65 C 389 58 381 50 372 41 C 363 32 352 24 339 16 C 326 8 311 1 294 -4 C 276 -9 257 -12 235 -12 C 205 -12 177 -6 152 3 C 127 13 106 28 88 47 C 70 65 55 88 45 114 C 35 140 30 170 30 202 C 30 234 35 263 47 289 C 58 315 73 338 92 357 C 110 375 132 390 156 400 C 180 410 206 416 233 416 C 286 416 327 400 356 370 C 384 339 399 299 399 249 L 399 224 Z M 322 257 C 322 273 320 288 318 304 C 315 319 310 333 303 345 C 296 357 286 366 274 373 C 262 380 246 384 228 384 C 198 384 172 372 151 350 C 130 328 117 297 112 257 L 322 257 Z" unicode="ê" />
<glyph horiz-adv-x="433" d="M 352 540 C 352 528 347 517 339 509 C 330 500 320 496 308 496 C 296 496 285 500 277 509 C 268 517 264 528 264 540 C 264 552 268 562 277 571 C 285 579 296 584 308 584 C 320 584 330 579 339 571 C 347 562 352 552 352 540 Z M 184 540 C 184 528 179 517 171 509 C 162 500 152 496 140 496 C 128 496 117 500 109 509 C 100 517 96 528 96 540 C 96 552 100 562 109 571 C 117 579 128 584 140 584 C 152 584 162 579 171 571 C 179 562 184 552 184 540 Z M 399 224 L 109 224 L 109 213 C 109 185 112 159 119 137 C 126 115 136 96 149 80 C 161 64 176 52 193 44 C 209 36 228 32 248 32 C 280 32 306 37 327 48 C 348 58 364 70 375 84 L 395 65 C 389 58 381 50 372 41 C 363 32 352 24 339 16 C 326 8 311 1 294 -4 C 276 -9 257 -12 235 -12 C 205 -12 177 -6 152 3 C 127 13 106 28 88 47 C 70 65 55 88 45 114 C 35 140 30 170 30 202 C 30 234 35 263 47 289 C 58 315 73 338 92 357 C 110 375 132 390 156 400 C 180 410 206 416 233 416 C 286 416 327 400 356 370 C 384 339 399 299 399 249 L 399 224 Z M 322 257 C 322 273 320 288 318 304 C 315 319 310 333 303 345 C 296 357 286 366 274 373 C 262 380 246 384 228 384 C 198 384 172 372 151 350 C 130 328 117 297 112 257 L 322 257 Z" unicode="ë" />
<glyph horiz-adv-x="264" d="M 196 465 L 179 452 L 22 607 L 75 651 L 196 465 Z M 236 0 L 34 0 L 34 28 L 99 36 L 99 354 L 34 365 L 34 391 L 171 416 L 171 36 L 236 28 L 236 0 Z" unicode="ì" />
<glyph horiz-adv-x="264" d="M 228 607 L 71 452 L 54 465 L 175 651 L 228 607 Z M 236 0 L 34 0 L 34 28 L 99 36 L 99 354 L 34 365 L 34 391 L 171 416 L 171 36 L 236 28 L 236 0 Z" unicode="í" />
<glyph horiz-adv-x="264" d="M 246 459 L 229 448 L 125 570 L 21 448 L 4 459 L 119 652 L 131 652 L 246 459 Z M 236 0 L 34 0 L 34 28 L 99 36 L 99 354 L 34 365 L 34 391 L 171 416 L 171 36 L 236 28 L 236 0 Z" unicode="î" />
<glyph horiz-adv-x="264" d="M 243 540 C 243 528 238 517 230 509 C 221 500 211 496 199 496 C 187 496 176 500 168 509 C 159 517 155 528 155 540 C 155 552 159 562 168 571 C 176 579 187 584 199 584 C 211 584 221 579 230 571 C 238 562 243 552 243 540 Z M 95 540 C 95 528 90 517 82 509 C 73 500 63 496 51 496 C 39 496 28 500 20 509 C 11 517 7 528 7 540 C 7 552 11 562 20 571 C 28 579 39 584 51 584 C 63 584 73 579 82 571 C 90 562 95 552 95 540 Z M 236 0 L 34 0 L 34 28 L 99 36 L 99 354 L 34 365 L 34 391 L 171 416 L 171 36 L 236 28 L 236 0 Z" unicode="ï" />
<glyph horiz-adv-x="472" d="M 439 234 C 439 198 434 165 425 135 C 416 105 403 79 386 57 C 368 35 347 18 322 6 C 297 -5 268 -12 236 -12 C 206 -12 179 -7 154 3 C 128 13 106 27 88 46 C 70 64 55 87 45 113 C 35 139 30 169 30 202 C 30 234 35 263 45 289 C 55 315 70 338 88 357 C 106 375 128 390 153 400 C 177 410 204 416 233 416 C 248 416 264 414 280 410 C 296 406 310 399 324 391 L 326 393 C 319 415 310 438 299 460 C 288 482 275 503 261 523 L 135 466 L 119 500 L 237 553 C 201 596 162 632 121 662 L 176 672 C 197 658 217 644 237 629 C 256 614 274 597 292 578 L 407 630 L 423 596 L 320 549 C 356 507 384 459 406 406 C 428 353 439 296 439 234 Z M 359 211 C 359 269 347 313 324 341 C 301 369 272 384 236 384 C 198 384 167 368 144 337 C 121 306 110 261 110 202 C 110 142 121 97 144 66 C 167 35 198 20 236 20 C 256 20 273 24 289 34 C 304 43 317 56 327 73 C 337 90 345 110 351 134 C 356 157 359 183 359 211 Z" unicode="ð" />
<glyph horiz-adv-x="524" d="M 424 582 C 420 572 414 561 407 550 C 400 538 392 528 384 518 C 375 508 365 499 355 493 C 344 487 333 484 323 484 C 313 484 302 487 290 493 C 278 499 266 505 254 512 C 242 519 230 526 218 532 C 206 538 196 541 186 541 C 170 541 157 535 147 523 C 137 511 129 500 122 488 L 102 499 C 106 509 111 519 118 531 C 125 542 133 553 142 563 C 150 573 160 581 170 587 C 180 593 191 597 203 597 C 213 597 223 594 235 588 C 247 582 259 575 271 568 C 283 561 295 555 307 549 C 319 543 330 540 340 540 C 356 540 368 545 378 557 C 388 569 396 581 404 593 L 424 582 Z M 505 0 L 296 0 L 296 28 L 368 36 L 368 344 C 358 356 347 364 335 368 C 323 372 310 374 295 374 C 275 374 257 368 241 358 C 225 348 212 334 202 317 C 192 300 184 281 178 259 C 172 237 170 214 170 191 L 170 36 L 242 28 L 242 0 L 33 0 L 33 28 L 98 36 L 98 354 L 33 365 L 33 391 L 166 412 L 166 317 L 170 316 C 182 346 201 370 226 388 C 250 406 280 416 314 416 C 352 416 383 403 406 379 C 428 354 440 322 440 282 L 440 36 L 505 28 L 505 0 Z" unicode="ñ" />
<glyph horiz-adv-x="472" d="M 298 465 L 281 452 L 124 607 L 177 651 L 298 465 Z M 442 202 C 442 170 436 140 426 114 C 415 88 400 65 382 47 C 363 28 341 13 316 3 C 291 -6 264 -12 236 -12 C 207 -12 180 -6 155 3 C 130 13 108 28 90 47 C 71 65 56 88 46 114 C 35 140 30 170 30 202 C 30 234 35 263 46 289 C 56 315 71 338 90 357 C 108 375 130 390 155 400 C 180 410 207 416 236 416 C 264 416 291 410 316 400 C 341 390 363 375 382 357 C 400 338 415 315 426 289 C 436 263 442 234 442 202 Z M 362 202 C 362 261 350 306 327 337 C 304 368 274 384 236 384 C 198 384 167 368 144 337 C 121 306 110 261 110 202 C 110 142 121 97 144 66 C 167 35 198 20 236 20 C 274 20 304 35 327 66 C 350 97 362 142 362 202 Z" unicode="ò" />
<glyph horiz-adv-x="472" d="M 348 607 L 191 452 L 174 465 L 295 651 L 348 607 Z M 442 202 C 442 170 436 140 426 114 C 415 88 400 65 382 47 C 363 28 341 13 316 3 C 291 -6 264 -12 236 -12 C 207 -12 180 -6 155 3 C 130 13 108 28 90 47 C 71 65 56 88 46 114 C 35 140 30 170 30 202 C 30 234 35 263 46 289 C 56 315 71 338 90 357 C 108 375 130 390 155 400 C 180 410 207 416 236 416 C 264 416 291 410 316 400 C 341 390 363 375 382 357 C 400 338 415 315 426 289 C 436 263 442 234 442 202 Z M 362 202 C 362 261 350 306 327 337 C 304 368 274 384 236 384 C 198 384 167 368 144 337 C 121 306 110 261 110 202 C 110 142 121 97 144 66 C 167 35 198 20 236 20 C 274 20 304 35 327 66 C 350 97 362 142 362 202 Z" unicode="ó" />
<glyph horiz-adv-x="472" d="M 367 459 L 350 448 L 236 570 L 122 448 L 105 459 L 230 652 L 242 652 L 367 459 Z M 442 202 C 442 170 436 140 426 114 C 415 88 400 65 382 47 C 363 28 341 13 316 3 C 291 -6 264 -12 236 -12 C 207 -12 180 -6 155 3 C 130 13 108 28 90 47 C 71 65 56 88 46 114 C 35 140 30 170 30 202 C 30 234 35 263 46 289 C 56 315 71 338 90 357 C 108 375 130 390 155 400 C 180 410 207 416 236 416 C 264 416 291 410 316 400 C 341 390 363 375 382 357 C 400 338 415 315 426 289 C 436 263 442 234 442 202 Z M 362 202 C 362 261 350 306 327 337 C 304 368 274 384 236 384 C 198 384 167 368 144 337 C 121 306 110 261 110 202 C 110 142 121 97 144 66 C 167 35 198 20 236 20 C 274 20 304 35 327 66 C 350 97 362 142 362 202 Z" unicode="ô" />
<glyph horiz-adv-x="472" d="M 407 582 C 403 572 397 561 390 550 C 383 538 375 528 367 518 C 358 508 348 499 338 493 C 327 487 316 484 306 484 C 296 484 285 487 273 493 C 261 499 249 505 237 512 C 225 519 213 526 201 532 C 189 538 179 541 169 541 C 153 541 140 535 130 523 C 120 511 112 500 105 488 L 85 499 C 89 509 94 519 101 531 C 108 542 116 553 125 563 C 133 573 143 581 153 587 C 163 593 174 597 186 597 C 196 597 206 594 218 588 C 230 582 242 575 254 568 C 266 561 278 555 290 549 C 302 543 313 540 323 540 C 339 540 351 545 361 557 C 371 569 379 581 387 593 L 407 582 Z M 442 202 C 442 170 436 140 426 114 C 415 88 400 65 382 47 C 363 28 341 13 316 3 C 291 -6 264 -12 236 -12 C 207 -12 180 -6 155 3 C 130 13 108 28 90 47 C 71 65 56 88 46 114 C 35 140 30 170 30 202 C 30 234 35 263 46 289 C 56 315 71 338 90 357 C 108 375 130 390 155 400 C 180 410 207 416 236 416 C 264 416 291 410 316 400 C 341 390 363 375 382 357 C 400 338 415 315 426 289 C 436 263 442 234 442 202 Z M 362 202 C 362 261 350 306 327 337 C 304 368 274 384 236 384 C 198 384 167 368 144 337 C 121 306 110 261 110 202 C 110 142 121 97 144 66 C 167 35 198 20 236 20 C 274 20 304 35 327 66 C 350 97 362 142 362 202 Z" unicode="õ" />
<glyph horiz-adv-x="472" d="M 364 540 C 364 528 359 517 351 509 C 342 500 332 496 320 496 C 308 496 297 500 289 509 C 280 517 276 528 276 540 C 276 552 280 562 289 571 C 297 579 308 584 320 584 C 332 584 342 579 351 571 C 359 562 364 552 364 540 Z M 196 540 C 196 528 191 517 183 509 C 174 500 164 496 152 496 C 140 496 129 500 121 509 C 112 517 108 528 108 540 C 108 552 112 562 121 571 C 129 579 140 584 152 584 C 164 584 174 579 183 571 C 191 562 196 552 196 540 Z M 442 202 C 442 170 436 140 426 114 C 415 88 400 65 382 47 C 363 28 341 13 316 3 C 291 -6 264 -12 236 -12 C 207 -12 180 -6 155 3 C 130 13 108 28 90 47 C 71 65 56 88 46 114 C 35 140 30 170 30 202 C 30 234 35 263 46 289 C 56 315 71 338 90 357 C 108 375 130 390 155 400 C 180 410 207 416 236 416 C 264 416 291 410 316 400 C 341 390 363 375 382 357 C 400 338 415 315 426 289 C 436 263 442 234 442 202 Z M 362 202 C 362 261 350 306 327 337 C 304 368 274 384 236 384 C 198 384 167 368 144 337 C 121 306 110 261 110 202 C 110 142 121 97 144 66 C 167 35 198 20 236 20 C 274 20 304 35 327 66 C 350 97 362 142 362 202 Z" unicode="ö" />
<glyph horiz-adv-x="624" d="M 363 370 C 363 356 358 344 348 334 C 338 324 326 319 312 319 C 298 319 286 324 276 334 C 266 344 261 356 261 370 C 261 384 266 396 276 406 C 286 416 298 421 312 421 C 326 421 338 416 348 406 C 358 396 363 384 363 370 Z M 503 193 L 121 193 L 121 238 L 503 238 L 503 193 Z M 363 61 C 363 47 358 35 348 25 C 338 15 326 10 312 10 C 298 10 286 15 276 25 C 266 35 261 47 261 61 C 261 75 266 87 276 97 C 286 107 298 112 312 112 C 326 112 338 107 348 97 C 358 87 363 75 363 61 Z" unicode="÷" />
<glyph horiz-adv-x="472" d="M 442 202 C 442 170 436 140 426 114 C 415 88 400 65 382 47 C 363 28 341 13 316 3 C 291 -6 264 -12 236 -12 C 216 -12 197 -9 179 -5 C 161 0 144 7 129 17 L 87 -46 L 62 -28 L 104 34 C 81 53 63 77 50 105 C 36 133 30 166 30 202 C 30 234 35 263 46 289 C 56 315 71 338 90 357 C 108 375 130 390 155 400 C 180 410 207 416 236 416 C 275 416 310 406 342 387 L 385 451 L 411 432 L 369 369 C 391 349 409 326 422 298 C 435 270 442 238 442 202 Z M 317 350 C 295 372 268 384 236 384 C 198 384 167 368 144 337 C 121 306 110 261 110 202 C 110 176 112 154 117 134 C 121 114 128 96 136 81 L 317 350 Z M 362 202 C 362 250 353 290 337 322 L 155 54 C 175 31 202 20 236 20 C 274 20 304 35 327 66 C 350 97 362 142 362 202 Z" unicode="ø" />
<glyph horiz-adv-x="504" d="M 323 465 L 306 452 L 149 607 L 202 651 L 323 465 Z M 485 9 L 352 -10 L 352 87 L 348 88 C 335 58 316 33 292 15 C 267 -2 238 -12 204 -12 C 165 -12 134 0 112 25 C 89 49 78 82 78 122 L 78 361 L 13 372 L 13 400 L 150 400 L 150 62 C 159 49 170 40 182 36 C 194 32 207 30 223 30 C 243 30 260 35 276 45 C 292 55 305 69 315 86 C 325 103 333 123 339 145 C 345 167 348 189 348 213 L 348 361 L 276 372 L 276 400 L 420 400 L 420 46 L 485 35 L 485 9 Z" unicode="ù" />
<glyph horiz-adv-x="504" d="M 349 607 L 192 452 L 175 465 L 296 651 L 349 607 Z M 485 9 L 352 -10 L 352 87 L 348 88 C 335 58 316 33 292 15 C 267 -2 238 -12 204 -12 C 165 -12 134 0 112 25 C 89 49 78 82 78 122 L 78 361 L 13 372 L 13 400 L 150 400 L 150 62 C 159 49 170 40 182 36 C 194 32 207 30 223 30 C 243 30 260 35 276 45 C 292 55 305 69 315 86 C 325 103 333 123 339 145 C 345 167 348 189 348 213 L 348 361 L 276 372 L 276 400 L 420 400 L 420 46 L 485 35 L 485 9 Z" unicode="ú" />
<glyph horiz-adv-x="504" d="M 375 459 L 358 448 L 244 570 L 130 448 L 113 459 L 238 652 L 250 652 L 375 459 Z M 485 9 L 352 -10 L 352 87 L 348 88 C 335 58 316 33 292 15 C 267 -2 238 -12 204 -12 C 165 -12 134 0 112 25 C 89 49 78 82 78 122 L 78 361 L 13 372 L 13 400 L 150 400 L 150 62 C 159 49 170 40 182 36 C 194 32 207 30 223 30 C 243 30 260 35 276 45 C 292 55 305 69 315 86 C 325 103 333 123 339 145 C 345 167 348 189 348 213 L 348 361 L 276 372 L 276 400 L 420 400 L 420 46 L 485 35 L 485 9 Z" unicode="û" />
<glyph horiz-adv-x="504" d="M 375 540 C 375 528 370 517 362 509 C 353 500 343 496 331 496 C 319 496 308 500 300 509 C 291 517 287 528 287 540 C 287 552 291 562 300 571 C 308 579 319 584 331 584 C 343 584 353 579 362 571 C 370 562 375 552 375 540 Z M 207 540 C 207 528 202 517 194 509 C 185 500 175 496 163 496 C 151 496 140 500 132 509 C 123 517 119 528 119 540 C 119 552 123 562 132 571 C 140 579 151 584 163 584 C 175 584 185 579 194 571 C 202 562 207 552 207 540 Z M 485 9 L 352 -10 L 352 87 L 348 88 C 335 58 316 33 292 15 C 267 -2 238 -12 204 -12 C 165 -12 134 0 112 25 C 89 49 78 82 78 122 L 78 361 L 13 372 L 13 400 L 150 400 L 150 62 C 159 49 170 40 182 36 C 194 32 207 30 223 30 C 243 30 260 35 276 45 C 292 55 305 69 315 86 C 325 103 333 123 339 145 C 345 167 348 189 348 213 L 348 361 L 276 372 L 276 400 L 420 400 L 420 46 L 485 35 L 485 9 Z" unicode="ü" />
<glyph horiz-adv-x="424" d="M 339 607 L 182 452 L 165 465 L 286 651 L 339 607 Z M 432 371 L 381 361 L 226 -8 L 140 -257 L 72 -257 L 193 5 L 43 364 L -8 372 L -8 400 L 187 400 L 187 372 L 120 364 L 230 91 L 339 363 L 273 372 L 273 400 L 432 400 L 432 371 Z" unicode="ý" />
<glyph horiz-adv-x="491" d="M 461 216 C 461 182 455 152 445 124 C 434 96 419 72 401 52 C 383 32 361 16 336 5 C 310 -6 283 -12 254 -12 C 230 -12 210 -10 194 -6 C 178 -2 165 3 155 10 L 155 -221 L 247 -229 L 247 -257 L 18 -257 L 18 -229 L 83 -221 L 83 616 L 18 627 L 18 653 L 151 672 L 155 672 L 155 351 C 167 367 184 382 206 396 C 228 409 256 416 290 416 C 312 416 333 411 354 403 C 374 394 392 381 408 364 C 424 347 436 326 446 302 C 456 277 461 248 461 216 Z M 384 211 C 384 262 374 302 354 331 C 334 359 305 374 266 374 C 235 374 211 366 193 350 C 175 334 162 317 155 299 L 155 58 C 166 46 180 38 197 32 C 213 26 229 23 245 23 C 269 23 289 28 307 39 C 324 49 338 63 350 81 C 362 98 370 118 376 141 C 381 163 384 187 384 211 Z" unicode="þ" />
<glyph horiz-adv-x="424" d="M 358 540 C 358 528 353 517 345 509 C 336 500 326 496 314 496 C 302 496 291 500 283 509 C 274 517 270 528 270 540 C 270 552 274 562 283 571 C 291 579 302 584 314 584 C 326 584 336 579 345 571 C 353 562 358 552 358 540 Z M 190 540 C 190 528 185 517 177 509 C 168 500 158 496 146 496 C 134 496 123 500 115 509 C 106 517 102 528 102 540 C 102 552 106 562 115 571 C 123 579 134 584 146 584 C 158 584 168 579 177 571 C 185 562 190 552 190 540 Z M 432 371 L 381 361 L 226 -8 L 140 -257 L 72 -257 L 193 5 L 43 364 L -8 372 L -8 400 L 187 400 L 187 372 L 120 364 L 230 91 L 339 363 L 273 372 L 273 400 L 432 400 L 432 371 Z" unicode="ÿ" />
<glyph horiz-adv-x="264" d="M 236 0 L 34 0 L 34 28 L 99 36 L 99 354 L 34 365 L 34 391 L 171 416 L 171 36 L 236 28 L 236 0 Z" unicode="ı" />
<glyph horiz-adv-x="506" d="M 481 0 L 43 0 L 43 32 L 121 40 L 121 264 L 43 224 L 43 269 L 121 309 L 121 576 L 43 584 L 43 616 L 287 616 L 287 584 L 199 576 L 199 350 L 340 423 L 340 378 L 199 305 L 199 42 L 427 42 L 443 156 L 481 156 L 481 0 Z" unicode="Ł" />
<glyph horiz-adv-x="257" d="M 260 376 L 171 330 L 171 36 L 236 28 L 236 0 L 34 0 L 34 28 L 99 36 L 99 292 L 22 252 L 22 296 L 99 336 L 99 616 L 34 627 L 34 653 L 171 672 L 171 374 L 260 420 L 260 376 Z" unicode="ł" />
<glyph horiz-adv-x="857" d="M 809 0 L 429 0 C 415 -2 400 -4 384 -6 C 368 -7 352 -8 337 -8 C 291 -8 249 0 211 15 C 173 31 140 53 113 81 C 86 109 65 142 51 181 C 36 219 29 262 29 308 C 29 354 36 396 51 435 C 65 473 86 507 113 535 C 140 563 173 584 211 600 C 249 616 291 624 337 624 C 369 624 399 621 428 616 L 795 616 L 795 476 L 759 476 L 745 576 L 519 576 L 519 341 L 683 341 L 693 410 L 727 410 L 727 232 L 693 232 L 683 301 L 519 301 L 519 42 L 757 42 L 771 150 L 809 150 L 809 0 Z M 441 59 L 441 558 C 425 567 409 574 391 578 C 373 582 355 584 337 584 C 307 584 279 577 253 565 C 227 553 203 535 183 512 C 163 488 147 459 135 425 C 123 391 117 352 117 308 C 117 264 123 224 135 190 C 147 156 163 127 183 104 C 203 80 227 62 254 50 C 280 38 308 32 337 32 C 355 32 373 34 391 38 C 409 42 425 49 441 59 Z" unicode="Œ" />
<glyph horiz-adv-x="760" d="M 726 224 L 436 224 L 436 213 C 436 185 439 159 446 137 C 453 114 463 95 476 80 C 488 64 503 52 520 44 C 537 36 555 32 575 32 C 607 32 633 37 654 48 C 675 58 691 70 702 84 L 722 65 C 716 58 708 50 699 41 C 690 32 679 24 666 16 C 653 8 638 1 621 -4 C 603 -9 584 -12 562 -12 C 528 -12 497 -5 469 8 C 440 22 417 41 400 67 C 381 42 357 23 329 9 C 300 -5 269 -12 236 -12 C 207 -12 180 -6 155 3 C 130 13 108 28 90 47 C 71 65 56 88 46 114 C 35 140 30 170 30 202 C 30 234 35 263 46 289 C 56 315 71 338 90 357 C 108 375 130 390 155 400 C 180 410 207 416 236 416 C 270 416 301 409 330 395 C 358 381 382 361 401 336 C 422 364 446 384 474 397 C 502 409 530 416 560 416 C 612 416 653 400 682 370 C 711 339 726 299 726 249 L 726 224 Z M 649 257 C 649 273 647 288 645 304 C 642 319 637 333 630 345 C 623 357 613 366 601 373 C 589 380 573 384 555 384 C 526 384 501 373 479 351 C 457 329 444 297 439 257 L 649 257 Z M 362 202 C 362 261 350 306 327 337 C 304 368 274 384 236 384 C 198 384 167 368 144 337 C 121 306 110 261 110 202 C 110 142 121 97 144 66 C 167 35 198 20 236 20 C 274 20 304 35 327 66 C 350 97 362 142 362 202 Z" unicode="œ" />
<glyph horiz-adv-x="493" d="M 376 844 L 251 651 L 239 651 L 114 844 L 131 855 L 245 733 L 359 855 L 376 844 Z M 447 166 C 447 140 441 115 431 93 C 420 71 406 52 388 36 C 370 20 349 7 325 -2 C 301 -11 277 -16 251 -16 C 217 -16 189 -13 167 -8 C 144 -2 124 5 106 15 L 94 -16 L 62 -16 L 56 188 L 88 191 L 109 95 C 125 74 143 58 165 46 C 187 34 211 28 239 28 C 278 28 310 38 336 59 C 362 80 375 108 375 144 C 375 160 372 174 367 186 C 362 198 354 209 342 220 C 330 230 315 241 297 252 C 278 262 255 274 229 287 C 199 301 174 314 154 327 C 133 340 116 354 103 368 C 89 382 79 398 73 415 C 67 432 64 452 64 474 C 64 498 68 519 78 539 C 88 558 101 575 118 589 C 135 603 155 613 177 621 C 199 628 223 632 249 632 C 275 632 297 629 317 625 C 337 620 356 613 374 604 L 386 632 L 418 632 L 414 451 L 382 451 L 364 539 C 350 558 333 572 314 580 C 295 588 274 592 250 592 C 234 592 219 589 205 585 C 191 580 178 573 168 565 C 157 556 148 545 142 533 C 136 521 133 507 133 493 C 133 477 135 464 139 454 C 143 443 150 433 161 423 C 171 413 186 402 205 391 C 224 380 249 367 280 353 C 306 340 329 327 350 315 C 370 303 388 289 402 275 C 416 261 427 245 435 227 C 443 209 447 189 447 166 Z" unicode="Š" />
<glyph horiz-adv-x="356" d="M 309 645 L 184 452 L 172 452 L 47 645 L 64 656 L 178 534 L 292 656 L 309 645 Z M 316 110 C 316 94 312 79 306 64 C 300 49 291 36 279 24 C 267 12 252 3 235 -3 C 217 -10 198 -14 176 -14 C 137 -14 104 -5 77 11 L 67 -14 L 45 -14 L 40 122 L 66 124 C 80 53 116 18 173 18 C 195 18 213 24 228 38 C 242 51 250 68 250 90 C 250 101 247 111 243 120 C 238 128 231 136 223 143 C 215 150 205 156 194 162 C 183 168 171 173 159 179 C 145 185 131 191 118 198 C 105 204 93 212 83 221 C 72 230 63 241 57 254 C 51 266 48 282 48 300 C 48 316 51 331 58 345 C 64 359 73 372 85 382 C 96 392 109 401 125 407 C 141 413 157 416 175 416 C 193 416 209 414 223 411 C 237 407 252 402 266 394 L 278 416 L 300 416 L 298 295 L 272 295 C 262 354 230 384 177 384 C 154 384 137 377 125 363 C 113 349 108 335 108 321 C 108 309 110 299 115 291 C 120 283 127 275 135 269 C 143 262 153 256 165 251 C 176 246 188 241 200 236 C 214 229 229 222 243 215 C 257 207 269 199 280 189 C 291 179 300 168 306 155 C 312 142 316 127 316 110 Z" unicode="š" />
<glyph horiz-adv-x="566" d="M 422 739 C 422 727 417 716 409 708 C 400 699 390 695 378 695 C 366 695 355 699 347 708 C 338 716 334 727 334 739 C 334 751 338 761 347 770 C 355 778 366 783 378 783 C 390 783 400 778 409 770 C 417 761 422 751 422 739 Z M 254 739 C 254 727 249 716 241 708 C 232 699 222 695 210 695 C 198 695 187 699 179 708 C 170 716 166 727 166 739 C 166 751 170 761 179 770 C 187 778 198 783 210 783 C 222 783 232 778 241 770 C 249 761 254 751 254 739 Z M 559 584 L 499 572 L 324 258 L 324 40 L 402 32 L 402 0 L 168 0 L 168 32 L 246 40 L 246 252 L 65 576 L 7 584 L 7 616 L 235 616 L 235 584 L 153 576 L 302 303 L 451 574 L 374 584 L 374 616 L 559 616 L 559 584 Z" unicode="Ÿ" />
<glyph horiz-adv-x="550" d="M 405 844 L 280 651 L 268 651 L 143 844 L 160 855 L 274 733 L 388 855 L 405 844 Z M 523 166 L 513 0 L 23 0 L 17 16 L 409 576 L 107 576 L 91 456 L 55 456 L 55 616 L 515 616 L 515 600 L 126 42 L 460 42 L 487 166 L 523 166 Z" unicode="Ž" />
<glyph horiz-adv-x="413" d="M 339 645 L 214 452 L 202 452 L 77 645 L 94 656 L 208 534 L 322 656 L 339 645 Z M 385 136 L 381 0 L 30 0 L 24 16 L 285 364 L 88 364 L 78 286 L 46 286 L 46 400 L 378 400 L 378 384 L 117 36 L 338 36 L 353 136 L 385 136 Z" unicode="ž" />
<glyph horiz-adv-x="490" d="M 474 554 C 474 542 470 532 464 523 C 458 514 450 507 440 502 L 364 566 C 348 561 336 554 326 545 C 316 535 307 523 301 508 C 295 493 290 475 286 454 C 282 432 278 408 274 380 L 264 303 L 413 303 L 413 263 L 259 263 L 243 145 C 239 115 233 84 226 52 C 219 20 208 -9 194 -36 C 180 -63 160 -85 136 -103 C 111 -120 79 -129 40 -129 C 20 -129 4 -125 -8 -117 C -20 -109 -27 -96 -27 -78 C -27 -70 -24 -63 -20 -56 C -16 -48 -10 -43 -4 -40 L 87 -90 C 99 -84 110 -76 118 -68 C 126 -60 132 -48 138 -32 C 144 -16 149 4 153 30 C 157 56 163 91 169 134 L 186 263 L 88 263 L 88 303 L 191 303 L 199 365 C 203 400 211 432 221 461 C 231 490 244 515 260 535 C 276 555 296 571 320 583 C 343 594 370 600 401 600 C 419 600 435 596 451 589 C 466 581 474 570 474 554 Z" unicode="ƒ" />
<glyph horiz-adv-x="200" d="M 151 477 C 151 463 146 453 137 446 C 128 439 117 436 104 436 C 82 436 65 443 52 459 C 39 474 33 492 33 514 C 33 548 41 576 59 598 C 77 620 101 636 131 648 L 151 617 C 128 609 109 598 95 583 C 80 567 73 549 73 528 L 142 506 C 148 498 151 489 151 477 Z" unicode="ʻ" />
<glyph horiz-adv-x="500" d="M 381 459 L 364 448 L 250 570 L 136 448 L 119 459 L 244 652 L 256 652 L 381 459 Z" unicode="ˆ" />
<glyph horiz-adv-x="500" d="M 381 645 L 256 452 L 244 452 L 119 645 L 136 656 L 250 534 L 364 656 L 381 645 Z" unicode="ˇ" />
<glyph horiz-adv-x="500" d="M 390 517 L 110 517 L 110 565 L 390 565 L 390 517 Z" unicode="ˉ" />
<glyph horiz-adv-x="500" d="M 391 625 C 387 583 373 548 349 520 C 325 492 292 478 250 478 C 208 478 174 492 150 520 C 126 548 112 583 109 625 L 130 630 C 139 596 153 572 171 557 C 189 541 216 534 250 534 C 284 534 310 541 328 557 C 346 572 360 596 370 630 L 391 625 Z" unicode="˘" />
<glyph horiz-adv-x="500" d="M 298 548 C 298 534 293 523 284 514 C 274 504 263 500 250 500 C 236 500 225 504 216 514 C 206 523 202 534 202 548 C 202 561 206 572 216 582 C 225 591 236 596 250 596 C 263 596 274 591 284 582 C 293 572 298 561 298 548 Z" unicode="˙" />
<glyph horiz-adv-x="500" d="M 351 552 C 351 524 341 502 321 485 C 301 467 278 459 250 459 C 222 459 198 467 178 485 C 158 502 149 524 149 552 C 149 579 158 601 178 619 C 198 636 222 645 250 645 C 278 645 301 636 321 619 C 341 601 351 579 351 552 Z M 303 552 C 303 570 298 586 290 600 C 281 614 268 621 250 621 C 232 621 218 614 210 600 C 201 586 197 570 197 552 C 197 534 201 518 210 504 C 218 490 232 483 250 483 C 268 483 281 490 290 504 C 298 518 303 534 303 552 Z" unicode="˚" />
<glyph horiz-adv-x="500" d="M 352 -230 C 337 -242 321 -251 303 -257 C 285 -263 268 -267 250 -267 C 214 -267 186 -258 166 -240 C 145 -222 135 -197 135 -163 C 135 -130 148 -100 176 -73 C 204 -46 244 -15 298 20 L 319 6 C 281 -21 253 -46 234 -69 C 214 -91 205 -118 205 -148 C 205 -172 211 -192 224 -206 C 237 -220 256 -227 280 -227 C 291 -227 302 -225 313 -221 C 324 -217 334 -212 343 -205 L 352 -230 Z" unicode="˛" />
<glyph horiz-adv-x="500" d="M 411 582 C 407 572 401 561 394 550 C 387 538 379 528 371 518 C 362 508 352 499 342 493 C 331 487 320 484 310 484 C 300 484 289 487 277 493 C 265 499 253 505 241 512 C 229 519 217 526 205 532 C 193 538 183 541 173 541 C 157 541 144 535 134 523 C 124 511 116 500 109 488 L 89 499 C 93 509 98 519 105 531 C 112 542 120 553 129 563 C 137 573 147 581 157 587 C 167 593 178 597 190 597 C 200 597 210 594 222 588 C 234 582 246 575 258 568 C 270 561 282 555 294 549 C 306 543 317 540 327 540 C 343 540 355 545 365 557 C 375 569 383 581 391 593 L 411 582 Z" unicode="˜" />
<glyph horiz-adv-x="500" d="M 444 607 L 287 452 L 270 465 L 391 651 L 444 607 Z M 294 607 L 137 452 L 120 465 L 241 651 L 294 607 Z" unicode="˝" />
<glyph horiz-adv-x="750" d="M 283 375 C 283 357 278 342 270 328 C 262 314 251 303 238 293 C 224 283 209 276 192 271 C 175 265 158 263 142 263 C 122 263 103 265 84 271 C 65 276 48 284 33 295 L 50 329 C 61 319 74 312 89 307 C 104 301 119 299 133 299 C 157 299 177 304 193 316 C 209 327 217 345 217 369 C 217 392 209 409 194 420 C 179 431 160 437 137 437 C 129 437 122 436 114 436 C 106 435 98 434 91 433 L 88 470 L 96 470 C 110 470 124 471 138 473 C 151 475 162 479 172 485 C 181 491 188 498 194 508 C 200 518 203 530 203 545 C 203 564 196 578 183 586 C 170 594 155 599 138 599 C 106 599 82 585 67 558 L 40 585 C 53 602 69 614 87 622 C 105 629 126 633 149 633 C 163 633 178 631 192 627 C 206 623 219 617 230 610 C 241 603 250 594 257 584 C 263 573 267 561 267 549 C 267 526 258 507 241 493 C 223 478 203 468 180 463 L 180 461 C 193 459 206 456 218 452 C 230 447 241 441 251 434 C 261 426 268 418 274 408 C 280 398 283 387 283 375 Z M 571 609 L 180 -17 L 144 6 L 535 632 L 571 609 Z M 701 126 L 693 84 L 632 84 L 632 -24 L 574 -24 L 574 84 L 397 84 L 389 117 L 574 330 L 603 372 L 636 365 L 632 285 L 632 126 L 701 126 Z M 574 126 L 574 283 L 438 126 L 574 126 Z" unicode="Δ" />
<glyph horiz-adv-x="624" d="M 501 193 L 123 193 L 123 238 L 501 238 L 501 193 Z" unicode="Ω" />
<glyph horiz-adv-x="500" d="M 506 35 C 496 19 482 7 464 0 C 446 -8 427 -12 408 -12 C 396 -12 384 -9 372 -4 C 360 1 351 8 345 16 L 345 79 L 341 80 C 326 51 307 28 284 12 C 261 -3 234 -12 202 -12 C 184 -12 167 -8 152 -2 C 137 4 124 15 113 29 L 111 27 L 127 -216 L 55 -216 L 71 48 L 71 400 L 143 400 L 143 75 C 149 59 160 48 176 41 C 191 33 207 30 223 30 C 242 30 259 35 274 45 C 288 55 301 67 311 83 C 321 99 328 116 333 136 C 338 156 341 175 341 195 L 341 400 L 413 400 L 413 44 C 421 37 431 34 443 34 C 451 34 460 35 469 39 C 477 42 484 47 490 55 L 506 35 Z" unicode="μ" />
<glyph horiz-adv-x="750" d="M 691 232 C 691 188 682 146 666 108 C 649 70 626 36 598 8 C 570 -19 536 -42 498 -59 C 460 -75 419 -84 375 -84 C 331 -84 289 -75 251 -59 C 213 -42 179 -19 151 8 C 123 36 100 70 84 108 C 67 146 59 188 59 232 C 59 276 67 317 84 355 C 100 393 123 427 151 455 C 179 483 213 506 251 523 C 289 539 331 548 375 548 C 419 548 460 539 498 523 C 536 506 570 483 598 455 C 626 427 649 393 666 355 C 682 317 691 276 691 232 Z M 647 232 C 647 270 639 305 625 339 C 611 373 591 402 567 428 C 543 453 514 473 481 488 C 448 502 413 510 375 510 C 337 510 301 502 268 488 C 235 473 206 453 182 428 C 158 402 138 373 124 339 C 110 305 103 270 103 232 C 103 194 110 158 124 124 C 138 90 158 61 182 36 C 206 10 235 -9 268 -24 C 301 -38 337 -46 375 -46 C 413 -46 448 -38 481 -24 C 514 -9 543 10 567 36 C 591 61 611 90 625 124 C 639 158 647 194 647 232 Z M 544 309 C 544 287 539 268 531 252 C 522 236 510 223 495 213 C 480 203 462 195 442 191 C 422 186 400 184 378 184 C 374 184 370 184 364 184 C 358 184 354 185 351 186 L 351 82 L 421 75 L 421 49 L 229 49 L 229 75 L 291 82 L 291 378 L 229 384 L 229 408 L 401 408 C 420 408 438 406 456 402 C 473 398 488 391 501 383 C 514 375 524 364 532 352 C 540 340 544 325 544 309 Z M 481 303 C 481 328 472 347 455 361 C 438 374 417 381 392 381 C 386 381 379 380 371 380 C 363 380 357 379 351 378 L 351 212 C 356 211 362 210 369 210 C 375 210 380 210 384 210 C 415 210 439 218 456 234 C 472 250 481 273 481 303 Z" unicode="π" />
<glyph horiz-adv-x="280" d="M 240 206 L 40 182 L 40 236 L 240 260 L 240 206 Z" unicode="‐" />
<glyph horiz-adv-x="280" d="M 240 206 L 40 182 L 40 236 L 240 260 L 240 206 Z" unicode="‑" />
<glyph horiz-adv-x="540" d="M 490 195 L 50 195 L 50 243 L 490 243 L 490 195 Z" unicode="–" />
<glyph horiz-adv-x="900" d="M 850 195 L 50 195 L 50 243 L 850 243 L 850 195 Z" unicode="—" />
<glyph horiz-adv-x="200" d="M 151 477 C 151 463 146 453 137 446 C 128 439 117 436 104 436 C 82 436 65 443 52 459 C 39 474 33 492 33 514 C 33 548 41 576 59 598 C 77 620 101 636 131 648 L 151 617 C 128 609 109 598 95 583 C 80 567 73 549 73 528 L 142 506 C 148 498 151 489 151 477 Z" unicode="‘" />
<glyph horiz-adv-x="200" d="M 167 570 C 167 535 158 507 140 485 C 122 463 99 447 69 436 L 49 467 C 71 474 90 485 105 501 C 119 516 127 534 127 556 L 58 578 C 52 585 49 595 49 607 C 49 620 53 630 62 637 C 71 644 82 648 96 648 C 117 648 134 640 147 625 C 160 609 167 591 167 570 Z" unicode="’" />
<glyph horiz-adv-x="200" d="M 167 16 C 167 -18 158 -46 140 -68 C 122 -90 99 -106 69 -118 L 49 -87 C 72 -79 91 -67 105 -53 C 119 -38 127 -18 127 7 L 58 24 C 52 31 49 41 49 53 C 49 66 53 76 62 83 C 71 90 82 94 96 94 C 117 94 134 86 147 71 C 160 55 167 37 167 16 Z" unicode="‚" />
<glyph horiz-adv-x="380" d="M 331 477 C 331 463 326 453 317 446 C 308 439 297 436 284 436 C 262 436 245 443 232 459 C 219 474 213 492 213 514 C 213 548 221 576 239 598 C 257 620 281 636 311 648 L 331 617 C 308 609 289 598 275 583 C 260 567 253 549 253 528 L 322 506 C 328 498 331 489 331 477 Z M 151 477 C 151 463 146 453 137 446 C 128 439 117 436 104 436 C 82 436 65 443 52 459 C 39 474 33 492 33 514 C 33 548 41 576 59 598 C 77 620 101 636 131 648 L 151 617 C 128 609 109 598 95 583 C 80 567 73 549 73 528 L 142 506 C 148 498 151 489 151 477 Z" unicode="“" />
<glyph horiz-adv-x="380" d="M 347 570 C 347 535 338 507 320 485 C 302 463 279 447 249 436 L 229 467 C 251 474 270 485 285 501 C 299 516 307 534 307 556 L 238 578 C 232 585 229 595 229 607 C 229 620 233 630 242 637 C 251 644 262 648 276 648 C 297 648 314 640 327 625 C 340 609 347 591 347 570 Z M 167 570 C 167 535 158 507 140 485 C 122 463 99 447 69 436 L 49 467 C 71 474 90 485 105 501 C 119 516 127 534 127 556 L 58 578 C 52 585 49 595 49 607 C 49 620 53 630 62 637 C 71 644 82 648 96 648 C 117 648 134 640 147 625 C 160 609 167 591 167 570 Z" unicode="”" />
<glyph horiz-adv-x="380" d="M 330 16 C 330 -18 321 -46 303 -68 C 285 -90 262 -106 232 -118 L 212 -87 C 235 -79 254 -67 268 -53 C 282 -38 290 -18 290 7 L 221 24 C 215 31 212 41 212 53 C 212 66 216 76 225 83 C 234 90 245 94 259 94 C 280 94 297 86 310 71 C 323 55 330 37 330 16 Z M 150 16 C 150 -18 141 -46 123 -68 C 105 -90 82 -106 52 -118 L 32 -87 C 55 -79 74 -67 88 -53 C 102 -38 110 -18 110 7 L 41 24 C 35 31 32 41 32 53 C 32 66 36 76 45 83 C 54 90 65 94 79 94 C 100 94 117 86 130 71 C 143 55 150 37 150 16 Z" unicode="„" />
<glyph horiz-adv-x="450" d="M 387 371 L 328 371 L 234 391 L 263 285 L 233 -172 L 217 -172 L 187 285 L 216 391 L 122 371 L 63 371 L 63 429 L 122 429 L 216 409 L 193 505 L 193 632 L 257 632 L 257 505 L 234 409 L 328 429 L 387 429 L 387 371 Z" unicode="†" />
<glyph horiz-adv-x="450" d="M 387 31 L 328 31 L 234 51 L 257 -45 L 257 -172 L 193 -172 L 193 -45 L 216 51 L 122 31 L 63 31 L 63 89 L 122 89 L 216 69 L 187 230 L 216 391 L 122 371 L 63 371 L 63 429 L 122 429 L 216 409 L 193 505 L 193 632 L 257 632 L 257 505 L 234 409 L 328 429 L 387 429 L 387 371 L 328 371 L 234 391 L 263 230 L 234 69 L 328 89 L 387 89 L 387 31 Z" unicode="‡" />
<glyph horiz-adv-x="400" d="M 300 300 C 300 272 290 248 271 229 C 251 209 228 200 200 200 C 172 200 148 209 129 229 C 109 248 100 272 100 300 C 100 328 109 351 129 371 C 148 390 172 400 200 400 C 228 400 251 390 271 371 C 290 351 300 328 300 300 Z" unicode="•" />
<glyph horiz-adv-x="1000" d="M 889 44 C 889 28 883 15 872 4 C 861 -6 848 -12 833 -12 C 817 -12 804 -6 793 4 C 782 15 777 28 777 44 C 777 59 782 72 793 83 C 804 94 817 100 833 100 C 848 100 861 94 872 83 C 883 72 889 59 889 44 Z M 556 44 C 556 28 550 15 539 4 C 528 -6 515 -12 500 -12 C 484 -12 471 -6 460 4 C 449 15 444 28 444 44 C 444 59 449 72 460 83 C 471 94 484 100 500 100 C 515 100 528 94 539 83 C 550 72 556 59 556 44 Z M 223 44 C 223 28 217 15 206 4 C 195 -6 182 -12 167 -12 C 151 -12 138 -6 127 4 C 116 15 111 28 111 44 C 111 59 116 72 127 83 C 138 94 151 100 167 100 C 182 100 195 94 206 83 C 217 72 223 59 223 44 Z" unicode="…" />
<glyph horiz-adv-x="1104" d="M 348 467 C 348 445 343 424 335 405 C 327 386 316 370 302 356 C 288 342 271 330 252 322 C 233 314 213 310 191 310 C 169 310 148 314 129 322 C 110 330 94 342 80 356 C 66 370 54 386 46 405 C 38 424 34 445 34 467 C 34 489 38 509 46 528 C 54 547 66 564 80 578 C 94 592 110 603 129 611 C 148 619 169 624 191 624 C 213 624 233 619 252 611 C 271 603 288 592 302 578 C 316 564 327 547 335 528 C 343 509 348 489 348 467 Z M 589 609 L 198 -17 L 162 6 L 553 632 L 589 609 Z M 1071 149 C 1071 127 1066 106 1058 87 C 1050 68 1039 52 1025 38 C 1011 24 994 12 975 4 C 956 -3 936 -8 914 -8 C 892 -8 871 -3 852 4 C 833 12 817 24 803 38 C 789 52 777 68 769 87 C 761 106 757 127 757 149 C 757 171 761 191 769 210 C 777 229 789 246 803 260 C 817 274 833 285 852 293 C 871 301 892 306 914 306 C 936 306 956 301 975 293 C 994 285 1011 274 1025 260 C 1039 246 1050 229 1058 210 C 1066 191 1071 171 1071 149 Z M 717 149 C 717 127 712 106 704 87 C 696 68 685 52 671 38 C 657 24 640 12 621 4 C 602 -3 582 -8 560 -8 C 538 -8 517 -3 498 4 C 479 12 463 24 449 38 C 435 52 423 68 415 87 C 407 106 403 127 403 149 C 403 171 407 191 415 210 C 423 229 435 246 449 260 C 463 274 479 285 498 293 C 517 301 538 306 560 306 C 582 306 602 301 621 293 C 640 285 657 274 671 260 C 685 246 696 229 704 210 C 712 191 717 171 717 149 Z M 290 467 C 290 502 280 531 262 554 C 244 576 220 588 191 588 C 161 588 137 576 119 554 C 101 531 92 502 92 467 C 92 431 101 402 119 380 C 137 357 161 346 191 346 C 220 346 244 357 262 380 C 280 402 290 431 290 467 Z M 1013 149 C 1013 184 1003 213 985 236 C 967 258 943 270 914 270 C 884 270 860 258 842 236 C 824 213 815 184 815 149 C 815 113 824 84 842 62 C 860 39 884 28 914 28 C 943 28 967 39 985 62 C 1003 84 1013 113 1013 149 Z M 659 149 C 659 184 649 213 631 236 C 613 258 589 270 560 270 C 530 270 506 258 488 236 C 470 213 461 184 461 149 C 461 113 470 84 488 62 C 506 39 530 28 560 28 C 589 28 613 39 631 62 C 649 84 659 113 659 149 Z" unicode="‰" />
<glyph horiz-adv-x="325" d="M 248 52 L 228 36 L 60 210 L 228 384 L 248 368 L 142 210 L 248 52 Z" unicode="‹" />
<glyph horiz-adv-x="325" d="M 265 210 L 97 36 L 77 52 L 183 210 L 77 368 L 97 384 L 265 210 Z" unicode="›" />
<glyph horiz-adv-x="170" d="M 299 609 L -92 -17 L -128 6 L 263 632 L 299 609 Z" unicode="⁄" />
<glyph horiz-adv-x="596" d="M 516 519 L 510 395 L 480 395 L 467 475 C 447 491 428 501 408 507 C 388 513 364 516 337 516 C 312 516 290 511 272 502 C 254 492 238 480 225 464 C 211 448 200 429 192 408 C 184 386 178 364 174 340 L 462 340 L 450 302 L 170 302 L 170 279 C 170 269 170 258 171 248 C 171 238 172 228 174 219 L 423 219 L 411 181 L 181 181 C 192 134 212 96 241 66 C 269 36 308 22 356 22 C 375 22 395 24 415 28 C 435 32 451 41 465 54 L 484 133 L 514 133 L 508 15 C 480 3 452 -4 426 -9 C 400 -13 371 -16 339 -16 C 306 -16 276 -11 250 -1 C 224 8 201 21 181 39 C 161 56 144 77 131 101 C 117 125 107 151 101 181 L 14 181 L 26 219 L 95 219 C 93 233 92 249 92 266 C 92 272 92 278 92 284 C 92 290 93 296 94 302 L 16 302 L 28 340 L 99 340 C 105 370 114 399 128 425 C 142 451 159 473 180 492 C 200 511 224 526 252 536 C 280 546 311 552 345 552 C 377 552 406 549 432 544 C 458 539 486 531 516 519 Z" unicode="€" />
<glyph horiz-adv-x="724" d="M 694 339 L 568 339 L 568 357 L 608 361 L 596 570 L 494 339 L 478 339 L 378 563 L 367 363 L 406 357 L 406 339 L 301 339 L 301 357 L 340 363 L 353 592 L 314 598 L 314 616 L 404 616 L 498 405 L 590 616 L 680 616 L 680 598 L 640 594 L 655 361 L 694 357 L 694 339 Z M 285 540 L 263 540 L 257 594 L 183 594 L 183 361 L 221 357 L 221 339 L 97 339 L 97 357 L 135 361 L 135 594 L 60 594 L 55 540 L 33 540 L 33 616 L 285 616 L 285 540 Z" unicode="™" />
<glyph horiz-adv-x="624" d="M 501 193 L 123 193 L 123 238 L 501 238 L 501 193 Z" unicode="Ω" />
<glyph horiz-adv-x="750" d="M 242 278 L 46 278 L 46 304 L 114 312 L 114 578 L 40 578 L 40 602 L 174 630 L 174 312 L 242 304 L 242 278 Z M 561 609 L 170 -17 L 134 6 L 525 632 L 561 609 Z M 702 101 L 689 0 L 424 0 L 417 31 L 506 102 C 524 116 540 129 554 141 C 567 153 578 164 587 175 C 595 186 602 197 606 209 C 610 221 612 234 612 249 C 612 270 605 287 593 300 C 581 313 564 320 542 320 C 522 320 506 314 493 303 C 479 292 468 278 459 260 L 432 286 C 446 308 464 325 484 337 C 504 349 527 355 554 355 C 570 355 586 352 601 348 C 616 344 629 337 641 329 C 652 320 661 309 668 297 C 674 285 678 270 678 254 C 678 240 676 227 672 216 C 668 205 662 195 654 185 C 646 175 637 165 626 155 C 614 145 601 135 587 124 L 500 55 L 500 52 L 657 52 L 677 106 L 702 101 Z" unicode="∂" />
<glyph horiz-adv-x="750" d="M 283 375 C 283 357 278 342 270 328 C 262 314 251 303 238 293 C 224 283 209 276 192 271 C 175 265 158 263 142 263 C 122 263 103 265 84 271 C 65 276 48 284 33 295 L 50 329 C 61 319 74 312 89 307 C 104 301 119 299 133 299 C 157 299 177 304 193 316 C 209 327 217 345 217 369 C 217 392 209 409 194 420 C 179 431 160 437 137 437 C 129 437 122 436 114 436 C 106 435 98 434 91 433 L 88 470 L 96 470 C 110 470 124 471 138 473 C 151 475 162 479 172 485 C 181 491 188 498 194 508 C 200 518 203 530 203 545 C 203 564 196 578 183 586 C 170 594 155 599 138 599 C 106 599 82 585 67 558 L 40 585 C 53 602 69 614 87 622 C 105 629 126 633 149 633 C 163 633 178 631 192 627 C 206 623 219 617 230 610 C 241 603 250 594 257 584 C 263 573 267 561 267 549 C 267 526 258 507 241 493 C 223 478 203 468 180 463 L 180 461 C 193 459 206 456 218 452 C 230 447 241 441 251 434 C 261 426 268 418 274 408 C 280 398 283 387 283 375 Z M 571 609 L 180 -17 L 144 6 L 535 632 L 571 609 Z M 701 126 L 693 84 L 632 84 L 632 -24 L 574 -24 L 574 84 L 397 84 L 389 117 L 574 330 L 603 372 L 636 365 L 632 285 L 632 126 L 701 126 Z M 574 126 L 574 283 L 438 126 L 574 126 Z" unicode="∆" />
<glyph horiz-adv-x="500" d="M 378 219 L 250 91 L 122 219 L 250 347 L 378 219 Z" unicode="∏" />
<glyph horiz-adv-x="750" d="M 252 278 L 56 278 L 56 304 L 124 312 L 124 578 L 50 578 L 50 602 L 184 630 L 184 312 L 252 304 L 252 278 Z M 571 609 L 180 -17 L 144 6 L 535 632 L 571 609 Z M 701 126 L 693 84 L 632 84 L 632 -24 L 574 -24 L 574 84 L 397 84 L 389 117 L 574 330 L 603 372 L 636 365 L 632 285 L 632 126 L 701 126 Z M 574 126 L 574 283 L 438 126 L 574 126 Z" unicode="∑" />
<glyph horiz-adv-x="624" d="M 501 193 L 123 193 L 123 238 L 501 238 L 501 193 Z" unicode="−" />
<glyph horiz-adv-x="170" d="M 299 609 L -92 -17 L -128 6 L 263 632 L 299 609 Z" unicode="∕" />
<glyph horiz-adv-x="250" d="M 181 256 C 181 240 175 227 164 216 C 153 205 140 200 125 200 C 109 200 96 205 85 216 C 74 227 69 240 69 256 C 69 271 74 284 85 295 C 96 306 109 312 125 312 C 140 312 153 306 164 295 C 175 284 181 271 181 256 Z" unicode="∙" />
<glyph horiz-adv-x="463" d="M 553 696 L 232 -50 L 214 -50 L 51 330 L 0 338 L 0 366 L 113 366 L 235 66 L 505 696 L 553 696 Z" unicode="√" />
<glyph horiz-adv-x="809" d="M 781 0 L 579 0 L 579 28 L 644 36 L 644 354 L 579 360 L 433 360 L 433 36 L 529 28 L 529 0 L 296 0 L 296 28 L 361 36 L 361 360 L 165 360 L 165 36 L 261 28 L 261 0 L 28 0 L 28 28 L 93 36 L 93 360 L 28 360 L 28 386 L 93 406 L 93 487 C 93 513 97 538 106 562 C 115 586 128 606 145 624 C 161 641 181 655 203 665 C 225 675 250 680 278 680 C 306 680 330 676 350 668 C 370 660 392 647 414 629 C 433 648 456 663 484 674 C 511 684 543 690 579 690 C 613 690 641 685 663 676 C 685 666 704 653 720 635 L 680 569 L 584 656 C 528 656 489 643 467 617 C 444 591 433 552 433 498 L 433 400 L 579 400 L 716 416 L 716 36 L 781 28 L 781 0 Z M 381 580 L 329 636 C 315 644 299 648 283 648 C 241 648 210 635 192 610 C 174 584 165 551 165 509 L 165 400 L 361 400 L 361 476 C 361 516 367 551 381 580 Z" unicode="∞" />
<glyph horiz-adv-x="500" d="M 421 151 L 394 105 L 366 121 L 259 204 L 277 69 L 277 37 L 223 37 L 223 69 L 241 204 L 134 121 L 106 105 L 79 151 L 107 167 L 232 219 L 107 271 L 79 287 L 106 333 L 134 317 L 241 234 L 223 369 L 223 401 L 277 401 L 277 369 L 259 234 L 366 317 L 394 333 L 421 287 L 393 271 L 268 219 L 393 167 L 421 151 Z" unicode="∫" />
<glyph horiz-adv-x="624" d="M 498 62 L 466 30 L 312 186 L 158 30 L 126 62 L 282 216 L 126 370 L 158 402 L 312 246 L 466 402 L 498 370 L 342 216 L 498 62 Z" unicode="≈" />
<glyph horiz-adv-x="546" d="M 605 668 L 581 605 L 489 654 C 483 654 477 652 471 648 C 464 644 458 638 452 630 C 446 622 442 611 438 599 C 434 586 433 571 433 554 L 433 400 L 556 400 L 556 360 L 433 360 L 433 36 L 529 28 L 529 0 L 296 0 L 296 28 L 361 36 L 361 360 L 165 360 L 165 36 L 261 28 L 261 0 L 28 0 L 28 28 L 93 36 L 93 360 L 28 360 L 28 386 L 93 406 L 93 487 C 93 513 97 538 106 562 C 115 586 128 606 145 624 C 161 641 181 655 203 665 C 225 675 250 680 278 680 C 306 680 329 676 349 669 C 368 661 387 650 406 636 C 419 652 435 665 453 675 C 471 685 494 690 520 690 C 538 690 553 688 567 685 C 580 682 593 676 605 668 Z M 376 586 L 329 636 C 315 644 299 648 283 648 C 241 648 210 635 192 610 C 174 584 165 551 165 509 L 165 400 L 361 400 L 361 497 C 361 510 362 525 364 543 C 366 561 370 575 376 586 Z" unicode="≠" />
<glyph horiz-adv-x="340" d="M 286 -58 L 264 -86 C 201 -39 151 17 114 84 C 76 151 58 224 58 304 C 58 383 76 456 114 523 C 151 590 201 647 264 694 L 286 666 C 232 620 190 566 161 504 C 131 441 117 374 117 304 C 117 233 131 166 161 104 C 190 41 232 -12 286 -58 Z" unicode="≤" />
<glyph horiz-adv-x="340" d="M 282 304 C 282 224 263 151 226 84 C 188 17 138 -39 76 -86 L 54 -58 C 108 -12 149 41 179 104 C 208 166 223 233 223 304 C 223 374 208 441 179 504 C 149 566 108 620 54 666 L 76 694 C 138 647 188 590 226 523 C 263 456 282 383 282 304 Z" unicode="≥" />
<glyph horiz-adv-x="400" d="M 328 300 L 200 172 L 72 300 L 200 428 L 328 300 Z" unicode="◊" />
<glyph horiz-adv-x="1000" d="M 701 361 C 701 349 698 337 692 327 C 686 316 679 307 670 300 C 660 292 650 286 638 282 C 626 278 614 276 602 276 C 580 276 558 281 537 293 L 546 320 C 564 309 582 304 600 304 C 618 304 634 310 648 324 L 617 385 C 618 394 623 401 631 407 C 639 413 647 416 656 416 C 669 416 680 410 688 398 C 696 386 701 374 701 361 Z M 443 321 C 443 299 437 277 426 256 L 399 265 C 409 283 415 301 415 319 C 415 337 408 353 395 367 L 334 336 C 324 337 317 342 311 350 C 305 358 303 366 303 375 C 303 388 308 399 320 407 C 332 415 344 420 358 420 C 370 420 382 417 392 411 C 402 405 411 398 419 389 C 426 379 432 369 436 357 C 440 345 443 333 443 321 Z M 950 194 L 851 194 L 776 212 L 791 139 L 791 92 L 747 92 L 747 139 L 762 212 L 679 189 L 506 213 L 530 40 L 507 -43 L 580 -28 L 627 -28 L 627 -72 L 580 -72 L 507 -57 L 525 -132 L 525 -231 L 475 -231 L 475 -132 L 493 -57 L 420 -72 L 373 -72 L 373 -28 L 420 -28 L 493 -43 L 470 40 L 494 213 L 321 189 L 238 212 L 253 139 L 253 92 L 209 92 L 209 139 L 224 212 L 149 194 L 50 194 L 50 244 L 149 244 L 224 226 L 209 299 L 209 346 L 253 346 L 253 299 L 238 226 L 321 249 L 494 225 L 470 398 L 493 481 L 420 466 L 373 466 L 373 510 L 420 510 L 493 495 L 475 570 L 475 669 L 525 669 L 525 570 L 507 495 L 580 510 L 627 510 L 627 466 L 580 466 L 507 481 L 530 398 L 506 225 L 679 249 L 762 226 L 747 299 L 747 346 L 791 346 L 791 299 L 776 226 L 851 244 L 950 244 L 950 194 Z M 697 63 C 697 49 691 38 679 30 C 667 22 655 18 642 18 C 630 18 618 20 608 26 C 597 32 588 39 581 49 C 573 58 567 69 563 81 C 559 93 557 105 557 117 C 557 139 562 160 574 182 L 601 173 C 590 155 585 137 585 119 C 585 100 591 84 605 71 L 666 102 C 675 100 682 96 688 88 C 694 80 697 71 697 63 Z M 463 145 L 454 118 C 436 128 418 134 400 134 C 381 134 365 127 352 114 L 383 53 C 381 43 377 36 369 30 C 361 24 352 22 344 22 C 330 22 319 27 311 39 C 303 51 299 63 299 77 C 299 89 301 100 307 111 C 313 121 320 130 330 138 C 339 145 350 151 362 155 C 374 159 386 162 398 162 C 420 162 441 156 463 145 Z" unicode="" />
<glyph horiz-adv-x="541" d="M 513 0 L 311 0 L 311 28 L 376 36 L 376 354 L 311 360 L 165 360 L 165 36 L 261 28 L 261 0 L 28 0 L 28 28 L 93 36 L 93 360 L 28 360 L 28 386 L 93 406 L 93 476 C 93 544 112 597 150 634 C 188 671 242 690 311 690 C 345 690 373 685 395 676 C 417 666 436 653 452 635 L 412 569 L 316 656 C 260 656 221 643 199 617 C 176 591 165 552 165 498 L 165 400 L 311 400 L 448 416 L 448 36 L 513 28 L 513 0 Z" unicode="ﬁ" />
<glyph horiz-adv-x="536" d="M 508 0 L 306 0 L 306 28 L 371 36 L 371 590 L 328 641 C 312 652 295 658 275 658 C 235 658 207 645 190 620 C 173 594 165 561 165 519 L 165 400 L 318 400 L 318 360 L 165 360 L 165 36 L 261 28 L 261 0 L 28 0 L 28 28 L 93 36 L 93 360 L 28 360 L 28 386 L 93 406 L 93 497 C 93 525 97 550 107 574 C 116 598 129 618 145 635 C 161 652 181 665 203 675 C 225 685 250 690 277 690 C 295 690 313 687 331 682 C 349 677 367 670 383 661 L 443 672 L 443 36 L 508 28 L 508 0 Z" unicode="ﬂ" />
</font>
</defs>
</svg>
