<?xml version="1.0" encoding="utf-8" ?><svg version="1.1" xmlns = 'http://www.w3.org/2000/svg'><defs><font id='web' horiz-adv-x="1000">
<font-face font-family="web" descent="-557" cap-height="1319" units-per-em="2048" bbox="-238,-557,1946,1810" x-height="885" ascent="1475" />
<missing-glyph horiz-adv-x="2048" d="" /><glyph horiz-adv-x="389" d="" unicode=" " />
<glyph horiz-adv-x="573" d="M 287 332 L 233 332 L 287 1188 L 307 1352 L 471 1352 L 451 1188 L 287 332 Z M 332 80 C 332 66 329 53 324 41 C 318 29 311 18 302 9 C 293 0 282 -6 270 -12 C 258 -17 245 -20 231 -20 C 203 -20 179 -10 160 9 C 140 28 131 52 131 80 C 131 108 140 131 160 151 C 179 170 203 180 231 180 C 245 180 258 177 270 172 C 282 166 293 159 302 150 C 311 141 318 131 324 119 C 329 107 332 94 332 80 Z" unicode="!" />
<glyph horiz-adv-x="553" d="M 561 1270 L 477 942 L 436 942 L 422 1270 L 440 1434 L 580 1434 L 561 1270 Z M 274 1270 L 190 942 L 150 942 L 135 1270 L 154 1434 L 293 1434 L 274 1270 Z" unicode="&#x22;" />
<glyph horiz-adv-x="1135" d="M 1028 827 L 821 827 L 741 489 L 948 489 L 930 416 L 723 416 L 625 0 L 551 0 L 649 416 L 369 416 L 270 0 L 197 0 L 295 416 L 88 416 L 106 489 L 313 489 L 393 827 L 186 827 L 205 901 L 412 901 L 512 1319 L 586 1319 L 485 901 L 766 901 L 866 1319 L 940 1319 L 840 901 L 1047 901 L 1028 827 Z M 467 827 L 387 489 L 668 489 L 748 827 L 467 827 Z" unicode="#" />
<glyph horiz-adv-x="963" d="M 823 381 C 823 321 814 268 796 221 C 778 173 752 133 719 99 C 685 65 645 39 599 20 C 552 0 500 -10 444 -14 L 426 -176 L 360 -176 L 379 -16 C 327 -16 273 -7 218 9 C 162 26 113 52 70 86 L 94 381 L 137 387 L 156 164 C 182 124 216 94 258 74 C 299 54 341 45 385 45 L 449 614 C 413 632 377 653 343 675 C 309 697 278 722 252 750 C 226 778 204 809 188 845 C 172 880 164 921 164 967 C 164 1026 173 1078 192 1124 C 210 1170 236 1208 269 1240 C 302 1271 341 1295 385 1311 C 429 1327 476 1336 528 1337 L 545 1483 L 610 1483 L 594 1335 C 644 1331 689 1323 731 1311 C 772 1299 814 1279 856 1251 L 811 979 L 770 979 L 764 1182 C 741 1212 715 1235 686 1249 C 656 1263 624 1272 588 1276 L 528 745 C 564 725 600 704 636 683 C 671 662 702 638 730 610 C 758 582 780 550 797 513 C 814 476 823 432 823 381 Z M 522 1278 C 489 1278 458 1271 430 1259 C 402 1247 377 1230 357 1208 C 336 1186 320 1159 308 1128 C 296 1096 291 1062 291 1024 C 291 992 295 964 305 940 C 314 915 327 893 343 873 C 359 853 377 835 399 819 C 420 803 443 789 467 776 L 522 1278 Z M 684 322 C 684 356 679 385 671 411 C 663 437 651 460 636 481 C 621 501 603 520 582 536 C 560 552 536 568 510 584 L 451 47 C 485 47 516 55 545 69 C 573 83 598 102 619 126 C 639 150 655 179 667 213 C 678 246 684 282 684 322 Z" unicode="$" />
<glyph horiz-adv-x="1356" d="M 627 1036 C 627 1006 624 976 619 944 C 614 912 606 880 596 848 C 586 816 573 786 557 758 C 541 729 522 704 500 682 C 478 660 452 642 424 629 C 395 616 363 610 328 610 C 286 610 252 620 224 640 C 196 660 173 685 157 716 C 140 747 128 781 121 818 C 114 855 111 891 111 926 C 111 954 113 985 118 1017 C 123 1049 131 1081 141 1113 C 151 1145 165 1175 181 1204 C 197 1232 216 1258 238 1280 C 260 1302 285 1319 314 1332 C 342 1345 374 1352 410 1352 C 451 1352 485 1342 513 1322 C 541 1302 563 1276 580 1245 C 597 1214 609 1180 616 1143 C 623 1106 627 1070 627 1036 Z M 512 1079 C 512 1096 511 1118 509 1144 C 507 1170 502 1195 495 1219 C 488 1243 478 1263 464 1281 C 450 1298 430 1307 406 1307 C 380 1307 358 1299 340 1283 C 322 1267 306 1246 292 1220 C 278 1194 267 1166 259 1134 C 250 1102 243 1070 238 1039 C 233 1007 230 978 228 950 C 226 922 225 900 225 883 C 225 865 226 844 228 818 C 230 792 234 767 241 743 C 248 719 259 698 273 681 C 287 663 307 655 332 655 C 356 655 378 663 396 679 C 414 695 430 715 444 741 C 457 767 468 796 477 828 C 485 860 492 891 498 923 C 503 954 507 983 509 1011 C 511 1039 512 1061 512 1079 Z M 211 -35 L 160 2 L 1143 1354 L 1194 1317 L 211 -35 Z M 1243 393 C 1243 364 1240 333 1235 301 C 1230 269 1222 237 1212 205 C 1202 173 1189 143 1173 115 C 1157 86 1138 61 1116 39 C 1094 17 1068 0 1040 -13 C 1011 -26 979 -33 944 -33 C 902 -33 868 -23 840 -3 C 812 17 789 42 773 73 C 756 104 744 138 737 175 C 730 212 727 248 727 283 C 727 311 729 342 734 374 C 739 406 747 438 757 470 C 767 502 781 532 797 561 C 813 589 832 615 854 637 C 876 659 901 676 930 689 C 958 702 990 709 1026 709 C 1067 709 1102 699 1130 679 C 1158 659 1180 633 1197 602 C 1213 571 1225 537 1232 500 C 1239 462 1243 427 1243 393 Z M 1128 436 C 1128 453 1127 475 1125 501 C 1123 527 1118 552 1111 576 C 1104 600 1094 620 1080 638 C 1066 655 1046 664 1022 664 C 996 664 974 656 956 640 C 938 624 922 603 909 577 C 895 551 884 523 876 491 C 867 459 860 427 855 396 C 850 364 847 335 845 307 C 843 279 842 257 842 240 C 842 222 843 201 845 175 C 847 149 851 124 858 100 C 865 76 876 55 890 38 C 904 20 923 12 948 12 C 972 12 994 20 1012 36 C 1030 52 1046 72 1060 98 C 1073 124 1084 153 1093 185 C 1102 217 1109 248 1114 280 C 1119 311 1123 340 1125 368 C 1127 396 1128 418 1128 436 Z" unicode="%" />
<glyph horiz-adv-x="1270" d="M 1307 801 C 1307 778 1302 757 1292 737 C 1282 717 1269 698 1253 681 C 1237 663 1219 648 1200 634 C 1180 620 1161 608 1143 598 C 1125 598 1109 599 1093 603 C 1077 607 1061 612 1045 618 C 1029 624 1013 632 997 642 C 980 651 962 662 944 674 C 940 604 932 539 918 479 C 904 419 884 363 860 309 L 1063 47 C 1073 47 1085 49 1097 53 C 1109 57 1121 62 1133 68 C 1145 74 1156 81 1166 89 C 1176 97 1186 105 1194 113 L 1219 84 C 1203 64 1185 47 1165 33 C 1144 18 1122 6 1099 -3 C 1076 -13 1052 -20 1028 -25 C 1004 -30 980 -33 958 -33 L 948 -33 L 782 180 C 732 113 674 61 607 23 C 539 -14 466 -33 387 -33 C 340 -33 296 -24 255 -6 C 214 11 178 35 148 66 C 117 96 93 132 75 173 C 57 214 49 258 49 305 C 49 355 56 401 71 443 C 86 485 107 523 134 558 C 160 593 192 625 230 653 C 267 681 308 706 354 729 C 322 770 296 813 278 858 C 259 903 250 952 250 1004 C 250 1059 259 1108 278 1151 C 297 1193 322 1229 353 1259 C 384 1288 419 1310 459 1325 C 498 1340 538 1348 578 1348 C 612 1348 643 1343 673 1334 C 703 1324 729 1311 752 1293 C 774 1275 792 1253 805 1227 C 818 1201 825 1171 825 1137 C 825 1103 815 1078 797 1060 C 778 1042 753 1034 721 1034 C 717 1034 712 1034 708 1034 C 704 1034 699 1034 694 1036 L 680 1249 C 667 1266 651 1278 633 1286 C 614 1294 594 1298 573 1298 C 548 1298 524 1293 501 1284 C 477 1274 457 1260 439 1241 C 421 1222 406 1198 395 1169 C 384 1139 379 1105 379 1065 C 379 1037 381 1011 385 988 C 389 965 395 943 403 922 C 411 900 422 879 435 859 C 447 839 463 817 481 795 L 817 365 C 829 401 838 438 844 477 C 849 515 852 556 852 598 C 852 616 851 636 850 657 C 849 678 848 698 846 717 C 835 721 825 724 815 726 C 805 728 795 729 784 729 C 764 729 744 725 722 719 C 700 712 678 700 655 684 L 635 711 C 678 745 716 768 750 781 C 783 794 814 801 844 801 C 874 801 902 795 929 783 C 955 771 981 757 1007 743 C 1032 729 1057 716 1082 704 C 1106 692 1131 686 1157 686 C 1171 686 1185 688 1199 692 C 1212 696 1223 703 1233 715 L 1165 854 C 1172 866 1181 877 1192 886 C 1202 894 1214 899 1227 899 C 1253 899 1273 889 1287 870 C 1300 850 1307 827 1307 801 Z M 383 696 C 353 674 326 652 304 628 C 281 604 262 579 247 552 C 231 524 220 494 212 462 C 204 430 201 394 201 356 C 201 318 206 282 218 248 C 230 214 246 184 268 158 C 290 132 316 112 346 97 C 376 81 409 74 446 74 C 480 74 512 77 542 85 C 571 92 598 102 623 116 C 647 129 670 145 691 164 C 711 182 730 203 748 227 L 383 696 Z" unicode="&#x26;" />
<glyph horiz-adv-x="307" d="M 295 1270 L 211 942 L 170 942 L 156 1270 L 174 1434 L 313 1434 L 295 1270 Z" unicode="'" />
<glyph horiz-adv-x="733" d="M 760 1413 C 686 1353 618 1283 557 1205 C 495 1127 443 1043 399 955 C 355 866 322 774 298 679 C 274 583 262 489 262 395 C 262 321 267 247 279 173 C 291 98 309 25 333 -44 C 357 -114 387 -181 424 -244 C 461 -307 505 -364 555 -414 L 522 -451 C 462 -399 408 -341 361 -277 C 314 -213 274 -144 242 -72 C 210 0 185 75 168 153 C 151 231 143 310 143 389 C 143 496 157 600 186 702 C 215 803 256 899 308 990 C 360 1081 422 1166 494 1244 C 566 1322 645 1392 731 1454 L 760 1413 Z" unicode="(" />
<glyph horiz-adv-x="733" d="M 594 614 C 594 506 579 402 550 301 C 521 199 481 103 429 12 C 377 -78 315 -163 243 -241 C 171 -319 92 -389 6 -451 L -23 -410 C 51 -350 118 -280 180 -202 C 241 -124 293 -40 337 48 C 381 137 415 229 439 324 C 463 419 475 514 475 608 C 475 681 469 755 457 830 C 445 904 428 977 404 1047 C 380 1117 349 1183 312 1246 C 275 1309 232 1365 182 1415 L 215 1454 C 275 1402 329 1344 376 1280 C 423 1216 463 1147 495 1075 C 527 1003 552 927 569 849 C 585 771 594 692 594 614 Z" unicode=")" />
<glyph horiz-adv-x="831" d="M 770 1049 L 496 975 L 743 838 L 797 797 L 731 711 L 678 750 L 477 952 L 483 668 L 475 602 L 367 616 L 375 682 L 451 956 L 207 809 L 145 784 L 102 885 L 164 909 L 438 983 L 190 1120 L 137 1161 L 203 1247 L 256 1208 L 457 1006 L 451 1290 L 459 1356 L 567 1341 L 559 1276 L 483 1001 L 727 1149 L 788 1174 L 831 1073 L 770 1049 Z" unicode="*" />
<glyph horiz-adv-x="1229" d="M 657 567 L 657 123 L 571 123 L 571 567 L 150 567 L 150 645 L 571 645 L 571 1090 L 657 1090 L 657 645 L 1079 645 L 1079 567 L 657 567 Z" unicode="+" />
<glyph horiz-adv-x="406" d="M 311 33 C 311 -2 303 -34 289 -62 C 274 -90 255 -114 232 -135 C 208 -156 182 -174 154 -189 C 126 -203 98 -215 72 -225 L 45 -172 C 69 -164 91 -154 113 -143 C 135 -132 154 -120 171 -106 C 188 -92 202 -76 213 -60 C 223 -44 230 -27 233 -10 L 80 66 C 76 72 74 78 72 84 C 70 90 70 98 70 106 C 70 135 79 157 99 171 C 119 185 143 193 172 193 C 192 193 211 188 228 179 C 245 170 260 158 272 143 C 284 128 294 111 301 92 C 307 73 311 53 311 33 Z" unicode="," />
<glyph horiz-adv-x="573" d="M 82 393 L 82 483 L 492 532 L 492 442 L 82 393 Z" unicode="-" />
<glyph horiz-adv-x="406" d="M 274 78 C 274 50 264 26 246 8 C 227 -10 204 -20 176 -20 C 148 -20 124 -10 106 8 C 87 26 78 50 78 78 C 78 106 87 129 106 148 C 124 166 148 176 176 176 C 204 176 227 166 246 148 C 264 129 274 106 274 78 Z" unicode="." />
<glyph horiz-adv-x="606" d="M 59 -102 L -27 -102 L 543 1348 L 629 1348 L 59 -102 Z" unicode="/" />
<glyph horiz-adv-x="946" d="M 889 791 C 889 743 885 689 879 631 C 872 572 861 512 846 452 C 830 391 810 332 786 275 C 761 218 730 167 694 123 C 657 78 614 42 565 15 C 516 -11 460 -25 397 -25 C 350 -25 309 -16 275 0 C 240 16 210 39 185 67 C 160 95 139 128 123 165 C 106 202 93 241 83 282 C 73 323 67 365 63 407 C 59 449 57 490 57 528 C 57 576 60 629 67 688 C 73 746 84 806 100 866 C 115 926 135 985 160 1043 C 184 1100 215 1151 252 1195 C 288 1239 331 1275 380 1302 C 429 1329 485 1343 549 1343 C 595 1343 635 1334 670 1318 C 705 1301 735 1279 760 1251 C 785 1223 806 1190 823 1153 C 839 1115 852 1076 862 1036 C 872 995 879 953 883 911 C 887 869 889 829 889 791 Z M 735 883 C 735 904 734 929 733 957 C 731 985 728 1013 724 1043 C 720 1073 713 1102 705 1131 C 697 1159 685 1185 671 1207 C 657 1229 639 1247 618 1261 C 596 1275 571 1282 541 1282 C 505 1282 472 1272 444 1254 C 416 1235 390 1210 368 1178 C 346 1146 326 1110 310 1068 C 294 1026 280 982 268 936 C 256 889 247 841 240 793 C 232 745 226 698 222 654 C 218 610 215 569 213 531 C 211 493 211 461 211 436 C 211 414 211 389 213 361 C 214 333 217 304 221 274 C 225 244 232 215 240 187 C 248 159 260 133 275 111 C 289 89 307 71 329 57 C 350 43 376 37 406 37 C 442 37 474 46 502 65 C 530 83 556 108 578 140 C 600 172 619 208 635 250 C 651 292 665 336 677 383 C 689 429 698 477 706 525 C 713 573 719 620 723 664 C 727 708 730 750 732 788 C 734 826 735 857 735 883 Z" unicode="0" />
<glyph horiz-adv-x="729" d="M 623 0 L 29 0 L 35 45 L 264 74 L 387 1186 L 133 1159 L 137 1204 L 530 1333 L 539 1333 L 399 74 L 629 45 L 623 0 Z" unicode="1" />
<glyph horiz-adv-x="885" d="M 827 1051 C 827 987 817 929 799 876 C 780 822 754 771 722 723 C 690 674 652 626 609 580 C 565 534 519 486 469 436 L 152 121 L 152 117 L 678 117 L 750 283 L 801 270 L 729 0 L 0 0 L -6 61 L 313 387 C 359 433 404 480 447 528 C 490 575 528 624 561 676 C 594 727 620 781 640 838 C 660 895 670 957 670 1024 C 670 1060 665 1094 656 1124 C 647 1154 634 1181 617 1203 C 599 1225 578 1242 552 1254 C 526 1266 497 1272 463 1272 C 429 1272 398 1266 371 1256 C 343 1245 319 1230 297 1210 C 275 1190 255 1167 237 1140 C 219 1113 204 1083 190 1051 L 137 1085 C 175 1172 222 1238 280 1282 C 338 1326 412 1348 502 1348 C 547 1348 589 1340 629 1326 C 669 1312 703 1291 733 1265 C 762 1239 785 1207 802 1171 C 818 1135 827 1095 827 1051 Z" unicode="2" />
<glyph horiz-adv-x="831" d="M 760 1071 C 760 1033 753 995 741 958 C 728 920 709 885 683 852 C 657 819 625 789 587 763 C 548 737 503 716 451 702 L 451 698 C 490 694 527 685 562 670 C 597 654 628 634 654 609 C 680 584 700 555 716 522 C 731 488 739 452 739 412 C 739 341 726 278 700 222 C 674 166 639 119 596 81 C 552 43 503 13 447 -6 C 391 -26 332 -37 272 -37 C 220 -37 169 -27 119 -8 C 68 10 24 38 -12 76 L 25 141 C 57 105 96 78 141 61 C 185 43 230 35 274 35 C 324 35 368 45 407 66 C 445 86 478 113 504 147 C 530 180 550 217 564 259 C 577 301 584 343 584 385 C 584 431 577 470 565 503 C 553 536 536 563 514 585 C 492 606 467 622 437 632 C 407 642 374 647 338 647 C 316 647 296 646 278 644 C 260 642 241 639 223 635 L 223 717 C 283 717 338 724 386 738 C 434 752 476 773 510 802 C 544 830 570 866 588 910 C 606 954 616 1005 616 1065 C 616 1099 611 1130 601 1156 C 591 1182 578 1203 562 1221 C 546 1239 526 1252 504 1261 C 482 1269 458 1274 432 1274 C 380 1274 332 1258 288 1228 C 244 1198 205 1152 172 1092 L 127 1137 C 164 1205 210 1257 265 1293 C 320 1329 388 1348 469 1348 C 515 1348 557 1340 593 1325 C 629 1310 660 1290 685 1265 C 709 1239 728 1210 741 1176 C 753 1142 760 1107 760 1071 Z" unicode="3" />
<glyph horiz-adv-x="946" d="M 868 379 L 680 379 L 635 -29 L 502 -29 L 547 379 L 16 379 L -8 446 L 750 1343 L 786 1335 L 690 477 L 899 477 L 868 379 Z M 115 477 L 557 477 L 625 1085 L 115 477 Z" unicode="4" />
<glyph horiz-adv-x="844" d="M 784 1192 L 305 1192 L 225 772 C 249 777 274 781 299 785 C 323 789 348 791 373 791 C 430 791 482 782 530 766 C 578 750 619 726 653 695 C 687 663 714 625 733 579 C 752 533 762 481 762 422 C 762 354 749 291 723 235 C 697 179 662 130 618 90 C 574 50 523 18 465 -3 C 407 -25 345 -37 281 -37 C 222 -37 166 -27 114 -7 C 61 12 15 42 -25 82 L 16 145 C 50 111 89 84 134 64 C 178 44 226 35 276 35 C 326 35 371 44 411 64 C 451 84 486 110 515 143 C 544 176 566 214 582 258 C 598 302 606 348 606 397 C 606 449 598 495 583 533 C 567 571 545 602 517 626 C 489 650 454 668 414 680 C 374 692 329 698 279 698 C 251 698 224 696 198 692 C 172 688 146 684 121 680 L 244 1319 L 809 1319 L 784 1192 Z" unicode="5" />
<glyph horiz-adv-x="926" d="M 848 473 C 848 411 837 351 817 291 C 797 231 768 177 730 130 C 692 82 647 44 594 15 C 540 -14 480 -29 414 -29 C 352 -29 300 -15 256 12 C 212 39 177 75 149 120 C 121 165 101 216 89 274 C 76 332 70 391 70 453 C 70 529 77 605 92 680 C 106 754 128 825 157 892 C 186 959 222 1021 266 1078 C 309 1134 359 1183 416 1224 C 473 1265 537 1297 608 1321 C 678 1344 756 1356 840 1356 L 831 1290 C 745 1290 669 1274 604 1244 C 538 1214 482 1172 435 1119 C 387 1066 348 1003 318 930 C 287 857 264 778 248 694 C 290 744 335 783 384 811 C 433 838 487 852 545 852 C 593 852 637 841 675 820 C 713 799 744 771 770 736 C 795 701 814 661 828 615 C 841 569 848 522 848 473 Z M 702 471 C 702 511 698 549 691 585 C 683 621 672 653 656 681 C 640 709 620 731 595 747 C 570 763 540 772 504 772 C 450 772 400 758 355 730 C 309 702 272 667 242 623 C 235 597 230 566 226 530 C 222 494 221 457 221 418 C 221 370 224 323 231 277 C 238 231 250 189 266 152 C 282 115 304 85 331 63 C 358 40 392 29 432 29 C 474 29 512 42 546 69 C 579 95 607 130 630 172 C 653 214 671 262 683 314 C 695 366 702 419 702 471 Z" unicode="6" />
<glyph horiz-adv-x="819" d="M 889 1282 L 438 430 L 240 -25 L 88 -25 L 766 1196 L 195 1196 L 119 1026 L 74 1034 L 158 1319 L 893 1319 L 889 1282 Z" unicode="7" />
<glyph horiz-adv-x="918" d="M 848 1073 C 848 1033 840 995 825 959 C 809 923 789 889 764 858 C 738 827 709 799 676 775 C 643 750 609 729 575 713 C 607 690 639 666 669 642 C 699 618 725 592 748 564 C 771 536 790 507 804 476 C 818 444 825 411 825 375 C 825 313 813 257 789 207 C 765 157 734 114 694 78 C 654 42 607 15 554 -4 C 500 -23 444 -33 385 -33 C 337 -33 293 -25 251 -10 C 209 4 173 25 142 53 C 111 80 86 113 68 152 C 50 190 41 233 41 281 C 41 329 48 373 64 414 C 80 455 102 493 130 528 C 158 562 192 594 231 622 C 269 650 312 674 358 696 C 332 714 307 734 284 756 C 261 778 241 801 224 827 C 206 852 193 879 183 908 C 173 936 168 967 168 999 C 168 1053 177 1102 196 1146 C 215 1189 241 1226 275 1257 C 308 1287 348 1311 394 1327 C 440 1343 491 1352 545 1352 C 589 1352 629 1345 666 1333 C 703 1320 735 1302 762 1278 C 789 1254 810 1225 825 1191 C 840 1156 848 1117 848 1073 Z M 678 311 C 678 347 671 381 658 412 C 645 443 626 473 602 501 C 577 529 547 556 511 584 C 475 612 434 641 389 672 C 322 626 271 574 235 514 C 199 454 182 381 182 295 C 182 251 188 213 200 180 C 212 147 229 119 250 97 C 271 75 296 58 324 46 C 352 34 382 29 414 29 C 452 29 487 36 519 50 C 551 64 578 84 602 110 C 626 135 644 165 658 199 C 671 233 678 271 678 311 Z M 721 1073 C 721 1109 716 1140 706 1168 C 696 1196 683 1219 666 1237 C 648 1255 628 1269 605 1279 C 581 1289 556 1294 528 1294 C 495 1294 465 1288 438 1276 C 410 1264 387 1248 367 1227 C 347 1206 332 1181 321 1152 C 310 1123 305 1091 305 1057 C 305 1022 310 991 321 963 C 332 935 348 908 369 883 C 390 858 415 834 445 811 C 474 787 507 763 545 737 C 601 777 645 825 675 881 C 705 937 721 1001 721 1073 Z" unicode="8" />
<glyph horiz-adv-x="897" d="M 848 868 C 848 793 840 719 826 645 C 811 571 789 501 760 435 C 731 368 695 306 653 249 C 610 191 560 141 504 99 C 448 56 385 22 316 -3 C 246 -28 171 -42 90 -45 L 90 20 C 174 28 248 47 311 77 C 374 107 429 148 475 199 C 521 250 559 311 590 381 C 621 451 646 530 666 618 C 582 518 488 469 383 469 C 329 469 283 480 245 503 C 206 526 174 556 149 592 C 123 628 104 668 92 712 C 80 756 74 800 74 844 C 74 910 84 974 104 1035 C 124 1095 152 1149 189 1195 C 226 1241 271 1278 324 1306 C 377 1334 437 1348 504 1348 C 564 1348 615 1334 659 1308 C 702 1281 738 1245 766 1201 C 794 1157 814 1106 828 1048 C 841 990 848 930 848 868 Z M 692 909 C 692 958 688 1005 681 1051 C 673 1096 661 1136 645 1171 C 629 1206 607 1234 581 1255 C 555 1275 523 1286 485 1286 C 445 1286 408 1273 376 1249 C 343 1225 315 1192 292 1152 C 268 1111 250 1064 238 1011 C 225 958 219 903 219 846 C 219 804 222 766 230 730 C 238 694 250 662 267 635 C 284 607 306 586 333 570 C 359 554 392 547 430 547 C 452 547 475 550 498 558 C 521 565 543 575 565 589 C 586 602 606 617 625 635 C 644 653 661 672 676 694 C 682 725 686 759 688 797 C 690 835 692 872 692 909 Z" unicode="9" />
<glyph horiz-adv-x="545" d="M 389 741 C 389 713 379 689 361 671 C 342 652 319 643 291 643 C 263 643 239 652 221 671 C 202 689 193 713 193 741 C 193 755 195 768 200 780 C 205 792 212 802 221 811 C 230 820 240 827 252 832 C 264 837 277 840 291 840 C 305 840 317 837 329 832 C 341 827 351 820 360 811 C 369 802 376 792 381 780 C 386 768 389 755 389 741 Z M 324 78 C 324 64 321 51 316 39 C 311 27 304 17 295 8 C 286 0 276 -7 264 -12 C 252 -17 239 -20 225 -20 C 197 -20 173 -10 155 8 C 136 26 127 50 127 78 C 127 106 136 129 155 148 C 173 166 197 176 225 176 C 239 176 252 173 264 168 C 276 163 286 156 295 147 C 304 138 311 128 316 116 C 321 104 324 92 324 78 Z" unicode=":" />
<glyph horiz-adv-x="545" d="M 389 741 C 389 713 379 689 361 671 C 342 652 319 643 291 643 C 263 643 239 652 221 671 C 202 689 193 713 193 741 C 193 755 195 768 200 780 C 205 792 212 802 221 811 C 230 820 240 827 252 832 C 264 837 277 840 291 840 C 305 840 317 837 329 832 C 341 827 351 820 360 811 C 369 802 376 792 381 780 C 386 768 389 755 389 741 Z M 362 33 C 362 -2 354 -34 340 -62 C 325 -90 306 -114 283 -135 C 259 -156 233 -174 205 -189 C 177 -203 149 -215 123 -225 L 96 -172 C 120 -164 142 -154 164 -143 C 186 -132 205 -120 222 -106 C 239 -92 253 -76 264 -60 C 275 -44 282 -27 285 -10 L 131 66 C 127 72 125 78 123 84 C 121 90 121 98 121 106 C 121 135 130 157 150 171 C 170 185 194 193 223 193 C 243 193 262 188 279 179 C 296 170 311 158 323 143 C 335 128 345 111 352 92 C 358 73 362 53 362 33 Z" unicode=";" />
<glyph horiz-adv-x="1229" d="M 127 573 L 127 639 L 1049 1108 L 1049 1018 L 236 606 L 1049 195 L 1049 104 L 127 573 Z" unicode="&#x3C;" />
<glyph horiz-adv-x="1229" d="M 150 748 L 150 825 L 1079 825 L 1079 748 L 150 748 Z M 150 387 L 150 465 L 1079 465 L 1079 387 L 150 387 Z" unicode="=" />
<glyph horiz-adv-x="1229" d="M 180 104 L 180 195 L 993 606 L 180 1018 L 180 1108 L 1102 639 L 1102 573 L 180 104 Z" unicode="&#x3E;" />
<glyph horiz-adv-x="815" d="M 764 975 C 764 910 753 850 732 794 C 710 738 680 689 641 648 C 602 606 555 573 501 549 C 446 524 385 511 319 510 L 297 274 L 225 274 L 272 651 C 332 651 387 658 436 674 C 484 690 526 713 560 744 C 594 774 620 812 638 858 C 656 904 666 957 666 1018 C 666 1058 660 1095 649 1131 C 638 1166 622 1197 601 1223 C 580 1249 554 1270 524 1286 C 493 1301 458 1309 418 1309 L 240 1167 C 224 1174 211 1184 201 1197 C 191 1210 186 1226 186 1245 C 186 1268 191 1288 203 1305 C 215 1322 230 1336 249 1347 C 267 1357 288 1365 312 1370 C 336 1375 359 1378 383 1378 C 442 1378 495 1368 543 1348 C 590 1328 630 1301 663 1265 C 695 1229 720 1187 738 1138 C 755 1088 764 1034 764 975 Z M 342 80 C 342 52 332 28 313 9 C 293 -10 270 -20 242 -20 C 228 -20 214 -17 202 -12 C 190 -6 179 0 170 9 C 161 18 154 29 149 41 C 143 53 141 66 141 80 C 141 94 143 107 149 119 C 154 131 161 141 170 150 C 179 159 190 166 202 172 C 214 177 228 180 242 180 C 270 180 293 170 313 151 C 332 131 342 108 342 80 Z" unicode="?" />
<glyph horiz-adv-x="1597" d="M 1507 651 C 1507 578 1497 510 1477 447 C 1457 383 1428 328 1390 282 C 1352 235 1304 198 1248 171 C 1192 144 1127 131 1055 131 C 1038 131 1021 132 1004 136 C 986 139 970 144 956 152 L 956 332 C 948 308 936 285 920 261 C 904 237 885 215 863 196 C 841 176 816 161 788 149 C 760 137 731 131 700 131 C 664 131 631 138 603 153 C 575 167 551 187 531 212 C 511 237 495 266 485 298 C 474 330 469 365 469 401 C 469 464 478 525 496 583 C 514 641 539 693 573 738 C 607 782 648 818 697 845 C 745 871 800 885 862 885 C 876 885 890 883 905 881 C 919 878 934 874 948 869 C 962 864 975 858 987 851 C 999 843 1009 835 1018 827 L 1022 858 L 1135 872 L 1159 872 L 1102 444 C 1100 436 1099 425 1098 413 C 1097 401 1096 388 1095 375 C 1094 361 1093 348 1093 336 C 1092 323 1092 313 1092 305 L 1092 188 C 1130 188 1165 194 1197 206 C 1229 218 1258 235 1284 256 C 1310 277 1332 302 1352 331 C 1372 360 1388 391 1402 424 C 1415 457 1425 492 1432 528 C 1438 564 1442 599 1442 635 C 1442 720 1427 795 1398 859 C 1368 923 1328 976 1277 1019 C 1226 1061 1166 1093 1098 1115 C 1030 1136 957 1147 879 1147 C 787 1147 701 1129 622 1094 C 543 1059 475 1011 417 949 C 359 887 314 813 282 729 C 249 645 233 553 233 455 C 233 363 247 276 275 196 C 303 116 344 46 397 -12 C 450 -71 515 -118 591 -152 C 667 -186 752 -203 848 -203 C 926 -203 1004 -191 1081 -169 C 1157 -146 1227 -114 1290 -72 L 1313 -119 C 1271 -144 1231 -166 1191 -184 C 1151 -202 1110 -217 1068 -229 C 1026 -241 984 -249 940 -255 C 896 -261 851 -264 803 -264 C 702 -264 609 -246 524 -212 C 439 -177 366 -129 304 -67 C 242 -5 193 67 158 152 C 123 237 106 330 106 430 C 106 502 115 571 134 638 C 153 704 180 766 214 824 C 248 881 290 933 338 980 C 386 1026 439 1066 497 1100 C 555 1133 618 1159 685 1177 C 752 1195 822 1204 895 1204 C 979 1204 1059 1191 1134 1165 C 1208 1139 1273 1103 1328 1055 C 1383 1007 1427 948 1459 880 C 1491 812 1507 735 1507 651 Z M 1010 778 C 992 795 971 809 946 819 C 921 829 896 834 870 834 C 826 834 789 821 757 795 C 725 769 699 736 678 695 C 657 653 641 607 631 555 C 621 503 616 450 616 397 C 616 367 618 339 623 314 C 627 289 635 268 645 250 C 655 232 668 218 684 208 C 700 198 719 193 741 193 C 772 193 801 202 828 222 C 855 242 879 269 901 305 C 922 340 940 382 955 430 C 969 478 980 530 987 588 L 1010 778 Z" unicode="@" />
<glyph horiz-adv-x="1143" d="M 1081 0 L 657 0 L 664 45 L 829 61 L 741 446 L 315 446 L 145 61 L 307 45 L 301 0 L -45 0 L -39 45 L 68 66 L 639 1327 L 684 1327 L 981 61 L 1087 45 L 1081 0 Z M 598 1085 L 344 512 L 727 512 L 598 1085 Z" unicode="A" />
<glyph horiz-adv-x="1069" d="M 993 410 C 993 336 980 273 955 221 C 930 169 895 127 849 94 C 803 61 747 37 683 22 C 619 7 547 0 469 0 L 25 0 L 31 45 L 190 61 L 324 1257 L 164 1274 L 170 1319 L 629 1319 C 673 1319 716 1313 758 1302 C 800 1290 836 1273 868 1251 C 900 1228 925 1199 944 1165 C 963 1130 973 1090 973 1044 C 973 1000 966 959 953 921 C 940 883 921 850 897 820 C 872 790 842 766 807 746 C 772 726 732 713 688 705 L 688 700 C 730 694 770 684 807 670 C 844 655 876 636 904 612 C 931 588 953 559 969 525 C 985 491 993 452 993 410 Z M 813 1032 C 813 1068 807 1100 796 1128 C 785 1156 770 1181 750 1201 C 730 1221 706 1236 679 1246 C 651 1256 622 1262 590 1262 C 570 1262 549 1261 527 1260 C 505 1258 484 1256 465 1253 L 406 719 L 510 719 C 560 719 604 726 642 741 C 680 755 711 776 737 803 C 762 830 781 863 794 902 C 806 940 813 984 813 1032 Z M 829 385 C 829 429 822 467 809 501 C 795 535 776 563 752 586 C 728 609 698 627 663 639 C 628 651 589 657 547 657 L 397 657 L 334 74 C 359 67 386 62 415 60 C 444 58 472 57 500 57 C 550 57 595 64 636 79 C 676 94 711 116 739 144 C 767 172 789 206 805 247 C 821 287 829 333 829 385 Z" unicode="B" />
<glyph horiz-adv-x="1126" d="M 1073 985 L 1024 985 L 1016 1171 C 995 1191 974 1209 954 1223 C 934 1237 913 1249 891 1258 C 869 1266 845 1272 821 1276 C 796 1280 769 1282 741 1282 C 683 1282 631 1271 585 1249 C 538 1227 496 1198 460 1161 C 424 1124 392 1081 366 1032 C 340 983 318 932 301 878 C 283 824 270 769 262 713 C 254 657 250 604 250 553 C 250 484 257 419 273 358 C 288 296 311 242 343 196 C 374 150 413 113 461 86 C 508 58 563 45 627 45 C 661 45 694 49 726 58 C 758 67 788 80 818 97 C 847 113 875 133 902 156 C 928 179 953 205 977 233 L 1018 188 C 992 156 964 126 934 100 C 903 73 869 50 833 31 C 796 12 757 -2 715 -13 C 673 -23 628 -29 582 -29 C 500 -29 427 -12 365 19 C 303 51 251 95 209 149 C 167 203 135 265 114 336 C 92 406 82 480 82 557 C 82 626 88 694 101 760 C 114 826 133 889 159 948 C 185 1006 217 1060 255 1109 C 293 1158 338 1200 389 1236 C 440 1271 497 1298 561 1318 C 624 1338 694 1348 770 1348 C 821 1348 870 1342 916 1330 C 962 1318 1007 1302 1051 1282 L 1081 1348 L 1130 1348 L 1073 985 Z" unicode="C" />
<glyph horiz-adv-x="1249" d="M 1212 741 C 1212 632 1195 532 1162 442 C 1128 351 1081 273 1020 207 C 959 141 885 90 799 54 C 713 18 616 0 510 0 L 25 0 L 31 45 L 190 61 L 324 1257 L 164 1274 L 170 1319 L 662 1319 C 742 1319 816 1307 884 1284 C 951 1260 1009 1225 1058 1177 C 1106 1129 1144 1069 1171 997 C 1198 925 1212 839 1212 741 Z M 1044 774 C 1044 934 1007 1056 935 1140 C 862 1224 756 1266 618 1266 C 593 1266 568 1265 542 1264 C 516 1262 492 1260 471 1257 L 338 66 C 348 64 360 61 374 59 C 388 57 403 55 419 54 C 434 52 449 51 465 50 C 481 49 495 49 508 49 C 572 49 629 58 681 78 C 733 97 778 124 818 158 C 858 192 892 232 920 278 C 948 324 972 373 990 427 C 1008 481 1022 537 1031 596 C 1039 655 1044 714 1044 774 Z" unicode="D" />
<glyph horiz-adv-x="1061" d="M 991 1040 L 934 1040 L 932 1253 L 471 1253 L 412 719 L 743 719 L 778 860 L 831 860 L 793 512 L 739 512 L 735 653 L 403 653 L 338 66 L 821 66 L 874 299 L 936 299 L 903 0 L 25 0 L 31 45 L 190 61 L 324 1257 L 164 1274 L 170 1319 L 1024 1319 L 991 1040 Z" unicode="E" />
<glyph horiz-adv-x="1004" d="M 991 1040 L 934 1040 L 932 1253 L 471 1253 L 410 698 L 741 698 L 776 840 L 829 840 L 791 492 L 737 492 L 733 633 L 401 633 L 338 61 L 543 45 L 537 0 L 25 0 L 31 45 L 190 61 L 324 1257 L 164 1274 L 170 1319 L 1024 1319 L 991 1040 Z" unicode="F" />
<glyph horiz-adv-x="1204" d="M 1098 985 L 1049 985 L 1040 1167 C 1018 1189 996 1207 974 1222 C 952 1236 929 1248 905 1257 C 881 1266 855 1272 829 1276 C 802 1280 773 1282 743 1282 C 687 1282 636 1271 590 1251 C 544 1230 502 1202 466 1167 C 430 1131 398 1090 371 1043 C 343 995 321 945 303 893 C 285 841 272 787 263 732 C 254 677 250 624 250 573 C 250 500 257 432 272 368 C 286 304 309 248 340 200 C 371 152 411 114 460 86 C 509 58 568 45 637 45 C 658 45 680 46 702 50 C 724 53 746 58 767 64 C 788 70 808 79 828 89 C 847 99 865 111 881 125 L 918 457 L 713 473 L 719 518 L 1157 518 L 1151 481 L 1067 457 L 1028 104 C 965 60 898 27 828 5 C 758 -17 680 -29 596 -29 C 511 -29 437 -13 373 18 C 309 50 255 93 212 147 C 169 201 137 264 115 336 C 93 408 82 485 82 567 C 82 636 88 703 102 769 C 115 835 135 897 161 955 C 187 1013 220 1066 260 1114 C 299 1162 345 1203 397 1238 C 449 1272 507 1299 571 1319 C 635 1338 705 1348 782 1348 C 836 1348 887 1342 935 1330 C 983 1318 1029 1302 1075 1282 L 1106 1348 L 1155 1348 L 1098 985 Z" unicode="G" />
<glyph horiz-adv-x="1352" d="M 1364 1274 L 1204 1257 L 1071 61 L 1231 45 L 1225 0 L 758 0 L 764 45 L 924 61 L 989 653 L 403 653 L 338 61 L 498 45 L 492 0 L 25 0 L 31 45 L 190 61 L 324 1257 L 164 1274 L 170 1319 L 637 1319 L 631 1274 L 471 1257 L 412 719 L 997 719 L 1057 1257 L 897 1274 L 903 1319 L 1370 1319 L 1364 1274 Z" unicode="H" />
<glyph horiz-adv-x="631" d="M 635 1274 L 475 1257 L 342 61 L 502 45 L 496 0 L 29 0 L 35 45 L 195 61 L 328 1257 L 168 1274 L 174 1319 L 641 1319 L 635 1274 Z" unicode="I" />
<glyph horiz-adv-x="598" d="M 631 1274 L 471 1257 L 350 168 C 342 102 330 44 312 -7 C 294 -58 270 -101 238 -137 C 206 -172 168 -199 122 -218 C 76 -236 21 -246 -41 -246 L -47 -193 C -2 -193 34 -185 64 -170 C 93 -155 117 -134 135 -107 C 153 -79 166 -47 175 -9 C 184 29 191 71 197 117 L 324 1257 L 164 1274 L 170 1319 L 637 1319 L 631 1274 Z" unicode="J" />
<glyph horiz-adv-x="1171" d="M 1223 1274 L 1087 1257 L 561 702 L 999 66 L 1112 45 L 1106 0 L 866 0 L 453 623 L 399 623 L 338 61 L 498 45 L 492 0 L 25 0 L 31 45 L 190 61 L 324 1257 L 164 1274 L 170 1319 L 637 1319 L 631 1274 L 471 1257 L 403 659 L 420 659 L 987 1257 L 860 1274 L 866 1319 L 1229 1319 L 1223 1274 Z" unicode="K" />
<glyph horiz-adv-x="979" d="M 885 0 L 25 0 L 31 45 L 190 61 L 324 1257 L 164 1274 L 170 1319 L 637 1319 L 631 1274 L 471 1257 L 338 66 L 805 66 L 860 311 L 920 311 L 885 0 Z" unicode="L" />
<glyph horiz-adv-x="1618" d="M 1595 1274 L 1436 1257 L 1370 61 L 1528 45 L 1520 0 L 1057 0 L 1063 45 L 1223 61 L 1282 1135 L 725 0 L 709 0 L 401 1110 L 231 70 L 389 45 L 383 0 L -16 0 L -10 45 L 152 70 L 346 1253 L 186 1274 L 193 1319 L 494 1319 L 782 276 L 1292 1319 L 1602 1319 L 1595 1274 Z" unicode="M" />
<glyph horiz-adv-x="1294" d="M 1341 1274 L 1182 1245 L 1042 -12 L 1010 -12 L 367 1085 L 254 74 L 414 45 L 408 0 L 10 0 L 16 45 L 176 74 L 301 1194 L 266 1253 L 152 1274 L 158 1319 L 397 1319 L 999 287 L 1104 1245 L 944 1274 L 950 1319 L 1348 1319 L 1341 1274 Z" unicode="N" />
<glyph horiz-adv-x="1257" d="M 1217 735 C 1217 668 1210 603 1197 539 C 1183 475 1164 415 1138 359 C 1112 302 1081 250 1044 202 C 1006 154 964 113 916 79 C 868 45 816 18 758 0 C 700 -19 639 -29 573 -29 C 490 -29 418 -11 356 23 C 294 57 243 103 203 160 C 162 217 132 282 112 356 C 92 430 82 506 82 584 C 82 650 88 715 102 779 C 115 843 134 903 160 960 C 186 1016 217 1068 254 1116 C 291 1164 333 1205 381 1239 C 429 1273 481 1300 539 1319 C 597 1338 659 1348 725 1348 C 807 1348 879 1330 941 1296 C 1003 1261 1054 1215 1095 1158 C 1136 1101 1167 1036 1187 962 C 1207 888 1217 813 1217 735 Z M 1051 758 C 1051 823 1045 887 1033 950 C 1021 1013 1003 1069 977 1118 C 951 1167 916 1207 874 1237 C 831 1267 779 1282 717 1282 C 662 1282 612 1271 568 1249 C 524 1227 484 1197 450 1160 C 415 1122 385 1079 359 1030 C 333 981 312 930 296 877 C 280 823 268 769 260 715 C 252 661 248 609 248 561 C 248 495 253 431 265 368 C 277 305 296 249 322 200 C 348 151 382 112 425 82 C 467 52 520 37 582 37 C 636 37 686 48 730 70 C 774 92 814 121 849 159 C 883 196 913 239 939 288 C 964 337 985 388 1002 442 C 1018 495 1031 549 1039 603 C 1047 657 1051 709 1051 758 Z" unicode="O" />
<glyph horiz-adv-x="995" d="M 1012 1004 C 1012 930 997 864 968 806 C 939 748 900 700 851 660 C 801 620 744 590 680 570 C 615 549 547 539 475 539 C 469 539 463 539 456 539 C 448 539 441 540 433 540 C 425 540 417 541 410 541 C 402 541 396 542 391 543 L 338 61 L 518 45 L 512 0 L 25 0 L 31 45 L 190 61 L 324 1257 L 164 1274 L 170 1319 L 647 1319 C 695 1319 742 1312 786 1298 C 830 1284 868 1263 902 1236 C 936 1209 962 1176 982 1137 C 1002 1098 1012 1054 1012 1004 Z M 848 993 C 848 1033 841 1070 829 1104 C 816 1137 798 1165 776 1189 C 753 1212 726 1230 694 1243 C 662 1255 626 1262 588 1262 C 569 1262 550 1261 530 1260 C 510 1258 490 1256 471 1253 L 397 600 C 410 598 423 597 437 597 C 450 596 463 596 477 596 C 538 596 592 605 638 623 C 684 641 723 667 754 701 C 785 735 808 776 824 825 C 840 874 848 930 848 993 Z" unicode="P" />
<glyph horiz-adv-x="1257" d="M 1217 735 C 1217 641 1204 551 1178 465 C 1152 379 1115 301 1067 233 C 1019 165 960 108 891 62 C 821 16 743 -11 655 -23 C 719 -74 786 -118 857 -154 C 927 -190 1003 -215 1083 -231 L 1204 -139 L 1229 -166 L 1053 -381 C 1004 -363 957 -342 912 -316 C 866 -290 823 -262 781 -231 C 739 -200 698 -167 660 -133 C 621 -98 584 -63 549 -27 C 471 -24 402 -5 344 29 C 286 64 237 110 198 167 C 159 223 130 288 111 360 C 91 432 82 506 82 584 C 82 650 88 715 102 779 C 115 843 134 903 160 960 C 186 1016 217 1068 254 1116 C 291 1164 333 1205 381 1239 C 429 1273 481 1300 539 1319 C 597 1338 659 1348 725 1348 C 807 1348 879 1330 941 1296 C 1003 1261 1054 1215 1095 1158 C 1136 1101 1167 1036 1187 962 C 1207 888 1217 813 1217 735 Z M 1051 758 C 1051 823 1045 887 1033 950 C 1021 1013 1003 1069 977 1118 C 951 1167 916 1207 874 1237 C 831 1267 779 1282 717 1282 C 662 1282 612 1271 568 1249 C 524 1227 484 1197 450 1160 C 415 1122 385 1079 359 1030 C 333 981 312 930 296 877 C 280 823 268 769 260 715 C 252 661 248 609 248 561 C 248 495 253 431 265 368 C 277 305 296 249 322 200 C 348 151 382 112 425 82 C 467 52 520 37 582 37 C 636 37 686 48 730 70 C 774 92 814 121 849 159 C 883 196 913 239 939 288 C 964 337 985 388 1002 442 C 1018 495 1031 549 1039 603 C 1047 657 1051 709 1051 758 Z" unicode="Q" />
<glyph horiz-adv-x="1139" d="M 1114 0 L 879 0 L 528 580 L 393 567 L 338 61 L 498 45 L 492 0 L 25 0 L 31 45 L 190 61 L 324 1257 L 164 1274 L 170 1319 L 647 1319 C 695 1319 741 1312 784 1300 C 826 1287 863 1268 895 1243 C 926 1217 951 1186 969 1148 C 987 1110 997 1066 997 1016 C 997 975 991 937 981 903 C 971 869 957 837 940 809 C 923 780 903 754 881 732 C 858 710 834 690 810 673 C 786 656 761 642 737 631 C 712 620 689 612 668 606 L 1012 66 L 1120 45 L 1114 0 Z M 834 1001 C 834 1041 828 1077 816 1109 C 804 1141 787 1169 766 1191 C 744 1213 718 1231 688 1243 C 658 1255 624 1262 588 1262 C 568 1262 549 1261 529 1260 C 509 1258 490 1256 471 1253 L 401 637 L 492 637 C 546 637 594 646 637 664 C 679 682 715 707 744 739 C 773 771 795 809 811 854 C 826 898 834 947 834 1001 Z" unicode="R" />
<glyph horiz-adv-x="930" d="M 840 985 L 791 985 L 782 1180 C 756 1214 724 1241 684 1260 C 644 1278 602 1288 557 1288 C 515 1288 479 1281 449 1267 C 419 1253 393 1235 373 1213 C 353 1191 338 1166 328 1138 C 318 1110 313 1081 313 1053 C 313 1019 317 989 325 965 C 333 940 346 916 365 894 C 383 871 408 848 439 825 C 469 801 507 774 553 743 C 594 714 631 687 665 661 C 699 635 728 607 752 577 C 776 547 794 515 807 480 C 820 444 827 403 827 356 C 827 296 816 243 795 196 C 774 148 745 108 708 75 C 671 41 627 16 577 -2 C 526 -20 471 -29 412 -29 C 364 -29 316 -23 269 -11 C 222 1 180 18 143 41 L 113 -29 L 61 -29 L 96 381 L 147 385 L 166 150 C 178 130 194 113 214 99 C 234 84 255 72 278 62 C 301 52 325 45 349 40 C 373 35 397 33 420 33 C 462 33 500 39 534 52 C 567 65 595 83 618 107 C 641 131 658 159 670 193 C 682 226 688 263 688 305 C 688 339 683 369 674 395 C 665 421 651 445 632 469 C 613 493 589 516 559 540 C 529 563 494 589 453 618 C 409 648 371 676 337 702 C 303 728 274 756 251 785 C 227 814 209 846 197 880 C 184 914 178 953 178 999 C 178 1048 188 1094 208 1136 C 228 1178 256 1215 291 1247 C 325 1278 366 1303 413 1321 C 459 1339 509 1348 561 1348 C 604 1348 647 1342 690 1330 C 733 1318 773 1301 811 1280 L 842 1348 L 891 1348 L 840 985 Z" unicode="S" />
<glyph horiz-adv-x="1073" d="M 1098 999 L 1040 999 L 1038 1253 L 698 1253 L 565 61 L 745 45 L 739 0 L 231 0 L 238 45 L 418 61 L 551 1253 L 215 1253 L 147 999 L 90 999 L 127 1319 L 1135 1319 L 1098 999 Z" unicode="T" />
<glyph horiz-adv-x="1229" d="M 1300 1274 L 1141 1249 L 1057 477 C 1049 400 1032 330 1008 268 C 983 206 950 153 910 109 C 869 65 820 31 763 7 C 706 -17 641 -29 567 -29 C 503 -29 448 -19 401 0 C 353 18 314 44 282 78 C 250 112 226 152 210 199 C 194 245 186 296 186 352 C 186 382 186 406 187 424 C 188 442 190 460 193 477 L 279 1257 L 119 1274 L 125 1319 L 592 1319 L 586 1274 L 426 1257 L 342 506 C 338 481 336 457 335 435 C 334 413 334 391 334 371 C 334 325 338 282 347 244 C 355 205 370 172 391 144 C 412 116 441 95 477 80 C 513 64 558 57 612 57 C 667 57 716 67 759 88 C 801 109 838 139 868 177 C 898 215 922 261 940 315 C 958 368 971 427 979 492 L 1061 1249 L 901 1274 L 907 1319 L 1307 1319 L 1300 1274 Z" unicode="U" />
<glyph horiz-adv-x="1151" d="M 1231 1274 L 1122 1257 L 530 -25 L 506 -25 L 195 1257 L 96 1274 L 102 1319 L 524 1319 L 518 1274 L 346 1257 L 584 244 L 1042 1257 L 874 1274 L 881 1319 L 1237 1319 L 1231 1274 Z" unicode="V" />
<glyph horiz-adv-x="1735" d="M 1815 1274 L 1706 1257 L 1135 -25 L 1110 -25 L 909 872 L 510 -25 L 485 -25 L 195 1257 L 96 1274 L 102 1319 L 524 1319 L 518 1274 L 346 1257 L 565 258 L 883 983 L 819 1257 L 721 1274 L 727 1319 L 1149 1319 L 1143 1274 L 971 1257 L 1190 258 L 1626 1257 L 1458 1274 L 1464 1319 L 1821 1319 L 1815 1274 Z" unicode="W" />
<glyph horiz-adv-x="1200" d="M 1237 1274 L 1077 1257 L 688 707 L 1026 61 L 1145 45 L 1139 0 L 682 0 L 688 45 L 860 61 L 584 594 L 205 61 L 377 45 L 371 0 L -45 0 L -39 45 L 121 61 L 547 664 L 238 1257 L 119 1274 L 125 1319 L 582 1319 L 575 1274 L 403 1257 L 651 774 L 993 1257 L 821 1274 L 827 1319 L 1243 1319 L 1237 1274 Z" unicode="X" />
<glyph horiz-adv-x="1085" d="M 1165 1274 L 1059 1257 L 627 557 L 571 61 L 731 45 L 725 0 L 258 0 L 264 45 L 424 61 L 477 545 L 195 1257 L 96 1274 L 102 1319 L 530 1319 L 524 1274 L 352 1257 L 600 629 L 975 1257 L 807 1274 L 813 1319 L 1171 1319 L 1165 1274 Z" unicode="Y" />
<glyph horiz-adv-x="1040" d="M 1042 1286 L 193 70 L 846 70 L 907 332 L 967 332 L 930 0 L 4 0 L -6 33 L 848 1253 L 246 1253 L 188 999 L 129 999 L 164 1319 L 1047 1319 L 1042 1286 Z" unicode="Z" />
<glyph horiz-adv-x="748" d="M 752 1397 L 502 1380 L 307 -377 L 557 -393 L 553 -430 L 186 -430 L 393 1434 L 756 1434 L 752 1397 Z" unicode="[" />
<glyph horiz-adv-x="606" d="M 475 -102 L 104 1348 L 188 1348 L 559 -102 L 475 -102 Z" unicode="\" />
<glyph horiz-adv-x="748" d="M 360 -430 L -2 -430 L 2 -393 L 252 -377 L 446 1380 L 197 1397 L 201 1434 L 567 1434 L 360 -430 Z" unicode="]" />
<glyph horiz-adv-x="614" d="M 102 555 L 102 645 L 512 694 L 512 604 L 102 555 Z" unicode="^" />
<glyph horiz-adv-x="1024" d="M 0 -250 L 0 -164 L 1024 -164 L 1024 -250 L 0 -250 Z" unicode="_" />
<glyph horiz-adv-x="1024" d="M 580 958 L 322 1284 L 424 1366 L 608 981 L 580 958 Z" unicode="`" />
<glyph horiz-adv-x="889" d="M 858 92 C 836 60 809 34 777 14 C 745 -6 709 -16 670 -16 C 653 -16 633 -14 611 -10 C 589 -6 571 -2 559 4 C 560 37 562 70 564 102 C 566 134 569 167 573 201 L 571 201 C 542 129 503 74 454 34 C 405 -5 351 -25 291 -25 C 251 -25 216 -16 186 1 C 156 19 132 42 112 72 C 92 102 77 136 67 175 C 57 214 53 255 53 299 C 53 373 63 445 83 515 C 103 585 131 647 168 702 C 205 757 250 801 303 835 C 356 868 416 885 483 885 C 510 885 537 878 565 864 C 593 850 618 830 641 805 L 649 856 L 774 874 L 782 874 L 715 336 C 713 320 710 304 708 286 C 706 268 704 249 702 231 C 700 212 699 194 698 176 C 696 158 696 142 696 127 C 696 110 696 95 696 81 C 696 67 696 55 698 45 C 710 43 723 45 736 49 C 749 53 762 58 774 65 C 786 72 797 80 807 90 C 817 100 826 110 834 121 L 858 92 Z M 633 750 C 612 776 589 796 565 808 C 541 820 516 827 492 827 C 444 827 402 812 366 782 C 330 752 299 711 275 660 C 251 609 232 550 220 483 C 207 415 201 344 201 270 C 201 245 202 219 206 193 C 210 167 217 143 227 121 C 237 99 250 80 268 66 C 285 52 308 45 336 45 C 368 45 399 56 427 78 C 455 100 481 131 504 171 C 526 211 546 258 562 314 C 578 370 591 431 600 498 L 633 750 Z" unicode="a" />
<glyph horiz-adv-x="879" d="M 827 553 C 827 480 817 409 799 340 C 780 270 753 209 717 155 C 681 101 636 57 583 24 C 530 -8 469 -25 401 -25 C 376 -25 350 -22 322 -18 C 294 -14 266 -8 238 0 C 210 8 184 17 158 29 C 132 40 108 52 88 66 L 227 1188 C 228 1202 229 1216 231 1232 C 232 1248 233 1263 234 1279 C 234 1294 235 1309 235 1323 C 235 1337 236 1350 236 1360 L 104 1360 L 102 1401 L 385 1442 L 393 1438 L 295 664 L 297 664 C 311 698 327 728 347 755 C 367 782 389 805 414 825 C 438 844 465 859 493 869 C 521 879 551 885 582 885 C 624 885 660 876 691 858 C 721 840 747 816 767 786 C 787 756 802 720 812 680 C 822 640 827 597 827 553 Z M 680 582 C 680 608 678 635 674 663 C 670 690 664 715 654 738 C 644 760 630 779 612 793 C 594 807 572 815 545 815 C 507 815 472 803 441 779 C 409 755 382 722 358 680 C 334 638 314 590 298 535 C 282 480 270 422 262 360 L 227 90 C 250 69 276 54 305 45 C 333 35 362 31 391 31 C 428 31 461 39 490 55 C 518 71 543 92 565 120 C 586 147 604 179 619 215 C 633 251 645 290 654 331 C 663 372 670 414 674 457 C 678 499 680 541 680 582 Z" unicode="b" />
<glyph horiz-adv-x="741" d="M 709 745 C 709 712 700 687 682 669 C 664 651 639 643 606 643 L 532 827 C 518 835 499 840 475 840 C 445 840 418 833 394 819 C 369 805 346 787 326 763 C 306 739 288 711 272 679 C 256 647 243 612 233 575 C 222 537 214 498 209 458 C 203 417 201 376 201 336 C 201 295 204 257 212 221 C 219 185 231 154 247 128 C 263 101 283 80 309 64 C 335 48 366 41 403 41 C 451 41 497 57 540 89 C 582 121 618 166 647 223 L 686 188 C 668 155 648 125 626 99 C 604 73 580 50 554 32 C 527 14 498 0 466 -10 C 434 -20 400 -25 362 -25 C 310 -25 264 -14 225 5 C 186 25 153 53 127 87 C 101 121 81 160 68 205 C 55 249 49 296 49 346 C 49 416 58 484 78 549 C 97 614 125 671 163 721 C 200 771 246 810 301 840 C 356 870 420 885 492 885 C 519 885 546 882 572 876 C 598 870 621 862 641 850 C 661 838 678 824 690 807 C 702 789 709 769 709 745 Z" unicode="c" />
<glyph horiz-adv-x="915" d="M 881 92 C 859 60 832 34 799 14 C 765 -6 729 -16 690 -16 C 682 -16 672 -15 662 -14 C 652 -13 641 -12 631 -10 C 621 -8 611 -6 602 -4 C 593 -2 586 0 580 4 C 581 37 583 70 585 102 C 587 134 590 167 594 201 L 592 201 C 560 128 518 72 468 33 C 418 -5 363 -25 303 -25 C 261 -25 225 -16 194 1 C 163 19 137 42 116 72 C 95 102 79 136 69 175 C 58 214 53 255 53 299 C 53 347 57 395 65 443 C 73 491 86 536 102 580 C 118 623 138 663 162 701 C 186 738 213 770 245 798 C 276 825 311 846 350 862 C 389 877 432 885 479 885 C 493 885 509 883 525 879 C 541 875 556 870 572 863 C 588 856 603 847 617 837 C 631 827 645 815 657 801 L 705 1188 C 706 1202 707 1216 708 1232 C 709 1248 710 1263 711 1279 C 711 1294 712 1309 712 1323 C 712 1337 713 1350 713 1360 L 575 1360 L 573 1401 L 862 1442 L 870 1438 L 735 336 C 733 320 731 304 729 286 C 727 268 725 249 723 231 C 721 212 719 194 718 176 C 717 158 717 142 717 127 C 717 110 717 95 717 81 C 717 67 717 55 719 45 C 731 43 743 45 757 49 C 770 53 783 58 795 65 C 807 72 818 80 829 90 C 839 100 848 110 856 121 L 881 92 Z M 649 737 C 641 750 630 762 618 773 C 606 784 592 794 578 802 C 563 810 548 816 532 820 C 516 824 501 827 487 827 C 450 827 417 818 389 802 C 360 786 335 763 314 735 C 293 707 275 674 261 637 C 246 600 234 561 226 520 C 217 478 211 436 207 393 C 203 350 201 309 201 270 C 201 245 203 219 207 193 C 211 167 218 143 229 121 C 239 99 254 80 273 66 C 291 52 315 45 344 45 C 380 45 413 56 443 78 C 473 100 499 130 523 170 C 546 210 566 257 582 312 C 598 366 610 426 618 492 L 649 737 Z" unicode="d" />
<glyph horiz-adv-x="766" d="M 723 717 C 723 681 715 648 700 619 C 684 589 663 563 637 540 C 611 516 580 496 546 478 C 511 460 474 445 436 431 C 397 417 358 405 318 395 C 278 385 239 376 203 369 C 202 367 201 362 201 355 C 201 348 201 341 201 333 C 201 325 201 318 201 312 C 201 305 201 301 201 299 C 201 265 205 232 214 201 C 222 170 235 143 252 119 C 269 95 290 76 316 62 C 341 48 370 41 403 41 C 455 41 502 57 545 89 C 588 121 624 166 653 223 L 692 188 C 656 122 612 70 558 32 C 504 -5 438 -25 360 -25 C 310 -25 265 -15 227 4 C 188 24 155 50 129 84 C 103 117 83 156 69 200 C 55 244 49 290 49 340 C 49 410 58 478 78 544 C 97 610 126 668 164 718 C 202 768 249 809 305 839 C 361 869 425 885 498 885 C 528 885 557 881 585 873 C 612 865 636 854 656 840 C 676 826 693 808 705 788 C 717 767 723 743 723 717 Z M 584 713 C 584 752 575 783 558 806 C 541 828 514 840 477 840 C 433 840 396 827 365 801 C 333 775 307 741 285 701 C 263 660 245 615 233 565 C 220 515 211 466 207 418 C 258 428 306 441 352 455 C 398 469 438 487 472 509 C 506 531 534 558 554 591 C 574 624 584 665 584 713 Z" unicode="e" />
<glyph horiz-adv-x="504" d="M 682 1389 C 682 1363 675 1344 663 1331 C 651 1317 635 1306 616 1298 L 481 1397 C 450 1386 425 1360 405 1318 C 385 1276 372 1219 365 1147 L 334 844 L 530 844 L 524 791 L 328 791 L 264 188 C 258 138 251 85 242 31 C 233 -22 222 -76 209 -129 C 195 -182 180 -232 163 -280 C 146 -328 127 -370 107 -406 C 86 -442 63 -470 39 -492 C 15 -513 -11 -524 -39 -524 C -63 -524 -83 -517 -99 -504 C -115 -490 -123 -471 -123 -446 C -123 -440 -121 -431 -119 -419 C -117 -407 -114 -398 -111 -393 L 49 -393 C 55 -383 59 -372 63 -361 C 67 -350 70 -336 74 -318 C 77 -300 80 -279 83 -253 C 86 -227 90 -194 94 -154 L 193 791 L 53 791 L 55 817 L 199 856 L 217 1036 C 224 1108 240 1171 265 1226 C 289 1280 318 1326 352 1363 C 385 1400 421 1428 459 1447 C 497 1465 533 1475 567 1475 C 608 1475 637 1466 655 1450 C 673 1434 682 1413 682 1389 Z" unicode="f" />
<glyph horiz-adv-x="807" d="M 834 850 C 834 832 832 818 830 806 C 828 794 825 782 821 772 L 627 793 L 625 788 C 638 776 649 761 657 745 C 665 728 672 711 677 693 C 682 675 685 657 687 639 C 689 621 690 604 690 588 C 690 540 682 497 668 458 C 653 418 632 383 605 353 C 578 322 546 296 508 275 C 470 254 429 239 383 229 C 324 215 279 197 248 175 C 216 152 201 129 201 106 C 201 93 203 83 209 76 L 555 -33 C 606 -49 647 -76 677 -112 C 707 -148 723 -196 723 -254 C 723 -297 709 -337 683 -374 C 656 -411 622 -443 580 -470 C 538 -497 491 -518 439 -534 C 387 -549 337 -557 287 -557 C 235 -557 187 -551 143 -539 C 98 -527 59 -510 26 -487 C -7 -463 -33 -434 -53 -400 C -72 -365 -82 -325 -82 -279 C -82 -249 -75 -221 -63 -197 C -50 -173 -33 -151 -13 -132 C 7 -112 31 -95 58 -81 C 84 -66 112 -53 141 -41 C 116 -17 104 13 104 53 C 104 88 118 122 146 154 C 174 186 214 213 266 233 L 266 236 C 197 257 146 292 114 341 C 82 389 66 450 66 522 C 66 572 75 619 94 663 C 112 707 137 746 169 779 C 201 811 238 837 280 856 C 322 875 366 885 414 885 C 452 885 485 880 512 872 C 538 864 564 850 590 831 L 831 881 C 832 875 833 870 833 864 C 833 858 834 854 834 850 Z M 551 629 C 551 661 548 689 542 715 C 536 741 528 763 516 782 C 504 800 490 815 473 825 C 455 835 435 840 412 840 C 378 840 348 830 322 810 C 296 790 275 763 257 730 C 239 696 226 658 218 615 C 209 571 205 527 205 481 C 205 449 207 420 213 394 C 219 368 227 346 239 328 C 250 309 264 295 282 285 C 300 275 320 270 344 270 C 378 270 407 280 433 300 C 459 320 480 346 498 380 C 515 413 528 451 537 495 C 546 538 551 583 551 629 Z M 602 -291 C 602 -253 592 -224 572 -202 C 552 -180 524 -164 489 -154 L 176 -57 C 134 -79 101 -109 75 -146 C 49 -182 37 -229 37 -287 C 37 -314 42 -341 53 -368 C 63 -395 79 -419 101 -441 C 123 -462 150 -479 182 -492 C 214 -505 251 -512 295 -512 C 331 -512 367 -506 403 -496 C 439 -485 472 -470 502 -450 C 531 -430 555 -407 574 -380 C 592 -353 602 -323 602 -291 Z" unicode="g" />
<glyph horiz-adv-x="928" d="M 897 92 C 875 60 848 34 816 14 C 783 -6 747 -16 709 -16 C 683 -16 659 -13 636 -8 C 613 -2 594 6 578 20 L 676 770 C 658 797 631 811 594 811 C 558 811 522 798 486 773 C 450 747 416 710 386 662 C 356 614 329 555 306 486 C 283 416 266 338 256 250 L 225 0 L 90 0 L 236 1188 C 237 1202 238 1216 239 1232 C 240 1248 241 1263 242 1279 C 242 1294 243 1309 243 1323 C 243 1337 244 1350 244 1360 L 113 1360 L 111 1401 L 393 1442 L 401 1438 L 293 582 L 295 582 C 333 676 379 750 435 804 C 491 858 553 885 621 885 C 640 885 660 882 681 876 C 702 870 721 860 739 846 C 756 832 770 814 782 792 C 793 770 799 742 799 709 C 799 701 798 691 798 680 C 797 669 796 658 795 646 C 793 634 792 622 791 610 C 789 598 788 588 786 578 L 717 49 C 741 41 768 43 797 57 C 826 70 851 91 872 121 L 897 92 Z" unicode="h" />
<glyph horiz-adv-x="467" d="M 430 92 C 408 60 381 34 349 14 C 316 -6 280 -16 242 -16 C 217 -16 193 -13 170 -8 C 146 -2 127 6 111 20 L 184 618 C 185 632 186 647 188 663 C 189 679 190 694 191 710 C 191 725 192 740 192 754 C 192 768 193 781 193 791 L 63 791 L 61 831 L 348 877 L 354 872 L 250 49 C 274 41 301 43 331 57 C 360 70 385 91 406 121 L 430 92 Z M 401 1192 C 401 1179 398 1167 394 1156 C 389 1144 382 1134 374 1126 C 366 1118 356 1111 345 1107 C 333 1102 321 1100 309 1100 C 296 1100 284 1102 273 1107 C 261 1111 251 1118 243 1126 C 235 1134 228 1144 224 1156 C 219 1167 217 1179 217 1192 C 217 1204 219 1216 224 1228 C 228 1239 235 1249 243 1257 C 251 1265 261 1272 273 1277 C 284 1281 296 1284 309 1284 C 321 1284 333 1281 345 1277 C 356 1272 366 1265 374 1257 C 382 1249 389 1239 394 1228 C 398 1216 401 1204 401 1192 Z" unicode="i" />
<glyph horiz-adv-x="438" d="M 244 -20 C 234 -93 223 -157 210 -213 C 197 -268 179 -316 156 -358 C 132 -400 102 -436 65 -466 C 28 -496 -18 -522 -76 -545 L -96 -498 C -71 -488 -49 -476 -29 -462 C -9 -448 7 -430 22 -410 C 36 -389 48 -365 58 -337 C 68 -309 75 -278 80 -242 L 186 618 C 188 632 189 647 190 663 C 191 679 192 694 193 710 C 193 725 194 740 194 754 C 194 768 195 781 195 791 L 66 791 L 63 831 L 350 877 L 356 872 L 244 -20 Z M 403 1192 C 403 1179 400 1167 396 1156 C 391 1144 384 1134 376 1126 C 368 1118 358 1111 347 1107 C 335 1102 323 1100 311 1100 C 298 1100 286 1102 275 1107 C 263 1111 253 1118 245 1126 C 237 1134 230 1144 226 1156 C 221 1167 219 1179 219 1192 C 219 1204 221 1216 226 1228 C 230 1239 237 1249 245 1257 C 253 1265 263 1272 275 1277 C 286 1281 298 1284 311 1284 C 323 1284 335 1281 347 1277 C 358 1272 368 1265 376 1257 C 384 1249 391 1239 396 1228 C 400 1216 403 1204 403 1192 Z" unicode="j" />
<glyph horiz-adv-x="901" d="M 899 100 C 873 62 842 31 806 9 C 770 -13 727 -25 678 -25 C 649 -6 618 19 585 52 C 551 84 518 120 486 159 C 454 198 423 239 395 281 C 367 323 344 363 326 401 L 326 406 C 388 409 442 419 489 436 C 535 453 574 475 606 503 C 637 531 660 563 676 601 C 692 638 700 679 700 725 C 700 734 699 743 699 752 C 699 761 698 770 696 778 C 680 802 651 815 610 815 C 570 815 531 802 493 776 C 455 750 421 712 389 664 C 357 616 330 557 307 487 C 283 417 266 338 256 250 L 225 0 L 90 0 L 236 1188 C 237 1202 238 1216 239 1232 C 240 1248 241 1263 242 1279 C 242 1294 243 1309 243 1323 C 243 1337 244 1350 244 1360 L 113 1360 L 111 1401 L 393 1442 L 401 1438 L 293 582 L 295 582 C 333 678 383 753 445 806 C 507 858 577 885 653 885 C 707 885 749 871 779 843 C 808 815 823 777 823 729 C 823 685 813 644 793 607 C 773 570 746 537 713 508 C 679 479 641 455 598 435 C 555 415 511 401 465 391 C 486 359 510 327 536 294 C 562 260 589 229 617 199 C 644 169 671 141 699 117 C 727 92 753 73 778 59 C 785 59 793 61 803 66 C 812 70 821 76 830 83 C 839 90 847 98 855 106 C 863 114 869 121 874 129 L 899 100 Z" unicode="k" />
<glyph horiz-adv-x="446" d="M 412 92 C 390 60 363 34 331 14 C 298 -6 262 -16 223 -16 C 198 -16 174 -13 151 -8 C 128 -2 108 6 92 20 L 236 1188 C 237 1202 238 1216 239 1232 C 240 1248 241 1263 242 1279 C 242 1294 243 1309 243 1323 C 243 1337 244 1350 244 1360 L 113 1360 L 111 1401 L 391 1442 L 399 1438 L 231 49 C 256 41 283 43 312 57 C 341 70 366 91 387 121 L 412 92 Z" unicode="l" />
<glyph horiz-adv-x="1405" d="M 1374 92 C 1352 60 1325 34 1293 14 C 1261 -6 1225 -16 1186 -16 C 1161 -16 1137 -13 1114 -8 C 1090 -2 1071 6 1055 20 L 1153 770 C 1145 783 1135 793 1124 800 C 1113 807 1098 811 1079 811 C 1043 811 1007 798 972 773 C 937 747 905 710 876 662 C 846 614 821 555 799 486 C 777 416 760 338 750 250 L 719 0 L 584 0 L 682 770 C 674 783 664 793 653 800 C 642 807 627 811 608 811 C 572 811 536 798 501 773 C 466 747 434 710 405 662 C 375 614 350 555 328 486 C 306 416 289 338 279 250 L 248 0 L 113 0 L 176 512 C 176 521 177 533 179 548 C 181 563 182 579 184 596 C 186 612 187 628 188 643 C 189 658 190 670 190 680 C 190 698 189 716 188 734 C 187 751 185 770 182 791 L 49 791 L 47 831 L 338 872 C 338 846 337 822 337 800 C 336 778 335 756 333 734 C 331 712 329 689 327 666 C 324 642 321 617 317 590 L 319 590 C 356 684 401 757 454 808 C 506 859 567 885 635 885 C 654 885 673 882 693 876 C 713 870 731 860 747 846 C 763 832 776 814 786 792 C 796 770 801 742 801 709 C 801 692 799 673 797 652 C 794 631 791 610 788 590 L 791 590 C 827 684 871 757 924 808 C 977 859 1038 885 1106 885 C 1125 885 1145 882 1165 876 C 1185 870 1204 860 1220 846 C 1236 832 1250 814 1260 792 C 1270 770 1276 742 1276 709 C 1276 701 1275 691 1275 680 C 1274 669 1273 658 1272 646 C 1271 634 1270 622 1268 610 C 1266 598 1265 588 1264 578 L 1194 49 C 1218 41 1245 43 1275 57 C 1304 70 1329 91 1350 121 L 1374 92 Z" unicode="m" />
<glyph horiz-adv-x="950" d="M 920 92 C 898 60 871 34 839 14 C 806 -6 770 -16 731 -16 C 706 -16 682 -13 659 -8 C 636 -2 616 6 600 20 L 698 770 C 682 797 654 811 616 811 C 580 811 544 798 508 773 C 472 747 439 710 409 662 C 379 614 352 555 329 486 C 306 416 289 338 279 250 L 248 0 L 113 0 L 176 512 C 176 521 177 533 179 548 C 181 563 182 579 184 596 C 186 612 187 628 188 643 C 189 658 190 670 190 680 C 190 698 189 716 188 734 C 187 751 185 770 182 791 L 49 791 L 47 831 L 338 872 C 338 846 337 822 337 800 C 336 778 335 755 333 733 C 331 710 328 686 325 662 C 322 638 319 611 315 582 L 317 582 C 335 628 357 670 381 708 C 405 746 430 778 458 804 C 485 830 514 850 545 864 C 576 878 609 885 643 885 C 662 885 682 882 703 876 C 724 870 743 860 761 846 C 778 832 792 814 804 792 C 815 770 821 742 821 709 C 821 701 820 691 820 680 C 819 669 818 658 817 646 C 816 634 815 622 813 610 C 811 598 810 588 809 578 L 739 49 C 763 41 790 43 820 57 C 849 70 874 91 895 121 L 920 92 Z" unicode="n" />
<glyph horiz-adv-x="836" d="M 786 506 C 786 438 776 373 756 309 C 736 245 708 188 672 139 C 635 89 590 50 537 20 C 484 -10 424 -25 358 -25 C 308 -25 263 -14 225 6 C 187 26 154 54 128 89 C 102 124 82 164 69 210 C 55 256 49 304 49 354 C 49 422 58 487 78 551 C 98 615 126 671 163 721 C 200 770 245 810 298 840 C 350 870 410 885 477 885 C 527 885 571 874 610 854 C 648 833 681 805 707 771 C 733 736 752 696 766 650 C 779 604 786 556 786 506 Z M 635 553 C 635 585 632 617 627 651 C 621 685 612 716 599 744 C 586 772 569 795 548 813 C 527 831 501 840 469 840 C 435 840 405 831 379 815 C 353 798 330 776 310 748 C 290 720 273 687 259 651 C 245 615 234 577 226 538 C 217 498 211 459 207 419 C 203 379 201 341 201 307 C 201 275 203 242 209 208 C 214 174 223 144 236 116 C 249 88 266 65 287 47 C 308 29 335 20 367 20 C 400 20 430 28 456 45 C 482 61 505 84 525 112 C 545 140 562 172 576 208 C 590 244 601 282 610 322 C 618 361 625 401 629 441 C 633 481 635 518 635 553 Z" unicode="o" />
<glyph horiz-adv-x="907" d="M 856 553 C 856 480 846 409 828 340 C 809 270 782 209 746 155 C 710 101 665 57 612 24 C 559 -8 498 -25 430 -25 C 416 -25 401 -23 385 -19 C 369 -15 353 -10 337 -3 C 321 3 306 12 292 22 C 277 32 264 45 252 59 L 178 -524 L 41 -524 L 174 512 C 174 521 175 533 177 548 C 179 563 180 579 182 596 C 184 612 185 628 186 643 C 187 658 188 670 188 680 C 188 698 187 716 186 734 C 185 751 183 770 180 791 L 47 791 L 45 831 L 336 872 L 324 664 L 326 664 C 340 698 357 728 377 755 C 397 782 419 805 444 825 C 468 844 494 859 522 869 C 549 879 577 885 606 885 C 646 885 682 876 714 858 C 745 840 771 816 792 786 C 813 756 829 720 840 680 C 850 640 856 597 856 553 Z M 709 582 C 709 608 706 635 702 663 C 698 690 690 715 680 738 C 670 760 656 779 638 793 C 620 807 597 815 569 815 C 532 815 498 803 468 779 C 437 755 410 722 387 681 C 363 639 343 591 327 536 C 311 481 299 422 291 360 L 260 123 C 268 109 278 97 290 86 C 302 75 315 66 329 58 C 343 50 359 43 375 39 C 391 35 406 33 422 33 C 458 33 491 41 520 57 C 548 73 573 94 595 122 C 616 150 634 182 648 218 C 662 254 674 293 683 334 C 692 374 699 416 703 458 C 707 500 709 542 709 582 Z" unicode="p" />
<glyph horiz-adv-x="868" d="M 664 -270 C 662 -284 660 -298 659 -314 C 657 -330 656 -345 655 -361 C 653 -377 652 -392 652 -406 C 651 -420 651 -432 651 -442 L 784 -442 L 784 -483 L 502 -524 L 494 -520 L 584 182 L 582 182 C 552 117 512 66 463 30 C 414 -6 361 -25 303 -25 C 261 -25 225 -16 194 1 C 163 19 137 42 116 72 C 95 102 79 136 69 175 C 58 214 53 255 53 299 C 53 347 57 395 65 443 C 73 491 86 536 102 580 C 118 623 139 663 163 701 C 187 738 214 770 246 798 C 278 825 313 846 352 862 C 390 877 433 885 479 885 C 505 885 535 878 568 865 C 600 852 632 831 662 801 L 795 885 L 803 881 L 664 -270 Z M 649 737 C 640 751 629 763 617 774 C 605 785 591 795 577 803 C 563 811 548 817 532 821 C 516 825 501 827 487 827 C 450 827 417 818 389 802 C 360 786 335 763 314 735 C 293 707 275 674 261 637 C 246 600 234 561 226 520 C 217 478 211 436 207 393 C 203 350 201 309 201 270 C 201 245 203 219 207 193 C 211 167 218 143 229 121 C 239 99 254 80 273 66 C 291 52 315 45 344 45 C 380 45 413 56 443 78 C 473 100 499 130 523 170 C 546 210 566 257 582 312 C 598 366 610 426 618 492 L 649 737 Z" unicode="q" />
<glyph horiz-adv-x="678" d="M 682 795 C 682 767 674 744 659 726 C 643 707 625 693 604 684 L 510 791 C 482 775 456 751 432 718 C 408 684 386 644 366 597 C 346 549 328 496 313 437 C 298 378 287 316 279 250 L 248 0 L 113 0 L 176 512 C 176 521 177 533 179 548 C 181 563 182 579 184 596 C 186 612 187 628 188 643 C 189 658 190 670 190 680 C 190 698 189 716 188 734 C 187 751 185 770 182 791 L 49 791 L 47 831 L 332 870 C 332 845 331 821 330 798 C 329 774 328 751 326 727 C 324 703 321 678 318 652 C 314 626 311 599 307 571 L 309 571 C 319 603 333 637 349 674 C 365 711 384 745 407 776 C 429 807 455 833 485 854 C 515 874 549 885 588 885 C 618 885 642 876 658 860 C 674 843 682 821 682 795 Z" unicode="r" />
<glyph horiz-adv-x="659" d="M 610 752 C 610 722 601 699 585 683 C 569 667 546 659 518 659 L 449 827 C 443 830 435 833 424 836 C 412 838 401 840 391 840 C 369 840 348 836 330 829 C 311 822 295 812 281 800 C 267 787 257 772 249 754 C 241 736 238 716 238 694 C 238 670 241 649 248 631 C 255 613 265 595 279 579 C 292 562 308 546 327 530 C 346 514 367 497 391 479 C 414 461 436 442 458 424 C 480 405 499 385 516 364 C 532 343 546 320 556 296 C 566 271 571 243 571 213 C 571 177 563 144 547 115 C 531 86 510 61 484 40 C 457 19 426 3 391 -8 C 356 -19 319 -25 281 -25 C 245 -25 213 -21 183 -13 C 153 -5 126 6 104 20 C 82 34 64 50 52 70 C 39 89 33 110 33 133 C 33 161 40 186 54 208 C 68 230 89 242 119 246 C 125 213 134 183 146 156 C 157 129 171 106 187 87 C 203 68 221 53 241 43 C 261 32 284 27 309 27 C 331 27 351 30 369 38 C 387 45 402 55 414 68 C 426 80 435 95 441 113 C 447 130 451 148 451 168 C 451 191 447 212 439 232 C 431 251 421 269 407 287 C 393 305 376 322 357 338 C 338 354 317 371 295 389 C 271 407 248 426 227 444 C 205 462 187 481 171 501 C 155 521 142 542 133 564 C 123 586 119 611 119 639 C 119 675 126 709 142 739 C 157 769 178 795 204 817 C 230 838 260 855 295 867 C 329 879 366 885 406 885 C 428 885 451 882 475 876 C 499 870 521 862 541 851 C 561 840 577 826 590 810 C 603 793 610 774 610 752 Z" unicode="s" />
<glyph horiz-adv-x="532" d="M 537 791 L 326 791 L 268 332 C 266 316 264 297 262 277 C 260 256 258 236 256 216 C 254 196 252 177 251 160 C 250 143 250 130 250 121 C 250 102 251 86 254 73 C 256 59 262 51 270 47 C 283 47 297 50 312 56 C 327 62 342 71 357 83 C 371 95 385 108 399 124 C 413 139 425 156 436 174 L 469 145 C 438 97 401 57 359 26 C 317 -4 268 -20 213 -20 C 182 -20 158 -9 141 12 C 123 34 115 61 115 94 C 115 127 116 161 120 197 C 123 233 127 273 133 317 L 193 791 L 68 791 L 70 819 L 205 877 L 324 1137 L 369 1137 L 332 844 L 543 844 L 537 791 Z" unicode="t" />
<glyph horiz-adv-x="946" d="M 915 92 C 893 60 866 34 834 14 C 802 -6 766 -16 727 -16 C 710 -16 690 -14 668 -10 C 646 -6 628 -2 616 4 C 616 37 617 78 621 127 C 624 176 629 227 635 279 L 633 279 C 615 237 596 198 574 162 C 552 125 527 93 500 65 C 472 37 442 15 410 0 C 377 -16 341 -25 303 -25 C 283 -25 263 -22 242 -16 C 221 -10 202 0 185 13 C 167 27 153 45 142 68 C 130 90 125 118 125 152 C 125 167 125 185 127 207 C 129 228 131 249 135 270 L 168 512 C 168 521 170 533 172 549 C 174 565 176 581 178 598 C 180 614 181 630 183 646 C 185 662 186 674 186 684 C 186 702 185 720 185 736 C 185 752 183 770 180 791 L 49 791 L 47 831 L 330 872 C 330 844 329 818 329 796 C 329 774 328 752 327 731 C 325 709 324 687 322 665 C 320 643 317 618 313 590 L 248 90 C 264 62 291 49 330 49 C 366 49 401 61 437 86 C 473 110 506 146 537 193 C 567 240 594 298 617 367 C 640 435 657 514 668 602 L 698 852 L 836 852 L 772 336 C 770 320 768 304 766 286 C 764 268 762 249 760 231 C 758 212 756 194 755 176 C 754 158 754 142 754 127 C 754 110 754 95 754 81 C 754 67 754 55 756 45 C 768 43 780 45 793 49 C 806 53 819 58 831 65 C 843 72 854 80 864 90 C 874 100 883 110 891 121 L 915 92 Z" unicode="u" />
<glyph horiz-adv-x="795" d="M 748 717 C 748 643 737 568 715 492 C 693 416 662 345 623 277 C 583 209 536 147 480 92 C 424 36 363 -7 297 -41 C 266 -12 242 30 226 88 C 210 146 196 215 186 297 L 123 791 L 18 791 L 14 831 L 254 872 L 319 330 C 323 301 327 273 331 246 C 335 219 339 194 344 172 C 349 150 355 130 361 113 C 367 96 375 83 383 74 C 421 102 456 137 489 178 C 521 218 550 262 575 309 C 599 356 620 405 636 456 C 652 506 662 556 666 606 L 553 823 C 563 839 575 854 591 866 C 606 878 624 885 645 885 C 679 885 705 872 722 847 C 739 821 748 778 748 717 Z" unicode="v" />
<glyph horiz-adv-x="1241" d="M 1194 717 C 1194 641 1183 565 1162 490 C 1141 415 1111 344 1073 277 C 1035 210 988 149 934 94 C 879 39 818 -5 752 -41 C 720 -12 697 30 682 88 C 666 146 653 215 643 297 L 637 346 C 605 260 561 185 505 119 C 449 53 379 0 297 -41 C 266 -12 242 30 226 88 C 210 146 196 215 186 297 L 123 791 L 18 791 L 14 831 L 254 872 L 319 330 C 323 301 327 273 331 246 C 335 219 339 194 344 172 C 349 150 355 130 361 113 C 367 96 375 83 383 74 C 414 96 442 122 467 154 C 492 185 514 219 534 257 C 553 295 569 334 583 376 C 596 418 606 460 614 504 L 569 852 L 709 872 L 774 330 C 777 301 781 273 785 246 C 789 219 793 194 798 172 C 803 150 809 130 816 113 C 822 96 830 83 838 74 C 876 102 910 137 942 178 C 974 218 1001 262 1025 309 C 1049 356 1068 405 1083 456 C 1098 506 1108 556 1112 606 L 999 823 C 1009 839 1022 854 1038 866 C 1053 878 1071 885 1092 885 C 1126 885 1152 872 1169 847 C 1185 821 1194 778 1194 717 Z" unicode="w" />
<glyph horiz-adv-x="868" d="M 877 795 C 877 769 868 748 851 731 C 833 713 814 700 793 692 L 723 788 C 693 780 659 749 622 695 C 584 640 541 562 492 461 L 651 47 C 665 45 679 46 693 49 C 707 52 720 57 733 63 C 746 69 758 77 769 87 C 779 96 789 106 797 117 L 821 88 C 800 57 773 31 739 11 C 705 -9 668 -20 629 -20 C 623 -20 615 -19 605 -18 C 595 -17 584 -16 574 -14 C 563 -12 553 -11 544 -9 C 534 -7 527 -4 522 -2 L 397 338 L 319 172 C 305 140 289 112 271 86 C 253 60 234 37 214 18 C 194 0 172 -15 150 -25 C 128 -35 105 -41 82 -41 C 48 -41 23 -33 6 -18 C -11 -3 -20 16 -20 41 C -20 65 -12 87 4 107 C 20 126 39 140 63 150 L 135 53 C 164 59 197 92 235 151 C 273 209 319 293 373 401 L 223 791 L 72 791 L 70 831 L 340 874 L 467 524 L 543 686 C 561 726 580 759 600 785 C 620 811 640 831 660 846 C 680 860 699 870 719 876 C 739 882 758 885 778 885 C 813 885 838 876 854 858 C 869 840 877 819 877 795 Z" unicode="x" />
<glyph horiz-adv-x="803" d="M 760 717 C 760 670 752 618 737 561 C 722 504 702 445 676 383 C 650 321 619 258 583 194 C 547 130 507 66 465 4 C 423 -57 378 -117 332 -175 C 286 -232 239 -285 191 -333 C 143 -381 96 -423 50 -459 C 3 -495 -41 -522 -84 -541 L -152 -416 C -106 -402 -62 -384 -19 -362 C 24 -340 65 -315 105 -287 C 145 -259 182 -229 217 -197 C 251 -165 283 -131 311 -96 C 298 -21 283 56 267 137 C 250 217 232 297 214 375 C 196 453 177 527 158 599 C 139 670 121 734 104 791 L 2 791 L -2 831 L 227 872 C 238 834 250 793 262 749 C 274 704 287 657 299 609 C 311 561 323 512 335 462 C 347 412 358 362 368 313 C 378 264 388 217 397 171 C 405 125 413 83 420 45 L 424 45 C 450 85 476 129 502 175 C 528 221 552 269 574 319 C 596 368 615 418 633 468 C 650 518 664 566 674 614 L 565 823 C 575 839 588 854 603 866 C 618 878 636 885 657 885 C 691 885 717 872 734 847 C 751 821 760 778 760 717 Z" unicode="y" />
<glyph horiz-adv-x="778" d="M 201 162 C 231 162 259 160 286 158 C 313 155 341 149 371 141 L 647 61 C 656 75 662 90 665 106 C 668 122 670 138 670 156 C 670 168 669 180 667 193 C 665 205 664 217 662 227 L 696 236 C 704 215 710 195 713 175 C 715 155 717 133 717 111 C 717 75 710 41 696 8 C 682 -24 663 -53 639 -78 L 283 25 C 267 29 252 33 238 36 C 224 39 211 42 197 44 C 183 46 169 47 155 48 C 140 48 124 49 106 49 L 70 -18 C 53 -20 39 -18 27 -12 C 15 -5 8 4 4 18 L 580 713 L 170 741 L 115 627 L 78 639 L 150 885 L 668 815 L 721 881 L 764 842 L 201 162 Z" unicode="z" />
<glyph horiz-adv-x="748" d="M 725 1417 C 673 1417 630 1408 598 1392 C 566 1376 541 1352 523 1322 C 505 1292 492 1255 486 1213 C 480 1170 477 1123 477 1071 C 477 1029 477 988 478 948 C 478 907 479 866 479 825 C 479 777 475 735 467 700 C 459 664 447 634 430 609 C 412 584 390 563 362 547 C 334 530 301 516 262 506 L 262 498 C 284 492 304 483 324 472 C 344 461 361 448 376 432 C 390 416 402 397 411 377 C 419 357 424 335 424 311 C 424 274 418 232 408 184 C 398 136 387 86 375 35 C 363 -15 351 -65 341 -115 C 331 -165 326 -210 326 -250 C 326 -278 331 -303 342 -324 C 352 -344 367 -361 385 -375 C 403 -388 423 -398 447 -404 C 470 -410 494 -414 520 -414 L 516 -451 C 476 -451 438 -446 402 -436 C 365 -426 332 -411 304 -391 C 275 -370 252 -344 235 -312 C 217 -280 209 -243 209 -199 C 209 -157 214 -111 224 -61 C 234 -11 246 39 258 89 C 270 139 281 188 291 236 C 301 283 307 325 307 362 C 307 388 301 408 289 424 C 277 440 262 452 244 461 C 226 469 205 475 183 478 C 160 481 138 483 117 483 L 121 520 C 175 520 217 526 248 538 C 279 550 302 568 318 592 C 333 616 342 645 346 681 C 350 716 352 757 352 803 C 352 844 351 885 351 926 C 350 966 350 1007 350 1049 C 350 1115 357 1174 372 1224 C 386 1274 409 1317 440 1351 C 470 1385 509 1410 557 1428 C 605 1445 662 1454 729 1454 L 725 1417 Z" unicode="{" />
<glyph horiz-adv-x="512" d="M 213 -537 L 213 1475 L 299 1475 L 299 -537 L 213 -537 Z" unicode="|" />
<glyph horiz-adv-x="748" d="M 633 483 C 579 483 536 477 505 465 C 474 453 451 435 435 411 C 419 387 410 357 406 322 C 402 287 401 247 401 201 C 401 159 401 118 402 78 C 402 37 403 -3 403 -45 C 403 -111 395 -170 381 -221 C 367 -271 344 -314 314 -348 C 283 -382 244 -407 196 -425 C 148 -442 91 -451 25 -451 L 29 -414 C 81 -414 123 -405 155 -389 C 187 -372 213 -349 231 -319 C 249 -289 261 -252 267 -210 C 273 -167 276 -120 276 -68 C 276 -26 275 14 275 55 C 274 95 274 136 274 178 C 274 226 278 267 286 303 C 294 338 306 368 324 394 C 341 419 363 440 391 457 C 419 473 452 487 492 498 L 492 506 C 470 511 449 519 429 530 C 409 541 392 555 378 571 C 363 587 351 605 343 625 C 334 645 330 668 330 692 C 330 728 335 771 345 819 C 355 867 367 917 379 968 C 391 1019 402 1069 412 1119 C 422 1168 428 1213 428 1253 C 428 1281 422 1306 412 1327 C 401 1347 387 1364 369 1378 C 351 1391 330 1401 307 1407 C 283 1413 259 1417 233 1417 L 238 1454 C 276 1454 314 1449 351 1439 C 388 1429 421 1414 450 1394 C 478 1373 501 1347 519 1315 C 536 1283 545 1246 545 1202 C 545 1160 539 1114 529 1064 C 519 1014 507 963 495 913 C 483 863 471 814 461 767 C 451 719 446 677 446 641 C 446 615 451 595 463 579 C 475 563 490 550 509 542 C 527 533 548 527 571 524 C 593 521 615 520 637 520 L 633 483 Z" unicode="}" />
<glyph horiz-adv-x="1331" d="M 1159 633 C 1143 601 1125 570 1105 540 C 1085 509 1062 481 1037 457 C 1011 432 983 412 953 397 C 922 382 888 375 852 375 C 830 375 807 379 783 388 C 759 396 735 407 711 420 C 686 433 661 447 636 463 C 611 478 587 492 563 505 C 539 518 515 529 493 538 C 471 546 450 551 430 551 C 384 551 343 536 305 507 C 267 477 235 439 207 391 L 172 414 C 188 445 206 476 226 507 C 246 537 269 565 294 590 C 319 614 347 634 378 649 C 408 664 442 672 479 672 C 501 672 523 667 547 659 C 571 650 595 639 620 626 C 644 613 669 599 694 584 C 719 568 744 554 768 541 C 792 528 815 517 837 509 C 859 500 881 496 901 496 C 946 496 987 510 1025 539 C 1063 568 1096 607 1124 655 L 1159 633 Z" unicode="~" />
<glyph horiz-adv-x="389" d="" unicode="" />
<glyph horiz-adv-x="573" d="M 147 -16 L 168 147 L 332 1004 L 385 1004 L 332 147 L 311 -16 L 147 -16 Z M 487 1255 C 487 1227 477 1203 458 1184 C 438 1164 415 1155 387 1155 C 359 1155 335 1164 316 1184 C 296 1203 287 1227 287 1255 C 287 1269 289 1282 295 1294 C 300 1306 307 1317 316 1326 C 325 1335 336 1342 348 1348 C 360 1353 373 1356 387 1356 C 401 1356 414 1353 426 1348 C 438 1342 448 1335 457 1326 C 466 1317 473 1306 479 1294 C 484 1282 487 1269 487 1255 Z" unicode="" />
<glyph horiz-adv-x="881" d="M 506 1087 C 464 1081 427 1062 395 1032 C 363 1001 336 963 314 918 C 292 872 275 822 264 767 C 253 712 248 658 248 604 C 248 565 251 528 257 494 C 263 460 272 429 286 402 C 299 375 316 353 338 335 C 360 317 386 305 418 299 L 506 1087 Z M 766 864 L 721 864 L 713 995 C 696 1022 675 1043 651 1059 C 626 1074 597 1083 563 1087 L 475 295 C 504 295 530 299 554 307 C 578 315 600 325 620 338 C 640 350 658 365 675 383 C 692 401 709 420 725 442 L 756 406 C 738 382 720 360 702 340 C 683 319 662 301 639 285 C 616 269 591 255 563 245 C 535 234 503 227 467 225 L 438 -29 L 381 -29 L 410 225 C 356 228 309 241 270 263 C 231 285 199 313 173 348 C 147 383 128 423 116 469 C 104 514 98 562 98 612 C 98 674 107 736 125 797 C 143 858 169 913 204 962 C 239 1011 282 1051 334 1083 C 385 1114 444 1131 510 1135 L 535 1348 L 592 1348 L 567 1133 C 611 1130 651 1122 689 1109 C 727 1095 761 1077 793 1055 L 766 864 Z" unicode="" />
<glyph horiz-adv-x="967" d="M 905 1233 C 905 1204 899 1181 887 1165 C 875 1149 858 1136 836 1128 L 659 1303 C 627 1303 598 1295 573 1281 C 548 1267 526 1246 508 1219 C 490 1192 475 1160 463 1122 C 451 1084 443 1041 438 993 L 403 680 L 725 680 L 717 614 L 397 614 L 383 492 C 378 452 372 414 365 376 C 357 338 346 302 332 268 C 318 234 299 202 276 172 C 253 142 224 116 190 94 L 193 90 C 219 105 248 119 279 133 C 310 147 341 154 371 154 C 401 154 433 152 467 148 C 501 144 536 138 571 131 C 605 123 639 115 673 105 C 707 95 738 85 768 74 C 785 93 799 116 811 144 C 822 171 830 199 836 227 L 883 219 C 874 162 858 109 834 59 C 810 9 779 -32 739 -66 C 703 -51 663 -37 621 -24 C 579 -11 535 0 491 9 C 446 19 401 26 357 32 C 313 38 271 41 233 41 C 217 41 199 39 179 36 C 159 33 141 29 127 23 L 37 -39 L 2 18 L 90 68 C 112 80 130 93 145 108 C 159 123 171 142 181 165 C 191 188 199 217 205 251 C 211 285 217 329 223 381 L 250 614 L 76 614 L 84 680 L 256 680 L 279 883 C 286 951 300 1014 320 1072 C 340 1130 368 1179 403 1221 C 437 1262 480 1294 530 1317 C 580 1340 638 1352 705 1352 C 727 1352 750 1349 774 1344 C 798 1339 819 1332 839 1322 C 858 1312 874 1299 886 1284 C 898 1269 905 1252 905 1233 Z" unicode="" />
<glyph horiz-adv-x="1151" d="M 1065 989 L 1018 989 L 1014 1202 C 980 1234 942 1256 901 1268 C 860 1280 813 1286 760 1286 C 701 1286 649 1272 604 1245 C 559 1218 520 1182 487 1138 C 454 1094 427 1043 405 985 C 383 927 367 868 356 807 L 952 807 L 928 745 L 346 745 C 340 712 337 679 335 647 C 333 614 332 581 332 549 L 856 549 L 831 487 L 334 487 C 337 431 345 375 358 321 C 371 267 390 218 416 176 C 441 134 473 100 512 74 C 550 48 597 35 653 35 C 696 35 740 41 786 55 C 831 68 871 89 905 119 L 971 311 L 1022 311 L 975 49 C 917 21 860 1 803 -10 C 745 -22 682 -29 612 -29 C 539 -29 476 -14 424 15 C 371 45 327 84 292 133 C 257 181 230 236 211 298 C 192 360 180 423 176 487 L 0 487 L 25 549 L 174 549 C 174 581 175 614 177 647 C 179 679 182 712 188 745 L 29 745 L 53 807 L 201 807 C 217 883 242 953 275 1019 C 307 1085 348 1142 397 1191 C 445 1239 502 1278 567 1306 C 631 1334 704 1348 784 1348 C 816 1348 846 1346 874 1344 C 902 1341 929 1337 955 1331 C 981 1325 1008 1318 1034 1310 C 1060 1302 1086 1292 1114 1280 L 1065 989 Z" unicode="" />
<glyph horiz-adv-x="1122" d="M 1143 1274 L 1040 1257 L 762 797 L 1010 797 L 1001 735 L 725 735 L 627 573 L 623 539 L 981 539 L 973 477 L 616 477 L 569 61 L 729 45 L 723 0 L 260 0 L 266 45 L 426 61 L 473 477 L 121 477 L 129 539 L 479 539 L 483 573 L 420 735 L 150 735 L 158 797 L 395 797 L 217 1257 L 119 1274 L 125 1319 L 545 1319 L 539 1274 L 375 1257 L 602 647 L 956 1257 L 797 1274 L 803 1319 L 1149 1319 L 1143 1274 Z" unicode="" />
<glyph horiz-adv-x="512" d="M 213 670 L 213 1475 L 299 1475 L 299 670 L 213 670 Z M 213 -537 L 213 268 L 299 268 L 299 -537 L 213 -537 Z" unicode="" />
<glyph horiz-adv-x="907" d="M 723 1102 L 711 1262 C 687 1284 661 1300 632 1308 C 603 1316 573 1321 541 1321 C 512 1321 485 1316 460 1306 C 435 1296 413 1282 395 1264 C 377 1246 362 1224 352 1200 C 341 1175 336 1148 336 1118 L 647 772 C 663 754 679 736 693 720 C 707 703 719 686 730 668 C 740 650 749 632 755 612 C 761 592 764 571 764 547 C 764 491 750 445 722 407 C 694 369 656 335 608 303 C 630 278 649 253 665 228 C 680 203 688 173 688 139 C 688 97 677 59 657 24 C 637 -11 610 -42 578 -68 C 546 -94 509 -114 468 -129 C 427 -144 386 -152 346 -152 C 296 -152 249 -143 204 -127 C 158 -111 118 -86 82 -53 L 104 164 L 145 164 L 160 0 C 172 -14 185 -26 201 -37 C 216 -47 232 -56 250 -64 C 267 -72 285 -78 303 -82 C 321 -86 340 -88 358 -88 C 386 -88 414 -83 441 -73 C 467 -63 491 -49 512 -31 C 532 -13 549 8 563 33 C 576 57 584 84 586 113 L 272 467 C 256 485 241 502 228 518 C 214 534 203 550 193 568 C 183 586 176 605 170 625 C 164 645 162 669 162 696 C 162 722 165 747 173 769 C 180 791 190 811 204 830 C 218 848 234 866 252 882 C 270 898 291 913 313 928 C 291 951 273 977 257 1006 C 241 1035 233 1066 233 1098 C 233 1140 242 1179 260 1214 C 278 1249 302 1279 332 1303 C 362 1327 396 1346 435 1360 C 474 1373 515 1380 557 1380 C 598 1380 639 1375 679 1365 C 719 1355 757 1339 793 1319 L 764 1102 L 723 1102 Z M 662 494 C 662 510 657 526 649 543 C 641 559 630 575 618 590 L 342 895 C 319 879 300 858 285 832 C 269 806 262 777 262 745 C 262 725 265 708 272 692 C 279 676 289 661 303 647 L 578 338 C 602 357 622 380 638 406 C 654 432 662 462 662 494 Z" unicode="" />
<glyph horiz-adv-x="1024" d="M 807 1122 C 807 1097 799 1076 784 1058 C 769 1040 749 1032 725 1032 C 700 1032 680 1040 665 1058 C 650 1076 643 1097 643 1122 C 643 1146 650 1167 665 1185 C 680 1203 700 1212 725 1212 C 749 1212 769 1203 784 1185 C 799 1167 807 1146 807 1122 Z M 498 1122 C 498 1097 490 1076 475 1058 C 460 1040 440 1032 416 1032 C 391 1032 371 1040 356 1058 C 341 1076 334 1097 334 1122 C 334 1146 341 1167 356 1185 C 371 1203 391 1212 416 1212 C 440 1212 460 1203 475 1185 C 490 1167 498 1146 498 1122 Z" unicode="" />
<glyph horiz-adv-x="1536" d="M 1415 670 C 1415 580 1398 495 1364 417 C 1330 339 1283 270 1225 212 C 1167 153 1098 107 1020 73 C 941 39 857 23 768 23 C 678 23 594 39 516 73 C 437 107 368 153 310 212 C 251 270 205 339 171 417 C 137 495 121 580 121 670 C 121 729 128 786 144 842 C 159 897 181 949 209 997 C 237 1045 270 1088 310 1128 C 349 1167 393 1201 441 1229 C 489 1257 540 1278 595 1294 C 650 1309 708 1317 768 1317 C 827 1317 884 1309 940 1294 C 995 1278 1047 1257 1095 1229 C 1143 1201 1186 1167 1226 1128 C 1265 1088 1299 1045 1327 997 C 1355 949 1376 897 1392 842 C 1407 786 1415 729 1415 670 Z M 1346 670 C 1346 751 1330 827 1300 899 C 1270 971 1228 1033 1176 1087 C 1124 1140 1063 1182 993 1213 C 923 1244 848 1260 768 1260 C 688 1260 613 1244 543 1213 C 473 1182 411 1140 359 1087 C 307 1033 265 971 235 899 C 205 827 190 751 190 670 C 190 588 205 512 235 440 C 265 368 307 306 359 253 C 411 199 473 157 543 126 C 613 95 688 80 768 80 C 848 80 923 95 993 126 C 1063 157 1124 199 1176 253 C 1228 306 1270 368 1300 440 C 1330 512 1346 588 1346 670 Z M 1071 393 C 1047 374 1024 358 1002 346 C 980 333 957 323 933 315 C 909 307 884 301 858 298 C 832 294 804 293 774 293 C 718 293 667 301 620 319 C 572 337 531 362 496 395 C 461 427 434 466 414 512 C 394 558 385 608 385 664 C 385 721 395 773 415 820 C 435 867 462 907 498 941 C 533 975 575 1001 623 1019 C 671 1037 724 1047 782 1047 C 821 1047 857 1044 889 1038 C 921 1032 955 1022 989 1006 L 999 1047 L 1044 1047 L 1036 825 L 991 825 L 975 936 C 958 948 942 957 927 965 C 911 973 896 979 880 984 C 864 988 848 992 831 994 C 813 996 794 997 774 997 C 732 997 696 988 665 970 C 633 952 607 929 585 900 C 563 870 547 836 536 798 C 525 760 520 720 520 680 C 520 634 526 590 538 550 C 550 509 569 474 593 444 C 617 414 647 390 683 372 C 718 354 759 346 805 346 C 852 346 894 353 931 369 C 967 385 1004 408 1040 438 L 1071 393 Z" unicode="" />
<glyph horiz-adv-x="627" d="M 616 827 C 600 806 580 790 555 778 C 529 766 503 760 477 760 C 467 760 455 761 442 763 C 428 765 417 768 408 774 L 416 895 L 412 895 C 402 875 391 856 378 840 C 364 823 350 808 334 796 C 318 784 300 774 282 768 C 264 761 245 758 227 758 C 199 758 175 763 155 774 C 135 785 118 800 105 819 C 91 838 81 860 75 885 C 69 910 66 937 66 965 C 66 1011 72 1057 86 1102 C 99 1146 118 1186 143 1220 C 168 1254 198 1282 234 1303 C 270 1324 310 1335 354 1335 C 372 1335 391 1330 409 1322 C 427 1314 444 1302 459 1288 L 463 1317 L 547 1329 L 565 1329 L 522 993 C 520 973 517 951 514 927 C 511 903 510 880 510 860 C 510 850 510 840 510 831 C 510 822 510 815 512 809 C 526 807 541 811 557 821 C 572 831 585 842 596 856 L 616 827 Z M 453 1247 C 427 1277 396 1292 362 1292 C 332 1292 305 1282 282 1263 C 259 1244 240 1219 224 1187 C 208 1155 196 1119 188 1078 C 180 1037 176 994 176 950 C 176 933 177 916 181 900 C 185 884 190 869 197 856 C 204 843 213 833 224 825 C 235 817 248 813 262 813 C 280 813 299 819 317 832 C 335 845 352 864 367 888 C 382 912 395 942 407 977 C 418 1011 426 1050 432 1094 L 453 1247 Z" unicode="" />
<glyph horiz-adv-x="973" d="M 606 446 L 788 119 L 756 94 L 444 446 L 834 799 L 864 770 L 606 446 Z M 248 446 L 430 119 L 397 94 L 86 446 L 475 799 L 506 770 L 248 446 Z" unicode="" />
<glyph horiz-adv-x="1229" d="M 164 586 L 164 668 L 1065 668 L 1065 586 L 164 586 Z" unicode="" />
<glyph horiz-adv-x="573" d="M 82 393 L 82 483 L 492 532 L 492 442 L 82 393 Z" unicode="" />
<glyph horiz-adv-x="696" d="M 655 1071 C 655 1028 647 988 631 951 C 615 913 593 881 565 853 C 537 825 505 804 468 788 C 430 772 390 764 348 764 C 305 764 265 772 228 788 C 190 804 158 825 130 853 C 102 881 81 913 65 951 C 49 988 41 1028 41 1071 C 41 1113 49 1153 65 1191 C 81 1228 102 1260 130 1288 C 158 1316 190 1338 228 1354 C 265 1370 305 1378 348 1378 C 390 1378 430 1370 468 1354 C 505 1338 537 1316 565 1288 C 593 1260 615 1228 631 1191 C 647 1153 655 1113 655 1071 Z M 621 1071 C 621 1109 613 1145 599 1179 C 585 1213 565 1242 541 1267 C 516 1292 487 1312 454 1326 C 420 1340 385 1348 348 1348 C 310 1348 275 1340 242 1326 C 209 1312 180 1292 156 1267 C 131 1242 111 1213 97 1179 C 83 1145 76 1109 76 1071 C 76 1033 83 997 97 963 C 111 929 131 900 156 875 C 180 850 209 830 242 816 C 275 802 310 795 348 795 C 385 795 420 802 454 816 C 487 830 516 850 541 875 C 565 900 585 929 599 963 C 613 997 621 1033 621 1071 Z M 444 901 L 348 1047 L 299 1042 L 299 928 L 344 922 L 344 901 L 199 901 L 199 922 L 242 928 L 242 1225 L 199 1231 L 199 1249 L 350 1249 C 385 1249 414 1242 438 1228 C 461 1214 473 1191 473 1159 C 473 1134 466 1113 452 1097 C 438 1080 420 1068 399 1061 L 500 928 L 532 922 L 532 901 L 444 901 Z M 412 1153 C 412 1176 404 1194 389 1207 C 374 1220 355 1227 332 1227 C 325 1227 320 1227 316 1227 C 312 1227 306 1226 299 1225 L 299 1069 L 328 1069 C 384 1069 412 1097 412 1153 Z" unicode="" />
<glyph horiz-adv-x="1024" d="M 317 1092 L 328 1190 L 844 1190 L 834 1092 L 317 1092 Z" unicode="" />
<glyph horiz-adv-x="676" d="M 610 1077 C 610 1039 602 1003 588 970 C 574 937 554 908 530 883 C 505 858 476 838 443 824 C 410 810 375 803 338 803 C 300 803 265 810 232 824 C 199 838 170 858 146 883 C 121 908 101 937 87 970 C 73 1003 66 1039 66 1077 C 66 1115 73 1150 87 1184 C 101 1217 121 1246 146 1271 C 170 1296 199 1316 232 1330 C 265 1344 300 1352 338 1352 C 375 1352 410 1344 443 1330 C 476 1316 505 1296 530 1271 C 554 1246 574 1217 588 1184 C 602 1150 610 1115 610 1077 Z M 528 1077 C 528 1105 523 1131 513 1156 C 503 1180 490 1202 473 1220 C 456 1238 436 1253 413 1264 C 389 1274 364 1280 338 1280 C 310 1280 285 1274 262 1264 C 238 1253 218 1238 201 1220 C 184 1202 171 1180 161 1156 C 151 1131 147 1105 147 1077 C 147 1049 151 1022 161 998 C 171 973 184 951 201 933 C 218 915 238 900 262 890 C 285 879 310 874 338 874 C 364 874 389 879 413 890 C 436 900 456 915 473 933 C 490 951 503 973 513 998 C 523 1022 528 1049 528 1077 Z" unicode="" />
<glyph horiz-adv-x="1536" d="M 672 352 L 672 764 L 200 764 L 200 936 L 672 936 L 672 1352 L 864 1352 L 864 936 L 1340 936 L 1340 764 L 864 764 L 864 352 L 672 352 Z M 204 24 L 204 216 L 1336 216 L 1336 24 L 204 24 Z" unicode="" />
<glyph horiz-adv-x="614" d="M 551 627 L 59 627 L 53 678 L 250 838 C 288 869 321 897 349 922 C 377 947 400 972 418 996 C 436 1020 449 1045 458 1072 C 466 1098 471 1129 471 1163 C 471 1203 460 1234 438 1257 C 416 1280 387 1292 350 1292 C 314 1292 281 1280 253 1256 C 225 1232 201 1200 182 1159 L 143 1202 C 172 1249 206 1286 244 1313 C 282 1340 329 1354 383 1354 C 411 1354 437 1350 463 1342 C 488 1334 510 1322 530 1307 C 549 1292 564 1274 576 1252 C 588 1230 594 1206 594 1178 C 594 1145 588 1115 578 1089 C 568 1062 553 1037 535 1013 C 517 989 495 967 469 945 C 443 923 414 900 383 877 L 193 731 L 193 725 L 508 725 L 563 842 L 602 834 L 551 627 Z" unicode="" />
<glyph horiz-adv-x="614" d="M 586 1198 C 586 1172 580 1149 570 1127 C 559 1105 545 1086 527 1070 C 509 1053 488 1039 465 1028 C 442 1016 419 1008 395 1004 L 395 999 C 418 995 440 990 461 982 C 482 974 500 963 516 950 C 532 936 544 921 553 903 C 562 885 567 864 567 842 C 567 806 558 774 540 744 C 522 714 499 688 471 666 C 442 644 410 626 375 614 C 339 602 304 596 270 596 C 237 596 205 601 175 612 C 145 623 116 640 90 664 L 123 721 C 141 700 164 684 192 673 C 220 662 247 657 274 657 C 298 657 321 661 342 669 C 363 677 381 689 396 705 C 411 720 423 738 431 760 C 439 781 444 805 444 831 C 444 873 431 904 406 926 C 380 947 348 958 309 958 C 295 958 282 957 270 956 C 257 955 244 953 231 950 L 233 1014 L 254 1014 C 284 1014 311 1017 337 1024 C 363 1030 385 1041 405 1055 C 424 1069 439 1088 450 1110 C 461 1132 467 1158 467 1188 C 467 1224 456 1251 436 1269 C 416 1287 390 1296 358 1296 C 299 1296 251 1265 215 1204 L 180 1247 C 210 1287 241 1314 273 1330 C 305 1346 343 1354 385 1354 C 411 1354 436 1350 460 1343 C 484 1335 506 1325 524 1312 C 542 1298 557 1282 569 1263 C 580 1243 586 1222 586 1198 Z" unicode="" />
<glyph horiz-adv-x="1024" d="M 403 961 L 377 985 L 651 1366 L 743 1272 L 403 961 Z" unicode="" />
<glyph horiz-adv-x="928" d="M 897 92 C 875 60 848 34 816 14 C 783 -6 747 -16 709 -16 C 692 -16 672 -14 650 -10 C 628 -6 610 -2 598 4 C 598 71 604 156 616 258 L 614 258 C 598 220 581 185 562 151 C 542 117 520 87 495 61 C 469 35 441 14 409 -1 C 377 -17 341 -25 301 -25 C 269 -25 240 -18 215 -4 C 190 9 171 25 158 45 L 154 45 L 127 -442 L -6 -442 L 100 139 L 190 852 L 328 852 L 233 117 C 240 96 252 79 270 67 C 287 55 307 49 330 49 C 366 49 401 60 435 83 C 469 105 499 139 527 183 C 555 227 579 281 599 346 C 619 410 635 485 645 569 L 680 852 L 817 852 L 754 336 C 752 320 749 304 747 286 C 745 268 743 249 741 231 C 739 212 737 194 736 176 C 735 158 735 142 735 127 C 735 110 735 95 735 81 C 735 67 735 55 737 45 C 749 43 761 45 774 49 C 787 53 800 58 812 65 C 824 72 835 80 845 90 C 855 100 864 110 872 121 L 897 92 Z" unicode="" />
<glyph horiz-adv-x="973" d="M 840 1257 L 637 -287 L 559 -287 L 641 336 C 563 336 491 344 423 360 C 355 376 295 402 245 437 C 195 471 155 515 126 568 C 96 621 82 684 82 758 C 82 850 96 932 126 1002 C 155 1072 196 1131 248 1178 C 300 1224 363 1259 436 1283 C 508 1307 588 1319 676 1319 L 1006 1319 L 999 1274 L 840 1257 Z M 762 1266 L 573 1266 L 489 625 C 487 611 485 598 484 585 C 483 571 483 561 483 553 C 483 501 495 461 519 432 C 543 403 585 389 647 389 L 762 1266 Z" unicode="" />
<glyph horiz-adv-x="512" d="M 362 541 C 362 525 359 511 353 498 C 347 485 340 474 331 465 C 321 455 310 448 297 442 C 284 436 270 434 256 434 C 241 434 227 436 214 442 C 201 448 190 455 181 465 C 171 474 164 485 158 498 C 152 511 150 525 150 541 C 150 571 160 596 180 616 C 200 636 226 647 256 647 C 286 647 311 636 331 616 C 351 596 362 571 362 541 Z" unicode="" />
<glyph horiz-adv-x="1024" d="M 545 -299 C 545 -333 537 -363 523 -391 C 509 -419 489 -443 465 -463 C 440 -483 411 -498 378 -509 C 344 -520 309 -526 272 -526 C 254 -526 236 -523 217 -519 C 198 -514 180 -507 164 -498 L 184 -451 C 198 -457 214 -461 232 -465 C 249 -469 266 -471 283 -471 C 328 -471 364 -458 390 -434 C 416 -409 430 -375 430 -332 C 430 -314 426 -299 418 -285 C 410 -271 399 -259 386 -249 C 372 -239 357 -230 341 -224 C 324 -217 307 -212 289 -209 L 408 0 L 453 0 L 414 -141 C 432 -148 448 -156 464 -165 C 480 -174 494 -185 506 -197 C 518 -209 527 -224 534 -240 C 541 -256 545 -276 545 -299 Z" unicode="" />
<glyph horiz-adv-x="614" d="M 489 627 L 125 627 L 131 666 L 260 682 L 332 1255 L 193 1247 L 197 1282 L 453 1343 L 371 682 L 496 666 L 489 627 Z" unicode="" />
<glyph horiz-adv-x="545" d="M 559 1083 C 559 1043 552 1003 539 964 C 525 925 506 890 482 860 C 458 829 428 804 393 786 C 358 767 319 758 276 758 C 241 758 210 764 184 778 C 158 791 136 809 119 832 C 101 855 88 882 79 912 C 70 942 66 975 66 1010 C 66 1050 72 1089 86 1128 C 99 1167 118 1202 142 1233 C 166 1263 196 1288 231 1307 C 265 1325 304 1335 348 1335 C 382 1335 413 1328 439 1315 C 465 1301 487 1283 505 1260 C 523 1237 536 1210 545 1180 C 554 1150 559 1117 559 1083 Z M 444 1120 C 444 1138 442 1158 439 1179 C 435 1199 430 1218 422 1235 C 414 1252 403 1266 390 1277 C 377 1288 361 1294 342 1294 C 322 1294 304 1289 288 1279 C 272 1269 258 1255 246 1239 C 234 1222 223 1203 215 1181 C 207 1159 200 1136 195 1112 C 189 1088 185 1065 183 1041 C 181 1017 180 994 180 973 C 180 953 181 933 185 913 C 188 893 194 874 202 857 C 210 840 220 826 233 815 C 245 804 261 799 281 799 C 311 799 337 809 358 831 C 378 853 395 880 408 912 C 420 944 429 978 435 1016 C 441 1053 444 1088 444 1120 Z" unicode="" />
<glyph horiz-adv-x="973" d="M 489 94 L 459 123 L 717 446 L 535 774 L 567 799 L 879 446 L 489 94 Z M 131 94 L 100 123 L 358 446 L 176 774 L 209 799 L 520 446 L 131 94 Z" unicode="" />
<glyph horiz-adv-x="1339" d="M 1194 162 L 1083 162 L 1057 -49 L 950 -49 L 977 162 L 651 162 L 641 215 L 1116 754 L 1157 743 L 1094 244 L 1217 244 L 1194 162 Z M 1030 586 L 731 244 L 987 244 L 1030 586 Z M 199 -35 L 147 2 L 1130 1354 L 1182 1317 L 199 -35 Z M 459 627 L 94 627 L 100 666 L 229 682 L 301 1255 L 162 1247 L 166 1282 L 422 1343 L 340 682 L 465 666 L 459 627 Z" unicode="" />
<glyph horiz-adv-x="1397" d="M 1214 0 L 723 0 L 717 51 L 913 211 C 951 242 985 270 1013 295 C 1041 320 1064 345 1082 369 C 1100 393 1113 419 1122 445 C 1130 471 1135 502 1135 537 C 1135 577 1124 608 1102 631 C 1080 654 1050 666 1014 666 C 978 666 945 654 917 630 C 889 606 865 573 846 532 L 807 575 C 835 623 869 660 908 687 C 946 713 993 727 1047 727 C 1074 727 1100 723 1126 715 C 1151 707 1173 696 1193 681 C 1212 666 1227 648 1239 626 C 1251 604 1257 579 1257 551 C 1257 518 1251 488 1241 462 C 1231 435 1216 410 1198 386 C 1180 362 1158 340 1132 318 C 1106 296 1077 273 1047 250 L 856 104 L 856 98 L 1171 98 L 1227 215 L 1266 207 L 1214 0 Z M 199 -35 L 147 2 L 1130 1354 L 1182 1317 L 199 -35 Z M 459 627 L 94 627 L 100 666 L 229 682 L 301 1255 L 162 1247 L 166 1282 L 422 1343 L 340 682 L 465 666 L 459 627 Z" unicode="" />
<glyph horiz-adv-x="1376" d="M 1231 162 L 1120 162 L 1094 -49 L 987 -49 L 1014 162 L 688 162 L 678 215 L 1153 754 L 1194 743 L 1130 244 L 1253 244 L 1231 162 Z M 1067 586 L 768 244 L 1024 244 L 1067 586 Z M 236 -35 L 184 2 L 1167 1354 L 1219 1317 L 236 -35 Z M 594 1198 C 594 1172 588 1149 578 1127 C 567 1105 553 1086 535 1070 C 517 1053 496 1039 473 1028 C 450 1016 427 1008 403 1004 L 403 999 C 427 995 449 990 470 982 C 490 974 508 963 524 950 C 540 936 552 921 561 903 C 570 885 575 864 575 842 C 575 806 566 774 548 744 C 530 714 507 688 479 666 C 451 644 419 626 384 614 C 348 602 313 596 279 596 C 211 596 151 618 98 664 L 131 721 C 149 700 172 684 200 673 C 228 662 255 657 283 657 C 307 657 330 661 351 669 C 371 677 389 689 404 705 C 419 720 431 738 440 760 C 448 781 453 805 453 831 C 453 873 440 904 414 926 C 388 947 356 958 317 958 C 303 958 290 957 278 956 C 266 955 253 953 240 950 L 242 1014 L 262 1014 C 292 1014 319 1017 345 1024 C 371 1030 393 1041 413 1055 C 432 1069 447 1088 458 1110 C 469 1132 475 1158 475 1188 C 475 1224 465 1251 445 1269 C 425 1287 399 1296 367 1296 C 307 1296 259 1265 223 1204 L 188 1247 C 218 1287 249 1314 281 1330 C 313 1346 351 1354 393 1354 C 419 1354 444 1350 468 1343 C 492 1335 514 1325 533 1312 C 551 1298 566 1282 577 1263 C 588 1243 594 1222 594 1198 Z" unicode="" />
<glyph horiz-adv-x="815" d="M 670 70 C 670 46 664 25 652 9 C 640 -7 625 -21 607 -32 C 588 -42 567 -50 543 -55 C 519 -60 496 -63 473 -63 C 413 -63 360 -53 313 -33 C 266 -13 226 13 193 49 C 160 84 135 126 118 176 C 100 226 92 280 92 340 C 92 404 102 465 124 521 C 145 577 175 625 214 667 C 253 708 300 741 355 766 C 409 790 470 803 537 805 L 559 1040 L 631 1040 L 584 664 C 523 664 468 656 420 640 C 371 624 330 601 296 571 C 262 540 235 502 217 456 C 199 410 190 357 190 297 C 190 257 195 219 206 184 C 217 148 233 117 254 91 C 275 65 301 44 332 29 C 362 13 398 6 438 6 L 616 147 C 631 139 644 129 654 116 C 664 103 670 88 670 70 Z M 715 1235 C 715 1221 712 1208 707 1196 C 701 1184 694 1173 685 1164 C 676 1155 665 1148 653 1143 C 641 1137 628 1135 614 1135 C 586 1135 562 1144 543 1164 C 523 1183 514 1207 514 1235 C 514 1263 523 1286 543 1306 C 562 1325 586 1335 614 1335 C 628 1335 641 1332 653 1327 C 665 1321 676 1314 685 1305 C 694 1296 701 1286 707 1274 C 712 1262 715 1249 715 1235 Z" unicode="" />
<glyph horiz-adv-x="1143" d="M 1081 0 L 657 0 L 664 45 L 829 61 L 741 446 L 315 446 L 145 61 L 307 45 L 301 0 L -45 0 L -39 45 L 68 66 L 639 1327 L 684 1327 L 981 61 L 1087 45 L 1081 0 Z M 598 1085 L 344 512 L 727 512 L 598 1085 Z M 725 1392 L 467 1718 L 569 1800 L 753 1415 L 725 1392 Z" unicode="" />
<glyph horiz-adv-x="1143" d="M 1081 0 L 657 0 L 664 45 L 829 61 L 741 446 L 315 446 L 145 61 L 307 45 L 301 0 L -45 0 L -39 45 L 68 66 L 639 1327 L 684 1327 L 981 61 L 1087 45 L 1081 0 Z M 598 1085 L 344 512 L 727 512 L 598 1085 Z M 608 1395 L 582 1419 L 856 1800 L 948 1706 L 608 1395 Z" unicode="" />
<glyph horiz-adv-x="1143" d="M 1081 0 L 657 0 L 664 45 L 829 61 L 741 446 L 315 446 L 145 61 L 307 45 L 301 0 L -45 0 L -39 45 L 68 66 L 639 1327 L 684 1327 L 981 61 L 1087 45 L 1081 0 Z M 598 1085 L 344 512 L 727 512 L 598 1085 Z M 870 1384 L 690 1634 L 438 1384 L 413 1403 L 700 1802 L 721 1802 L 897 1401 L 870 1384 Z" unicode="" />
<glyph horiz-adv-x="1143" d="M 1081 0 L 657 0 L 664 45 L 829 61 L 741 446 L 315 446 L 145 61 L 307 45 L 301 0 L -45 0 L -39 45 L 68 66 L 639 1327 L 684 1327 L 981 61 L 1087 45 L 1081 0 Z M 598 1085 L 344 512 L 727 512 L 598 1085 Z M 988 1641 C 978 1620 965 1598 951 1575 C 936 1551 920 1530 903 1510 C 885 1490 867 1474 847 1461 C 827 1448 807 1442 787 1442 C 768 1442 748 1447 728 1459 C 707 1470 686 1482 665 1496 C 644 1509 623 1521 603 1533 C 583 1544 563 1550 545 1550 C 530 1550 516 1546 504 1540 C 492 1534 480 1525 469 1515 C 458 1505 448 1493 439 1480 C 429 1467 420 1454 412 1442 L 385 1462 C 395 1482 407 1504 422 1528 C 436 1551 452 1572 470 1592 C 487 1612 505 1628 525 1641 C 545 1654 565 1661 586 1661 C 604 1661 624 1655 644 1644 C 664 1632 685 1620 706 1606 C 727 1592 748 1580 769 1569 C 789 1557 809 1552 828 1552 C 842 1552 856 1555 868 1562 C 880 1568 892 1577 903 1587 C 914 1597 924 1609 934 1622 C 943 1635 952 1648 961 1661 L 988 1641 Z" unicode="" />
<glyph horiz-adv-x="1143" d="M 1081 0 L 657 0 L 664 45 L 829 61 L 741 446 L 315 446 L 145 61 L 307 45 L 301 0 L -45 0 L -39 45 L 68 66 L 639 1327 L 684 1327 L 981 61 L 1087 45 L 1081 0 Z M 598 1085 L 344 512 L 727 512 L 598 1085 Z M 913 1536 C 913 1511 905 1490 890 1472 C 875 1454 855 1446 831 1446 C 806 1446 786 1454 771 1472 C 756 1490 749 1511 749 1536 C 749 1560 756 1581 771 1599 C 786 1617 806 1626 831 1626 C 855 1626 875 1617 890 1599 C 905 1581 913 1560 913 1536 Z M 604 1536 C 604 1511 596 1490 581 1472 C 566 1454 546 1446 522 1446 C 497 1446 477 1454 462 1472 C 447 1490 440 1511 440 1536 C 440 1560 447 1581 462 1599 C 477 1617 497 1626 522 1626 C 546 1626 566 1617 581 1599 C 596 1581 604 1560 604 1536 Z" unicode="" />
<glyph horiz-adv-x="1143" d="M 1081 0 L 657 0 L 664 45 L 829 61 L 741 446 L 315 446 L 145 61 L 307 45 L 301 0 L -45 0 L -39 45 L 68 66 L 639 1327 L 684 1327 L 981 61 L 1087 45 L 1081 0 Z M 598 1085 L 344 512 L 727 512 L 598 1085 Z M 869 1530 C 869 1500 863 1472 853 1446 C 843 1420 828 1397 809 1378 C 790 1359 767 1344 741 1333 C 715 1322 686 1317 654 1317 C 628 1317 604 1321 584 1330 C 563 1338 545 1350 530 1365 C 515 1380 504 1398 496 1419 C 488 1439 484 1461 484 1485 C 484 1515 489 1543 499 1569 C 509 1595 524 1617 543 1636 C 562 1655 585 1670 611 1681 C 637 1692 667 1698 699 1698 C 724 1698 747 1693 768 1685 C 789 1676 807 1664 822 1649 C 837 1634 849 1616 857 1596 C 865 1575 869 1553 869 1530 Z M 777 1538 C 777 1552 775 1565 772 1579 C 768 1592 763 1604 757 1614 C 750 1624 741 1633 731 1639 C 721 1645 709 1649 695 1649 C 674 1649 656 1643 641 1633 C 626 1623 614 1609 604 1593 C 594 1577 587 1558 583 1538 C 578 1517 576 1497 576 1477 C 576 1462 577 1448 581 1435 C 584 1421 589 1409 596 1399 C 603 1389 612 1381 622 1375 C 632 1369 645 1366 660 1366 C 680 1366 698 1371 713 1381 C 727 1391 739 1405 749 1421 C 758 1437 765 1456 770 1476 C 774 1496 777 1517 777 1538 Z" unicode="" />
<glyph horiz-adv-x="1550" d="M 1481 1040 L 1423 1040 L 1421 1253 L 961 1253 L 901 719 L 1233 719 L 1268 860 L 1321 860 L 1282 512 L 1229 512 L 1225 653 L 893 653 L 827 66 L 1311 66 L 1364 299 L 1425 299 L 1393 0 L 522 0 L 528 45 L 680 61 L 727 487 L 346 487 L 100 61 L 248 45 L 242 0 L -96 0 L -90 45 L 16 66 L 709 1255 L 549 1274 L 555 1319 L 1513 1319 L 1481 1040 Z M 813 1253 L 791 1253 L 385 553 L 735 553 L 813 1253 Z" unicode="" />
<glyph horiz-adv-x="1126" d="M 1073 985 L 1024 985 L 1016 1171 C 995 1191 974 1209 954 1223 C 934 1237 913 1249 891 1258 C 869 1266 845 1272 821 1276 C 796 1280 769 1282 741 1282 C 683 1282 631 1271 585 1249 C 538 1227 496 1198 460 1161 C 424 1124 392 1081 366 1032 C 340 983 318 932 301 878 C 283 824 270 769 262 713 C 254 657 250 604 250 553 C 250 484 257 419 273 358 C 288 296 311 242 343 196 C 374 150 413 113 461 86 C 508 58 563 45 627 45 C 661 45 694 49 726 58 C 758 67 788 80 818 97 C 847 113 875 133 902 156 C 928 179 953 205 977 233 L 1018 188 C 992 156 964 126 934 100 C 903 73 869 50 833 31 C 796 12 757 -2 715 -13 C 673 -23 628 -29 582 -29 C 500 -29 427 -12 365 19 C 303 51 251 95 209 149 C 167 203 135 265 114 336 C 92 406 82 480 82 557 C 82 626 88 694 101 760 C 114 826 133 889 159 948 C 185 1006 217 1060 255 1109 C 293 1158 338 1200 389 1236 C 440 1271 497 1298 561 1318 C 624 1338 694 1348 770 1348 C 821 1348 870 1342 916 1330 C 962 1318 1007 1302 1051 1282 L 1081 1348 L 1130 1348 L 1073 985 Z M 692 -299 C 692 -333 684 -363 670 -391 C 656 -419 636 -443 612 -463 C 587 -483 558 -498 525 -509 C 491 -520 456 -526 419 -526 C 401 -526 383 -523 364 -519 C 345 -514 327 -507 311 -498 L 331 -451 C 345 -457 361 -461 379 -465 C 396 -469 413 -471 430 -471 C 475 -471 511 -458 537 -434 C 563 -409 577 -375 577 -332 C 577 -314 573 -299 565 -285 C 557 -271 546 -259 533 -249 C 519 -239 504 -230 488 -224 C 471 -217 454 -212 436 -209 L 555 0 L 600 0 L 561 -141 C 579 -148 595 -156 611 -165 C 627 -174 641 -185 653 -197 C 665 -209 674 -224 681 -240 C 688 -256 692 -276 692 -299 Z" unicode="" />
<glyph horiz-adv-x="1061" d="M 991 1040 L 934 1040 L 932 1253 L 471 1253 L 412 719 L 743 719 L 778 860 L 831 860 L 793 512 L 739 512 L 735 653 L 403 653 L 338 66 L 821 66 L 874 299 L 936 299 L 903 0 L 25 0 L 31 45 L 190 61 L 324 1257 L 164 1274 L 170 1319 L 1024 1319 L 991 1040 Z M 732 1392 L 474 1718 L 576 1800 L 760 1415 L 732 1392 Z" unicode="" />
<glyph horiz-adv-x="1061" d="M 991 1040 L 934 1040 L 932 1253 L 471 1253 L 412 719 L 743 719 L 778 860 L 831 860 L 793 512 L 739 512 L 735 653 L 403 653 L 338 66 L 821 66 L 874 299 L 936 299 L 903 0 L 25 0 L 31 45 L 190 61 L 324 1257 L 164 1274 L 170 1319 L 1024 1319 L 991 1040 Z M 573 1397 L 547 1421 L 821 1802 L 913 1708 L 573 1397 Z" unicode="" />
<glyph horiz-adv-x="1061" d="M 991 1040 L 934 1040 L 932 1253 L 471 1253 L 412 719 L 743 719 L 778 860 L 831 860 L 793 512 L 739 512 L 735 653 L 403 653 L 338 66 L 821 66 L 874 299 L 936 299 L 903 0 L 25 0 L 31 45 L 190 61 L 324 1257 L 164 1274 L 170 1319 L 1024 1319 L 991 1040 Z M 864 1384 L 684 1634 L 432 1384 L 407 1403 L 694 1802 L 715 1802 L 891 1401 L 864 1384 Z" unicode="" />
<glyph horiz-adv-x="1061" d="M 991 1040 L 934 1040 L 932 1253 L 471 1253 L 412 719 L 743 719 L 778 860 L 831 860 L 793 512 L 739 512 L 735 653 L 403 653 L 338 66 L 821 66 L 874 299 L 936 299 L 903 0 L 25 0 L 31 45 L 190 61 L 324 1257 L 164 1274 L 170 1319 L 1024 1319 L 991 1040 Z M 905 1556 C 905 1531 897 1510 882 1492 C 867 1474 847 1466 823 1466 C 798 1466 778 1474 763 1492 C 748 1510 741 1531 741 1556 C 741 1580 748 1601 763 1619 C 778 1637 798 1646 823 1646 C 847 1646 867 1637 882 1619 C 897 1601 905 1580 905 1556 Z M 596 1556 C 596 1531 588 1510 573 1492 C 558 1474 538 1466 514 1466 C 489 1466 469 1474 454 1492 C 439 1510 432 1531 432 1556 C 432 1580 439 1601 454 1619 C 469 1637 489 1646 514 1646 C 538 1646 558 1637 573 1619 C 588 1601 596 1580 596 1556 Z" unicode="" />
<glyph horiz-adv-x="631" d="M 639 1274 L 479 1257 L 346 61 L 506 45 L 500 0 L 33 0 L 39 45 L 199 61 L 332 1257 L 172 1274 L 178 1319 L 645 1319 L 639 1274 Z M 452 1392 L 194 1718 L 296 1800 L 480 1415 L 452 1392 Z" unicode="" />
<glyph horiz-adv-x="631" d="M 639 1274 L 479 1257 L 346 61 L 506 45 L 500 0 L 33 0 L 39 45 L 199 61 L 332 1257 L 172 1274 L 178 1319 L 645 1319 L 639 1274 Z M 365 1395 L 339 1419 L 613 1800 L 705 1706 L 365 1395 Z" unicode="" />
<glyph horiz-adv-x="631" d="M 639 1274 L 479 1257 L 346 61 L 506 45 L 500 0 L 33 0 L 39 45 L 199 61 L 332 1257 L 172 1274 L 178 1319 L 645 1319 L 639 1274 Z M 626 1384 L 446 1634 L 194 1384 L 169 1403 L 456 1802 L 477 1802 L 653 1401 L 626 1384 Z" unicode="" />
<glyph horiz-adv-x="631" d="M 639 1274 L 479 1257 L 346 61 L 506 45 L 500 0 L 33 0 L 39 45 L 199 61 L 332 1257 L 172 1274 L 178 1319 L 645 1319 L 639 1274 Z M 665 1556 C 665 1531 657 1510 642 1492 C 627 1474 607 1466 583 1466 C 558 1466 538 1474 523 1492 C 508 1510 501 1531 501 1556 C 501 1580 508 1601 523 1619 C 538 1637 558 1646 583 1646 C 607 1646 627 1637 642 1619 C 657 1601 665 1580 665 1556 Z M 356 1556 C 356 1531 348 1510 333 1492 C 318 1474 298 1466 274 1466 C 249 1466 229 1474 214 1492 C 199 1510 192 1531 192 1556 C 192 1580 199 1601 214 1619 C 229 1637 249 1646 274 1646 C 298 1646 318 1637 333 1619 C 348 1601 356 1580 356 1556 Z" unicode="" />
<glyph horiz-adv-x="1249" d="M 1212 741 C 1212 632 1195 532 1162 442 C 1128 351 1081 273 1020 207 C 959 141 885 90 799 54 C 713 18 616 0 510 0 L 25 0 L 31 45 L 190 61 L 256 653 L 94 653 L 102 719 L 264 719 L 324 1257 L 164 1274 L 170 1319 L 662 1319 C 742 1319 816 1307 884 1284 C 951 1260 1009 1225 1058 1177 C 1106 1129 1144 1069 1171 997 C 1198 925 1212 839 1212 741 Z M 692 653 L 403 653 L 338 66 C 348 64 360 61 374 59 C 388 57 403 55 419 54 C 434 52 449 51 465 50 C 481 49 495 49 508 49 C 572 49 629 58 681 78 C 733 97 778 124 818 158 C 858 192 892 232 920 278 C 948 324 972 373 990 427 C 1008 481 1022 537 1031 596 C 1039 655 1044 714 1044 774 C 1044 934 1007 1056 935 1140 C 862 1224 756 1266 618 1266 C 593 1266 568 1265 542 1264 C 516 1262 492 1260 471 1257 L 412 719 L 700 719 L 692 653 Z" unicode="" />
<glyph horiz-adv-x="1294" d="M 1341 1274 L 1182 1245 L 1042 -12 L 1010 -12 L 367 1085 L 254 74 L 414 45 L 408 0 L 10 0 L 16 45 L 176 74 L 301 1194 L 266 1253 L 152 1274 L 158 1319 L 397 1319 L 999 287 L 1104 1245 L 944 1274 L 950 1319 L 1348 1319 L 1341 1274 Z M 1084 1641 C 1074 1620 1061 1598 1047 1575 C 1032 1551 1016 1530 999 1510 C 981 1490 963 1474 943 1461 C 923 1448 903 1442 883 1442 C 864 1442 844 1447 824 1459 C 803 1470 782 1482 761 1496 C 740 1509 719 1521 699 1533 C 679 1544 659 1550 641 1550 C 626 1550 612 1546 600 1540 C 588 1534 576 1525 565 1515 C 554 1505 544 1493 535 1480 C 525 1467 516 1454 508 1442 L 481 1462 C 491 1482 503 1504 518 1528 C 532 1551 548 1572 566 1592 C 583 1612 601 1628 621 1641 C 641 1654 661 1661 682 1661 C 700 1661 720 1655 740 1644 C 760 1632 781 1620 802 1606 C 823 1592 844 1580 865 1569 C 885 1557 905 1552 924 1552 C 938 1552 952 1555 964 1562 C 976 1568 988 1577 999 1587 C 1010 1597 1020 1609 1030 1622 C 1039 1635 1048 1648 1057 1661 L 1084 1641 Z" unicode="" />
<glyph horiz-adv-x="1257" d="M 1217 735 C 1217 668 1210 603 1197 539 C 1183 475 1164 415 1138 359 C 1112 302 1081 250 1044 202 C 1006 154 964 113 916 79 C 868 45 816 18 758 0 C 700 -19 639 -29 573 -29 C 490 -29 418 -11 356 23 C 294 57 243 103 203 160 C 162 217 132 282 112 356 C 92 430 82 506 82 584 C 82 650 88 715 102 779 C 115 843 134 903 160 960 C 186 1016 217 1068 254 1116 C 291 1164 333 1205 381 1239 C 429 1273 481 1300 539 1319 C 597 1338 659 1348 725 1348 C 807 1348 879 1330 941 1296 C 1003 1261 1054 1215 1095 1158 C 1136 1101 1167 1036 1187 962 C 1207 888 1217 813 1217 735 Z M 1051 758 C 1051 823 1045 887 1033 950 C 1021 1013 1003 1069 977 1118 C 951 1167 916 1207 874 1237 C 831 1267 779 1282 717 1282 C 662 1282 612 1271 568 1249 C 524 1227 484 1197 450 1160 C 415 1122 385 1079 359 1030 C 333 981 312 930 296 877 C 280 823 268 769 260 715 C 252 661 248 609 248 561 C 248 495 253 431 265 368 C 277 305 296 249 322 200 C 348 151 382 112 425 82 C 467 52 520 37 582 37 C 636 37 686 48 730 70 C 774 92 814 121 849 159 C 883 196 913 239 939 288 C 964 337 985 388 1002 442 C 1018 495 1031 549 1039 603 C 1047 657 1051 709 1051 758 Z M 805 1392 L 547 1718 L 649 1800 L 833 1415 L 805 1392 Z" unicode="" />
<glyph horiz-adv-x="1257" d="M 1217 735 C 1217 668 1210 603 1197 539 C 1183 475 1164 415 1138 359 C 1112 302 1081 250 1044 202 C 1006 154 964 113 916 79 C 868 45 816 18 758 0 C 700 -19 639 -29 573 -29 C 490 -29 418 -11 356 23 C 294 57 243 103 203 160 C 162 217 132 282 112 356 C 92 430 82 506 82 584 C 82 650 88 715 102 779 C 115 843 134 903 160 960 C 186 1016 217 1068 254 1116 C 291 1164 333 1205 381 1239 C 429 1273 481 1300 539 1319 C 597 1338 659 1348 725 1348 C 807 1348 879 1330 941 1296 C 1003 1261 1054 1215 1095 1158 C 1136 1101 1167 1036 1187 962 C 1207 888 1217 813 1217 735 Z M 1051 758 C 1051 823 1045 887 1033 950 C 1021 1013 1003 1069 977 1118 C 951 1167 916 1207 874 1237 C 831 1267 779 1282 717 1282 C 662 1282 612 1271 568 1249 C 524 1227 484 1197 450 1160 C 415 1122 385 1079 359 1030 C 333 981 312 930 296 877 C 280 823 268 769 260 715 C 252 661 248 609 248 561 C 248 495 253 431 265 368 C 277 305 296 249 322 200 C 348 151 382 112 425 82 C 467 52 520 37 582 37 C 636 37 686 48 730 70 C 774 92 814 121 849 159 C 883 196 913 239 939 288 C 964 337 985 388 1002 442 C 1018 495 1031 549 1039 603 C 1047 657 1051 709 1051 758 Z M 657 1395 L 631 1419 L 905 1800 L 997 1706 L 657 1395 Z" unicode="" />
<glyph horiz-adv-x="1257" d="M 1217 735 C 1217 668 1210 603 1197 539 C 1183 475 1164 415 1138 359 C 1112 302 1081 250 1044 202 C 1006 154 964 113 916 79 C 868 45 816 18 758 0 C 700 -19 639 -29 573 -29 C 490 -29 418 -11 356 23 C 294 57 243 103 203 160 C 162 217 132 282 112 356 C 92 430 82 506 82 584 C 82 650 88 715 102 779 C 115 843 134 903 160 960 C 186 1016 217 1068 254 1116 C 291 1164 333 1205 381 1239 C 429 1273 481 1300 539 1319 C 597 1338 659 1348 725 1348 C 807 1348 879 1330 941 1296 C 1003 1261 1054 1215 1095 1158 C 1136 1101 1167 1036 1187 962 C 1207 888 1217 813 1217 735 Z M 1051 758 C 1051 823 1045 887 1033 950 C 1021 1013 1003 1069 977 1118 C 951 1167 916 1207 874 1237 C 831 1267 779 1282 717 1282 C 662 1282 612 1271 568 1249 C 524 1227 484 1197 450 1160 C 415 1122 385 1079 359 1030 C 333 981 312 930 296 877 C 280 823 268 769 260 715 C 252 661 248 609 248 561 C 248 495 253 431 265 368 C 277 305 296 249 322 200 C 348 151 382 112 425 82 C 467 52 520 37 582 37 C 636 37 686 48 730 70 C 774 92 814 121 849 159 C 883 196 913 239 939 288 C 964 337 985 388 1002 442 C 1018 495 1031 549 1039 603 C 1047 657 1051 709 1051 758 Z M 940 1384 L 760 1634 L 508 1384 L 483 1403 L 770 1802 L 791 1802 L 967 1401 L 940 1384 Z" unicode="" />
<glyph horiz-adv-x="1257" d="M 1217 735 C 1217 668 1210 603 1197 539 C 1183 475 1164 415 1138 359 C 1112 302 1081 250 1044 202 C 1006 154 964 113 916 79 C 868 45 816 18 758 0 C 700 -19 639 -29 573 -29 C 490 -29 418 -11 356 23 C 294 57 243 103 203 160 C 162 217 132 282 112 356 C 92 430 82 506 82 584 C 82 650 88 715 102 779 C 115 843 134 903 160 960 C 186 1016 217 1068 254 1116 C 291 1164 333 1205 381 1239 C 429 1273 481 1300 539 1319 C 597 1338 659 1348 725 1348 C 807 1348 879 1330 941 1296 C 1003 1261 1054 1215 1095 1158 C 1136 1101 1167 1036 1187 962 C 1207 888 1217 813 1217 735 Z M 1051 758 C 1051 823 1045 887 1033 950 C 1021 1013 1003 1069 977 1118 C 951 1167 916 1207 874 1237 C 831 1267 779 1282 717 1282 C 662 1282 612 1271 568 1249 C 524 1227 484 1197 450 1160 C 415 1122 385 1079 359 1030 C 333 981 312 930 296 877 C 280 823 268 769 260 715 C 252 661 248 609 248 561 C 248 495 253 431 265 368 C 277 305 296 249 322 200 C 348 151 382 112 425 82 C 467 52 520 37 582 37 C 636 37 686 48 730 70 C 774 92 814 121 849 159 C 883 196 913 239 939 288 C 964 337 985 388 1002 442 C 1018 495 1031 549 1039 603 C 1047 657 1051 709 1051 758 Z M 1055 1641 C 1045 1620 1032 1598 1018 1575 C 1003 1551 987 1530 970 1510 C 952 1490 934 1474 914 1461 C 894 1448 874 1442 854 1442 C 835 1442 815 1447 795 1459 C 774 1470 753 1482 732 1496 C 711 1509 690 1521 670 1533 C 650 1544 630 1550 612 1550 C 597 1550 583 1546 571 1540 C 559 1534 547 1525 536 1515 C 525 1505 515 1493 506 1480 C 496 1467 487 1454 479 1442 L 452 1462 C 462 1482 474 1504 489 1528 C 503 1551 519 1572 537 1592 C 554 1612 572 1628 592 1641 C 612 1654 632 1661 653 1661 C 671 1661 691 1655 711 1644 C 731 1632 752 1620 773 1606 C 794 1592 815 1580 836 1569 C 856 1557 876 1552 895 1552 C 909 1552 923 1555 935 1562 C 947 1568 959 1577 970 1587 C 981 1597 991 1609 1001 1622 C 1010 1635 1019 1648 1028 1661 L 1055 1641 Z" unicode="" />
<glyph horiz-adv-x="1257" d="M 1217 735 C 1217 668 1210 603 1197 539 C 1183 475 1164 415 1138 359 C 1112 302 1081 250 1044 202 C 1006 154 964 113 916 79 C 868 45 816 18 758 0 C 700 -19 639 -29 573 -29 C 490 -29 418 -11 356 23 C 294 57 243 103 203 160 C 162 217 132 282 112 356 C 92 430 82 506 82 584 C 82 650 88 715 102 779 C 115 843 134 903 160 960 C 186 1016 217 1068 254 1116 C 291 1164 333 1205 381 1239 C 429 1273 481 1300 539 1319 C 597 1338 659 1348 725 1348 C 807 1348 879 1330 941 1296 C 1003 1261 1054 1215 1095 1158 C 1136 1101 1167 1036 1187 962 C 1207 888 1217 813 1217 735 Z M 1051 758 C 1051 823 1045 887 1033 950 C 1021 1013 1003 1069 977 1118 C 951 1167 916 1207 874 1237 C 831 1267 779 1282 717 1282 C 662 1282 612 1271 568 1249 C 524 1227 484 1197 450 1160 C 415 1122 385 1079 359 1030 C 333 981 312 930 296 877 C 280 823 268 769 260 715 C 252 661 248 609 248 561 C 248 495 253 431 265 368 C 277 305 296 249 322 200 C 348 151 382 112 425 82 C 467 52 520 37 582 37 C 636 37 686 48 730 70 C 774 92 814 121 849 159 C 883 196 913 239 939 288 C 964 337 985 388 1002 442 C 1018 495 1031 549 1039 603 C 1047 657 1051 709 1051 758 Z M 987 1552 C 987 1527 979 1506 964 1488 C 949 1470 929 1462 905 1462 C 880 1462 860 1470 845 1488 C 830 1506 823 1527 823 1552 C 823 1576 830 1597 845 1615 C 860 1633 880 1642 905 1642 C 929 1642 949 1633 964 1615 C 979 1597 987 1576 987 1552 Z M 678 1552 C 678 1527 670 1506 655 1488 C 640 1470 620 1462 596 1462 C 571 1462 551 1470 536 1488 C 521 1506 514 1527 514 1552 C 514 1576 521 1597 536 1615 C 551 1633 571 1642 596 1642 C 620 1642 640 1633 655 1615 C 670 1597 678 1576 678 1552 Z" unicode="" />
<glyph horiz-adv-x="1229" d="M 997 172 L 614 559 L 231 172 L 174 229 L 561 612 L 174 995 L 231 1053 L 614 666 L 997 1053 L 1055 995 L 668 612 L 1055 229 L 997 172 Z" unicode="" />
<glyph horiz-adv-x="1257" d="M 1217 735 C 1217 668 1210 603 1197 539 C 1183 475 1164 415 1138 359 C 1112 302 1081 250 1044 202 C 1006 154 964 113 916 79 C 868 45 816 18 758 0 C 700 -19 639 -29 573 -29 C 512 -29 457 -19 407 0 C 357 19 314 46 276 80 L 145 -106 L 94 -70 L 231 125 C 205 154 183 186 165 222 C 147 257 131 294 119 334 C 106 373 97 414 91 456 C 85 498 82 540 82 584 C 82 650 88 715 102 779 C 115 843 134 903 160 960 C 186 1016 217 1068 254 1116 C 291 1164 333 1205 381 1239 C 429 1273 481 1300 539 1319 C 597 1338 659 1348 725 1348 C 785 1348 840 1338 890 1319 C 940 1299 984 1273 1022 1239 L 1153 1425 L 1204 1389 L 1067 1194 C 1091 1164 1113 1132 1132 1097 C 1151 1061 1167 1024 1179 985 C 1191 945 1201 904 1207 862 C 1213 820 1217 777 1217 735 Z M 1051 758 C 1051 816 1046 875 1037 934 C 1027 992 1012 1045 991 1092 L 342 166 C 368 126 401 95 441 72 C 480 48 527 37 582 37 C 636 37 686 48 730 70 C 774 92 814 121 849 159 C 883 196 913 239 939 288 C 964 337 985 388 1002 442 C 1018 495 1031 549 1039 603 C 1047 657 1051 709 1051 758 Z M 956 1153 C 929 1192 896 1223 857 1247 C 817 1270 771 1282 717 1282 C 662 1282 612 1271 568 1249 C 524 1227 484 1197 450 1160 C 415 1122 385 1079 359 1030 C 333 981 312 930 296 877 C 280 823 268 769 260 715 C 252 661 248 609 248 561 C 248 502 252 443 261 384 C 270 325 285 273 307 227 L 956 1153 Z" unicode="" />
<glyph horiz-adv-x="1229" d="M 1300 1274 L 1141 1249 L 1057 477 C 1049 400 1032 330 1008 268 C 983 206 950 153 910 109 C 869 65 820 31 763 7 C 706 -17 641 -29 567 -29 C 503 -29 448 -19 401 0 C 353 18 314 44 282 78 C 250 112 226 152 210 199 C 194 245 186 296 186 352 C 186 382 186 406 187 424 C 188 442 190 460 193 477 L 279 1257 L 119 1274 L 125 1319 L 592 1319 L 586 1274 L 426 1257 L 342 506 C 338 481 336 457 335 435 C 334 413 334 391 334 371 C 334 325 338 282 347 244 C 355 205 370 172 391 144 C 412 116 441 95 477 80 C 513 64 558 57 612 57 C 667 57 716 67 759 88 C 801 109 838 139 868 177 C 898 215 922 261 940 315 C 958 368 971 427 979 492 L 1061 1249 L 901 1274 L 907 1319 L 1307 1319 L 1300 1274 Z M 826 1392 L 568 1718 L 670 1800 L 854 1415 L 826 1392 Z" unicode="" />
<glyph horiz-adv-x="1229" d="M 1300 1274 L 1141 1249 L 1057 477 C 1049 400 1032 330 1008 268 C 983 206 950 153 910 109 C 869 65 820 31 763 7 C 706 -17 641 -29 567 -29 C 503 -29 448 -19 401 0 C 353 18 314 44 282 78 C 250 112 226 152 210 199 C 194 245 186 296 186 352 C 186 382 186 406 187 424 C 188 442 190 460 193 477 L 279 1257 L 119 1274 L 125 1319 L 592 1319 L 586 1274 L 426 1257 L 342 506 C 338 481 336 457 335 435 C 334 413 334 391 334 371 C 334 325 338 282 347 244 C 355 205 370 172 391 144 C 412 116 441 95 477 80 C 513 64 558 57 612 57 C 667 57 716 67 759 88 C 801 109 838 139 868 177 C 898 215 922 261 940 315 C 958 368 971 427 979 492 L 1061 1249 L 901 1274 L 907 1319 L 1307 1319 L 1300 1274 Z M 682 1395 L 656 1419 L 930 1800 L 1022 1706 L 682 1395 Z" unicode="" />
<glyph horiz-adv-x="1229" d="M 1300 1274 L 1141 1249 L 1057 477 C 1049 400 1032 330 1008 268 C 983 206 950 153 910 109 C 869 65 820 31 763 7 C 706 -17 641 -29 567 -29 C 503 -29 448 -19 401 0 C 353 18 314 44 282 78 C 250 112 226 152 210 199 C 194 245 186 296 186 352 C 186 382 186 406 187 424 C 188 442 190 460 193 477 L 279 1257 L 119 1274 L 125 1319 L 592 1319 L 586 1274 L 426 1257 L 342 506 C 338 481 336 457 335 435 C 334 413 334 391 334 371 C 334 325 338 282 347 244 C 355 205 370 172 391 144 C 412 116 441 95 477 80 C 513 64 558 57 612 57 C 667 57 716 67 759 88 C 801 109 838 139 868 177 C 898 215 922 261 940 315 C 958 368 971 427 979 492 L 1061 1249 L 901 1274 L 907 1319 L 1307 1319 L 1300 1274 Z M 960 1384 L 780 1634 L 528 1384 L 503 1403 L 790 1802 L 811 1802 L 987 1401 L 960 1384 Z" unicode="" />
<glyph horiz-adv-x="1229" d="M 1300 1274 L 1141 1249 L 1057 477 C 1049 400 1032 330 1008 268 C 983 206 950 153 910 109 C 869 65 820 31 763 7 C 706 -17 641 -29 567 -29 C 503 -29 448 -19 401 0 C 353 18 314 44 282 78 C 250 112 226 152 210 199 C 194 245 186 296 186 352 C 186 382 186 406 187 424 C 188 442 190 460 193 477 L 279 1257 L 119 1274 L 125 1319 L 592 1319 L 586 1274 L 426 1257 L 342 506 C 338 481 336 457 335 435 C 334 413 334 391 334 371 C 334 325 338 282 347 244 C 355 205 370 172 391 144 C 412 116 441 95 477 80 C 513 64 558 57 612 57 C 667 57 716 67 759 88 C 801 109 838 139 868 177 C 898 215 922 261 940 315 C 958 368 971 427 979 492 L 1061 1249 L 901 1274 L 907 1319 L 1307 1319 L 1300 1274 Z M 1004 1552 C 1004 1527 996 1506 981 1488 C 966 1470 946 1462 922 1462 C 897 1462 877 1470 862 1488 C 847 1506 840 1527 840 1552 C 840 1576 847 1597 862 1615 C 877 1633 897 1642 922 1642 C 946 1642 966 1633 981 1615 C 996 1597 1004 1576 1004 1552 Z M 695 1552 C 695 1527 687 1506 672 1488 C 657 1470 637 1462 613 1462 C 588 1462 568 1470 553 1488 C 538 1506 531 1527 531 1552 C 531 1576 538 1597 553 1615 C 568 1633 588 1642 613 1642 C 637 1642 657 1633 672 1615 C 687 1597 695 1576 695 1552 Z" unicode="" />
<glyph horiz-adv-x="1085" d="M 1165 1274 L 1059 1257 L 627 557 L 571 61 L 731 45 L 725 0 L 258 0 L 264 45 L 424 61 L 477 545 L 195 1257 L 96 1274 L 102 1319 L 530 1319 L 524 1274 L 352 1257 L 600 629 L 975 1257 L 807 1274 L 813 1319 L 1171 1319 L 1165 1274 Z M 591 1395 L 565 1419 L 839 1800 L 931 1706 L 591 1395 Z" unicode="" />
<glyph horiz-adv-x="967" d="M 967 786 C 967 713 953 648 925 592 C 897 535 859 487 812 448 C 764 409 709 379 647 359 C 585 338 519 328 451 328 C 440 328 426 328 409 329 C 392 329 379 330 369 332 L 338 61 L 539 45 L 532 0 L 25 0 L 31 45 L 190 61 L 324 1257 L 164 1274 L 170 1319 L 637 1319 L 631 1274 L 471 1257 L 453 1098 L 614 1098 C 662 1098 708 1091 751 1077 C 794 1063 832 1042 864 1016 C 896 989 921 956 939 918 C 957 879 967 835 967 786 Z M 803 776 C 803 815 797 851 786 884 C 775 916 759 944 739 967 C 718 990 693 1008 663 1021 C 633 1033 599 1040 561 1040 C 540 1040 520 1039 502 1038 C 483 1037 464 1035 446 1032 L 375 389 C 387 387 399 386 412 386 C 425 385 438 385 451 385 C 566 385 653 419 713 487 C 773 555 803 652 803 776 Z" unicode="" />
<glyph horiz-adv-x="946" d="M 887 213 C 887 177 879 144 863 115 C 847 86 826 61 800 40 C 773 19 742 3 707 -8 C 671 -19 634 -25 596 -25 C 561 -25 528 -21 498 -13 C 468 -5 441 6 419 20 C 397 34 379 50 367 70 C 354 89 348 110 348 133 C 348 161 355 186 369 208 C 383 230 405 242 434 246 C 440 213 449 183 461 156 C 472 129 486 106 502 87 C 518 68 536 53 557 43 C 577 32 600 27 625 27 C 647 27 667 30 685 38 C 702 45 717 55 729 68 C 741 80 750 95 756 113 C 762 130 766 148 766 168 C 766 191 761 213 753 233 C 745 253 734 273 720 291 C 706 309 689 327 670 345 C 650 363 630 381 608 399 C 586 417 564 436 544 455 C 524 474 506 494 490 516 C 474 537 461 560 452 585 C 442 610 438 638 438 668 C 438 712 444 750 458 784 C 472 817 491 846 516 872 C 541 898 571 920 606 939 C 640 958 679 975 721 991 C 736 1016 748 1045 757 1077 C 765 1109 770 1144 770 1184 C 770 1211 766 1238 759 1265 C 751 1292 740 1316 725 1338 C 709 1359 690 1376 666 1389 C 642 1402 614 1409 582 1409 C 538 1409 502 1397 472 1375 C 442 1353 417 1323 397 1287 C 377 1251 361 1210 351 1165 C 340 1119 332 1074 328 1028 L 225 70 C 216 -13 202 -91 183 -163 C 164 -235 140 -298 111 -352 C 81 -406 47 -448 8 -479 C -30 -510 -74 -526 -123 -526 C -137 -526 -151 -524 -165 -520 C -179 -516 -191 -511 -202 -504 C -212 -496 -221 -487 -228 -476 C -234 -465 -238 -452 -238 -438 C -238 -410 -229 -387 -213 -369 L 4 -406 C 21 -387 34 -360 42 -324 C 50 -288 57 -246 63 -199 L 188 983 C 194 1047 209 1109 231 1169 C 253 1228 282 1280 318 1326 C 354 1371 398 1407 448 1434 C 498 1461 554 1475 618 1475 C 656 1475 691 1468 725 1454 C 759 1440 788 1422 814 1398 C 840 1374 860 1346 875 1314 C 889 1281 897 1246 897 1208 C 897 1164 892 1124 884 1086 C 875 1048 860 1013 840 983 C 802 975 767 963 733 949 C 699 935 669 917 643 896 C 617 874 596 849 580 821 C 564 792 557 759 557 721 C 557 694 561 669 571 647 C 580 625 592 604 607 584 C 622 564 639 546 659 528 C 678 510 698 492 719 475 C 739 457 760 439 780 421 C 800 402 818 382 834 361 C 850 339 862 316 872 292 C 882 268 887 241 887 213 Z" unicode="" />
<glyph horiz-adv-x="889" d="M 858 92 C 836 60 809 34 777 14 C 745 -6 709 -16 670 -16 C 653 -16 633 -14 611 -10 C 589 -6 571 -2 559 4 C 560 37 562 70 564 102 C 566 134 569 167 573 201 L 571 201 C 542 129 503 74 454 34 C 405 -5 351 -25 291 -25 C 251 -25 216 -16 186 1 C 156 19 132 42 112 72 C 92 102 77 136 67 175 C 57 214 53 255 53 299 C 53 373 63 445 83 515 C 103 585 131 647 168 702 C 205 757 250 801 303 835 C 356 868 416 885 483 885 C 510 885 537 878 565 864 C 593 850 618 830 641 805 L 649 856 L 774 874 L 782 874 L 715 336 C 713 320 710 304 708 286 C 706 268 704 249 702 231 C 700 212 699 194 698 176 C 696 158 696 142 696 127 C 696 110 696 95 696 81 C 696 67 696 55 698 45 C 710 43 723 45 736 49 C 749 53 762 58 774 65 C 786 72 797 80 807 90 C 817 100 826 110 834 121 L 858 92 Z M 633 750 C 612 776 589 796 565 808 C 541 820 516 827 492 827 C 444 827 402 812 366 782 C 330 752 299 711 275 660 C 251 609 232 550 220 483 C 207 415 201 344 201 270 C 201 245 202 219 206 193 C 210 167 217 143 227 121 C 237 99 250 80 268 66 C 285 52 308 45 336 45 C 368 45 399 56 427 78 C 455 100 481 131 504 171 C 526 211 546 258 562 314 C 578 370 591 431 600 498 L 633 750 Z M 577 958 L 319 1284 L 421 1366 L 605 981 L 577 958 Z" unicode="" />
<glyph horiz-adv-x="889" d="M 858 92 C 836 60 809 34 777 14 C 745 -6 709 -16 670 -16 C 653 -16 633 -14 611 -10 C 589 -6 571 -2 559 4 C 560 37 562 70 564 102 C 566 134 569 167 573 201 L 571 201 C 542 129 503 74 454 34 C 405 -5 351 -25 291 -25 C 251 -25 216 -16 186 1 C 156 19 132 42 112 72 C 92 102 77 136 67 175 C 57 214 53 255 53 299 C 53 373 63 445 83 515 C 103 585 131 647 168 702 C 205 757 250 801 303 835 C 356 868 416 885 483 885 C 510 885 537 878 565 864 C 593 850 618 830 641 805 L 649 856 L 774 874 L 782 874 L 715 336 C 713 320 710 304 708 286 C 706 268 704 249 702 231 C 700 212 699 194 698 176 C 696 158 696 142 696 127 C 696 110 696 95 696 81 C 696 67 696 55 698 45 C 710 43 723 45 736 49 C 749 53 762 58 774 65 C 786 72 797 80 807 90 C 817 100 826 110 834 121 L 858 92 Z M 633 750 C 612 776 589 796 565 808 C 541 820 516 827 492 827 C 444 827 402 812 366 782 C 330 752 299 711 275 660 C 251 609 232 550 220 483 C 207 415 201 344 201 270 C 201 245 202 219 206 193 C 210 167 217 143 227 121 C 237 99 250 80 268 66 C 285 52 308 45 336 45 C 368 45 399 56 427 78 C 455 100 481 131 504 171 C 526 211 546 258 562 314 C 578 370 591 431 600 498 L 633 750 Z M 423 961 L 397 985 L 671 1366 L 763 1272 L 423 961 Z" unicode="" />
<glyph horiz-adv-x="889" d="M 858 92 C 836 60 809 34 777 14 C 745 -6 709 -16 670 -16 C 653 -16 633 -14 611 -10 C 589 -6 571 -2 559 4 C 560 37 562 70 564 102 C 566 134 569 167 573 201 L 571 201 C 542 129 503 74 454 34 C 405 -5 351 -25 291 -25 C 251 -25 216 -16 186 1 C 156 19 132 42 112 72 C 92 102 77 136 67 175 C 57 214 53 255 53 299 C 53 373 63 445 83 515 C 103 585 131 647 168 702 C 205 757 250 801 303 835 C 356 868 416 885 483 885 C 510 885 537 878 565 864 C 593 850 618 830 641 805 L 649 856 L 774 874 L 782 874 L 715 336 C 713 320 710 304 708 286 C 706 268 704 249 702 231 C 700 212 699 194 698 176 C 696 158 696 142 696 127 C 696 110 696 95 696 81 C 696 67 696 55 698 45 C 710 43 723 45 736 49 C 749 53 762 58 774 65 C 786 72 797 80 807 90 C 817 100 826 110 834 121 L 858 92 Z M 633 750 C 612 776 589 796 565 808 C 541 820 516 827 492 827 C 444 827 402 812 366 782 C 330 752 299 711 275 660 C 251 609 232 550 220 483 C 207 415 201 344 201 270 C 201 245 202 219 206 193 C 210 167 217 143 227 121 C 237 99 250 80 268 66 C 285 52 308 45 336 45 C 368 45 399 56 427 78 C 455 100 481 131 504 171 C 526 211 546 258 562 314 C 578 370 591 431 600 498 L 633 750 Z M 712 950 L 532 1200 L 280 950 L 255 969 L 542 1368 L 563 1368 L 739 967 L 712 950 Z" unicode="" />
<glyph horiz-adv-x="889" d="M 858 92 C 836 60 809 34 777 14 C 745 -6 709 -16 670 -16 C 653 -16 633 -14 611 -10 C 589 -6 571 -2 559 4 C 560 37 562 70 564 102 C 566 134 569 167 573 201 L 571 201 C 542 129 503 74 454 34 C 405 -5 351 -25 291 -25 C 251 -25 216 -16 186 1 C 156 19 132 42 112 72 C 92 102 77 136 67 175 C 57 214 53 255 53 299 C 53 373 63 445 83 515 C 103 585 131 647 168 702 C 205 757 250 801 303 835 C 356 868 416 885 483 885 C 510 885 537 878 565 864 C 593 850 618 830 641 805 L 649 856 L 774 874 L 782 874 L 715 336 C 713 320 710 304 708 286 C 706 268 704 249 702 231 C 700 212 699 194 698 176 C 696 158 696 142 696 127 C 696 110 696 95 696 81 C 696 67 696 55 698 45 C 710 43 723 45 736 49 C 749 53 762 58 774 65 C 786 72 797 80 807 90 C 817 100 826 110 834 121 L 858 92 Z M 633 750 C 612 776 589 796 565 808 C 541 820 516 827 492 827 C 444 827 402 812 366 782 C 330 752 299 711 275 660 C 251 609 232 550 220 483 C 207 415 201 344 201 270 C 201 245 202 219 206 193 C 210 167 217 143 227 121 C 237 99 250 80 268 66 C 285 52 308 45 336 45 C 368 45 399 56 427 78 C 455 100 481 131 504 171 C 526 211 546 258 562 314 C 578 370 591 431 600 498 L 633 750 Z M 814 1219 C 804 1198 791 1176 777 1153 C 762 1129 746 1108 729 1088 C 711 1068 693 1052 673 1039 C 653 1026 633 1020 613 1020 C 594 1020 574 1025 554 1037 C 533 1048 512 1060 491 1074 C 470 1087 449 1099 429 1111 C 409 1122 389 1128 371 1128 C 356 1128 342 1124 330 1118 C 318 1112 306 1103 295 1093 C 284 1083 274 1071 265 1058 C 255 1045 246 1032 238 1020 L 211 1040 C 221 1060 233 1082 248 1106 C 262 1129 278 1150 296 1170 C 313 1190 331 1206 351 1219 C 371 1232 391 1239 412 1239 C 430 1239 450 1233 470 1222 C 490 1210 511 1198 532 1184 C 553 1170 574 1158 595 1147 C 615 1135 635 1130 654 1130 C 668 1130 682 1133 694 1140 C 706 1146 718 1155 729 1165 C 740 1175 750 1187 760 1200 C 769 1213 778 1226 787 1239 L 814 1219 Z" unicode="" />
<glyph horiz-adv-x="889" d="M 858 92 C 836 60 809 34 777 14 C 745 -6 709 -16 670 -16 C 653 -16 633 -14 611 -10 C 589 -6 571 -2 559 4 C 560 37 562 70 564 102 C 566 134 569 167 573 201 L 571 201 C 542 129 503 74 454 34 C 405 -5 351 -25 291 -25 C 251 -25 216 -16 186 1 C 156 19 132 42 112 72 C 92 102 77 136 67 175 C 57 214 53 255 53 299 C 53 373 63 445 83 515 C 103 585 131 647 168 702 C 205 757 250 801 303 835 C 356 868 416 885 483 885 C 510 885 537 878 565 864 C 593 850 618 830 641 805 L 649 856 L 774 874 L 782 874 L 715 336 C 713 320 710 304 708 286 C 706 268 704 249 702 231 C 700 212 699 194 698 176 C 696 158 696 142 696 127 C 696 110 696 95 696 81 C 696 67 696 55 698 45 C 710 43 723 45 736 49 C 749 53 762 58 774 65 C 786 72 797 80 807 90 C 817 100 826 110 834 121 L 858 92 Z M 633 750 C 612 776 589 796 565 808 C 541 820 516 827 492 827 C 444 827 402 812 366 782 C 330 752 299 711 275 660 C 251 609 232 550 220 483 C 207 415 201 344 201 270 C 201 245 202 219 206 193 C 210 167 217 143 227 121 C 237 99 250 80 268 66 C 285 52 308 45 336 45 C 368 45 399 56 427 78 C 455 100 481 131 504 171 C 526 211 546 258 562 314 C 578 370 591 431 600 498 L 633 750 Z M 763 1122 C 763 1097 755 1076 740 1058 C 725 1040 705 1032 681 1032 C 656 1032 636 1040 621 1058 C 606 1076 599 1097 599 1122 C 599 1146 606 1167 621 1185 C 636 1203 656 1212 681 1212 C 705 1212 725 1203 740 1185 C 755 1167 763 1146 763 1122 Z M 454 1122 C 454 1097 446 1076 431 1058 C 416 1040 396 1032 372 1032 C 347 1032 327 1040 312 1058 C 297 1076 290 1097 290 1122 C 290 1146 297 1167 312 1185 C 327 1203 347 1212 372 1212 C 396 1212 416 1203 431 1185 C 446 1167 454 1146 454 1122 Z" unicode="" />
<glyph horiz-adv-x="889" d="M 858 92 C 836 60 809 34 777 14 C 745 -6 709 -16 670 -16 C 653 -16 633 -14 611 -10 C 589 -6 571 -2 559 4 C 560 37 562 70 564 102 C 566 134 569 167 573 201 L 571 201 C 542 129 503 74 454 34 C 405 -5 351 -25 291 -25 C 251 -25 216 -16 186 1 C 156 19 132 42 112 72 C 92 102 77 136 67 175 C 57 214 53 255 53 299 C 53 373 63 445 83 515 C 103 585 131 647 168 702 C 205 757 250 801 303 835 C 356 868 416 885 483 885 C 510 885 537 878 565 864 C 593 850 618 830 641 805 L 649 856 L 774 874 L 782 874 L 715 336 C 713 320 710 304 708 286 C 706 268 704 249 702 231 C 700 212 699 194 698 176 C 696 158 696 142 696 127 C 696 110 696 95 696 81 C 696 67 696 55 698 45 C 710 43 723 45 736 49 C 749 53 762 58 774 65 C 786 72 797 80 807 90 C 817 100 826 110 834 121 L 858 92 Z M 633 750 C 612 776 589 796 565 808 C 541 820 516 827 492 827 C 444 827 402 812 366 782 C 330 752 299 711 275 660 C 251 609 232 550 220 483 C 207 415 201 344 201 270 C 201 245 202 219 206 193 C 210 167 217 143 227 121 C 237 99 250 80 268 66 C 285 52 308 45 336 45 C 368 45 399 56 427 78 C 455 100 481 131 504 171 C 526 211 546 258 562 314 C 578 370 591 431 600 498 L 633 750 Z M 730 1186 C 730 1156 724 1128 714 1102 C 704 1076 689 1053 670 1034 C 651 1015 628 1000 602 989 C 576 978 547 973 515 973 C 489 973 465 977 445 986 C 424 994 406 1006 391 1021 C 376 1036 365 1054 357 1075 C 349 1095 345 1117 345 1141 C 345 1171 350 1199 360 1225 C 370 1251 385 1273 404 1292 C 423 1311 446 1326 472 1337 C 498 1348 528 1354 560 1354 C 585 1354 608 1349 629 1341 C 650 1332 668 1320 683 1305 C 698 1290 710 1272 718 1252 C 726 1231 730 1209 730 1186 Z M 638 1194 C 638 1208 636 1221 633 1235 C 629 1248 624 1260 618 1270 C 611 1280 602 1289 592 1295 C 582 1301 570 1305 556 1305 C 535 1305 517 1299 502 1289 C 487 1279 475 1265 465 1249 C 455 1233 448 1214 444 1194 C 439 1173 437 1153 437 1133 C 437 1118 438 1104 442 1091 C 445 1077 450 1065 457 1055 C 464 1045 473 1037 483 1031 C 493 1025 506 1022 521 1022 C 541 1022 559 1027 574 1037 C 588 1047 600 1061 610 1077 C 619 1093 626 1112 631 1132 C 635 1152 638 1173 638 1194 Z" unicode="" />
<glyph horiz-adv-x="1284" d="M 1241 717 C 1241 681 1233 648 1218 619 C 1202 589 1181 563 1155 540 C 1129 516 1098 496 1064 478 C 1029 460 992 445 954 431 C 915 417 876 405 836 395 C 796 385 757 376 721 369 C 720 367 719 362 719 355 C 719 348 719 341 719 333 C 719 325 719 318 719 312 C 719 305 719 301 719 299 C 719 265 723 232 732 201 C 741 170 754 143 771 119 C 788 95 809 76 835 62 C 860 48 889 41 922 41 C 973 41 1020 57 1063 89 C 1106 121 1142 166 1171 223 L 1210 188 C 1174 122 1130 70 1076 32 C 1022 -5 956 -25 877 -25 C 839 -25 804 -19 773 -7 C 741 4 713 20 689 41 C 665 61 644 86 628 115 C 611 143 598 175 590 209 L 586 209 C 569 173 551 141 531 113 C 511 84 488 59 464 39 C 440 18 413 2 385 -8 C 356 -19 325 -25 291 -25 C 251 -25 216 -16 186 1 C 156 19 132 42 112 72 C 92 102 77 136 67 175 C 57 214 53 255 53 299 C 53 373 63 445 83 515 C 103 585 131 647 168 702 C 205 757 250 801 303 835 C 356 868 416 885 483 885 C 510 885 537 878 565 864 C 593 850 618 830 641 805 L 649 856 L 766 874 L 774 874 L 762 778 C 824 849 908 885 1016 885 C 1046 885 1075 881 1103 873 C 1130 865 1154 854 1174 840 C 1194 826 1211 808 1223 788 C 1235 767 1241 743 1241 717 Z M 1102 713 C 1102 752 1093 783 1076 806 C 1059 828 1032 840 995 840 C 951 840 914 827 883 801 C 851 775 825 741 803 701 C 781 660 763 615 751 565 C 738 515 729 466 725 418 C 776 428 824 441 870 455 C 916 469 956 487 990 509 C 1024 531 1052 558 1072 591 C 1092 624 1102 665 1102 713 Z M 633 750 C 612 776 589 796 565 808 C 541 820 516 827 492 827 C 444 827 402 812 366 782 C 330 752 299 711 275 660 C 251 609 232 550 220 483 C 207 415 201 344 201 270 C 201 245 202 219 206 193 C 210 167 217 143 227 121 C 237 99 250 80 268 66 C 285 52 308 45 336 45 C 368 45 399 56 427 78 C 455 100 481 131 504 171 C 526 211 546 258 562 314 C 578 370 591 431 600 498 L 633 750 Z" unicode="" />
<glyph horiz-adv-x="741" d="M 709 745 C 709 712 700 687 682 669 C 664 651 639 643 606 643 L 532 827 C 518 835 499 840 475 840 C 445 840 418 833 394 819 C 369 805 346 787 326 763 C 306 739 288 711 272 679 C 256 647 243 612 233 575 C 222 537 214 498 209 458 C 203 417 201 376 201 336 C 201 295 204 257 212 221 C 219 185 231 154 247 128 C 263 101 283 80 309 64 C 335 48 366 41 403 41 C 451 41 497 57 540 89 C 582 121 618 166 647 223 L 686 188 C 668 155 648 125 626 99 C 604 73 580 50 554 32 C 527 14 498 0 466 -10 C 434 -20 400 -25 362 -25 C 310 -25 264 -14 225 5 C 186 25 153 53 127 87 C 101 121 81 160 68 205 C 55 249 49 296 49 346 C 49 416 58 484 78 549 C 97 614 125 671 163 721 C 200 771 246 810 301 840 C 356 870 420 885 492 885 C 519 885 546 882 572 876 C 598 870 621 862 641 850 C 661 838 678 824 690 807 C 702 789 709 769 709 745 Z M 476 -299 C 476 -333 468 -363 454 -391 C 440 -419 420 -443 396 -463 C 371 -483 342 -498 309 -509 C 275 -520 240 -526 203 -526 C 185 -526 167 -523 148 -519 C 129 -514 111 -507 95 -498 L 115 -451 C 129 -457 145 -461 163 -465 C 180 -469 197 -471 214 -471 C 259 -471 295 -458 321 -434 C 347 -409 361 -375 361 -332 C 361 -314 357 -299 349 -285 C 341 -271 330 -259 317 -249 C 303 -239 288 -230 272 -224 C 255 -217 238 -212 220 -209 L 339 0 L 384 0 L 345 -141 C 363 -148 379 -156 395 -165 C 411 -174 425 -185 437 -197 C 449 -209 458 -224 465 -240 C 472 -256 476 -276 476 -299 Z" unicode="" />
<glyph horiz-adv-x="766" d="M 723 717 C 723 681 715 648 700 619 C 684 589 663 563 637 540 C 611 516 580 496 546 478 C 511 460 474 445 436 431 C 397 417 358 405 318 395 C 278 385 239 376 203 369 C 202 367 201 362 201 355 C 201 348 201 341 201 333 C 201 325 201 318 201 312 C 201 305 201 301 201 299 C 201 265 205 232 214 201 C 222 170 235 143 252 119 C 269 95 290 76 316 62 C 341 48 370 41 403 41 C 455 41 502 57 545 89 C 588 121 624 166 653 223 L 692 188 C 656 122 612 70 558 32 C 504 -5 438 -25 360 -25 C 310 -25 265 -15 227 4 C 188 24 155 50 129 84 C 103 117 83 156 69 200 C 55 244 49 290 49 340 C 49 410 58 478 78 544 C 97 610 126 668 164 718 C 202 768 249 809 305 839 C 361 869 425 885 498 885 C 528 885 557 881 585 873 C 612 865 636 854 656 840 C 676 826 693 808 705 788 C 717 767 723 743 723 717 Z M 584 713 C 584 752 575 783 558 806 C 541 828 514 840 477 840 C 433 840 396 827 365 801 C 333 775 307 741 285 701 C 263 660 245 615 233 565 C 220 515 211 466 207 418 C 258 428 306 441 352 455 C 398 469 438 487 472 509 C 506 531 534 558 554 591 C 574 624 584 665 584 713 Z M 538 958 L 280 1284 L 382 1366 L 566 981 L 538 958 Z" unicode="" />
<glyph horiz-adv-x="766" d="M 723 717 C 723 681 715 648 700 619 C 684 589 663 563 637 540 C 611 516 580 496 546 478 C 511 460 474 445 436 431 C 397 417 358 405 318 395 C 278 385 239 376 203 369 C 202 367 201 362 201 355 C 201 348 201 341 201 333 C 201 325 201 318 201 312 C 201 305 201 301 201 299 C 201 265 205 232 214 201 C 222 170 235 143 252 119 C 269 95 290 76 316 62 C 341 48 370 41 403 41 C 455 41 502 57 545 89 C 588 121 624 166 653 223 L 692 188 C 656 122 612 70 558 32 C 504 -5 438 -25 360 -25 C 310 -25 265 -15 227 4 C 188 24 155 50 129 84 C 103 117 83 156 69 200 C 55 244 49 290 49 340 C 49 410 58 478 78 544 C 97 610 126 668 164 718 C 202 768 249 809 305 839 C 361 869 425 885 498 885 C 528 885 557 881 585 873 C 612 865 636 854 656 840 C 676 826 693 808 705 788 C 717 767 723 743 723 717 Z M 584 713 C 584 752 575 783 558 806 C 541 828 514 840 477 840 C 433 840 396 827 365 801 C 333 775 307 741 285 701 C 263 660 245 615 233 565 C 220 515 211 466 207 418 C 258 428 306 441 352 455 C 398 469 438 487 472 509 C 506 531 534 558 554 591 C 574 624 584 665 584 713 Z M 375 961 L 349 985 L 623 1366 L 715 1272 L 375 961 Z" unicode="" />
<glyph horiz-adv-x="766" d="M 723 717 C 723 681 715 648 700 619 C 684 589 663 563 637 540 C 611 516 580 496 546 478 C 511 460 474 445 436 431 C 397 417 358 405 318 395 C 278 385 239 376 203 369 C 202 367 201 362 201 355 C 201 348 201 341 201 333 C 201 325 201 318 201 312 C 201 305 201 301 201 299 C 201 265 205 232 214 201 C 222 170 235 143 252 119 C 269 95 290 76 316 62 C 341 48 370 41 403 41 C 455 41 502 57 545 89 C 588 121 624 166 653 223 L 692 188 C 656 122 612 70 558 32 C 504 -5 438 -25 360 -25 C 310 -25 265 -15 227 4 C 188 24 155 50 129 84 C 103 117 83 156 69 200 C 55 244 49 290 49 340 C 49 410 58 478 78 544 C 97 610 126 668 164 718 C 202 768 249 809 305 839 C 361 869 425 885 498 885 C 528 885 557 881 585 873 C 612 865 636 854 656 840 C 676 826 693 808 705 788 C 717 767 723 743 723 717 Z M 584 713 C 584 752 575 783 558 806 C 541 828 514 840 477 840 C 433 840 396 827 365 801 C 333 775 307 741 285 701 C 263 660 245 615 233 565 C 220 515 211 466 207 418 C 258 428 306 441 352 455 C 398 469 438 487 472 509 C 506 531 534 558 554 591 C 574 624 584 665 584 713 Z M 683 950 L 503 1200 L 251 950 L 226 969 L 513 1368 L 534 1368 L 710 967 L 683 950 Z" unicode="" />
<glyph horiz-adv-x="766" d="M 723 717 C 723 681 715 648 700 619 C 684 589 663 563 637 540 C 611 516 580 496 546 478 C 511 460 474 445 436 431 C 397 417 358 405 318 395 C 278 385 239 376 203 369 C 202 367 201 362 201 355 C 201 348 201 341 201 333 C 201 325 201 318 201 312 C 201 305 201 301 201 299 C 201 265 205 232 214 201 C 222 170 235 143 252 119 C 269 95 290 76 316 62 C 341 48 370 41 403 41 C 455 41 502 57 545 89 C 588 121 624 166 653 223 L 692 188 C 656 122 612 70 558 32 C 504 -5 438 -25 360 -25 C 310 -25 265 -15 227 4 C 188 24 155 50 129 84 C 103 117 83 156 69 200 C 55 244 49 290 49 340 C 49 410 58 478 78 544 C 97 610 126 668 164 718 C 202 768 249 809 305 839 C 361 869 425 885 498 885 C 528 885 557 881 585 873 C 612 865 636 854 656 840 C 676 826 693 808 705 788 C 717 767 723 743 723 717 Z M 584 713 C 584 752 575 783 558 806 C 541 828 514 840 477 840 C 433 840 396 827 365 801 C 333 775 307 741 285 701 C 263 660 245 615 233 565 C 220 515 211 466 207 418 C 258 428 306 441 352 455 C 398 469 438 487 472 509 C 506 531 534 558 554 591 C 574 624 584 665 584 713 Z M 730 1122 C 730 1097 722 1076 707 1058 C 692 1040 672 1032 648 1032 C 623 1032 603 1040 588 1058 C 573 1076 566 1097 566 1122 C 566 1146 573 1167 588 1185 C 603 1203 623 1212 648 1212 C 672 1212 692 1203 707 1185 C 722 1167 730 1146 730 1122 Z M 421 1122 C 421 1097 413 1076 398 1058 C 383 1040 363 1032 339 1032 C 314 1032 294 1040 279 1058 C 264 1076 257 1097 257 1122 C 257 1146 264 1167 279 1185 C 294 1203 314 1212 339 1212 C 363 1212 383 1203 398 1185 C 413 1167 421 1146 421 1122 Z" unicode="" />
<glyph horiz-adv-x="467" d="M 430 92 C 408 60 381 34 349 14 C 316 -6 280 -16 242 -16 C 217 -16 193 -13 170 -8 C 146 -2 127 6 111 20 L 184 618 C 185 632 186 647 188 663 C 189 679 190 694 191 710 C 191 725 192 740 192 754 C 192 768 193 781 193 791 L 63 791 L 61 831 L 348 877 L 354 872 L 250 49 C 274 41 301 43 331 57 C 360 70 385 91 406 121 L 430 92 Z M 352 958 L 94 1284 L 196 1366 L 380 981 L 352 958 Z" unicode="" />
<glyph horiz-adv-x="467" d="M 430 92 C 408 60 381 34 349 14 C 316 -6 280 -16 242 -16 C 217 -16 193 -13 170 -8 C 146 -2 127 6 111 20 L 184 618 C 185 632 186 647 188 663 C 189 679 190 694 191 710 C 191 725 192 740 192 754 C 192 768 193 781 193 791 L 63 791 L 61 831 L 348 877 L 354 872 L 250 49 C 274 41 301 43 331 57 C 360 70 385 91 406 121 L 430 92 Z M 187 961 L 161 985 L 435 1366 L 527 1272 L 187 961 Z" unicode="" />
<glyph horiz-adv-x="467" d="M 459 950 L 299 1200 L 68 950 L 43 969 L 309 1368 L 330 1368 L 485 967 L 459 950 Z M 430 92 C 408 60 381 34 349 14 C 316 -6 280 -16 242 -16 C 217 -16 193 -13 170 -8 C 146 -2 127 6 111 20 L 184 618 C 185 632 186 647 188 663 C 189 679 190 694 191 710 C 191 725 192 740 192 754 C 192 768 193 781 193 791 L 63 791 L 61 831 L 348 877 L 354 872 L 250 49 C 274 41 301 43 331 57 C 360 70 385 91 406 121 L 430 92 Z" unicode="" />
<glyph horiz-adv-x="467" d="M 502 1122 C 502 1097 494 1076 479 1058 C 464 1040 444 1032 420 1032 C 395 1032 375 1040 360 1058 C 345 1076 338 1097 338 1122 C 338 1146 345 1167 360 1185 C 375 1203 395 1212 420 1212 C 444 1212 464 1203 479 1185 C 494 1167 502 1146 502 1122 Z M 233 1122 C 233 1097 225 1076 211 1058 C 196 1040 176 1032 152 1032 C 126 1032 106 1040 92 1058 C 77 1076 70 1097 70 1122 C 70 1146 77 1167 92 1185 C 106 1203 126 1212 152 1212 C 176 1212 196 1203 211 1185 C 225 1167 233 1146 233 1122 Z M 430 92 C 408 60 381 34 349 14 C 316 -6 280 -16 242 -16 C 217 -16 193 -13 170 -8 C 146 -2 127 6 111 20 L 184 618 C 185 632 186 647 188 663 C 189 679 190 694 191 710 C 191 725 192 740 192 754 C 192 768 193 781 193 791 L 63 791 L 61 831 L 348 877 L 354 872 L 250 49 C 274 41 301 43 331 57 C 360 70 385 91 406 121 L 430 92 Z" unicode="" />
<glyph horiz-adv-x="881" d="M 811 639 C 811 537 800 445 778 363 C 756 281 725 211 685 154 C 645 96 597 52 541 21 C 485 -9 424 -25 358 -25 C 308 -25 263 -14 225 6 C 187 26 154 54 128 89 C 102 124 82 164 69 210 C 55 256 49 304 49 354 C 49 422 58 487 78 551 C 97 615 125 671 162 721 C 199 770 244 810 297 840 C 349 870 409 885 477 885 C 499 885 519 882 537 878 C 555 874 571 868 585 862 C 599 855 612 847 624 839 C 636 831 647 823 657 815 L 662 817 C 655 875 643 930 625 983 C 607 1035 585 1086 557 1135 L 303 1016 L 283 1065 L 530 1180 C 500 1225 466 1267 429 1307 C 392 1347 353 1385 311 1421 L 381 1442 C 427 1408 469 1372 509 1336 C 548 1299 584 1261 616 1221 L 848 1331 L 868 1282 L 647 1178 C 756 1023 811 843 811 639 Z M 655 553 C 655 585 652 617 646 651 C 640 685 631 716 617 744 C 603 772 584 795 561 813 C 538 831 509 840 475 840 C 441 840 411 831 385 815 C 358 798 334 776 314 748 C 294 720 276 687 262 651 C 248 615 236 577 227 538 C 218 498 211 459 207 419 C 203 379 201 341 201 307 C 201 275 203 242 209 208 C 215 174 224 144 237 116 C 250 88 267 65 288 47 C 309 29 335 20 367 20 C 403 20 435 28 463 45 C 491 61 516 84 538 112 C 559 140 577 172 592 208 C 607 244 619 282 628 322 C 637 361 644 401 648 441 C 652 481 655 518 655 553 Z" unicode="" />
<glyph horiz-adv-x="950" d="M 920 92 C 898 60 871 34 839 14 C 806 -6 770 -16 731 -16 C 706 -16 682 -13 659 -8 C 636 -2 616 6 600 20 L 698 770 C 682 797 654 811 616 811 C 580 811 544 798 508 773 C 472 747 439 710 409 662 C 379 614 352 555 329 486 C 306 416 289 338 279 250 L 248 0 L 113 0 L 176 512 C 176 521 177 533 179 548 C 181 563 182 579 184 596 C 186 612 187 628 188 643 C 189 658 190 670 190 680 C 190 698 189 716 188 734 C 187 751 185 770 182 791 L 49 791 L 47 831 L 338 872 C 338 846 337 822 337 800 C 336 778 335 755 333 733 C 331 710 328 686 325 662 C 322 638 319 611 315 582 L 317 582 C 335 628 357 670 381 708 C 405 746 430 778 458 804 C 485 830 514 850 545 864 C 576 878 609 885 643 885 C 662 885 682 882 703 876 C 724 870 743 860 761 846 C 778 832 792 814 804 792 C 815 770 821 742 821 709 C 821 701 820 691 820 680 C 819 669 818 658 817 646 C 816 634 815 622 813 610 C 811 598 810 588 809 578 L 739 49 C 763 41 790 43 820 57 C 849 70 874 91 895 121 L 920 92 Z M 851 1219 C 841 1198 828 1176 814 1153 C 799 1129 783 1108 766 1088 C 748 1068 730 1052 710 1039 C 690 1026 670 1020 650 1020 C 631 1020 611 1025 591 1037 C 570 1048 549 1060 528 1074 C 507 1087 486 1099 466 1111 C 446 1122 426 1128 408 1128 C 393 1128 379 1124 367 1118 C 355 1112 343 1103 332 1093 C 321 1083 311 1071 302 1058 C 292 1045 283 1032 275 1020 L 248 1040 C 258 1060 270 1082 285 1106 C 299 1129 315 1150 333 1170 C 350 1190 368 1206 388 1219 C 408 1232 428 1239 449 1239 C 467 1239 487 1233 507 1222 C 527 1210 548 1198 569 1184 C 590 1170 611 1158 632 1147 C 652 1135 672 1130 691 1130 C 705 1130 719 1133 731 1140 C 743 1146 755 1155 766 1165 C 777 1175 787 1187 797 1200 C 806 1213 815 1226 824 1239 L 851 1219 Z" unicode="" />
<glyph horiz-adv-x="836" d="M 786 506 C 786 438 776 373 756 309 C 736 245 708 188 672 139 C 635 89 590 50 537 20 C 484 -10 424 -25 358 -25 C 308 -25 263 -14 225 6 C 187 26 154 54 128 89 C 102 124 82 164 69 210 C 55 256 49 304 49 354 C 49 422 58 487 78 551 C 98 615 126 671 163 721 C 200 770 245 810 298 840 C 350 870 410 885 477 885 C 527 885 571 874 610 854 C 648 833 681 805 707 771 C 733 736 752 696 766 650 C 779 604 786 556 786 506 Z M 635 553 C 635 585 632 617 627 651 C 621 685 612 716 599 744 C 586 772 569 795 548 813 C 527 831 501 840 469 840 C 435 840 405 831 379 815 C 353 798 330 776 310 748 C 290 720 273 687 259 651 C 245 615 234 577 226 538 C 217 498 211 459 207 419 C 203 379 201 341 201 307 C 201 275 203 242 209 208 C 214 174 223 144 236 116 C 249 88 266 65 287 47 C 308 29 335 20 367 20 C 400 20 430 28 456 45 C 482 61 505 84 525 112 C 545 140 562 172 576 208 C 590 244 601 282 610 322 C 618 361 625 401 629 441 C 633 481 635 518 635 553 Z M 548 958 L 290 1284 L 392 1366 L 576 981 L 548 958 Z" unicode="" />
<glyph horiz-adv-x="836" d="M 786 506 C 786 438 776 373 756 309 C 736 245 708 188 672 139 C 635 89 590 50 537 20 C 484 -10 424 -25 358 -25 C 308 -25 263 -14 225 6 C 187 26 154 54 128 89 C 102 124 82 164 69 210 C 55 256 49 304 49 354 C 49 422 58 487 78 551 C 98 615 126 671 163 721 C 200 770 245 810 298 840 C 350 870 410 885 477 885 C 527 885 571 874 610 854 C 648 833 681 805 707 771 C 733 736 752 696 766 650 C 779 604 786 556 786 506 Z M 635 553 C 635 585 632 617 627 651 C 621 685 612 716 599 744 C 586 772 569 795 548 813 C 527 831 501 840 469 840 C 435 840 405 831 379 815 C 353 798 330 776 310 748 C 290 720 273 687 259 651 C 245 615 234 577 226 538 C 217 498 211 459 207 419 C 203 379 201 341 201 307 C 201 275 203 242 209 208 C 214 174 223 144 236 116 C 249 88 266 65 287 47 C 308 29 335 20 367 20 C 400 20 430 28 456 45 C 482 61 505 84 525 112 C 545 140 562 172 576 208 C 590 244 601 282 610 322 C 618 361 625 401 629 441 C 633 481 635 518 635 553 Z M 403 961 L 377 985 L 651 1366 L 743 1272 L 403 961 Z" unicode="" />
<glyph horiz-adv-x="836" d="M 786 506 C 786 438 776 373 756 309 C 736 245 708 188 672 139 C 635 89 590 50 537 20 C 484 -10 424 -25 358 -25 C 308 -25 263 -14 225 6 C 187 26 154 54 128 89 C 102 124 82 164 69 210 C 55 256 49 304 49 354 C 49 422 58 487 78 551 C 98 615 126 671 163 721 C 200 770 245 810 298 840 C 350 870 410 885 477 885 C 527 885 571 874 610 854 C 648 833 681 805 707 771 C 733 736 752 696 766 650 C 779 604 786 556 786 506 Z M 635 553 C 635 585 632 617 627 651 C 621 685 612 716 599 744 C 586 772 569 795 548 813 C 527 831 501 840 469 840 C 435 840 405 831 379 815 C 353 798 330 776 310 748 C 290 720 273 687 259 651 C 245 615 234 577 226 538 C 217 498 211 459 207 419 C 203 379 201 341 201 307 C 201 275 203 242 209 208 C 214 174 223 144 236 116 C 249 88 266 65 287 47 C 308 29 335 20 367 20 C 400 20 430 28 456 45 C 482 61 505 84 525 112 C 545 140 562 172 576 208 C 590 244 601 282 610 322 C 618 361 625 401 629 441 C 633 481 635 518 635 553 Z M 695 950 L 515 1200 L 263 950 L 238 969 L 525 1368 L 546 1368 L 722 967 L 695 950 Z" unicode="" />
<glyph horiz-adv-x="836" d="M 786 506 C 786 438 776 373 756 309 C 736 245 708 188 672 139 C 635 89 590 50 537 20 C 484 -10 424 -25 358 -25 C 308 -25 263 -14 225 6 C 187 26 154 54 128 89 C 102 124 82 164 69 210 C 55 256 49 304 49 354 C 49 422 58 487 78 551 C 98 615 126 671 163 721 C 200 770 245 810 298 840 C 350 870 410 885 477 885 C 527 885 571 874 610 854 C 648 833 681 805 707 771 C 733 736 752 696 766 650 C 779 604 786 556 786 506 Z M 635 553 C 635 585 632 617 627 651 C 621 685 612 716 599 744 C 586 772 569 795 548 813 C 527 831 501 840 469 840 C 435 840 405 831 379 815 C 353 798 330 776 310 748 C 290 720 273 687 259 651 C 245 615 234 577 226 538 C 217 498 211 459 207 419 C 203 379 201 341 201 307 C 201 275 203 242 209 208 C 214 174 223 144 236 116 C 249 88 266 65 287 47 C 308 29 335 20 367 20 C 400 20 430 28 456 45 C 482 61 505 84 525 112 C 545 140 562 172 576 208 C 590 244 601 282 610 322 C 618 361 625 401 629 441 C 633 481 635 518 635 553 Z M 798 1219 C 788 1198 775 1176 761 1153 C 746 1129 730 1108 713 1088 C 695 1068 677 1052 657 1039 C 637 1026 617 1020 597 1020 C 578 1020 558 1025 538 1037 C 517 1048 496 1060 475 1074 C 454 1087 433 1099 413 1111 C 393 1122 373 1128 355 1128 C 340 1128 326 1124 314 1118 C 302 1112 290 1103 279 1093 C 268 1083 258 1071 249 1058 C 239 1045 230 1032 222 1020 L 195 1040 C 205 1060 217 1082 232 1106 C 246 1129 262 1150 280 1170 C 297 1190 315 1206 335 1219 C 355 1232 375 1239 396 1239 C 414 1239 434 1233 454 1222 C 474 1210 495 1198 516 1184 C 537 1170 558 1158 579 1147 C 599 1135 619 1130 638 1130 C 652 1130 666 1133 678 1140 C 690 1146 702 1155 713 1165 C 724 1175 734 1187 744 1200 C 753 1213 762 1226 771 1239 L 798 1219 Z" unicode="" />
<glyph horiz-adv-x="836" d="M 786 506 C 786 438 776 373 756 309 C 736 245 708 188 672 139 C 635 89 590 50 537 20 C 484 -10 424 -25 358 -25 C 308 -25 263 -14 225 6 C 187 26 154 54 128 89 C 102 124 82 164 69 210 C 55 256 49 304 49 354 C 49 422 58 487 78 551 C 98 615 126 671 163 721 C 200 770 245 810 298 840 C 350 870 410 885 477 885 C 527 885 571 874 610 854 C 648 833 681 805 707 771 C 733 736 752 696 766 650 C 779 604 786 556 786 506 Z M 635 553 C 635 585 632 617 627 651 C 621 685 612 716 599 744 C 586 772 569 795 548 813 C 527 831 501 840 469 840 C 435 840 405 831 379 815 C 353 798 330 776 310 748 C 290 720 273 687 259 651 C 245 615 234 577 226 538 C 217 498 211 459 207 419 C 203 379 201 341 201 307 C 201 275 203 242 209 208 C 214 174 223 144 236 116 C 249 88 266 65 287 47 C 308 29 335 20 367 20 C 400 20 430 28 456 45 C 482 61 505 84 525 112 C 545 140 562 172 576 208 C 590 244 601 282 610 322 C 618 361 625 401 629 441 C 633 481 635 518 635 553 Z M 738 1122 C 738 1097 730 1076 715 1058 C 700 1040 680 1032 656 1032 C 631 1032 611 1040 596 1058 C 581 1076 574 1097 574 1122 C 574 1146 581 1167 596 1185 C 611 1203 631 1212 656 1212 C 680 1212 700 1203 715 1185 C 730 1167 738 1146 738 1122 Z M 429 1122 C 429 1097 421 1076 406 1058 C 391 1040 371 1032 347 1032 C 322 1032 302 1040 287 1058 C 272 1076 265 1097 265 1122 C 265 1146 272 1167 287 1185 C 302 1203 322 1212 347 1212 C 371 1212 391 1203 406 1185 C 421 1167 429 1146 429 1122 Z" unicode="" />
<glyph horiz-adv-x="1229" d="M 719 942 C 719 928 716 914 710 902 C 704 889 697 878 688 868 C 678 858 667 851 655 846 C 642 840 628 838 614 838 C 600 838 586 840 574 846 C 561 851 550 858 540 868 C 530 878 523 889 518 902 C 512 914 510 928 510 942 C 510 956 512 969 518 982 C 523 995 530 1006 540 1016 C 550 1025 561 1032 574 1038 C 586 1044 600 1047 614 1047 C 628 1047 642 1044 655 1038 C 667 1032 678 1025 688 1016 C 697 1006 704 995 710 982 C 716 969 719 956 719 942 Z M 150 567 L 150 645 L 1079 645 L 1079 567 L 150 567 Z M 719 270 C 719 256 716 242 710 230 C 704 217 697 206 688 196 C 678 186 667 179 655 174 C 642 168 628 166 614 166 C 600 166 586 168 574 174 C 561 179 550 186 540 196 C 530 206 523 217 518 230 C 512 242 510 256 510 270 C 510 284 512 298 518 311 C 523 323 530 334 540 344 C 550 353 561 360 574 366 C 586 372 600 375 614 375 C 628 375 642 372 655 366 C 667 360 678 353 688 344 C 697 334 704 323 710 311 C 716 298 719 284 719 270 Z" unicode="" />
<glyph horiz-adv-x="836" d="M 786 506 C 786 438 776 373 756 309 C 736 245 708 188 672 139 C 635 89 590 50 537 20 C 484 -10 424 -25 358 -25 C 321 -25 287 -19 257 -7 C 226 4 199 19 176 39 L 80 -98 L 33 -63 L 135 80 C 106 117 84 159 70 206 C 56 252 49 302 49 354 C 49 422 58 487 78 551 C 98 615 126 671 163 721 C 200 770 245 810 298 840 C 350 870 410 885 477 885 C 514 885 548 879 578 867 C 608 855 635 840 659 821 L 756 958 L 803 924 L 700 780 C 729 743 751 701 765 654 C 779 607 786 558 786 506 Z M 236 119 C 249 89 266 65 287 47 C 308 29 335 20 367 20 C 400 20 430 28 456 45 C 482 61 505 84 525 112 C 545 140 562 172 576 208 C 590 244 601 282 610 322 C 618 361 625 401 629 441 C 633 481 635 518 635 553 C 635 571 634 591 632 613 C 630 635 627 655 623 674 L 236 119 Z M 600 741 C 586 771 569 795 548 813 C 527 831 501 840 469 840 C 435 840 405 831 379 815 C 353 798 330 776 310 748 C 290 720 273 687 259 651 C 245 615 234 577 226 538 C 217 498 211 459 207 419 C 203 379 201 341 201 307 C 201 287 202 267 204 246 C 206 224 209 204 213 186 L 600 741 Z" unicode="" />
<glyph horiz-adv-x="946" d="M 915 92 C 893 60 866 34 834 14 C 802 -6 766 -16 727 -16 C 710 -16 690 -14 668 -10 C 646 -6 628 -2 616 4 C 616 37 617 78 621 127 C 624 176 629 227 635 279 L 633 279 C 615 237 596 198 574 162 C 552 125 527 93 500 65 C 472 37 442 15 410 0 C 377 -16 341 -25 303 -25 C 283 -25 263 -22 242 -16 C 221 -10 202 0 185 13 C 167 27 153 45 142 68 C 130 90 125 118 125 152 C 125 167 125 185 127 207 C 129 228 131 249 135 270 L 168 512 C 168 521 170 533 172 549 C 174 565 176 581 178 598 C 180 614 181 630 183 646 C 185 662 186 674 186 684 C 186 702 185 720 185 736 C 185 752 183 770 180 791 L 49 791 L 47 831 L 330 872 C 330 844 329 818 329 796 C 329 774 328 752 327 731 C 325 709 324 687 322 665 C 320 643 317 618 313 590 L 248 90 C 264 62 291 49 330 49 C 366 49 401 61 437 86 C 473 110 506 146 537 193 C 567 240 594 298 617 367 C 640 435 657 514 668 602 L 698 852 L 836 852 L 772 336 C 770 320 768 304 766 286 C 764 268 762 249 760 231 C 758 212 756 194 755 176 C 754 158 754 142 754 127 C 754 110 754 95 754 81 C 754 67 754 55 756 45 C 768 43 780 45 793 49 C 806 53 819 58 831 65 C 843 72 854 80 864 90 C 874 100 883 110 891 121 L 915 92 Z M 605 958 L 347 1284 L 449 1366 L 633 981 L 605 958 Z" unicode="" />
<glyph horiz-adv-x="946" d="M 915 92 C 893 60 866 34 834 14 C 802 -6 766 -16 727 -16 C 710 -16 690 -14 668 -10 C 646 -6 628 -2 616 4 C 616 37 617 78 621 127 C 624 176 629 227 635 279 L 633 279 C 615 237 596 198 574 162 C 552 125 527 93 500 65 C 472 37 442 15 410 0 C 377 -16 341 -25 303 -25 C 283 -25 263 -22 242 -16 C 221 -10 202 0 185 13 C 167 27 153 45 142 68 C 130 90 125 118 125 152 C 125 167 125 185 127 207 C 129 228 131 249 135 270 L 168 512 C 168 521 170 533 172 549 C 174 565 176 581 178 598 C 180 614 181 630 183 646 C 185 662 186 674 186 684 C 186 702 185 720 185 736 C 185 752 183 770 180 791 L 49 791 L 47 831 L 330 872 C 330 844 329 818 329 796 C 329 774 328 752 327 731 C 325 709 324 687 322 665 C 320 643 317 618 313 590 L 248 90 C 264 62 291 49 330 49 C 366 49 401 61 437 86 C 473 110 506 146 537 193 C 567 240 594 298 617 367 C 640 435 657 514 668 602 L 698 852 L 836 852 L 772 336 C 770 320 768 304 766 286 C 764 268 762 249 760 231 C 758 212 756 194 755 176 C 754 158 754 142 754 127 C 754 110 754 95 754 81 C 754 67 754 55 756 45 C 768 43 780 45 793 49 C 806 53 819 58 831 65 C 843 72 854 80 864 90 C 874 100 883 110 891 121 L 915 92 Z M 452 961 L 426 985 L 700 1366 L 792 1272 L 452 961 Z" unicode="" />
<glyph horiz-adv-x="946" d="M 915 92 C 893 60 866 34 834 14 C 802 -6 766 -16 727 -16 C 710 -16 690 -14 668 -10 C 646 -6 628 -2 616 4 C 616 37 617 78 621 127 C 624 176 629 227 635 279 L 633 279 C 615 237 596 198 574 162 C 552 125 527 93 500 65 C 472 37 442 15 410 0 C 377 -16 341 -25 303 -25 C 283 -25 263 -22 242 -16 C 221 -10 202 0 185 13 C 167 27 153 45 142 68 C 130 90 125 118 125 152 C 125 167 125 185 127 207 C 129 228 131 249 135 270 L 168 512 C 168 521 170 533 172 549 C 174 565 176 581 178 598 C 180 614 181 630 183 646 C 185 662 186 674 186 684 C 186 702 185 720 185 736 C 185 752 183 770 180 791 L 49 791 L 47 831 L 330 872 C 330 844 329 818 329 796 C 329 774 328 752 327 731 C 325 709 324 687 322 665 C 320 643 317 618 313 590 L 248 90 C 264 62 291 49 330 49 C 366 49 401 61 437 86 C 473 110 506 146 537 193 C 567 240 594 298 617 367 C 640 435 657 514 668 602 L 698 852 L 836 852 L 772 336 C 770 320 768 304 766 286 C 764 268 762 249 760 231 C 758 212 756 194 755 176 C 754 158 754 142 754 127 C 754 110 754 95 754 81 C 754 67 754 55 756 45 C 768 43 780 45 793 49 C 806 53 819 58 831 65 C 843 72 854 80 864 90 C 874 100 883 110 891 121 L 915 92 Z M 739 950 L 559 1200 L 307 950 L 282 969 L 569 1368 L 590 1368 L 766 967 L 739 950 Z" unicode="" />
<glyph horiz-adv-x="946" d="M 915 92 C 893 60 866 34 834 14 C 802 -6 766 -16 727 -16 C 710 -16 690 -14 668 -10 C 646 -6 628 -2 616 4 C 616 37 617 78 621 127 C 624 176 629 227 635 279 L 633 279 C 615 237 596 198 574 162 C 552 125 527 93 500 65 C 472 37 442 15 410 0 C 377 -16 341 -25 303 -25 C 283 -25 263 -22 242 -16 C 221 -10 202 0 185 13 C 167 27 153 45 142 68 C 130 90 125 118 125 152 C 125 167 125 185 127 207 C 129 228 131 249 135 270 L 168 512 C 168 521 170 533 172 549 C 174 565 176 581 178 598 C 180 614 181 630 183 646 C 185 662 186 674 186 684 C 186 702 185 720 185 736 C 185 752 183 770 180 791 L 49 791 L 47 831 L 330 872 C 330 844 329 818 329 796 C 329 774 328 752 327 731 C 325 709 324 687 322 665 C 320 643 317 618 313 590 L 248 90 C 264 62 291 49 330 49 C 366 49 401 61 437 86 C 473 110 506 146 537 193 C 567 240 594 298 617 367 C 640 435 657 514 668 602 L 698 852 L 836 852 L 772 336 C 770 320 768 304 766 286 C 764 268 762 249 760 231 C 758 212 756 194 755 176 C 754 158 754 142 754 127 C 754 110 754 95 754 81 C 754 67 754 55 756 45 C 768 43 780 45 793 49 C 806 53 819 58 831 65 C 843 72 854 80 864 90 C 874 100 883 110 891 121 L 915 92 Z M 783 1122 C 783 1097 775 1076 760 1058 C 745 1040 725 1032 701 1032 C 676 1032 656 1040 641 1058 C 626 1076 619 1097 619 1122 C 619 1146 626 1167 641 1185 C 656 1203 676 1212 701 1212 C 725 1212 745 1203 760 1185 C 775 1167 783 1146 783 1122 Z M 474 1122 C 474 1097 466 1076 451 1058 C 436 1040 416 1032 392 1032 C 367 1032 347 1040 332 1058 C 317 1076 310 1097 310 1122 C 310 1146 317 1167 332 1185 C 347 1203 367 1212 392 1212 C 416 1212 436 1203 451 1185 C 466 1167 474 1146 474 1122 Z" unicode="" />
<glyph horiz-adv-x="803" d="M 760 717 C 760 670 752 618 737 561 C 722 504 702 445 676 383 C 650 321 619 258 583 194 C 547 130 507 66 465 4 C 423 -57 378 -117 332 -175 C 286 -232 239 -285 191 -333 C 143 -381 96 -423 50 -459 C 3 -495 -41 -522 -84 -541 L -152 -416 C -106 -402 -62 -384 -19 -362 C 24 -340 65 -315 105 -287 C 145 -259 182 -229 217 -197 C 251 -165 283 -131 311 -96 C 298 -21 283 56 267 137 C 250 217 232 297 214 375 C 196 453 177 527 158 599 C 139 670 121 734 104 791 L 2 791 L -2 831 L 227 872 C 238 834 250 793 262 749 C 274 704 287 657 299 609 C 311 561 323 512 335 462 C 347 412 358 362 368 313 C 378 264 388 217 397 171 C 405 125 413 83 420 45 L 424 45 C 450 85 476 129 502 175 C 528 221 552 269 574 319 C 596 368 615 418 633 468 C 650 518 664 566 674 614 L 565 823 C 575 839 588 854 603 866 C 618 878 636 885 657 885 C 691 885 717 872 734 847 C 751 821 760 778 760 717 Z M 379 961 L 353 985 L 627 1366 L 719 1272 L 379 961 Z" unicode="" />
<glyph horiz-adv-x="879" d="M 827 553 C 827 480 817 409 799 340 C 780 270 753 209 717 155 C 681 101 636 57 583 24 C 530 -8 469 -25 401 -25 C 387 -25 372 -23 356 -19 C 340 -15 324 -10 308 -3 C 292 3 277 12 263 22 C 248 32 235 45 223 59 L 158 -471 L 326 -487 L 322 -524 L -106 -524 L -102 -487 L 20 -471 L 227 1188 C 228 1202 229 1216 231 1232 C 232 1248 233 1263 234 1279 C 234 1294 235 1309 235 1323 C 235 1337 236 1350 236 1360 L 104 1360 L 102 1401 L 385 1442 L 393 1438 L 295 664 L 297 664 C 310 698 327 728 347 755 C 367 782 389 805 414 825 C 438 844 465 859 493 869 C 521 879 549 885 578 885 C 618 885 654 876 685 858 C 716 840 742 816 763 786 C 784 756 800 720 811 680 C 821 640 827 597 827 553 Z M 680 582 C 680 608 677 635 673 663 C 669 690 661 715 651 738 C 641 760 627 779 609 793 C 591 807 568 815 541 815 C 504 815 470 803 440 779 C 410 755 383 722 359 681 C 335 639 315 591 299 536 C 282 481 270 422 262 360 L 231 123 C 239 109 249 97 261 86 C 273 75 286 66 300 58 C 314 50 330 43 346 39 C 362 35 377 33 393 33 C 429 33 462 41 491 57 C 519 73 544 94 566 122 C 587 150 605 182 619 218 C 633 254 645 293 654 334 C 663 374 670 416 674 458 C 678 500 680 542 680 582 Z" unicode="" />
<glyph horiz-adv-x="803" d="M 760 717 C 760 670 752 618 737 561 C 722 504 702 445 676 383 C 650 321 619 258 583 194 C 547 130 507 66 465 4 C 423 -57 378 -117 332 -175 C 286 -232 239 -285 191 -333 C 143 -381 96 -423 50 -459 C 3 -495 -41 -522 -84 -541 L -152 -416 C -106 -402 -62 -384 -19 -362 C 24 -340 65 -315 105 -287 C 145 -259 182 -229 217 -197 C 251 -165 283 -131 311 -96 C 298 -21 283 56 267 137 C 250 217 232 297 214 375 C 196 453 177 527 158 599 C 139 670 121 734 104 791 L 2 791 L -2 831 L 227 872 C 238 834 250 793 262 749 C 274 704 287 657 299 609 C 311 561 323 512 335 462 C 347 412 358 362 368 313 C 378 264 388 217 397 171 C 405 125 413 83 420 45 L 424 45 C 450 85 476 129 502 175 C 528 221 552 269 574 319 C 596 368 615 418 633 468 C 650 518 664 566 674 614 L 565 823 C 575 839 588 854 603 866 C 618 878 636 885 657 885 C 691 885 717 872 734 847 C 751 821 760 778 760 717 Z M 714 1122 C 714 1097 706 1076 691 1058 C 676 1040 656 1032 632 1032 C 607 1032 587 1040 572 1058 C 557 1076 550 1097 550 1122 C 550 1146 557 1167 572 1185 C 587 1203 607 1212 632 1212 C 656 1212 676 1203 691 1185 C 706 1167 714 1146 714 1122 Z M 405 1122 C 405 1097 397 1076 382 1058 C 367 1040 347 1032 323 1032 C 298 1032 278 1040 263 1058 C 248 1076 241 1097 241 1122 C 241 1146 248 1167 263 1185 C 278 1203 298 1212 323 1212 C 347 1212 367 1203 382 1185 C 397 1167 405 1146 405 1122 Z" unicode="" />
<glyph horiz-adv-x="467" d="M 430 92 C 408 60 381 34 349 14 C 316 -6 280 -16 242 -16 C 217 -16 193 -13 170 -8 C 146 -2 127 6 111 20 L 184 618 C 185 632 186 647 188 663 C 189 679 190 694 191 710 C 191 725 192 740 192 754 C 192 768 193 781 193 791 L 63 791 L 61 831 L 348 877 L 354 872 L 250 49 C 274 41 301 43 331 57 C 360 70 385 91 406 121 L 430 92 Z" unicode="" />
<glyph horiz-adv-x="979" d="M 885 0 L 25 0 L 31 45 L 190 61 L 246 571 L 76 479 L 84 553 L 254 645 L 324 1257 L 164 1274 L 170 1319 L 637 1319 L 631 1274 L 471 1257 L 410 719 L 694 872 L 684 799 L 401 645 L 338 66 L 805 66 L 860 311 L 920 311 L 885 0 Z" unicode="" />
<glyph horiz-adv-x="518" d="M 539 811 L 352 711 L 272 49 C 297 41 324 43 353 57 C 382 70 407 91 428 121 L 453 92 C 431 60 404 34 372 14 C 339 -6 303 -16 264 -16 C 239 -16 215 -13 192 -8 C 169 -2 149 6 133 20 L 211 655 L 53 571 L 63 643 L 219 727 L 276 1188 C 278 1202 279 1216 280 1232 C 281 1248 282 1263 283 1279 C 283 1294 284 1309 284 1323 C 284 1337 285 1350 285 1360 L 154 1360 L 152 1401 L 432 1442 L 440 1438 L 360 782 L 549 883 L 539 811 Z" unicode="" />
<glyph horiz-adv-x="1677" d="M 1608 1040 L 1550 1040 L 1548 1253 L 1087 1253 L 1028 719 L 1360 719 L 1395 860 L 1448 860 L 1409 512 L 1356 512 L 1352 653 L 1020 653 L 954 66 L 1438 66 L 1491 299 L 1552 299 L 1520 0 L 758 0 C 730 -5 700 -9 668 -12 C 636 -14 605 -16 573 -16 C 490 -16 418 0 356 34 C 294 67 243 111 203 167 C 162 222 132 286 112 358 C 92 430 82 506 82 584 C 82 684 96 779 125 870 C 154 961 196 1041 252 1110 C 308 1178 376 1233 458 1274 C 539 1314 632 1335 737 1335 C 767 1335 796 1333 826 1331 C 856 1328 885 1324 913 1319 L 1640 1319 L 1608 1040 Z M 936 1225 C 920 1233 905 1241 889 1247 C 873 1253 857 1259 840 1263 C 823 1267 805 1269 785 1271 C 765 1273 744 1274 721 1274 C 664 1274 613 1263 568 1241 C 522 1219 482 1190 447 1154 C 412 1117 382 1074 357 1026 C 331 978 311 927 295 875 C 279 822 267 769 259 715 C 251 661 248 609 248 561 C 248 495 254 432 266 370 C 278 308 298 253 326 205 C 354 157 390 118 434 89 C 478 59 533 45 598 45 C 641 45 679 49 712 57 C 744 65 777 78 811 98 L 936 1225 Z" unicode="" />
<glyph horiz-adv-x="1331" d="M 1288 717 C 1288 681 1280 648 1265 619 C 1249 589 1228 563 1202 540 C 1176 516 1145 496 1111 478 C 1076 460 1039 445 1001 431 C 962 417 923 405 883 395 C 843 385 804 376 768 369 C 767 367 766 362 766 355 C 766 348 766 341 766 333 C 766 325 766 318 766 312 C 766 305 766 301 766 299 C 766 265 770 232 779 201 C 788 170 801 143 818 119 C 835 95 856 76 882 62 C 907 48 936 41 969 41 C 1020 41 1067 57 1110 89 C 1153 121 1189 166 1219 223 L 1257 188 C 1221 122 1177 70 1123 32 C 1069 -5 1003 -25 926 -25 C 864 -25 811 -9 769 22 C 727 53 692 96 666 150 C 622 93 576 50 528 20 C 479 -10 422 -25 358 -25 C 308 -25 263 -14 225 6 C 187 26 154 54 128 89 C 102 124 82 164 69 210 C 55 256 49 304 49 354 C 49 422 58 487 78 551 C 98 615 126 671 163 721 C 200 770 245 810 298 840 C 350 870 410 885 477 885 C 537 885 588 869 630 837 C 672 805 706 761 733 705 C 774 760 822 804 876 836 C 930 868 992 885 1063 885 C 1093 885 1122 881 1150 873 C 1177 865 1201 854 1221 840 C 1241 826 1258 808 1270 788 C 1282 767 1288 743 1288 717 Z M 1149 713 C 1149 752 1140 783 1123 806 C 1106 828 1079 840 1042 840 C 998 840 961 827 930 801 C 898 775 872 741 850 701 C 828 660 811 615 799 565 C 786 515 777 466 772 418 C 823 428 871 441 917 455 C 963 469 1003 487 1037 509 C 1071 531 1099 558 1119 591 C 1139 624 1149 665 1149 713 Z M 635 553 C 635 585 632 617 627 651 C 621 685 612 716 599 744 C 586 772 569 795 548 813 C 527 831 501 840 469 840 C 435 840 405 831 379 815 C 353 798 330 776 310 748 C 290 720 273 687 259 651 C 245 615 234 577 226 538 C 217 498 211 459 207 419 C 203 379 201 341 201 307 C 201 275 203 242 209 208 C 214 174 223 144 236 116 C 249 88 266 65 287 47 C 308 29 335 20 367 20 C 400 20 430 28 456 45 C 482 61 505 84 525 112 C 545 140 562 172 576 208 C 590 244 601 282 610 322 C 618 361 625 401 629 441 C 633 481 635 518 635 553 Z" unicode="" />
<glyph horiz-adv-x="930" d="M 840 985 L 791 985 L 782 1180 C 756 1214 724 1241 684 1260 C 644 1278 602 1288 557 1288 C 515 1288 479 1281 449 1267 C 419 1253 393 1235 373 1213 C 353 1191 338 1166 328 1138 C 318 1110 313 1081 313 1053 C 313 1019 317 989 325 965 C 333 940 346 916 365 894 C 383 871 408 848 439 825 C 469 801 507 774 553 743 C 594 714 631 687 665 661 C 699 635 728 607 752 577 C 776 547 794 515 807 480 C 820 444 827 403 827 356 C 827 296 816 243 795 196 C 774 148 745 108 708 75 C 671 41 627 16 577 -2 C 526 -20 471 -29 412 -29 C 364 -29 316 -23 269 -11 C 222 1 180 18 143 41 L 113 -29 L 61 -29 L 96 381 L 147 385 L 166 150 C 178 130 194 113 214 99 C 234 84 255 72 278 62 C 301 52 325 45 349 40 C 373 35 397 33 420 33 C 462 33 500 39 534 52 C 567 65 595 83 618 107 C 641 131 658 159 670 193 C 682 226 688 263 688 305 C 688 339 683 369 674 395 C 665 421 651 445 632 469 C 613 493 589 516 559 540 C 529 563 494 589 453 618 C 409 648 371 676 337 702 C 303 728 274 756 251 785 C 227 814 209 846 197 880 C 184 914 178 953 178 999 C 178 1048 188 1094 208 1136 C 228 1178 256 1215 291 1247 C 325 1278 366 1303 413 1321 C 459 1339 509 1348 561 1348 C 604 1348 647 1342 690 1330 C 733 1318 773 1301 811 1280 L 842 1348 L 891 1348 L 840 985 Z M 581 1392 L 561 1392 L 376 1794 L 403 1810 L 591 1556 L 852 1810 L 876 1792 L 581 1392 Z" unicode="" />
<glyph horiz-adv-x="659" d="M 610 752 C 610 722 601 699 585 683 C 569 667 546 659 518 659 L 449 827 C 443 830 435 833 424 836 C 412 838 401 840 391 840 C 369 840 348 836 330 829 C 311 822 295 812 281 800 C 267 787 257 772 249 754 C 241 736 238 716 238 694 C 238 670 241 649 248 631 C 255 613 265 595 279 579 C 292 562 308 546 327 530 C 346 514 367 497 391 479 C 414 461 436 442 458 424 C 480 405 499 385 516 364 C 532 343 546 320 556 296 C 566 271 571 243 571 213 C 571 177 563 144 547 115 C 531 86 510 61 484 40 C 457 19 426 3 391 -8 C 356 -19 319 -25 281 -25 C 245 -25 213 -21 183 -13 C 153 -5 126 6 104 20 C 82 34 64 50 52 70 C 39 89 33 110 33 133 C 33 161 40 186 54 208 C 68 230 89 242 119 246 C 125 213 134 183 146 156 C 157 129 171 106 187 87 C 203 68 221 53 241 43 C 261 32 284 27 309 27 C 331 27 351 30 369 38 C 387 45 402 55 414 68 C 426 80 435 95 441 113 C 447 130 451 148 451 168 C 451 191 447 212 439 232 C 431 251 421 269 407 287 C 393 305 376 322 357 338 C 338 354 317 371 295 389 C 271 407 248 426 227 444 C 205 462 187 481 171 501 C 155 521 142 542 133 564 C 123 586 119 611 119 639 C 119 675 126 709 142 739 C 157 769 178 795 204 817 C 230 838 260 855 295 867 C 329 879 366 885 406 885 C 428 885 451 882 475 876 C 499 870 521 862 541 851 C 561 840 577 826 590 810 C 603 793 610 774 610 752 Z M 406 958 L 386 958 L 201 1360 L 228 1376 L 416 1122 L 677 1376 L 701 1358 L 406 958 Z" unicode="" />
<glyph horiz-adv-x="1085" d="M 1165 1274 L 1059 1257 L 627 557 L 571 61 L 731 45 L 725 0 L 258 0 L 264 45 L 424 61 L 477 545 L 195 1257 L 96 1274 L 102 1319 L 530 1319 L 524 1274 L 352 1257 L 600 629 L 975 1257 L 807 1274 L 813 1319 L 1171 1319 L 1165 1274 Z M 918 1552 C 918 1527 910 1506 895 1488 C 880 1470 860 1462 836 1462 C 811 1462 791 1470 776 1488 C 761 1506 754 1527 754 1552 C 754 1576 761 1597 776 1615 C 791 1633 811 1642 836 1642 C 860 1642 880 1633 895 1615 C 910 1597 918 1576 918 1552 Z M 609 1552 C 609 1527 601 1506 586 1488 C 571 1470 551 1462 527 1462 C 502 1462 482 1470 467 1488 C 452 1506 445 1527 445 1552 C 445 1576 452 1597 467 1615 C 482 1633 502 1642 527 1642 C 551 1642 571 1633 586 1615 C 601 1597 609 1576 609 1552 Z" unicode="" />
<glyph horiz-adv-x="1040" d="M 1042 1286 L 193 70 L 846 70 L 907 332 L 967 332 L 930 0 L 4 0 L -6 33 L 848 1253 L 246 1253 L 188 999 L 129 999 L 164 1319 L 1047 1319 L 1042 1286 Z M 594 1392 L 574 1392 L 389 1794 L 416 1810 L 604 1556 L 865 1810 L 889 1792 L 594 1392 Z" unicode="" />
<glyph horiz-adv-x="778" d="M 201 162 C 231 162 259 160 286 158 C 313 155 341 149 371 141 L 647 61 C 656 75 662 90 665 106 C 668 122 670 138 670 156 C 670 168 669 180 667 193 C 665 205 664 217 662 227 L 696 236 C 704 215 710 195 713 175 C 715 155 717 133 717 111 C 717 75 710 41 696 8 C 682 -24 663 -53 639 -78 L 283 25 C 267 29 252 33 238 36 C 224 39 211 42 197 44 C 183 46 169 47 155 48 C 140 48 124 49 106 49 L 70 -18 C 53 -20 39 -18 27 -12 C 15 -5 8 4 4 18 L 580 713 L 170 741 L 115 627 L 78 639 L 150 885 L 668 815 L 721 881 L 764 842 L 201 162 Z M 455 958 L 435 958 L 250 1360 L 277 1376 L 465 1122 L 726 1376 L 750 1358 L 455 958 Z" unicode="" />
<glyph horiz-adv-x="905" d="M 926 1290 C 926 1266 920 1247 910 1231 C 900 1215 884 1201 864 1190 C 863 1190 859 1193 852 1201 C 844 1208 835 1217 824 1228 C 812 1238 800 1250 787 1263 C 774 1275 762 1287 751 1297 C 740 1307 731 1316 724 1323 C 716 1329 713 1333 713 1333 C 684 1333 659 1323 637 1303 C 615 1283 597 1255 581 1220 C 565 1184 551 1142 541 1094 C 530 1045 522 992 516 934 L 489 727 L 795 727 L 786 666 L 481 666 L 438 305 C 433 264 427 222 421 178 C 414 134 404 90 392 48 C 380 6 364 -34 345 -72 C 325 -110 301 -143 273 -172 C 244 -200 210 -223 170 -240 C 130 -257 83 -266 29 -266 C 9 -266 -8 -263 -26 -259 C -44 -255 -59 -248 -72 -239 C -85 -230 -95 -219 -103 -205 C -111 -191 -115 -176 -115 -158 C -115 -142 -110 -127 -100 -111 C -90 -95 -77 -85 -61 -80 C -27 -104 3 -125 30 -143 C 41 -151 52 -158 63 -166 C 74 -174 84 -180 92 -186 C 100 -192 107 -196 113 -200 C 118 -203 121 -205 121 -205 C 141 -205 159 -197 175 -182 C 191 -167 206 -142 220 -106 C 234 -70 246 -23 257 35 C 268 94 279 168 289 256 L 336 666 L 129 666 L 137 727 L 344 727 L 362 885 C 370 957 384 1023 404 1084 C 424 1145 452 1198 486 1242 C 520 1286 561 1321 609 1346 C 657 1371 712 1384 776 1384 C 794 1384 813 1382 831 1378 C 849 1374 865 1369 879 1361 C 893 1353 904 1344 913 1332 C 921 1320 926 1306 926 1290 Z" unicode="" />
<glyph horiz-adv-x="1024" d="M 727 950 L 547 1200 L 295 950 L 270 969 L 557 1368 L 578 1368 L 754 967 L 727 950 Z" unicode="" />
<glyph horiz-adv-x="1024" d="M 520 958 L 500 958 L 315 1360 L 342 1376 L 530 1122 L 791 1376 L 815 1358 L 520 958 Z" unicode="" />
<glyph horiz-adv-x="1024" d="M 852 1313 C 844 1274 831 1237 815 1201 C 798 1165 777 1133 753 1105 C 728 1077 699 1054 667 1037 C 635 1020 599 1012 559 1012 C 515 1012 478 1019 449 1034 C 419 1049 396 1070 378 1096 C 360 1122 348 1154 341 1191 C 333 1228 330 1269 330 1313 L 371 1323 C 374 1289 380 1260 388 1236 C 396 1211 408 1190 424 1174 C 440 1158 459 1146 483 1138 C 506 1130 535 1126 569 1126 C 629 1126 680 1143 721 1178 C 761 1212 791 1261 811 1323 L 852 1313 Z" unicode="" />
<glyph horiz-adv-x="1024" d="M 678 1155 C 678 1127 668 1103 650 1085 C 631 1066 608 1057 580 1057 C 566 1057 553 1059 541 1064 C 529 1069 518 1076 509 1085 C 500 1094 493 1104 488 1116 C 483 1128 481 1141 481 1155 C 481 1169 483 1181 488 1193 C 493 1205 500 1215 509 1224 C 518 1233 529 1240 541 1245 C 553 1250 566 1253 580 1253 C 608 1253 631 1243 650 1225 C 668 1206 678 1183 678 1155 Z" unicode="" />
<glyph horiz-adv-x="1024" d="M 754 1186 C 754 1156 748 1128 738 1102 C 728 1076 713 1053 694 1034 C 675 1015 652 1000 626 989 C 600 978 571 973 539 973 C 513 973 489 977 469 986 C 448 994 430 1006 415 1021 C 400 1036 389 1054 381 1075 C 373 1095 369 1117 369 1141 C 369 1171 374 1199 384 1225 C 394 1251 409 1273 428 1292 C 447 1311 470 1326 496 1337 C 522 1348 552 1354 584 1354 C 609 1354 632 1349 653 1341 C 674 1332 692 1320 707 1305 C 722 1290 734 1272 742 1252 C 750 1231 754 1209 754 1186 Z M 662 1194 C 662 1208 660 1221 657 1235 C 653 1248 648 1260 642 1270 C 635 1280 626 1289 616 1295 C 606 1301 594 1305 580 1305 C 559 1305 541 1299 526 1289 C 511 1279 499 1265 489 1249 C 479 1233 472 1214 468 1194 C 463 1173 461 1153 461 1133 C 461 1118 462 1104 466 1091 C 469 1077 474 1065 481 1055 C 488 1045 497 1037 507 1031 C 517 1025 530 1022 545 1022 C 565 1022 583 1027 598 1037 C 612 1047 624 1061 634 1077 C 643 1093 650 1112 655 1132 C 659 1152 662 1173 662 1194 Z" unicode="" />
<glyph horiz-adv-x="1024" d="M 571 12 C 533 -16 498 -43 466 -70 C 434 -96 407 -123 385 -151 C 363 -179 345 -207 333 -236 C 321 -265 315 -296 315 -328 C 315 -416 357 -461 442 -461 C 452 -461 462 -459 474 -457 C 485 -454 496 -450 507 -446 C 517 -441 527 -436 536 -430 C 545 -424 553 -419 559 -414 L 571 -457 C 546 -481 515 -502 479 -518 C 442 -534 405 -543 369 -543 C 309 -543 263 -527 231 -496 C 199 -465 184 -420 184 -360 C 184 -326 192 -293 209 -261 C 226 -229 250 -196 281 -164 C 312 -132 350 -99 394 -65 C 438 -31 487 3 541 39 L 571 12 Z" unicode="" />
<glyph horiz-adv-x="1024" d="M 879 1219 C 869 1198 856 1176 842 1153 C 827 1129 811 1108 794 1088 C 776 1068 758 1052 738 1039 C 718 1026 698 1020 678 1020 C 659 1020 639 1025 619 1037 C 598 1048 577 1060 556 1074 C 535 1087 514 1099 494 1111 C 474 1122 454 1128 436 1128 C 421 1128 407 1124 395 1118 C 383 1112 371 1103 360 1093 C 349 1083 339 1071 330 1058 C 320 1045 311 1032 303 1020 L 276 1040 C 286 1060 298 1082 313 1106 C 327 1129 343 1150 361 1170 C 378 1190 396 1206 416 1219 C 436 1232 456 1239 477 1239 C 495 1239 515 1233 535 1222 C 555 1210 576 1198 597 1184 C 618 1170 639 1158 660 1147 C 680 1135 700 1130 719 1130 C 733 1130 747 1133 759 1140 C 771 1146 783 1155 794 1165 C 805 1175 815 1187 825 1200 C 834 1213 843 1226 852 1239 L 879 1219 Z" unicode="" />
<glyph horiz-adv-x="1024" d="M 582 958 L 557 985 L 831 1366 L 924 1272 L 582 958 Z M 274 958 L 250 985 L 524 1366 L 616 1272 L 274 958 Z" unicode="" />
<glyph horiz-adv-x="1024" d="M 317 1092 L 328 1190 L 844 1190 L 834 1092 L 317 1092 Z" unicode="" />
<glyph horiz-adv-x="1536" d="M 76 0 L 652 1536 L 884 1536 L 1456 0 L 76 0 Z M 352 148 L 1164 148 L 752 1256 L 352 148 Z" unicode="" />
<glyph horiz-adv-x="1664" d="M 832 1376 C 706 1376 599 1328 510 1234 C 420 1139 376 1006 376 836 C 376 673 405 538 464 432 C 522 325 609 241 724 180 L 724 0 L 88 0 L 88 196 L 536 196 C 456 225 378 295 304 406 C 229 516 192 664 192 848 C 192 1024 247 1184 358 1330 C 468 1475 626 1548 832 1548 C 1037 1548 1195 1478 1306 1338 C 1416 1198 1472 1034 1472 848 C 1472 664 1434 516 1360 406 C 1285 295 1208 225 1128 196 L 1576 196 L 1576 0 L 940 0 L 940 180 C 1054 241 1141 325 1200 432 C 1258 538 1288 673 1288 836 C 1288 974 1246 1099 1162 1210 C 1078 1320 968 1376 832 1376 Z" unicode="" />
<glyph horiz-adv-x="928" d="M 897 92 C 875 60 848 34 816 14 C 783 -6 747 -16 709 -16 C 692 -16 672 -14 650 -10 C 628 -6 610 -2 598 4 C 598 71 604 156 616 258 L 614 258 C 598 220 581 185 562 151 C 542 117 520 87 495 61 C 469 35 441 14 409 -1 C 377 -17 341 -25 301 -25 C 269 -25 240 -18 215 -4 C 190 9 171 25 158 45 L 154 45 L 127 -442 L -6 -442 L 100 139 L 190 852 L 328 852 L 233 117 C 240 96 252 79 270 67 C 287 55 307 49 330 49 C 366 49 401 60 435 83 C 469 105 499 139 527 183 C 555 227 579 281 599 346 C 619 410 635 485 645 569 L 680 852 L 817 852 L 754 336 C 752 320 749 304 747 286 C 745 268 743 249 741 231 C 739 212 737 194 736 176 C 735 158 735 142 735 127 C 735 110 735 95 735 81 C 735 67 735 55 737 45 C 749 43 761 45 774 49 C 787 53 800 58 812 65 C 824 72 835 80 845 90 C 855 100 864 110 872 121 L 897 92 Z" unicode="" />
<glyph horiz-adv-x="1408" d="M 296 0 L 296 1028 L 12 1028 L 12 1176 L 1316 1176 L 1316 1028 L 996 1028 L 996 344 C 996 266 1011 213 1042 184 C 1072 154 1109 140 1152 140 C 1184 140 1210 140 1232 142 C 1253 143 1274 148 1296 156 L 1296 28 C 1264 12 1234 0 1206 -6 C 1178 -12 1138 -16 1088 -16 C 1002 -16 935 10 886 64 C 836 117 812 208 812 336 L 812 1028 L 484 1028 L 484 0 L 296 0 Z" unicode="" />
<glyph horiz-adv-x="1106" d="M 102 440 L 102 522 L 1004 522 L 1004 440 L 102 440 Z" unicode="" />
<glyph horiz-adv-x="1843" d="M 102 440 L 102 522 L 1741 522 L 1741 440 L 102 440 Z" unicode="" />
<glyph horiz-adv-x="373" d="M 393 1331 C 347 1314 309 1291 277 1263 C 245 1235 225 1197 217 1151 L 365 1085 C 369 1079 372 1073 376 1065 C 379 1057 381 1048 381 1040 C 381 1013 372 993 354 979 C 336 965 313 958 287 958 C 266 958 247 962 230 971 C 212 980 197 992 185 1007 C 172 1022 162 1039 155 1058 C 148 1077 145 1097 145 1118 C 145 1153 151 1185 164 1214 C 176 1243 193 1269 214 1291 C 234 1313 258 1331 284 1347 C 310 1362 337 1374 365 1384 L 393 1331 Z" unicode="" />
<glyph horiz-adv-x="373" d="M 375 1225 C 375 1189 368 1157 356 1128 C 343 1099 326 1074 306 1052 C 285 1030 261 1011 235 995 C 209 979 182 967 156 958 L 127 1012 C 149 1020 170 1029 190 1040 C 210 1051 227 1064 243 1079 C 258 1093 271 1110 281 1129 C 291 1147 299 1168 303 1192 L 156 1257 C 151 1262 147 1269 144 1277 C 140 1285 139 1294 139 1303 C 139 1329 148 1349 166 1363 C 184 1377 206 1384 233 1384 C 253 1384 272 1379 290 1370 C 307 1361 322 1349 335 1335 C 347 1320 357 1303 364 1284 C 371 1265 375 1245 375 1225 Z" unicode="" />
<glyph horiz-adv-x="389" d="M 254 33 C 254 -2 247 -34 235 -63 C 222 -92 205 -118 185 -140 C 164 -162 140 -180 114 -196 C 88 -212 61 -224 35 -233 L 6 -180 C 28 -172 49 -162 69 -151 C 89 -140 106 -127 122 -113 C 137 -98 150 -81 160 -63 C 170 -44 178 -23 182 0 L 35 66 C 31 71 27 78 23 86 C 19 94 18 102 18 111 C 18 137 27 158 45 172 C 63 186 85 193 113 193 C 133 193 152 188 169 179 C 186 170 201 158 214 143 C 226 128 236 111 243 92 C 250 73 254 53 254 33 Z" unicode="" />
<glyph horiz-adv-x="696" d="M 717 1331 C 671 1314 633 1291 601 1263 C 569 1235 549 1197 541 1151 L 688 1085 C 692 1079 695 1073 699 1065 C 703 1057 705 1048 705 1040 C 705 1013 696 993 678 979 C 660 965 637 958 610 958 C 589 958 570 962 553 971 C 535 980 520 992 508 1007 C 496 1022 486 1039 479 1058 C 472 1077 469 1097 469 1118 C 469 1153 475 1185 488 1214 C 500 1243 517 1269 538 1291 C 558 1313 582 1331 608 1347 C 634 1362 660 1374 688 1384 L 717 1331 Z M 393 1331 C 347 1314 309 1291 277 1263 C 245 1235 225 1197 217 1151 L 365 1085 C 369 1079 372 1073 376 1065 C 379 1057 381 1048 381 1040 C 381 1013 372 993 354 979 C 336 965 313 958 287 958 C 266 958 247 962 230 971 C 212 980 197 992 185 1007 C 172 1022 162 1039 155 1058 C 148 1077 145 1097 145 1118 C 145 1153 151 1185 164 1214 C 176 1243 193 1269 214 1291 C 234 1313 258 1331 284 1347 C 310 1362 337 1374 365 1384 L 393 1331 Z" unicode="" />
<glyph horiz-adv-x="696" d="M 698 1225 C 698 1189 691 1157 679 1128 C 666 1099 649 1074 629 1052 C 609 1030 585 1011 559 995 C 533 979 506 967 479 958 L 451 1012 C 496 1028 534 1050 566 1078 C 598 1106 618 1144 627 1192 L 479 1257 C 475 1262 471 1269 468 1277 C 464 1285 463 1294 463 1303 C 463 1329 472 1349 490 1363 C 508 1377 530 1384 557 1384 C 577 1384 596 1379 613 1370 C 630 1361 645 1349 658 1335 C 670 1320 680 1303 687 1284 C 694 1265 698 1245 698 1225 Z M 375 1225 C 375 1189 368 1157 356 1128 C 343 1099 326 1074 306 1052 C 285 1030 261 1011 235 995 C 209 979 182 967 156 958 L 127 1012 C 149 1020 170 1029 190 1040 C 210 1051 227 1064 243 1079 C 258 1093 271 1110 281 1129 C 291 1147 299 1168 303 1192 L 156 1257 C 151 1262 147 1269 144 1277 C 140 1285 139 1294 139 1303 C 139 1329 148 1349 166 1363 C 184 1377 206 1384 233 1384 C 253 1384 272 1379 290 1370 C 307 1361 322 1349 335 1335 C 347 1320 357 1303 364 1284 C 371 1265 375 1245 375 1225 Z" unicode="" />
<glyph horiz-adv-x="713" d="M 578 33 C 578 -2 571 -34 559 -63 C 546 -92 529 -118 509 -140 C 488 -162 464 -180 438 -196 C 412 -212 385 -224 358 -233 L 330 -180 C 375 -163 413 -141 445 -113 C 477 -85 497 -47 506 0 L 358 66 C 354 71 350 78 347 86 C 343 94 342 102 342 111 C 342 137 351 158 369 172 C 387 186 409 193 436 193 C 456 193 475 188 493 179 C 510 170 525 158 538 143 C 550 128 560 111 567 92 C 574 73 578 53 578 33 Z M 254 33 C 254 -2 247 -34 235 -63 C 222 -92 205 -118 185 -140 C 164 -162 140 -180 114 -196 C 88 -212 61 -224 35 -233 L 6 -180 C 28 -172 49 -162 69 -151 C 89 -140 106 -127 122 -113 C 137 -98 150 -81 160 -63 C 170 -44 178 -23 182 0 L 35 66 C 31 71 27 78 23 86 C 19 94 18 102 18 111 C 18 137 27 158 45 172 C 63 186 85 193 113 193 C 133 193 152 188 169 179 C 186 170 201 158 214 143 C 226 128 236 111 243 92 C 250 73 254 53 254 33 Z" unicode="" />
<glyph horiz-adv-x="922" d="M 694 817 L 502 864 L 541 641 L 367 -352 L 342 -352 L 389 641 L 477 864 L 272 817 L 152 817 L 166 936 L 287 936 L 479 889 L 453 1092 L 481 1352 L 608 1352 L 580 1092 L 504 889 L 709 936 L 829 936 L 815 817 L 694 817 Z" unicode="" />
<glyph horiz-adv-x="922" d="M 612 63 L 420 111 L 446 -92 L 418 -352 L 291 -352 L 319 -92 L 395 111 L 190 63 L 70 63 L 84 182 L 205 182 L 397 135 L 373 500 L 477 864 L 272 817 L 152 817 L 166 936 L 287 936 L 479 889 L 453 1092 L 481 1352 L 608 1352 L 580 1092 L 504 889 L 709 936 L 829 936 L 815 817 L 694 817 L 502 864 L 528 500 L 422 135 L 627 182 L 748 182 L 733 63 L 612 63 Z" unicode="" />
<glyph horiz-adv-x="819" d="M 614 647 C 614 619 608 592 598 567 C 587 542 572 520 554 502 C 535 484 513 469 489 458 C 464 447 438 442 410 442 C 382 442 355 447 330 458 C 305 469 283 484 265 502 C 246 520 231 542 221 567 C 210 592 205 619 205 647 C 205 675 210 701 221 726 C 231 751 246 773 265 792 C 283 810 305 825 330 836 C 355 846 382 852 410 852 C 438 852 464 846 489 836 C 513 825 535 810 554 792 C 572 773 587 751 598 726 C 608 701 614 675 614 647 Z" unicode="" />
<glyph horiz-adv-x="1937" d="M 1626 78 C 1626 50 1616 26 1598 8 C 1579 -10 1556 -20 1528 -20 C 1500 -20 1476 -10 1458 8 C 1439 26 1430 50 1430 78 C 1430 106 1439 129 1458 148 C 1476 166 1500 176 1528 176 C 1556 176 1579 166 1598 148 C 1616 129 1626 106 1626 78 Z M 1040 78 C 1040 50 1030 26 1012 8 C 993 -10 970 -20 942 -20 C 914 -20 890 -10 872 8 C 853 26 844 50 844 78 C 844 106 853 129 872 148 C 890 166 914 176 942 176 C 970 176 993 166 1012 148 C 1030 129 1040 106 1040 78 Z M 455 78 C 455 64 452 51 447 39 C 442 27 435 17 426 8 C 417 0 407 -7 395 -12 C 383 -17 370 -20 356 -20 C 328 -20 304 -10 286 8 C 267 26 258 50 258 78 C 258 106 267 129 286 148 C 304 166 328 176 356 176 C 370 176 383 173 395 168 C 407 163 417 156 426 147 C 435 138 442 128 447 116 C 452 104 455 92 455 78 Z" unicode="" />
<glyph horiz-adv-x="1950" d="M 627 1036 C 627 1006 624 976 619 944 C 614 912 606 880 596 848 C 586 816 573 786 557 758 C 541 729 522 704 500 682 C 478 660 452 642 424 629 C 395 616 363 610 328 610 C 286 610 252 620 224 640 C 196 660 173 685 157 716 C 140 747 128 781 121 818 C 114 855 111 891 111 926 C 111 954 113 985 118 1017 C 123 1049 131 1081 141 1113 C 151 1145 165 1175 181 1204 C 197 1232 216 1258 238 1280 C 260 1302 285 1319 314 1332 C 342 1345 374 1352 410 1352 C 451 1352 485 1342 513 1322 C 541 1302 563 1276 580 1245 C 597 1214 609 1180 616 1143 C 623 1106 627 1070 627 1036 Z M 512 1079 C 512 1096 511 1118 509 1144 C 507 1170 502 1195 495 1219 C 488 1243 478 1263 464 1281 C 450 1298 430 1307 406 1307 C 380 1307 358 1299 340 1283 C 322 1267 306 1246 292 1220 C 278 1194 267 1166 259 1134 C 250 1102 243 1070 238 1039 C 233 1007 230 978 228 950 C 226 922 225 900 225 883 C 225 865 226 844 228 818 C 230 792 234 767 241 743 C 248 719 259 698 273 681 C 287 663 307 655 332 655 C 356 655 378 663 396 679 C 414 695 430 715 444 741 C 457 767 468 796 477 828 C 485 860 492 891 498 923 C 503 954 507 983 509 1011 C 511 1039 512 1061 512 1079 Z M 211 -35 L 160 2 L 1143 1354 L 1194 1317 L 211 -35 Z M 1243 393 C 1243 364 1240 333 1235 301 C 1230 269 1222 237 1212 205 C 1202 173 1189 143 1173 115 C 1157 86 1138 61 1116 39 C 1094 17 1068 0 1040 -13 C 1011 -26 979 -33 944 -33 C 902 -33 868 -23 840 -3 C 812 17 789 42 773 73 C 756 104 744 138 737 175 C 730 212 727 248 727 283 C 727 311 729 342 734 374 C 739 406 747 438 757 470 C 767 502 781 532 797 561 C 813 589 832 615 854 637 C 876 659 901 676 930 689 C 958 702 990 709 1026 709 C 1067 709 1102 699 1130 679 C 1158 659 1180 633 1197 602 C 1213 571 1225 537 1232 500 C 1239 462 1243 427 1243 393 Z M 1128 436 C 1128 453 1127 475 1125 501 C 1123 527 1118 552 1111 576 C 1104 600 1094 620 1080 638 C 1066 655 1046 664 1022 664 C 996 664 974 656 956 640 C 938 624 922 603 909 577 C 895 551 884 523 876 491 C 867 459 860 427 855 396 C 850 364 847 335 845 307 C 843 279 842 257 842 240 C 842 222 843 201 845 175 C 847 149 851 124 858 100 C 865 76 876 55 890 38 C 904 20 923 12 948 12 C 972 12 994 20 1012 36 C 1030 52 1046 72 1060 98 C 1073 124 1084 153 1093 185 C 1102 217 1109 248 1114 280 C 1119 311 1123 340 1125 368 C 1127 396 1128 418 1128 436 Z M 1837 393 C 1837 364 1834 333 1829 301 C 1824 269 1816 237 1806 205 C 1796 173 1783 143 1767 115 C 1751 86 1732 61 1710 39 C 1688 17 1662 0 1634 -13 C 1605 -26 1573 -33 1538 -33 C 1496 -33 1462 -23 1434 -3 C 1406 17 1383 42 1367 73 C 1350 104 1338 138 1331 175 C 1324 212 1321 248 1321 283 C 1321 311 1323 342 1328 374 C 1333 406 1341 438 1351 470 C 1361 502 1375 532 1391 561 C 1407 589 1426 615 1448 637 C 1470 659 1495 676 1524 689 C 1552 702 1584 709 1620 709 C 1661 709 1696 699 1724 679 C 1752 659 1774 633 1791 602 C 1807 571 1819 537 1826 500 C 1833 462 1837 427 1837 393 Z M 1722 436 C 1722 453 1721 475 1719 501 C 1717 527 1712 552 1705 576 C 1698 600 1688 620 1674 638 C 1660 655 1640 664 1616 664 C 1591 664 1569 656 1551 640 C 1532 624 1516 603 1503 577 C 1489 551 1478 523 1470 491 C 1461 459 1454 427 1449 396 C 1444 364 1441 335 1439 307 C 1437 279 1436 257 1436 240 C 1436 222 1437 201 1439 175 C 1441 149 1445 124 1452 100 C 1459 76 1470 55 1484 38 C 1498 20 1517 12 1542 12 C 1566 12 1588 20 1606 36 C 1624 52 1640 72 1654 98 C 1667 124 1678 153 1687 185 C 1696 217 1703 248 1708 280 C 1713 311 1717 340 1719 368 C 1721 396 1722 418 1722 436 Z" unicode="" />
<glyph horiz-adv-x="614" d="M 248 446 L 430 119 L 397 94 L 86 446 L 475 799 L 506 770 L 248 446 Z" unicode="" />
<glyph horiz-adv-x="614" d="M 131 94 L 100 123 L 358 446 L 176 774 L 209 799 L 520 446 L 131 94 Z" unicode="" />
<glyph horiz-adv-x="682" d="M -123 -35 L -174 2 L 809 1354 L 860 1317 L -123 -35 Z" unicode="" />
<glyph horiz-adv-x="1151" d="M 1065 989 L 1018 989 L 1014 1202 C 980 1234 942 1256 901 1268 C 860 1280 813 1286 760 1286 C 701 1286 649 1272 604 1245 C 559 1218 520 1182 487 1138 C 454 1094 427 1043 405 985 C 383 927 367 868 356 807 L 952 807 L 928 745 L 346 745 C 340 712 337 679 335 647 C 333 614 332 581 332 549 L 856 549 L 831 487 L 334 487 C 337 431 345 375 358 321 C 371 267 390 218 416 176 C 441 134 473 100 512 74 C 550 48 597 35 653 35 C 696 35 740 41 786 55 C 831 68 871 89 905 119 L 971 311 L 1022 311 L 975 49 C 946 35 918 23 891 13 C 864 3 837 -4 810 -10 C 782 -16 754 -21 725 -24 C 696 -27 665 -29 633 -29 C 560 -29 496 -14 442 13 C 387 41 341 79 303 127 C 265 174 236 229 215 291 C 194 353 181 419 176 487 L 0 487 L 25 549 L 174 549 C 174 581 175 614 177 647 C 179 679 182 712 188 745 L 29 745 L 53 807 L 201 807 C 217 883 242 953 275 1019 C 307 1085 348 1142 397 1191 C 445 1239 502 1278 567 1306 C 631 1334 704 1348 784 1348 C 816 1348 846 1346 874 1344 C 902 1341 929 1337 955 1331 C 981 1325 1008 1318 1034 1310 C 1060 1302 1086 1292 1114 1280 L 1065 989 Z" unicode="" />
<glyph horiz-adv-x="1536" d="M 1415 670 C 1415 580 1398 495 1364 417 C 1330 339 1283 270 1225 212 C 1167 153 1098 107 1020 73 C 941 39 857 23 768 23 C 678 23 594 39 516 73 C 437 107 368 153 310 212 C 251 270 205 339 171 417 C 137 495 121 580 121 670 C 121 729 128 786 144 842 C 159 897 181 949 209 997 C 237 1045 270 1088 310 1128 C 349 1167 393 1201 441 1229 C 489 1257 540 1278 595 1294 C 650 1309 708 1317 768 1317 C 827 1317 884 1309 940 1294 C 995 1278 1047 1257 1095 1229 C 1143 1201 1186 1167 1226 1128 C 1265 1088 1299 1045 1327 997 C 1355 949 1376 897 1392 842 C 1407 786 1415 729 1415 670 Z M 1346 670 C 1346 751 1330 827 1300 899 C 1270 971 1228 1033 1176 1087 C 1124 1140 1063 1182 993 1213 C 923 1244 848 1260 768 1260 C 688 1260 613 1244 543 1213 C 473 1182 411 1140 359 1087 C 307 1033 265 971 235 899 C 205 827 190 751 190 670 C 190 588 205 512 235 440 C 265 368 307 306 359 253 C 411 199 473 157 543 126 C 613 95 688 80 768 80 C 848 80 923 95 993 126 C 1063 157 1124 199 1176 253 C 1228 306 1270 368 1300 440 C 1330 512 1346 588 1346 670 Z M 1114 836 C 1114 790 1105 750 1087 718 C 1069 686 1045 659 1015 639 C 984 619 948 604 907 594 C 865 584 821 580 774 580 C 768 580 759 580 747 581 C 735 581 726 582 719 584 L 719 354 L 862 340 L 862 303 L 469 303 L 469 340 L 596 354 L 596 989 L 469 1001 L 469 1038 L 821 1038 C 860 1038 897 1033 933 1025 C 969 1017 1000 1004 1027 987 C 1053 970 1074 949 1090 924 C 1106 899 1114 870 1114 836 Z M 985 823 C 985 849 980 872 971 894 C 961 915 949 933 933 948 C 917 963 897 975 875 983 C 853 991 829 995 803 995 C 790 995 776 994 760 993 C 744 992 731 991 719 989 L 719 621 C 729 619 740 618 754 617 C 768 616 778 616 786 616 C 818 616 846 621 871 631 C 895 641 916 655 933 673 C 950 691 963 713 972 739 C 980 764 985 792 985 823 Z" unicode="" />
<glyph horiz-adv-x="1004" d="M 791 940 L 791 965 L 844 971 L 827 1257 L 688 940 L 666 940 L 528 1247 L 514 973 L 567 965 L 567 940 L 424 940 L 424 965 L 477 973 L 496 1288 L 440 1294 L 440 1319 L 565 1319 L 694 1030 L 819 1319 L 944 1319 L 944 1294 L 889 1288 L 909 971 L 963 965 L 963 940 L 791 940 Z M 371 1217 L 362 1290 L 262 1290 L 262 971 L 315 965 L 315 940 L 141 940 L 141 965 L 195 971 L 195 1290 L 94 1290 L 86 1217 L 55 1217 L 55 1319 L 401 1319 L 401 1217 L 371 1217 Z" unicode="" />
<glyph horiz-adv-x="1664" d="M 832 1376 C 706 1376 599 1328 510 1234 C 420 1139 376 1006 376 836 C 376 673 405 538 464 432 C 522 325 609 241 724 180 L 724 0 L 88 0 L 88 196 L 536 196 C 456 225 378 295 304 406 C 229 516 192 664 192 848 C 192 1024 247 1184 358 1330 C 468 1475 626 1548 832 1548 C 1037 1548 1195 1478 1306 1338 C 1416 1198 1472 1034 1472 848 C 1472 664 1434 516 1360 406 C 1285 295 1208 225 1128 196 L 1576 196 L 1576 0 L 940 0 L 940 180 C 1054 241 1141 325 1200 432 C 1258 538 1288 673 1288 836 C 1288 974 1246 1099 1162 1210 C 1078 1320 968 1376 832 1376 Z" unicode="" />
<glyph horiz-adv-x="1280" d="M 476 -32 C 342 -32 239 5 166 80 C 92 154 56 248 56 360 C 56 506 108 636 214 750 C 319 863 449 920 604 920 C 668 920 734 908 802 886 C 870 863 924 840 964 816 C 972 872 976 928 976 984 C 976 1109 953 1207 908 1278 C 862 1348 800 1384 720 1384 C 634 1384 567 1374 518 1356 C 468 1337 418 1312 368 1280 L 324 1444 C 374 1473 430 1498 492 1518 C 553 1538 629 1548 720 1548 C 877 1548 992 1496 1064 1394 C 1136 1291 1172 1149 1172 968 C 1172 690 1104 454 968 260 C 832 65 668 -32 476 -32 Z M 488 128 C 602 128 698 174 774 268 C 850 361 906 500 944 684 C 922 705 882 726 824 748 C 765 769 706 780 648 780 C 520 780 424 738 360 654 C 296 570 264 476 264 372 C 264 300 282 241 318 196 C 354 150 410 128 488 128 Z" unicode="" />
<glyph horiz-adv-x="1536" d="M 76 0 L 652 1536 L 884 1536 L 1456 0 L 76 0 Z M 352 148 L 1164 148 L 752 1256 L 352 148 Z" unicode="" />
<glyph horiz-adv-x="1536" d="M 332 0 L 332 1348 L 80 1348 L 80 1524 L 1456 1524 L 1456 1348 L 1212 1348 L 1212 0 L 1004 0 L 1004 1356 L 540 1356 L 540 0 L 332 0 Z" unicode="" />
<glyph horiz-adv-x="1152" d="M 1084 1524 L 1084 1344 L 332 1344 L 796 784 L 304 188 L 1080 188 L 1080 0 L 40 0 L 40 172 L 560 788 L 68 1380 L 68 1524 L 1084 1524 Z" unicode="" />
<glyph horiz-adv-x="1229" d="M 150 567 L 150 645 L 1079 645 L 1079 567 L 150 567 Z" unicode="" />
<glyph horiz-adv-x="682" d="M -123 -35 L -174 2 L 809 1354 L 860 1317 L -123 -35 Z" unicode="" />
<glyph horiz-adv-x="512" d="M 362 541 C 362 525 359 511 353 498 C 347 485 340 474 331 465 C 321 455 310 448 297 442 C 284 436 270 434 256 434 C 241 434 227 436 214 442 C 201 448 190 455 181 465 C 171 474 164 485 158 498 C 152 511 150 525 150 541 C 150 571 160 596 180 616 C 200 636 226 647 256 647 C 286 647 311 636 331 616 C 351 596 362 571 362 541 Z" unicode="" />
<glyph horiz-adv-x="973" d="M 362 -102 L 330 -102 L 100 696 L 8 713 L 8 750 L 231 750 L 401 121 L 1100 1475 L 1178 1475 L 362 -102 Z" unicode="" />
<glyph horiz-adv-x="1536" d="M 468 1216 C 566 1216 646 1188 706 1134 C 766 1079 813 981 848 840 C 853 720 877 642 920 608 C 962 573 1013 556 1072 556 C 1128 556 1176 579 1218 626 C 1259 672 1280 736 1280 816 C 1280 882 1264 940 1234 988 C 1203 1036 1152 1060 1080 1060 C 1008 1060 954 1029 920 968 C 885 906 857 834 836 752 C 809 648 760 562 688 496 C 616 429 533 396 440 396 C 336 396 252 433 190 508 C 127 582 96 682 96 808 C 96 925 133 1022 208 1100 C 282 1177 369 1216 468 1216 Z M 1072 396 C 973 396 896 424 840 482 C 784 539 741 633 712 764 C 685 870 652 944 614 986 C 575 1027 528 1048 472 1048 C 408 1048 356 1026 316 982 C 276 938 256 874 256 792 C 256 709 271 648 302 610 C 332 571 381 552 448 552 C 509 552 562 576 608 624 C 653 672 689 752 716 864 C 748 984 796 1072 860 1130 C 924 1187 1004 1216 1100 1216 C 1198 1216 1280 1181 1346 1112 C 1411 1042 1444 945 1444 820 C 1444 700 1409 599 1340 518 C 1270 436 1181 396 1072 396 Z" unicode="" />
<glyph horiz-adv-x="1152" d="M -8 -392 L 56 -260 C 72 -265 88 -270 104 -274 C 120 -278 140 -280 164 -280 C 196 -280 222 -268 242 -246 C 262 -223 277 -178 288 -112 L 516 1224 C 534 1330 574 1410 636 1464 C 697 1517 778 1544 880 1544 C 941 1544 995 1536 1042 1522 C 1088 1507 1125 1492 1152 1476 L 1088 1304 C 1058 1322 1025 1340 988 1356 C 950 1372 910 1380 868 1380 C 806 1380 760 1360 730 1322 C 699 1283 680 1238 672 1188 L 448 -224 C 434 -296 402 -348 350 -382 C 298 -415 240 -432 176 -432 C 136 -432 99 -428 66 -420 C 32 -412 8 -402 -8 -392 Z" unicode="" />
<glyph horiz-adv-x="1536" d="M 236 400 C 230 429 228 456 228 480 C 228 546 248 604 288 652 C 328 700 390 724 476 724 C 542 724 600 714 650 696 C 699 677 745 659 788 642 C 830 624 872 610 912 598 C 952 586 988 580 1020 580 C 1070 580 1106 590 1128 610 C 1149 630 1160 654 1160 684 C 1160 694 1158 705 1156 716 L 1300 716 C 1305 686 1308 660 1308 636 C 1308 569 1288 512 1248 464 C 1208 416 1145 392 1060 392 C 993 392 935 400 886 418 C 836 435 790 452 748 470 C 705 487 664 501 624 512 C 584 522 548 528 516 528 C 465 528 429 518 408 500 C 386 481 376 458 376 432 C 376 421 377 410 380 400 L 236 400 Z M 236 860 C 230 889 228 916 228 940 C 228 1006 248 1064 288 1112 C 328 1160 390 1184 476 1184 C 542 1184 600 1174 650 1156 C 699 1137 745 1119 788 1102 C 830 1084 872 1070 912 1058 C 952 1046 988 1040 1020 1040 C 1070 1040 1106 1050 1128 1070 C 1149 1090 1160 1114 1160 1144 C 1160 1154 1158 1165 1156 1176 L 1300 1176 C 1305 1146 1308 1120 1308 1096 C 1308 1029 1288 972 1248 924 C 1208 876 1145 852 1060 852 C 993 852 935 860 886 878 C 836 895 790 912 748 930 C 705 947 664 961 624 972 C 584 982 548 988 516 988 C 465 988 429 978 408 960 C 386 941 376 918 376 892 C 376 881 377 870 380 860 L 236 860 Z" unicode="" />
<glyph horiz-adv-x="1536" d="M 212 404 L 212 604 L 1328 604 L 1328 404 L 212 404 Z M 212 976 L 212 1176 L 1328 1176 L 1328 976 L 212 976 Z M 548 188 L 372 188 L 996 1356 L 1168 1356 L 548 188 Z" unicode="" />
<glyph horiz-adv-x="1536" d="M 1348 236 L 208 708 L 208 872 L 1348 1344 L 1348 1128 L 448 792 L 1348 452 L 1348 236 Z M 212 24 L 212 216 L 1348 216 L 1348 24 L 212 24 Z" unicode="" />
<glyph horiz-adv-x="1536" d="M 212 236 L 212 452 L 1112 792 L 212 1128 L 212 1344 L 1352 872 L 1352 708 L 212 236 Z M 212 24 L 212 216 L 1348 216 L 1348 24 L 212 24 Z" unicode="" />
<glyph horiz-adv-x="819" d="M 410 426 L 188 647 L 410 868 L 631 647 L 410 426 Z" unicode="" />
<glyph horiz-adv-x="2048" d="M 1436 741 C 1436 715 1430 692 1418 671 C 1406 650 1391 632 1372 616 C 1352 600 1330 588 1306 580 C 1282 571 1257 567 1233 567 C 1209 567 1187 570 1165 576 C 1143 582 1121 590 1100 602 L 1118 657 C 1135 647 1153 639 1172 633 C 1191 627 1210 625 1229 625 C 1249 625 1267 628 1282 634 C 1297 640 1312 651 1327 666 L 1264 791 C 1264 799 1267 808 1273 816 C 1278 824 1284 830 1292 836 C 1299 841 1307 845 1316 849 C 1325 852 1334 854 1343 854 C 1357 854 1369 850 1381 844 C 1392 837 1402 828 1410 818 C 1418 808 1425 796 1429 782 C 1433 768 1436 755 1436 741 Z M 1427 131 C 1427 117 1423 104 1417 93 C 1410 81 1401 72 1391 64 C 1381 56 1369 49 1356 45 C 1342 41 1329 39 1315 39 C 1289 39 1266 44 1245 56 C 1223 68 1205 83 1190 102 C 1174 121 1162 143 1154 167 C 1145 191 1141 216 1141 242 C 1141 287 1152 331 1176 375 L 1231 356 C 1209 320 1198 284 1198 246 C 1198 225 1201 207 1207 192 C 1213 176 1224 161 1239 147 L 1364 211 C 1373 209 1381 206 1389 201 C 1397 196 1403 190 1409 182 C 1415 174 1419 166 1422 157 C 1425 148 1427 139 1427 131 Z M 1743 399 L 1589 436 L 1620 287 L 1620 190 L 1530 190 L 1530 287 L 1561 436 L 1391 389 L 1036 438 L 1085 84 L 1038 -86 L 1188 -55 L 1284 -55 L 1284 -145 L 1188 -145 L 1038 -115 L 1075 -268 L 1075 -471 L 973 -471 L 973 -268 L 1010 -115 L 860 -145 L 764 -145 L 764 -55 L 860 -55 L 1010 -86 L 963 84 L 1012 438 L 657 389 L 487 436 L 518 287 L 518 190 L 428 190 L 428 287 L 459 436 L 305 399 L 102 399 L 102 502 L 305 502 L 459 465 L 428 614 L 428 711 L 518 711 L 518 614 L 487 465 L 657 512 L 1012 463 L 963 817 L 1010 987 L 860 956 L 764 956 L 764 1047 L 860 1047 L 1010 1016 L 973 1169 L 973 1372 L 1075 1372 L 1075 1169 L 1038 1016 L 1188 1047 L 1284 1047 L 1284 956 L 1188 956 L 1038 987 L 1085 817 L 1036 463 L 1391 512 L 1561 465 L 1530 614 L 1530 711 L 1620 711 L 1620 614 L 1589 465 L 1743 502 L 1946 502 L 1946 399 L 1743 399 Z M 907 659 C 907 613 895 569 872 526 L 817 545 C 827 562 835 580 841 599 C 847 617 850 636 850 655 C 850 675 846 693 840 709 C 834 724 823 739 809 754 L 684 690 C 674 690 666 693 658 699 C 650 704 644 710 638 718 C 632 726 628 734 625 743 C 622 752 621 761 621 770 C 621 784 624 796 631 808 C 637 819 646 829 656 837 C 666 845 678 851 692 855 C 705 859 719 862 733 862 C 759 862 782 856 804 845 C 825 833 843 818 859 799 C 874 780 886 758 894 734 C 902 710 907 685 907 659 Z M 930 244 C 912 254 894 261 875 267 C 856 273 837 276 819 276 C 798 276 780 272 765 266 C 750 260 735 250 721 236 L 784 111 C 782 101 779 93 774 85 C 769 77 763 71 755 65 C 747 59 739 55 731 52 C 722 48 713 47 705 47 C 691 47 678 50 667 57 C 655 63 645 72 637 82 C 629 92 622 104 618 118 C 614 132 612 146 612 160 C 612 184 617 207 629 229 C 641 250 656 268 676 284 C 695 300 717 312 741 321 C 765 329 789 334 815 334 C 860 334 904 322 948 299 L 930 244 Z" unicode="" />
<glyph horiz-adv-x="977" d="M 1155 1389 C 1155 1363 1149 1344 1137 1331 C 1125 1317 1109 1306 1090 1298 L 954 1397 C 923 1386 898 1360 878 1318 C 858 1276 845 1219 838 1147 L 807 844 L 1004 844 L 997 791 L 801 791 L 737 188 C 732 138 725 85 716 31 C 706 -22 695 -76 682 -129 C 669 -182 654 -232 637 -280 C 620 -328 601 -370 580 -406 C 559 -442 536 -470 512 -492 C 488 -513 462 -524 434 -524 C 409 -524 389 -517 373 -504 C 357 -490 350 -471 350 -446 C 350 -440 351 -431 353 -419 C 355 -407 358 -398 362 -393 L 522 -393 C 528 -383 532 -372 536 -361 C 540 -350 543 -336 547 -318 C 550 -300 553 -279 556 -253 C 559 -227 563 -194 567 -154 L 666 791 L 328 791 L 264 188 C 258 138 251 85 242 31 C 233 -22 222 -76 209 -129 C 195 -182 180 -232 163 -280 C 146 -328 127 -370 107 -406 C 86 -442 63 -470 39 -492 C 15 -513 -11 -524 -39 -524 C -63 -524 -83 -517 -99 -504 C -115 -490 -123 -471 -123 -446 C -123 -440 -121 -431 -119 -419 C -117 -407 -114 -398 -111 -393 L 49 -393 C 55 -383 59 -372 63 -361 C 67 -350 70 -336 74 -318 C 77 -300 80 -279 83 -253 C 86 -227 90 -194 94 -154 L 193 791 L 53 791 L 55 817 L 199 856 L 211 967 C 217 1028 231 1087 252 1145 C 272 1203 300 1254 335 1298 C 369 1342 411 1378 459 1405 C 507 1432 561 1446 623 1446 C 661 1446 699 1439 736 1427 C 772 1415 806 1397 836 1374 C 868 1408 902 1433 938 1450 C 974 1466 1008 1475 1040 1475 C 1081 1475 1110 1466 1128 1450 C 1146 1434 1155 1413 1155 1389 Z M 762 1272 C 751 1287 739 1301 726 1314 C 712 1327 698 1338 684 1348 C 669 1358 654 1365 639 1371 C 623 1377 608 1380 594 1380 C 556 1380 523 1372 495 1356 C 467 1340 444 1316 425 1285 C 406 1254 391 1216 379 1171 C 367 1125 358 1074 352 1016 L 334 844 L 670 844 L 690 1036 C 695 1083 704 1126 716 1166 C 728 1205 743 1240 762 1272 Z" unicode="" />
<glyph horiz-adv-x="930" d="M 893 92 C 871 60 844 34 812 14 C 779 -6 743 -16 705 -16 C 679 -16 655 -13 632 -8 C 609 -2 589 6 573 20 L 647 618 C 648 632 649 647 650 663 C 651 679 652 694 653 710 C 653 725 654 740 654 754 C 654 768 655 781 655 791 L 328 791 L 264 188 C 258 138 251 85 242 31 C 233 -22 222 -76 209 -129 C 195 -182 180 -232 163 -280 C 146 -328 127 -370 107 -406 C 86 -442 63 -470 39 -492 C 15 -513 -11 -524 -39 -524 C -63 -524 -83 -517 -99 -504 C -115 -490 -123 -471 -123 -446 C -123 -440 -121 -431 -119 -419 C -117 -407 -114 -398 -111 -393 L 49 -393 C 55 -383 59 -372 63 -361 C 67 -350 70 -336 74 -318 C 77 -300 80 -279 83 -253 C 86 -227 90 -194 94 -154 L 193 791 L 53 791 L 55 817 L 199 856 L 213 991 C 219 1052 234 1112 256 1170 C 278 1228 308 1280 344 1325 C 380 1370 422 1406 472 1434 C 522 1461 577 1475 639 1475 C 663 1475 686 1473 708 1469 C 730 1465 749 1459 765 1451 C 781 1443 793 1432 803 1419 C 812 1406 817 1390 817 1372 C 817 1345 810 1323 797 1307 C 783 1290 767 1278 748 1270 L 582 1407 C 547 1407 517 1397 491 1377 C 465 1357 442 1331 424 1297 C 405 1263 390 1224 379 1180 C 367 1136 359 1089 354 1040 L 334 844 L 602 844 L 811 877 L 817 872 L 713 49 C 737 41 764 43 793 57 C 822 70 847 91 868 121 L 893 92 Z" unicode="" />
<glyph horiz-adv-x="934" d="M 897 92 C 875 60 848 34 816 14 C 783 -6 747 -16 709 -16 C 683 -16 659 -13 636 -8 C 613 -2 594 6 578 20 L 735 1307 C 718 1337 695 1362 666 1380 C 637 1398 606 1407 573 1407 C 539 1407 509 1397 484 1377 C 458 1357 437 1331 420 1297 C 402 1263 388 1224 378 1180 C 367 1136 359 1089 354 1040 L 334 844 L 567 844 L 561 791 L 328 791 L 264 188 C 258 138 251 85 242 31 C 233 -22 222 -76 209 -129 C 195 -182 180 -232 163 -280 C 146 -328 127 -370 107 -406 C 86 -442 63 -470 39 -492 C 15 -513 -11 -524 -39 -524 C -63 -524 -83 -517 -99 -504 C -115 -490 -123 -471 -123 -446 C -123 -440 -121 -431 -119 -419 C -117 -407 -114 -398 -111 -393 L 49 -393 C 55 -383 59 -372 63 -361 C 67 -350 70 -336 74 -318 C 77 -300 80 -279 83 -253 C 86 -227 90 -194 94 -154 L 193 791 L 53 791 L 55 817 L 199 856 L 213 991 C 219 1052 233 1112 255 1170 C 276 1228 304 1280 339 1325 C 373 1370 414 1406 462 1434 C 510 1461 563 1475 623 1475 C 653 1475 683 1470 713 1460 C 743 1450 768 1437 788 1421 L 877 1442 L 885 1438 L 717 49 C 741 41 768 43 797 57 C 826 70 851 91 872 121 L 897 92 Z" unicode="" />
</font>
</defs>
</svg>
