<?xml version="1.0" encoding="utf-8" ?><svg version="1.1" xmlns = 'http://www.w3.org/2000/svg'><defs><font id='web' horiz-adv-x="1000">
<font-face font-family="web" descent="-102" cap-height="384" units-per-em="578" bbox="-82,-121,775,552" x-height="275" ascent="407" />
<missing-glyph horiz-adv-x="288" d="M 16 358 L 272 358 L 272 0 L 16 0 L 16 358 Z M 42 26 L 246 26 L 246 333 L 42 333 L 42 26 Z" /><glyph horiz-adv-x="192" d="" unicode=" " />
<glyph horiz-adv-x="192" d="M 111 140 L 80 140 L 45 345 C 43 359 46 369 56 377 C 65 384 78 388 96 388 C 113 388 126 384 136 377 C 145 369 149 359 147 345 L 111 140 Z M 144 40 C 144 26 139 15 129 6 C 119 -3 108 -8 96 -8 C 82 -8 71 -3 61 6 C 51 15 47 26 47 40 C 47 54 51 66 61 75 C 71 84 82 89 96 89 C 108 89 119 84 129 75 C 139 66 144 54 144 40 Z" unicode="!" />
<glyph horiz-adv-x="256" d="M 208 226 L 174 226 L 150 348 C 148 357 150 366 157 374 C 163 382 174 387 190 387 C 204 387 215 382 222 374 C 228 366 231 357 229 348 L 208 226 Z M 82 226 L 48 226 L 26 348 C 24 357 27 366 34 374 C 40 382 51 387 67 387 C 82 387 93 382 99 374 C 105 366 107 357 106 348 L 82 226 Z" unicode="&#x22;" />
<glyph horiz-adv-x="384" d="M 347 150 L 347 77 L 268 77 L 257 0 L 216 0 L 227 77 L 123 77 L 112 0 L 71 0 L 82 77 L 25 77 L 25 150 L 92 150 L 104 233 L 36 233 L 36 306 L 115 306 L 126 384 L 167 384 L 156 306 L 260 306 L 271 384 L 312 384 L 301 306 L 358 306 L 358 233 L 290 233 L 278 150 L 347 150 Z M 133 150 L 237 150 L 249 233 L 145 233 L 133 150 Z" unicode="#" />
<glyph horiz-adv-x="352" d="M 151 426 L 187 426 L 187 383 C 193 383 200 382 208 382 C 222 380 236 379 248 377 C 260 375 271 373 280 371 C 289 369 296 367 300 365 L 309 272 L 276 272 L 268 293 C 262 308 251 321 233 332 C 219 340 203 346 187 348 L 187 240 C 187 240 188 240 190 240 C 238 224 272 207 292 187 C 311 167 321 144 321 116 C 321 100 316 84 308 70 C 299 56 287 43 273 33 C 258 23 241 15 222 9 C 210 5 199 3 187 1 L 187 -60 L 151 -60 L 151 0 C 124 0 100 1 78 5 C 54 9 37 13 28 18 L 18 110 L 51 110 L 58 90 C 71 56 102 38 151 35 L 151 162 C 127 170 108 178 93 186 C 77 194 64 202 55 211 C 45 220 39 230 35 242 C 31 253 29 266 29 281 C 29 311 41 336 67 355 C 89 372 117 382 151 384 L 151 426 Z M 226 50 C 240 60 247 73 247 90 C 247 96 245 103 243 109 C 240 115 235 120 228 126 C 221 131 211 137 199 143 C 195 145 191 146 187 148 L 187 36 C 203 38 216 42 226 50 Z M 122 337 C 110 329 104 319 104 305 C 104 297 105 291 107 285 C 109 279 114 274 121 269 C 127 264 136 259 147 255 C 148 254 149 253 151 253 L 151 347 C 139 345 129 342 122 337 Z" unicode="$" />
<glyph horiz-adv-x="544" d="M 532 109 C 532 91 529 76 523 62 C 517 48 510 35 500 25 C 490 14 478 6 464 0 C 450 -5 434 -8 418 -8 C 388 -8 362 1 341 21 C 320 40 310 68 310 104 C 310 121 312 137 318 151 C 324 165 332 178 342 189 C 352 199 364 207 378 213 C 392 219 407 222 423 222 C 453 222 479 212 500 193 C 521 173 532 145 532 109 Z M 169 -8 L 137 11 L 375 391 L 408 372 L 169 -8 Z M 233 279 C 233 244 222 216 201 194 C 180 172 153 161 120 161 C 90 161 64 170 43 189 C 22 208 12 236 12 274 C 12 290 14 306 20 320 C 26 334 34 347 44 358 C 54 368 66 376 80 382 C 94 388 109 391 126 391 C 157 391 183 381 203 362 C 223 342 233 315 233 279 Z M 455 102 C 455 160 443 189 419 189 C 408 189 400 183 394 172 C 388 161 386 141 386 111 C 386 54 398 26 422 26 C 435 26 444 31 448 41 C 452 51 455 72 455 102 Z M 158 273 C 158 302 155 323 149 337 C 143 350 134 357 121 357 C 109 357 100 352 96 342 C 92 332 90 312 90 282 C 90 252 92 230 98 216 C 103 201 112 194 126 194 C 137 194 145 199 150 211 C 155 222 158 243 158 273 Z" unicode="%" />
<glyph horiz-adv-x="512" d="M 14 105 C 14 119 17 132 25 144 C 33 156 43 168 56 178 C 69 188 84 198 101 208 L 106 211 L 105 212 C 85 240 76 269 76 300 C 76 312 79 324 85 336 C 91 347 100 357 111 365 C 122 373 135 379 149 384 C 163 388 179 391 195 391 C 232 391 259 383 276 368 C 293 353 302 336 302 317 C 302 300 292 283 272 265 C 256 251 235 236 209 218 C 219 206 232 193 248 179 C 272 155 294 134 312 118 C 320 127 328 137 336 148 C 350 168 362 189 374 212 C 377 217 378 222 376 228 C 374 233 368 236 360 238 L 343 240 L 343 269 L 493 269 L 493 239 L 469 237 C 459 235 451 232 445 226 C 439 220 433 212 426 200 C 399 157 372 120 344 90 C 359 78 372 68 383 61 C 398 51 410 44 419 41 C 428 38 436 37 443 37 C 449 37 455 37 463 38 C 470 38 476 39 480 41 L 493 12 C 484 4 472 0 458 -3 C 443 -6 431 -8 421 -8 C 397 -8 374 -5 354 0 C 334 5 314 13 296 23 C 291 25 286 28 282 31 C 245 5 206 -8 164 -8 C 115 -8 78 2 52 23 C 26 43 14 71 14 105 Z M 187 114 C 168 133 152 151 138 168 C 134 164 130 161 127 158 C 114 146 108 130 108 111 C 108 91 114 76 127 64 C 139 52 157 47 181 47 C 201 47 220 51 238 60 C 239 60 240 61 242 61 L 241 62 C 223 77 205 94 187 114 Z M 193 258 C 203 265 210 272 216 279 C 221 285 224 292 226 298 C 228 304 229 309 229 314 C 229 324 226 332 220 339 C 214 346 205 350 193 350 C 169 350 157 337 157 313 C 157 305 158 296 161 288 C 164 280 169 270 176 260 C 178 256 180 253 182 250 C 186 252 189 255 193 258 Z" unicode="&#x26;" />
<glyph horiz-adv-x="160" d="M 96 226 L 62 226 L 40 348 C 38 357 41 366 48 375 C 54 383 65 388 81 388 C 96 388 107 383 113 375 C 119 366 121 357 120 348 L 96 226 Z" unicode="'" />
<glyph horiz-adv-x="256" d="M 201 -68 C 177 -55 156 -41 136 -25 C 116 -9 98 7 83 26 C 68 45 56 66 48 88 C 39 110 35 135 35 161 C 35 185 39 209 47 231 C 55 253 67 274 82 294 C 97 313 115 331 135 347 C 155 363 177 378 201 390 L 221 367 C 195 343 174 315 159 282 C 143 249 136 209 136 161 C 136 112 143 71 159 39 C 174 6 195 -21 221 -45 L 201 -68 Z" unicode="(" />
<glyph horiz-adv-x="256" d="M 35 -45 C 61 -21 83 6 99 39 C 115 71 124 112 124 161 C 124 209 115 249 99 282 C 83 315 61 343 35 367 L 52 390 C 75 378 97 363 118 347 C 138 331 156 313 172 294 C 187 274 199 253 208 231 C 216 209 221 185 221 161 C 221 135 216 110 207 88 C 198 66 186 45 171 26 C 155 7 137 -9 117 -25 C 97 -41 75 -55 52 -68 L 35 -45 Z" unicode=")" />
<glyph horiz-adv-x="320" d="M 282 172 L 185 210 L 170 112 L 150 112 L 134 210 L 40 172 L 29 190 L 110 254 L 29 312 L 40 330 L 134 291 L 150 391 L 170 391 L 185 291 L 282 330 L 291 312 L 209 254 L 291 190 L 282 172 Z" unicode="*" />
<glyph horiz-adv-x="352" d="M 207 146 L 207 41 L 145 41 L 145 146 L 32 146 L 32 207 L 145 207 L 145 314 L 207 314 L 207 207 L 320 207 L 320 146 L 207 146 Z" unicode="+" />
<glyph horiz-adv-x="192" d="M 156 27 C 156 1 146 -21 126 -43 C 106 -65 81 -82 49 -96 L 29 -70 C 41 -64 54 -55 69 -44 C 83 -32 93 -19 97 -4 C 83 2 72 7 64 12 C 55 16 48 21 44 26 C 39 30 36 35 34 41 C 32 46 32 52 32 60 C 32 70 36 79 46 89 C 55 98 67 103 81 103 C 102 103 120 96 134 83 C 148 69 156 51 156 27 Z" unicode="," />
<glyph horiz-adv-x="224" d="M 26 116 L 26 196 L 197 196 L 197 116 L 26 116 Z" unicode="-" />
<glyph horiz-adv-x="192" d="M 156 51 C 156 32 150 17 138 7 C 126 -2 112 -8 97 -8 C 81 -8 66 -2 54 7 C 42 17 36 32 36 51 C 36 68 42 82 54 93 C 66 103 81 109 97 109 C 112 109 126 103 138 93 C 150 82 156 68 156 51 Z" unicode="." />
<glyph horiz-adv-x="256" d="M 28 -59 L -16 -39 L 229 403 L 271 382 L 28 -59 Z" unicode="/" />
<glyph horiz-adv-x="384" d="M 357 191 C 357 163 352 138 344 114 C 336 90 324 69 310 51 C 295 33 277 18 257 8 C 237 -2 215 -8 191 -8 C 165 -8 141 -2 121 7 C 101 17 84 32 70 50 C 56 68 45 89 38 113 C 30 137 27 163 27 191 C 27 218 31 244 39 268 C 47 292 58 314 73 332 C 87 350 105 364 125 375 C 145 385 167 391 191 391 C 217 391 240 385 261 375 C 281 365 299 351 313 333 C 327 315 338 293 346 269 C 353 245 357 219 357 191 Z M 261 180 C 261 236 255 278 243 307 C 231 336 214 351 191 351 C 171 351 155 339 142 315 C 129 291 123 255 123 207 C 123 151 129 107 143 77 C 157 47 175 32 199 32 C 219 32 234 44 245 70 C 255 95 261 132 261 180 Z" unicode="0" />
<glyph horiz-adv-x="304" d="M 30 0 L 30 33 L 71 36 C 87 36 98 41 102 50 C 106 59 109 78 109 108 L 109 268 C 109 296 105 315 99 323 C 92 331 78 336 58 336 L 32 336 L 32 370 C 40 370 51 371 66 373 C 80 375 95 377 111 379 C 126 381 140 383 153 385 C 166 387 176 389 182 391 L 199 377 L 199 108 C 199 92 199 80 201 71 C 202 61 204 54 208 49 C 211 44 216 41 222 39 C 228 37 236 35 246 35 L 278 33 L 278 0 L 30 0 Z" unicode="1" />
<glyph horiz-adv-x="320" d="M 284 0 L 14 0 L 5 33 L 121 147 C 136 161 149 174 159 186 C 169 197 176 208 182 218 C 188 228 192 237 194 247 C 196 256 198 265 198 275 C 198 292 193 306 183 316 C 173 326 160 331 143 331 C 122 331 104 325 90 315 C 75 304 61 289 49 269 L 13 294 C 27 321 47 344 72 363 C 96 381 128 391 166 391 C 208 391 239 381 261 361 C 282 341 293 317 293 289 C 293 275 290 261 286 249 C 281 237 274 225 264 213 C 254 201 242 188 228 175 C 214 161 197 146 179 130 L 98 61 L 202 61 C 226 61 243 64 253 71 C 263 78 270 85 274 93 L 285 117 L 320 117 L 284 0 Z" unicode="2" />
<glyph horiz-adv-x="320" d="M 302 134 C 302 112 295 92 282 74 C 268 56 251 41 231 29 C 210 17 187 7 161 1 C 135 -4 110 -8 86 -8 C 56 -8 35 -3 23 5 C 10 13 4 23 4 33 C 4 42 7 50 14 56 C 20 62 29 65 41 65 C 53 65 64 62 75 56 C 85 50 96 42 106 34 C 137 34 162 42 180 59 C 198 75 208 94 208 116 C 208 135 201 150 187 162 C 173 173 155 179 134 179 C 120 179 108 177 98 173 C 88 169 79 167 73 165 L 51 198 C 79 211 102 223 119 235 C 136 246 149 256 158 265 C 166 274 172 282 175 289 C 177 295 179 301 179 307 C 179 317 175 325 169 331 C 162 337 153 340 141 340 C 123 340 105 335 86 325 C 67 315 52 304 41 292 L 11 322 C 32 344 57 361 86 373 C 114 385 145 391 177 391 C 207 391 232 385 254 373 C 276 361 287 343 287 321 C 287 301 278 282 260 264 C 242 246 213 233 174 224 C 216 224 248 216 270 198 C 291 180 302 159 302 134 Z" unicode="3" />
<glyph horiz-adv-x="352" d="M 291 96 L 291 0 L 201 0 L 201 96 L 19 96 L 4 124 L 202 384 L 291 384 L 291 141 L 344 141 L 344 96 L 291 96 Z M 201 312 L 77 141 L 201 141 L 201 312 Z" unicode="4" />
<glyph horiz-adv-x="320" d="M 284 316 L 112 316 L 89 273 C 154 267 205 255 241 236 C 277 217 295 187 295 145 C 295 121 288 100 275 81 C 261 62 244 46 223 33 C 202 19 179 9 154 2 C 128 -4 104 -8 80 -8 C 58 -8 41 -4 29 2 C 17 8 11 19 11 33 C 11 45 14 54 22 61 C 29 67 39 71 52 71 C 66 71 81 67 95 59 C 109 51 121 42 133 34 C 155 38 173 49 186 67 C 198 85 205 104 205 124 C 205 132 203 140 200 149 C 197 157 190 165 179 173 C 167 181 150 188 127 194 C 103 200 71 204 31 207 L 21 225 L 106 384 L 251 384 C 257 384 262 384 266 385 C 269 386 272 388 274 390 C 276 392 278 395 281 399 L 316 399 L 284 316 Z" unicode="5" />
<glyph horiz-adv-x="384" d="M 357 133 C 357 113 352 94 344 77 C 335 59 323 44 308 32 C 292 20 274 10 254 3 C 234 -4 212 -8 190 -8 C 168 -8 148 -4 129 2 C 109 9 92 19 77 33 C 62 47 50 64 42 84 C 33 104 29 126 29 152 C 29 176 34 200 44 226 C 54 251 70 275 91 298 C 112 321 139 342 172 362 C 204 381 243 397 287 411 L 305 376 C 269 363 239 348 215 332 C 191 316 173 298 159 278 C 145 258 136 238 130 216 C 124 194 122 171 122 148 C 122 107 129 77 143 59 C 157 40 175 31 195 31 C 215 31 231 37 244 51 C 256 64 263 84 263 110 C 263 128 260 144 256 158 C 251 172 245 183 237 193 C 229 203 221 210 212 215 C 202 219 193 222 183 222 L 174 222 C 171 222 168 221 165 221 L 165 255 C 168 256 174 257 183 259 C 192 260 201 261 211 261 C 229 261 247 258 265 252 C 283 246 298 238 312 227 C 326 216 337 203 345 187 C 353 171 357 153 357 133 Z" unicode="6" />
<glyph horiz-adv-x="320" d="M 227 218 C 200 176 183 136 176 100 C 168 64 165 30 167 0 L 86 0 C 76 0 68 4 64 13 C 59 21 60 32 66 44 C 78 69 95 97 115 128 C 135 159 156 191 176 225 L 234 316 L 91 316 C 73 316 62 314 56 311 C 50 308 43 300 36 286 L 29 272 L -5 272 L 36 399 L 67 399 C 67 395 70 392 76 390 C 82 388 90 386 100 385 C 110 384 122 384 136 384 L 312 384 L 320 365 L 227 218 Z" unicode="7" />
<glyph horiz-adv-x="352" d="M 334 108 C 334 72 319 44 290 23 C 261 2 221 -8 169 -8 C 119 -8 80 1 54 20 C 28 39 15 63 15 91 C 15 117 23 137 40 153 C 56 168 78 181 106 192 C 85 201 67 212 53 226 C 39 240 32 260 32 288 C 32 320 45 345 72 363 C 98 381 135 391 181 391 C 223 391 257 382 282 366 C 307 349 320 328 320 304 C 320 282 312 264 296 248 C 280 232 262 221 240 216 C 266 206 288 193 306 177 C 324 161 334 138 334 108 Z M 244 298 C 244 315 237 328 223 338 C 209 348 193 353 173 353 C 157 353 142 348 128 340 C 114 331 108 319 108 304 C 108 288 115 275 129 266 C 143 257 164 247 191 237 C 205 242 218 250 228 261 C 238 272 244 284 244 298 Z M 253 92 C 253 110 244 126 227 138 C 210 150 185 161 152 171 C 136 163 123 153 113 141 C 103 129 99 114 99 95 C 99 76 106 60 120 48 C 134 36 154 30 180 30 C 202 30 219 35 233 46 C 246 56 253 72 253 92 Z" unicode="8" />
<glyph horiz-adv-x="384" d="M 26 252 C 26 272 30 290 39 307 C 47 324 59 339 75 351 C 90 363 108 373 128 380 C 148 387 170 391 194 391 C 214 391 234 387 254 380 C 273 373 290 363 305 350 C 320 336 332 320 341 300 C 349 280 354 258 354 233 C 354 209 348 184 338 159 C 327 134 311 110 289 88 C 267 65 239 44 206 25 C 173 5 135 -10 91 -23 L 72 12 C 108 24 138 39 162 55 C 186 71 206 88 220 107 C 234 126 245 147 251 169 C 257 191 261 214 261 239 C 261 277 254 305 240 324 C 226 342 207 352 184 352 C 173 352 164 349 156 345 C 148 340 141 334 136 326 C 130 318 126 310 124 301 C 121 291 120 282 120 273 C 120 238 127 212 143 194 C 158 176 175 168 193 168 L 205 168 C 209 168 214 168 218 169 L 218 138 C 214 136 207 135 198 133 C 188 131 178 131 168 131 C 148 131 130 133 113 139 C 96 145 81 153 68 163 C 55 173 45 186 37 201 C 29 216 26 233 26 252 Z" unicode="9" />
<glyph horiz-adv-x="224" d="M 168 47 C 168 29 162 16 151 6 C 140 -3 127 -8 113 -8 C 97 -8 84 -3 73 6 C 61 16 56 29 56 47 C 56 62 61 75 73 85 C 84 95 97 100 113 100 C 127 100 140 95 151 85 C 162 75 168 62 168 47 Z M 168 222 C 168 204 162 191 151 181 C 140 171 127 167 113 167 C 97 167 84 171 73 181 C 61 191 56 204 56 222 C 56 237 61 250 73 260 C 84 270 97 275 113 275 C 127 275 140 270 151 260 C 162 250 168 237 168 222 Z" unicode=":" />
<glyph horiz-adv-x="224" d="M 168 221 C 168 205 162 192 152 182 C 141 172 128 167 113 167 C 97 167 83 172 72 182 C 61 192 56 205 56 221 C 56 236 61 249 72 259 C 83 269 97 275 113 275 C 128 275 141 269 152 259 C 162 249 168 236 168 221 Z M 175 28 C 175 -20 141 -61 73 -96 L 53 -70 C 73 -57 88 -46 99 -37 C 109 -27 117 -15 121 -1 C 108 5 98 10 90 14 C 82 18 76 23 72 27 C 68 31 65 36 63 41 C 61 46 61 52 61 59 C 61 68 65 77 73 86 C 81 94 92 99 106 99 C 125 99 141 92 155 80 C 168 68 175 50 175 28 Z" unicode=";" />
<glyph horiz-adv-x="352" d="M 47 158 L 47 230 L 305 321 L 305 255 L 113 194 L 305 132 L 305 66 L 47 158 Z" unicode="&#x3C;" />
<glyph horiz-adv-x="352" d="M 32 212 L 32 272 L 320 272 L 320 212 L 32 212 Z M 32 79 L 32 140 L 320 140 L 320 79 L 32 79 Z" unicode="=" />
<glyph horiz-adv-x="352" d="M 47 66 L 47 132 L 239 193 L 47 255 L 47 321 L 305 229 L 305 157 L 47 66 Z" unicode="&#x3E;" />
<glyph horiz-adv-x="288" d="M 274 256 C 274 235 267 217 254 202 C 240 186 218 175 186 168 C 170 164 159 159 155 154 C 150 148 148 144 148 140 L 148 132 C 148 130 148 125 149 118 L 112 114 C 109 127 107 142 105 158 C 103 174 103 186 103 196 C 103 210 109 220 121 227 C 133 234 148 240 166 245 C 190 251 206 257 212 264 C 218 270 222 276 222 282 C 222 290 219 297 214 304 C 209 310 203 316 196 321 C 189 325 182 329 174 332 C 166 335 160 337 154 339 C 139 328 127 321 119 317 C 110 313 101 311 92 311 C 80 311 71 314 63 320 C 55 326 52 335 52 348 C 52 360 56 370 65 377 C 74 384 89 388 111 388 C 127 388 144 384 163 378 C 182 372 200 363 216 352 C 232 340 246 326 257 310 C 268 294 274 276 274 256 Z M 184 40 C 184 26 179 15 169 6 C 159 -3 148 -8 136 -8 C 123 -8 112 -3 102 6 C 92 15 87 26 87 40 C 87 54 92 66 102 75 C 112 84 123 89 136 89 C 148 89 159 84 169 75 C 179 66 184 54 184 40 Z" unicode="?" />
<glyph horiz-adv-x="544" d="M 525 172 C 525 146 521 122 513 102 C 505 82 494 65 482 51 C 469 37 455 26 439 19 C 423 11 407 8 391 8 C 369 8 351 12 338 20 C 324 28 314 40 308 55 C 293 39 279 28 265 20 C 251 12 237 8 222 8 C 210 8 199 10 189 14 C 178 18 168 24 160 32 C 151 40 144 49 139 60 C 134 71 132 84 132 98 C 132 122 136 145 146 166 C 156 187 168 205 183 220 C 198 235 215 247 233 255 C 251 263 269 268 287 268 C 301 268 314 266 325 263 C 335 259 345 255 355 251 L 378 272 L 404 272 L 375 110 C 371 94 372 81 378 70 C 384 58 392 53 404 53 C 424 53 443 62 459 81 C 475 99 483 129 483 169 C 483 198 478 224 468 247 C 458 270 445 289 427 305 C 409 321 388 333 364 341 C 339 349 312 354 282 354 C 250 354 220 348 193 337 C 165 326 142 311 122 291 C 102 271 87 248 76 221 C 65 194 60 164 60 132 C 60 99 65 69 75 43 C 85 16 100 -6 119 -25 C 138 -44 160 -59 186 -69 C 212 -79 240 -85 272 -85 C 305 -85 334 -81 360 -75 C 385 -69 409 -59 431 -45 L 449 -74 C 423 -89 395 -101 367 -109 C 339 -117 307 -121 271 -121 C 234 -121 200 -115 170 -103 C 139 -91 112 -75 90 -53 C 68 -31 50 -4 38 26 C 25 57 19 92 19 131 C 19 167 26 201 40 233 C 54 265 74 292 98 316 C 122 339 150 357 182 371 C 214 384 248 391 284 391 C 318 391 349 386 379 376 C 408 366 433 351 455 332 C 477 313 494 290 506 263 C 518 236 525 206 525 172 Z M 311 181 C 311 195 307 207 301 216 C 294 224 285 229 274 229 C 256 229 241 218 230 197 C 219 176 214 149 214 116 C 214 76 224 57 246 57 C 254 57 263 59 272 65 C 281 71 288 79 294 89 L 307 151 C 308 156 309 161 310 167 C 310 172 311 177 311 181 Z" unicode="@" />
<glyph horiz-adv-x="480" d="M 265 0 L 265 33 L 285 35 C 302 36 310 43 310 56 C 310 64 306 76 300 92 L 289 122 L 143 122 L 133 99 C 130 93 128 86 127 79 C 125 72 125 66 125 62 C 125 54 127 48 133 43 C 138 38 145 35 154 35 L 175 33 L 175 0 L 3 0 L 3 33 L 25 34 C 29 34 34 35 38 37 C 42 38 46 41 50 45 C 54 49 59 56 63 64 C 67 72 73 82 79 96 L 182 335 L 247 393 L 276 393 L 400 92 C 410 70 418 55 424 48 C 430 40 440 36 453 35 L 477 33 L 477 0 L 265 0 Z M 218 303 L 157 161 L 273 161 L 218 303 Z" unicode="A" />
<glyph horiz-adv-x="416" d="M 395 107 C 395 89 390 73 381 60 C 372 46 360 35 344 26 C 328 17 310 10 289 6 C 268 2 246 0 222 0 L 14 0 L 14 33 L 36 35 C 49 36 59 41 66 50 C 72 59 76 78 76 107 L 76 277 C 76 306 72 325 65 334 C 57 342 48 347 36 349 L 14 351 L 14 384 L 227 384 C 271 384 307 376 335 360 C 363 344 377 322 377 294 C 377 273 370 255 357 241 C 343 226 326 215 304 209 C 334 199 356 187 372 172 C 387 156 395 135 395 107 Z M 279 284 C 279 297 277 308 273 316 C 269 324 263 331 257 336 C 250 340 242 343 234 345 C 225 347 216 348 208 348 C 199 348 191 347 185 346 C 178 345 172 344 168 343 L 168 219 L 195 219 C 219 219 239 223 255 232 C 271 241 279 258 279 284 Z M 295 98 C 295 128 286 150 269 164 C 251 178 231 185 207 185 L 168 185 L 168 111 C 168 81 173 62 183 52 C 193 42 207 38 226 38 C 232 38 240 38 248 40 C 256 41 264 44 271 48 C 277 52 283 58 288 66 C 292 74 295 84 295 98 Z" unicode="B" />
<glyph horiz-adv-x="432" d="M 409 23 C 394 14 373 7 345 1 C 317 -5 288 -8 258 -8 C 228 -8 200 -3 173 6 C 145 15 121 28 100 45 C 78 62 61 83 48 108 C 35 132 29 160 29 191 C 29 221 36 249 50 274 C 64 298 82 319 104 337 C 126 354 150 367 177 377 C 204 386 231 391 258 391 C 272 391 286 390 301 388 C 315 386 329 383 342 380 C 355 377 367 374 378 370 C 389 366 398 363 405 360 L 412 266 L 379 266 L 372 278 C 362 298 347 316 329 331 C 310 345 288 353 263 353 C 245 353 229 349 214 342 C 198 335 185 325 173 312 C 161 299 151 283 144 263 C 137 243 134 221 134 197 C 134 170 138 146 146 126 C 154 105 164 87 177 73 C 190 59 205 48 222 40 C 239 32 257 29 276 29 C 300 29 321 35 339 47 C 357 59 370 78 378 103 L 383 117 L 417 117 L 409 23 Z" unicode="C" />
<glyph horiz-adv-x="480" d="M 459 191 C 459 161 452 134 440 110 C 428 86 411 66 390 50 C 368 34 344 21 316 13 C 288 4 258 0 228 0 L 14 0 L 14 33 L 43 35 C 56 36 65 41 69 50 C 73 59 76 78 76 107 L 76 277 C 76 306 73 325 68 334 C 63 342 55 347 43 349 L 14 351 L 14 384 L 195 384 C 235 384 271 380 303 372 C 335 364 363 352 386 336 C 409 320 427 300 440 276 C 452 252 459 223 459 191 Z M 353 185 C 353 213 349 236 341 256 C 333 276 323 292 310 304 C 296 316 281 325 263 331 C 245 337 226 340 206 340 L 169 340 L 169 124 C 169 105 169 90 171 78 C 173 66 176 57 181 51 C 185 44 191 39 199 37 C 206 35 216 34 228 34 C 266 34 297 45 319 67 C 341 89 353 129 353 185 Z" unicode="D" />
<glyph horiz-adv-x="400" d="M 383 0 L 14 0 L 14 33 L 36 35 C 49 36 59 41 66 50 C 72 59 76 78 76 107 L 76 277 C 76 306 73 325 69 334 C 64 342 56 347 44 349 L 14 351 L 14 384 L 371 384 L 385 281 L 354 281 L 346 297 C 340 306 335 314 331 320 C 326 326 320 332 314 336 C 308 340 300 342 292 344 C 283 346 272 347 259 347 L 213 347 C 201 347 192 346 186 344 C 180 342 174 341 169 339 L 169 221 L 229 221 C 253 221 270 223 278 227 C 286 231 290 238 292 249 L 295 272 L 325 272 L 325 128 L 295 128 L 292 149 C 290 160 285 169 277 176 C 268 183 252 187 229 187 L 169 187 L 169 103 C 169 88 169 76 170 67 C 170 58 172 51 176 47 C 180 42 185 39 192 38 C 199 36 209 36 221 36 L 274 36 C 287 36 298 37 307 39 C 315 41 323 44 329 48 C 335 52 340 57 345 64 C 349 70 354 78 360 88 L 368 104 L 397 104 L 383 0 Z" unicode="E" />
<glyph horiz-adv-x="384" d="M 358 384 L 373 281 L 342 281 L 334 297 C 329 305 324 313 320 319 C 316 325 311 331 305 335 C 299 339 292 342 284 344 C 276 346 265 347 253 347 L 207 347 C 197 347 190 346 185 345 L 169 341 L 169 221 L 208 221 C 228 221 242 222 252 225 C 261 228 266 236 268 249 L 271 272 L 301 272 L 301 128 L 271 128 L 268 150 C 266 163 260 172 248 178 C 236 184 222 187 208 187 L 169 187 L 169 107 C 169 79 171 61 177 51 C 182 41 192 36 208 35 L 243 33 L 243 0 L 14 0 L 14 33 L 36 35 C 49 36 59 41 66 50 C 72 59 76 78 76 107 L 76 285 C 76 301 75 313 74 321 C 72 329 70 335 67 339 C 63 343 59 345 54 346 C 49 347 43 348 36 349 L 14 351 L 14 384 L 358 384 Z" unicode="F" />
<glyph horiz-adv-x="480" d="M 442 148 C 426 146 417 142 413 136 C 409 129 408 120 408 108 L 408 92 C 408 76 410 65 414 58 C 418 51 428 48 444 49 L 444 22 C 420 12 392 5 361 0 C 330 -5 298 -8 266 -8 C 234 -8 204 -3 176 5 C 147 13 122 26 100 43 C 78 59 61 80 48 105 C 35 129 29 158 29 191 C 29 221 35 249 48 274 C 61 298 79 319 101 337 C 123 354 148 367 178 377 C 207 386 238 391 270 391 C 302 391 331 386 357 378 C 383 369 403 361 417 355 L 422 264 L 389 264 L 384 280 C 376 299 361 316 339 330 C 317 344 291 351 263 351 C 219 351 186 339 165 315 C 144 291 134 253 134 199 C 134 139 145 96 167 71 C 189 45 223 33 269 33 C 295 33 311 37 317 46 C 323 54 327 66 327 81 L 327 107 C 327 118 325 127 321 134 C 317 140 308 145 295 147 L 268 150 L 268 183 L 461 183 L 461 150 L 442 148 Z" unicode="G" />
<glyph horiz-adv-x="512" d="M 283 384 L 498 384 L 498 351 L 469 349 C 454 347 445 341 441 331 C 437 321 436 303 436 277 L 436 107 C 436 81 437 62 441 52 C 445 42 454 36 469 35 L 498 33 L 498 0 L 283 0 L 283 33 L 305 35 C 321 36 331 42 336 52 C 340 62 343 81 343 107 L 343 181 L 169 181 L 169 107 C 169 81 171 62 176 52 C 180 42 190 36 205 35 L 227 33 L 227 0 L 14 0 L 14 33 L 43 35 C 56 36 65 42 69 52 C 73 62 76 81 76 107 L 76 277 C 76 303 73 321 69 331 C 65 341 56 347 43 349 L 14 351 L 14 384 L 227 384 L 227 351 L 205 349 C 190 347 180 341 176 331 C 171 321 169 303 169 277 L 169 222 L 343 222 L 343 277 C 343 303 340 321 336 331 C 331 341 321 347 305 349 L 283 351 L 283 384 Z" unicode="H" />
<glyph horiz-adv-x="256" d="M 19 0 L 19 33 L 42 35 C 56 36 66 41 72 51 C 78 61 81 79 81 107 L 81 277 C 81 304 78 322 72 332 C 66 342 56 347 42 349 L 19 351 L 19 384 L 234 384 L 234 351 L 210 349 C 194 347 184 342 180 332 C 176 322 174 304 174 277 L 174 107 C 174 79 176 60 180 51 C 184 41 194 36 210 35 L 237 33 L 237 0 L 19 0 Z" unicode="I" />
<glyph horiz-adv-x="256" d="M 210 349 C 195 347 185 342 181 332 C 176 322 174 304 174 277 L 174 28 C 174 10 170 -5 162 -18 C 154 -31 142 -43 128 -53 C 114 -63 97 -73 77 -81 C 57 -89 35 -98 12 -107 L -1 -81 C 14 -73 27 -66 38 -60 C 48 -54 57 -47 63 -41 C 69 -35 74 -27 77 -19 C 79 -11 81 0 81 12 L 81 277 C 81 299 78 317 74 329 C 70 341 60 347 45 349 L 19 351 L 19 384 L 233 384 L 233 351 L 210 349 Z" unicode="J" />
<glyph horiz-adv-x="448" d="M 257 0 L 257 34 L 266 36 C 269 37 272 39 275 41 C 278 43 280 46 280 52 C 280 56 277 61 273 67 C 268 73 261 80 253 90 L 198 154 C 190 161 184 166 180 170 C 176 174 172 176 169 176 L 169 108 C 169 80 171 62 177 53 C 183 43 192 38 206 36 L 220 34 L 220 0 L 14 0 L 14 34 L 36 36 C 49 37 59 42 66 51 C 72 60 76 79 76 108 L 76 288 C 76 302 75 313 73 321 C 71 329 69 335 66 339 C 62 343 58 345 53 346 C 48 347 42 348 36 349 L 14 351 L 14 384 L 221 384 L 221 351 L 206 349 C 198 347 192 346 187 345 C 182 344 178 342 176 338 C 173 334 171 328 170 320 C 169 312 169 302 169 288 L 169 217 C 175 218 180 220 184 223 C 188 226 194 230 200 236 L 258 286 C 273 299 283 309 287 315 C 291 321 293 328 293 334 C 293 342 287 347 276 349 L 259 351 L 259 384 L 433 384 L 433 352 L 417 350 C 406 348 395 345 385 341 C 375 337 361 328 345 314 L 245 227 L 388 78 C 400 64 411 54 420 48 C 429 41 438 37 447 36 L 462 34 L 462 0 L 257 0 Z" unicode="K" />
<glyph horiz-adv-x="400" d="M 375 0 L 14 0 L 14 33 L 36 35 C 49 36 59 41 66 51 C 72 60 76 79 76 108 L 76 277 C 76 305 73 324 69 333 C 65 342 56 347 43 349 L 14 351 L 14 384 L 243 384 L 243 351 L 206 349 C 190 347 179 342 175 332 C 171 322 169 303 169 277 L 169 108 C 169 78 172 59 180 50 C 188 40 202 36 224 36 L 258 36 C 284 36 303 39 316 45 C 328 51 337 62 343 78 L 364 137 L 398 137 L 375 0 Z" unicode="L" />
<glyph horiz-adv-x="608" d="M 384 0 L 384 33 L 411 35 C 427 36 436 41 440 50 C 444 58 445 76 443 104 L 429 284 L 296 0 L 260 0 L 131 284 L 116 104 C 114 77 115 59 121 50 C 127 41 136 36 150 35 L 171 33 L 170 0 L 8 0 L 8 33 L 32 35 C 44 36 53 41 58 51 C 63 61 67 78 69 104 L 84 279 C 85 302 83 318 78 328 C 72 338 63 344 50 347 L 28 351 L 28 384 L 186 384 L 302 132 L 420 384 L 577 384 L 577 351 L 555 349 C 541 347 531 342 525 333 C 519 323 517 305 520 277 L 534 104 C 535 88 536 76 538 68 C 540 59 542 52 545 48 C 548 43 552 40 556 38 C 560 36 566 35 573 35 L 600 33 L 600 0 L 384 0 Z" unicode="M" />
<glyph horiz-adv-x="480" d="M 445 349 C 431 347 422 342 418 333 C 414 324 412 305 412 277 L 412 0 L 371 0 L 128 282 L 128 107 C 128 79 130 61 135 51 C 140 41 151 36 167 35 L 190 33 L 190 0 L 18 0 L 18 33 L 43 35 C 56 36 66 41 72 50 C 78 59 81 78 81 107 L 81 290 C 81 305 77 318 69 329 C 61 339 47 346 27 350 L 18 351 L 18 384 L 166 384 L 365 152 L 365 277 C 365 304 362 322 358 332 C 354 342 343 347 327 349 L 304 351 L 304 384 L 466 384 L 466 351 L 445 349 Z" unicode="N" />
<glyph horiz-adv-x="512" d="M 483 191 C 483 160 476 132 464 108 C 451 83 434 62 413 45 C 391 28 367 15 340 6 C 312 -3 284 -8 256 -8 C 224 -8 194 -3 166 6 C 138 15 114 28 94 45 C 74 62 58 83 46 108 C 34 132 29 160 29 191 C 29 221 35 249 47 274 C 59 298 76 319 97 337 C 118 354 142 367 170 377 C 197 386 226 391 256 391 C 288 391 317 386 345 377 C 373 367 397 354 417 337 C 437 320 453 299 465 274 C 477 249 483 221 483 191 Z M 375 175 C 375 227 364 270 342 303 C 320 335 288 352 246 352 C 210 352 182 339 162 314 C 142 288 133 253 133 207 C 133 155 144 112 166 79 C 188 46 220 30 262 30 C 298 30 325 42 345 68 C 365 93 375 129 375 175 Z" unicode="O" />
<glyph horiz-adv-x="416" d="M 409 268 C 409 247 404 229 394 214 C 384 198 371 185 354 174 C 337 163 317 154 294 148 C 271 142 246 138 220 136 L 209 164 C 237 167 259 176 277 192 C 294 207 303 231 303 265 C 303 281 300 294 295 305 C 290 316 284 325 276 332 C 268 338 258 343 248 346 C 238 348 227 350 217 350 C 194 350 178 347 169 342 L 169 107 C 169 79 171 61 177 51 C 183 41 193 36 209 35 L 240 33 L 240 0 L 14 0 L 14 33 L 43 35 C 49 35 55 37 59 39 C 63 41 67 45 69 51 C 71 56 73 63 74 72 C 75 81 76 93 76 107 L 76 277 C 76 306 73 325 68 334 C 63 342 55 347 43 349 L 14 351 L 14 384 L 244 384 C 298 384 339 373 367 353 C 395 332 409 304 409 268 Z" unicode="P" />
<glyph horiz-adv-x="512" d="M 483 191 C 483 160 476 132 464 108 C 451 83 434 62 413 45 C 391 28 367 15 340 6 L 337 5 C 357 -13 377 -26 396 -36 C 416 -46 436 -52 456 -52 C 468 -52 481 -49 493 -44 C 505 -38 513 -34 517 -31 L 534 -59 C 530 -62 525 -66 519 -70 C 512 -74 504 -79 495 -83 C 486 -87 476 -90 465 -93 C 454 -95 443 -97 433 -97 C 419 -97 406 -96 393 -94 C 379 -92 364 -87 348 -81 C 332 -75 313 -66 293 -54 C 273 -42 249 -26 222 -6 C 202 -4 184 0 166 6 C 138 15 114 28 94 45 C 74 62 58 83 46 108 C 34 132 29 160 29 191 C 29 221 35 249 47 274 C 59 298 76 319 97 337 C 118 354 142 367 170 377 C 197 386 226 391 256 391 C 288 391 317 386 345 377 C 373 367 397 354 417 337 C 437 320 453 299 465 274 C 477 249 483 221 483 191 Z M 375 175 C 375 227 364 270 342 303 C 320 335 288 352 246 352 C 210 352 182 339 162 314 C 142 288 133 253 133 207 C 133 155 144 112 166 79 C 188 46 220 30 262 30 C 298 30 325 42 345 68 C 365 93 375 129 375 175 Z" unicode="Q" />
<glyph horiz-adv-x="448" d="M 443 0 C 436 -1 428 -2 419 -2 C 409 -2 400 -3 392 -3 C 368 -3 345 2 322 12 C 299 22 281 38 268 60 L 195 163 L 169 163 L 169 107 C 169 79 171 60 177 51 C 182 41 193 36 209 35 L 232 33 L 232 0 L 14 0 L 14 33 L 43 35 C 56 36 65 41 69 50 C 73 59 76 78 76 107 L 76 277 C 76 306 73 325 68 334 C 63 342 55 347 43 349 L 14 351 L 14 384 L 236 384 C 257 384 277 381 295 377 C 313 373 329 366 343 358 C 356 349 366 338 374 326 C 382 313 386 299 386 283 C 386 269 383 257 377 245 C 371 233 364 222 355 213 C 345 203 335 195 323 189 C 311 182 298 177 285 175 L 366 74 C 379 58 391 48 403 42 C 414 36 427 33 443 33 L 443 0 Z M 284 282 C 284 303 277 320 264 332 C 250 344 234 350 216 350 C 206 350 197 349 189 349 C 181 348 174 347 169 346 L 169 199 L 209 199 C 233 199 252 206 265 221 C 277 236 284 256 284 282 Z" unicode="R" />
<glyph horiz-adv-x="352" d="M 334 109 C 334 91 329 74 321 60 C 312 45 300 33 285 23 C 269 13 251 5 230 0 C 208 -5 185 -8 160 -8 C 132 -8 107 -5 83 -1 C 59 2 43 7 34 12 L 23 111 L 58 111 L 70 77 C 75 62 85 50 100 42 C 115 34 139 30 172 30 C 196 30 216 34 231 44 C 245 54 253 68 253 86 C 253 99 247 110 236 120 C 225 129 203 138 171 148 C 125 160 90 176 66 194 C 42 212 30 238 30 273 C 30 293 34 310 43 325 C 52 340 64 352 79 362 C 93 372 110 379 129 384 C 147 388 166 391 186 391 C 212 391 236 388 258 384 C 280 379 295 375 305 371 L 314 262 L 279 262 L 269 297 C 264 313 255 326 241 337 C 227 348 208 354 183 354 C 161 354 143 349 130 339 C 116 329 110 316 110 301 C 110 294 111 288 113 284 C 115 279 118 275 124 271 C 129 267 136 264 146 260 C 156 256 168 252 184 248 C 210 240 232 231 251 223 C 270 215 286 205 298 195 C 310 185 319 173 325 159 C 331 145 334 128 334 109 Z" unicode="S" />
<glyph horiz-adv-x="448" d="M 435 259 L 403 259 L 398 307 C 396 316 394 323 392 329 C 390 335 386 339 381 342 C 376 344 369 346 361 347 C 352 347 341 348 328 348 L 268 348 L 268 99 C 268 85 268 75 269 67 C 270 59 272 52 275 48 C 278 43 282 40 287 38 C 291 36 298 35 306 35 L 334 33 L 334 0 L 109 0 L 109 33 L 136 35 C 144 35 150 36 155 38 C 160 40 164 43 167 48 C 170 52 172 59 173 67 C 174 75 175 85 175 99 L 175 348 L 127 348 C 113 348 102 347 94 347 C 85 346 78 344 72 342 C 66 339 62 335 59 329 C 55 323 52 316 50 307 L 37 259 L 4 259 L 16 395 L 40 395 C 44 392 49 390 57 388 C 64 386 75 385 90 384 C 104 383 124 382 148 382 C 172 382 202 382 239 382 C 276 382 305 382 327 382 C 349 382 366 383 378 384 C 390 385 399 386 405 388 C 411 390 416 392 421 395 L 443 395 L 435 259 Z" unicode="T" />
<glyph horiz-adv-x="480" d="M 449 349 C 435 347 426 342 422 333 C 418 324 416 305 416 277 L 416 137 C 416 115 411 96 402 78 C 393 60 381 45 365 33 C 349 20 330 10 308 3 C 286 -4 263 -8 238 -8 C 212 -8 188 -4 166 1 C 144 7 126 16 110 28 C 94 40 82 54 74 71 C 65 87 61 106 61 127 L 61 277 C 61 305 58 323 54 333 C 50 342 41 347 28 349 L 7 351 L 7 384 L 214 384 L 214 351 L 191 349 C 175 347 164 342 160 332 C 156 322 154 304 154 277 L 154 159 C 154 117 162 87 179 68 C 195 49 222 40 258 40 C 294 40 321 49 340 69 C 359 89 369 114 369 144 L 369 277 C 369 304 366 322 362 332 C 358 342 347 347 331 349 L 308 351 L 308 384 L 470 384 L 470 351 L 449 349 Z" unicode="U" />
<glyph horiz-adv-x="448" d="M 441 350 C 429 348 420 344 413 337 C 405 330 398 318 391 301 L 257 0 L 182 0 L 55 295 C 50 305 46 313 43 320 C 39 326 36 332 33 336 C 29 340 25 343 21 345 C 17 347 12 348 6 349 L -6 351 L -6 384 L 190 384 L 190 351 L 170 349 C 152 347 144 340 144 329 C 144 323 144 317 146 312 C 148 307 150 301 154 294 L 244 85 L 325 272 C 328 280 331 288 334 297 C 337 305 339 313 339 320 C 339 330 334 337 326 341 C 317 345 308 348 300 349 L 282 351 L 282 384 L 454 384 L 454 351 L 441 350 Z" unicode="V" />
<glyph horiz-adv-x="608" d="M 602 350 C 590 348 580 343 574 335 C 568 327 562 315 557 301 L 438 0 L 375 0 L 303 197 L 225 0 L 162 0 L 53 301 C 47 317 40 329 34 335 C 27 341 18 346 6 349 L -8 351 L -8 384 L 176 384 L 176 351 L 164 349 C 150 347 144 340 144 329 C 144 319 146 308 151 294 L 219 99 L 284 250 L 268 294 C 264 304 261 313 259 320 C 256 326 253 331 250 335 C 247 339 244 342 240 344 C 236 346 232 347 228 349 L 215 351 L 215 384 L 393 384 L 393 351 L 372 349 C 355 347 347 340 347 329 C 347 323 348 318 350 312 C 352 306 354 300 357 294 L 426 99 L 497 270 C 500 279 503 288 506 297 C 509 306 511 314 511 320 C 511 330 508 337 502 341 C 496 345 490 348 482 349 L 457 351 L 457 384 L 616 384 L 616 351 L 602 350 Z" unicode="W" />
<glyph horiz-adv-x="448" d="M 163 102 C 152 90 145 82 141 76 C 137 70 135 64 135 58 C 135 44 143 37 160 35 L 179 33 L 179 0 L 6 0 L 6 33 L 18 34 C 29 35 40 39 50 47 C 60 54 70 63 82 75 L 185 180 L 92 305 C 81 319 72 330 64 337 C 56 343 47 347 35 349 L 20 351 L 20 384 L 233 384 L 233 351 L 212 349 C 196 347 188 340 188 329 C 188 324 189 319 192 314 C 195 308 199 302 205 295 L 245 241 L 278 275 C 289 286 297 296 301 304 C 305 312 308 319 308 326 C 308 339 298 347 280 349 L 263 351 L 263 384 L 435 384 L 435 351 L 423 350 C 411 348 400 344 392 336 C 384 328 374 319 364 309 L 268 211 L 368 79 C 378 65 387 55 396 48 C 405 40 415 36 426 35 L 442 33 L 442 0 L 228 0 L 228 33 L 249 35 C 265 37 273 43 273 55 C 273 59 271 64 267 69 C 263 74 259 80 254 88 L 208 149 L 163 102 Z" unicode="X" />
<glyph horiz-adv-x="448" d="M 427 350 C 415 349 405 346 399 340 C 392 334 385 325 377 313 L 271 163 L 271 107 C 271 93 271 82 272 73 C 273 64 275 57 278 52 C 280 46 284 42 289 40 C 293 37 300 35 308 35 L 334 33 L 334 0 L 113 0 L 113 33 L 140 35 C 155 36 165 41 170 51 C 175 61 178 79 178 107 L 178 156 L 74 305 C 62 320 53 331 45 337 C 37 343 29 347 20 349 L 5 351 L 5 384 L 210 384 L 210 351 L 188 349 C 179 347 173 345 171 342 C 168 338 167 334 167 330 C 167 323 171 313 179 301 L 248 202 L 304 282 C 309 289 313 296 317 304 C 321 312 323 319 323 325 C 323 339 314 347 296 349 L 276 351 L 276 384 L 443 384 L 443 351 L 427 350 Z" unicode="Y" />
<glyph horiz-adv-x="384" d="M 349 0 L 17 0 L 11 27 L 253 349 L 146 349 C 132 349 121 348 113 346 C 105 344 98 342 92 338 C 86 334 82 330 78 324 C 74 318 70 310 66 301 L 53 271 L 21 271 L 39 395 L 66 395 C 68 391 72 389 76 388 C 80 386 88 385 100 385 C 112 384 129 384 151 384 L 358 384 L 361 358 L 122 35 L 243 35 C 263 35 280 39 293 47 C 306 55 318 69 329 89 L 341 111 L 373 111 L 349 0 Z" unicode="Z" />
<glyph horiz-adv-x="256" d="M 44 -96 L 44 384 L 219 384 L 219 352 L 171 349 C 161 348 154 346 148 344 C 142 341 138 337 136 331 C 133 325 131 318 131 309 C 130 300 130 289 130 277 L 130 7 C 130 -7 130 -18 131 -27 C 131 -35 133 -42 136 -47 C 139 -51 143 -54 149 -56 C 154 -58 161 -59 171 -60 L 219 -64 L 219 -96 L 44 -96 Z" unicode="[" />
<glyph horiz-adv-x="256" d="M -16 382 L 26 403 L 271 -39 L 227 -59 L -16 382 Z" unicode="\" />
<glyph horiz-adv-x="256" d="M 37 -96 L 37 -64 L 85 -60 C 94 -59 101 -58 107 -56 C 112 -54 116 -51 119 -47 C 122 -42 124 -35 125 -27 C 125 -18 126 -7 126 7 L 126 277 C 126 303 123 321 119 331 C 115 341 103 347 85 349 L 37 352 L 37 384 L 212 384 L 212 -96 L 37 -96 Z" unicode="]" />
<glyph horiz-adv-x="320" d="M 246 208 L 160 317 L 73 208 L 36 226 L 124 384 L 196 384 L 284 226 L 246 208 Z" unicode="^" />
<glyph horiz-adv-x="352" d="M 0 -96 L 0 -41 L 352 -41 L 352 -96 L 0 -96 Z" unicode="_" />
<glyph horiz-adv-x="256" d="M 70 401 C 70 410 73 418 80 425 C 86 431 95 435 105 435 C 117 435 127 431 135 423 C 142 415 150 404 158 389 L 192 331 L 171 313 L 111 352 C 95 362 85 370 79 376 C 73 382 70 391 70 401 Z" unicode="`" />
<glyph horiz-adv-x="352" d="M 351 19 C 341 9 331 3 321 0 C 311 -4 297 -6 280 -6 C 262 -6 247 -2 234 5 C 220 12 213 22 211 35 C 203 25 191 16 175 6 C 159 -3 135 -8 103 -8 C 79 -8 60 -1 45 10 C 29 22 22 38 22 56 C 22 78 30 97 46 113 C 62 129 91 143 131 153 L 210 174 L 210 186 C 210 212 205 228 196 235 C 187 242 176 246 162 246 C 154 246 146 244 138 241 C 130 238 124 236 121 235 C 119 215 115 201 108 191 C 100 181 91 177 79 177 C 65 177 54 181 48 189 C 41 197 38 207 38 217 C 38 223 40 230 45 238 C 50 246 58 253 69 260 C 80 267 94 273 111 278 C 128 282 149 285 173 285 C 187 285 201 283 215 280 C 229 276 242 271 254 264 C 266 256 275 247 283 236 C 291 225 295 212 295 197 L 295 82 C 295 68 296 57 299 49 C 302 41 308 37 318 37 C 325 37 331 37 335 39 C 339 41 342 43 346 45 L 351 19 Z M 210 137 L 156 122 C 140 118 129 111 123 102 C 116 92 113 83 113 74 C 113 66 115 59 121 51 C 126 43 134 39 146 39 C 159 39 171 41 181 47 C 191 53 200 60 210 70 L 210 137 Z" unicode="a" />
<glyph horiz-adv-x="384" d="M 363 147 C 363 122 358 100 348 81 C 338 62 325 46 309 33 C 293 19 274 9 254 2 C 234 -4 213 -8 192 -8 C 167 -8 145 -4 126 3 C 107 11 95 17 90 21 L 71 0 L 49 0 L 49 317 C 49 329 47 338 43 342 C 39 346 32 351 23 357 L 12 364 L 12 391 L 128 409 L 134 402 L 134 246 C 137 249 142 253 148 257 C 154 261 161 266 169 270 C 177 274 185 277 195 280 C 205 283 215 285 226 285 C 246 285 264 281 281 275 C 297 269 312 260 324 248 C 336 236 345 221 352 204 C 359 187 363 168 363 147 Z M 268 132 C 268 148 265 163 260 175 C 255 187 249 197 241 205 C 233 213 223 218 213 222 C 203 226 193 228 183 228 C 170 228 160 226 154 222 C 147 218 140 213 134 208 L 134 106 C 134 78 138 59 148 49 C 158 39 172 34 191 34 C 210 34 228 41 244 56 C 260 71 268 96 268 132 Z" unicode="b" />
<glyph horiz-adv-x="320" d="M 316 56 C 302 36 284 21 261 9 C 237 -2 212 -8 184 -8 C 161 -8 140 -4 121 2 C 101 9 84 19 70 31 C 56 43 45 58 37 75 C 29 91 25 109 25 129 C 25 153 29 175 39 195 C 49 214 62 230 78 244 C 94 257 112 267 133 274 C 154 281 176 285 200 285 C 236 285 263 278 282 266 C 301 253 311 239 311 225 C 311 210 307 199 300 191 C 292 183 284 179 274 179 C 262 179 250 183 239 192 C 227 200 221 216 220 238 C 215 240 210 241 206 243 C 201 245 193 246 181 246 C 159 246 144 237 135 220 C 126 203 122 181 122 154 C 122 119 129 91 144 70 C 158 49 180 39 208 39 C 231 39 248 43 260 51 C 272 59 281 67 289 76 L 316 56 Z" unicode="c" />
<glyph horiz-adv-x="400" d="M 261 0 L 257 28 C 247 20 232 12 214 4 C 195 -3 176 -8 158 -8 C 140 -8 123 -5 107 0 C 91 6 76 14 64 25 C 52 36 42 50 35 67 C 28 83 25 102 25 124 C 25 146 29 167 37 187 C 45 206 56 223 70 238 C 84 252 101 264 121 272 C 141 280 162 285 185 285 C 198 285 211 283 225 281 C 238 279 249 276 257 274 L 257 318 C 257 331 254 340 250 344 C 246 348 239 352 229 356 L 211 362 L 211 390 L 333 409 L 342 402 L 342 88 C 342 75 342 65 343 58 C 343 51 345 46 347 43 C 349 39 351 37 355 36 C 359 35 364 34 370 34 L 384 32 L 384 0 L 261 0 Z M 257 183 C 257 204 250 219 236 229 C 222 239 207 244 191 244 C 173 244 156 235 141 219 C 126 202 119 180 119 152 C 119 119 126 94 141 76 C 156 58 174 49 196 49 C 206 49 218 50 230 54 C 242 57 251 61 257 66 L 257 183 Z" unicode="d" />
<glyph horiz-adv-x="320" d="M 116 150 L 116 146 C 116 108 124 81 141 65 C 157 49 178 41 204 41 C 222 41 237 44 249 52 C 260 59 271 68 283 78 L 312 56 C 297 37 277 22 253 10 C 228 -1 202 -7 174 -7 C 153 -7 134 -3 116 4 C 98 11 82 21 68 34 C 54 46 44 61 36 79 C 28 96 25 115 25 135 C 25 157 29 178 39 196 C 48 214 60 230 75 243 C 89 256 106 266 124 274 C 142 281 161 285 180 285 C 220 285 252 272 276 248 C 300 224 312 191 312 150 L 116 150 Z M 224 188 C 222 207 217 222 209 232 C 200 242 188 247 174 247 C 160 247 148 242 137 232 C 126 222 119 208 117 188 L 224 188 Z" unicode="e" />
<glyph horiz-adv-x="224" d="M 278 365 C 278 353 275 344 270 336 C 264 328 258 325 250 325 C 234 325 216 338 196 364 C 184 362 174 355 165 343 C 155 330 151 311 151 286 L 151 275 L 219 275 L 219 235 L 151 235 L 151 97 C 151 73 153 58 157 50 C 161 42 170 37 182 36 L 211 33 L 211 0 L 16 0 L 16 33 L 28 34 C 33 34 38 36 43 38 C 47 40 51 43 55 48 C 58 52 61 58 63 66 C 65 74 66 84 66 97 L 66 235 L 16 235 L 16 267 L 66 275 L 66 280 C 66 301 71 320 82 336 C 92 352 106 365 122 375 C 138 385 155 393 174 399 C 193 404 211 407 229 407 C 261 407 278 393 278 365 Z" unicode="f" />
<glyph horiz-adv-x="352" d="M 286 225 C 289 221 292 217 294 212 C 296 207 297 201 297 193 C 297 179 293 166 286 154 C 278 142 268 132 256 123 C 243 114 228 107 212 102 C 196 97 179 95 161 95 C 157 95 153 95 149 96 L 135 98 C 130 98 126 99 122 100 C 118 100 115 101 115 101 C 105 97 100 91 100 84 C 100 78 103 74 110 72 C 117 70 129 68 146 68 L 226 65 C 262 63 288 57 306 47 C 323 37 332 21 332 0 C 332 -16 327 -30 318 -42 C 309 -54 297 -65 281 -74 C 265 -83 246 -90 224 -95 C 202 -99 179 -102 155 -102 C 115 -102 83 -97 58 -88 C 33 -78 21 -63 21 -42 C 21 -18 43 0 87 16 C 69 19 57 24 50 32 C 43 40 40 49 40 60 C 40 70 43 80 50 88 C 56 96 68 103 85 109 C 69 114 56 123 46 137 C 36 150 31 166 31 186 C 31 200 34 214 42 226 C 49 238 59 248 72 257 C 84 265 99 272 116 277 C 132 282 150 285 169 285 C 188 285 206 282 222 277 C 238 272 251 266 263 258 L 345 283 L 345 225 L 286 225 Z M 257 -21 C 257 -12 253 -6 245 -2 C 237 2 221 4 199 5 L 124 8 C 117 4 112 -1 108 -7 C 104 -13 102 -19 102 -27 C 102 -41 110 -51 126 -56 C 142 -60 159 -63 179 -63 C 201 -63 220 -59 235 -51 C 249 -43 257 -33 257 -21 Z M 209 189 C 209 210 205 225 198 235 C 190 245 180 250 166 250 C 151 250 140 244 133 234 C 125 223 122 208 122 190 C 122 170 125 155 133 144 C 141 133 152 128 166 128 C 180 128 190 133 198 145 C 205 156 209 171 209 189 Z" unicode="g" />
<glyph horiz-adv-x="384" d="M 216 0 L 216 32 L 228 34 C 237 35 243 39 245 46 C 247 53 249 68 249 92 L 249 174 C 249 192 245 205 237 213 C 229 221 219 226 207 226 C 180 226 159 217 143 201 L 143 92 C 143 66 144 51 147 45 C 150 39 156 35 164 34 L 175 32 L 175 0 L 16 0 L 16 32 L 30 34 C 36 34 40 35 44 37 C 48 38 51 41 53 45 C 55 49 56 54 57 62 C 57 69 58 79 58 92 L 58 316 C 58 329 56 338 53 343 C 49 347 43 352 34 356 L 17 363 L 17 390 L 134 409 L 143 402 L 143 242 C 155 254 171 265 189 273 C 207 281 224 285 240 285 C 265 285 287 277 306 262 C 324 247 334 225 334 197 L 334 92 C 334 79 334 69 335 62 C 336 54 338 49 340 45 C 342 41 344 38 348 37 C 351 35 355 34 361 34 L 376 32 L 376 0 L 216 0 Z" unicode="h" />
<glyph horiz-adv-x="224" d="M 166 357 C 166 343 161 331 151 321 C 141 311 128 307 112 307 C 97 307 84 311 74 321 C 63 331 58 343 58 357 C 58 371 63 384 74 394 C 84 404 97 409 112 409 C 128 409 141 404 151 394 C 161 384 166 371 166 357 Z M 16 0 L 16 32 L 45 34 C 57 34 65 38 69 45 C 73 52 75 68 75 92 L 75 191 C 75 205 73 214 70 220 C 66 226 60 230 50 232 L 16 238 L 16 264 L 146 283 L 160 276 L 160 84 C 160 62 162 49 166 44 C 170 38 178 35 190 34 L 215 32 L 215 0 L 16 0 Z" unicode="i" />
<glyph horiz-adv-x="192" d="M -17 -73 C 5 -67 24 -56 41 -42 C 57 -28 66 -8 66 16 L 66 195 C 66 208 64 217 60 222 C 56 227 50 230 41 232 L 8 238 L 8 264 L 137 283 L 151 276 L 151 25 C 151 5 146 -11 136 -26 C 126 -41 113 -54 98 -65 C 82 -76 65 -85 47 -91 C 29 -97 12 -101 -4 -103 L -17 -73 Z M 158 357 C 158 343 153 331 143 321 C 133 311 120 307 104 307 C 89 307 76 311 66 321 C 55 331 50 343 50 357 C 50 371 55 384 66 394 C 76 404 89 409 104 409 C 120 409 133 404 143 394 C 153 384 158 371 158 357 Z" unicode="j" />
<glyph horiz-adv-x="384" d="M 260 0 C 255 9 249 19 242 30 C 235 40 230 49 226 55 L 171 128 L 144 106 L 144 92 C 144 79 144 69 145 62 C 146 54 148 49 150 45 C 152 41 155 38 159 37 C 163 35 167 34 173 34 L 188 32 L 188 0 L 16 0 L 16 32 L 30 34 C 36 34 41 35 45 37 C 49 38 52 41 54 45 C 56 49 57 54 58 62 C 58 69 59 79 59 92 L 59 316 C 59 329 57 338 53 343 C 49 347 43 352 34 356 L 17 363 L 17 390 L 135 409 L 144 402 L 144 146 L 217 206 C 219 208 221 210 223 214 C 225 218 227 222 227 226 C 227 230 225 233 223 237 C 220 240 218 242 217 242 L 199 244 L 199 275 L 359 275 L 359 243 L 344 243 C 338 243 333 242 329 242 C 325 242 320 241 316 239 C 311 237 306 233 300 229 C 294 225 286 219 278 212 L 238 177 L 326 69 C 337 55 346 45 353 40 C 359 35 366 32 374 31 L 391 29 L 391 0 L 260 0 Z" unicode="k" />
<glyph horiz-adv-x="208" d="M 16 0 L 16 32 L 30 33 C 36 33 42 34 47 36 C 51 38 55 41 58 45 C 60 49 62 54 63 62 C 64 69 65 79 65 92 L 65 315 C 65 328 62 337 57 342 C 51 347 44 352 34 356 L 17 363 L 17 390 L 141 409 L 150 402 L 150 92 C 150 70 152 55 157 47 C 161 39 169 34 181 33 L 200 32 L 200 0 L 16 0 Z" unicode="l" />
<glyph horiz-adv-x="576" d="M 218 0 L 218 32 L 229 34 C 238 35 244 39 246 46 C 248 53 250 68 250 92 L 250 173 C 250 190 246 203 239 212 C 231 221 221 226 209 226 C 195 226 183 223 172 219 C 160 214 151 208 143 201 L 143 92 C 143 68 144 52 146 46 C 148 39 154 35 164 34 L 175 32 L 175 0 L 16 0 L 16 32 L 29 34 C 40 35 48 39 52 45 C 56 51 58 66 58 92 L 58 191 C 58 205 55 214 51 219 C 47 223 41 227 33 231 L 16 238 L 16 264 L 129 283 L 143 276 L 143 233 C 144 235 147 239 152 245 C 157 251 164 257 172 263 C 180 269 190 274 202 278 C 214 282 227 285 241 285 C 262 285 281 279 297 269 C 313 259 324 244 330 226 C 333 232 338 238 344 245 C 350 252 357 258 366 264 C 374 270 384 275 395 279 C 406 283 418 285 432 285 C 458 285 480 277 499 261 C 517 245 527 224 527 196 L 527 92 C 527 70 528 56 531 48 C 534 40 541 35 553 34 L 568 32 L 568 0 L 409 0 L 409 32 L 420 34 C 429 35 435 39 438 46 C 440 53 442 68 442 92 L 442 173 C 442 190 438 203 430 212 C 422 221 412 226 400 226 C 386 226 374 223 363 219 C 352 214 343 208 335 201 L 335 92 C 335 70 336 56 340 48 C 343 40 350 35 362 34 L 377 32 L 377 0 L 218 0 Z" unicode="m" />
<glyph horiz-adv-x="384" d="M 216 0 L 216 32 L 227 34 C 236 35 242 39 245 46 C 247 53 249 68 249 92 L 249 173 C 249 190 245 203 237 212 C 229 221 219 226 207 226 C 193 226 181 223 171 219 C 160 214 151 208 143 201 L 143 92 C 143 68 144 52 146 46 C 148 39 154 35 164 34 L 175 32 L 175 0 L 16 0 L 16 32 L 29 34 C 40 35 48 39 52 45 C 56 51 58 66 58 92 L 58 191 C 58 205 55 214 51 219 C 47 223 41 227 33 231 L 16 238 L 16 264 L 129 283 L 143 276 L 143 233 C 144 235 147 239 152 245 C 157 251 164 257 172 263 C 180 269 190 274 202 278 C 213 282 226 285 240 285 C 266 285 288 277 306 261 C 324 245 334 224 334 196 L 334 92 C 334 70 335 56 339 48 C 342 40 349 35 361 34 L 376 32 L 376 0 L 216 0 Z" unicode="n" />
<glyph horiz-adv-x="384" d="M 359 133 C 359 113 355 94 347 77 C 339 59 327 44 313 32 C 298 20 280 10 260 3 C 239 -4 216 -8 192 -8 C 168 -8 145 -4 125 4 C 105 12 87 22 72 36 C 57 50 45 66 37 85 C 29 103 25 123 25 145 C 25 165 29 183 37 200 C 45 217 56 232 71 245 C 85 257 103 267 124 274 C 144 281 167 285 192 285 C 216 285 239 281 260 274 C 280 266 298 256 313 242 C 327 228 339 212 347 194 C 355 175 359 155 359 133 Z M 264 127 C 264 147 261 165 256 180 C 250 195 244 207 236 217 C 228 226 220 233 211 237 C 201 241 192 244 184 244 C 164 244 148 237 136 225 C 124 212 118 187 118 151 C 119 115 127 86 143 65 C 158 43 177 33 201 33 C 219 33 234 39 246 53 C 258 66 264 91 264 127 Z" unicode="o" />
<glyph horiz-adv-x="400" d="M 375 148 C 375 123 370 101 361 82 C 351 62 339 46 324 33 C 309 19 293 9 275 2 C 257 -4 239 -8 222 -8 C 204 -8 189 -5 175 -1 C 161 2 150 7 143 12 L 143 -7 C 143 -26 145 -39 151 -47 C 157 -55 165 -59 177 -61 L 202 -64 L 202 -96 L 104 -93 L 16 -96 L 16 -65 L 31 -62 C 43 -59 50 -54 53 -48 C 56 -42 58 -28 58 -7 L 58 191 C 58 204 56 213 52 218 C 48 222 42 227 32 231 L 16 238 L 16 264 L 129 283 L 143 276 L 143 241 C 152 250 165 260 183 270 C 201 280 219 285 239 285 C 255 285 272 282 288 277 C 304 271 318 263 331 252 C 344 241 355 227 363 210 C 371 192 375 172 375 148 Z M 278 128 C 278 146 275 161 271 174 C 267 186 261 197 254 205 C 246 213 238 218 229 222 C 220 226 211 228 201 228 C 189 228 178 225 168 221 C 157 216 149 211 143 206 L 143 102 C 143 56 164 34 207 34 C 227 34 244 42 258 60 C 271 77 278 100 278 128 Z" unicode="p" />
<glyph horiz-adv-x="400" d="M 299 -92 C 291 -92 281 -92 271 -92 C 260 -92 249 -93 239 -94 C 229 -94 219 -95 211 -95 C 202 -95 196 -96 193 -96 L 193 -65 L 222 -62 C 238 -60 247 -56 251 -49 C 254 -41 256 -30 256 -15 L 256 28 C 246 20 231 12 213 4 C 194 -3 176 -8 158 -8 C 142 -8 126 -5 110 1 C 94 7 79 15 67 27 C 55 38 45 52 37 68 C 29 84 25 103 25 124 C 25 148 29 170 38 190 C 46 210 58 227 73 241 C 87 255 104 265 124 273 C 143 281 163 285 185 285 C 201 285 218 282 235 277 C 251 271 264 266 274 261 L 293 284 L 341 284 L 341 -13 C 341 -43 350 -59 369 -61 L 394 -64 L 394 -96 L 299 -92 Z M 256 180 C 256 203 249 219 237 229 C 224 239 209 244 191 244 C 171 244 154 236 140 221 C 126 205 119 183 119 154 C 119 120 126 94 142 76 C 158 58 177 49 200 49 C 210 49 221 50 231 54 C 241 57 249 62 256 68 L 256 180 Z" unicode="q" />
<glyph horiz-adv-x="288" d="M 295 236 C 295 221 290 209 282 201 C 274 193 265 189 255 189 C 247 189 240 191 232 195 C 224 199 214 207 204 218 C 191 216 179 213 168 208 C 156 202 148 196 143 188 L 143 92 C 143 72 144 58 148 50 C 152 42 161 37 175 35 L 198 32 L 198 0 L 16 0 L 16 32 L 30 34 C 42 35 49 39 53 47 C 56 54 58 69 58 93 L 58 191 C 58 203 56 211 52 217 C 48 223 42 227 34 231 L 16 238 L 16 264 L 129 283 L 144 276 L 144 230 C 151 242 163 254 181 266 C 198 278 219 285 243 285 C 261 285 274 280 282 270 C 290 260 295 248 295 236 Z" unicode="r" />
<glyph horiz-adv-x="288" d="M 272 88 C 272 60 260 37 238 19 C 215 1 182 -8 139 -8 C 119 -8 99 -6 79 -3 C 59 0 41 5 25 11 L 25 87 L 61 87 C 64 71 73 58 88 49 C 103 39 123 35 147 35 C 165 35 178 37 185 43 C 191 49 195 55 195 63 C 195 73 191 81 183 86 C 175 91 160 96 138 102 C 125 105 112 109 99 114 C 86 118 74 124 63 131 C 52 138 43 147 36 158 C 29 168 26 182 26 198 C 26 214 29 227 37 238 C 44 249 53 258 65 265 C 76 272 89 277 104 280 C 118 283 133 285 148 285 C 173 285 195 283 215 279 C 235 275 249 272 257 269 L 257 194 L 221 194 C 215 211 206 224 192 232 C 178 240 164 245 149 245 C 133 245 121 243 112 239 C 102 235 98 228 98 219 C 98 215 98 212 100 209 C 101 206 104 203 108 200 C 112 196 119 193 128 189 C 137 185 149 182 165 179 C 203 170 230 158 247 144 C 263 130 272 111 272 88 Z" unicode="s" />
<glyph horiz-adv-x="256" d="M 254 50 C 244 32 231 17 214 7 C 196 -2 173 -8 144 -8 C 117 -8 95 -1 78 12 C 61 25 53 43 53 67 L 53 235 L 7 235 L 7 267 L 58 279 L 82 348 L 138 348 L 138 275 L 235 275 L 235 235 L 138 235 L 138 83 C 138 68 141 58 149 52 C 157 46 166 44 178 44 C 191 44 201 47 209 54 C 216 60 221 66 225 71 L 254 50 Z" unicode="t" />
<glyph horiz-adv-x="384" d="M 244 0 L 241 40 C 229 25 213 13 194 5 C 175 -3 158 -8 142 -8 C 116 -8 94 0 76 13 C 58 27 50 50 50 80 L 50 191 C 50 200 48 208 46 214 C 43 220 36 226 25 231 L 9 238 L 9 264 L 126 283 L 135 276 L 135 95 C 135 82 138 71 146 62 C 153 52 163 48 176 48 C 187 48 199 50 211 54 C 223 58 233 64 241 73 L 241 191 C 241 204 239 213 235 218 C 231 222 225 227 215 231 L 198 238 L 198 264 L 317 283 L 326 276 L 326 92 C 326 66 328 51 332 45 C 336 39 343 35 353 34 L 368 32 L 368 0 L 244 0 Z" unicode="u" />
<glyph horiz-adv-x="352" d="M 332 241 C 326 239 319 236 313 230 C 307 224 300 213 293 196 L 195 0 L 140 0 L 50 200 C 43 215 37 225 31 231 C 25 237 16 240 5 242 L -2 243 L -2 275 L 175 275 L 175 243 L 158 242 C 144 240 137 234 137 226 C 137 221 137 215 139 209 C 141 203 143 197 145 193 L 193 84 L 241 183 C 244 190 247 197 249 204 C 251 211 253 217 253 223 C 253 228 250 232 246 235 C 241 237 235 239 228 241 L 213 243 L 213 275 L 354 275 L 354 243 L 332 241 Z" unicode="v" />
<glyph horiz-adv-x="480" d="M 472 241 C 462 239 455 236 451 230 C 446 224 441 214 435 199 L 352 0 L 299 0 L 240 151 L 178 0 L 125 0 L 42 203 C 36 219 31 229 27 233 C 22 237 15 239 7 241 L -2 243 L -2 275 L 146 275 L 146 243 L 140 242 C 129 239 124 233 124 225 C 124 217 125 209 129 201 L 174 93 L 221 203 L 216 218 C 213 223 210 228 207 233 C 204 237 200 240 195 242 L 182 243 L 182 275 L 323 275 L 323 243 L 312 241 C 306 239 303 237 301 235 C 299 232 299 229 299 225 C 299 220 299 216 301 212 C 303 208 304 205 306 201 L 349 96 L 390 191 C 392 197 393 203 395 208 C 397 212 398 217 398 222 C 398 232 391 239 377 241 L 363 243 L 363 275 L 484 275 L 484 243 L 472 241 Z" unicode="w" />
<glyph horiz-adv-x="352" d="M 288 69 C 298 57 307 49 315 43 C 322 37 330 34 339 33 L 348 32 L 348 0 L 170 0 L 170 32 L 182 33 C 189 33 194 35 196 38 C 198 41 200 44 200 48 C 200 51 198 55 195 59 L 185 73 L 159 102 L 132 79 C 126 73 121 68 117 63 C 113 58 111 54 111 50 C 111 46 112 42 115 39 C 118 35 122 33 128 33 L 139 32 L 139 0 L 4 0 L 4 32 L 13 33 C 23 34 32 38 41 45 C 50 51 61 60 73 71 L 137 125 L 65 205 C 55 217 48 225 42 230 C 36 235 29 239 21 241 L 12 243 L 12 275 L 186 275 L 186 243 L 173 241 C 160 239 154 234 154 227 C 154 223 154 220 156 216 C 157 212 161 207 167 201 L 193 172 L 222 197 C 228 202 233 207 238 212 C 243 216 246 221 246 225 C 246 229 245 232 243 234 C 241 236 236 239 228 241 L 220 243 L 220 275 L 344 275 L 344 243 L 333 241 C 323 239 314 235 305 227 C 295 219 286 210 276 202 L 214 149 L 288 69 Z" unicode="x" />
<glyph horiz-adv-x="352" d="M 340 241 C 324 239 309 224 295 196 L 173 -34 C 159 -59 144 -77 128 -87 C 111 -97 93 -102 74 -102 C 62 -102 52 -99 44 -93 C 36 -87 32 -79 32 -68 C 32 -55 39 -45 53 -39 C 67 -33 89 -31 121 -34 C 124 -32 128 -27 133 -20 C 137 -13 141 -7 143 -3 L 50 200 C 44 214 38 223 33 229 C 27 234 20 238 10 241 L -2 243 L -2 275 L 171 275 L 171 243 L 157 241 C 151 239 146 238 142 236 C 137 234 135 230 135 225 C 135 219 136 214 138 208 C 140 202 143 197 145 193 L 195 81 L 248 183 C 251 191 254 197 256 203 C 258 209 260 214 260 220 C 260 225 257 229 251 233 C 245 237 238 239 231 241 L 215 243 L 215 275 L 357 275 L 357 243 L 340 241 Z" unicode="y" />
<glyph horiz-adv-x="320" d="M 291 0 L 31 0 L 23 19 L 196 242 L 127 242 C 109 242 97 239 89 233 C 81 227 74 219 69 207 L 63 193 L 32 193 L 49 292 L 78 292 C 78 288 80 286 83 284 C 85 282 91 280 99 279 C 107 277 120 276 137 276 C 153 275 176 275 206 275 L 297 275 L 305 255 L 133 35 L 211 35 C 228 35 241 37 249 42 C 257 46 264 55 270 69 L 280 95 L 311 95 L 291 0 Z" unicode="z" />
<glyph horiz-adv-x="256" d="M 216 -101 C 170 -87 134 -73 108 -59 C 81 -45 68 -27 68 -7 C 68 10 71 26 77 42 C 83 58 86 73 86 89 C 86 105 82 115 74 119 C 66 123 49 126 25 126 L 16 126 L 16 162 L 25 162 C 49 162 66 164 74 168 C 82 172 86 181 86 197 C 86 212 83 228 77 245 C 71 261 68 278 68 295 C 68 315 81 333 107 348 C 133 363 170 377 216 389 L 223 363 C 211 357 201 352 193 348 C 184 344 177 341 171 337 C 165 333 161 329 158 325 C 155 320 154 314 154 307 C 154 289 156 272 162 256 C 168 239 171 223 171 207 C 171 197 168 188 162 181 C 156 173 148 167 139 162 C 130 157 120 153 110 150 C 99 147 90 145 82 144 C 90 142 99 140 110 137 C 120 134 130 130 139 125 C 148 119 156 113 162 105 C 168 97 171 89 171 79 C 171 63 168 47 162 31 C 156 15 154 -1 154 -18 C 154 -26 155 -32 158 -36 C 161 -40 165 -44 171 -48 C 177 -51 184 -54 193 -58 C 201 -62 211 -67 223 -73 L 216 -101 Z" unicode="{" />
<glyph horiz-adv-x="192" d="M 66 -96 L 66 409 L 125 409 L 125 -96 L 66 -96 Z" unicode="|" />
<glyph horiz-adv-x="256" d="M 33 -73 C 44 -67 54 -62 63 -58 C 71 -54 78 -51 84 -48 C 90 -44 94 -40 97 -36 C 100 -32 102 -26 102 -18 C 102 -1 99 15 93 31 C 87 47 85 63 85 79 C 85 89 88 97 94 105 C 100 113 107 119 116 125 C 125 130 135 134 145 137 C 155 140 164 142 174 144 C 164 145 155 147 145 150 C 135 153 125 157 116 162 C 107 167 100 173 94 181 C 88 188 85 197 85 207 C 85 223 87 239 93 256 C 99 272 102 289 102 307 C 102 314 100 320 97 325 C 94 329 90 333 84 337 C 78 341 71 344 63 348 C 54 352 44 357 33 363 L 40 389 C 86 377 122 363 148 348 C 174 333 188 315 188 295 C 188 278 185 261 179 245 C 173 228 170 212 170 197 C 170 181 174 172 182 168 C 190 164 206 162 231 162 L 240 162 L 240 126 L 231 126 C 206 126 190 123 182 119 C 174 115 170 105 170 89 C 170 73 173 58 179 42 C 185 26 188 10 188 -7 C 188 -27 174 -45 148 -59 C 121 -73 85 -87 40 -101 L 33 -73 Z" unicode="}" />
<glyph horiz-adv-x="288" d="M 274 201 C 269 189 264 178 258 167 C 252 155 245 145 239 137 C 233 128 226 121 219 116 C 212 110 205 108 199 108 C 191 108 182 108 170 110 C 158 112 146 114 134 116 C 122 118 110 120 99 122 C 87 124 78 125 72 125 C 66 125 59 123 53 119 C 46 115 40 107 34 96 L 13 112 C 19 140 29 163 43 179 C 57 195 70 203 84 203 C 91 203 100 202 112 200 C 124 198 136 195 148 193 C 160 191 172 189 183 187 C 194 185 203 184 211 184 C 218 184 224 186 229 190 C 234 194 240 201 248 213 L 274 201 Z" unicode="~" />
<glyph horiz-adv-x="192" d="" unicode="" />
<glyph horiz-adv-x="192" d="M 81 240 L 112 240 L 147 35 C 149 21 145 10 136 3 C 126 -4 113 -8 96 -8 C 78 -8 65 -4 56 3 C 46 10 43 21 45 35 L 81 240 Z M 48 340 C 48 353 53 364 63 374 C 73 383 84 388 96 388 C 109 388 120 383 130 374 C 140 364 145 353 145 340 C 145 325 140 313 130 304 C 120 295 109 291 96 291 C 84 291 73 295 63 304 C 53 313 48 325 48 340 Z" unicode="" />
<glyph horiz-adv-x="320" d="M 181 -54 L 141 -49 L 145 -4 C 137 -2 129 0 121 2 C 101 9 84 19 70 31 C 56 43 45 58 37 75 C 29 91 25 109 25 129 C 25 153 29 175 39 195 C 49 214 62 230 78 244 C 94 257 112 267 133 274 C 146 278 160 281 174 283 L 180 342 L 219 337 L 214 285 C 243 283 266 276 282 266 C 301 253 311 239 311 225 C 311 210 307 199 300 191 C 292 183 284 179 274 179 C 262 179 250 183 239 192 C 227 200 221 216 220 238 C 216 239 213 240 209 242 L 190 40 C 195 39 201 39 208 39 C 231 39 248 43 260 51 C 272 59 281 67 289 76 L 316 56 C 302 36 284 21 261 10 C 237 -1 212 -7 185 -8 L 181 -54 Z M 131 220 C 121 203 117 181 117 154 C 117 119 124 91 140 70 C 143 65 147 61 151 57 L 170 245 C 152 243 139 234 131 220 Z" unicode="" />
<glyph horiz-adv-x="352" d="M 298 0 L 32 0 L 19 22 C 42 32 61 44 75 58 C 89 72 96 93 96 121 C 96 129 95 136 93 144 C 91 151 88 159 86 169 L 29 169 L 29 210 L 71 210 C 65 223 60 236 56 250 C 52 263 50 277 50 293 C 50 321 63 344 90 362 C 116 379 154 388 202 388 C 239 388 268 382 288 371 C 308 360 319 346 319 328 C 319 316 315 307 309 300 C 303 292 294 289 283 289 C 271 289 260 293 251 301 C 242 309 232 325 221 349 C 217 350 213 351 209 351 C 205 351 200 352 193 352 C 174 352 159 348 149 340 C 139 332 134 321 134 308 C 134 293 137 277 144 261 C 150 245 157 228 164 210 L 271 210 L 271 169 L 175 169 C 177 157 178 147 178 138 C 178 114 173 96 165 84 C 156 72 143 60 126 49 L 230 58 C 252 60 268 65 278 71 C 288 77 296 87 303 100 L 309 112 L 335 112 L 298 0 Z" unicode="" />
<glyph horiz-adv-x="352" d="M 318 88 L 277 49 L 219 111 C 208 104 193 101 175 101 C 157 101 142 104 132 111 L 74 49 L 33 88 L 93 150 C 90 154 88 160 86 168 C 84 175 83 184 83 195 C 83 204 84 213 86 221 C 88 229 90 235 93 240 L 33 302 L 74 341 L 132 279 C 142 285 157 289 175 289 C 193 289 208 285 219 279 L 278 341 L 319 299 L 259 240 C 261 235 264 229 266 221 C 268 213 269 205 269 195 C 269 176 265 161 258 150 L 318 88 Z M 214 195 C 214 207 210 216 203 224 C 195 231 186 235 175 235 C 163 235 154 231 147 224 C 139 216 136 207 136 195 C 136 183 139 173 147 166 C 155 158 164 155 175 155 C 187 155 196 158 203 166 C 210 173 214 183 214 195 Z" unicode="" />
<glyph horiz-adv-x="432" d="M 75 153 L 75 187 L 150 187 L 76 305 C 64 320 55 331 47 337 C 39 343 31 347 22 349 L 7 351 L 7 384 L 212 384 L 212 351 L 190 349 C 181 347 175 345 173 342 C 170 338 169 334 169 330 C 169 323 173 313 181 301 L 240 202 L 286 282 C 291 289 295 296 299 304 C 303 312 305 319 305 325 C 305 339 296 347 278 349 L 258 351 L 258 384 L 425 384 L 425 351 L 409 350 C 397 349 387 346 381 340 C 374 334 367 325 359 313 L 278 187 L 355 187 L 355 153 L 263 153 L 263 116 L 355 116 L 355 83 L 263 83 C 263 79 264 76 264 73 C 265 64 267 57 270 52 C 272 46 276 42 281 40 C 285 37 292 35 300 35 L 326 33 L 326 0 L 105 0 L 105 33 L 132 35 C 147 36 157 41 162 51 C 165 57 167 68 169 83 L 75 83 L 75 116 L 170 116 L 170 153 L 75 153 Z" unicode="" />
<glyph horiz-adv-x="192" d="M 66 197 L 66 409 L 125 409 L 125 197 L 66 197 Z M 125 116 L 125 -96 L 66 -96 L 66 116 L 125 116 Z" unicode="" />
<glyph horiz-adv-x="288" d="M 272 168 C 272 146 267 124 258 103 C 248 81 236 62 220 46 C 204 30 186 17 166 7 C 146 -3 124 -8 102 -8 C 82 -8 69 -4 61 3 C 53 11 49 20 49 32 C 49 42 52 50 58 56 C 64 62 73 65 85 65 C 92 65 102 62 114 57 C 126 51 137 44 149 34 C 162 39 174 47 184 58 C 194 68 202 79 208 91 C 144 87 96 96 64 120 C 32 143 16 176 16 220 C 16 242 20 263 30 284 C 39 304 51 323 67 339 C 82 355 100 367 121 377 C 141 386 163 391 185 391 C 204 391 218 387 226 379 C 234 371 239 362 239 351 C 239 339 235 331 229 326 C 222 320 213 318 203 318 C 195 318 185 320 171 326 C 157 332 145 340 134 350 C 107 340 88 322 76 298 C 138 302 187 292 221 268 C 255 244 272 211 272 168 Z M 231 155 C 228 187 210 209 178 222 C 146 234 105 238 57 233 C 59 201 77 178 109 166 C 141 153 182 149 231 155 Z" unicode="" />
<glyph horiz-adv-x="256" d="M 232 364 C 232 351 227 340 219 332 C 210 323 199 319 187 319 C 174 319 163 323 154 332 C 145 340 141 351 141 364 C 141 377 145 388 154 397 C 163 405 174 410 187 410 C 199 410 210 405 219 397 C 227 388 232 377 232 364 Z M 115 364 C 115 351 110 340 101 332 C 92 323 81 319 69 319 C 56 319 45 323 37 332 C 28 340 24 351 24 364 C 24 377 28 388 37 397 C 45 405 56 410 69 410 C 81 410 92 405 101 397 C 110 388 115 377 115 364 Z" unicode="" />
<glyph horiz-adv-x="448" d="M 429 191 C 429 163 423 136 412 112 C 401 88 386 67 368 49 C 350 31 328 17 303 7 C 278 -2 252 -8 224 -8 C 196 -8 169 -2 144 7 C 119 17 97 31 79 49 C 60 67 45 88 35 112 C 24 136 19 163 19 191 C 19 219 24 245 35 269 C 45 293 60 315 79 333 C 97 351 119 365 144 375 C 169 385 196 391 224 391 C 252 391 278 385 303 375 C 328 365 350 351 368 333 C 386 315 401 293 412 269 C 423 245 429 219 429 191 Z M 402 191 C 402 215 397 238 388 260 C 378 281 366 299 350 315 C 334 331 315 343 293 352 C 271 361 248 366 224 366 C 199 366 176 361 154 352 C 132 343 114 331 98 315 C 82 299 69 281 60 260 C 51 238 47 215 47 191 C 47 167 51 144 60 123 C 69 101 82 83 98 67 C 114 51 132 39 154 30 C 176 21 199 17 224 17 C 248 17 271 21 293 30 C 315 39 334 51 350 67 C 366 83 378 101 388 123 C 397 144 402 167 402 191 Z M 315 96 C 305 90 294 86 280 83 C 266 79 250 78 233 78 C 195 78 165 87 142 107 C 118 126 107 154 107 192 C 107 210 110 226 117 240 C 124 254 133 265 145 275 C 157 285 170 292 186 297 C 202 302 218 305 236 305 C 251 305 265 303 279 300 C 292 296 303 292 313 287 L 318 225 L 288 225 L 282 237 C 278 245 273 254 265 263 C 257 271 247 276 234 276 C 218 276 206 269 197 256 C 188 242 184 222 184 196 C 184 166 188 143 198 129 C 207 114 220 107 238 107 C 249 107 258 110 266 118 C 274 125 280 134 285 146 L 289 158 L 319 158 L 315 96 Z" unicode="" />
<glyph horiz-adv-x="288" d="M 278 194 C 268 190 259 187 250 184 C 240 181 229 180 217 180 C 205 180 195 182 188 188 C 180 193 174 200 169 210 C 144 189 121 179 101 179 C 77 179 59 184 46 195 C 32 206 26 219 26 235 C 26 251 30 263 39 272 C 47 280 60 288 78 296 C 82 297 87 299 95 301 C 103 303 111 306 120 308 C 128 310 137 313 145 315 C 153 317 161 319 167 321 L 167 338 C 167 355 164 367 158 373 C 152 379 144 383 132 383 C 128 383 121 381 109 378 C 108 366 106 356 104 350 C 101 343 98 338 94 335 C 90 331 85 329 81 328 C 77 327 73 327 69 327 C 59 327 52 329 46 335 C 40 340 38 348 38 359 C 38 364 40 370 45 376 C 49 382 56 388 65 394 C 73 400 84 404 97 408 C 109 412 124 414 141 414 C 169 414 192 408 211 396 C 229 384 239 365 239 339 L 239 242 C 239 232 240 226 242 222 C 244 218 247 217 253 217 C 256 217 263 218 273 222 L 278 194 Z M 24 91 L 24 139 L 265 139 L 265 91 L 24 91 Z M 167 293 C 161 290 152 287 141 284 C 130 281 123 278 119 276 C 111 272 106 269 103 266 C 100 262 99 257 99 251 C 99 239 102 232 108 228 C 114 224 120 222 128 222 C 131 222 137 223 146 226 C 154 228 161 231 167 233 L 167 293 Z" unicode="" />
<glyph horiz-adv-x="320" d="M 264 -6 L 140 132 L 264 269 L 290 255 L 229 132 L 290 8 L 264 -6 Z M 139 -6 L 15 132 L 139 269 L 165 255 L 104 132 L 165 8 L 139 -6 Z" unicode="" />
<glyph horiz-adv-x="352" d="M 320 41 L 258 41 L 258 146 L 32 146 L 32 207 L 320 207 L 320 41 Z" unicode="" />
<glyph horiz-adv-x="320" d="M 311 244 C 311 222 307 202 299 184 C 291 166 281 150 267 137 C 253 124 237 114 219 107 C 201 100 181 97 160 97 C 138 97 118 100 100 107 C 82 114 66 124 53 137 C 39 150 29 166 21 184 C 13 202 10 222 10 244 C 10 266 13 286 21 304 C 29 322 39 337 53 350 C 66 363 82 373 100 380 C 118 387 138 391 160 391 C 181 391 201 387 219 380 C 237 373 253 363 267 350 C 281 337 291 322 299 304 C 307 286 311 266 311 244 Z M 285 244 C 285 282 273 312 251 334 C 228 356 198 368 160 368 C 122 368 91 356 69 334 C 47 312 36 282 36 244 C 36 206 47 176 69 154 C 91 132 122 121 160 121 C 198 121 228 132 251 154 C 273 176 285 206 285 244 Z M 251 170 C 245 169 240 168 236 168 C 231 168 227 168 225 168 C 213 168 205 169 199 173 C 193 177 187 184 182 194 L 156 238 L 147 238 L 147 226 C 147 210 147 200 148 196 C 149 192 153 189 159 188 L 169 187 L 169 169 L 83 169 L 83 187 L 93 188 C 98 189 101 192 103 197 C 104 201 105 211 105 226 L 105 271 C 105 286 104 296 103 301 C 101 305 98 308 93 310 L 83 311 L 83 329 L 169 329 C 188 329 203 325 214 317 C 224 309 230 299 230 286 C 230 276 227 267 221 260 C 215 252 208 247 200 243 L 227 199 C 230 193 233 190 236 189 C 239 187 244 187 250 187 L 251 170 Z M 184 282 C 184 290 181 297 177 301 C 173 305 167 308 160 308 L 147 308 L 147 252 L 152 252 C 173 252 184 262 184 282 Z" unicode="" />
<glyph horiz-adv-x="256" d="M 38 330 L 38 390 L 218 390 L 218 330 L 38 330 Z" unicode="" />
<glyph horiz-adv-x="208" d="M 194 300 C 194 274 185 253 168 236 C 150 219 129 211 104 211 C 78 211 57 219 39 236 C 21 253 13 274 13 300 C 13 325 21 346 39 364 C 57 382 78 391 104 391 C 129 391 150 382 168 364 C 185 346 194 325 194 300 Z M 154 300 C 154 316 149 330 140 340 C 130 350 118 355 104 355 C 88 355 76 350 67 340 C 58 330 54 316 54 300 C 54 284 58 271 67 261 C 76 250 88 245 104 245 C 118 245 130 250 140 261 C 149 271 154 284 154 300 Z" unicode="" />
<glyph horiz-adv-x="352" d="M 207 182 L 207 77 L 145 77 L 145 182 L 32 182 L 32 243 L 145 243 L 145 350 L 207 350 L 207 243 L 320 243 L 320 182 L 207 182 Z M 32 17 L 32 78 L 320 78 L 320 17 L 32 17 Z" unicode="" />
<glyph horiz-adv-x="240" d="M 29 138 L 17 158 L 100 251 C 111 264 120 276 127 287 C 133 298 137 310 137 322 C 137 346 124 359 100 359 C 88 359 78 356 70 350 C 62 344 52 336 41 326 L 20 342 C 32 361 46 377 62 389 C 78 401 98 408 123 408 C 151 408 172 401 186 389 C 200 376 207 358 207 336 C 207 317 202 301 193 287 C 183 273 170 258 152 243 L 87 186 L 129 190 C 147 191 160 193 168 196 C 176 198 182 205 188 216 L 191 224 L 216 224 L 188 138 L 29 138 Z" unicode="" />
<glyph horiz-adv-x="224" d="M 72 135 C 52 135 38 138 29 145 C 20 151 16 159 16 167 C 16 175 18 181 24 187 C 30 192 37 195 45 195 C 52 195 60 193 68 189 C 76 185 84 177 94 163 C 108 168 119 174 128 182 C 137 190 142 200 142 214 C 142 229 137 240 127 246 C 117 252 105 255 92 255 C 86 255 81 254 76 254 C 70 253 65 251 60 249 L 48 273 C 65 281 79 289 90 296 C 100 302 109 308 115 313 C 121 318 125 323 127 327 C 129 331 130 335 130 340 C 130 346 127 352 122 357 C 116 361 108 364 96 364 C 84 364 75 362 67 359 C 59 355 49 350 38 343 L 21 361 C 34 374 49 385 66 393 C 83 401 102 406 124 406 C 147 406 165 401 177 393 C 189 384 196 372 196 358 C 196 346 192 335 184 325 C 176 315 162 306 143 297 C 161 293 175 286 186 277 C 196 267 202 254 202 237 C 202 224 198 212 191 200 C 184 188 175 177 163 167 C 151 157 137 150 121 144 C 105 138 89 135 72 135 Z" unicode="" />
<glyph horiz-adv-x="256" d="M 186 401 C 186 391 183 382 177 376 C 171 370 160 362 145 352 L 85 313 L 64 331 L 98 389 C 106 404 113 415 121 423 C 128 431 138 435 151 435 C 161 435 169 431 176 425 C 182 418 186 410 186 401 Z" unicode="" />
<glyph horiz-adv-x="368" d="M 227 40 C 217 25 204 13 189 5 C 174 -3 160 -8 147 -8 C 134 -8 122 -5 111 1 C 100 7 92 16 87 29 C 92 11 97 -5 102 -21 C 106 -37 109 -50 109 -60 C 109 -71 105 -80 97 -88 C 89 -95 78 -99 64 -99 C 50 -99 39 -95 31 -88 C 23 -80 19 -71 19 -60 C 19 -50 22 -32 28 -6 C 34 19 37 52 37 91 L 37 275 L 122 275 L 122 95 C 122 82 125 71 133 62 C 140 52 150 48 163 48 C 175 48 187 50 199 54 C 211 58 220 64 228 73 L 227 275 L 313 275 L 313 63 C 313 57 314 52 318 46 C 322 40 328 37 338 37 C 346 37 355 39 364 45 L 369 19 C 348 2 322 -6 291 -6 C 275 -6 260 -1 247 6 C 233 14 227 26 227 40 Z" unicode="" />
<glyph horiz-adv-x="336" d="M 284 350 L 284 0 L 243 0 L 243 350 L 197 350 L 197 68 C 197 42 189 23 175 12 C 161 0 145 -5 127 -5 C 113 -5 100 -2 89 4 C 78 10 69 18 61 28 L 88 52 C 101 37 114 30 127 30 C 135 30 142 32 148 38 C 153 44 156 53 156 67 L 156 137 L 150 137 C 132 137 114 139 98 145 C 81 151 66 159 54 169 C 41 179 31 192 24 208 C 16 224 13 242 13 262 C 13 282 16 300 24 316 C 32 331 42 344 55 354 C 68 364 83 371 101 376 C 119 381 138 384 158 384 L 326 384 L 326 350 L 284 350 Z" unicode="" />
<glyph horiz-adv-x="192" d="M 156 146 C 156 127 150 112 138 102 C 126 92 112 87 97 87 C 81 87 66 92 54 102 C 42 112 36 127 36 146 C 36 163 42 177 54 188 C 66 198 81 204 97 204 C 112 204 126 198 138 188 C 150 177 156 163 156 146 Z" unicode="" />
<glyph horiz-adv-x="256" d="M 207 -55 C 207 -64 204 -73 198 -81 C 192 -89 184 -95 175 -101 C 165 -107 155 -111 143 -115 C 131 -118 118 -120 106 -120 C 80 -120 67 -113 67 -101 C 67 -88 73 -82 86 -82 C 98 -82 112 -86 126 -96 C 133 -94 138 -92 142 -91 C 145 -89 147 -86 147 -81 C 147 -73 143 -67 137 -61 C 130 -55 118 -53 100 -55 L 92 -48 L 121 4 L 160 4 L 145 -22 C 165 -22 181 -25 191 -31 C 201 -37 207 -45 207 -55 Z" unicode="" />
<glyph horiz-adv-x="192" d="M 115 141 L 82 141 C 74 141 66 140 58 140 C 50 140 42 140 35 140 L 21 140 L 21 165 L 42 166 C 46 166 50 167 53 169 C 55 171 57 174 59 178 C 60 182 61 187 62 195 C 62 202 63 211 63 223 L 63 319 C 63 341 61 355 58 362 C 54 369 47 373 35 373 L 20 373 L 20 398 C 26 398 33 398 43 399 C 52 400 61 401 71 403 C 81 404 90 405 98 406 C 106 407 113 408 119 410 L 134 400 L 134 223 C 134 200 135 185 138 178 C 140 170 146 166 156 166 L 173 165 L 173 140 L 159 140 C 152 140 145 140 137 140 C 129 140 122 141 115 141 Z" unicode="" />
<glyph horiz-adv-x="304" d="M 279 291 C 279 274 275 259 268 245 C 261 231 252 220 241 210 C 229 200 216 192 201 187 C 185 181 169 179 153 179 C 135 179 119 181 104 186 C 88 191 75 199 64 209 C 52 219 43 231 36 246 C 29 261 26 279 26 299 C 26 315 29 331 36 345 C 42 359 51 371 63 381 C 74 391 87 398 103 404 C 119 410 135 413 153 413 C 169 413 185 410 200 405 C 215 400 228 392 240 382 C 252 372 261 359 268 344 C 275 328 279 311 279 291 Z M 32 92 L 32 140 L 271 140 L 271 92 L 32 92 Z M 193 275 C 193 305 189 329 181 347 C 173 365 163 375 149 375 C 135 375 126 370 120 361 C 114 352 111 337 111 315 C 111 285 115 261 123 243 C 131 225 143 216 157 216 C 170 216 179 220 185 229 C 190 238 193 253 193 275 Z" unicode="" />
<glyph horiz-adv-x="320" d="M 181 -6 L 156 8 L 216 132 L 156 255 L 181 269 L 305 132 L 181 -6 Z M 56 -6 L 31 8 L 91 132 L 31 255 L 56 269 L 180 132 L 56 -6 Z" unicode="" />
<glyph horiz-adv-x="528" d="M 160 -8 L 128 11 L 366 391 L 399 372 L 160 -8 Z M 115 132 L 82 132 C 74 132 66 131 58 131 C 50 131 42 131 35 131 L 21 131 L 21 156 L 42 157 C 46 157 50 158 53 160 C 55 162 57 165 59 169 C 60 173 61 178 62 186 C 62 193 63 202 63 214 L 63 310 C 63 332 61 346 58 353 C 54 360 47 364 35 364 L 20 364 L 20 389 C 26 389 33 389 43 390 C 52 391 61 392 71 394 C 81 395 90 396 98 397 C 106 398 113 399 119 401 L 134 391 L 134 214 C 134 191 135 176 138 169 C 140 161 146 157 156 157 L 173 156 L 173 131 L 159 131 C 152 131 145 131 137 131 C 129 131 122 132 115 132 Z M 461 1 L 398 1 L 398 68 L 284 68 L 273 86 L 404 269 L 461 269 L 461 107 L 500 107 L 500 68 L 461 68 L 461 1 Z M 326 107 L 398 107 L 398 207 L 326 107 Z" unicode="" />
<glyph horiz-adv-x="544" d="M 159 -8 L 127 11 L 365 391 L 398 372 L 159 -8 Z M 338 1 L 326 21 L 409 114 C 420 127 429 139 436 150 C 442 161 446 173 446 185 C 446 209 433 222 409 222 C 397 222 387 219 379 213 C 371 207 361 199 350 189 L 329 205 C 341 224 355 240 371 252 C 387 264 407 271 432 271 C 460 271 481 264 495 252 C 509 239 516 221 516 199 C 516 180 511 164 502 150 C 492 136 479 121 461 106 L 396 49 L 438 53 C 456 54 469 56 477 59 C 485 61 491 68 497 79 L 500 87 L 525 87 L 497 1 L 338 1 Z M 115 132 L 82 132 C 74 132 66 131 58 131 C 50 131 42 131 35 131 L 21 131 L 21 156 L 42 157 C 46 157 50 158 53 160 C 55 162 57 165 59 169 C 60 173 61 178 62 186 C 62 193 63 202 63 214 L 63 310 C 63 332 61 346 58 353 C 54 360 47 364 35 364 L 20 364 L 20 389 C 26 389 33 389 43 390 C 52 391 61 392 71 394 C 81 395 90 396 98 397 C 106 398 113 399 119 401 L 134 391 L 134 214 C 134 191 135 176 138 169 C 140 161 146 157 156 157 L 173 156 L 173 131 L 159 131 C 152 131 145 131 137 131 C 129 131 122 132 115 132 Z" unicode="" />
<glyph horiz-adv-x="544" d="M 176 -8 L 144 11 L 382 391 L 415 372 L 176 -8 Z M 82 126 C 62 126 48 129 39 136 C 30 142 26 150 26 158 C 26 166 28 172 34 178 C 40 183 47 186 55 186 C 62 186 70 184 78 180 C 86 176 94 168 104 154 C 118 159 129 165 138 173 C 147 181 152 191 152 205 C 152 220 147 231 137 237 C 127 243 115 246 102 246 C 96 246 91 245 86 245 C 80 244 75 242 70 240 L 58 264 C 75 272 89 280 100 287 C 110 293 119 299 125 304 C 131 309 135 314 137 318 C 139 322 140 326 140 331 C 140 337 137 343 132 348 C 126 352 118 355 106 355 C 94 355 85 353 77 350 C 69 346 59 341 48 334 L 31 352 C 44 365 59 376 76 384 C 93 392 112 397 134 397 C 157 397 175 392 187 384 C 199 375 206 363 206 349 C 206 337 202 326 194 316 C 186 306 172 297 153 288 C 171 284 185 277 196 268 C 206 258 212 245 212 228 C 212 215 208 203 201 191 C 194 179 185 168 173 158 C 161 148 147 141 131 135 C 115 129 99 126 82 126 Z M 477 1 L 414 1 L 414 68 L 300 68 L 289 86 L 420 269 L 477 269 L 477 107 L 516 107 L 516 68 L 477 68 L 477 1 Z M 342 107 L 414 107 L 414 207 L 342 107 Z" unicode="" />
<glyph horiz-adv-x="288" d="M 14 124 C 14 144 20 162 34 178 C 47 193 70 204 102 212 C 118 216 128 220 133 226 C 137 231 140 236 140 240 L 140 247 C 140 249 139 254 139 262 L 176 266 C 178 252 180 238 182 222 C 184 206 185 193 185 184 C 185 170 178 159 166 152 C 154 145 139 139 122 135 C 97 129 81 122 75 116 C 69 109 66 103 66 98 C 66 90 68 82 73 76 C 78 69 84 63 91 59 C 98 54 105 50 113 47 C 121 44 128 42 134 41 C 148 51 160 59 169 63 C 177 67 186 69 196 69 C 207 69 216 66 224 60 C 232 54 236 44 236 32 C 236 19 231 9 222 2 C 213 -4 198 -8 177 -8 C 161 -8 143 -4 124 1 C 105 7 87 16 71 28 C 55 39 41 53 30 69 C 19 85 14 104 14 124 Z M 104 340 C 104 353 108 364 118 374 C 128 383 139 388 152 388 C 164 388 176 383 186 374 C 196 364 201 353 201 340 C 201 325 196 313 186 304 C 176 295 164 291 152 291 C 139 291 128 295 118 304 C 108 313 104 325 104 340 Z" unicode="" />
<glyph horiz-adv-x="480" d="M 265 0 L 265 33 L 285 35 C 302 36 310 43 310 56 C 310 64 306 76 300 92 L 289 122 L 143 122 L 133 99 C 130 93 128 86 127 79 C 125 72 125 66 125 62 C 125 54 127 48 133 43 C 138 38 145 35 154 35 L 175 33 L 175 0 L 3 0 L 3 33 L 25 34 C 29 34 34 35 38 37 C 42 38 46 41 50 45 C 54 49 59 56 63 64 C 67 72 73 82 79 96 L 182 335 L 247 393 L 276 393 L 400 92 C 410 70 418 55 424 48 C 430 40 440 36 453 35 L 477 33 L 477 0 L 265 0 Z M 218 303 L 157 161 L 273 161 L 218 303 Z M 164 510 C 164 519 167 527 174 534 C 180 540 189 544 199 544 C 211 544 221 540 229 532 C 236 524 244 513 252 498 L 286 440 L 265 422 L 205 461 C 189 471 179 479 173 485 C 167 491 164 500 164 510 Z" unicode="" />
<glyph horiz-adv-x="480" d="M 265 0 L 265 33 L 285 35 C 302 36 310 43 310 56 C 310 64 306 76 300 92 L 289 122 L 143 122 L 133 99 C 130 93 128 86 127 79 C 125 72 125 66 125 62 C 125 54 127 48 133 43 C 138 38 145 35 154 35 L 175 33 L 175 0 L 3 0 L 3 33 L 25 34 C 29 34 34 35 38 37 C 42 38 46 41 50 45 C 54 49 59 56 63 64 C 67 72 73 82 79 96 L 182 335 L 247 393 L 276 393 L 400 92 C 410 70 418 55 424 48 C 430 40 440 36 453 35 L 477 33 L 477 0 L 265 0 Z M 218 303 L 157 161 L 273 161 L 218 303 Z M 320 510 C 320 500 317 491 311 485 C 305 479 294 471 279 461 L 219 422 L 198 440 L 232 498 C 240 513 247 524 255 532 C 262 540 272 544 285 544 C 295 544 303 540 310 534 C 316 527 320 519 320 510 Z" unicode="" />
<glyph horiz-adv-x="480" d="M 265 0 L 265 33 L 285 35 C 302 36 310 43 310 56 C 310 64 306 76 300 92 L 289 122 L 143 122 L 133 99 C 130 93 128 86 127 79 C 125 72 125 66 125 62 C 125 54 127 48 133 43 C 138 38 145 35 154 35 L 175 33 L 175 0 L 3 0 L 3 33 L 25 34 C 29 34 34 35 38 37 C 42 38 46 41 50 45 C 54 49 59 56 63 64 C 67 72 73 82 79 96 L 182 335 L 247 393 L 276 393 L 400 92 C 410 70 418 55 424 48 C 430 40 440 36 453 35 L 477 33 L 477 0 L 265 0 Z M 218 303 L 157 161 L 273 161 L 218 303 Z M 305 420 L 235 469 L 165 420 L 146 436 L 212 535 L 258 535 L 324 436 L 305 420 Z" unicode="" />
<glyph horiz-adv-x="480" d="M 265 0 L 265 33 L 285 35 C 302 36 310 43 310 56 C 310 64 306 76 300 92 L 289 122 L 143 122 L 133 99 C 130 93 128 86 127 79 C 125 72 125 66 125 62 C 125 54 127 48 133 43 C 138 38 145 35 154 35 L 175 33 L 175 0 L 3 0 L 3 33 L 25 34 C 29 34 34 35 38 37 C 42 38 46 41 50 45 C 54 49 59 56 63 64 C 67 72 73 82 79 96 L 182 335 L 247 393 L 276 393 L 400 92 C 410 70 418 55 424 48 C 430 40 440 36 453 35 L 477 33 L 477 0 L 265 0 Z M 218 303 L 157 161 L 273 161 L 218 303 Z M 338 507 C 326 481 313 463 301 452 C 289 441 275 436 259 436 C 245 436 232 438 220 444 C 208 449 196 452 183 452 C 176 452 169 450 163 447 C 157 443 150 436 143 426 L 122 441 C 134 466 146 484 158 496 C 170 507 185 513 201 513 C 215 513 227 510 239 504 C 251 498 263 496 277 496 C 283 496 290 497 296 501 C 302 505 309 512 317 522 L 338 507 Z" unicode="" />
<glyph horiz-adv-x="480" d="M 265 0 L 265 33 L 285 35 C 302 36 310 43 310 56 C 310 64 306 76 300 92 L 289 122 L 143 122 L 133 99 C 130 93 128 86 127 79 C 125 72 125 66 125 62 C 125 54 127 48 133 43 C 138 38 145 35 154 35 L 175 33 L 175 0 L 3 0 L 3 33 L 25 34 C 29 34 34 35 38 37 C 42 38 46 41 50 45 C 54 49 59 56 63 64 C 67 72 73 82 79 96 L 182 335 L 247 393 L 276 393 L 400 92 C 410 70 418 55 424 48 C 430 40 440 36 453 35 L 477 33 L 477 0 L 265 0 Z M 218 303 L 157 161 L 273 161 L 218 303 Z M 346 473 C 346 460 341 449 333 441 C 324 432 313 428 301 428 C 288 428 277 432 268 441 C 259 449 255 460 255 473 C 255 486 259 497 268 506 C 277 514 288 519 301 519 C 313 519 324 514 333 506 C 341 497 346 486 346 473 Z M 229 473 C 229 460 224 449 215 441 C 206 432 195 428 183 428 C 170 428 159 432 151 441 C 142 449 138 460 138 473 C 138 486 142 497 151 506 C 159 514 170 519 183 519 C 195 519 206 514 215 506 C 224 497 229 486 229 473 Z" unicode="" />
<glyph horiz-adv-x="480" d="M 265 0 L 265 33 L 285 35 C 302 36 310 43 310 56 C 310 64 306 76 300 92 L 289 122 L 143 122 L 133 99 C 130 93 128 86 127 79 C 125 72 125 66 125 62 C 125 54 127 48 133 43 C 138 38 145 35 154 35 L 175 33 L 175 0 L 3 0 L 3 33 L 25 34 C 29 34 34 35 38 37 C 42 38 46 41 50 45 C 54 49 59 56 63 64 C 67 72 73 82 79 96 L 182 335 L 247 393 L 276 393 L 400 92 C 410 70 418 55 424 48 C 430 40 440 36 453 35 L 477 33 L 477 0 L 265 0 Z M 218 303 L 157 161 L 273 161 L 218 303 Z M 328 489 C 328 469 320 454 306 443 C 292 431 274 426 252 426 C 230 426 211 431 197 443 C 183 454 176 469 176 489 C 176 508 183 523 197 535 C 211 546 230 552 252 552 C 274 552 292 546 306 535 C 320 523 328 508 328 489 Z M 284 489 C 284 500 281 509 275 516 C 269 522 262 526 252 526 C 242 526 234 522 228 516 C 222 509 220 500 220 489 C 220 477 222 468 228 461 C 234 454 242 451 252 451 C 262 451 269 454 275 461 C 281 468 284 477 284 489 Z" unicode="" />
<glyph horiz-adv-x="576" d="M 221 33 L 241 37 C 247 37 253 39 257 41 C 261 43 265 48 267 54 C 269 60 271 68 273 78 C 274 88 275 101 275 119 L 141 119 L 126 98 C 118 88 114 80 112 73 C 110 66 109 60 109 55 C 109 49 110 45 114 43 C 118 40 125 38 137 36 L 149 34 L 149 0 L -5 0 L -5 33 L 6 35 C 20 37 32 44 42 54 C 51 64 62 81 76 105 L 208 334 C 202 340 196 344 189 347 C 181 350 174 352 166 354 L 154 355 L 154 384 L 547 384 L 561 281 L 530 281 L 522 297 C 516 306 511 314 507 320 C 502 326 496 332 490 336 C 484 340 476 342 468 344 C 459 346 448 347 435 347 L 409 347 C 397 347 388 346 383 344 C 378 342 373 341 368 339 L 368 221 L 408 221 C 432 221 448 223 455 227 C 462 231 466 238 468 249 L 471 272 L 501 272 L 501 128 L 471 128 L 468 149 C 466 160 462 169 454 176 C 446 183 431 187 408 187 L 368 187 L 368 103 C 368 88 368 76 369 67 C 369 58 371 51 374 47 C 377 42 382 39 389 38 C 395 36 405 36 417 36 L 450 36 C 463 36 474 37 483 39 C 491 41 499 44 505 48 C 511 52 516 57 521 64 C 525 70 530 78 536 88 L 544 104 L 573 104 L 559 0 L 221 0 L 221 33 Z M 275 340 L 262 340 L 161 155 L 275 155 L 275 340 Z" unicode="" />
<glyph horiz-adv-x="432" d="M 409 23 C 394 14 373 7 345 1 C 317 -5 288 -8 258 -8 C 228 -8 200 -3 173 6 C 145 15 121 28 100 45 C 78 62 61 83 48 108 C 35 132 29 160 29 191 C 29 221 36 249 50 274 C 64 298 82 319 104 337 C 126 354 150 367 177 377 C 204 386 231 391 258 391 C 272 391 286 390 301 388 C 315 386 329 383 342 380 C 355 377 367 374 378 370 C 389 366 398 363 405 360 L 412 266 L 379 266 L 372 278 C 362 298 347 316 329 331 C 310 345 288 353 263 353 C 245 353 229 349 214 342 C 198 335 185 325 173 312 C 161 299 151 283 144 263 C 137 243 134 221 134 197 C 134 170 138 146 146 126 C 154 105 164 87 177 73 C 190 59 205 48 222 40 C 239 32 257 29 276 29 C 300 29 321 35 339 47 C 357 59 370 78 378 103 L 383 117 L 417 117 L 409 23 Z M 335 -55 C 335 -64 332 -73 326 -81 C 320 -89 312 -95 303 -101 C 293 -107 283 -111 271 -115 C 259 -118 246 -120 234 -120 C 208 -120 195 -113 195 -101 C 195 -88 201 -82 214 -82 C 226 -82 240 -86 254 -96 C 261 -94 266 -92 270 -91 C 273 -89 275 -86 275 -81 C 275 -73 271 -67 265 -61 C 258 -55 246 -53 228 -55 L 220 -48 L 249 4 L 288 4 L 273 -22 C 293 -22 309 -25 319 -31 C 329 -37 335 -45 335 -55 Z" unicode="" />
<glyph horiz-adv-x="400" d="M 383 0 L 14 0 L 14 33 L 36 35 C 49 36 59 41 66 50 C 72 59 76 78 76 107 L 76 277 C 76 306 73 325 69 334 C 64 342 56 347 44 349 L 14 351 L 14 384 L 371 384 L 385 281 L 354 281 L 346 297 C 340 306 335 314 331 320 C 326 326 320 332 314 336 C 308 340 300 342 292 344 C 283 346 272 347 259 347 L 213 347 C 201 347 192 346 186 344 C 180 342 174 341 169 339 L 169 221 L 229 221 C 253 221 270 223 278 227 C 286 231 290 238 292 249 L 295 272 L 325 272 L 325 128 L 295 128 L 292 149 C 290 160 285 169 277 176 C 268 183 252 187 229 187 L 169 187 L 169 103 C 169 88 169 76 170 67 C 170 58 172 51 176 47 C 180 42 185 39 192 38 C 199 36 209 36 221 36 L 274 36 C 287 36 298 37 307 39 C 315 41 323 44 329 48 C 335 52 340 57 345 64 C 349 70 354 78 360 88 L 368 104 L 397 104 L 383 0 Z M 154 510 C 154 519 157 527 164 534 C 170 540 179 544 189 544 C 201 544 211 540 219 532 C 226 524 234 513 242 498 L 276 440 L 255 422 L 195 461 C 179 471 169 479 163 485 C 157 491 154 500 154 510 Z" unicode="" />
<glyph horiz-adv-x="400" d="M 383 0 L 14 0 L 14 33 L 36 35 C 49 36 59 41 66 50 C 72 59 76 78 76 107 L 76 277 C 76 306 73 325 69 334 C 64 342 56 347 44 349 L 14 351 L 14 384 L 371 384 L 385 281 L 354 281 L 346 297 C 340 306 335 314 331 320 C 326 326 320 332 314 336 C 308 340 300 342 292 344 C 283 346 272 347 259 347 L 213 347 C 201 347 192 346 186 344 C 180 342 174 341 169 339 L 169 221 L 229 221 C 253 221 270 223 278 227 C 286 231 290 238 292 249 L 295 272 L 325 272 L 325 128 L 295 128 L 292 149 C 290 160 285 169 277 176 C 268 183 252 187 229 187 L 169 187 L 169 103 C 169 88 169 76 170 67 C 170 58 172 51 176 47 C 180 42 185 39 192 38 C 199 36 209 36 221 36 L 274 36 C 287 36 298 37 307 39 C 315 41 323 44 329 48 C 335 52 340 57 345 64 C 349 70 354 78 360 88 L 368 104 L 397 104 L 383 0 Z M 300 510 C 300 500 297 491 291 485 C 285 479 274 471 259 461 L 199 422 L 178 440 L 212 498 C 220 513 227 524 235 532 C 242 540 252 544 265 544 C 275 544 283 540 290 534 C 296 527 300 519 300 510 Z" unicode="" />
<glyph horiz-adv-x="400" d="M 383 0 L 14 0 L 14 33 L 36 35 C 49 36 59 41 66 50 C 72 59 76 78 76 107 L 76 277 C 76 306 73 325 69 334 C 64 342 56 347 44 349 L 14 351 L 14 384 L 371 384 L 385 281 L 354 281 L 346 297 C 340 306 335 314 331 320 C 326 326 320 332 314 336 C 308 340 300 342 292 344 C 283 346 272 347 259 347 L 213 347 C 201 347 192 346 186 344 C 180 342 174 341 169 339 L 169 221 L 229 221 C 253 221 270 223 278 227 C 286 231 290 238 292 249 L 295 272 L 325 272 L 325 128 L 295 128 L 292 149 C 290 160 285 169 277 176 C 268 183 252 187 229 187 L 169 187 L 169 103 C 169 88 169 76 170 67 C 170 58 172 51 176 47 C 180 42 185 39 192 38 C 199 36 209 36 221 36 L 274 36 C 287 36 298 37 307 39 C 315 41 323 44 329 48 C 335 52 340 57 345 64 C 349 70 354 78 360 88 L 368 104 L 397 104 L 383 0 Z M 282 420 L 212 469 L 142 420 L 123 436 L 189 535 L 235 535 L 301 436 L 282 420 Z" unicode="" />
<glyph horiz-adv-x="400" d="M 383 0 L 14 0 L 14 33 L 36 35 C 49 36 59 41 66 50 C 72 59 76 78 76 107 L 76 277 C 76 306 73 325 69 334 C 64 342 56 347 44 349 L 14 351 L 14 384 L 371 384 L 385 281 L 354 281 L 346 297 C 340 306 335 314 331 320 C 326 326 320 332 314 336 C 308 340 300 342 292 344 C 283 346 272 347 259 347 L 213 347 C 201 347 192 346 186 344 C 180 342 174 341 169 339 L 169 221 L 229 221 C 253 221 270 223 278 227 C 286 231 290 238 292 249 L 295 272 L 325 272 L 325 128 L 295 128 L 292 149 C 290 160 285 169 277 176 C 268 183 252 187 229 187 L 169 187 L 169 103 C 169 88 169 76 170 67 C 170 58 172 51 176 47 C 180 42 185 39 192 38 C 199 36 209 36 221 36 L 274 36 C 287 36 298 37 307 39 C 315 41 323 44 329 48 C 335 52 340 57 345 64 C 349 70 354 78 360 88 L 368 104 L 397 104 L 383 0 Z M 316 473 C 316 460 311 449 303 441 C 294 432 283 428 271 428 C 258 428 247 432 238 441 C 229 449 225 460 225 473 C 225 486 229 497 238 506 C 247 514 258 519 271 519 C 283 519 294 514 303 506 C 311 497 316 486 316 473 Z M 199 473 C 199 460 194 449 185 441 C 176 432 165 428 153 428 C 140 428 129 432 121 441 C 112 449 108 460 108 473 C 108 486 112 497 121 506 C 129 514 140 519 153 519 C 165 519 176 514 185 506 C 194 497 199 486 199 473 Z" unicode="" />
<glyph horiz-adv-x="256" d="M 19 0 L 19 33 L 42 35 C 56 36 66 41 72 51 C 78 61 81 79 81 107 L 81 277 C 81 304 78 322 72 332 C 66 342 56 347 42 349 L 19 351 L 19 384 L 234 384 L 234 351 L 210 349 C 194 347 184 342 180 332 C 176 322 174 304 174 277 L 174 107 C 174 79 176 60 180 51 C 184 41 194 36 210 35 L 237 33 L 237 0 L 19 0 Z M 53 510 C 53 519 56 527 63 534 C 69 540 78 544 88 544 C 100 544 110 540 118 532 C 125 524 133 513 141 498 L 175 440 L 154 422 L 94 461 C 78 471 68 479 62 485 C 56 491 53 500 53 510 Z" unicode="" />
<glyph horiz-adv-x="256" d="M 19 0 L 19 33 L 42 35 C 56 36 66 41 72 51 C 78 61 81 79 81 107 L 81 277 C 81 304 78 322 72 332 C 66 342 56 347 42 349 L 19 351 L 19 384 L 234 384 L 234 351 L 210 349 C 194 347 184 342 180 332 C 176 322 174 304 174 277 L 174 107 C 174 79 176 60 180 51 C 184 41 194 36 210 35 L 237 33 L 237 0 L 19 0 Z M 206 510 C 206 500 203 491 197 485 C 191 479 180 471 165 461 L 105 422 L 84 440 L 118 498 C 126 513 133 524 141 532 C 148 540 158 544 171 544 C 181 544 189 540 196 534 C 202 527 206 519 206 510 Z" unicode="" />
<glyph horiz-adv-x="256" d="M 19 0 L 19 33 L 42 35 C 56 36 66 41 72 51 C 78 61 81 79 81 107 L 81 277 C 81 304 78 322 72 332 C 66 342 56 347 42 349 L 19 351 L 19 384 L 234 384 L 234 351 L 210 349 C 194 347 184 342 180 332 C 176 322 174 304 174 277 L 174 107 C 174 79 176 60 180 51 C 184 41 194 36 210 35 L 237 33 L 237 0 L 19 0 Z M 198 420 L 128 469 L 58 420 L 39 436 L 105 535 L 151 535 L 217 436 L 198 420 Z" unicode="" />
<glyph horiz-adv-x="256" d="M 19 0 L 19 33 L 42 35 C 56 36 66 41 72 51 C 78 61 81 79 81 107 L 81 277 C 81 304 78 322 72 332 C 66 342 56 347 42 349 L 19 351 L 19 384 L 234 384 L 234 351 L 210 349 C 194 347 184 342 180 332 C 176 322 174 304 174 277 L 174 107 C 174 79 176 60 180 51 C 184 41 194 36 210 35 L 237 33 L 237 0 L 19 0 Z M 232 473 C 232 460 227 449 219 441 C 210 432 199 428 187 428 C 174 428 163 432 154 441 C 145 449 141 460 141 473 C 141 486 145 497 154 506 C 163 514 174 519 187 519 C 199 519 210 514 219 506 C 227 497 232 486 232 473 Z M 115 473 C 115 460 110 449 101 441 C 92 432 81 428 69 428 C 56 428 45 432 37 441 C 28 449 24 460 24 473 C 24 486 28 497 37 506 C 45 514 56 519 69 519 C 81 519 92 514 101 506 C 110 497 115 486 115 473 Z" unicode="" />
<glyph horiz-adv-x="480" d="M 459 191 C 459 161 452 134 440 110 C 428 86 411 66 390 50 C 368 34 344 21 316 13 C 288 4 258 0 228 0 L 14 0 L 14 33 L 43 35 C 56 36 65 41 69 50 C 73 59 76 78 76 107 L 76 181 L 14 181 L 14 222 L 76 222 L 76 277 C 76 306 73 325 68 334 C 63 342 55 347 43 349 L 14 351 L 14 384 L 195 384 C 235 384 271 380 303 372 C 335 364 363 352 386 336 C 409 320 427 300 440 276 C 452 252 459 223 459 191 Z M 353 185 C 353 213 349 236 341 256 C 333 276 323 292 310 304 C 296 316 281 325 263 331 C 245 337 226 340 206 340 L 169 340 L 169 222 L 255 222 L 255 181 L 169 181 L 169 124 C 169 105 169 90 171 78 C 173 66 176 57 181 51 C 185 44 191 39 199 37 C 206 35 216 34 228 34 C 266 34 297 45 319 67 C 341 89 353 129 353 185 Z" unicode="" />
<glyph horiz-adv-x="480" d="M 445 349 C 431 347 422 342 418 333 C 414 324 412 305 412 277 L 412 0 L 371 0 L 128 282 L 128 107 C 128 79 130 61 135 51 C 140 41 151 36 167 35 L 190 33 L 190 0 L 18 0 L 18 33 L 43 35 C 56 36 66 41 72 50 C 78 59 81 78 81 107 L 81 290 C 81 305 77 318 69 329 C 61 339 47 346 27 350 L 18 351 L 18 384 L 166 384 L 365 152 L 365 277 C 365 304 362 322 358 332 C 354 342 343 347 327 349 L 304 351 L 304 384 L 466 384 L 466 351 L 445 349 Z M 360 507 C 348 481 335 463 323 452 C 311 441 297 436 281 436 C 267 436 254 438 242 444 C 230 449 218 452 205 452 C 198 452 191 450 185 447 C 179 443 172 436 165 426 L 144 441 C 156 466 168 484 180 496 C 192 507 207 513 223 513 C 237 513 249 510 261 504 C 273 498 285 496 299 496 C 305 496 312 497 318 501 C 324 505 331 512 339 522 L 360 507 Z" unicode="" />
<glyph horiz-adv-x="512" d="M 483 191 C 483 160 476 132 464 108 C 451 83 434 62 413 45 C 391 28 367 15 340 6 C 312 -3 284 -8 256 -8 C 224 -8 194 -3 166 6 C 138 15 114 28 94 45 C 74 62 58 83 46 108 C 34 132 29 160 29 191 C 29 221 35 249 47 274 C 59 298 76 319 97 337 C 118 354 142 367 170 377 C 197 386 226 391 256 391 C 288 391 317 386 345 377 C 373 367 397 354 417 337 C 437 320 453 299 465 274 C 477 249 483 221 483 191 Z M 375 175 C 375 227 364 270 342 303 C 320 335 288 352 246 352 C 210 352 182 339 162 314 C 142 288 133 253 133 207 C 133 155 144 112 166 79 C 188 46 220 30 262 30 C 298 30 325 42 345 68 C 365 93 375 129 375 175 Z M 172 510 C 172 519 175 527 182 534 C 188 540 197 544 207 544 C 219 544 229 540 237 532 C 244 524 252 513 260 498 L 294 440 L 273 422 L 213 461 C 197 471 187 479 181 485 C 175 491 172 500 172 510 Z" unicode="" />
<glyph horiz-adv-x="512" d="M 483 191 C 483 160 476 132 464 108 C 451 83 434 62 413 45 C 391 28 367 15 340 6 C 312 -3 284 -8 256 -8 C 224 -8 194 -3 166 6 C 138 15 114 28 94 45 C 74 62 58 83 46 108 C 34 132 29 160 29 191 C 29 221 35 249 47 274 C 59 298 76 319 97 337 C 118 354 142 367 170 377 C 197 386 226 391 256 391 C 288 391 317 386 345 377 C 373 367 397 354 417 337 C 437 320 453 299 465 274 C 477 249 483 221 483 191 Z M 375 175 C 375 227 364 270 342 303 C 320 335 288 352 246 352 C 210 352 182 339 162 314 C 142 288 133 253 133 207 C 133 155 144 112 166 79 C 188 46 220 30 262 30 C 298 30 325 42 345 68 C 365 93 375 129 375 175 Z M 332 510 C 332 500 329 491 323 485 C 317 479 306 471 291 461 L 231 422 L 210 440 L 244 498 C 252 513 259 524 267 532 C 274 540 284 544 297 544 C 307 544 315 540 322 534 C 328 527 332 519 332 510 Z" unicode="" />
<glyph horiz-adv-x="512" d="M 483 191 C 483 160 476 132 464 108 C 451 83 434 62 413 45 C 391 28 367 15 340 6 C 312 -3 284 -8 256 -8 C 224 -8 194 -3 166 6 C 138 15 114 28 94 45 C 74 62 58 83 46 108 C 34 132 29 160 29 191 C 29 221 35 249 47 274 C 59 298 76 319 97 337 C 118 354 142 367 170 377 C 197 386 226 391 256 391 C 288 391 317 386 345 377 C 373 367 397 354 417 337 C 437 320 453 299 465 274 C 477 249 483 221 483 191 Z M 375 175 C 375 227 364 270 342 303 C 320 335 288 352 246 352 C 210 352 182 339 162 314 C 142 288 133 253 133 207 C 133 155 144 112 166 79 C 188 46 220 30 262 30 C 298 30 325 42 345 68 C 365 93 375 129 375 175 Z M 327 420 L 257 469 L 187 420 L 168 436 L 234 535 L 280 535 L 346 436 L 327 420 Z" unicode="" />
<glyph horiz-adv-x="512" d="M 483 191 C 483 160 476 132 464 108 C 451 83 434 62 413 45 C 391 28 367 15 340 6 C 312 -3 284 -8 256 -8 C 224 -8 194 -3 166 6 C 138 15 114 28 94 45 C 74 62 58 83 46 108 C 34 132 29 160 29 191 C 29 221 35 249 47 274 C 59 298 76 319 97 337 C 118 354 142 367 170 377 C 197 386 226 391 256 391 C 288 391 317 386 345 377 C 373 367 397 354 417 337 C 437 320 453 299 465 274 C 477 249 483 221 483 191 Z M 375 175 C 375 227 364 270 342 303 C 320 335 288 352 246 352 C 210 352 182 339 162 314 C 142 288 133 253 133 207 C 133 155 144 112 166 79 C 188 46 220 30 262 30 C 298 30 325 42 345 68 C 365 93 375 129 375 175 Z M 364 507 C 352 481 339 463 327 452 C 315 441 301 436 285 436 C 271 436 258 438 246 444 C 234 449 222 452 209 452 C 202 452 195 450 189 447 C 183 443 176 436 169 426 L 148 441 C 160 466 172 484 184 496 C 196 507 211 513 227 513 C 241 513 253 510 265 504 C 277 498 289 496 303 496 C 309 496 316 497 322 501 C 328 505 335 512 343 522 L 364 507 Z" unicode="" />
<glyph horiz-adv-x="512" d="M 483 191 C 483 160 476 132 464 108 C 451 83 434 62 413 45 C 391 28 367 15 340 6 C 312 -3 284 -8 256 -8 C 224 -8 194 -3 166 6 C 138 15 114 28 94 45 C 74 62 58 83 46 108 C 34 132 29 160 29 191 C 29 221 35 249 47 274 C 59 298 76 319 97 337 C 118 354 142 367 170 377 C 197 386 226 391 256 391 C 288 391 317 386 345 377 C 373 367 397 354 417 337 C 437 320 453 299 465 274 C 477 249 483 221 483 191 Z M 375 175 C 375 227 364 270 342 303 C 320 335 288 352 246 352 C 210 352 182 339 162 314 C 142 288 133 253 133 207 C 133 155 144 112 166 79 C 188 46 220 30 262 30 C 298 30 325 42 345 68 C 365 93 375 129 375 175 Z M 360 473 C 360 460 355 449 347 441 C 338 432 327 428 315 428 C 302 428 291 432 282 441 C 273 449 269 460 269 473 C 269 486 273 497 282 506 C 291 514 302 519 315 519 C 327 519 338 514 347 506 C 355 497 360 486 360 473 Z M 243 473 C 243 460 238 449 229 441 C 220 432 209 428 197 428 C 184 428 173 432 165 441 C 156 449 152 460 152 473 C 152 486 156 497 165 506 C 173 514 184 519 197 519 C 209 519 220 514 229 506 C 238 497 243 486 243 473 Z" unicode="" />
<glyph horiz-adv-x="352" d="M 220 177 L 294 103 L 251 59 L 176 133 L 96 53 L 53 97 L 133 176 L 58 252 L 101 296 L 177 220 L 257 300 L 300 257 L 220 177 Z" unicode="" />
<glyph horiz-adv-x="512" d="M 483 191 C 483 160 476 132 464 108 C 451 83 434 62 413 45 C 391 28 367 15 340 6 C 312 -3 284 -8 256 -8 C 224 -8 194 -3 166 6 C 153 10 141 15 129 22 L 90 -25 L 57 0 L 95 45 L 94 45 C 74 62 58 83 46 108 C 34 132 29 160 29 191 C 29 221 35 249 47 274 C 59 298 76 319 97 337 C 118 354 142 367 170 377 C 197 386 226 391 256 391 C 288 391 317 386 345 377 C 352 374 359 371 366 369 L 402 411 L 434 384 L 403 348 C 408 344 413 341 417 337 C 437 320 453 299 465 274 C 477 249 483 221 483 191 Z M 375 175 C 375 219 367 256 352 286 L 171 72 C 193 44 223 30 262 30 C 298 30 325 42 345 68 C 365 93 375 129 375 175 Z M 246 352 C 210 352 182 339 162 314 C 142 288 133 253 133 207 C 133 169 138 137 149 110 L 327 321 C 306 341 279 352 246 352 Z" unicode="" />
<glyph horiz-adv-x="480" d="M 449 349 C 435 347 426 342 422 333 C 418 324 416 305 416 277 L 416 137 C 416 115 411 96 402 78 C 393 60 381 45 365 33 C 349 20 330 10 308 3 C 286 -4 263 -8 238 -8 C 212 -8 188 -4 166 1 C 144 7 126 16 110 28 C 94 40 82 54 74 71 C 65 87 61 106 61 127 L 61 277 C 61 305 58 323 54 333 C 50 342 41 347 28 349 L 7 351 L 7 384 L 214 384 L 214 351 L 191 349 C 175 347 164 342 160 332 C 156 322 154 304 154 277 L 154 159 C 154 117 162 87 179 68 C 195 49 222 40 258 40 C 294 40 321 49 340 69 C 359 89 369 114 369 144 L 369 277 C 369 304 366 322 362 332 C 358 342 347 347 331 349 L 308 351 L 308 384 L 470 384 L 470 351 L 449 349 Z M 165 510 C 165 519 168 527 175 534 C 181 540 190 544 200 544 C 212 544 222 540 230 532 C 237 524 245 513 253 498 L 287 440 L 266 422 L 206 461 C 190 471 180 479 174 485 C 168 491 165 500 165 510 Z" unicode="" />
<glyph horiz-adv-x="480" d="M 449 349 C 435 347 426 342 422 333 C 418 324 416 305 416 277 L 416 137 C 416 115 411 96 402 78 C 393 60 381 45 365 33 C 349 20 330 10 308 3 C 286 -4 263 -8 238 -8 C 212 -8 188 -4 166 1 C 144 7 126 16 110 28 C 94 40 82 54 74 71 C 65 87 61 106 61 127 L 61 277 C 61 305 58 323 54 333 C 50 342 41 347 28 349 L 7 351 L 7 384 L 214 384 L 214 351 L 191 349 C 175 347 164 342 160 332 C 156 322 154 304 154 277 L 154 159 C 154 117 162 87 179 68 C 195 49 222 40 258 40 C 294 40 321 49 340 69 C 359 89 369 114 369 144 L 369 277 C 369 304 366 322 362 332 C 358 342 347 347 331 349 L 308 351 L 308 384 L 470 384 L 470 351 L 449 349 Z M 348 510 C 348 500 345 491 339 485 C 333 479 322 471 307 461 L 247 422 L 226 440 L 260 498 C 268 513 275 524 283 532 C 290 540 300 544 313 544 C 323 544 331 540 338 534 C 344 527 348 519 348 510 Z" unicode="" />
<glyph horiz-adv-x="480" d="M 449 349 C 435 347 426 342 422 333 C 418 324 416 305 416 277 L 416 137 C 416 115 411 96 402 78 C 393 60 381 45 365 33 C 349 20 330 10 308 3 C 286 -4 263 -8 238 -8 C 212 -8 188 -4 166 1 C 144 7 126 16 110 28 C 94 40 82 54 74 71 C 65 87 61 106 61 127 L 61 277 C 61 305 58 323 54 333 C 50 342 41 347 28 349 L 7 351 L 7 384 L 214 384 L 214 351 L 191 349 C 175 347 164 342 160 332 C 156 322 154 304 154 277 L 154 159 C 154 117 162 87 179 68 C 195 49 222 40 258 40 C 294 40 321 49 340 69 C 359 89 369 114 369 144 L 369 277 C 369 304 366 322 362 332 C 358 342 347 347 331 349 L 308 351 L 308 384 L 470 384 L 470 351 L 449 349 Z M 322 420 L 252 469 L 182 420 L 163 436 L 229 535 L 275 535 L 341 436 L 322 420 Z" unicode="" />
<glyph horiz-adv-x="480" d="M 449 349 C 435 347 426 342 422 333 C 418 324 416 305 416 277 L 416 137 C 416 115 411 96 402 78 C 393 60 381 45 365 33 C 349 20 330 10 308 3 C 286 -4 263 -8 238 -8 C 212 -8 188 -4 166 1 C 144 7 126 16 110 28 C 94 40 82 54 74 71 C 65 87 61 106 61 127 L 61 277 C 61 305 58 323 54 333 C 50 342 41 347 28 349 L 7 351 L 7 384 L 214 384 L 214 351 L 191 349 C 175 347 164 342 160 332 C 156 322 154 304 154 277 L 154 159 C 154 117 162 87 179 68 C 195 49 222 40 258 40 C 294 40 321 49 340 69 C 359 89 369 114 369 144 L 369 277 C 369 304 366 322 362 332 C 358 342 347 347 331 349 L 308 351 L 308 384 L 470 384 L 470 351 L 449 349 Z M 356 473 C 356 460 351 449 343 441 C 334 432 323 428 311 428 C 298 428 287 432 278 441 C 269 449 265 460 265 473 C 265 486 269 497 278 506 C 287 514 298 519 311 519 C 323 519 334 514 343 506 C 351 497 356 486 356 473 Z M 239 473 C 239 460 234 449 225 441 C 216 432 205 428 193 428 C 180 428 169 432 161 441 C 152 449 148 460 148 473 C 148 486 152 497 161 506 C 169 514 180 519 193 519 C 205 519 216 514 225 506 C 234 497 239 486 239 473 Z" unicode="" />
<glyph horiz-adv-x="448" d="M 427 350 C 415 349 405 346 399 340 C 392 334 385 325 377 313 L 271 163 L 271 107 C 271 93 271 82 272 73 C 273 64 275 57 278 52 C 280 46 284 42 289 40 C 293 37 300 35 308 35 L 334 33 L 334 0 L 113 0 L 113 33 L 140 35 C 155 36 165 41 170 51 C 175 61 178 79 178 107 L 178 156 L 74 305 C 62 320 53 331 45 337 C 37 343 29 347 20 349 L 5 351 L 5 384 L 210 384 L 210 351 L 188 349 C 179 347 173 345 171 342 C 168 338 167 334 167 330 C 167 323 171 313 179 301 L 248 202 L 304 282 C 309 289 313 296 317 304 C 321 312 323 319 323 325 C 323 339 314 347 296 349 L 276 351 L 276 384 L 443 384 L 443 351 L 427 350 Z M 322 510 C 322 500 319 491 313 485 C 307 479 296 471 281 461 L 221 422 L 200 440 L 234 498 C 242 513 249 524 257 532 C 264 540 274 544 287 544 C 297 544 305 540 312 534 C 318 527 322 519 322 510 Z" unicode="" />
<glyph horiz-adv-x="368" d="M 360 210 C 360 176 346 150 320 133 C 293 115 254 103 202 96 L 197 128 C 205 132 213 137 221 142 C 228 146 234 151 239 157 C 243 162 247 168 250 176 C 252 183 254 192 254 203 C 254 247 234 269 195 269 C 189 269 185 268 182 268 C 178 268 174 267 170 266 L 170 107 C 170 79 172 61 178 51 C 184 41 194 36 210 35 L 241 33 L 241 0 L 15 0 L 15 33 L 44 35 C 50 35 56 37 60 39 C 64 41 68 45 70 51 C 72 56 74 63 75 72 C 76 81 77 93 77 107 L 77 277 C 77 303 74 321 70 331 C 66 341 57 347 44 349 L 15 351 L 15 384 L 228 384 L 228 351 L 206 349 C 191 347 181 343 177 337 C 172 331 170 320 170 305 L 214 305 C 262 305 298 297 323 281 C 347 265 360 242 360 210 Z" unicode="" />
<glyph horiz-adv-x="432" d="M 413 79 C 413 65 409 52 403 42 C 396 31 387 22 376 14 C 365 6 352 1 338 -2 C 324 -6 309 -8 293 -8 C 278 -8 262 -6 244 -2 C 226 2 210 7 196 13 L 196 87 L 232 87 C 238 67 246 54 254 46 C 262 38 276 35 296 35 C 309 35 320 36 328 40 C 336 43 341 50 341 62 C 341 73 336 81 327 86 C 318 91 303 98 281 106 C 254 117 235 128 224 138 C 213 148 208 162 208 180 C 208 185 208 190 209 194 C 209 198 211 203 214 208 C 216 213 220 219 224 226 C 228 232 234 240 242 250 C 249 259 254 268 258 278 C 262 287 264 299 264 315 C 264 330 258 343 248 354 C 238 364 223 370 205 370 C 185 370 171 364 163 353 C 155 342 151 325 151 302 L 151 0 L 16 0 L 16 33 L 28 34 C 33 34 38 36 43 38 C 47 40 51 43 55 48 C 58 52 61 58 63 66 C 65 74 66 84 66 97 L 66 235 L 16 235 L 16 267 L 66 275 L 66 280 C 66 299 70 316 78 332 C 86 348 97 361 111 373 C 125 384 142 393 162 399 C 182 405 203 409 226 409 C 266 409 295 402 315 388 C 335 374 345 357 345 337 C 345 329 344 321 343 315 C 342 309 340 303 337 297 C 334 291 330 284 324 278 C 318 271 310 263 301 255 C 287 243 279 234 276 229 C 272 223 271 218 271 213 C 271 209 271 206 271 204 C 271 201 273 198 277 195 C 281 192 286 189 294 185 C 302 181 313 176 327 170 C 356 159 378 147 392 133 C 406 119 413 101 413 79 Z" unicode="" />
<glyph horiz-adv-x="352" d="M 351 19 C 341 9 331 3 321 0 C 311 -4 297 -6 280 -6 C 262 -6 247 -2 234 5 C 220 12 213 22 211 35 C 203 25 191 16 175 6 C 159 -3 135 -8 103 -8 C 79 -8 60 -1 45 10 C 29 22 22 38 22 56 C 22 78 30 97 46 113 C 62 129 91 143 131 153 L 210 174 L 210 186 C 210 212 205 228 196 235 C 187 242 176 246 162 246 C 154 246 146 244 138 241 C 130 238 124 236 121 235 C 119 215 115 201 108 191 C 100 181 91 177 79 177 C 65 177 54 181 48 189 C 41 197 38 207 38 217 C 38 223 40 230 45 238 C 50 246 58 253 69 260 C 80 267 94 273 111 278 C 128 282 149 285 173 285 C 187 285 201 283 215 280 C 229 276 242 271 254 264 C 266 256 275 247 283 236 C 291 225 295 212 295 197 L 295 82 C 295 68 296 57 299 49 C 302 41 308 37 318 37 C 325 37 331 37 335 39 C 339 41 342 43 346 45 L 351 19 Z M 210 137 L 156 122 C 140 118 129 111 123 102 C 116 92 113 83 113 74 C 113 66 115 59 121 51 C 126 43 134 39 146 39 C 159 39 171 41 181 47 C 191 53 200 60 210 70 L 210 137 Z M 92 401 C 92 410 95 418 102 425 C 108 431 117 435 127 435 C 139 435 149 431 157 423 C 164 415 172 404 180 389 L 214 331 L 193 313 L 133 352 C 117 362 107 370 101 376 C 95 382 92 391 92 401 Z" unicode="" />
<glyph horiz-adv-x="352" d="M 351 19 C 341 9 331 3 321 0 C 311 -4 297 -6 280 -6 C 262 -6 247 -2 234 5 C 220 12 213 22 211 35 C 203 25 191 16 175 6 C 159 -3 135 -8 103 -8 C 79 -8 60 -1 45 10 C 29 22 22 38 22 56 C 22 78 30 97 46 113 C 62 129 91 143 131 153 L 210 174 L 210 186 C 210 212 205 228 196 235 C 187 242 176 246 162 246 C 154 246 146 244 138 241 C 130 238 124 236 121 235 C 119 215 115 201 108 191 C 100 181 91 177 79 177 C 65 177 54 181 48 189 C 41 197 38 207 38 217 C 38 223 40 230 45 238 C 50 246 58 253 69 260 C 80 267 94 273 111 278 C 128 282 149 285 173 285 C 187 285 201 283 215 280 C 229 276 242 271 254 264 C 266 256 275 247 283 236 C 291 225 295 212 295 197 L 295 82 C 295 68 296 57 299 49 C 302 41 308 37 318 37 C 325 37 331 37 335 39 C 339 41 342 43 346 45 L 351 19 Z M 210 137 L 156 122 C 140 118 129 111 123 102 C 116 92 113 83 113 74 C 113 66 115 59 121 51 C 126 43 134 39 146 39 C 159 39 171 41 181 47 C 191 53 200 60 210 70 L 210 137 Z M 254 401 C 254 391 251 382 245 376 C 239 370 228 362 213 352 L 153 313 L 132 331 L 166 389 C 174 404 181 415 189 423 C 196 431 206 435 219 435 C 229 435 237 431 244 425 C 250 418 254 410 254 401 Z" unicode="" />
<glyph horiz-adv-x="352" d="M 351 19 C 341 9 331 3 321 0 C 311 -4 297 -6 280 -6 C 262 -6 247 -2 234 5 C 220 12 213 22 211 35 C 203 25 191 16 175 6 C 159 -3 135 -8 103 -8 C 79 -8 60 -1 45 10 C 29 22 22 38 22 56 C 22 78 30 97 46 113 C 62 129 91 143 131 153 L 210 174 L 210 186 C 210 212 205 228 196 235 C 187 242 176 246 162 246 C 154 246 146 244 138 241 C 130 238 124 236 121 235 C 119 215 115 201 108 191 C 100 181 91 177 79 177 C 65 177 54 181 48 189 C 41 197 38 207 38 217 C 38 223 40 230 45 238 C 50 246 58 253 69 260 C 80 267 94 273 111 278 C 128 282 149 285 173 285 C 187 285 201 283 215 280 C 229 276 242 271 254 264 C 266 256 275 247 283 236 C 291 225 295 212 295 197 L 295 82 C 295 68 296 57 299 49 C 302 41 308 37 318 37 C 325 37 331 37 335 39 C 339 41 342 43 346 45 L 351 19 Z M 210 137 L 156 122 C 140 118 129 111 123 102 C 116 92 113 83 113 74 C 113 66 115 59 121 51 C 126 43 134 39 146 39 C 159 39 171 41 181 47 C 191 53 200 60 210 70 L 210 137 Z M 236 311 L 166 360 L 96 311 L 77 327 L 143 426 L 189 426 L 255 327 L 236 311 Z" unicode="" />
<glyph horiz-adv-x="352" d="M 351 19 C 341 9 331 3 321 0 C 311 -4 297 -6 280 -6 C 262 -6 247 -2 234 5 C 220 12 213 22 211 35 C 203 25 191 16 175 6 C 159 -3 135 -8 103 -8 C 79 -8 60 -1 45 10 C 29 22 22 38 22 56 C 22 78 30 97 46 113 C 62 129 91 143 131 153 L 210 174 L 210 186 C 210 212 205 228 196 235 C 187 242 176 246 162 246 C 154 246 146 244 138 241 C 130 238 124 236 121 235 C 119 215 115 201 108 191 C 100 181 91 177 79 177 C 65 177 54 181 48 189 C 41 197 38 207 38 217 C 38 223 40 230 45 238 C 50 246 58 253 69 260 C 80 267 94 273 111 278 C 128 282 149 285 173 285 C 187 285 201 283 215 280 C 229 276 242 271 254 264 C 266 256 275 247 283 236 C 291 225 295 212 295 197 L 295 82 C 295 68 296 57 299 49 C 302 41 308 37 318 37 C 325 37 331 37 335 39 C 339 41 342 43 346 45 L 351 19 Z M 210 137 L 156 122 C 140 118 129 111 123 102 C 116 92 113 83 113 74 C 113 66 115 59 121 51 C 126 43 134 39 146 39 C 159 39 171 41 181 47 C 191 53 200 60 210 70 L 210 137 Z M 276 398 C 264 372 251 354 239 343 C 227 332 213 327 197 327 C 183 327 170 329 158 335 C 146 340 134 343 121 343 C 114 343 107 341 101 338 C 95 334 88 327 81 317 L 60 332 C 72 357 84 375 96 387 C 108 398 123 404 139 404 C 153 404 165 401 177 395 C 189 389 201 387 215 387 C 221 387 228 388 234 392 C 240 396 247 403 255 413 L 276 398 Z" unicode="" />
<glyph horiz-adv-x="352" d="M 351 19 C 341 9 331 3 321 0 C 311 -4 297 -6 280 -6 C 262 -6 247 -2 234 5 C 220 12 213 22 211 35 C 203 25 191 16 175 6 C 159 -3 135 -8 103 -8 C 79 -8 60 -1 45 10 C 29 22 22 38 22 56 C 22 78 30 97 46 113 C 62 129 91 143 131 153 L 210 174 L 210 186 C 210 212 205 228 196 235 C 187 242 176 246 162 246 C 154 246 146 244 138 241 C 130 238 124 236 121 235 C 119 215 115 201 108 191 C 100 181 91 177 79 177 C 65 177 54 181 48 189 C 41 197 38 207 38 217 C 38 223 40 230 45 238 C 50 246 58 253 69 260 C 80 267 94 273 111 278 C 128 282 149 285 173 285 C 187 285 201 283 215 280 C 229 276 242 271 254 264 C 266 256 275 247 283 236 C 291 225 295 212 295 197 L 295 82 C 295 68 296 57 299 49 C 302 41 308 37 318 37 C 325 37 331 37 335 39 C 339 41 342 43 346 45 L 351 19 Z M 210 137 L 156 122 C 140 118 129 111 123 102 C 116 92 113 83 113 74 C 113 66 115 59 121 51 C 126 43 134 39 146 39 C 159 39 171 41 181 47 C 191 53 200 60 210 70 L 210 137 Z M 269 364 C 269 351 264 340 256 332 C 247 323 236 319 224 319 C 211 319 200 323 191 332 C 182 340 178 351 178 364 C 178 377 182 388 191 397 C 200 405 211 410 224 410 C 236 410 247 405 256 397 C 264 388 269 377 269 364 Z M 152 364 C 152 351 147 340 138 332 C 129 323 118 319 106 319 C 93 319 82 323 74 332 C 65 340 61 351 61 364 C 61 377 65 388 74 397 C 82 405 93 410 106 410 C 118 410 129 405 138 397 C 147 388 152 377 152 364 Z" unicode="" />
<glyph horiz-adv-x="352" d="M 351 19 C 341 9 331 3 321 0 C 311 -4 297 -6 280 -6 C 262 -6 247 -2 234 5 C 220 12 213 22 211 35 C 203 25 191 16 175 6 C 159 -3 135 -8 103 -8 C 79 -8 60 -1 45 10 C 29 22 22 38 22 56 C 22 78 30 97 46 113 C 62 129 91 143 131 153 L 210 174 L 210 186 C 210 212 205 228 196 235 C 187 242 176 246 162 246 C 154 246 146 244 138 241 C 130 238 124 236 121 235 C 119 215 115 201 108 191 C 100 181 91 177 79 177 C 65 177 54 181 48 189 C 41 197 38 207 38 217 C 38 223 40 230 45 238 C 50 246 58 253 69 260 C 80 267 94 273 111 278 C 128 282 149 285 173 285 C 187 285 201 283 215 280 C 229 276 242 271 254 264 C 266 256 275 247 283 236 C 291 225 295 212 295 197 L 295 82 C 295 68 296 57 299 49 C 302 41 308 37 318 37 C 325 37 331 37 335 39 C 339 41 342 43 346 45 L 351 19 Z M 210 137 L 156 122 C 140 118 129 111 123 102 C 116 92 113 83 113 74 C 113 66 115 59 121 51 C 126 43 134 39 146 39 C 159 39 171 41 181 47 C 191 53 200 60 210 70 L 210 137 Z M 244 380 C 244 360 236 345 222 334 C 208 322 190 317 168 317 C 146 317 127 322 113 334 C 99 345 92 360 92 380 C 92 399 99 414 113 426 C 127 437 146 443 168 443 C 190 443 208 437 222 426 C 236 414 244 399 244 380 Z M 200 380 C 200 391 197 400 191 407 C 185 413 178 417 168 417 C 158 417 150 413 144 407 C 138 400 136 391 136 380 C 136 368 138 359 144 352 C 150 345 158 342 168 342 C 178 342 185 345 191 352 C 197 359 200 368 200 380 Z" unicode="" />
<glyph horiz-adv-x="496" d="M 297 150 L 297 146 C 297 108 305 81 321 65 C 337 49 357 41 383 41 C 401 41 416 44 426 52 C 436 59 447 68 459 78 L 488 56 C 473 37 454 22 430 10 C 406 -1 381 -7 353 -7 C 329 -7 308 -2 289 6 C 269 15 253 28 239 44 C 221 27 204 14 186 5 C 168 -3 143 -8 113 -8 C 87 -8 65 -1 48 11 C 30 24 22 40 22 58 C 22 80 30 98 46 114 C 62 130 91 143 131 153 L 206 174 L 206 186 C 206 212 201 228 192 235 C 183 242 172 246 158 246 C 150 246 143 244 136 241 C 129 238 124 236 121 235 C 119 215 115 201 108 191 C 100 181 91 177 79 177 C 65 177 54 181 48 189 C 41 197 38 207 38 217 C 38 223 40 230 45 238 C 49 246 57 253 68 260 C 78 267 92 273 108 278 C 124 282 145 285 169 285 C 185 285 201 282 218 276 C 235 270 249 261 261 249 C 291 273 323 285 359 285 C 399 285 431 272 454 248 C 476 224 488 191 488 150 L 297 150 Z M 206 70 L 206 137 L 156 122 C 140 118 129 111 123 102 C 116 92 113 83 113 74 C 113 66 115 59 121 51 C 126 43 134 39 146 39 C 159 39 170 41 179 47 C 187 53 196 60 206 70 Z M 400 188 C 398 227 382 247 353 247 C 339 247 327 242 317 232 C 307 222 300 208 298 188 L 400 188 Z" unicode="" />
<glyph horiz-adv-x="320" d="M 316 56 C 302 36 284 21 261 9 C 237 -2 212 -8 184 -8 C 161 -8 140 -4 121 2 C 101 9 84 19 70 31 C 56 43 45 58 37 75 C 29 91 25 109 25 129 C 25 153 29 175 39 195 C 49 214 62 230 78 244 C 94 257 112 267 133 274 C 154 281 176 285 200 285 C 236 285 263 278 282 266 C 301 253 311 239 311 225 C 311 210 307 199 300 191 C 292 183 284 179 274 179 C 262 179 250 183 239 192 C 227 200 221 216 220 238 C 215 240 210 241 206 243 C 201 245 193 246 181 246 C 159 246 144 237 135 220 C 126 203 122 181 122 154 C 122 119 129 91 144 70 C 158 49 180 39 208 39 C 231 39 248 43 260 51 C 272 59 281 67 289 76 L 316 56 Z M 251 -55 C 251 -64 248 -73 242 -81 C 236 -89 228 -95 219 -101 C 209 -107 199 -111 187 -115 C 175 -118 162 -120 150 -120 C 124 -120 111 -113 111 -101 C 111 -88 117 -82 130 -82 C 142 -82 156 -86 170 -96 C 177 -94 182 -92 186 -91 C 189 -89 191 -86 191 -81 C 191 -73 187 -67 181 -61 C 174 -55 162 -53 144 -55 L 136 -48 L 165 4 L 204 4 L 189 -22 C 209 -22 225 -25 235 -31 C 245 -37 251 -45 251 -55 Z" unicode="" />
<glyph horiz-adv-x="320" d="M 116 150 L 116 146 C 116 108 124 81 141 65 C 157 49 178 41 204 41 C 222 41 237 44 249 52 C 260 59 271 68 283 78 L 312 56 C 297 37 277 22 253 10 C 228 -1 202 -7 174 -7 C 153 -7 134 -3 116 4 C 98 11 82 21 68 34 C 54 46 44 61 36 79 C 28 96 25 115 25 135 C 25 157 29 178 39 196 C 48 214 60 230 75 243 C 89 256 106 266 124 274 C 142 281 161 285 180 285 C 220 285 252 272 276 248 C 300 224 312 191 312 150 L 116 150 Z M 224 188 C 222 207 217 222 209 232 C 200 242 188 247 174 247 C 160 247 148 242 137 232 C 126 222 119 208 117 188 L 224 188 Z M 91 401 C 91 410 94 418 101 425 C 107 431 116 435 126 435 C 138 435 148 431 156 423 C 163 415 171 404 179 389 L 213 331 L 192 313 L 132 352 C 116 362 106 370 100 376 C 94 382 91 391 91 401 Z" unicode="" />
<glyph horiz-adv-x="320" d="M 116 150 L 116 146 C 116 108 124 81 141 65 C 157 49 178 41 204 41 C 222 41 237 44 249 52 C 260 59 271 68 283 78 L 312 56 C 297 37 277 22 253 10 C 228 -1 202 -7 174 -7 C 153 -7 134 -3 116 4 C 98 11 82 21 68 34 C 54 46 44 61 36 79 C 28 96 25 115 25 135 C 25 157 29 178 39 196 C 48 214 60 230 75 243 C 89 256 106 266 124 274 C 142 281 161 285 180 285 C 220 285 252 272 276 248 C 300 224 312 191 312 150 L 116 150 Z M 224 188 C 222 207 217 222 209 232 C 200 242 188 247 174 247 C 160 247 148 242 137 232 C 126 222 119 208 117 188 L 224 188 Z M 256 401 C 256 391 253 382 247 376 C 241 370 230 362 215 352 L 155 313 L 134 331 L 168 389 C 176 404 183 415 191 423 C 198 431 208 435 221 435 C 231 435 239 431 246 425 C 252 418 256 410 256 401 Z" unicode="" />
<glyph horiz-adv-x="320" d="M 116 150 L 116 146 C 116 108 124 81 141 65 C 157 49 178 41 204 41 C 222 41 237 44 249 52 C 260 59 271 68 283 78 L 312 56 C 297 37 277 22 253 10 C 228 -1 202 -7 174 -7 C 153 -7 134 -3 116 4 C 98 11 82 21 68 34 C 54 46 44 61 36 79 C 28 96 25 115 25 135 C 25 157 29 178 39 196 C 48 214 60 230 75 243 C 89 256 106 266 124 274 C 142 281 161 285 180 285 C 220 285 252 272 276 248 C 300 224 312 191 312 150 L 116 150 Z M 224 188 C 222 207 217 222 209 232 C 200 242 188 247 174 247 C 160 247 148 242 137 232 C 126 222 119 208 117 188 L 224 188 Z M 242 311 L 172 360 L 102 311 L 83 327 L 149 426 L 195 426 L 261 327 L 242 311 Z" unicode="" />
<glyph horiz-adv-x="320" d="M 116 150 L 116 146 C 116 108 124 81 141 65 C 157 49 178 41 204 41 C 222 41 237 44 249 52 C 260 59 271 68 283 78 L 312 56 C 297 37 277 22 253 10 C 228 -1 202 -7 174 -7 C 153 -7 134 -3 116 4 C 98 11 82 21 68 34 C 54 46 44 61 36 79 C 28 96 25 115 25 135 C 25 157 29 178 39 196 C 48 214 60 230 75 243 C 89 256 106 266 124 274 C 142 281 161 285 180 285 C 220 285 252 272 276 248 C 300 224 312 191 312 150 L 116 150 Z M 224 188 C 222 207 217 222 209 232 C 200 242 188 247 174 247 C 160 247 148 242 137 232 C 126 222 119 208 117 188 L 224 188 Z M 276 364 C 276 351 271 340 263 332 C 254 323 243 319 231 319 C 218 319 207 323 198 332 C 189 340 185 351 185 364 C 185 377 189 388 198 397 C 207 405 218 410 231 410 C 243 410 254 405 263 397 C 271 388 276 377 276 364 Z M 159 364 C 159 351 154 340 145 332 C 136 323 125 319 113 319 C 100 319 89 323 81 332 C 72 340 68 351 68 364 C 68 377 72 388 81 397 C 89 405 100 410 113 410 C 125 410 136 405 145 397 C 154 388 159 377 159 364 Z" unicode="" />
<glyph horiz-adv-x="224" d="M 16 0 L 16 32 L 45 34 C 57 34 65 38 69 45 C 73 52 75 68 75 92 L 75 191 C 75 205 73 214 70 220 C 66 226 60 230 50 232 L 16 238 L 16 264 L 146 283 L 160 276 L 160 84 C 160 62 162 49 166 44 C 170 38 178 35 190 34 L 215 32 L 215 0 L 16 0 Z M 29 401 C 29 410 32 418 39 425 C 45 431 54 435 64 435 C 76 435 86 431 94 423 C 101 415 109 404 117 389 L 151 331 L 130 313 L 70 352 C 54 362 44 370 38 376 C 32 382 29 391 29 401 Z" unicode="" />
<glyph horiz-adv-x="224" d="M 16 0 L 16 32 L 45 34 C 57 34 65 38 69 45 C 73 52 75 68 75 92 L 75 191 C 75 205 73 214 70 220 C 66 226 60 230 50 232 L 16 238 L 16 264 L 146 283 L 160 276 L 160 84 C 160 62 162 49 166 44 C 170 38 178 35 190 34 L 215 32 L 215 0 L 16 0 Z M 198 401 C 198 391 195 382 189 376 C 183 370 172 362 157 352 L 97 313 L 76 331 L 110 389 C 118 404 125 415 133 423 C 140 431 150 435 163 435 C 173 435 181 431 188 425 C 194 418 198 410 198 401 Z" unicode="" />
<glyph horiz-adv-x="224" d="M 16 0 L 16 32 L 45 34 C 57 34 65 38 69 45 C 73 52 75 68 75 92 L 75 191 C 75 205 73 214 70 220 C 66 226 60 230 50 232 L 16 238 L 16 264 L 146 283 L 160 276 L 160 84 C 160 62 162 49 166 44 C 170 38 178 35 190 34 L 215 32 L 215 0 L 16 0 Z M 182 311 L 112 360 L 42 311 L 23 327 L 89 426 L 135 426 L 201 327 L 182 311 Z" unicode="" />
<glyph horiz-adv-x="224" d="M 16 0 L 16 32 L 45 34 C 57 34 65 38 69 45 C 73 52 75 68 75 92 L 75 191 C 75 205 73 214 70 220 C 66 226 60 230 50 232 L 16 238 L 16 264 L 146 283 L 160 276 L 160 84 C 160 62 162 49 166 44 C 170 38 178 35 190 34 L 215 32 L 215 0 L 16 0 Z M 220 364 C 220 351 215 340 207 332 C 198 323 187 319 175 319 C 162 319 151 323 142 332 C 133 340 129 351 129 364 C 129 377 133 388 142 397 C 151 405 162 410 175 410 C 187 410 198 405 207 397 C 215 388 220 377 220 364 Z M 103 364 C 103 351 98 340 89 332 C 80 323 69 319 57 319 C 44 319 33 323 25 332 C 16 340 12 351 12 364 C 12 377 16 388 25 397 C 33 405 44 410 57 410 C 69 410 80 405 89 397 C 98 388 103 377 103 364 Z" unicode="" />
<glyph horiz-adv-x="384" d="M 359 144 C 359 98 344 61 315 33 C 286 5 245 -8 193 -8 C 167 -8 144 -4 124 2 C 104 9 86 19 71 31 C 56 43 45 58 37 76 C 29 94 25 114 25 136 C 25 154 28 171 36 187 C 44 203 54 217 68 229 C 81 241 96 250 114 257 C 132 263 151 267 172 267 C 189 267 203 265 215 262 C 226 258 236 254 246 249 C 242 263 236 276 228 290 C 220 304 209 318 196 334 L 157 301 L 132 323 L 171 354 C 163 359 156 364 148 369 C 140 374 131 379 122 385 L 143 413 C 163 404 184 394 205 382 L 242 413 L 267 392 L 233 364 C 249 351 265 337 281 323 C 296 308 309 292 321 274 C 333 256 342 236 349 215 C 355 193 359 170 359 144 Z M 265 117 C 265 151 258 177 246 196 C 234 215 213 225 183 225 C 161 225 145 219 135 207 C 125 195 120 176 120 148 C 120 111 126 83 138 63 C 150 43 172 33 202 33 C 225 33 241 39 251 51 C 260 63 265 85 265 117 Z" unicode="" />
<glyph horiz-adv-x="384" d="M 216 0 L 216 32 L 227 34 C 236 35 242 39 245 46 C 247 53 249 68 249 92 L 249 173 C 249 190 245 203 237 212 C 229 221 219 226 207 226 C 193 226 181 223 171 219 C 160 214 151 208 143 201 L 143 92 C 143 68 144 52 146 46 C 148 39 154 35 164 34 L 175 32 L 175 0 L 16 0 L 16 32 L 29 34 C 40 35 48 39 52 45 C 56 51 58 66 58 92 L 58 191 C 58 205 55 214 51 219 C 47 223 41 227 33 231 L 16 238 L 16 264 L 129 283 L 143 276 L 143 233 C 144 235 147 239 152 245 C 157 251 164 257 172 263 C 180 269 190 274 202 278 C 213 282 226 285 240 285 C 266 285 288 277 306 261 C 324 245 334 224 334 196 L 334 92 C 334 70 335 56 339 48 C 342 40 349 35 361 34 L 376 32 L 376 0 L 216 0 Z M 312 398 C 300 372 287 354 275 343 C 263 332 249 327 233 327 C 219 327 206 329 194 335 C 182 340 170 343 157 343 C 150 343 143 341 137 338 C 131 334 124 327 117 317 L 96 332 C 108 357 120 375 132 387 C 144 398 159 404 175 404 C 189 404 201 401 213 395 C 225 389 237 387 251 387 C 257 387 264 388 270 392 C 276 396 283 403 291 413 L 312 398 Z" unicode="" />
<glyph horiz-adv-x="384" d="M 359 133 C 359 113 355 94 347 77 C 339 59 327 44 313 32 C 298 20 280 10 260 3 C 239 -4 216 -8 192 -8 C 168 -8 145 -4 125 4 C 105 12 87 22 72 36 C 57 50 45 66 37 85 C 29 103 25 123 25 145 C 25 165 29 183 37 200 C 45 217 56 232 71 245 C 85 257 103 267 124 274 C 144 281 167 285 192 285 C 216 285 239 281 260 274 C 280 266 298 256 313 242 C 327 228 339 212 347 194 C 355 175 359 155 359 133 Z M 264 127 C 264 147 261 165 256 180 C 250 195 244 207 236 217 C 228 226 220 233 211 237 C 201 241 192 244 184 244 C 164 244 148 237 136 225 C 124 212 118 187 118 151 C 119 115 127 86 143 65 C 158 43 177 33 201 33 C 219 33 234 39 246 53 C 258 66 264 91 264 127 Z M 113 401 C 113 410 116 418 123 425 C 129 431 138 435 148 435 C 160 435 170 431 178 423 C 185 415 193 404 201 389 L 235 331 L 214 313 L 154 352 C 138 362 128 370 122 376 C 116 382 113 391 113 401 Z" unicode="" />
<glyph horiz-adv-x="384" d="M 359 133 C 359 113 355 94 347 77 C 339 59 327 44 313 32 C 298 20 280 10 260 3 C 239 -4 216 -8 192 -8 C 168 -8 145 -4 125 4 C 105 12 87 22 72 36 C 57 50 45 66 37 85 C 29 103 25 123 25 145 C 25 165 29 183 37 200 C 45 217 56 232 71 245 C 85 257 103 267 124 274 C 144 281 167 285 192 285 C 216 285 239 281 260 274 C 280 266 298 256 313 242 C 327 228 339 212 347 194 C 355 175 359 155 359 133 Z M 264 127 C 264 147 261 165 256 180 C 250 195 244 207 236 217 C 228 226 220 233 211 237 C 201 241 192 244 184 244 C 164 244 148 237 136 225 C 124 212 118 187 118 151 C 119 115 127 86 143 65 C 158 43 177 33 201 33 C 219 33 234 39 246 53 C 258 66 264 91 264 127 Z M 277 401 C 277 391 274 382 268 376 C 262 370 251 362 236 352 L 176 313 L 155 331 L 189 389 C 197 404 204 415 212 423 C 219 431 229 435 242 435 C 252 435 260 431 267 425 C 273 418 277 410 277 401 Z" unicode="" />
<glyph horiz-adv-x="384" d="M 359 133 C 359 113 355 94 347 77 C 339 59 327 44 313 32 C 298 20 280 10 260 3 C 239 -4 216 -8 192 -8 C 168 -8 145 -4 125 4 C 105 12 87 22 72 36 C 57 50 45 66 37 85 C 29 103 25 123 25 145 C 25 165 29 183 37 200 C 45 217 56 232 71 245 C 85 257 103 267 124 274 C 144 281 167 285 192 285 C 216 285 239 281 260 274 C 280 266 298 256 313 242 C 327 228 339 212 347 194 C 355 175 359 155 359 133 Z M 264 127 C 264 147 261 165 256 180 C 250 195 244 207 236 217 C 228 226 220 233 211 237 C 201 241 192 244 184 244 C 164 244 148 237 136 225 C 124 212 118 187 118 151 C 119 115 127 86 143 65 C 158 43 177 33 201 33 C 219 33 234 39 246 53 C 258 66 264 91 264 127 Z M 262 311 L 192 360 L 122 311 L 103 327 L 169 426 L 215 426 L 281 327 L 262 311 Z" unicode="" />
<glyph horiz-adv-x="384" d="M 359 133 C 359 113 355 94 347 77 C 339 59 327 44 313 32 C 298 20 280 10 260 3 C 239 -4 216 -8 192 -8 C 168 -8 145 -4 125 4 C 105 12 87 22 72 36 C 57 50 45 66 37 85 C 29 103 25 123 25 145 C 25 165 29 183 37 200 C 45 217 56 232 71 245 C 85 257 103 267 124 274 C 144 281 167 285 192 285 C 216 285 239 281 260 274 C 280 266 298 256 313 242 C 327 228 339 212 347 194 C 355 175 359 155 359 133 Z M 264 127 C 264 147 261 165 256 180 C 250 195 244 207 236 217 C 228 226 220 233 211 237 C 201 241 192 244 184 244 C 164 244 148 237 136 225 C 124 212 118 187 118 151 C 119 115 127 86 143 65 C 158 43 177 33 201 33 C 219 33 234 39 246 53 C 258 66 264 91 264 127 Z M 300 398 C 288 372 275 354 263 343 C 251 332 237 327 221 327 C 207 327 194 329 182 335 C 170 340 158 343 145 343 C 138 343 131 341 125 338 C 119 334 112 327 105 317 L 84 332 C 96 357 108 375 120 387 C 132 398 147 404 163 404 C 177 404 189 401 201 395 C 213 389 225 387 239 387 C 245 387 252 388 258 392 C 264 396 271 403 279 413 L 300 398 Z" unicode="" />
<glyph horiz-adv-x="384" d="M 359 133 C 359 113 355 94 347 77 C 339 59 327 44 313 32 C 298 20 280 10 260 3 C 239 -4 216 -8 192 -8 C 168 -8 145 -4 125 4 C 105 12 87 22 72 36 C 57 50 45 66 37 85 C 29 103 25 123 25 145 C 25 165 29 183 37 200 C 45 217 56 232 71 245 C 85 257 103 267 124 274 C 144 281 167 285 192 285 C 216 285 239 281 260 274 C 280 266 298 256 313 242 C 327 228 339 212 347 194 C 355 175 359 155 359 133 Z M 264 127 C 264 147 261 165 256 180 C 250 195 244 207 236 217 C 228 226 220 233 211 237 C 201 241 192 244 184 244 C 164 244 148 237 136 225 C 124 212 118 187 118 151 C 119 115 127 86 143 65 C 158 43 177 33 201 33 C 219 33 234 39 246 53 C 258 66 264 91 264 127 Z M 296 364 C 296 351 291 340 283 332 C 274 323 263 319 251 319 C 238 319 227 323 218 332 C 209 340 205 351 205 364 C 205 377 209 388 218 397 C 227 405 238 410 251 410 C 263 410 274 405 283 397 C 291 388 296 377 296 364 Z M 179 364 C 179 351 174 340 165 332 C 156 323 145 319 133 319 C 120 319 109 323 101 332 C 92 340 88 351 88 364 C 88 377 92 388 101 397 C 109 405 120 410 133 410 C 145 410 156 405 165 397 C 174 388 179 377 179 364 Z" unicode="" />
<glyph horiz-adv-x="352" d="M 32 146 L 32 207 L 320 207 L 320 146 L 32 146 Z M 224 293 C 224 279 219 268 210 259 C 201 250 190 246 177 246 C 163 246 152 250 143 259 C 134 268 130 279 130 293 C 130 306 134 317 143 326 C 152 335 163 340 177 340 C 190 340 201 335 210 326 C 219 317 224 306 224 293 Z M 224 63 C 224 49 219 38 210 29 C 201 20 190 16 177 16 C 163 16 152 20 143 29 C 134 38 130 49 130 63 C 130 76 134 87 143 96 C 152 105 163 110 177 110 C 190 110 201 105 210 96 C 219 87 224 76 224 63 Z" unicode="" />
<glyph horiz-adv-x="384" d="M 359 133 C 359 113 355 94 347 77 C 339 59 327 44 313 32 C 298 20 280 10 260 3 C 239 -4 216 -8 192 -8 C 168 -8 145 -4 125 4 C 122 5 119 6 116 7 L 89 -25 L 58 -3 L 83 27 C 79 29 75 32 72 36 C 57 50 45 66 37 85 C 29 103 25 123 25 145 C 25 165 29 183 37 200 C 45 217 56 232 71 245 C 85 257 103 267 124 274 C 144 281 167 285 192 285 C 216 285 239 281 260 274 C 267 271 274 268 281 265 L 305 293 L 335 269 L 313 242 C 327 228 339 212 347 194 C 355 175 359 155 359 133 Z M 236 217 C 228 226 220 233 211 237 C 201 241 192 244 184 244 C 164 244 148 237 136 225 C 124 212 118 187 118 151 C 118 125 123 103 131 85 L 239 214 C 237 214 236 215 236 217 Z M 264 127 C 264 145 261 162 257 176 L 154 52 C 167 39 183 33 201 33 C 219 33 234 39 246 53 C 258 66 264 91 264 127 Z" unicode="" />
<glyph horiz-adv-x="384" d="M 244 0 L 241 40 C 229 25 213 13 194 5 C 175 -3 158 -8 142 -8 C 116 -8 94 0 76 13 C 58 27 50 50 50 80 L 50 191 C 50 200 48 208 46 214 C 43 220 36 226 25 231 L 9 238 L 9 264 L 126 283 L 135 276 L 135 95 C 135 82 138 71 146 62 C 153 52 163 48 176 48 C 187 48 199 50 211 54 C 223 58 233 64 241 73 L 241 191 C 241 204 239 213 235 218 C 231 222 225 227 215 231 L 198 238 L 198 264 L 317 283 L 326 276 L 326 92 C 326 66 328 51 332 45 C 336 39 343 35 353 34 L 368 32 L 368 0 L 244 0 Z M 98 401 C 98 410 101 418 108 425 C 114 431 123 435 133 435 C 145 435 155 431 163 423 C 170 415 178 404 186 389 L 220 331 L 199 313 L 139 352 C 123 362 113 370 107 376 C 101 382 98 391 98 401 Z" unicode="" />
<glyph horiz-adv-x="384" d="M 244 0 L 241 40 C 229 25 213 13 194 5 C 175 -3 158 -8 142 -8 C 116 -8 94 0 76 13 C 58 27 50 50 50 80 L 50 191 C 50 200 48 208 46 214 C 43 220 36 226 25 231 L 9 238 L 9 264 L 126 283 L 135 276 L 135 95 C 135 82 138 71 146 62 C 153 52 163 48 176 48 C 187 48 199 50 211 54 C 223 58 233 64 241 73 L 241 191 C 241 204 239 213 235 218 C 231 222 225 227 215 231 L 198 238 L 198 264 L 317 283 L 326 276 L 326 92 C 326 66 328 51 332 45 C 336 39 343 35 353 34 L 368 32 L 368 0 L 244 0 Z M 272 401 C 272 391 269 382 263 376 C 257 370 246 362 231 352 L 171 313 L 150 331 L 184 389 C 192 404 199 415 207 423 C 214 431 224 435 237 435 C 247 435 255 431 262 425 C 268 418 272 410 272 401 Z" unicode="" />
<glyph horiz-adv-x="384" d="M 244 0 L 241 40 C 229 25 213 13 194 5 C 175 -3 158 -8 142 -8 C 116 -8 94 0 76 13 C 58 27 50 50 50 80 L 50 191 C 50 200 48 208 46 214 C 43 220 36 226 25 231 L 9 238 L 9 264 L 126 283 L 135 276 L 135 95 C 135 82 138 71 146 62 C 153 52 163 48 176 48 C 187 48 199 50 211 54 C 223 58 233 64 241 73 L 241 191 C 241 204 239 213 235 218 C 231 222 225 227 215 231 L 198 238 L 198 264 L 317 283 L 326 276 L 326 92 C 326 66 328 51 332 45 C 336 39 343 35 353 34 L 368 32 L 368 0 L 244 0 Z M 246 311 L 176 360 L 106 311 L 87 327 L 153 426 L 199 426 L 265 327 L 246 311 Z" unicode="" />
<glyph horiz-adv-x="384" d="M 244 0 L 241 40 C 229 25 213 13 194 5 C 175 -3 158 -8 142 -8 C 116 -8 94 0 76 13 C 58 27 50 50 50 80 L 50 191 C 50 200 48 208 46 214 C 43 220 36 226 25 231 L 9 238 L 9 264 L 126 283 L 135 276 L 135 95 C 135 82 138 71 146 62 C 153 52 163 48 176 48 C 187 48 199 50 211 54 C 223 58 233 64 241 73 L 241 191 C 241 204 239 213 235 218 C 231 222 225 227 215 231 L 198 238 L 198 264 L 317 283 L 326 276 L 326 92 C 326 66 328 51 332 45 C 336 39 343 35 353 34 L 368 32 L 368 0 L 244 0 Z M 287 364 C 287 351 282 340 274 332 C 265 323 254 319 242 319 C 229 319 218 323 209 332 C 200 340 196 351 196 364 C 196 377 200 388 209 397 C 218 405 229 410 242 410 C 254 410 265 405 274 397 C 282 388 287 377 287 364 Z M 170 364 C 170 351 165 340 156 332 C 147 323 136 319 124 319 C 111 319 100 323 92 332 C 83 340 79 351 79 364 C 79 377 83 388 92 397 C 100 405 111 410 124 410 C 136 410 147 405 156 397 C 165 388 170 377 170 364 Z" unicode="" />
<glyph horiz-adv-x="352" d="M 340 241 C 324 239 309 224 295 196 L 173 -34 C 159 -59 144 -77 128 -87 C 111 -97 93 -102 74 -102 C 62 -102 52 -99 44 -93 C 36 -87 32 -79 32 -68 C 32 -55 39 -45 53 -39 C 67 -33 89 -31 121 -34 C 124 -32 128 -27 133 -20 C 137 -13 141 -7 143 -3 L 50 200 C 44 214 38 223 33 229 C 27 234 20 238 10 241 L -2 243 L -2 275 L 171 275 L 171 243 L 157 241 C 151 239 146 238 142 236 C 137 234 135 230 135 225 C 135 219 136 214 138 208 C 140 202 143 197 145 193 L 195 81 L 248 183 C 251 191 254 197 256 203 C 258 209 260 214 260 220 C 260 225 257 229 251 233 C 245 237 238 239 231 241 L 215 243 L 215 275 L 357 275 L 357 243 L 340 241 Z M 273 401 C 273 391 270 382 264 376 C 258 370 247 362 232 352 L 172 313 L 151 331 L 185 389 C 193 404 200 415 208 423 C 215 431 225 435 238 435 C 248 435 256 431 263 425 C 269 418 273 410 273 401 Z" unicode="" />
<glyph horiz-adv-x="384" d="M 51 317 C 51 329 49 338 45 342 C 41 346 34 351 25 357 L 14 364 L 14 391 L 130 409 L 136 402 L 136 246 C 139 249 144 253 150 257 C 156 261 163 266 171 270 C 179 274 187 277 197 280 C 207 283 217 285 228 285 C 248 285 266 281 283 275 C 299 269 314 260 326 248 C 338 236 347 221 354 204 C 361 187 365 168 365 147 C 365 122 360 100 350 81 C 340 62 327 46 311 33 C 295 19 276 9 256 2 C 236 -4 215 -8 194 -8 C 183 -8 173 -7 163 -5 C 153 -3 144 -1 136 1 L 136 -7 C 136 -26 138 -39 144 -47 C 150 -55 158 -59 170 -61 L 195 -64 L 195 -96 L 97 -93 L 9 -96 L 9 -65 L 24 -62 C 36 -59 43 -54 46 -48 C 49 -42 51 -28 51 -7 L 51 317 Z M 270 132 C 270 148 267 163 262 175 C 257 187 251 197 243 205 C 235 213 225 218 215 222 C 205 226 195 228 185 228 C 172 228 162 226 156 222 C 149 218 142 213 136 208 L 136 106 C 136 78 140 59 150 49 C 160 39 174 34 193 34 C 212 34 230 41 246 56 C 262 71 270 96 270 132 Z" unicode="" />
<glyph horiz-adv-x="352" d="M 340 241 C 324 239 309 224 295 196 L 173 -34 C 159 -59 144 -77 128 -87 C 111 -97 93 -102 74 -102 C 62 -102 52 -99 44 -93 C 36 -87 32 -79 32 -68 C 32 -55 39 -45 53 -39 C 67 -33 89 -31 121 -34 C 124 -32 128 -27 133 -20 C 137 -13 141 -7 143 -3 L 50 200 C 44 214 38 223 33 229 C 27 234 20 238 10 241 L -2 243 L -2 275 L 171 275 L 171 243 L 157 241 C 151 239 146 238 142 236 C 137 234 135 230 135 225 C 135 219 136 214 138 208 C 140 202 143 197 145 193 L 195 81 L 248 183 C 251 191 254 197 256 203 C 258 209 260 214 260 220 C 260 225 257 229 251 233 C 245 237 238 239 231 241 L 215 243 L 215 275 L 357 275 L 357 243 L 340 241 Z M 292 364 C 292 351 287 340 279 332 C 270 323 259 319 247 319 C 234 319 223 323 214 332 C 205 340 201 351 201 364 C 201 377 205 388 214 397 C 223 405 234 410 247 410 C 259 410 270 405 279 397 C 287 388 292 377 292 364 Z M 175 364 C 175 351 170 340 161 332 C 152 323 141 319 129 319 C 116 319 105 323 97 332 C 88 340 84 351 84 364 C 84 377 88 388 97 397 C 105 405 116 410 129 410 C 141 410 152 405 161 397 C 170 388 175 377 175 364 Z" unicode="" />
<glyph horiz-adv-x="224" d="M 16 0 L 16 32 L 45 34 C 57 34 65 38 69 45 C 73 52 75 68 75 92 L 75 191 C 75 205 73 214 70 220 C 66 226 60 230 50 232 L 16 238 L 16 264 L 146 283 L 160 276 L 160 84 C 160 62 162 49 166 44 C 170 38 178 35 190 34 L 215 32 L 215 0 L 16 0 Z" unicode="" />
<glyph horiz-adv-x="400" d="M 375 0 L 14 0 L 14 33 L 36 35 C 49 36 59 41 66 51 C 72 60 76 79 76 108 L 76 160 L 26 144 L 13 183 L 76 203 L 76 277 C 76 305 73 324 69 333 C 65 342 56 347 43 349 L 14 351 L 14 384 L 243 384 L 243 351 L 206 349 C 190 347 179 342 175 332 C 171 322 169 303 169 277 L 169 232 L 252 259 L 265 220 L 169 189 L 169 108 C 169 78 172 59 180 50 C 188 40 202 36 224 36 L 258 36 C 284 36 303 39 316 45 C 328 51 337 62 343 78 L 364 137 L 398 137 L 375 0 Z" unicode="" />
<glyph horiz-adv-x="208" d="M 16 0 L 16 32 L 30 33 C 36 33 42 34 47 36 C 51 38 55 41 58 45 C 60 49 62 54 63 62 C 64 69 65 79 65 92 L 65 156 L 26 144 L 13 183 L 65 199 L 65 315 C 65 328 62 337 57 342 C 51 347 44 352 34 356 L 17 363 L 17 390 L 141 409 L 150 402 L 150 226 L 192 239 L 205 200 L 150 182 L 150 92 C 150 70 152 55 157 47 C 161 39 169 34 181 33 L 200 32 L 200 0 L 16 0 Z" unicode="" />
<glyph horiz-adv-x="624" d="M 258 0 C 224 0 194 4 166 12 C 138 20 114 33 94 49 C 73 65 57 84 46 108 C 34 132 29 159 29 191 C 29 222 34 250 44 274 C 54 298 69 318 87 334 C 105 350 127 363 152 371 C 177 379 204 384 233 384 L 595 384 L 609 281 L 578 281 L 570 297 C 564 306 559 314 555 320 C 550 326 544 332 538 336 C 532 340 524 342 516 344 C 507 346 496 347 483 347 L 444 347 C 432 347 423 346 417 344 C 411 342 405 341 400 339 L 400 221 L 453 221 C 477 221 494 223 502 227 C 510 231 514 238 516 249 L 519 272 L 549 272 L 549 128 L 519 128 L 516 149 C 514 160 509 169 501 176 C 492 183 476 187 453 187 L 400 187 L 400 103 C 400 88 400 76 401 67 C 402 58 405 51 409 47 C 413 42 418 39 426 38 C 433 36 443 36 455 36 L 498 36 C 511 36 522 37 531 39 C 539 41 547 44 553 48 C 559 52 564 57 569 64 C 573 70 578 78 584 88 L 592 104 L 621 104 L 607 0 L 258 0 Z M 307 278 C 307 304 302 322 293 332 C 284 342 266 347 239 347 C 208 347 183 335 163 312 C 143 288 133 250 133 197 C 133 141 146 101 173 75 C 199 49 234 37 277 37 L 292 37 C 299 37 304 37 307 38 L 307 278 Z" unicode="" />
<glyph horiz-adv-x="560" d="M 357 150 L 357 146 C 357 108 365 81 381 65 C 397 49 418 41 444 41 C 462 41 477 44 489 52 C 500 59 511 68 523 78 L 552 56 C 537 37 517 22 493 10 C 468 -1 442 -7 414 -7 C 393 -7 374 -2 356 5 C 338 13 323 25 311 40 C 297 24 279 12 259 4 C 238 -3 215 -8 190 -8 C 166 -8 144 -4 124 4 C 104 12 86 22 72 36 C 57 50 45 66 37 85 C 29 103 25 123 25 145 C 25 165 29 183 37 200 C 45 217 56 232 70 245 C 84 257 102 267 122 274 C 142 281 165 285 190 285 C 216 285 239 280 260 271 C 281 261 298 249 312 233 C 326 249 343 262 362 271 C 381 280 400 285 420 285 C 460 285 492 272 516 248 C 540 224 552 191 552 150 L 357 150 Z M 262 127 C 262 147 259 165 254 180 C 248 195 242 207 234 217 C 226 226 218 233 209 237 C 199 241 190 244 182 244 C 162 244 147 237 135 225 C 123 212 118 187 118 151 C 119 115 127 86 142 65 C 156 43 175 33 199 33 C 217 33 232 39 244 53 C 256 66 262 91 262 127 Z M 464 188 C 462 207 457 222 449 232 C 440 242 428 247 414 247 C 400 247 388 242 378 232 C 367 222 360 208 358 188 L 464 188 Z" unicode="" />
<glyph horiz-adv-x="352" d="M 334 109 C 334 91 329 74 321 60 C 312 45 300 33 285 23 C 269 13 251 5 230 0 C 208 -5 185 -8 160 -8 C 132 -8 107 -5 83 -1 C 59 2 43 7 34 12 L 23 111 L 58 111 L 70 77 C 75 62 85 50 100 42 C 115 34 139 30 172 30 C 196 30 216 34 231 44 C 245 54 253 68 253 86 C 253 99 247 110 236 120 C 225 129 203 138 171 148 C 125 160 90 176 66 194 C 42 212 30 238 30 273 C 30 293 34 310 43 325 C 52 340 64 352 79 362 C 93 372 110 379 129 384 C 147 388 166 391 186 391 C 212 391 236 388 258 384 C 280 379 295 375 305 371 L 314 262 L 279 262 L 269 297 C 264 313 255 326 241 337 C 227 348 208 354 183 354 C 161 354 143 349 130 339 C 116 329 110 316 110 301 C 110 294 111 288 113 284 C 115 279 118 275 124 271 C 129 267 136 264 146 260 C 156 256 168 252 184 248 C 210 240 232 231 251 223 C 270 215 286 205 298 195 C 310 185 319 173 325 159 C 331 145 334 128 334 109 Z M 209 431 L 163 431 L 97 531 L 116 546 L 186 497 L 256 546 L 275 531 L 209 431 Z" unicode="" />
<glyph horiz-adv-x="288" d="M 272 88 C 272 60 260 37 238 19 C 215 1 182 -8 139 -8 C 119 -8 99 -6 79 -3 C 59 0 41 5 25 11 L 25 87 L 61 87 C 64 71 73 58 88 49 C 103 39 123 35 147 35 C 165 35 178 37 185 43 C 191 49 195 55 195 63 C 195 73 191 81 183 86 C 175 91 160 96 138 102 C 125 105 112 109 99 114 C 86 118 74 124 63 131 C 52 138 43 147 36 158 C 29 168 26 182 26 198 C 26 214 29 227 37 238 C 44 249 53 258 65 265 C 76 272 89 277 104 280 C 118 283 133 285 148 285 C 173 285 195 283 215 279 C 235 275 249 272 257 269 L 257 194 L 221 194 C 215 211 206 224 192 232 C 178 240 164 245 149 245 C 133 245 121 243 112 239 C 102 235 98 228 98 219 C 98 215 98 212 100 209 C 101 206 104 203 108 200 C 112 196 119 193 128 189 C 137 185 149 182 165 179 C 203 170 230 158 247 144 C 263 130 272 111 272 88 Z M 166 322 L 120 322 L 54 422 L 73 437 L 143 388 L 213 437 L 232 422 L 166 322 Z" unicode="" />
<glyph horiz-adv-x="448" d="M 427 350 C 415 349 405 346 399 340 C 392 334 385 325 377 313 L 271 163 L 271 107 C 271 93 271 82 272 73 C 273 64 275 57 278 52 C 280 46 284 42 289 40 C 293 37 300 35 308 35 L 334 33 L 334 0 L 113 0 L 113 33 L 140 35 C 155 36 165 41 170 51 C 175 61 178 79 178 107 L 178 156 L 74 305 C 62 320 53 331 45 337 C 37 343 29 347 20 349 L 5 351 L 5 384 L 210 384 L 210 351 L 188 349 C 179 347 173 345 171 342 C 168 338 167 334 167 330 C 167 323 171 313 179 301 L 248 202 L 304 282 C 309 289 313 296 317 304 C 321 312 323 319 323 325 C 323 339 314 347 296 349 L 276 351 L 276 384 L 443 384 L 443 351 L 427 350 Z M 350 473 C 350 460 345 449 337 441 C 328 432 317 428 305 428 C 292 428 281 432 272 441 C 263 449 259 460 259 473 C 259 486 263 497 272 506 C 281 514 292 519 305 519 C 317 519 328 514 337 506 C 345 497 350 486 350 473 Z M 233 473 C 233 460 228 449 219 441 C 210 432 199 428 187 428 C 174 428 163 432 155 441 C 146 449 142 460 142 473 C 142 486 146 497 155 506 C 163 514 174 519 187 519 C 199 519 210 514 219 506 C 228 497 233 486 233 473 Z" unicode="" />
<glyph horiz-adv-x="384" d="M 349 0 L 17 0 L 11 27 L 253 349 L 146 349 C 132 349 121 348 113 346 C 105 344 98 342 92 338 C 86 334 82 330 78 324 C 74 318 70 310 66 301 L 53 271 L 21 271 L 39 395 L 66 395 C 68 391 72 389 76 388 C 80 386 88 385 100 385 C 112 384 129 384 151 384 L 358 384 L 361 358 L 122 35 L 243 35 C 263 35 280 39 293 47 C 306 55 318 69 329 89 L 341 111 L 373 111 L 349 0 Z M 227 431 L 181 431 L 115 531 L 134 546 L 204 497 L 274 546 L 293 531 L 227 431 Z" unicode="" />
<glyph horiz-adv-x="320" d="M 291 0 L 31 0 L 23 19 L 196 242 L 127 242 C 109 242 97 239 89 233 C 81 227 74 219 69 207 L 63 193 L 32 193 L 49 292 L 78 292 C 78 288 80 286 83 284 C 85 282 91 280 99 279 C 107 277 120 276 137 276 C 153 275 176 275 206 275 L 297 275 L 305 255 L 133 35 L 211 35 C 228 35 241 37 249 42 C 257 46 264 55 270 69 L 280 95 L 311 95 L 291 0 Z M 195 322 L 149 322 L 83 422 L 102 437 L 172 388 L 242 437 L 261 422 L 195 322 Z" unicode="" />
<glyph horiz-adv-x="288" d="M 293 353 C 293 341 289 331 282 322 C 274 313 266 309 256 309 C 248 309 240 313 230 321 C 220 329 211 340 202 352 C 190 344 181 334 175 321 C 169 308 165 293 163 277 L 158 240 L 244 240 L 236 199 L 152 199 L 138 88 C 132 52 124 21 113 -2 C 101 -26 88 -46 72 -61 C 56 -76 40 -87 22 -94 C 4 -100 -14 -104 -32 -104 C -47 -104 -59 -100 -68 -93 C -77 -86 -82 -77 -82 -66 C -82 -52 -78 -42 -70 -36 C -62 -30 -53 -27 -41 -27 C -33 -27 -24 -29 -13 -34 C -1 -38 8 -45 17 -53 C 22 -45 26 -39 30 -33 C 34 -27 36 -18 38 -6 L 66 199 L 24 199 L 29 228 L 72 238 C 76 260 83 280 94 298 C 104 316 117 332 132 346 C 146 359 163 369 181 377 C 199 384 217 388 237 388 C 257 388 272 384 280 377 C 288 370 293 362 293 353 Z" unicode="" />
<glyph horiz-adv-x="256" d="M 198 311 L 128 360 L 58 311 L 39 327 L 105 426 L 151 426 L 217 327 L 198 311 Z" unicode="" />
<glyph horiz-adv-x="256" d="M 151 322 L 105 322 L 39 422 L 58 437 L 128 388 L 198 437 L 217 422 L 151 322 Z" unicode="" />
<glyph horiz-adv-x="256" d="M 214 416 C 204 380 192 355 178 341 C 164 326 147 319 128 319 C 108 319 91 326 77 341 C 63 355 51 380 43 416 L 71 424 C 79 408 87 397 95 390 C 103 383 114 380 128 380 C 141 380 152 383 160 390 C 168 397 177 408 186 424 L 214 416 Z" unicode="" />
<glyph horiz-adv-x="256" d="M 175 363 C 175 349 170 338 161 329 C 152 320 141 316 128 316 C 114 316 103 320 94 329 C 85 338 81 349 81 363 C 81 376 85 387 94 396 C 103 405 114 410 128 410 C 141 410 152 405 161 396 C 170 387 175 376 175 363 Z" unicode="" />
<glyph horiz-adv-x="256" d="M 204 380 C 204 360 196 345 182 334 C 168 322 150 317 128 317 C 106 317 87 322 73 334 C 59 345 52 360 52 380 C 52 399 59 414 73 426 C 87 437 106 443 128 443 C 150 443 168 437 182 426 C 196 414 204 399 204 380 Z M 160 380 C 160 391 157 400 151 407 C 145 413 138 417 128 417 C 118 417 110 413 104 407 C 98 400 96 391 96 380 C 96 368 98 359 104 352 C 110 345 118 342 128 342 C 138 342 145 345 151 352 C 157 359 160 368 160 380 Z" unicode="" />
<glyph horiz-adv-x="256" d="M 184 -90 C 176 -95 167 -99 158 -102 C 148 -104 137 -106 124 -106 C 108 -106 95 -102 85 -96 C 75 -89 70 -78 70 -63 C 70 -39 91 -17 134 3 L 158 3 C 146 -8 137 -18 132 -28 C 126 -38 124 -46 124 -52 C 124 -60 126 -67 131 -71 C 135 -75 141 -77 148 -77 C 158 -77 168 -75 177 -72 L 184 -90 Z" unicode="" />
<glyph horiz-adv-x="256" d="M 236 398 C 224 372 211 354 199 343 C 187 332 173 327 157 327 C 143 327 130 329 118 335 C 106 340 94 343 81 343 C 74 343 67 341 61 338 C 55 334 48 327 41 317 L 20 332 C 32 357 44 375 56 387 C 68 398 83 404 99 404 C 113 404 125 401 137 395 C 149 389 161 387 175 387 C 181 387 188 388 194 392 C 200 396 207 403 215 413 L 236 398 Z" unicode="" />
<glyph horiz-adv-x="256" d="M 235 401 C 235 391 232 382 227 376 C 221 369 211 361 197 351 L 133 309 L 115 323 L 154 386 C 163 401 171 412 178 418 C 185 424 194 428 204 428 C 213 428 220 425 226 420 C 232 414 235 408 235 401 Z M 130 401 C 130 391 127 382 122 376 C 116 369 106 361 92 351 L 27 309 L 9 323 L 48 386 C 57 401 65 412 72 418 C 79 424 88 428 99 428 C 107 428 115 425 121 420 C 127 414 130 408 130 401 Z" unicode="" />
<glyph horiz-adv-x="352" d="M 359 292 L 340 202 L 287 202 L 274 82 C 272 68 274 57 278 51 C 282 44 288 41 295 41 C 307 41 319 45 331 54 L 346 28 C 334 16 321 8 308 3 C 295 -2 283 -5 271 -5 C 243 -5 223 3 209 19 C 195 35 190 59 194 92 L 206 202 L 144 202 C 142 187 141 173 139 160 C 137 146 135 133 134 121 C 132 107 129 93 126 79 C 123 64 119 50 113 38 C 107 25 98 15 88 7 C 78 -1 65 -5 49 -5 C 33 -5 22 -1 15 6 C 7 14 4 23 4 33 C 4 39 5 46 8 52 C 11 58 15 64 21 68 C 27 72 34 75 43 76 C 52 77 63 76 75 73 C 79 93 84 114 88 135 C 92 156 95 178 97 202 L 89 202 C 70 202 57 197 51 187 C 45 177 41 163 40 145 L 12 145 C 10 157 9 169 9 180 C 9 212 16 235 32 251 C 48 267 67 275 91 275 L 285 275 C 299 275 309 275 315 277 C 321 278 325 283 328 292 L 359 292 Z" unicode="" />
<glyph horiz-adv-x="304" d="M 24 116 L 24 196 L 279 196 L 279 116 L 24 116 Z" unicode="" />
<glyph horiz-adv-x="576" d="M 31 116 L 31 196 L 546 196 L 546 116 L 31 116 Z" unicode="" />
<glyph horiz-adv-x="160" d="M 131 372 C 120 362 111 353 103 343 C 95 333 90 323 87 313 C 101 303 112 293 118 285 C 124 276 128 266 128 255 C 128 243 124 233 116 224 C 108 215 96 211 81 211 C 62 211 47 217 35 229 C 23 241 18 258 18 280 C 18 325 48 365 109 399 L 131 372 Z" unicode="" />
<glyph horiz-adv-x="160" d="M 135 326 C 135 280 104 241 44 207 L 22 235 C 32 243 41 253 49 263 C 57 273 62 283 65 293 C 51 303 40 313 34 322 C 28 330 25 340 25 352 C 25 363 29 373 37 382 C 45 391 56 396 72 396 C 90 396 105 389 117 377 C 129 364 135 347 135 326 Z" unicode="" />
<glyph horiz-adv-x="160" d="M 135 36 C 135 -9 104 -49 44 -83 L 22 -55 C 32 -46 41 -37 49 -27 C 57 -17 62 -7 65 3 C 51 13 40 23 34 31 C 28 39 25 49 25 61 C 25 72 29 82 37 91 C 45 100 56 105 72 105 C 90 105 105 98 117 86 C 129 74 135 57 135 36 Z" unicode="" />
<glyph horiz-adv-x="288" d="M 263 373 C 252 364 242 354 234 344 C 225 334 219 323 217 313 C 230 303 240 293 246 285 C 252 276 255 266 255 255 C 255 243 251 233 243 224 C 235 215 225 211 211 211 C 193 211 179 217 168 229 C 156 241 151 258 151 280 C 151 325 181 365 242 399 L 263 373 Z M 130 373 C 119 364 109 354 101 344 C 92 334 86 323 84 313 C 97 303 107 293 113 285 C 119 276 122 266 122 255 C 122 243 118 233 110 224 C 102 215 92 211 78 211 C 60 211 46 217 35 229 C 23 241 18 258 18 280 C 18 325 48 365 109 399 L 130 373 Z" unicode="" />
<glyph horiz-adv-x="288" d="M 263 326 C 263 280 232 241 172 207 L 151 233 C 161 242 171 252 180 262 C 188 272 194 283 197 293 C 183 303 174 313 168 322 C 162 330 159 340 159 352 C 159 363 162 373 170 382 C 178 391 189 396 203 396 C 220 396 234 389 246 377 C 257 364 263 347 263 326 Z M 130 326 C 130 280 99 241 39 207 L 18 233 C 28 242 38 252 47 262 C 55 272 61 283 64 293 C 50 303 41 313 35 322 C 29 330 26 340 26 352 C 26 363 29 373 37 382 C 45 391 56 396 70 396 C 87 396 101 389 113 377 C 124 364 130 347 130 326 Z" unicode="" />
<glyph horiz-adv-x="288" d="M 263 36 C 263 -9 232 -49 172 -83 L 151 -57 C 161 -48 171 -38 180 -28 C 188 -18 194 -7 197 3 C 183 13 174 22 168 31 C 162 39 159 49 159 61 C 159 72 162 82 170 91 C 178 100 189 105 203 105 C 220 105 234 98 246 86 C 257 73 263 56 263 36 Z M 130 36 C 130 -9 99 -49 39 -83 L 18 -57 C 28 -48 38 -38 47 -28 C 55 -18 61 -7 64 3 C 50 13 41 22 35 31 C 29 39 26 49 26 61 C 26 72 29 82 37 91 C 45 100 56 105 70 105 C 87 105 101 98 113 86 C 124 73 130 56 130 36 Z" unicode="" />
<glyph horiz-adv-x="288" d="M 250 199 L 186 230 L 158 230 L 181 128 L 154 -72 L 135 -72 L 107 128 L 131 230 L 103 230 L 38 199 L 15 242 L 38 284 L 103 254 L 131 254 L 131 302 L 100 356 L 144 394 L 188 356 L 158 302 L 158 254 L 186 254 L 250 284 L 274 242 L 250 199 Z" unicode="" />
<glyph horiz-adv-x="304" d="M 258 28 L 194 56 L 166 56 L 166 12 L 197 -42 L 152 -80 L 108 -42 L 139 12 L 139 56 L 111 56 L 46 28 L 23 68 L 46 108 L 111 80 L 139 80 L 118 151 L 139 235 L 111 235 L 46 207 L 23 247 L 46 287 L 111 259 L 139 259 L 139 303 L 108 357 L 152 395 L 197 357 L 166 303 L 166 259 L 194 259 L 258 287 L 282 247 L 258 207 L 194 235 L 166 235 L 187 151 L 166 80 L 194 80 L 258 108 L 282 68 L 258 28 Z" unicode="" />
<glyph horiz-adv-x="272" d="M 234 179 C 234 151 224 127 206 109 C 188 90 165 81 137 81 C 109 81 85 90 67 109 C 48 127 39 151 39 179 C 39 207 48 230 67 248 C 85 266 109 276 137 276 C 165 276 188 266 206 248 C 224 230 234 207 234 179 Z" unicode="" />
<glyph horiz-adv-x="576" d="M 156 51 C 156 32 150 17 138 7 C 126 -2 112 -8 97 -8 C 81 -8 66 -2 54 7 C 42 17 36 32 36 51 C 36 68 42 82 54 93 C 66 103 81 109 97 109 C 112 109 126 103 138 93 C 150 82 156 68 156 51 Z M 348 51 C 348 32 342 17 330 7 C 318 -2 304 -8 289 -8 C 273 -8 258 -2 246 7 C 234 17 228 32 228 51 C 228 68 234 82 246 93 C 258 103 273 109 289 109 C 304 109 318 103 330 93 C 342 82 348 68 348 51 Z M 540 51 C 540 32 534 17 522 7 C 510 -2 496 -8 481 -8 C 465 -8 450 -2 438 7 C 426 17 420 32 420 51 C 420 68 426 82 438 93 C 450 103 465 109 481 109 C 496 109 510 103 522 93 C 534 82 540 68 540 51 Z" unicode="" />
<glyph horiz-adv-x="784" d="M 529 109 C 529 91 526 76 520 62 C 514 48 507 35 497 25 C 487 14 475 6 461 0 C 447 -5 431 -8 415 -8 C 385 -8 359 1 338 21 C 317 40 307 68 307 104 C 307 121 309 137 315 151 C 321 165 329 178 339 189 C 349 199 361 207 375 213 C 389 219 404 222 420 222 C 450 222 476 212 497 193 C 518 173 529 145 529 109 Z M 166 -8 L 134 11 L 372 391 L 405 372 L 166 -8 Z M 230 279 C 230 244 219 216 198 194 C 177 172 150 161 117 161 C 87 161 61 170 40 189 C 19 208 9 236 9 274 C 9 290 11 306 17 320 C 23 334 31 347 41 358 C 51 368 63 376 77 382 C 91 388 106 391 123 391 C 154 391 180 381 200 362 C 220 342 230 315 230 279 Z M 452 102 C 452 160 440 189 416 189 C 405 189 397 183 391 172 C 385 161 383 141 383 111 C 383 54 395 26 419 26 C 432 26 441 31 445 41 C 449 51 452 72 452 102 Z M 155 273 C 155 302 152 323 146 337 C 140 350 131 357 118 357 C 106 357 97 352 93 342 C 89 332 87 312 87 282 C 87 252 89 230 95 216 C 100 201 109 194 123 194 C 134 194 142 199 147 211 C 152 222 155 243 155 273 Z M 775 109 C 775 91 772 76 766 62 C 760 48 753 35 743 25 C 733 14 721 6 707 0 C 693 -5 677 -8 661 -8 C 631 -8 605 1 584 21 C 563 40 553 68 553 104 C 553 121 555 137 561 151 C 567 165 575 178 585 189 C 595 199 607 207 621 213 C 635 219 650 222 666 222 C 696 222 722 212 743 193 C 764 173 775 145 775 109 Z M 698 102 C 698 160 686 189 662 189 C 651 189 643 183 637 172 C 631 161 629 141 629 111 C 629 54 641 26 665 26 C 678 26 687 31 691 41 C 695 51 698 72 698 102 Z" unicode="" />
<glyph horiz-adv-x="192" d="M 138 -6 L 14 132 L 138 269 L 164 255 L 103 132 L 164 8 L 138 -6 Z" unicode="" />
<glyph horiz-adv-x="192" d="M 55 -6 L 30 8 L 90 132 L 30 255 L 55 269 L 179 132 L 55 -6 Z" unicode="" />
<glyph horiz-adv-x="224" d="M 9 -8 L -23 11 L 215 391 L 248 372 L 9 -8 Z" unicode="" />
<glyph horiz-adv-x="240" d="M 191 140 L 128 140 L 128 207 L 14 207 L 3 225 L 134 408 L 191 408 L 191 246 L 230 246 L 230 207 L 191 207 L 191 140 Z M 56 246 L 128 246 L 128 346 L 56 246 Z" unicode="" />
<glyph horiz-adv-x="352" d="M 344 50 C 326 33 308 20 289 10 C 270 0 247 -5 220 -5 C 180 -5 146 6 118 29 C 90 51 71 84 62 126 L 16 126 L 16 161 L 57 161 C 56 165 56 170 56 174 L 56 197 C 56 200 56 203 57 207 L 16 207 L 16 243 L 61 243 C 71 289 93 325 125 351 C 157 377 195 391 239 391 C 271 391 295 385 313 374 C 331 363 340 348 340 330 C 340 302 325 288 297 288 C 283 288 271 292 261 302 C 251 312 243 328 239 352 C 237 352 235 352 233 352 C 231 352 228 353 225 353 C 205 353 188 343 174 324 C 160 305 152 278 149 243 L 280 243 L 280 207 L 147 207 C 147 190 148 175 150 161 L 280 161 L 280 126 L 157 126 C 166 94 179 73 196 61 C 213 49 231 44 251 44 C 265 44 278 46 290 51 C 302 56 313 63 325 71 L 344 50 Z" unicode="" />
<glyph horiz-adv-x="448" d="M 429 191 C 429 163 423 136 412 112 C 401 88 386 67 368 49 C 350 31 328 17 304 7 C 279 -2 253 -8 225 -8 C 197 -8 170 -2 145 7 C 120 17 98 31 80 49 C 61 67 46 88 35 112 C 24 136 19 163 19 191 C 19 219 24 245 35 269 C 46 293 61 315 80 333 C 98 351 120 365 145 375 C 170 385 197 391 225 391 C 253 391 279 385 304 375 C 328 365 350 351 368 333 C 386 315 401 293 412 269 C 423 245 429 219 429 191 Z M 402 191 C 402 215 397 238 388 260 C 379 281 367 299 351 315 C 335 331 316 343 294 352 C 272 361 249 366 225 366 C 200 366 177 361 155 352 C 133 343 115 331 99 315 C 83 299 70 281 61 260 C 51 238 47 215 47 191 C 47 167 51 144 61 123 C 70 101 83 83 99 67 C 115 51 133 39 155 30 C 177 21 200 17 225 17 C 249 17 272 21 294 30 C 316 39 335 51 351 67 C 367 83 379 101 388 123 C 397 144 402 167 402 191 Z M 338 238 C 338 216 330 199 314 189 C 298 178 277 171 249 167 L 246 187 C 254 191 260 197 265 204 C 269 211 272 222 272 237 C 272 250 269 260 264 266 C 258 272 251 276 242 276 C 238 276 235 275 232 275 C 229 275 227 275 226 275 L 226 160 C 226 138 226 124 228 118 C 230 112 235 109 245 108 L 260 105 L 260 81 L 130 81 L 130 105 L 144 108 C 151 109 155 113 157 119 C 158 125 159 139 159 160 L 159 226 C 159 246 158 259 157 266 C 155 272 151 276 144 278 L 130 280 L 130 304 L 254 304 C 279 304 299 298 315 287 C 330 275 338 259 338 238 Z" unicode="" />
<glyph horiz-adv-x="608" d="M 594 162 L 581 162 C 575 162 569 162 563 162 C 557 162 551 163 545 163 L 519 163 C 513 163 506 162 500 162 C 493 162 487 162 481 162 L 469 162 L 469 182 L 483 185 C 487 185 490 186 492 188 C 494 190 496 192 497 196 C 498 200 499 205 499 212 C 499 219 499 228 499 240 L 495 320 L 427 162 L 397 162 L 333 320 L 327 240 C 326 228 326 219 326 212 C 326 205 327 200 328 196 C 329 192 331 190 333 188 C 335 186 339 185 343 185 L 356 182 L 356 162 C 352 162 344 162 334 162 C 323 162 314 163 308 163 C 302 163 294 162 284 162 C 274 162 266 162 261 162 L 261 182 L 273 185 C 277 185 280 186 282 188 C 284 190 286 193 288 197 C 289 201 290 206 291 213 C 291 219 292 228 293 240 L 297 307 C 298 329 298 344 296 350 C 294 356 289 360 281 362 L 268 365 L 268 383 L 336 383 C 343 383 350 383 356 383 C 362 383 367 384 371 385 L 427 249 L 485 383 L 587 383 L 587 365 L 575 362 C 565 360 560 356 558 350 C 556 344 555 329 557 307 L 562 240 C 562 228 563 219 564 212 C 564 205 565 200 567 196 C 568 192 570 190 572 188 C 574 186 577 185 581 185 L 594 182 L 594 162 Z M 242 319 L 215 319 L 212 332 C 210 342 206 349 202 353 C 197 357 188 359 175 359 L 160 359 L 160 240 C 160 228 160 218 160 212 C 160 205 161 200 163 196 C 165 192 167 190 170 188 C 172 186 176 185 181 185 L 195 182 L 195 162 L 181 162 C 175 162 168 162 161 162 C 154 162 147 163 141 163 L 112 163 C 106 163 99 162 92 162 C 84 162 77 162 71 162 L 58 162 L 58 182 L 72 185 C 77 185 81 186 84 188 C 87 190 89 192 91 196 C 93 200 94 205 94 212 C 94 218 95 228 95 240 L 95 359 L 84 359 C 69 359 59 357 55 353 C 50 349 45 342 40 332 L 36 319 L 9 319 L 14 391 L 37 391 C 39 389 41 387 44 386 C 46 385 51 384 57 384 C 63 383 71 383 82 383 L 175 383 C 187 383 196 383 202 384 C 208 384 213 385 216 386 C 218 387 221 389 224 391 L 248 391 L 242 319 Z" unicode="" />
<glyph horiz-adv-x="496" d="M 453 0 L 270 0 L 270 110 C 300 121 319 137 329 157 C 339 177 344 199 344 225 C 344 261 335 292 317 316 C 299 340 272 352 238 352 C 209 352 187 343 172 327 C 157 311 150 288 150 258 C 150 243 150 229 152 215 C 154 201 157 187 163 175 C 169 162 177 150 187 139 C 197 128 210 118 226 110 L 226 0 L 43 0 L 29 104 L 58 104 L 70 80 C 77 62 84 51 92 45 C 99 39 107 36 116 36 L 127 36 C 137 36 143 38 145 43 C 147 48 149 59 149 77 L 149 103 C 117 113 90 130 70 153 C 49 176 39 205 39 241 C 39 263 44 284 56 303 C 68 321 83 337 103 350 C 123 363 145 373 170 380 C 195 387 221 391 248 391 C 276 391 303 387 329 381 C 354 374 376 364 395 351 C 413 338 428 322 439 304 C 449 285 455 264 455 241 C 455 207 444 178 423 154 C 402 130 377 113 347 103 L 347 77 C 347 59 348 48 350 43 C 352 38 359 36 369 36 L 380 36 C 388 36 395 39 403 45 C 411 51 418 62 426 80 L 438 104 L 467 104 L 453 0 Z" unicode="" />
<glyph horiz-adv-x="400" d="M 364 134 C 356 88 335 52 301 28 C 267 4 224 -8 172 -8 C 146 -8 124 -4 105 4 C 85 12 69 22 57 36 C 45 50 36 66 31 85 C 25 103 25 124 29 146 C 32 164 39 180 49 195 C 59 210 72 223 88 234 C 103 244 120 252 139 258 C 158 264 178 267 199 267 C 216 267 230 265 241 262 C 251 258 261 254 270 249 C 270 255 267 264 263 276 C 258 287 251 299 243 312 C 235 324 224 337 212 350 C 200 363 186 375 170 385 L 196 413 C 221 401 245 385 268 367 C 290 349 310 328 326 304 C 342 280 354 253 362 225 C 369 196 370 166 364 134 Z M 266 117 C 271 151 269 177 261 196 C 252 215 233 225 203 225 C 181 225 164 219 152 207 C 140 195 131 176 126 148 C 119 111 120 83 129 63 C 138 43 158 33 188 33 C 211 33 228 39 240 51 C 252 63 260 85 266 117 Z" unicode="" />
<glyph horiz-adv-x="432" d="M 21 0 L 21 37 L 160 334 L 225 393 L 254 393 L 410 37 L 410 0 L 21 0 Z M 196 304 L 89 68 L 298 68 L 196 304 Z" unicode="" />
<glyph horiz-adv-x="512" d="M 436 11 C 436 -15 438 -33 442 -43 C 446 -53 455 -59 469 -61 L 498 -63 L 498 -96 L 283 -96 L 283 -63 L 307 -61 C 321 -59 331 -53 336 -43 C 340 -33 343 -15 343 11 L 343 339 C 337 341 331 342 324 344 C 317 346 309 347 299 347 L 213 347 C 203 347 194 346 187 344 C 180 342 174 341 169 339 L 169 11 C 169 -15 171 -33 176 -43 C 180 -53 190 -59 205 -61 L 227 -63 L 227 -96 L 14 -96 L 14 -63 L 43 -61 C 56 -59 65 -53 69 -43 C 73 -33 76 -15 76 11 L 76 277 C 76 306 73 325 69 334 C 64 342 56 347 44 349 L 14 351 L 14 384 L 498 384 L 498 351 L 468 349 C 456 347 447 342 443 334 C 438 325 436 306 436 277 L 436 11 Z" unicode="" />
<glyph horiz-adv-x="368" d="M 15 -96 L 15 -49 L 174 118 L 15 357 L 15 384 L 239 384 C 253 384 264 384 273 384 C 281 384 288 385 293 386 C 298 387 302 388 304 390 C 306 391 309 393 311 395 L 333 395 L 325 259 L 293 259 L 288 307 C 286 325 280 337 270 341 C 260 345 246 347 226 347 L 153 347 L 261 184 L 261 149 L 93 -28 L 228 -28 C 241 -28 252 -27 261 -25 C 269 -23 277 -20 283 -16 C 289 -12 294 -6 299 0 C 303 6 308 14 314 24 L 322 40 L 351 40 L 333 -96 L 15 -96 Z" unicode="" />
<glyph horiz-adv-x="352" d="M 32 146 L 32 207 L 320 207 L 320 146 L 32 146 Z" unicode="" />
<glyph horiz-adv-x="369" d="M 354 375 C 354 370 353 366 352 362 C 350 358 349 355 347 351 C 330 315 314 275 298 231 C 282 187 267 143 253 98 L 210 -38 L 144 -49 L 70 88 C 62 102 55 112 48 119 C 41 125 33 129 23 131 L 15 132 L 15 162 L 139 162 C 139 154 141 144 143 134 C 145 123 149 113 154 104 L 187 31 L 209 106 C 214 125 220 146 226 170 C 232 193 239 217 245 241 C 251 265 257 288 263 311 C 268 334 272 355 276 374 C 278 383 281 391 286 397 C 291 403 299 406 311 406 C 324 406 334 403 342 397 C 350 391 354 384 354 375 Z" unicode="" />
<glyph horiz-adv-x="448" d="M 329 234 C 313 234 300 228 292 218 C 283 207 276 195 271 182 C 291 138 315 117 341 117 C 354 117 365 122 373 132 C 381 142 386 154 386 167 C 386 185 381 200 371 214 C 361 227 347 234 329 234 Z M 197 124 C 189 104 178 87 164 73 C 150 59 133 52 115 52 C 89 52 68 62 52 84 C 35 105 27 134 27 170 C 27 208 38 237 60 259 C 82 281 110 292 145 292 C 162 292 180 287 198 277 C 216 267 234 248 252 220 C 258 239 268 256 283 270 C 297 284 314 292 334 292 C 360 292 381 281 397 260 C 413 238 422 210 422 175 C 422 136 411 106 389 84 C 367 62 339 52 305 52 C 287 52 269 57 251 67 C 233 77 215 96 197 124 Z M 121 110 C 136 110 148 115 157 125 C 166 135 173 147 179 162 C 157 205 133 227 109 227 C 95 227 83 221 75 211 C 67 201 63 190 63 178 C 63 160 67 144 77 130 C 87 116 101 110 121 110 Z" unicode="" />
<glyph horiz-adv-x="288" d="M 293 353 C 293 341 289 331 282 322 C 274 313 266 309 256 309 C 248 309 240 313 230 321 C 220 329 211 340 202 352 C 190 344 181 334 175 321 C 169 308 165 293 163 277 L 138 88 C 132 52 124 21 113 -2 C 101 -26 88 -46 72 -61 C 56 -76 40 -87 22 -94 C 4 -100 -14 -104 -32 -104 C -47 -104 -59 -100 -68 -93 C -77 -86 -82 -77 -82 -66 C -82 -52 -78 -42 -70 -36 C -62 -30 -53 -27 -41 -27 C -33 -27 -24 -29 -13 -34 C -1 -38 8 -45 17 -53 C 22 -45 26 -39 30 -33 C 34 -27 36 -18 38 -6 L 72 238 C 76 260 83 280 94 298 C 104 316 117 332 132 346 C 146 359 163 369 181 377 C 199 384 217 388 237 388 C 257 388 272 384 280 377 C 288 370 293 362 293 353 Z" unicode="" />
<glyph horiz-adv-x="320" d="M 306 159 C 301 147 296 136 290 125 C 284 113 277 103 271 95 C 265 86 258 79 251 74 C 244 68 237 66 231 66 C 223 66 214 66 202 68 C 190 70 178 72 166 74 C 154 76 142 78 131 80 C 119 82 110 83 104 83 C 98 83 91 81 85 77 C 78 73 72 65 66 54 L 45 70 C 51 98 61 121 75 137 C 89 153 102 161 116 161 C 123 161 132 160 144 158 C 156 156 168 153 180 151 C 192 149 204 147 215 145 C 226 143 235 142 243 142 C 250 142 256 144 261 148 C 266 152 272 159 280 171 L 306 159 Z M 306 298 C 301 286 296 275 290 264 C 284 252 277 242 271 234 C 265 225 258 218 251 213 C 244 207 237 205 231 205 C 223 205 214 205 202 207 C 190 209 178 211 166 213 C 154 215 142 217 131 219 C 119 221 110 222 104 222 C 98 222 91 220 85 216 C 78 212 72 204 66 193 L 45 209 C 51 237 61 260 75 276 C 89 292 102 300 116 300 C 123 300 132 299 144 297 C 156 295 168 292 180 290 C 192 288 204 286 215 284 C 226 282 235 281 243 281 C 250 281 256 283 261 287 C 266 291 272 298 280 310 L 306 298 Z" unicode="" />
<glyph horiz-adv-x="352" d="M 32 79 L 32 140 L 132 140 L 170 212 L 32 212 L 32 272 L 201 272 L 235 337 L 280 320 L 255 272 L 320 272 L 320 212 L 223 212 L 186 140 L 320 140 L 320 79 L 154 79 L 119 12 L 74 27 L 101 79 L 32 79 Z" unicode="" />
<glyph horiz-adv-x="352" d="M 47 158 L 47 230 L 305 321 L 305 255 L 113 194 L 305 132 L 305 16 L 47 16 L 47 77 L 274 77 L 47 158 Z" unicode="" />
<glyph horiz-adv-x="352" d="M 47 16 L 47 132 L 239 193 L 47 255 L 47 321 L 305 229 L 305 157 L 78 77 L 305 77 L 305 16 L 47 16 Z" unicode="" />
<glyph horiz-adv-x="336" d="M 20 189 L 143 393 L 187 393 L 310 189 L 188 -15 L 143 -15 L 20 189 Z M 170 70 L 242 190 L 168 308 L 96 187 L 170 70 Z" unicode="" />
<glyph horiz-adv-x="400" d="M 428 185 C 392 181 365 175 347 169 C 329 163 314 156 302 148 C 305 136 310 124 318 112 C 325 99 333 86 343 74 L 335 67 C 323 76 310 84 298 92 C 285 99 273 104 262 107 C 258 100 254 93 251 86 C 248 78 245 70 242 60 C 239 50 236 38 234 25 C 231 11 228 -4 226 -22 L 212 -22 C 208 13 203 40 197 60 C 191 80 184 95 177 107 C 165 103 152 98 140 91 C 128 83 116 75 105 66 L 97 73 C 105 85 113 97 121 110 C 128 122 133 135 137 148 C 125 156 109 163 90 169 C 71 175 45 181 11 185 L 11 198 C 45 202 71 207 90 213 C 108 219 124 227 136 235 C 132 247 126 259 119 271 C 112 283 104 295 95 306 L 104 315 C 128 295 151 281 175 275 C 191 293 204 337 212 405 L 226 405 C 231 369 236 342 242 322 C 247 302 254 287 264 276 C 274 279 286 284 298 291 C 310 298 323 306 335 316 L 342 307 C 333 296 325 284 318 272 C 310 260 305 247 302 235 C 313 227 328 220 347 214 C 365 207 392 202 428 198 L 428 185 Z" unicode="" />
<glyph horiz-adv-x="438" d="M 492 365 C 492 353 489 344 484 336 C 478 328 472 325 464 325 C 448 325 430 338 410 364 C 398 362 388 355 379 343 C 369 330 365 311 365 286 L 365 275 L 433 275 L 433 235 L 365 235 L 365 97 C 365 73 367 58 371 50 C 375 42 384 37 396 36 L 425 33 L 425 0 L 230 0 L 230 33 L 242 34 C 247 34 252 36 257 38 C 261 40 265 43 269 48 C 272 52 275 58 277 66 C 279 74 280 84 280 97 L 280 235 L 151 235 L 151 97 C 151 73 153 58 157 50 C 161 42 170 37 182 36 L 201 33 L 201 0 L 16 0 L 16 33 L 28 34 C 33 34 38 36 43 38 C 47 40 51 43 55 48 C 58 52 61 58 63 66 C 65 74 66 84 66 97 L 66 235 L 16 235 L 16 267 L 66 275 L 66 280 C 66 301 71 320 82 336 C 92 352 106 365 122 375 C 138 385 155 393 174 399 C 193 404 211 407 229 407 C 261 407 278 393 278 365 C 278 353 275 344 270 336 C 264 328 258 325 250 325 C 234 325 216 338 196 364 C 184 362 174 355 165 343 C 155 330 151 311 151 286 L 151 275 L 280 275 L 280 280 C 280 301 285 320 296 336 C 306 352 320 365 336 375 C 352 385 369 393 388 399 C 407 404 425 407 443 407 C 475 407 492 393 492 365 Z" unicode="" />
<glyph horiz-adv-x="426" d="M 234 0 L 234 32 L 255 34 C 264 35 270 39 273 46 C 275 53 277 68 277 92 L 277 191 C 277 205 275 214 272 220 C 268 226 262 230 252 232 L 240 235 L 151 235 L 151 92 C 151 68 152 52 154 46 C 156 39 162 35 172 34 L 193 32 L 193 0 L 16 0 L 16 33 L 28 34 C 33 34 38 36 43 38 C 47 40 51 43 55 48 C 58 52 61 58 63 66 C 65 74 66 84 66 97 L 66 235 L 16 235 L 16 267 L 66 275 L 66 280 C 66 301 71 320 82 336 C 92 352 106 365 123 375 C 140 385 159 393 179 399 C 199 404 220 407 240 407 C 265 407 284 402 298 393 C 311 384 318 371 318 355 C 318 340 313 329 305 321 C 297 313 286 310 273 310 C 265 310 256 313 244 321 C 232 328 223 342 216 364 C 195 362 179 354 168 342 C 156 330 151 311 151 286 L 151 275 L 297 275 L 348 283 L 362 276 L 362 84 C 362 62 364 49 368 44 C 372 38 380 35 392 34 L 417 32 L 417 0 L 234 0 Z" unicode="" />
<glyph horiz-adv-x="420" d="M 234 0 L 234 32 L 248 33 C 254 33 260 34 264 36 C 268 38 271 41 273 45 C 275 49 276 54 276 62 C 276 69 277 79 277 92 L 277 315 C 277 332 271 345 260 353 C 248 361 236 365 222 365 C 198 365 181 358 169 346 C 157 334 151 314 151 286 L 151 275 L 219 275 L 219 235 L 151 235 L 151 97 C 151 73 151 57 152 49 C 153 40 160 35 172 34 L 193 32 L 193 0 L 16 0 L 16 33 L 28 34 C 33 34 38 36 43 38 C 47 40 51 43 55 48 C 58 52 61 58 63 66 C 65 74 66 84 66 97 L 66 235 L 16 235 L 16 267 L 66 275 L 66 280 C 66 303 71 323 82 339 C 92 355 106 368 123 378 C 139 388 158 395 179 400 C 200 404 221 407 241 407 C 269 407 294 403 316 396 L 353 409 L 362 402 L 362 92 C 362 70 364 55 369 47 C 373 39 381 34 393 33 L 412 32 L 412 0 L 234 0 Z" unicode="" />
<glyph horiz-adv-x="640" d="M 448 0 L 448 32 L 469 34 C 478 35 484 39 487 46 C 489 53 491 68 491 92 L 491 191 C 491 205 489 214 486 220 C 482 226 476 230 466 232 L 454 235 L 365 235 L 365 92 C 365 68 366 52 368 46 C 370 39 376 35 386 34 L 407 32 L 407 0 L 238 0 L 238 33 L 250 34 C 258 34 265 39 271 47 C 277 55 280 71 280 97 L 280 235 L 151 235 L 151 97 C 151 73 152 57 156 49 C 160 41 166 36 174 35 L 193 33 L 193 0 L 16 0 L 16 33 L 28 34 C 33 34 38 36 43 38 C 47 40 51 43 55 48 C 58 52 61 58 63 66 C 65 74 66 84 66 97 L 66 235 L 16 235 L 16 267 L 66 275 L 66 280 C 66 301 71 320 82 336 C 92 352 106 365 122 375 C 138 385 155 393 174 399 C 193 404 211 407 229 407 C 261 407 278 393 278 365 C 278 353 275 344 270 336 C 264 328 258 325 250 325 C 234 325 216 338 196 364 C 184 362 174 355 165 343 C 155 330 151 311 151 286 L 151 275 L 280 275 L 280 280 C 280 301 285 320 296 336 C 306 352 320 365 337 375 C 354 385 373 393 393 399 C 413 404 434 407 454 407 C 479 407 498 402 512 393 C 525 384 532 371 532 355 C 532 340 527 329 519 321 C 511 313 500 310 487 310 C 479 310 470 313 458 321 C 446 328 437 342 430 364 C 409 362 393 354 382 342 C 370 330 365 311 365 286 L 365 275 L 511 275 L 562 283 L 576 276 L 576 84 C 576 62 578 49 582 44 C 586 38 594 35 606 34 L 631 32 L 631 0 L 448 0 Z" unicode="" />
<glyph horiz-adv-x="634" d="M 278 365 C 278 353 275 344 270 336 C 264 328 258 325 250 325 C 234 325 216 338 196 364 C 184 362 174 355 165 343 C 155 330 151 311 151 286 L 151 275 L 280 275 L 280 280 C 280 303 285 323 296 339 C 306 355 320 368 337 378 C 353 388 372 395 393 400 C 414 404 435 407 455 407 C 483 407 508 403 530 396 L 567 409 L 576 402 L 576 92 C 576 70 578 55 583 47 C 587 39 595 34 607 33 L 626 32 L 626 0 L 448 0 L 448 32 L 462 33 C 468 33 474 34 478 36 C 482 38 485 41 487 45 C 489 49 490 54 490 62 C 490 69 491 79 491 92 L 491 315 C 491 332 485 345 474 353 C 462 361 450 365 436 365 C 412 365 395 358 383 346 C 371 334 365 314 365 286 L 365 275 L 433 275 L 433 235 L 365 235 L 365 97 C 365 73 365 57 366 49 C 367 40 374 35 386 34 L 407 32 L 407 0 L 238 0 L 238 33 L 250 34 C 258 34 265 39 271 47 C 277 55 280 71 280 97 L 280 235 L 151 235 L 151 97 C 151 73 152 57 156 49 C 160 41 166 36 174 35 L 193 33 L 193 0 L 16 0 L 16 33 L 28 34 C 33 34 38 36 43 38 C 47 40 51 43 55 48 C 58 52 61 58 63 66 C 65 74 66 84 66 97 L 66 235 L 16 235 L 16 267 L 66 275 L 66 280 C 66 301 71 320 82 336 C 92 352 106 365 122 375 C 138 385 155 393 174 399 C 193 404 211 407 229 407 C 261 407 278 393 278 365 Z" unicode="" />
</font>
</defs>
</svg>
