<?xml version="1.0" encoding="utf-8"?>
<!-- Generator: Adobe Illustrator 19.1.0, SVG Export Plug-In . SVG Version: 6.00 Build 0)  -->
<!DOCTYPE svg PUBLIC "-//W3C//DTD SVG 1.1//EN" "http://www.w3.org/Graphics/SVG/1.1/DTD/svg11.dtd">
<svg version="1.1" xmlns="http://www.w3.org/2000/svg" xmlns:xlink="http://www.w3.org/1999/xlink" x="0px" y="0px"
	 viewBox="0 0 300 200" style="enable-background:new 0 0 300 200;" xml:space="preserve">
<style type="text/css">
	.st0{display:none;}
	.st1{fill:#A17A94;}
	.st2{fill:#B96569;}
	.st3{fill:#CA7A68;}
	.st4{fill:#76909F;}
	.st5{fill:#B1AE68;}
	.st6{fill:#999999;}
	.st7{fill:#CF995A;}
	.st8{fill:#9C8F68;}
	.st9{fill:#6F9A7C;}
	.st10{fill:#FFFFFF;}
</style>
<g id="gray_icon_linework" class="st0">
</g>
<g id="BGs">
	<path class="st7" d="M276,200H24c-13.255,0-24-10.745-24-24V24C0,10.745,10.745,0,24,0h252c13.255,0,24,10.745,24,24v152
		C300,189.255,289.255,200,276,200z"/>
</g>
<g id="Layer_1">
	<g id="atv">
	</g>
	<g id="silo">
	</g>
	<g id="skid-loader">
	</g>
	<g id="landscape">
	</g>
	<g id="tractor">
	</g>
	<g id="livestock">
	</g>
	<g id="truck">
	</g>
	<g id="other">
		<path class="st10" d="M98.352,153.643c-31.141,0-56.385-25.033-56.385-56.174s25.244-56.385,56.385-56.385
			c5.234,0,10.301,0.713,15.11,2.047l0.214,0.066l117.745,31.612l0.113,0.033c16.151,5.244,27.827,20.416,27.827,38.314
			c0,22.243-18.032,40.486-40.275,40.486H98.352z"/>
		<g>
			<path class="st7" d="M218.917,143.42c-16.778,0-30.428-13.652-30.428-30.431s13.649-30.431,30.428-30.431
				s30.431,13.652,30.431,30.431S235.695,143.42,218.917,143.42z M218.917,100.459c-6.908,0-12.528,5.62-12.528,12.531
				s5.62,12.531,12.528,12.531c6.911,0,12.531-5.62,12.531-12.531S225.827,100.459,218.917,100.459z"/>
		</g>
		<path class="st7" d="M98.351,85.909c-6.375,0-11.56,5.186-11.56,11.56s5.186,11.56,11.56,11.56c6.375,0,11.56-5.186,11.56-11.56
			S104.726,85.909,98.351,85.909z"/>
		<path class="st7" d="M144.307,103.51V91.428h-7.315c-0.435-2.792-1.156-5.485-2.15-8.05l6.33-3.654L135.13,69.26l-6.325,3.652
			c-1.752-2.168-3.727-4.143-5.895-5.895l3.651-6.325l-10.464-6.041l-3.654,6.329c-2.565-0.994-5.258-1.715-8.05-2.15v-7.315H92.311
			v7.315c-2.792,0.435-5.485,1.156-8.051,2.15l-3.654-6.328l-10.464,6.041l3.651,6.324c-2.168,1.752-4.144,3.727-5.896,5.895
			l-6.323-3.651l-6.041,10.464l6.328,3.653c-0.995,2.566-1.715,5.259-2.151,8.051h-7.313v12.083h7.313
			c0.435,2.792,1.156,5.486,2.151,8.051l-6.327,3.653l6.041,10.464l6.322-3.65c1.752,2.168,3.728,4.144,5.896,5.896l-3.65,6.323
			l10.464,6.041l3.653-6.328c2.566,0.994,5.259,1.715,8.051,2.15v7.314h12.082v-7.314c2.792-0.436,5.485-1.156,8.051-2.151
			l3.654,6.328l10.464-6.041l-3.651-6.324c2.168-1.752,4.143-3.727,5.895-5.896l6.324,3.651l6.041-10.464l-6.329-3.654
			c0.994-2.565,1.715-5.258,2.15-8.05H144.307z M98.351,118.726c-11.721,0-21.256-9.536-21.256-21.256s9.536-21.256,21.256-21.256
			s21.256,9.536,21.256,21.256S110.072,118.726,98.351,118.726z"/>
	</g>
</g>
</svg>
