<?xml version="1.0" encoding="utf-8"?>
<!-- Generator: Adobe Illustrator 19.1.0, SVG Export Plug-In . SVG Version: 6.00 Build 0)  -->
<!DOCTYPE svg PUBLIC "-//W3C//DTD SVG 1.1//EN" "http://www.w3.org/Graphics/SVG/1.1/DTD/svg11.dtd">
<svg version="1.1" xmlns="http://www.w3.org/2000/svg" xmlns:xlink="http://www.w3.org/1999/xlink" x="0px" y="0px"
	 viewBox="0 0 300 200" style="enable-background:new 0 0 300 200;" xml:space="preserve">
<style type="text/css">
	.st0{display:none;}
	.st1{fill:#A17A94;}
	.st2{fill:#B96569;}
	.st3{fill:#CA7A68;}
	.st4{fill:#76909F;}
	.st5{fill:#B1AE68;}
	.st6{fill:#999999;}
	.st7{fill:#CF995A;}
	.st8{fill:#9C8F68;}
	.st9{fill:#6F9A7C;}
	.st10{fill:#FFFFFF;}
</style>
<g id="gray_icon_linework" class="st0">
</g>
<g id="BGs">
	<path class="st2" d="M276,200H24c-13.255,0-24-10.745-24-24V24C0,10.745,10.745,0,24,0h252c13.255,0,24,10.745,24,24v152
		C300,189.255,289.255,200,276,200z"/>
</g>
<g id="Layer_1">
	<g id="atv">
	</g>
	<g id="silo">
	</g>
	<g id="skid-loader">
	</g>
	<g id="landscape">
	</g>
	<g id="tractor">
		<path class="st10" d="M110.141,84.605c-0.731,0-1.472-0.178-2.158-0.554c-2.18-1.194-2.979-3.929-1.785-6.109l10.351-18.896
			c1.194-2.18,3.929-2.98,6.109-1.785c2.18,1.194,2.979,3.929,1.785,6.109l-10.351,18.896
			C113.273,83.76,111.731,84.605,110.141,84.605z"/>
		<path class="st10" d="M59.925,102.785c-4.464,0-8.337-3.319-8.917-7.863l-5.378-42.2c-0.628-4.931,2.859-9.437,7.79-10.065
			c4.934-0.632,9.438,2.859,10.065,7.79l5.378,42.2c0.628,4.931-2.859,9.437-7.79,10.065
			C60.687,102.761,60.304,102.785,59.925,102.785z"/>
		<g>
			<path class="st10" d="M244.608,121.584c-19.023,0-34.5,15.477-34.5,34.5s15.477,34.5,34.5,34.5s34.5-15.477,34.5-34.5
				S263.632,121.584,244.608,121.584z"/>
			<path class="st2" d="M244.608,169.584c-7.444,0-13.5-6.056-13.5-13.5s6.056-13.5,13.5-13.5s13.5,6.056,13.5,13.5
				S252.052,169.584,244.608,169.584z"/>
		</g>
		<g>
			<path class="st10" d="M77.087,79.584c-30.603,0-55.5,24.897-55.5,55.5s24.897,55.5,55.5,55.5s55.5-24.897,55.5-55.5
				S107.69,79.584,77.087,79.584z"/>
			<path class="st2" d="M77.334,169.831c-19.023,0-34.5-15.477-34.5-34.5s15.477-34.5,34.5-34.5s34.5,15.477,34.5,34.5
				S96.357,169.831,77.334,169.831z"/>
			<path class="st10" d="M77.334,118.831c-9.098,0-16.5,7.402-16.5,16.5s7.402,16.5,16.5,16.5s16.5-7.402,16.5-16.5
				S86.432,118.831,77.334,118.831z"/>
		</g>
		<path class="st10" d="M247.31,69.084h-10.951V57.435c2.688-1.557,4.5-4.457,4.5-7.786V33.924c0-3.329-1.812-6.229-4.5-7.786
			v-7.548c0-4.962-4.038-9-9-9h-7.117v9h7.117v7.548c-2.688,1.557-4.5,4.457-4.5,7.786v15.725c0,3.329,1.812,6.229,4.5,7.786v11.649
			h-89.645c-4.95,0-9.929,2.311-13.799,9l-5.209,9.768c12.952,11.539,21.155,28.293,21.155,47.004c0,2.102-0.113,4.178-0.314,6.227
			h65.87c6.044-15.778,21.289-27,39.193-27c4.065,0,7.983,0.608,11.701,1.685V78.084C256.31,73.134,252.26,69.084,247.31,69.084z"/>
		<path class="st2" d="M181.232,106.084c-2.209,0-4-1.791-4-4v-18c0-2.209,1.791-4,4-4s4,1.791,4,4v18
			C185.232,104.293,183.441,106.084,181.232,106.084z"/>
		<path class="st2" d="M196.232,106.084c-2.209,0-4-1.791-4-4v-18c0-2.209,1.791-4,4-4s4,1.791,4,4v18
			C200.232,104.293,198.441,106.084,196.232,106.084z"/>
		<path class="st2" d="M211.232,106.084c-2.209,0-4-1.791-4-4v-18c0-2.209,1.791-4,4-4s4,1.791,4,4v18
			C215.232,104.293,213.441,106.084,211.232,106.084z"/>
	</g>
	<g id="livestock">
	</g>
	<g id="truck">
	</g>
	<g id="other">
	</g>
</g>
</svg>
