<?xml version="1.0" encoding="utf-8"?>
<!-- Generator: Adobe Illustrator 19.1.0, SVG Export Plug-In . SVG Version: 6.00 Build 0)  -->
<!DOCTYPE svg PUBLIC "-//W3C//DTD SVG 1.1//EN" "http://www.w3.org/Graphics/SVG/1.1/DTD/svg11.dtd">
<svg version="1.1" xmlns="http://www.w3.org/2000/svg" xmlns:xlink="http://www.w3.org/1999/xlink" x="0px" y="0px"
	 viewBox="0 0 300 200" style="enable-background:new 0 0 300 200;" xml:space="preserve">
<style type="text/css">
	.st0{fill:#999999;}
	.st1{fill:#FFFFFF;}
</style>
<g id="BGs">
	<path class="st0" d="M276,200H24c-13.255,0-24-10.745-24-24V24C0,10.745,10.745,0,24,0h252c13.255,0,24,10.745,24,24v152
		C300,189.255,289.255,200,276,200z"/>
</g>
<g id="Layer_1">
</g>
<g id="all_100_people">
</g>
<g id="_x33_3_people_top_rows">
</g>
<g id="_x33_3_people_side_rows">
	<g>
		<path class="st1" d="M63.068,115.789v57.012h13.568v-63.578h9.056V68.746c0-6.716-5.219-12.184-11.936-12.184H48.769
			c-6.716,0-12.387,5.467-12.387,12.184v40.477h9.056v63.578h13.568v-57.012H63.068z"/>
		<circle class="st1" cx="61.263" cy="40.42" r="13.221"/>
		<circle class="st1" cx="61.263" cy="40.42" r="13.221"/>
		<path class="st1" d="M122.376,115.789v57.012h13.568v-63.578H145V68.746c0-6.716-5.219-12.184-11.936-12.184h-24.986
			c-6.716,0-12.387,5.467-12.387,12.184v40.477h9.056v63.578h13.568v-57.012H122.376z"/>
		<circle class="st1" cx="120.571" cy="40.42" r="13.221"/>
		<circle class="st1" cx="120.571" cy="40.42" r="13.221"/>
		<path class="st1" d="M181.685,115.789v57.012h13.568v-63.578h9.056V68.746c0-6.716-5.219-12.184-11.936-12.184h-24.986
			c-6.716,0-12.387,5.467-12.387,12.184v40.477h9.056v63.578h13.568v-57.012H181.685z"/>
		<circle class="st1" cx="179.88" cy="40.42" r="13.221"/>
		<circle class="st1" cx="179.88" cy="40.42" r="13.221"/>
		<path class="st1" d="M240.994,115.789v57.012h13.568v-63.578h9.056V68.746c0-6.716-5.219-12.184-11.936-12.184h-24.986
			c-6.716,0-12.387,5.467-12.387,12.184v40.477h9.056v63.578h13.568v-57.012H240.994z"/>
		<circle class="st1" cx="239.189" cy="40.42" r="13.221"/>
		<circle class="st1" cx="239.189" cy="40.42" r="13.221"/>
	</g>
</g>
</svg>
