<?xml version="1.0" encoding="utf-8" ?><svg version="1.1" xmlns = 'http://www.w3.org/2000/svg'><defs><font id='web' horiz-adv-x="1000">
<font-face font-family="web" descent="-557" cap-height="1319" units-per-em="2048" bbox="-109,-557,2154,1827" x-height="864" ascent="1475" />
<missing-glyph horiz-adv-x="410" d="" /><glyph horiz-adv-x="410" d="" unicode=" " />
<glyph horiz-adv-x="627" d="M 440 1130 L 356 352 L 283 352 L 199 1130 L 199 1352 L 440 1352 L 440 1130 Z M 440 100 C 440 83 436 67 430 53 C 424 38 415 25 405 15 C 394 4 381 -4 366 -10 C 351 -16 335 -20 319 -20 C 302 -20 286 -16 272 -10 C 257 -4 244 4 234 15 C 223 25 214 38 208 53 C 202 67 199 83 199 100 C 199 116 202 132 208 147 C 214 162 223 175 234 186 C 244 196 257 205 272 211 C 286 217 302 221 319 221 C 335 221 351 217 366 211 C 381 205 394 196 405 186 C 415 175 424 162 430 147 C 436 132 440 116 440 100 Z" unicode="!" />
<glyph horiz-adv-x="655" d="M 569 1270 L 508 926 L 459 926 L 397 1270 L 397 1438 L 569 1438 L 569 1270 Z M 258 1270 L 197 926 L 147 926 L 86 1270 L 86 1438 L 258 1438 L 258 1270 Z" unicode="&#x22;" />
<glyph horiz-adv-x="1184" d="M 1079 918 L 1067 821 L 860 821 L 817 496 L 1024 496 L 1012 399 L 805 399 L 754 0 L 655 0 L 707 399 L 410 399 L 358 0 L 260 0 L 311 399 L 104 399 L 117 496 L 324 496 L 367 821 L 160 821 L 172 918 L 379 918 L 430 1319 L 528 1319 L 477 918 L 774 918 L 825 1319 L 924 1319 L 872 918 L 1079 918 Z M 762 821 L 465 821 L 422 496 L 719 496 L 762 821 Z" unicode="#" />
<glyph horiz-adv-x="1128" d="M 1001 377 C 1001 315 990 261 970 215 C 949 169 921 130 885 98 C 849 66 808 42 760 24 C 712 6 662 -4 608 -10 L 608 -176 L 510 -176 L 510 -14 C 428 -14 356 -5 292 10 C 228 26 177 45 137 66 C 135 108 134 150 133 192 C 132 209 131 227 131 246 C 131 265 130 284 130 302 C 129 320 128 338 128 356 C 128 373 127 389 127 403 L 197 412 L 236 186 C 254 166 274 149 296 135 C 318 121 341 109 365 100 C 389 91 413 84 438 80 C 462 75 486 72 510 72 L 510 575 C 464 593 418 611 372 631 C 326 651 285 675 249 705 C 213 734 183 770 161 814 C 138 857 127 911 127 977 C 127 1031 137 1079 158 1121 C 178 1163 206 1200 241 1230 C 276 1260 317 1284 363 1302 C 409 1320 458 1331 510 1335 L 510 1483 L 608 1483 L 608 1335 C 648 1333 685 1329 720 1323 C 755 1317 787 1311 815 1305 C 843 1298 867 1291 887 1284 C 907 1276 923 1270 934 1266 L 915 952 L 848 952 L 819 1167 C 794 1185 765 1202 732 1218 C 699 1234 658 1245 608 1251 L 608 768 C 638 755 669 742 701 730 C 732 718 762 704 792 689 C 821 674 848 657 874 638 C 899 619 921 597 940 573 C 958 548 973 519 984 487 C 995 455 1001 418 1001 377 Z M 510 811 L 510 1253 C 485 1250 462 1244 440 1236 C 418 1228 399 1216 383 1200 C 367 1184 354 1163 344 1139 C 334 1114 330 1085 330 1051 C 330 1019 334 991 344 967 C 353 943 366 921 382 902 C 398 883 417 866 439 851 C 461 836 484 823 510 811 Z M 791 301 C 791 331 786 357 777 381 C 767 405 754 426 738 444 C 721 462 702 479 680 494 C 658 508 634 522 608 535 L 608 78 C 641 82 669 91 693 104 C 716 117 735 133 749 152 C 763 171 774 193 781 218 C 787 243 791 271 791 301 Z" unicode="$" />
<glyph horiz-adv-x="1546" d="M 684 981 C 684 931 677 884 664 840 C 651 795 632 756 607 722 C 581 688 550 660 513 640 C 475 620 432 610 383 610 C 333 610 290 620 253 640 C 215 660 184 688 159 722 C 133 756 114 795 101 840 C 88 884 82 931 82 981 C 82 1030 88 1077 101 1122 C 114 1166 133 1206 159 1240 C 184 1274 215 1301 253 1321 C 290 1341 333 1352 383 1352 C 432 1352 475 1341 513 1321 C 550 1301 581 1274 607 1240 C 632 1206 651 1166 664 1122 C 677 1077 684 1030 684 981 Z M 1223 1309 L 397 -41 L 319 8 L 1145 1358 L 1223 1309 Z M 1464 338 C 1464 288 1457 241 1444 197 C 1431 152 1412 113 1387 79 C 1361 45 1330 17 1293 -2 C 1255 -22 1212 -33 1163 -33 C 1113 -33 1070 -22 1033 -2 C 995 17 964 45 939 79 C 913 113 894 152 881 197 C 868 241 862 288 862 338 C 862 387 868 434 881 479 C 894 523 913 563 939 597 C 964 631 995 658 1033 678 C 1070 698 1113 709 1163 709 C 1212 709 1255 698 1293 678 C 1330 658 1361 631 1387 597 C 1412 563 1431 523 1444 479 C 1457 434 1464 387 1464 338 Z M 506 981 C 506 1018 504 1055 500 1093 C 496 1130 490 1163 481 1193 C 471 1223 459 1247 443 1266 C 427 1284 407 1294 383 1294 C 358 1294 338 1284 322 1266 C 306 1247 294 1223 285 1193 C 275 1163 269 1130 265 1093 C 261 1055 260 1018 260 981 C 260 943 261 906 265 869 C 269 831 275 798 285 768 C 294 738 306 714 322 696 C 338 677 358 668 383 668 C 407 668 427 677 443 696 C 459 714 471 738 481 768 C 490 798 496 831 500 869 C 504 906 506 943 506 981 Z M 1286 338 C 1286 375 1284 412 1280 450 C 1276 487 1270 520 1261 550 C 1252 580 1240 604 1224 623 C 1208 641 1187 651 1163 651 C 1138 651 1118 641 1102 623 C 1086 604 1074 580 1065 550 C 1055 520 1049 487 1045 450 C 1041 412 1040 375 1040 338 C 1040 300 1041 263 1045 226 C 1049 188 1055 155 1065 125 C 1074 95 1086 71 1102 53 C 1118 34 1138 25 1163 25 C 1187 25 1208 34 1224 53 C 1240 71 1252 95 1261 125 C 1270 155 1276 188 1280 226 C 1284 263 1286 300 1286 338 Z" unicode="%" />
<glyph horiz-adv-x="1325" d="M 1325 0 L 1014 0 L 864 162 C 850 140 831 118 808 96 C 784 73 757 52 725 33 C 693 13 656 -2 616 -14 C 576 -26 531 -33 483 -33 C 417 -33 357 -23 305 -5 C 253 13 209 39 173 73 C 137 106 109 146 90 192 C 70 238 61 288 61 344 C 61 392 69 435 86 474 C 102 513 124 548 151 579 C 178 609 209 636 244 659 C 278 681 314 701 350 717 C 304 762 268 811 242 864 C 216 917 203 976 203 1040 C 203 1086 212 1129 230 1167 C 248 1205 272 1238 303 1266 C 334 1293 371 1314 413 1329 C 455 1344 501 1352 549 1352 C 592 1352 633 1346 673 1335 C 712 1323 746 1306 776 1283 C 806 1260 829 1231 847 1196 C 865 1161 874 1120 874 1073 C 874 1027 865 988 848 956 C 830 924 808 896 781 872 C 754 848 725 827 693 810 C 661 793 630 778 600 764 L 922 418 L 985 657 L 834 682 L 834 748 L 1288 748 L 1288 682 L 1116 657 L 981 354 L 1229 88 L 1325 57 L 1325 0 Z M 698 1090 C 698 1148 684 1194 657 1228 C 630 1261 594 1278 549 1278 C 525 1278 504 1273 486 1263 C 468 1253 452 1240 440 1223 C 427 1206 417 1186 411 1164 C 404 1141 401 1116 401 1090 C 401 1066 403 1043 409 1022 C 414 1001 422 980 434 958 C 446 936 461 914 480 890 C 499 866 523 841 551 813 C 581 832 605 853 624 875 C 643 897 658 919 669 943 C 680 967 688 991 692 1016 C 696 1040 698 1065 698 1090 Z M 811 219 L 403 659 C 385 646 368 631 353 614 C 337 596 324 577 313 555 C 301 533 293 508 287 482 C 281 456 278 427 279 397 C 279 350 286 308 300 271 C 314 234 333 203 357 177 C 381 151 409 132 443 118 C 476 104 513 98 553 98 C 616 98 668 109 709 132 C 750 155 784 184 811 219 Z" unicode="&#x26;" />
<glyph horiz-adv-x="385" d="M 279 1270 L 217 926 L 168 926 L 106 1270 L 106 1438 L 279 1438 L 279 1270 Z" unicode="'" />
<glyph horiz-adv-x="735" d="M 649 -403 L 606 -459 C 531 -407 463 -345 402 -275 C 340 -205 288 -128 244 -45 C 200 37 166 125 142 218 C 118 311 106 406 106 502 C 106 598 118 692 142 785 C 166 877 200 965 244 1048 C 288 1130 340 1207 402 1277 C 463 1347 531 1408 606 1460 L 649 1403 C 590 1351 538 1289 494 1218 C 449 1147 412 1072 382 992 C 352 912 329 830 314 746 C 298 662 291 580 291 502 C 291 422 298 340 314 256 C 329 172 352 89 382 9 C 412 -71 449 -147 494 -218 C 538 -289 590 -351 649 -403 Z" unicode="(" />
<glyph horiz-adv-x="735" d="M 629 502 C 629 406 617 311 593 218 C 569 125 535 37 491 -45 C 447 -128 394 -205 333 -275 C 271 -345 203 -407 129 -459 L 86 -403 C 144 -351 196 -289 241 -218 C 285 -147 323 -71 353 9 C 383 89 405 172 421 256 C 436 340 444 422 444 502 C 444 580 436 662 421 746 C 405 830 383 912 353 992 C 323 1072 285 1147 241 1218 C 196 1289 144 1351 86 1403 L 129 1460 C 203 1408 271 1347 333 1277 C 394 1207 447 1130 491 1048 C 535 965 569 877 593 785 C 617 692 629 598 629 502 Z" unicode=")" />
<glyph horiz-adv-x="913" d="M 831 850 L 754 719 L 680 762 L 475 948 L 532 676 L 532 592 L 381 592 L 381 676 L 438 948 L 233 762 L 158 719 L 82 850 L 158 893 L 420 979 L 158 1065 L 82 1108 L 158 1239 L 233 1196 L 438 1010 L 381 1282 L 381 1368 L 532 1368 L 532 1282 L 475 1010 L 680 1196 L 754 1239 L 831 1108 L 756 1065 L 494 979 L 756 893 L 831 850 Z" unicode="*" />
<glyph horiz-adv-x="1241" d="M 1094 553 L 680 553 L 680 117 L 561 117 L 561 553 L 147 553 L 147 664 L 561 664 L 561 1100 L 680 1100 L 680 664 L 1094 664 L 1094 553 Z" unicode="+" />
<glyph horiz-adv-x="500" d="M 414 27 C 414 -15 408 -53 397 -86 C 385 -119 369 -148 347 -173 C 325 -198 299 -219 267 -237 C 235 -255 198 -270 158 -283 L 119 -205 C 145 -197 169 -187 193 -177 C 216 -166 236 -153 254 -139 C 271 -124 285 -107 295 -87 C 305 -67 311 -43 311 -16 L 121 49 C 115 57 109 67 105 79 C 100 91 98 104 98 119 C 98 133 100 148 106 162 C 112 176 120 189 131 201 C 142 213 155 222 171 229 C 187 236 205 240 225 240 C 253 240 278 234 302 222 C 325 210 345 195 362 175 C 378 155 391 133 400 107 C 409 81 414 55 414 27 Z" unicode="," />
<glyph horiz-adv-x="614" d="M 532 463 L 82 410 L 82 537 L 532 590 L 532 463 Z" unicode="-" />
<glyph horiz-adv-x="500" d="M 385 119 C 385 100 381 82 374 66 C 367 50 357 35 345 23 C 333 11 318 1 302 -5 C 286 -12 268 -16 250 -16 C 231 -16 213 -12 197 -5 C 181 1 166 11 154 23 C 142 35 132 50 125 66 C 118 82 115 100 115 119 C 115 137 118 155 125 171 C 132 187 142 202 154 214 C 166 226 181 236 197 243 C 213 250 231 254 250 254 C 268 254 286 250 302 243 C 318 236 333 226 345 214 C 357 202 367 187 374 171 C 381 155 385 137 385 119 Z" unicode="." />
<glyph horiz-adv-x="631" d="M 571 1348 L 182 -102 L 59 -102 L 449 1348 L 571 1348 Z" unicode="/" />
<glyph horiz-adv-x="1081" d="M 1008 659 C 1008 601 1003 544 995 488 C 987 432 974 378 958 327 C 941 275 920 228 894 184 C 868 140 838 102 804 70 C 769 38 730 12 686 -5 C 642 -23 594 -33 541 -33 C 487 -33 439 -23 395 -5 C 351 12 312 38 278 70 C 243 102 213 140 187 184 C 161 228 140 275 124 327 C 107 378 94 432 86 488 C 78 544 74 601 74 659 C 74 716 78 773 86 830 C 94 886 107 940 124 992 C 140 1043 161 1091 187 1135 C 213 1179 243 1217 278 1249 C 312 1281 351 1306 395 1324 C 439 1342 487 1352 541 1352 C 594 1352 642 1342 686 1324 C 730 1306 769 1281 804 1249 C 838 1217 868 1179 894 1135 C 920 1091 941 1043 958 992 C 974 940 987 886 995 830 C 1003 773 1008 716 1008 659 Z M 770 659 C 770 709 768 760 765 810 C 762 860 757 907 750 953 C 743 999 734 1041 723 1080 C 711 1119 697 1153 680 1182 C 663 1210 643 1233 620 1249 C 597 1265 571 1274 541 1274 C 511 1274 484 1265 461 1249 C 437 1233 417 1210 400 1182 C 383 1153 369 1119 358 1080 C 346 1041 337 999 330 953 C 323 907 318 860 315 810 C 312 760 311 709 311 659 C 311 608 312 558 315 508 C 318 458 323 410 330 365 C 337 319 346 277 358 238 C 369 199 383 165 400 137 C 417 108 437 85 461 69 C 484 53 511 45 541 45 C 571 45 597 53 620 69 C 643 85 663 108 680 137 C 697 165 711 199 723 238 C 734 277 743 319 750 365 C 757 410 762 458 765 508 C 768 558 770 608 770 659 Z" unicode="0" />
<glyph horiz-adv-x="840" d="M 809 0 L 109 0 L 109 66 L 348 94 L 348 1163 L 70 1139 L 70 1200 L 537 1327 L 569 1327 L 569 94 L 809 66 L 809 0 Z" unicode="1" />
<glyph horiz-adv-x="1012" d="M 944 342 L 907 0 L 53 0 L 45 78 L 346 381 C 410 446 463 505 505 557 C 546 609 578 658 602 704 C 626 750 642 796 651 840 C 659 884 664 931 664 981 C 664 1019 658 1055 648 1088 C 637 1120 622 1148 602 1171 C 582 1194 557 1212 528 1225 C 499 1238 466 1245 430 1245 C 397 1245 367 1239 340 1229 C 312 1219 287 1204 265 1186 C 243 1168 223 1146 205 1120 C 187 1094 172 1066 158 1036 L 74 1094 C 92 1132 114 1166 140 1198 C 165 1230 194 1257 227 1279 C 259 1301 296 1319 338 1331 C 379 1343 425 1350 477 1350 C 538 1350 595 1342 647 1327 C 699 1311 743 1289 781 1259 C 819 1229 848 1191 869 1146 C 890 1101 901 1049 901 991 C 901 937 892 888 875 844 C 858 800 833 755 799 710 C 765 665 724 617 674 567 C 624 517 567 459 502 395 L 297 193 L 297 184 L 815 184 L 870 354 L 944 342 Z" unicode="2" />
<glyph horiz-adv-x="967" d="M 899 375 C 899 307 886 247 860 195 C 834 143 799 100 754 66 C 709 32 656 6 595 -11 C 534 -28 468 -37 397 -37 C 364 -37 331 -34 298 -28 C 264 -22 232 -14 202 -4 C 172 5 144 17 118 31 C 92 45 69 60 51 76 L 96 168 C 132 139 173 114 220 94 C 266 73 319 63 377 63 C 423 63 464 70 500 84 C 536 98 566 118 590 145 C 614 171 633 203 646 241 C 659 279 666 321 666 369 C 666 409 658 446 642 479 C 626 512 606 540 580 563 C 554 586 523 604 489 616 C 455 628 419 635 381 635 C 337 635 290 629 242 618 L 229 729 C 288 729 341 734 389 745 C 436 755 476 772 509 796 C 541 819 566 850 584 888 C 601 926 610 972 610 1026 C 610 1066 604 1100 593 1128 C 582 1156 567 1179 549 1197 C 530 1215 508 1228 483 1236 C 457 1244 431 1249 403 1249 C 345 1249 295 1234 255 1204 C 214 1174 181 1134 156 1085 L 78 1151 C 100 1185 124 1214 150 1239 C 175 1263 203 1284 234 1301 C 264 1317 298 1330 334 1338 C 370 1346 411 1350 455 1350 C 502 1350 549 1344 595 1332 C 641 1320 682 1302 718 1276 C 754 1250 783 1217 805 1177 C 827 1137 838 1088 838 1032 C 838 995 831 959 818 924 C 804 889 785 857 760 828 C 734 799 703 774 667 753 C 631 731 590 716 545 707 L 545 702 C 593 697 639 686 682 669 C 725 652 763 630 795 602 C 827 574 852 540 871 502 C 889 464 899 421 899 375 Z" unicode="3" />
<glyph horiz-adv-x="1042" d="M 1024 512 L 993 369 L 801 369 L 801 -29 L 592 -29 L 592 369 L 43 369 L 10 459 L 666 1348 L 801 1333 L 801 512 L 1024 512 Z M 592 512 L 592 1098 L 168 512 L 592 512 Z" unicode="4" />
<glyph horiz-adv-x="971" d="M 899 403 C 899 330 886 266 861 212 C 835 157 800 111 755 74 C 710 37 657 9 595 -9 C 533 -27 465 -37 393 -37 C 359 -37 325 -34 291 -28 C 257 -22 225 -14 194 -4 C 163 5 134 18 107 33 C 80 48 57 65 37 84 L 82 176 C 121 140 167 112 220 92 C 273 72 330 63 391 63 C 431 63 468 70 502 84 C 536 98 565 118 590 145 C 614 171 633 203 647 241 C 661 279 668 321 668 369 C 668 421 659 466 643 504 C 626 542 603 574 573 599 C 543 624 506 643 464 655 C 421 667 374 674 322 674 C 294 674 263 672 229 669 C 194 666 161 661 129 655 L 193 1319 L 844 1319 L 823 1122 L 272 1122 L 242 784 C 270 790 300 796 332 800 C 363 804 400 807 442 807 C 504 807 563 798 619 781 C 675 764 723 739 765 705 C 806 671 839 628 863 578 C 887 528 899 469 899 403 Z" unicode="5" />
<glyph horiz-adv-x="1059" d="M 1004 428 C 1004 368 993 310 973 254 C 952 198 922 149 882 107 C 842 65 792 31 733 5 C 674 -20 606 -33 530 -33 C 451 -33 382 -16 324 16 C 265 49 216 94 178 150 C 139 206 110 272 91 346 C 72 420 63 499 63 582 C 63 708 82 819 120 917 C 158 1015 212 1097 282 1164 C 352 1230 437 1281 537 1316 C 637 1350 748 1368 872 1368 L 872 1274 C 782 1274 705 1260 640 1234 C 574 1207 519 1170 473 1123 C 427 1075 391 1019 365 953 C 338 887 319 815 307 737 C 340 773 382 802 433 825 C 483 848 540 860 602 860 C 664 860 720 849 770 827 C 820 805 862 775 897 737 C 931 699 958 653 976 601 C 994 548 1004 490 1004 428 Z M 768 403 C 768 463 761 516 748 560 C 735 604 718 641 696 670 C 674 698 649 719 621 733 C 593 747 563 754 532 754 C 484 754 440 743 401 721 C 361 699 329 671 305 635 C 303 624 301 609 300 591 C 299 573 299 558 299 547 C 299 508 300 469 304 429 C 307 389 312 351 320 314 C 328 277 338 242 351 210 C 363 177 379 148 398 124 C 417 99 439 80 465 66 C 490 52 519 45 553 45 C 583 45 611 53 637 69 C 663 85 686 108 706 139 C 725 169 740 207 751 251 C 762 295 768 346 768 403 Z" unicode="6" />
<glyph horiz-adv-x="922" d="M 930 1243 L 555 422 L 395 -25 L 158 -25 L 774 1130 L 170 1130 L 115 965 L 41 975 L 94 1319 L 930 1319 L 930 1243 Z" unicode="7" />
<glyph horiz-adv-x="1073" d="M 1010 360 C 1010 316 1003 276 990 240 C 976 204 958 171 935 141 C 912 111 885 86 854 64 C 823 42 790 23 754 8 C 718 -6 682 -17 644 -25 C 606 -33 568 -37 532 -37 C 475 -37 419 -29 363 -14 C 307 0 256 23 212 53 C 168 83 132 122 104 168 C 76 214 63 269 63 332 C 63 376 72 416 90 452 C 108 488 132 520 161 549 C 190 577 222 602 257 623 C 292 643 326 660 360 674 C 331 688 302 706 274 728 C 246 749 220 774 198 802 C 176 830 158 861 144 896 C 130 930 123 968 123 1010 C 123 1063 134 1111 156 1154 C 178 1196 209 1233 247 1263 C 285 1293 330 1316 382 1332 C 433 1348 487 1356 545 1356 C 605 1356 660 1348 710 1333 C 760 1318 802 1297 838 1269 C 874 1241 901 1208 921 1169 C 940 1129 950 1086 950 1038 C 950 1000 941 964 925 932 C 908 899 887 870 863 844 C 838 818 811 795 782 776 C 753 756 726 741 702 731 C 742 711 780 689 817 665 C 854 641 887 615 916 585 C 944 555 967 522 984 485 C 1001 448 1010 406 1010 360 Z M 745 1028 C 745 1072 739 1109 727 1140 C 715 1171 700 1197 680 1217 C 660 1237 638 1251 612 1260 C 586 1269 560 1274 532 1274 C 506 1274 482 1270 458 1262 C 434 1254 414 1242 396 1226 C 378 1209 363 1187 352 1161 C 341 1135 336 1103 336 1067 C 336 1037 343 1010 358 984 C 373 958 394 933 421 909 C 447 885 478 863 514 841 C 549 819 587 797 629 776 C 642 787 655 801 669 818 C 683 835 695 854 707 876 C 718 898 727 921 734 947 C 741 973 745 1000 745 1028 Z M 780 301 C 780 337 770 370 750 401 C 730 431 705 460 673 486 C 641 512 604 537 562 561 C 520 584 478 607 434 629 C 384 591 347 547 324 497 C 300 447 289 398 289 350 C 289 306 295 265 308 229 C 320 192 338 160 361 134 C 384 108 411 87 442 73 C 473 58 507 51 545 51 C 577 51 607 56 635 66 C 663 76 688 91 710 111 C 731 131 748 157 761 189 C 773 220 780 257 780 301 Z" unicode="8" />
<glyph horiz-adv-x="1055" d="M 991 737 C 991 610 972 498 934 400 C 896 302 841 220 771 154 C 701 87 616 36 516 2 C 416 -31 305 -49 182 -49 L 182 45 C 271 45 348 58 414 84 C 480 110 535 147 581 195 C 626 243 662 299 689 365 C 716 431 736 503 748 582 C 714 546 672 516 621 493 C 570 470 514 459 453 459 C 390 459 334 469 284 491 C 234 513 192 543 158 581 C 123 619 96 665 78 718 C 60 770 51 828 51 891 C 51 951 61 1008 81 1064 C 101 1119 132 1168 172 1211 C 212 1253 261 1287 320 1313 C 379 1339 447 1352 524 1352 C 602 1352 671 1335 730 1302 C 788 1269 837 1224 876 1168 C 914 1112 943 1046 962 972 C 981 898 991 819 991 737 Z M 756 772 C 756 829 752 887 744 947 C 736 1006 722 1060 703 1109 C 683 1157 657 1197 625 1228 C 592 1258 551 1274 502 1274 C 472 1274 443 1266 417 1250 C 391 1234 368 1210 349 1180 C 329 1149 314 1111 303 1067 C 292 1022 287 971 287 915 C 287 854 293 802 306 758 C 318 714 335 677 357 649 C 379 620 404 599 432 585 C 460 571 490 565 522 565 C 570 565 613 575 653 597 C 692 619 724 648 750 684 C 752 694 753 709 754 727 C 755 745 756 760 756 772 Z" unicode="9" />
<glyph horiz-adv-x="578" d="M 424 729 C 424 710 420 692 413 676 C 405 660 395 645 383 633 C 371 621 356 611 340 604 C 324 597 307 594 289 594 C 270 594 252 597 236 604 C 220 611 205 621 193 633 C 181 645 171 660 164 676 C 157 692 154 710 154 729 C 154 747 157 765 164 781 C 171 797 181 812 193 824 C 205 836 220 846 236 853 C 252 860 270 864 289 864 C 307 864 324 860 340 853 C 356 846 371 836 383 824 C 395 812 405 797 413 781 C 420 765 424 747 424 729 Z M 424 119 C 424 100 420 82 413 66 C 405 50 395 35 383 23 C 371 11 356 1 340 -5 C 324 -12 307 -16 289 -16 C 270 -16 252 -12 236 -5 C 220 1 205 11 193 23 C 181 35 171 50 164 66 C 157 82 154 100 154 119 C 154 137 157 155 164 171 C 171 187 181 202 193 214 C 205 226 220 236 236 243 C 252 250 270 254 289 254 C 307 254 324 250 340 243 C 356 236 371 226 383 214 C 395 202 405 187 413 171 C 420 155 424 137 424 119 Z" unicode=":" />
<glyph horiz-adv-x="578" d="M 424 729 C 424 710 420 692 413 676 C 405 660 395 645 383 633 C 371 621 356 611 340 604 C 324 597 307 594 289 594 C 270 594 252 597 236 604 C 220 611 205 621 193 633 C 181 645 171 660 164 676 C 157 692 154 710 154 729 C 154 747 157 765 164 781 C 171 797 181 812 193 824 C 205 836 220 846 236 853 C 252 860 270 864 289 864 C 307 864 324 860 340 853 C 356 846 371 836 383 824 C 395 812 405 797 413 781 C 420 765 424 747 424 729 Z M 451 27 C 451 -15 445 -53 434 -86 C 422 -119 406 -148 384 -173 C 362 -198 335 -219 303 -237 C 271 -255 235 -270 195 -283 L 156 -205 C 182 -197 206 -187 230 -177 C 253 -166 273 -153 291 -139 C 308 -124 322 -107 332 -87 C 342 -67 348 -43 348 -16 L 158 49 C 151 57 145 67 141 79 C 137 91 135 104 135 119 C 135 133 137 148 143 162 C 149 176 157 189 168 201 C 179 213 192 222 208 229 C 224 236 242 240 262 240 C 290 240 315 234 339 222 C 362 210 382 195 399 175 C 415 155 428 133 437 107 C 446 81 451 55 451 27 Z" unicode=";" />
<glyph horiz-adv-x="1241" d="M 1069 90 L 123 561 L 123 643 L 1069 1114 L 1069 983 L 293 602 L 1069 221 L 1069 90 Z" unicode="&#x3C;" />
<glyph horiz-adv-x="1241" d="M 1094 733 L 147 733 L 147 844 L 1094 844 L 1094 733 Z M 1094 371 L 147 371 L 147 481 L 1094 481 L 1094 371 Z" unicode="=" />
<glyph horiz-adv-x="1241" d="M 1118 561 L 172 90 L 172 221 L 948 602 L 172 983 L 172 1114 L 1118 643 L 1118 561 Z" unicode="&#x3E;" />
<glyph horiz-adv-x="897" d="M 827 913 C 827 843 815 782 792 728 C 769 674 738 628 698 590 C 658 552 612 521 559 499 C 506 477 449 463 389 457 L 389 311 L 291 311 L 291 666 C 345 668 395 675 440 688 C 484 700 523 719 555 745 C 587 770 611 802 629 841 C 646 880 655 927 655 981 C 655 1021 649 1059 638 1093 C 626 1127 610 1157 589 1182 C 567 1206 542 1225 512 1239 C 482 1253 448 1260 410 1260 C 368 1260 327 1249 286 1227 C 245 1205 206 1173 168 1133 L 82 1325 C 96 1333 113 1340 133 1347 C 153 1353 174 1359 197 1364 C 219 1368 242 1372 264 1374 C 286 1376 307 1378 326 1378 C 397 1378 463 1366 525 1343 C 586 1320 639 1288 684 1247 C 728 1206 763 1157 789 1100 C 814 1043 827 981 827 913 Z M 461 100 C 461 83 457 67 451 53 C 445 38 436 25 426 15 C 415 4 402 -4 387 -10 C 372 -16 356 -20 340 -20 C 322 -20 306 -16 292 -10 C 277 -4 264 4 254 15 C 243 25 234 38 228 53 C 222 67 219 83 219 100 C 219 116 222 132 228 147 C 234 162 243 175 254 186 C 264 196 277 205 292 211 C 306 217 322 221 340 221 C 356 221 372 217 387 211 C 402 205 415 196 426 186 C 436 175 445 162 451 147 C 457 132 461 116 461 100 Z" unicode="?" />
<glyph horiz-adv-x="1645" d="M 1563 637 C 1563 561 1552 490 1531 426 C 1510 362 1480 306 1440 260 C 1400 213 1350 176 1292 150 C 1234 124 1167 111 1092 111 C 1075 111 1055 113 1033 117 C 1010 121 991 127 977 135 L 977 338 C 969 306 956 276 940 249 C 923 221 903 197 881 177 C 859 156 834 140 806 128 C 778 116 749 111 719 111 C 683 111 650 118 621 133 C 592 148 567 168 547 194 C 526 219 510 248 499 281 C 488 314 483 349 483 385 C 483 448 492 509 510 569 C 528 628 554 680 588 726 C 622 772 663 808 712 836 C 760 863 815 877 877 877 C 891 877 905 875 920 873 C 935 870 950 866 964 861 C 978 856 991 850 1004 843 C 1016 835 1027 827 1036 819 L 1044 850 L 1190 864 L 1214 864 L 1157 434 C 1155 426 1154 415 1153 403 C 1152 390 1151 377 1150 364 C 1149 351 1148 338 1148 326 C 1147 313 1147 303 1147 295 L 1147 188 C 1197 188 1243 199 1285 222 C 1326 245 1361 276 1390 316 C 1419 356 1441 402 1457 454 C 1473 506 1481 562 1481 621 C 1481 706 1466 781 1437 846 C 1407 911 1367 965 1316 1009 C 1264 1053 1204 1086 1135 1108 C 1065 1130 991 1141 911 1141 C 815 1141 728 1123 649 1087 C 569 1051 501 1001 444 939 C 386 877 342 803 310 719 C 278 634 262 543 262 446 C 262 350 276 262 306 182 C 336 102 378 34 432 -23 C 486 -80 550 -125 626 -157 C 701 -189 785 -205 877 -205 C 959 -205 1039 -193 1117 -169 C 1195 -145 1266 -111 1329 -68 L 1358 -121 C 1278 -172 1196 -211 1111 -239 C 1025 -267 933 -281 834 -281 C 727 -281 629 -263 539 -228 C 449 -193 371 -144 306 -82 C 240 -20 189 54 153 140 C 116 226 98 320 98 422 C 98 496 107 566 127 634 C 146 702 173 765 209 823 C 244 881 286 934 336 982 C 386 1030 441 1070 502 1104 C 562 1138 628 1164 699 1182 C 769 1200 843 1210 920 1210 C 1010 1210 1095 1196 1174 1169 C 1252 1142 1320 1104 1378 1054 C 1435 1004 1480 944 1513 874 C 1546 803 1563 724 1563 637 Z M 1024 764 C 1006 781 988 793 970 800 C 952 807 930 811 905 811 C 863 811 828 797 799 771 C 769 745 745 711 727 670 C 708 628 694 582 685 531 C 676 480 672 430 672 381 C 672 321 680 273 698 239 C 716 205 742 188 776 188 C 801 188 826 197 850 217 C 874 236 896 263 916 298 C 936 332 954 373 969 421 C 983 469 994 521 1001 578 L 1024 764 Z" unicode="@" />
<glyph horiz-adv-x="1294" d="M 1290 0 L 756 0 L 756 61 L 922 86 L 801 418 L 344 418 L 225 90 L 387 61 L 387 0 L 4 0 L 4 61 L 115 90 L 588 1327 L 700 1327 L 1180 86 L 1290 61 L 1290 0 Z M 768 508 L 571 1042 L 377 508 L 768 508 Z" unicode="A" />
<glyph horiz-adv-x="1217" d="M 1151 369 C 1151 311 1139 260 1117 214 C 1094 168 1061 130 1017 98 C 973 66 918 42 853 25 C 788 8 713 0 629 0 L 78 0 L 78 61 L 238 86 L 238 1233 L 78 1257 L 78 1319 L 641 1319 C 700 1319 755 1313 806 1301 C 857 1289 901 1271 938 1247 C 975 1223 1004 1191 1025 1153 C 1046 1115 1057 1069 1057 1016 C 1057 972 1049 933 1035 899 C 1020 864 1000 834 975 808 C 949 782 920 761 886 744 C 852 727 817 715 780 709 L 780 702 C 828 698 875 689 920 675 C 964 661 1004 640 1038 614 C 1072 587 1100 553 1120 513 C 1140 473 1151 425 1151 369 Z M 813 997 C 813 1075 791 1136 749 1178 C 707 1220 647 1241 571 1241 C 557 1241 542 1240 524 1238 C 506 1236 489 1235 475 1233 L 475 729 L 545 729 C 587 729 624 735 657 747 C 690 759 718 777 741 800 C 764 823 782 851 794 885 C 806 918 813 955 813 997 Z M 901 356 C 901 398 894 436 881 472 C 867 508 847 538 821 564 C 795 590 762 610 722 625 C 682 639 636 647 584 647 C 578 647 570 646 560 646 C 550 646 539 645 529 645 C 519 645 509 644 499 644 C 489 644 481 643 475 643 L 475 94 C 485 91 495 89 507 87 C 519 85 531 83 543 82 C 555 80 568 79 580 79 C 592 78 604 78 614 78 C 662 78 704 84 740 98 C 776 111 806 130 830 154 C 854 178 871 207 883 241 C 895 275 901 314 901 356 Z" unicode="B" />
<glyph horiz-adv-x="1286" d="M 1212 182 C 1147 110 1074 57 994 23 C 914 -11 821 -29 717 -29 C 621 -29 533 -12 453 19 C 373 51 304 97 246 157 C 188 217 142 288 110 372 C 77 456 61 549 61 651 C 61 753 77 847 111 933 C 144 1018 191 1091 252 1153 C 312 1214 385 1262 469 1296 C 553 1330 646 1348 748 1348 C 814 1348 876 1343 935 1333 C 994 1323 1050 1307 1102 1286 L 1126 1348 L 1206 1348 L 1186 952 L 1108 952 L 1073 1137 C 1031 1179 982 1211 927 1231 C 872 1251 807 1262 731 1262 C 668 1262 612 1247 562 1218 C 512 1189 470 1148 436 1096 C 401 1043 374 980 356 907 C 337 834 328 754 328 666 C 328 590 337 516 355 446 C 373 375 401 312 437 258 C 473 203 517 159 571 127 C 624 94 686 78 756 78 C 836 78 910 92 978 122 C 1046 151 1105 195 1157 254 L 1212 182 Z" unicode="C" />
<glyph horiz-adv-x="1430" d="M 1368 676 C 1368 573 1351 480 1319 397 C 1287 314 1241 243 1182 184 C 1122 125 1051 80 967 48 C 883 16 790 0 688 0 L 78 0 L 78 61 L 238 86 L 238 1233 L 78 1257 L 78 1319 L 678 1319 C 778 1319 870 1304 955 1275 C 1039 1245 1112 1203 1173 1148 C 1234 1092 1282 1025 1316 945 C 1350 865 1368 776 1368 676 Z M 1102 657 C 1102 743 1091 821 1071 893 C 1051 965 1020 1026 979 1078 C 938 1129 887 1169 825 1198 C 763 1226 690 1241 606 1241 C 581 1241 559 1240 540 1239 C 520 1238 500 1236 479 1233 L 479 94 C 495 88 515 84 539 82 C 563 79 585 78 606 78 C 688 78 760 92 822 120 C 884 148 935 187 977 238 C 1018 289 1049 350 1070 421 C 1091 492 1102 571 1102 657 Z" unicode="D" />
<glyph horiz-adv-x="1167" d="M 1077 0 L 78 0 L 78 61 L 238 86 L 238 1233 L 78 1257 L 78 1319 L 1047 1319 L 1047 1016 L 961 1016 L 932 1229 L 479 1229 L 479 727 L 797 727 L 817 868 L 891 868 L 891 496 L 817 496 L 797 637 L 479 637 L 479 94 L 958 94 L 987 324 L 1077 324 L 1077 0 Z" unicode="E" />
<glyph horiz-adv-x="1114" d="M 1047 1016 L 961 1016 L 932 1229 L 479 1229 L 479 711 L 797 711 L 817 852 L 891 852 L 891 479 L 817 479 L 797 621 L 479 621 L 479 86 L 680 61 L 680 0 L 78 0 L 78 61 L 238 86 L 238 1233 L 78 1257 L 78 1319 L 1047 1319 L 1047 1016 Z" unicode="F" />
<glyph horiz-adv-x="1393" d="M 1327 489 L 1247 457 L 1247 98 C 1222 81 1192 65 1156 50 C 1120 34 1081 21 1037 9 C 993 -2 946 -11 896 -18 C 845 -25 793 -29 739 -29 C 637 -29 544 -13 460 18 C 376 49 305 94 246 152 C 187 210 141 281 109 365 C 77 448 61 542 61 647 C 61 751 78 847 113 933 C 147 1019 196 1092 258 1154 C 320 1215 395 1263 481 1297 C 567 1331 662 1348 766 1348 C 794 1348 825 1346 858 1344 C 890 1341 923 1337 956 1332 C 988 1326 1020 1319 1051 1311 C 1081 1303 1109 1293 1135 1282 L 1159 1348 L 1235 1348 L 1219 952 L 1141 952 L 1106 1137 C 1010 1220 896 1262 764 1262 C 686 1262 619 1246 564 1214 C 509 1182 464 1138 429 1083 C 394 1028 368 964 352 890 C 336 816 328 737 328 653 C 328 565 338 485 358 413 C 378 341 407 278 446 226 C 485 174 533 133 590 104 C 647 75 712 61 786 61 C 805 61 825 62 846 65 C 866 68 886 72 906 78 C 925 83 943 89 960 97 C 977 104 992 112 1006 121 L 1006 457 L 807 481 L 807 547 L 1327 547 L 1327 489 Z" unicode="G" />
<glyph horiz-adv-x="1532" d="M 1454 0 L 885 0 L 885 61 L 1053 86 L 1053 641 L 479 641 L 479 86 L 647 61 L 647 0 L 78 0 L 78 61 L 238 86 L 238 1233 L 78 1257 L 78 1319 L 647 1319 L 647 1257 L 479 1233 L 479 731 L 1053 731 L 1053 1233 L 885 1257 L 885 1319 L 1454 1319 L 1454 1257 L 1294 1233 L 1294 86 L 1454 61 L 1454 0 Z" unicode="H" />
<glyph horiz-adv-x="721" d="M 641 0 L 80 0 L 80 61 L 240 86 L 240 1233 L 80 1257 L 80 1319 L 641 1319 L 641 1257 L 481 1233 L 481 86 L 641 61 L 641 0 Z" unicode="I" />
<glyph horiz-adv-x="692" d="M 639 1257 L 479 1233 L 479 184 C 479 112 469 50 449 -3 C 429 -57 401 -102 363 -138 C 325 -174 279 -201 225 -219 C 170 -237 107 -246 37 -246 L -4 -246 L -23 -172 C 28 -172 70 -165 104 -153 C 138 -140 164 -121 184 -95 C 204 -69 218 -37 226 2 C 234 41 238 87 238 141 L 238 1233 L 78 1257 L 78 1319 L 639 1319 L 639 1257 Z" unicode="J" />
<glyph horiz-adv-x="1352" d="M 1348 0 L 999 0 L 530 608 L 479 608 L 479 86 L 631 61 L 631 0 L 78 0 L 78 61 L 238 86 L 238 1233 L 78 1257 L 78 1319 L 631 1319 L 631 1257 L 479 1233 L 479 686 L 508 686 L 1008 1237 L 887 1257 L 887 1319 L 1284 1319 L 1284 1257 L 1145 1233 L 707 754 L 1233 90 L 1348 61 L 1348 0 Z" unicode="K" />
<glyph horiz-adv-x="1114" d="M 1069 0 L 78 0 L 78 61 L 238 86 L 238 1233 L 78 1257 L 78 1319 L 659 1319 L 659 1257 L 479 1233 L 479 94 L 948 94 L 979 336 L 1069 336 L 1069 0 Z" unicode="L" />
<glyph horiz-adv-x="1819" d="M 1772 0 L 1212 0 L 1212 61 L 1372 86 L 1317 1104 L 872 0 L 807 0 L 358 1098 L 307 90 L 467 61 L 467 0 L 45 0 L 45 61 L 205 90 L 268 1229 L 104 1257 L 104 1319 L 524 1319 L 918 346 L 1305 1319 L 1710 1319 L 1710 1257 L 1544 1233 L 1612 86 L 1772 61 L 1772 0 Z" unicode="M" />
<glyph horiz-adv-x="1444" d="M 1411 1257 L 1251 1229 L 1251 -12 L 1155 -12 L 326 1030 L 326 90 L 485 61 L 485 0 L 59 0 L 59 61 L 219 90 L 219 1161 L 150 1245 L 59 1262 L 59 1319 L 399 1319 L 1145 383 L 1145 1229 L 985 1257 L 985 1319 L 1411 1319 L 1411 1257 Z" unicode="N" />
<glyph horiz-adv-x="1462" d="M 1397 670 C 1397 565 1379 470 1345 384 C 1311 298 1263 225 1203 164 C 1143 102 1072 55 990 21 C 908 -12 819 -29 725 -29 C 631 -29 543 -13 463 18 C 382 49 312 94 254 153 C 195 211 149 282 116 366 C 82 450 66 544 66 649 C 66 753 83 848 118 934 C 152 1020 200 1093 260 1155 C 320 1216 391 1263 473 1297 C 555 1331 643 1348 737 1348 C 831 1348 918 1332 999 1300 C 1079 1268 1149 1223 1208 1165 C 1267 1106 1313 1035 1347 951 C 1380 867 1397 774 1397 670 Z M 1130 649 C 1130 744 1119 829 1099 905 C 1079 981 1051 1045 1015 1098 C 979 1151 936 1192 886 1220 C 836 1248 783 1262 725 1262 C 667 1262 613 1249 565 1223 C 517 1197 475 1159 441 1109 C 406 1059 379 997 360 923 C 341 849 332 765 332 670 C 332 574 342 489 362 413 C 382 337 411 273 447 220 C 483 167 525 127 575 99 C 625 71 679 57 737 57 C 795 57 849 70 897 96 C 945 122 986 160 1021 210 C 1055 260 1082 321 1101 395 C 1120 469 1130 553 1130 649 Z" unicode="O" />
<glyph horiz-adv-x="1151" d="M 1102 969 C 1102 904 1090 845 1068 791 C 1045 737 1011 690 966 651 C 921 611 865 581 798 559 C 731 537 653 526 565 526 C 560 526 554 526 547 526 C 539 526 531 527 523 527 C 515 527 507 528 499 528 C 491 528 484 529 479 530 L 479 86 L 659 61 L 659 0 L 78 0 L 78 61 L 238 86 L 238 1233 L 78 1257 L 78 1319 L 641 1319 C 707 1319 769 1310 825 1294 C 881 1278 930 1254 971 1224 C 1012 1194 1044 1157 1067 1114 C 1090 1071 1102 1023 1102 969 Z M 848 956 C 848 998 841 1036 829 1071 C 816 1106 798 1136 775 1161 C 752 1186 724 1206 692 1220 C 660 1234 624 1241 586 1241 C 565 1241 547 1240 531 1239 C 515 1238 497 1236 479 1233 L 479 610 C 495 608 512 607 529 607 C 545 606 559 606 569 606 C 617 606 658 615 693 633 C 728 651 757 675 780 707 C 803 739 820 776 831 818 C 842 860 848 906 848 956 Z" unicode="P" />
<glyph horiz-adv-x="1462" d="M 1470 -152 L 1294 -418 C 1171 -380 1058 -326 955 -258 C 852 -190 758 -113 674 -27 C 586 -21 504 -2 430 32 C 356 66 292 112 238 170 C 184 228 141 298 111 379 C 81 460 66 550 66 649 C 66 753 83 848 118 934 C 152 1020 200 1093 260 1155 C 320 1216 391 1263 473 1297 C 555 1331 643 1348 737 1348 C 831 1348 918 1332 999 1300 C 1079 1268 1149 1223 1208 1165 C 1267 1106 1313 1035 1347 951 C 1380 867 1397 774 1397 670 C 1397 578 1383 492 1355 414 C 1327 336 1289 267 1240 207 C 1190 147 1131 98 1062 60 C 993 22 918 -2 836 -14 C 869 -36 905 -58 945 -78 C 985 -98 1026 -116 1069 -133 C 1112 -149 1156 -164 1200 -176 C 1244 -188 1287 -197 1329 -203 L 1434 -119 L 1470 -152 Z M 1130 649 C 1130 744 1119 829 1099 905 C 1079 981 1051 1045 1015 1098 C 979 1151 936 1192 886 1220 C 836 1248 783 1262 725 1262 C 667 1262 613 1249 565 1223 C 517 1197 475 1159 441 1109 C 406 1059 379 997 360 923 C 341 849 332 765 332 670 C 332 574 342 489 362 413 C 382 337 411 273 447 220 C 483 167 525 127 575 99 C 625 71 679 57 737 57 C 795 57 849 70 897 96 C 945 122 986 160 1021 210 C 1055 260 1082 321 1101 395 C 1120 469 1130 553 1130 649 Z" unicode="Q" />
<glyph horiz-adv-x="1294" d="M 1290 0 L 965 0 L 602 565 L 477 555 L 477 86 L 641 61 L 641 0 L 78 0 L 78 61 L 238 86 L 238 1233 L 78 1257 L 78 1319 L 641 1319 C 700 1319 757 1313 811 1301 C 865 1289 913 1269 955 1243 C 997 1216 1030 1181 1055 1139 C 1079 1097 1092 1045 1092 985 C 1092 941 1085 899 1071 860 C 1057 821 1037 786 1013 754 C 989 722 961 694 929 670 C 897 646 863 627 827 614 L 1184 94 L 1290 61 L 1290 0 Z M 840 963 C 840 1051 818 1120 774 1168 C 730 1216 666 1241 584 1241 C 565 1241 547 1240 529 1239 C 511 1238 494 1236 477 1233 L 477 643 L 555 643 C 599 643 638 650 674 666 C 709 681 739 703 763 731 C 787 759 806 792 820 832 C 833 871 840 915 840 963 Z" unicode="R" />
<glyph horiz-adv-x="1077" d="M 985 367 C 985 305 973 250 951 201 C 928 152 897 111 858 77 C 819 43 773 16 721 -1 C 668 -19 612 -29 553 -29 C 490 -29 432 -23 380 -13 C 328 -3 275 16 223 45 L 199 -25 L 121 -25 L 109 406 L 190 412 L 233 197 C 249 175 268 155 290 137 C 312 119 335 105 361 93 C 386 81 412 71 440 65 C 467 58 494 55 522 55 C 560 55 595 61 627 74 C 659 86 686 103 708 125 C 730 147 748 172 760 202 C 772 231 778 263 778 297 C 778 329 772 356 762 380 C 752 404 734 426 710 448 C 685 470 652 492 612 514 C 571 536 521 562 461 590 C 407 614 360 640 319 667 C 277 693 242 723 214 756 C 185 788 163 825 149 865 C 134 905 127 952 127 1004 C 127 1059 137 1108 159 1151 C 180 1193 209 1229 245 1259 C 281 1288 324 1310 372 1325 C 420 1340 470 1348 524 1348 C 580 1348 632 1343 680 1333 C 728 1323 775 1307 821 1286 L 846 1343 L 924 1343 L 913 961 L 831 961 L 797 1157 C 767 1195 731 1222 691 1240 C 651 1257 601 1266 543 1266 C 515 1266 488 1261 462 1253 C 436 1244 414 1231 394 1214 C 374 1197 358 1176 346 1152 C 334 1127 328 1099 328 1067 C 328 1037 332 1010 342 988 C 352 965 368 943 392 922 C 416 900 448 878 488 856 C 528 834 579 808 641 780 C 697 754 746 727 789 701 C 832 675 868 646 897 614 C 926 582 948 547 963 507 C 977 467 985 420 985 367 Z" unicode="S" />
<glyph horiz-adv-x="1212" d="M 1180 975 L 1090 975 L 1061 1229 L 727 1229 L 727 86 L 899 61 L 899 0 L 313 0 L 313 61 L 485 86 L 485 1229 L 152 1229 L 123 975 L 33 975 L 33 1319 L 1180 1319 L 1180 975 Z" unicode="T" />
<glyph horiz-adv-x="1405" d="M 1380 1257 L 1229 1229 L 1229 461 C 1229 379 1217 307 1194 246 C 1171 184 1138 133 1094 93 C 1050 52 996 21 932 1 C 868 -18 795 -29 713 -29 C 631 -29 559 -18 495 2 C 431 22 376 53 332 94 C 288 135 254 186 230 247 C 206 308 195 379 195 461 L 195 1233 L 35 1257 L 35 1319 L 596 1319 L 596 1257 L 436 1233 L 436 516 C 436 449 440 389 450 336 C 459 282 476 237 501 199 C 526 161 560 132 604 112 C 647 92 702 82 770 82 C 835 82 890 92 935 112 C 980 132 1016 160 1044 198 C 1072 235 1092 280 1104 333 C 1116 386 1122 446 1122 512 L 1122 1229 L 963 1257 L 963 1319 L 1380 1319 L 1380 1257 Z" unicode="U" />
<glyph horiz-adv-x="1298" d="M 1294 1257 L 1184 1229 L 696 -20 L 614 -20 L 115 1229 L 4 1257 L 4 1319 L 555 1319 L 555 1257 L 379 1233 L 731 317 L 1073 1233 L 903 1257 L 903 1319 L 1294 1319 L 1294 1257 Z" unicode="V" />
<glyph horiz-adv-x="1843" d="M 1839 1257 L 1729 1229 L 1300 -20 L 1219 -20 L 924 838 L 633 -20 L 551 -20 L 115 1229 L 4 1257 L 4 1319 L 535 1319 L 535 1257 L 379 1233 L 664 344 L 872 979 L 782 1233 L 668 1257 L 668 1319 L 1214 1319 L 1214 1257 L 1044 1233 L 1044 1225 L 1331 340 L 1618 1233 L 1448 1257 L 1448 1319 L 1839 1319 L 1839 1257 Z" unicode="W" />
<glyph horiz-adv-x="1315" d="M 1311 0 L 735 0 L 735 61 L 903 86 L 596 557 L 289 86 L 457 61 L 457 0 L 4 0 L 4 61 L 168 90 L 539 643 L 145 1233 L 23 1257 L 23 1319 L 598 1319 L 598 1257 L 430 1233 L 707 803 L 983 1233 L 815 1257 L 815 1319 L 1268 1319 L 1268 1257 L 1104 1229 L 764 717 L 1188 86 L 1311 61 L 1311 0 Z" unicode="X" />
<glyph horiz-adv-x="1225" d="M 1221 1257 L 1110 1229 L 741 549 L 741 86 L 913 61 L 913 0 L 328 0 L 328 61 L 500 86 L 500 520 L 115 1229 L 4 1257 L 4 1319 L 551 1319 L 551 1257 L 381 1233 L 690 645 L 999 1233 L 829 1257 L 829 1319 L 1221 1319 L 1221 1257 Z" unicode="Y" />
<glyph horiz-adv-x="1155" d="M 1112 356 L 1092 0 L 43 0 L 31 33 L 791 1229 L 227 1229 L 197 975 L 106 975 L 106 1319 L 1094 1319 L 1094 1286 L 336 94 L 967 94 L 1022 356 L 1112 356 Z" unicode="Z" />
<glyph horiz-adv-x="700" d="M 598 -430 L 176 -430 L 176 1434 L 598 1434 L 598 1374 L 348 1358 L 348 -354 L 598 -371 L 598 -430 Z" unicode="[" />
<glyph horiz-adv-x="631" d="M 571 -102 L 449 -102 L 59 1348 L 182 1348 L 571 -102 Z" unicode="\" />
<glyph horiz-adv-x="700" d="M 524 -430 L 102 -430 L 102 -371 L 352 -354 L 352 1358 L 102 1374 L 102 1434 L 524 1434 L 524 -430 Z" unicode="]" />
<glyph horiz-adv-x="655" d="M 553 598 L 102 545 L 102 672 L 553 725 L 553 598 Z" unicode="^" />
<glyph horiz-adv-x="1024" d="M 1024 -258 L 0 -258 L 0 -156 L 1024 -156 L 1024 -258 Z" unicode="_" />
<glyph horiz-adv-x="1024" d="M 670 1008 L 627 973 L 270 1278 L 422 1405 L 670 1008 Z" unicode="`" />
<glyph horiz-adv-x="901" d="M 913 70 C 890 40 862 17 829 0 C 795 -16 758 -25 717 -25 C 673 -25 636 -14 606 7 C 575 28 553 58 539 98 C 522 81 505 65 487 50 C 469 35 451 22 431 11 C 411 0 389 -8 367 -15 C 344 -21 319 -25 293 -25 C 259 -25 227 -19 197 -7 C 167 4 140 20 118 40 C 96 60 78 85 65 113 C 51 141 45 173 45 207 C 45 251 53 288 69 320 C 85 351 107 377 135 399 C 163 421 195 438 232 451 C 269 463 308 473 350 481 L 526 512 L 526 647 C 526 670 523 691 518 710 C 512 729 504 745 493 759 C 481 772 466 782 448 790 C 430 797 407 801 381 801 C 333 801 289 787 249 761 C 208 734 174 700 147 659 L 86 725 C 130 782 180 825 236 854 C 291 882 356 897 432 897 C 535 897 613 875 667 831 C 721 787 748 721 748 635 L 748 209 C 748 186 750 167 754 153 C 758 138 763 126 770 118 C 777 109 785 103 795 99 C 805 95 815 94 827 94 C 841 94 854 96 865 101 C 876 106 887 113 897 123 L 913 70 Z M 526 158 L 526 446 L 393 420 C 349 410 313 390 286 359 C 259 328 246 289 246 242 C 246 220 249 200 257 182 C 264 164 274 148 287 135 C 299 121 314 111 332 103 C 349 95 367 92 387 92 C 411 92 436 98 462 110 C 487 122 508 138 526 158 Z" unicode="a" />
<glyph horiz-adv-x="1024" d="M 979 457 C 979 382 966 315 942 255 C 918 195 884 145 840 104 C 796 62 743 30 683 8 C 622 -13 555 -25 483 -25 C 453 -25 422 -23 390 -20 C 358 -17 326 -13 294 -7 C 262 -1 232 5 204 14 C 175 22 149 33 127 45 L 127 1327 L 2 1350 L 2 1407 L 348 1442 L 348 750 C 379 797 417 833 461 857 C 505 881 559 893 623 893 C 669 893 714 883 757 864 C 800 844 838 816 871 779 C 904 742 930 696 950 642 C 969 588 979 526 979 457 Z M 750 438 C 750 484 746 528 739 570 C 731 612 719 649 702 681 C 685 713 663 738 636 757 C 608 776 575 786 535 786 C 493 786 456 774 423 750 C 390 726 365 692 348 649 L 348 92 C 368 76 393 65 422 59 C 450 52 479 49 508 49 C 547 49 582 60 612 82 C 642 104 668 133 688 170 C 708 206 724 248 734 294 C 744 340 750 388 750 438 Z" unicode="b" />
<glyph horiz-adv-x="889" d="M 848 133 C 821 102 794 76 767 56 C 739 36 711 20 681 8 C 651 -4 620 -12 588 -17 C 555 -22 520 -25 483 -25 C 421 -25 363 -14 310 7 C 256 28 210 58 171 98 C 131 138 100 186 78 243 C 56 300 45 364 45 436 C 45 500 56 561 80 617 C 103 673 135 721 176 762 C 216 802 264 834 320 858 C 376 881 436 893 502 893 C 522 893 542 892 564 890 C 585 888 606 885 627 881 C 647 876 667 870 686 863 C 705 855 723 846 739 834 L 766 889 L 821 889 L 807 612 L 737 612 C 723 683 700 737 666 773 C 632 809 582 827 516 827 C 481 827 449 817 420 799 C 391 781 366 755 345 722 C 324 689 308 650 296 604 C 284 558 279 508 279 453 C 279 395 285 343 298 297 C 311 250 329 210 353 177 C 377 144 405 119 437 101 C 469 83 505 74 545 74 C 594 74 640 84 682 104 C 724 124 763 153 797 193 L 848 133 Z" unicode="c" />
<glyph horiz-adv-x="1049" d="M 1026 14 L 692 -16 L 692 129 L 690 129 C 664 83 630 45 588 17 C 546 -10 494 -25 432 -25 C 382 -25 334 -15 288 2 C 242 20 201 48 165 84 C 129 120 100 165 78 219 C 56 273 45 336 45 408 C 45 478 55 543 76 603 C 97 663 126 714 163 757 C 200 799 244 833 295 857 C 346 881 401 893 461 893 C 508 893 551 886 590 872 C 629 858 659 838 680 813 L 680 1327 L 547 1350 L 547 1407 L 901 1442 L 901 92 L 1026 72 L 1026 14 Z M 680 217 L 680 713 C 662 743 640 768 612 787 C 584 805 553 815 518 815 C 472 815 434 803 403 781 C 372 758 347 728 328 692 C 309 655 295 614 287 569 C 278 523 274 478 274 434 C 274 395 277 354 284 312 C 291 270 303 231 319 196 C 335 160 357 131 384 108 C 411 85 445 74 485 74 C 533 74 573 86 605 112 C 637 138 662 173 680 217 Z" unicode="d" />
<glyph horiz-adv-x="928" d="M 874 483 L 281 483 C 279 475 279 465 279 453 C 279 441 279 432 279 426 C 279 379 285 334 297 292 C 309 250 327 212 350 180 C 373 148 401 122 434 103 C 466 83 503 74 543 74 C 573 74 601 77 627 83 C 652 89 675 98 696 109 C 717 120 737 133 755 149 C 773 164 790 181 807 199 L 858 139 C 832 111 807 87 781 67 C 755 46 728 29 699 15 C 669 1 638 -8 604 -15 C 570 -21 532 -25 492 -25 C 426 -25 365 -14 311 7 C 256 29 209 60 170 100 C 130 140 100 188 78 245 C 56 301 45 364 45 434 C 45 500 56 562 80 618 C 103 674 135 722 176 763 C 216 803 264 835 320 858 C 375 881 435 893 500 893 C 559 893 612 884 658 867 C 704 850 744 826 776 794 C 808 762 832 723 849 677 C 865 631 874 579 874 522 L 874 483 Z M 645 555 C 645 587 642 620 638 652 C 634 684 626 714 614 740 C 602 766 585 787 565 803 C 544 819 517 827 485 827 C 453 827 425 818 402 802 C 378 786 359 765 343 739 C 327 713 314 683 305 651 C 295 619 289 587 287 555 L 645 555 Z" unicode="e" />
<glyph horiz-adv-x="637" d="M 766 1430 L 696 1257 C 636 1298 587 1329 549 1350 C 510 1371 483 1382 469 1382 C 457 1382 446 1378 436 1372 C 426 1366 418 1355 412 1340 C 405 1325 400 1306 396 1282 C 392 1258 391 1228 391 1192 L 391 864 L 637 864 L 637 778 L 391 778 L 391 74 L 580 53 L 580 0 L 45 0 L 45 53 L 170 74 L 170 774 L 37 774 L 37 836 L 170 866 L 170 971 C 170 1047 178 1116 195 1178 C 211 1240 236 1293 270 1337 C 303 1381 345 1415 396 1439 C 446 1463 505 1475 573 1475 C 609 1475 642 1471 673 1464 C 704 1457 735 1446 766 1430 Z" unicode="f" />
<glyph horiz-adv-x="944" d="M 940 758 L 717 784 L 715 780 C 747 754 772 723 790 686 C 808 649 817 608 817 563 C 817 515 807 472 788 433 C 769 394 743 360 709 332 C 675 304 635 281 589 265 C 542 248 491 238 436 236 C 404 234 376 229 353 222 C 330 215 311 207 297 197 C 283 187 272 176 266 164 C 259 152 256 140 256 129 C 256 110 261 94 272 82 L 662 43 C 695 39 727 32 757 20 C 787 8 813 -8 835 -28 C 857 -48 875 -72 889 -100 C 902 -128 909 -161 909 -197 C 909 -253 897 -303 873 -347 C 849 -391 815 -429 771 -460 C 727 -491 674 -515 612 -532 C 550 -548 482 -557 408 -557 C 352 -557 300 -551 251 -540 C 202 -529 159 -512 123 -490 C 86 -467 57 -439 36 -405 C 14 -371 4 -331 4 -285 C 4 -257 8 -231 18 -208 C 28 -184 41 -164 58 -146 C 74 -128 93 -112 115 -100 C 137 -87 160 -77 184 -70 C 157 -51 138 -31 128 -9 C 118 13 113 38 113 68 C 113 86 116 104 124 123 C 132 142 143 160 159 177 C 174 193 193 209 216 223 C 238 237 265 248 295 256 L 295 258 C 261 269 230 285 201 305 C 172 325 147 348 125 374 C 103 400 86 430 74 462 C 61 494 55 527 55 563 C 55 609 65 653 85 693 C 105 733 132 768 167 798 C 201 827 242 850 288 867 C 334 884 384 893 436 893 C 473 893 510 888 546 879 C 582 870 615 858 645 842 L 940 897 L 940 758 Z M 592 563 C 592 603 588 639 581 671 C 574 703 564 731 551 754 C 537 777 521 795 502 808 C 482 820 460 827 436 827 C 411 827 389 820 370 808 C 351 795 335 777 322 754 C 308 731 298 703 291 671 C 284 639 281 603 281 563 C 281 523 284 486 291 454 C 298 422 308 394 322 372 C 335 349 351 331 370 319 C 389 307 411 301 436 301 C 460 301 482 307 502 319 C 521 331 537 349 551 372 C 564 394 574 422 581 454 C 588 486 592 523 592 563 Z M 731 -258 C 731 -214 718 -183 693 -164 C 667 -144 630 -132 580 -127 L 227 -92 C 215 -108 204 -131 196 -159 C 188 -187 184 -214 184 -242 C 184 -272 190 -301 202 -331 C 214 -360 232 -386 256 -409 C 280 -432 309 -451 344 -465 C 378 -479 418 -487 463 -487 C 493 -487 524 -481 556 -471 C 588 -461 617 -446 643 -426 C 669 -406 690 -382 706 -354 C 722 -326 731 -294 731 -258 Z" unicode="g" />
<glyph horiz-adv-x="1085" d="M 1069 0 L 600 0 L 600 53 L 723 74 L 723 725 C 713 742 699 756 680 768 C 660 780 635 786 604 786 C 562 786 526 776 497 757 C 468 738 445 712 427 680 C 409 648 397 610 389 568 C 381 526 377 482 377 436 L 377 74 L 500 53 L 500 0 L 31 0 L 31 53 L 156 74 L 156 1327 L 31 1350 L 31 1407 L 377 1442 L 377 694 C 409 760 448 809 495 843 C 542 876 601 893 672 893 C 718 893 758 885 792 871 C 826 857 854 836 877 810 C 899 784 916 752 927 715 C 938 677 944 636 944 590 L 944 74 L 1069 53 L 1069 0 Z" unicode="h" />
<glyph horiz-adv-x="551" d="M 401 1204 C 401 1186 397 1169 390 1153 C 383 1137 374 1124 362 1112 C 350 1100 337 1090 321 1083 C 305 1076 288 1073 270 1073 C 252 1073 235 1076 219 1083 C 203 1090 190 1100 178 1112 C 166 1124 156 1137 149 1153 C 142 1169 139 1186 139 1204 C 139 1222 142 1239 149 1255 C 156 1271 166 1284 178 1296 C 190 1308 203 1317 219 1324 C 235 1331 252 1335 270 1335 C 288 1335 305 1331 321 1324 C 337 1317 350 1308 362 1296 C 374 1284 383 1271 390 1255 C 397 1239 401 1222 401 1204 Z M 518 0 L 47 0 L 47 53 L 172 74 L 172 766 L 47 788 L 47 846 L 393 893 L 393 74 L 518 53 L 518 0 Z" unicode="i" />
<glyph horiz-adv-x="514" d="M 389 1204 C 389 1186 385 1169 378 1153 C 371 1137 362 1124 350 1112 C 338 1100 325 1090 309 1083 C 293 1076 276 1073 258 1073 C 240 1073 223 1076 207 1083 C 191 1090 177 1100 165 1112 C 153 1124 144 1137 137 1153 C 130 1169 127 1186 127 1204 C 127 1222 130 1239 137 1255 C 144 1271 153 1284 165 1296 C 177 1308 191 1317 207 1324 C 223 1331 240 1335 258 1335 C 276 1335 293 1331 309 1324 C 325 1317 338 1308 350 1296 C 362 1284 371 1271 378 1255 C 385 1239 389 1222 389 1204 Z M 381 -82 C 381 -156 372 -218 354 -269 C 336 -320 310 -363 278 -399 C 246 -435 207 -464 163 -487 C 118 -510 69 -530 16 -547 L -10 -487 C 26 -475 55 -460 77 -442 C 99 -424 116 -400 128 -370 C 140 -340 149 -303 153 -259 C 157 -215 160 -163 160 -102 L 160 766 L 35 788 L 35 846 L 381 893 L 381 -82 Z" unicode="j" />
<glyph horiz-adv-x="1044" d="M 1040 0 L 721 0 L 678 74 L 420 446 L 377 446 L 377 74 L 508 53 L 508 0 L 31 0 L 31 53 L 156 74 L 156 1327 L 31 1350 L 31 1407 L 377 1442 L 377 479 L 389 479 L 723 782 L 723 786 L 596 809 L 596 864 L 979 864 L 979 809 L 844 782 L 596 555 L 946 78 L 1040 49 L 1040 0 Z" unicode="k" />
<glyph horiz-adv-x="541" d="M 506 0 L 35 0 L 35 53 L 160 74 L 160 1327 L 35 1350 L 35 1407 L 381 1442 L 381 74 L 506 53 L 506 0 Z" unicode="l" />
<glyph horiz-adv-x="1632" d="M 1612 0 L 1147 0 L 1147 53 L 1266 74 L 1266 729 C 1256 744 1243 757 1225 769 C 1207 780 1186 786 1161 786 C 1120 786 1086 776 1058 756 C 1030 736 1007 711 989 679 C 971 647 959 610 951 568 C 943 526 940 484 940 440 L 940 74 L 1059 53 L 1059 0 L 600 0 L 600 53 L 719 74 L 719 729 C 709 744 696 757 679 769 C 661 780 640 786 614 786 C 574 786 539 776 511 756 C 483 736 460 711 443 679 C 425 647 413 610 405 568 C 397 526 393 484 393 440 L 393 74 L 512 53 L 512 0 L 47 0 L 47 53 L 172 74 L 172 766 L 47 788 L 47 846 L 381 885 L 381 670 L 383 670 C 411 740 450 794 498 834 C 546 873 604 893 670 893 C 812 893 899 822 930 682 L 932 682 C 960 748 997 800 1044 837 C 1091 874 1148 893 1214 893 C 1260 893 1300 885 1334 871 C 1368 857 1397 836 1420 810 C 1442 784 1459 752 1470 715 C 1481 677 1487 636 1487 590 L 1487 74 L 1612 53 L 1612 0 Z" unicode="m" />
<glyph horiz-adv-x="1106" d="M 1085 0 L 616 0 L 616 53 L 739 74 L 739 725 C 729 742 715 756 696 768 C 676 780 651 786 621 786 C 579 786 543 776 514 757 C 485 738 462 712 444 680 C 426 648 413 610 405 568 C 397 526 393 482 393 436 L 393 74 L 516 53 L 516 0 L 47 0 L 47 53 L 172 74 L 172 766 L 47 788 L 47 846 L 381 885 L 381 670 L 383 670 C 413 746 454 802 507 838 C 559 874 620 893 688 893 C 734 893 774 885 808 871 C 842 857 871 836 893 810 C 915 784 932 752 944 715 C 955 677 961 636 961 590 L 961 74 L 1085 53 L 1085 0 Z" unicode="n" />
<glyph horiz-adv-x="999" d="M 954 434 C 954 364 942 301 919 245 C 895 188 863 140 822 100 C 781 60 733 29 678 7 C 622 -14 563 -25 500 -25 C 436 -25 377 -14 322 7 C 266 29 218 60 177 100 C 136 140 104 188 80 245 C 56 301 45 364 45 434 C 45 504 56 567 80 623 C 104 679 136 728 177 768 C 218 808 266 838 322 860 C 377 882 436 893 500 893 C 563 893 622 882 678 860 C 733 838 781 808 822 768 C 863 728 895 679 919 623 C 942 567 954 504 954 434 Z M 709 434 C 709 494 704 549 695 597 C 686 645 673 687 656 721 C 638 755 616 781 590 799 C 564 817 534 827 500 827 C 465 827 435 817 409 799 C 383 781 361 755 343 721 C 325 687 312 645 304 597 C 295 549 291 494 291 434 C 291 374 295 319 304 271 C 312 222 325 181 343 147 C 361 113 383 86 409 68 C 435 50 465 41 500 41 C 534 41 564 50 590 68 C 616 86 638 113 656 147 C 673 181 686 222 695 271 C 704 319 709 374 709 434 Z" unicode="o" />
<glyph horiz-adv-x="1044" d="M 999 457 C 999 386 987 321 965 262 C 942 203 911 152 872 110 C 832 67 786 34 734 10 C 681 -13 625 -25 565 -25 C 528 -25 492 -21 458 -13 C 424 -5 394 8 369 27 L 369 -451 L 557 -471 L 557 -524 L 23 -524 L 23 -471 L 147 -451 L 147 766 L 23 788 L 23 846 L 356 885 L 356 733 L 358 733 C 389 787 430 828 480 854 C 530 880 585 893 643 893 C 689 893 734 883 777 864 C 820 844 858 816 891 779 C 924 742 950 696 970 642 C 989 588 999 526 999 457 Z M 770 438 C 770 484 766 528 758 570 C 750 612 738 649 720 681 C 702 713 680 738 652 757 C 624 776 591 786 551 786 C 509 786 472 773 439 748 C 406 722 383 688 369 645 L 369 115 C 387 94 411 78 439 66 C 467 54 497 49 528 49 C 564 49 598 59 628 81 C 658 102 683 130 704 166 C 725 202 741 243 753 290 C 764 337 770 386 770 438 Z" unicode="p" />
<glyph horiz-adv-x="1020" d="M 1026 -524 L 500 -524 L 500 -471 L 680 -446 L 680 106 C 648 65 613 33 573 10 C 533 -13 486 -25 432 -25 C 382 -25 334 -15 288 2 C 242 20 201 48 165 84 C 129 120 100 165 78 219 C 56 273 45 336 45 408 C 45 479 55 544 75 604 C 95 664 124 715 161 758 C 198 800 242 833 293 857 C 343 881 399 893 461 893 C 506 893 549 886 591 873 C 633 859 669 839 700 811 L 893 907 L 901 901 L 901 -446 L 1026 -471 L 1026 -524 Z M 680 217 L 680 713 C 662 743 640 768 612 787 C 584 805 553 815 518 815 C 472 815 433 803 402 781 C 370 759 345 729 326 693 C 307 657 294 616 286 571 C 278 525 274 480 274 434 C 274 394 277 352 284 310 C 290 267 302 228 318 193 C 334 158 356 129 383 107 C 410 85 444 74 485 74 C 533 74 573 86 605 112 C 637 138 662 173 680 217 Z" unicode="q" />
<glyph horiz-adv-x="770" d="M 762 842 L 702 664 C 686 672 669 681 651 690 C 633 699 616 707 600 714 C 584 720 569 726 556 730 C 543 734 534 737 528 737 C 506 737 487 730 470 718 C 453 705 439 687 427 664 C 415 641 406 613 400 581 C 394 548 391 512 391 473 L 391 74 L 590 53 L 590 0 L 47 0 L 47 53 L 172 74 L 172 766 L 47 788 L 47 846 L 375 885 L 375 662 L 377 662 C 391 707 407 744 427 774 C 447 804 468 827 491 845 C 513 863 536 875 560 882 C 584 889 607 893 631 893 C 653 893 677 888 702 879 C 726 870 746 858 762 842 Z" unicode="r" />
<glyph horiz-adv-x="774" d="M 715 252 C 715 208 706 169 688 135 C 670 100 645 70 615 46 C 585 21 549 2 509 -11 C 468 -24 425 -31 381 -31 C 335 -31 293 -24 255 -12 C 217 0 185 17 160 39 L 137 -20 L 76 -20 L 68 260 L 135 264 C 141 231 150 201 163 174 C 176 147 193 124 213 104 C 233 84 257 69 285 59 C 313 48 344 43 379 43 C 400 43 419 46 437 54 C 454 62 469 72 481 84 C 493 96 502 111 508 127 C 514 143 518 160 518 178 C 518 200 514 219 506 235 C 498 251 485 267 468 281 C 451 295 429 308 403 321 C 377 333 345 347 309 362 C 277 374 248 389 220 405 C 192 421 168 440 148 462 C 128 484 112 508 100 535 C 88 562 82 593 82 629 C 82 669 90 705 106 737 C 122 769 143 797 170 820 C 197 843 229 861 265 874 C 301 886 339 893 379 893 C 420 893 457 889 490 881 C 522 873 554 859 586 840 L 610 889 L 668 889 L 664 629 L 598 629 C 585 697 562 747 529 778 C 496 809 453 825 401 825 C 383 825 366 822 350 816 C 334 810 319 802 306 792 C 293 781 283 768 275 752 C 267 736 264 719 264 700 C 264 678 268 660 277 644 C 285 628 298 613 316 599 C 333 585 355 572 382 560 C 409 548 441 534 477 520 C 511 506 542 491 571 474 C 600 457 625 438 647 416 C 668 394 685 369 697 342 C 709 315 715 285 715 252 Z" unicode="s" />
<glyph horiz-adv-x="672" d="M 666 96 C 653 80 638 64 622 50 C 605 36 586 23 564 12 C 542 0 516 -8 488 -15 C 460 -21 428 -25 393 -25 C 355 -25 321 -18 291 -6 C 261 5 235 23 214 45 C 193 67 177 94 166 125 C 155 156 150 191 150 229 L 150 774 L 16 774 L 16 836 L 154 885 L 289 1171 L 371 1171 L 371 864 L 623 864 L 623 778 L 371 778 L 371 264 C 371 204 380 159 400 130 C 419 100 452 86 500 86 C 526 86 551 91 575 103 C 599 115 619 130 637 150 L 666 96 Z" unicode="t" />
<glyph horiz-adv-x="1069" d="M 1049 14 L 717 -16 L 717 201 L 713 201 C 683 123 641 66 589 30 C 536 -6 476 -25 408 -25 C 362 -25 321 -17 287 -3 C 253 10 224 31 202 57 C 179 83 162 115 151 153 C 140 191 135 233 135 279 L 135 786 L 10 811 L 10 864 L 356 864 L 356 147 C 366 126 382 110 402 99 C 422 87 445 82 471 82 C 513 82 549 91 579 110 C 608 129 632 155 650 187 C 668 219 682 255 690 297 C 698 339 702 382 702 428 L 702 791 L 567 811 L 567 864 L 924 864 L 924 92 L 1049 72 L 1049 14 Z" unicode="u" />
<glyph horiz-adv-x="946" d="M 942 811 L 852 791 L 510 -25 L 436 -25 L 94 791 L 4 811 L 4 864 L 461 864 L 461 811 L 330 795 L 539 248 L 754 795 L 616 811 L 616 864 L 942 864 L 942 811 Z" unicode="v" />
<glyph horiz-adv-x="1483" d="M 1479 811 L 1389 791 L 1049 -25 L 975 -25 L 739 541 L 508 -25 L 434 -25 L 94 791 L 4 811 L 4 864 L 440 864 L 440 811 L 330 795 L 537 248 L 694 649 L 635 791 L 543 811 L 543 864 L 987 864 L 987 811 L 868 795 L 868 793 L 1077 248 L 1290 795 L 1167 811 L 1167 864 L 1479 864 L 1479 811 Z" unicode="w" />
<glyph horiz-adv-x="975" d="M 967 0 L 506 0 L 506 53 L 629 74 L 440 348 L 252 74 L 375 53 L 375 0 L 12 0 L 12 53 L 143 78 L 389 410 L 106 786 L 16 811 L 16 864 L 469 864 L 469 811 L 350 791 L 526 532 L 702 791 L 584 811 L 584 864 L 934 864 L 934 811 L 809 786 L 580 473 L 877 78 L 967 53 L 967 0 Z" unicode="x" />
<glyph horiz-adv-x="963" d="M 958 811 L 868 791 L 535 -49 L 379 -532 L 174 -532 L 434 -33 L 94 791 L 4 811 L 4 864 L 465 864 L 465 811 L 326 795 L 547 205 L 768 795 L 629 811 L 629 864 L 958 864 L 958 811 Z" unicode="y" />
<glyph horiz-adv-x="860" d="M 811 279 L 803 0 L 51 0 L 35 63 L 555 788 L 172 788 L 145 627 L 76 627 L 76 864 L 793 864 L 793 793 L 281 76 L 707 76 L 741 279 L 811 279 Z" unicode="z" />
<glyph horiz-adv-x="766" d="M 651 -459 C 593 -459 540 -453 491 -441 C 442 -429 400 -411 364 -386 C 328 -360 300 -327 280 -287 C 260 -247 250 -198 250 -141 C 250 -103 252 -64 256 -25 C 260 14 265 54 270 94 C 275 134 280 173 284 213 C 288 253 291 292 291 330 C 291 381 274 417 242 439 C 210 460 158 471 86 471 L 86 532 C 158 532 210 542 242 564 C 274 585 291 622 291 674 C 291 712 288 750 284 790 C 280 829 275 869 270 909 C 265 949 260 988 256 1028 C 252 1068 250 1107 250 1145 C 250 1202 260 1251 280 1291 C 300 1331 328 1363 364 1389 C 400 1414 442 1432 491 1444 C 540 1456 593 1462 651 1462 L 651 1403 C 618 1403 588 1398 560 1390 C 532 1381 509 1368 489 1352 C 469 1335 453 1314 442 1289 C 431 1264 426 1236 426 1204 C 426 1166 428 1126 432 1085 C 436 1043 441 1001 446 959 C 451 917 456 875 460 834 C 464 792 467 753 467 715 C 467 688 461 663 450 640 C 439 616 424 596 406 578 C 387 560 365 544 341 532 C 317 519 292 510 266 506 L 266 498 C 292 492 317 483 341 471 C 365 459 387 443 406 425 C 424 407 439 386 450 363 C 461 340 467 315 467 289 C 467 251 464 211 460 169 C 456 127 451 86 446 44 C 441 2 436 -39 432 -81 C 428 -123 426 -163 426 -201 C 426 -233 431 -261 442 -286 C 453 -310 469 -331 489 -348 C 509 -364 532 -377 560 -386 C 588 -394 618 -399 651 -399 L 651 -459 Z" unicode="{" />
<glyph horiz-adv-x="512" d="M 315 -537 L 197 -537 L 197 1475 L 315 1475 L 315 -537 Z" unicode="|" />
<glyph horiz-adv-x="766" d="M 680 471 C 608 471 555 460 523 439 C 491 417 475 381 475 330 C 475 292 477 253 481 213 C 485 173 490 134 495 94 C 500 54 505 14 509 -25 C 513 -64 516 -103 516 -141 C 516 -198 505 -247 485 -287 C 465 -327 437 -360 401 -386 C 365 -411 323 -429 274 -441 C 225 -453 172 -459 115 -459 L 115 -399 C 147 -399 176 -394 204 -386 C 232 -377 256 -364 276 -348 C 296 -331 311 -310 323 -286 C 334 -261 340 -233 340 -201 C 340 -163 337 -123 333 -81 C 329 -39 324 2 319 44 C 314 86 309 127 305 169 C 301 211 299 251 299 289 C 299 315 304 340 315 363 C 326 386 341 407 360 425 C 378 443 400 459 424 471 C 448 483 474 492 500 498 L 500 506 C 474 510 448 519 424 532 C 400 544 378 560 360 578 C 341 596 326 616 315 640 C 304 663 299 688 299 715 C 299 753 301 792 305 834 C 309 875 314 917 319 959 C 324 1001 329 1043 333 1085 C 337 1126 340 1166 340 1204 C 340 1236 334 1264 322 1289 C 310 1314 295 1335 275 1352 C 255 1368 231 1381 204 1390 C 176 1398 147 1403 115 1403 L 115 1462 C 172 1462 225 1456 274 1444 C 323 1432 365 1414 401 1389 C 437 1363 465 1331 485 1291 C 505 1251 516 1202 516 1145 C 516 1107 513 1068 509 1028 C 505 988 500 949 495 909 C 490 869 485 829 481 790 C 477 750 475 712 475 674 C 475 622 491 585 523 564 C 555 542 608 532 680 532 L 680 471 Z" unicode="}" />
<glyph horiz-adv-x="1331" d="M 1174 623 C 1158 591 1139 559 1118 527 C 1097 495 1073 465 1047 439 C 1021 413 992 391 960 375 C 928 358 894 350 858 350 C 832 350 806 354 780 363 C 754 371 729 382 705 396 C 680 409 656 423 632 439 C 608 454 584 468 561 482 C 537 495 515 506 493 515 C 471 523 450 528 430 528 C 406 528 385 525 365 521 C 345 516 327 508 309 497 C 291 486 273 472 257 454 C 240 436 223 415 205 389 L 158 424 C 174 455 192 487 213 519 C 234 551 258 581 284 607 C 310 633 338 654 370 671 C 402 687 436 696 473 696 C 499 696 524 691 550 683 C 576 674 601 663 626 650 C 650 636 675 622 699 607 C 723 591 746 577 770 564 C 793 550 815 539 837 531 C 859 522 880 518 901 518 C 924 518 945 520 965 525 C 985 530 1004 538 1022 550 C 1040 561 1057 575 1074 593 C 1090 610 1108 631 1126 657 L 1174 623 Z" unicode="~" />
<glyph horiz-adv-x="410" d="" unicode="" />
<glyph horiz-adv-x="627" d="M 428 1235 C 428 1217 424 1201 418 1187 C 412 1172 403 1159 393 1149 C 382 1138 369 1129 354 1123 C 339 1117 323 1114 307 1114 C 290 1114 274 1117 260 1123 C 245 1129 232 1138 221 1149 C 210 1159 201 1172 195 1187 C 189 1201 186 1217 186 1235 C 186 1251 189 1267 195 1282 C 201 1297 210 1310 221 1321 C 232 1331 245 1340 260 1346 C 274 1352 290 1356 307 1356 C 323 1356 339 1352 354 1346 C 369 1340 382 1331 393 1321 C 403 1310 412 1297 418 1282 C 424 1267 428 1251 428 1235 Z M 428 -16 L 186 -16 L 186 205 L 270 983 L 344 983 L 428 205 L 428 -16 Z" unicode="" />
<glyph horiz-adv-x="1036" d="M 926 379 C 886 335 840 301 790 276 C 740 250 686 233 629 225 L 629 -29 L 539 -29 L 539 221 C 477 221 419 231 365 250 C 311 269 263 298 223 336 C 182 374 150 421 126 479 C 102 536 90 604 90 682 C 90 750 101 812 125 868 C 149 923 181 970 221 1009 C 261 1048 309 1079 364 1101 C 418 1123 477 1135 539 1139 L 539 1348 L 629 1348 L 629 1137 C 663 1133 698 1127 733 1118 C 768 1109 798 1096 823 1079 L 850 1135 L 905 1135 L 891 858 L 821 858 C 809 920 786 968 754 1004 C 722 1039 680 1061 629 1069 L 629 317 C 674 320 717 332 759 354 C 801 375 839 403 874 438 L 926 379 Z M 539 326 L 539 1069 C 474 1057 422 1020 383 958 C 343 895 324 808 324 698 C 324 644 329 596 340 554 C 351 512 366 475 385 444 C 404 413 427 388 453 368 C 479 348 508 334 539 326 Z" unicode="" />
<glyph horiz-adv-x="1151" d="M 1061 279 C 1061 204 1050 136 1030 75 C 1010 13 979 -34 938 -70 C 896 -56 852 -43 805 -30 C 757 -16 709 -4 659 5 C 609 15 560 24 512 31 C 463 37 417 41 375 41 C 348 41 321 39 294 37 C 266 35 241 30 219 23 L 127 -37 L 82 37 L 168 92 C 190 106 207 120 221 135 C 235 149 246 167 254 189 C 262 211 267 237 270 267 C 272 297 274 335 274 381 L 274 612 L 92 612 L 92 698 L 274 698 L 274 864 C 274 934 284 999 304 1059 C 324 1119 353 1170 391 1214 C 429 1257 476 1291 532 1315 C 588 1339 651 1352 723 1352 C 751 1352 777 1350 801 1347 C 825 1344 849 1339 872 1331 C 894 1323 916 1314 938 1302 C 960 1290 982 1275 1004 1257 L 893 1083 C 837 1145 791 1193 755 1227 C 719 1261 688 1278 664 1278 C 638 1278 615 1270 595 1255 C 575 1240 559 1220 545 1196 C 531 1172 521 1144 514 1112 C 507 1080 504 1048 504 1014 L 504 698 L 850 698 L 850 612 L 504 612 L 504 524 C 504 480 501 441 497 405 C 492 369 484 336 472 306 C 460 276 443 247 423 221 C 402 194 376 169 344 145 L 346 143 C 384 163 419 178 452 187 C 484 196 517 201 551 201 C 617 201 682 194 744 182 C 806 169 870 151 934 129 C 942 139 950 150 956 164 C 962 177 967 191 971 205 C 975 219 978 234 981 249 C 983 263 985 277 987 291 L 1061 279 Z" unicode="" />
<glyph horiz-adv-x="1152" d="M 1056 392 L 940 284 L 740 500 C 692 468 636 452 572 452 C 510 452 456 468 408 500 L 208 284 L 92 392 L 300 608 C 281 634 268 660 262 686 C 255 711 252 742 252 780 C 252 812 255 842 262 870 C 268 898 281 925 300 952 L 92 1168 L 208 1276 L 408 1060 C 456 1092 510 1108 572 1108 C 636 1108 692 1092 740 1060 L 944 1276 L 1060 1156 L 852 952 C 870 925 883 898 890 872 C 896 845 900 814 900 780 C 900 716 882 658 848 608 L 1056 392 Z M 748 780 C 748 833 731 876 698 910 C 664 943 622 960 572 960 C 521 960 480 943 448 910 C 416 876 400 833 400 780 C 400 726 416 684 450 652 C 483 620 524 604 572 604 C 625 604 668 620 700 652 C 732 684 748 726 748 780 Z" unicode="" />
<glyph horiz-adv-x="1331" d="M 1241 1257 L 1128 1229 L 907 805 L 1182 805 L 1182 723 L 866 723 L 788 578 L 788 547 L 1182 547 L 1182 465 L 788 465 L 788 86 L 950 61 L 950 0 L 389 0 L 389 61 L 551 86 L 551 465 L 158 465 L 158 547 L 551 547 L 551 561 L 465 723 L 158 723 L 158 805 L 424 805 L 199 1237 L 90 1257 L 90 1319 L 641 1319 L 641 1257 L 463 1237 L 733 690 L 1001 1233 L 825 1257 L 825 1319 L 1241 1319 L 1241 1257 Z" unicode="" />
<glyph horiz-adv-x="512" d="M 315 670 L 197 670 L 197 1475 L 315 1475 L 315 670 Z M 315 -537 L 197 -537 L 197 268 L 315 268 L 315 -537 Z" unicode="" />
<glyph horiz-adv-x="1042" d="M 895 541 C 895 515 890 492 882 471 C 874 449 863 430 849 412 C 835 394 819 377 801 363 C 783 349 766 336 748 324 C 766 308 783 293 798 279 C 812 265 825 250 835 235 C 845 220 852 204 858 187 C 863 170 866 151 866 129 C 866 91 857 54 839 19 C 821 -15 797 -46 765 -73 C 733 -100 696 -122 653 -138 C 609 -154 562 -162 510 -162 C 482 -162 453 -159 423 -155 C 393 -150 364 -143 336 -135 C 307 -127 280 -117 254 -106 C 228 -94 205 -82 186 -68 L 178 166 L 246 172 L 285 -2 C 299 -14 313 -25 328 -35 C 343 -45 360 -53 379 -61 C 397 -68 418 -74 441 -78 C 464 -82 490 -84 520 -84 C 554 -84 583 -78 608 -67 C 632 -56 652 -42 668 -25 C 683 -7 694 11 702 33 C 709 55 713 76 713 98 L 313 438 C 289 457 268 476 250 494 C 232 512 216 532 204 552 C 191 572 181 593 174 617 C 167 640 164 666 164 696 C 164 720 167 742 175 762 C 183 782 193 800 207 817 C 220 833 235 849 253 863 C 271 877 290 891 311 905 C 293 920 276 935 262 951 C 248 966 236 982 226 998 C 216 1014 208 1032 203 1050 C 197 1068 195 1088 195 1110 C 195 1151 203 1190 219 1226 C 235 1262 258 1293 288 1319 C 317 1345 351 1366 391 1382 C 431 1397 474 1405 522 1405 C 540 1405 558 1404 578 1403 C 597 1401 616 1399 635 1397 C 654 1394 672 1390 689 1386 C 706 1381 721 1376 735 1370 L 754 1405 L 821 1405 L 821 1096 L 754 1096 L 715 1272 C 687 1295 655 1311 620 1319 C 585 1327 551 1331 518 1331 C 492 1331 469 1327 448 1319 C 426 1311 408 1299 393 1283 C 377 1267 365 1248 357 1226 C 348 1204 344 1179 344 1151 C 344 1146 344 1143 345 1141 C 345 1139 345 1137 346 1135 L 739 803 C 763 781 785 761 805 743 C 824 724 840 705 854 685 C 867 665 877 643 884 620 C 891 596 895 570 895 541 Z M 760 475 C 760 496 755 514 747 529 C 738 543 722 560 700 580 L 356 868 C 340 856 326 841 316 822 C 306 803 301 784 301 766 C 301 740 306 719 316 703 C 326 687 342 670 362 653 L 702 365 C 722 379 737 395 746 413 C 755 431 760 451 760 475 Z" unicode="" />
<glyph horiz-adv-x="1024" d="M 823 1147 C 823 1131 820 1116 814 1102 C 808 1088 799 1075 789 1065 C 779 1055 767 1047 753 1041 C 739 1035 725 1032 709 1032 C 693 1032 678 1035 664 1041 C 650 1047 637 1055 627 1065 C 617 1075 609 1088 603 1102 C 597 1116 594 1131 594 1147 C 594 1163 597 1177 603 1191 C 609 1205 617 1217 627 1228 C 637 1238 650 1247 664 1253 C 678 1259 693 1262 709 1262 C 725 1262 739 1259 753 1253 C 767 1247 779 1238 789 1228 C 799 1217 808 1205 814 1191 C 820 1177 823 1163 823 1147 Z M 430 1147 C 430 1131 427 1116 421 1102 C 415 1088 406 1075 396 1065 C 386 1055 374 1047 360 1041 C 346 1035 331 1032 315 1032 C 299 1032 284 1035 270 1041 C 256 1047 244 1055 234 1065 C 224 1075 216 1088 210 1102 C 204 1116 201 1131 201 1147 C 201 1163 204 1177 210 1191 C 216 1205 224 1217 234 1228 C 244 1238 256 1247 270 1253 C 284 1259 299 1262 315 1262 C 331 1262 346 1259 360 1253 C 374 1247 386 1238 396 1228 C 406 1217 415 1205 421 1191 C 427 1177 430 1163 430 1147 Z" unicode="" />
<glyph horiz-adv-x="1552" d="M 1434 662 C 1434 601 1426 543 1410 487 C 1394 431 1372 378 1344 330 C 1315 281 1281 237 1241 197 C 1201 157 1156 122 1108 94 C 1059 65 1007 43 951 27 C 895 11 836 4 776 4 C 715 4 657 11 601 27 C 545 43 493 65 445 94 C 396 122 352 157 312 197 C 272 237 237 281 209 330 C 180 378 158 431 142 487 C 126 543 119 601 119 662 C 119 752 136 836 170 916 C 204 996 251 1065 311 1125 C 371 1185 440 1232 520 1267 C 600 1301 685 1319 776 1319 C 836 1319 895 1311 951 1295 C 1007 1279 1059 1257 1108 1229 C 1156 1200 1201 1166 1241 1126 C 1281 1086 1315 1041 1344 993 C 1372 944 1394 892 1410 836 C 1426 780 1434 722 1434 662 Z M 1360 662 C 1360 742 1344 819 1314 891 C 1284 963 1242 1026 1190 1080 C 1137 1134 1075 1177 1004 1209 C 933 1241 857 1257 776 1257 C 695 1257 619 1241 548 1209 C 477 1177 415 1134 363 1080 C 310 1026 268 963 238 891 C 208 819 193 742 193 662 C 193 580 208 504 238 432 C 268 360 310 296 363 242 C 415 188 477 145 548 113 C 619 81 695 66 776 66 C 830 66 882 73 932 87 C 982 101 1028 122 1071 148 C 1114 174 1153 206 1189 242 C 1225 278 1255 319 1280 363 C 1305 407 1325 455 1339 505 C 1353 555 1360 608 1360 662 Z M 1085 397 C 1062 375 1039 357 1017 343 C 994 328 970 316 946 306 C 922 296 896 289 870 285 C 843 281 814 279 784 279 C 728 279 675 288 627 306 C 579 324 537 349 501 382 C 465 415 437 455 417 501 C 397 547 387 599 387 655 C 387 713 397 766 418 814 C 438 862 467 903 503 937 C 539 971 582 997 632 1016 C 682 1034 735 1044 793 1044 C 829 1044 865 1041 901 1035 C 937 1029 970 1019 1001 1004 L 1012 1044 L 1067 1044 L 1059 801 L 1004 801 L 987 909 C 956 932 925 948 893 958 C 861 968 825 973 784 973 C 748 973 716 964 688 948 C 660 932 637 910 618 883 C 598 855 584 823 574 787 C 564 751 559 712 559 672 C 559 624 564 581 576 542 C 587 502 603 469 625 441 C 647 413 673 391 705 375 C 737 359 773 352 815 352 C 839 352 862 354 883 358 C 903 362 923 369 941 377 C 959 385 976 396 993 409 C 1009 421 1026 436 1042 453 L 1085 397 Z" unicode="" />
<glyph horiz-adv-x="696" d="M 672 819 C 664 808 654 798 642 790 C 630 781 617 774 603 768 C 589 762 576 757 562 754 C 548 751 534 750 522 750 C 494 750 468 757 444 771 C 420 785 403 804 395 829 C 372 808 347 790 319 774 C 291 758 263 750 233 750 C 209 750 187 753 166 760 C 145 767 127 777 111 791 C 95 804 83 820 74 839 C 65 858 61 879 61 903 C 61 929 65 951 75 971 C 85 991 98 1007 114 1021 C 130 1035 150 1046 172 1055 C 194 1063 218 1070 244 1075 L 385 1102 L 385 1163 C 385 1198 377 1225 362 1243 C 347 1261 321 1270 285 1270 C 257 1270 230 1262 204 1246 C 178 1230 155 1208 135 1178 L 88 1225 C 118 1263 151 1291 188 1311 C 225 1331 270 1341 322 1341 C 354 1341 384 1337 412 1330 C 440 1323 465 1312 486 1298 C 506 1283 523 1264 535 1241 C 547 1218 553 1191 553 1159 L 553 913 C 553 889 556 871 564 857 C 572 843 585 836 604 836 C 612 836 621 838 631 842 C 640 846 647 852 653 858 L 672 819 Z M 385 872 L 385 1053 L 315 1040 C 283 1034 258 1021 242 1001 C 225 981 217 954 217 922 C 217 894 224 872 240 856 C 256 839 274 831 295 831 C 314 831 330 834 343 841 C 356 848 370 858 385 872 Z" unicode="" />
<glyph horiz-adv-x="1055" d="M 893 119 L 856 88 L 502 451 L 856 813 L 893 782 L 702 451 L 893 119 Z M 514 119 L 477 88 L 123 451 L 477 813 L 514 782 L 324 451 L 514 119 Z" unicode="" />
<glyph horiz-adv-x="1229" d="M 1065 571 L 164 571 L 164 682 L 1065 682 L 1065 571 Z" unicode="" />
<glyph horiz-adv-x="614" d="M 532 463 L 82 410 L 82 537 L 532 590 L 532 463 Z" unicode="" />
<glyph horiz-adv-x="705" d="M 666 1077 C 666 1033 657 993 641 955 C 624 917 601 884 573 856 C 545 827 511 804 473 788 C 435 772 394 764 352 764 C 308 764 268 772 230 788 C 192 804 159 827 131 856 C 102 884 79 917 63 955 C 47 993 39 1033 39 1077 C 39 1119 47 1160 63 1198 C 79 1236 102 1270 131 1298 C 159 1326 192 1349 230 1366 C 268 1382 308 1391 352 1391 C 394 1391 435 1382 473 1366 C 511 1349 545 1326 573 1298 C 601 1270 624 1236 641 1198 C 657 1160 666 1119 666 1077 Z M 616 1077 C 616 1113 609 1148 595 1181 C 581 1214 563 1243 539 1268 C 515 1292 487 1312 455 1326 C 423 1340 388 1348 352 1348 C 315 1348 281 1340 249 1326 C 217 1312 189 1292 165 1268 C 141 1243 122 1214 108 1181 C 94 1148 88 1113 88 1077 C 88 1040 94 1005 108 973 C 122 940 141 911 165 887 C 189 862 217 842 249 828 C 281 814 315 807 352 807 C 388 807 423 814 455 828 C 487 842 515 862 539 887 C 563 911 581 940 595 973 C 609 1005 616 1040 616 1077 Z M 541 907 L 440 907 L 346 1051 L 311 1047 L 311 942 L 352 934 L 352 907 L 197 907 L 197 934 L 240 942 L 240 1221 L 197 1229 L 197 1255 L 360 1255 C 377 1255 393 1253 409 1250 C 424 1247 437 1242 449 1235 C 460 1228 469 1219 475 1207 C 481 1195 485 1181 485 1165 C 485 1141 478 1121 464 1104 C 450 1087 433 1075 412 1067 L 506 944 L 541 934 L 541 907 Z M 410 1159 C 410 1180 403 1196 389 1208 C 375 1219 357 1225 336 1225 C 332 1225 328 1225 324 1225 C 320 1225 316 1224 311 1223 L 311 1079 L 330 1079 C 356 1079 376 1086 390 1100 C 403 1114 410 1133 410 1159 Z" unicode="" />
<glyph horiz-adv-x="1024" d="M 827 1092 L 197 1092 L 197 1214 L 827 1214 L 827 1092 Z" unicode="" />
<glyph horiz-adv-x="676" d="M 618 1073 C 618 1033 610 995 596 961 C 582 927 562 897 537 872 C 512 846 482 826 448 812 C 414 798 377 791 338 791 C 298 791 261 798 227 812 C 193 826 163 846 138 872 C 112 897 92 927 78 961 C 64 995 57 1033 57 1073 C 57 1113 64 1150 78 1184 C 92 1218 112 1248 138 1274 C 163 1300 193 1320 227 1334 C 261 1348 298 1356 338 1356 C 377 1356 414 1348 448 1334 C 482 1320 512 1300 537 1274 C 562 1248 582 1218 596 1184 C 610 1150 618 1113 618 1073 Z M 524 1073 C 524 1101 519 1127 510 1151 C 500 1175 487 1195 471 1213 C 455 1231 435 1245 412 1255 C 389 1265 364 1270 338 1270 C 310 1270 285 1265 263 1255 C 240 1245 220 1231 204 1213 C 187 1195 174 1175 165 1151 C 156 1127 152 1101 152 1073 C 152 1045 156 1020 165 996 C 174 972 187 951 204 933 C 220 915 240 902 263 892 C 285 882 310 877 338 877 C 364 877 389 882 412 892 C 435 902 455 915 471 933 C 487 951 500 972 510 996 C 519 1020 524 1045 524 1073 Z" unicode="" />
<glyph horiz-adv-x="1536" d="M 672 352 L 672 764 L 200 764 L 200 936 L 672 936 L 672 1352 L 864 1352 L 864 936 L 1340 936 L 1340 764 L 864 764 L 864 352 L 672 352 Z M 204 24 L 204 216 L 1336 216 L 1336 24 L 204 24 Z" unicode="" />
<glyph horiz-adv-x="741" d="M 682 856 L 655 627 L 61 627 L 51 692 L 223 823 C 267 857 304 886 333 912 C 361 938 384 962 401 985 C 417 1008 429 1031 436 1053 C 442 1075 446 1099 446 1126 C 446 1152 442 1174 435 1193 C 427 1212 417 1228 405 1240 C 392 1252 377 1261 360 1267 C 342 1273 323 1276 303 1276 C 265 1276 233 1263 205 1239 C 177 1214 154 1183 137 1145 L 74 1204 C 106 1254 144 1293 189 1320 C 233 1346 288 1360 352 1360 C 392 1360 430 1355 465 1346 C 500 1337 530 1324 556 1306 C 581 1288 601 1266 615 1240 C 629 1213 637 1182 637 1147 C 637 1116 631 1089 621 1065 C 610 1041 595 1018 576 997 C 557 976 534 956 508 936 C 481 916 452 894 420 872 L 276 772 L 276 768 L 588 768 L 623 864 L 682 856 Z" unicode="" />
<glyph horiz-adv-x="741" d="M 639 821 C 639 783 630 749 614 720 C 597 690 574 666 546 647 C 518 627 484 613 446 603 C 408 593 367 588 324 588 C 278 588 234 594 192 607 C 150 619 114 638 82 664 L 117 735 C 140 715 167 699 198 687 C 228 674 259 668 291 668 C 339 668 376 680 404 704 C 432 728 446 765 446 813 C 446 835 442 855 434 873 C 426 891 416 905 402 917 C 388 928 372 937 354 943 C 336 949 316 952 295 952 C 278 952 261 951 245 949 C 228 947 213 945 199 942 L 190 1022 L 207 1022 C 240 1022 270 1024 296 1029 C 322 1033 345 1041 363 1053 C 381 1065 395 1080 405 1099 C 415 1118 420 1142 420 1171 C 420 1210 408 1238 385 1256 C 361 1273 333 1282 299 1282 C 267 1282 238 1275 214 1262 C 190 1249 169 1228 152 1200 L 100 1253 C 130 1290 163 1317 201 1334 C 239 1351 285 1360 340 1360 C 377 1360 412 1356 444 1348 C 476 1340 505 1329 529 1314 C 553 1299 571 1280 585 1258 C 599 1236 606 1210 606 1182 C 606 1131 587 1091 550 1063 C 513 1035 464 1016 403 1006 L 403 1004 C 435 1002 466 996 495 987 C 524 977 549 965 570 950 C 591 934 608 916 620 894 C 632 872 639 848 639 821 Z" unicode="" />
<glyph horiz-adv-x="1024" d="M 778 1278 L 422 973 L 379 1008 L 627 1405 L 778 1278 Z" unicode="" />
<glyph horiz-adv-x="1079" d="M 1098 76 C 1074 44 1044 19 1007 1 C 970 -16 928 -25 881 -25 C 841 -25 805 -17 773 -2 C 741 13 716 36 700 68 L 700 201 L 696 203 C 685 172 670 143 652 115 C 633 87 611 63 587 43 C 562 22 535 5 505 -6 C 475 -18 444 -25 412 -25 C 399 -25 385 -23 370 -20 C 355 -17 340 -13 325 -7 C 310 -1 296 5 282 13 C 268 21 257 31 248 43 L 246 41 L 295 -442 L 86 -442 L 119 98 L 119 864 L 340 864 L 340 147 C 350 126 364 110 383 99 C 402 87 427 82 457 82 C 499 82 535 91 564 111 C 593 130 617 155 635 186 C 653 216 666 251 674 289 C 682 327 686 364 686 401 L 686 864 L 907 864 L 907 119 C 916 106 927 97 941 93 C 954 88 967 86 981 86 C 995 86 1011 89 1029 97 C 1046 104 1059 113 1069 125 L 1098 76 Z" unicode="" />
<glyph horiz-adv-x="1024" d="M 954 1257 L 795 1233 L 795 -307 L 692 -307 L 692 315 C 602 315 519 324 441 344 C 363 364 296 394 239 435 C 181 476 136 528 104 592 C 71 656 55 732 55 821 C 55 898 67 967 93 1029 C 118 1090 154 1142 200 1185 C 246 1228 301 1261 365 1284 C 429 1307 500 1319 578 1319 L 954 1319 L 954 1257 Z M 692 389 L 692 1241 L 504 1241 L 504 604 C 504 568 506 536 512 509 C 518 482 528 460 542 442 C 556 424 576 410 600 402 C 624 393 655 389 692 389 Z" unicode="" />
<glyph horiz-adv-x="553" d="M 412 541 C 412 522 408 504 401 488 C 393 472 383 457 371 445 C 359 433 344 423 328 416 C 312 409 294 406 276 406 C 258 406 240 409 224 416 C 208 423 193 433 181 445 C 169 457 159 472 152 488 C 144 504 141 522 141 541 C 141 559 144 576 152 592 C 159 608 169 623 181 635 C 193 647 208 657 224 665 C 240 672 258 676 276 676 C 294 676 312 672 328 665 C 344 657 359 647 371 635 C 383 623 393 608 401 592 C 408 576 412 559 412 541 Z" unicode="" />
<glyph horiz-adv-x="1024" d="M 717 -315 C 717 -353 710 -386 696 -414 C 682 -442 663 -465 638 -483 C 613 -501 583 -514 548 -523 C 512 -532 473 -537 430 -537 C 409 -537 386 -534 361 -528 C 335 -522 313 -515 295 -506 L 322 -434 C 337 -442 355 -450 377 -457 C 399 -463 419 -467 438 -467 C 456 -467 474 -465 490 -461 C 506 -457 519 -450 531 -442 C 543 -434 552 -423 559 -409 C 565 -395 569 -378 569 -358 C 569 -338 566 -321 560 -307 C 554 -292 543 -279 529 -268 C 514 -256 494 -246 470 -238 C 446 -229 415 -221 379 -215 L 498 0 L 567 0 L 530 -135 C 554 -141 578 -149 601 -159 C 623 -169 643 -181 660 -196 C 677 -210 691 -227 701 -247 C 711 -267 717 -289 717 -315 Z" unicode="" />
<glyph horiz-adv-x="741" d="M 606 627 L 143 627 L 143 676 L 285 700 L 285 1245 L 131 1245 L 131 1290 L 465 1348 L 465 700 L 606 676 L 606 627 Z" unicode="" />
<glyph horiz-adv-x="745" d="M 684 1049 C 684 1005 675 964 658 928 C 641 892 618 861 590 835 C 561 809 528 789 490 775 C 452 761 413 754 373 754 C 331 754 292 761 255 775 C 217 789 184 809 155 835 C 126 861 103 892 86 928 C 69 964 61 1005 61 1049 C 61 1093 69 1133 86 1169 C 103 1205 126 1235 155 1261 C 184 1286 217 1306 255 1320 C 292 1334 331 1341 373 1341 C 413 1341 452 1334 490 1320 C 528 1306 561 1286 590 1261 C 618 1235 641 1205 658 1169 C 675 1133 684 1093 684 1049 Z M 500 1049 C 500 1125 489 1184 467 1226 C 445 1267 414 1288 373 1288 C 331 1288 300 1267 278 1226 C 256 1184 246 1125 246 1049 C 246 971 256 912 278 870 C 300 828 331 807 373 807 C 414 807 445 828 467 870 C 489 912 500 971 500 1049 Z" unicode="" />
<glyph horiz-adv-x="1055" d="M 932 451 L 578 88 L 541 119 L 731 451 L 541 782 L 578 813 L 932 451 Z M 553 451 L 199 88 L 162 119 L 352 451 L 162 782 L 199 813 L 553 451 Z" unicode="" />
<glyph horiz-adv-x="1511" d="M 545 627 L 82 627 L 82 676 L 223 700 L 223 1241 L 70 1241 L 70 1290 L 403 1348 L 403 700 L 545 676 L 545 627 Z M 1198 1309 L 373 -41 L 295 8 L 1120 1358 L 1198 1309 Z M 1454 274 L 1438 160 L 1317 160 L 1317 -49 L 1143 -49 L 1143 160 L 795 160 L 772 248 L 1149 700 L 1212 782 L 1317 768 L 1317 274 L 1454 274 Z M 1143 274 L 1143 578 L 893 274 L 1143 274 Z" unicode="" />
<glyph horiz-adv-x="1581" d="M 545 627 L 82 627 L 82 676 L 223 700 L 223 1241 L 70 1241 L 70 1290 L 403 1348 L 403 700 L 545 676 L 545 627 Z M 1198 1309 L 373 -41 L 295 8 L 1120 1358 L 1198 1309 Z M 1509 229 L 1483 0 L 889 0 L 879 66 L 1051 197 C 1095 231 1132 260 1161 286 C 1189 312 1212 336 1229 359 C 1245 381 1257 404 1264 426 C 1270 448 1274 473 1274 500 C 1274 526 1270 548 1263 567 C 1255 585 1245 601 1232 613 C 1219 625 1204 634 1187 640 C 1169 646 1150 649 1130 649 C 1093 649 1061 636 1033 612 C 1005 587 982 556 965 518 L 901 578 C 933 628 971 666 1016 693 C 1061 719 1116 733 1180 733 C 1220 733 1258 728 1293 719 C 1327 710 1357 697 1383 679 C 1408 661 1428 639 1442 613 C 1456 586 1464 555 1464 520 C 1464 489 1458 462 1448 438 C 1437 414 1422 391 1403 370 C 1384 349 1361 329 1335 309 C 1308 289 1279 268 1247 246 L 1104 145 L 1104 141 L 1415 141 L 1450 238 L 1509 229 Z" unicode="" />
<glyph horiz-adv-x="1536" d="M 631 821 C 631 783 622 749 606 720 C 589 690 566 666 538 647 C 509 627 475 613 437 603 C 399 593 358 588 315 588 C 269 588 226 594 184 607 C 142 619 106 638 74 664 L 109 735 C 132 715 159 699 190 687 C 220 674 251 668 283 668 C 331 668 368 680 396 704 C 424 728 438 765 438 813 C 438 835 434 855 426 873 C 418 891 408 905 394 917 C 380 928 364 937 346 943 C 328 949 308 952 287 952 C 270 952 253 951 237 949 C 220 947 204 945 190 942 L 182 1022 L 199 1022 C 232 1022 262 1024 288 1029 C 314 1033 337 1041 355 1053 C 373 1065 387 1080 397 1099 C 407 1118 412 1142 412 1171 C 412 1190 408 1207 402 1221 C 396 1235 387 1246 376 1255 C 365 1264 352 1271 338 1275 C 323 1279 307 1282 291 1282 C 259 1282 230 1275 206 1262 C 181 1249 160 1228 143 1200 L 92 1253 C 122 1290 155 1317 193 1334 C 231 1351 277 1360 332 1360 C 369 1360 404 1356 436 1348 C 468 1340 497 1329 521 1314 C 545 1299 563 1280 577 1258 C 591 1236 598 1210 598 1182 C 598 1131 579 1091 542 1063 C 505 1035 456 1016 395 1006 L 395 1004 C 427 1002 458 996 487 987 C 515 977 540 965 562 950 C 583 934 600 916 612 894 C 624 872 631 848 631 821 Z M 1223 1309 L 397 -41 L 319 8 L 1145 1358 L 1223 1309 Z M 1479 274 L 1462 160 L 1341 160 L 1341 -49 L 1167 -49 L 1167 160 L 819 160 L 797 248 L 1174 700 L 1237 782 L 1341 768 L 1341 274 L 1479 274 Z M 1167 274 L 1167 578 L 918 274 L 1167 274 Z" unicode="" />
<glyph horiz-adv-x="897" d="M 678 1233 C 678 1215 674 1199 668 1185 C 662 1170 653 1157 643 1147 C 632 1136 619 1127 604 1121 C 589 1115 573 1112 557 1112 C 539 1112 523 1115 509 1121 C 494 1127 481 1136 471 1147 C 460 1157 451 1170 445 1185 C 439 1199 436 1215 436 1233 C 436 1249 439 1265 445 1280 C 451 1294 460 1307 471 1318 C 481 1329 494 1338 509 1344 C 523 1350 539 1354 557 1354 C 573 1354 589 1350 604 1344 C 619 1338 632 1329 643 1318 C 653 1307 662 1294 668 1280 C 674 1265 678 1249 678 1233 Z M 815 8 C 801 0 784 -7 764 -14 C 744 -20 722 -26 700 -31 C 677 -35 654 -39 632 -41 C 610 -43 589 -45 571 -45 C 499 -45 433 -33 372 -10 C 310 12 257 44 213 85 C 168 126 133 175 108 232 C 82 289 70 352 70 420 C 70 488 81 550 104 604 C 127 658 158 704 198 742 C 238 780 284 811 337 834 C 390 856 447 871 508 877 L 508 1022 L 606 1022 L 606 668 C 551 666 501 658 457 645 C 412 632 374 613 342 588 C 310 562 285 530 268 491 C 250 452 242 406 242 352 C 242 310 247 273 259 239 C 270 205 286 175 308 151 C 329 127 355 108 385 94 C 415 80 449 74 487 74 C 528 74 569 84 610 106 C 651 128 691 159 729 201 L 815 8 Z" unicode="" />
<glyph horiz-adv-x="1294" d="M 1290 0 L 756 0 L 756 61 L 922 86 L 801 418 L 344 418 L 225 90 L 387 61 L 387 0 L 4 0 L 4 61 L 115 90 L 588 1327 L 700 1327 L 1180 86 L 1290 61 L 1290 0 Z M 768 508 L 571 1042 L 377 508 L 768 508 Z M 756 1430 L 713 1395 L 356 1700 L 508 1827 L 756 1430 Z" unicode="" />
<glyph horiz-adv-x="1294" d="M 1290 0 L 756 0 L 756 61 L 922 86 L 801 418 L 344 418 L 225 90 L 387 61 L 387 0 L 4 0 L 4 61 L 115 90 L 588 1327 L 700 1327 L 1180 86 L 1290 61 L 1290 0 Z M 768 508 L 571 1042 L 377 508 L 768 508 Z M 930 1700 L 574 1395 L 531 1430 L 779 1827 L 930 1700 Z" unicode="" />
<glyph horiz-adv-x="1294" d="M 1290 0 L 756 0 L 756 61 L 922 86 L 801 418 L 344 418 L 225 90 L 387 61 L 387 0 L 4 0 L 4 61 L 115 90 L 588 1327 L 700 1327 L 1180 86 L 1290 61 L 1290 0 Z M 768 508 L 571 1042 L 377 508 L 768 508 Z M 926 1426 L 881 1393 L 645 1608 L 409 1393 L 364 1426 L 625 1819 L 665 1819 L 926 1426 Z" unicode="" />
<glyph horiz-adv-x="1294" d="M 1290 0 L 756 0 L 756 61 L 922 86 L 801 418 L 344 418 L 225 90 L 387 61 L 387 0 L 4 0 L 4 61 L 115 90 L 588 1327 L 700 1327 L 1180 86 L 1290 61 L 1290 0 Z M 768 508 L 571 1042 L 377 508 L 768 508 Z M 985 1669 C 978 1649 967 1626 953 1600 C 939 1574 922 1549 903 1525 C 884 1501 863 1482 841 1466 C 818 1450 795 1442 772 1442 C 748 1442 724 1448 700 1460 C 675 1472 650 1486 626 1500 C 601 1514 577 1528 553 1540 C 529 1552 507 1559 487 1559 C 471 1559 457 1555 444 1549 C 431 1543 419 1535 408 1525 C 397 1515 387 1505 378 1493 C 369 1481 361 1470 354 1460 L 305 1487 C 311 1507 322 1530 336 1556 C 350 1582 367 1606 386 1630 C 405 1654 426 1674 449 1690 C 471 1706 494 1714 518 1714 C 540 1714 564 1708 589 1696 C 614 1684 639 1670 664 1656 C 688 1641 712 1628 736 1616 C 760 1604 782 1598 803 1598 C 818 1598 832 1601 845 1607 C 858 1613 870 1621 881 1631 C 892 1640 902 1650 911 1662 C 920 1674 928 1685 936 1696 L 985 1669 Z" unicode="" />
<glyph horiz-adv-x="1294" d="M 1290 0 L 756 0 L 756 61 L 922 86 L 801 418 L 344 418 L 225 90 L 387 61 L 387 0 L 4 0 L 4 61 L 115 90 L 588 1327 L 700 1327 L 1180 86 L 1290 61 L 1290 0 Z M 768 508 L 571 1042 L 377 508 L 768 508 Z M 956 1569 C 956 1553 953 1538 947 1524 C 941 1510 932 1497 922 1487 C 912 1477 900 1469 886 1463 C 872 1457 858 1454 842 1454 C 826 1454 811 1457 797 1463 C 783 1469 770 1477 760 1487 C 750 1497 742 1510 736 1524 C 730 1538 727 1553 727 1569 C 727 1585 730 1599 736 1613 C 742 1627 750 1639 760 1650 C 770 1660 783 1669 797 1675 C 811 1681 826 1684 842 1684 C 858 1684 872 1681 886 1675 C 900 1669 912 1660 922 1650 C 932 1639 941 1627 947 1613 C 953 1599 956 1585 956 1569 Z M 563 1569 C 563 1553 560 1538 554 1524 C 548 1510 539 1497 529 1487 C 519 1477 507 1469 493 1463 C 479 1457 464 1454 448 1454 C 432 1454 417 1457 403 1463 C 389 1469 377 1477 367 1487 C 357 1497 349 1510 343 1524 C 337 1538 334 1553 334 1569 C 334 1585 337 1599 343 1613 C 349 1627 357 1639 367 1650 C 377 1660 389 1669 403 1675 C 417 1681 432 1684 448 1684 C 464 1684 479 1681 493 1675 C 507 1669 519 1660 529 1650 C 539 1639 548 1627 554 1613 C 560 1599 563 1585 563 1569 Z" unicode="" />
<glyph horiz-adv-x="1294" d="M 705 1317 L 1180 86 L 1290 61 L 1290 0 L 756 0 L 756 61 L 922 86 L 801 418 L 344 418 L 225 90 L 387 61 L 387 0 L 4 0 L 4 61 L 115 90 L 584 1317 C 560 1321 538 1329 518 1341 C 498 1352 480 1366 465 1383 C 450 1399 438 1418 430 1440 C 422 1462 418 1486 418 1513 C 418 1545 424 1573 436 1598 C 448 1623 464 1644 484 1662 C 504 1679 528 1692 556 1702 C 583 1711 612 1716 643 1716 C 673 1716 702 1711 730 1702 C 757 1692 781 1679 801 1662 C 821 1644 838 1623 850 1598 C 862 1573 868 1545 868 1513 C 868 1487 863 1463 855 1441 C 847 1419 835 1400 821 1384 C 807 1367 790 1353 770 1342 C 750 1330 728 1322 705 1317 Z M 741 1513 C 741 1530 739 1547 735 1563 C 731 1579 725 1594 717 1606 C 709 1618 698 1628 686 1636 C 674 1643 659 1647 643 1647 C 627 1647 612 1643 600 1636 C 588 1629 577 1620 569 1608 C 561 1596 555 1581 551 1565 C 547 1549 545 1531 545 1513 C 545 1495 547 1479 551 1463 C 555 1447 561 1432 569 1420 C 577 1408 588 1398 600 1391 C 612 1383 627 1380 643 1380 C 659 1380 674 1383 686 1391 C 698 1398 709 1408 717 1420 C 725 1432 731 1447 735 1463 C 739 1479 741 1495 741 1513 Z M 768 508 L 571 1042 L 377 508 L 768 508 Z" unicode="" />
<glyph horiz-adv-x="1655" d="M 1575 0 L 584 0 L 584 61 L 743 86 L 743 477 L 332 477 L 145 90 L 291 61 L 291 0 L -109 0 L -109 61 L 27 94 L 573 1235 L 426 1257 L 426 1319 L 1544 1319 L 1544 1016 L 1458 1016 L 1430 1229 L 977 1229 L 977 727 L 1294 727 L 1315 868 L 1389 868 L 1389 496 L 1315 496 L 1294 637 L 977 637 L 977 94 L 1456 94 L 1485 324 L 1575 324 L 1575 0 Z M 743 567 L 743 1233 L 690 1233 L 375 567 L 743 567 Z" unicode="" />
<glyph horiz-adv-x="1286" d="M 662 -27 C 574 -21 493 0 419 34 C 345 69 282 116 229 175 C 176 234 135 304 105 384 C 75 464 61 553 61 651 C 61 753 77 847 111 933 C 144 1018 191 1091 252 1153 C 312 1214 385 1262 469 1296 C 553 1330 646 1348 748 1348 C 814 1348 876 1343 935 1333 C 994 1323 1050 1307 1102 1286 L 1126 1348 L 1206 1348 L 1186 952 L 1108 952 L 1073 1137 C 1031 1179 982 1211 927 1231 C 872 1251 807 1262 731 1262 C 668 1262 612 1247 562 1218 C 512 1189 470 1148 436 1096 C 401 1043 374 980 356 907 C 337 834 328 754 328 666 C 328 590 337 516 355 446 C 373 375 401 312 437 258 C 473 203 517 159 571 127 C 624 94 686 78 756 78 C 836 78 910 92 978 122 C 1046 151 1105 195 1157 254 L 1212 182 C 1149 112 1079 59 1002 25 C 925 -8 837 -27 737 -29 L 709 -135 C 733 -141 757 -149 779 -159 C 801 -169 821 -181 838 -196 C 855 -210 869 -227 879 -247 C 889 -267 895 -289 895 -315 C 895 -353 888 -386 874 -414 C 860 -442 841 -465 816 -483 C 791 -501 761 -514 726 -523 C 690 -532 651 -537 608 -537 C 587 -537 564 -534 539 -528 C 513 -522 491 -515 473 -506 L 500 -434 C 515 -442 534 -450 556 -457 C 578 -463 598 -467 616 -467 C 634 -467 652 -465 668 -461 C 684 -457 698 -450 710 -442 C 722 -434 731 -423 738 -409 C 744 -395 748 -378 748 -358 C 748 -338 745 -321 739 -307 C 733 -292 722 -279 708 -268 C 693 -256 673 -246 649 -238 C 624 -229 593 -221 557 -215 L 662 -27 Z" unicode="" />
<glyph horiz-adv-x="1167" d="M 1077 0 L 78 0 L 78 61 L 238 86 L 238 1233 L 78 1257 L 78 1319 L 1047 1319 L 1047 1016 L 961 1016 L 932 1229 L 479 1229 L 479 727 L 797 727 L 817 868 L 891 868 L 891 496 L 817 496 L 797 637 L 479 637 L 479 94 L 958 94 L 987 324 L 1077 324 L 1077 0 Z M 758 1430 L 715 1395 L 358 1700 L 510 1827 L 758 1430 Z" unicode="" />
<glyph horiz-adv-x="1167" d="M 1077 0 L 78 0 L 78 61 L 238 86 L 238 1233 L 78 1257 L 78 1319 L 1047 1319 L 1047 1016 L 961 1016 L 932 1229 L 479 1229 L 479 727 L 797 727 L 817 868 L 891 868 L 891 496 L 817 496 L 797 637 L 479 637 L 479 94 L 958 94 L 987 324 L 1077 324 L 1077 0 Z M 835 1700 L 479 1395 L 436 1430 L 684 1827 L 835 1700 Z" unicode="" />
<glyph horiz-adv-x="1167" d="M 1077 0 L 78 0 L 78 61 L 238 86 L 238 1233 L 78 1257 L 78 1319 L 1047 1319 L 1047 1016 L 961 1016 L 932 1229 L 479 1229 L 479 727 L 797 727 L 817 868 L 891 868 L 891 496 L 817 496 L 797 637 L 479 637 L 479 94 L 958 94 L 987 324 L 1077 324 L 1077 0 Z M 904 1426 L 859 1393 L 623 1608 L 387 1393 L 342 1426 L 603 1819 L 643 1819 L 904 1426 Z" unicode="" />
<glyph horiz-adv-x="1167" d="M 1077 0 L 78 0 L 78 61 L 238 86 L 238 1233 L 78 1257 L 78 1319 L 1047 1319 L 1047 1016 L 961 1016 L 932 1229 L 479 1229 L 479 727 L 797 727 L 817 868 L 891 868 L 891 496 L 817 496 L 797 637 L 479 637 L 479 94 L 958 94 L 987 324 L 1077 324 L 1077 0 Z M 921 1569 C 921 1553 918 1538 912 1524 C 906 1510 897 1497 887 1487 C 877 1477 865 1469 851 1463 C 837 1457 823 1454 807 1454 C 791 1454 776 1457 762 1463 C 748 1469 735 1477 725 1487 C 715 1497 707 1510 701 1524 C 695 1538 692 1553 692 1569 C 692 1585 695 1599 701 1613 C 707 1627 715 1639 725 1650 C 735 1660 748 1669 762 1675 C 776 1681 791 1684 807 1684 C 823 1684 837 1681 851 1675 C 865 1669 877 1660 887 1650 C 897 1639 906 1627 912 1613 C 918 1599 921 1585 921 1569 Z M 528 1569 C 528 1553 525 1538 519 1524 C 513 1510 504 1497 494 1487 C 484 1477 472 1469 458 1463 C 444 1457 429 1454 413 1454 C 397 1454 382 1457 368 1463 C 354 1469 342 1477 332 1487 C 322 1497 314 1510 308 1524 C 302 1538 299 1553 299 1569 C 299 1585 302 1599 308 1613 C 314 1627 322 1639 332 1650 C 342 1660 354 1669 368 1675 C 382 1681 397 1684 413 1684 C 429 1684 444 1681 458 1675 C 472 1669 484 1660 494 1650 C 504 1639 513 1627 519 1613 C 525 1599 528 1585 528 1569 Z" unicode="" />
<glyph horiz-adv-x="721" d="M 641 0 L 80 0 L 80 61 L 240 86 L 240 1233 L 80 1257 L 80 1319 L 641 1319 L 641 1257 L 481 1233 L 481 86 L 641 61 L 641 0 Z M 499 1422 L 456 1387 L 99 1692 L 251 1819 L 499 1422 Z" unicode="" />
<glyph horiz-adv-x="721" d="M 641 0 L 80 0 L 80 61 L 240 86 L 240 1233 L 80 1257 L 80 1319 L 641 1319 L 641 1257 L 481 1233 L 481 86 L 641 61 L 641 0 Z M 623 1700 L 267 1395 L 224 1430 L 472 1827 L 623 1700 Z" unicode="" />
<glyph horiz-adv-x="721" d="M 641 0 L 80 0 L 80 61 L 240 86 L 240 1233 L 80 1257 L 80 1319 L 641 1319 L 641 1257 L 481 1233 L 481 86 L 641 61 L 641 0 Z M 642 1426 L 597 1393 L 361 1608 L 125 1393 L 80 1426 L 341 1819 L 381 1819 L 642 1426 Z" unicode="" />
<glyph horiz-adv-x="721" d="M 641 0 L 80 0 L 80 61 L 240 86 L 240 1233 L 80 1257 L 80 1319 L 641 1319 L 641 1257 L 481 1233 L 481 86 L 641 61 L 641 0 Z M 672 1569 C 672 1553 669 1538 663 1524 C 657 1510 648 1497 638 1487 C 628 1477 616 1469 602 1463 C 588 1457 574 1454 558 1454 C 542 1454 527 1457 513 1463 C 499 1469 486 1477 476 1487 C 466 1497 458 1510 452 1524 C 446 1538 443 1553 443 1569 C 443 1585 446 1599 452 1613 C 458 1627 466 1639 476 1650 C 486 1660 499 1669 513 1675 C 527 1681 542 1684 558 1684 C 574 1684 588 1681 602 1675 C 616 1669 628 1660 638 1650 C 648 1639 657 1627 663 1613 C 669 1599 672 1585 672 1569 Z M 279 1569 C 279 1553 276 1538 270 1524 C 264 1510 255 1497 245 1487 C 235 1477 223 1469 209 1463 C 195 1457 180 1454 164 1454 C 148 1454 133 1457 119 1463 C 105 1469 93 1477 83 1487 C 73 1497 65 1510 59 1524 C 53 1538 50 1553 50 1569 C 50 1585 53 1599 59 1613 C 65 1627 73 1639 83 1650 C 93 1660 105 1669 119 1675 C 133 1681 148 1684 164 1684 C 180 1684 195 1681 209 1675 C 223 1669 235 1660 245 1650 C 255 1639 264 1627 270 1613 C 276 1599 279 1585 279 1569 Z" unicode="" />
<glyph horiz-adv-x="1427" d="M 1368 676 C 1368 573 1351 480 1319 397 C 1287 314 1241 243 1182 184 C 1122 125 1051 80 967 48 C 883 16 790 0 688 0 L 78 0 L 78 61 L 238 86 L 238 633 L 78 633 L 78 731 L 238 731 L 238 1233 L 78 1257 L 78 1319 L 678 1319 C 778 1319 870 1304 955 1275 C 1039 1245 1112 1203 1173 1148 C 1234 1092 1282 1025 1316 945 C 1350 865 1368 776 1368 676 Z M 1102 657 C 1102 743 1091 821 1071 893 C 1051 965 1020 1026 979 1078 C 938 1129 887 1169 825 1198 C 763 1226 690 1241 606 1241 C 581 1241 559 1240 540 1239 C 520 1238 500 1236 479 1233 L 479 731 L 748 731 L 748 633 L 479 633 L 479 94 C 495 88 515 84 539 82 C 563 79 585 78 606 78 C 688 78 760 92 822 120 C 884 148 935 187 977 238 C 1018 289 1049 350 1070 421 C 1091 492 1102 571 1102 657 Z" unicode="" />
<glyph horiz-adv-x="1444" d="M 1411 1257 L 1251 1229 L 1251 -12 L 1155 -12 L 326 1030 L 326 90 L 485 61 L 485 0 L 59 0 L 59 61 L 219 90 L 219 1161 L 150 1245 L 59 1262 L 59 1319 L 399 1319 L 1145 383 L 1145 1229 L 985 1257 L 985 1319 L 1411 1319 L 1411 1257 Z M 1067 1669 C 1060 1649 1049 1626 1035 1600 C 1021 1574 1004 1549 985 1525 C 966 1501 945 1482 923 1466 C 900 1450 877 1442 854 1442 C 830 1442 806 1448 782 1460 C 757 1472 732 1486 708 1500 C 683 1514 659 1528 635 1540 C 611 1552 589 1559 569 1559 C 553 1559 539 1555 526 1549 C 513 1543 501 1535 490 1525 C 479 1515 469 1505 460 1493 C 451 1481 443 1470 436 1460 L 387 1487 C 393 1507 404 1530 418 1556 C 432 1582 449 1606 468 1630 C 487 1654 508 1674 531 1690 C 553 1706 576 1714 600 1714 C 622 1714 646 1708 671 1696 C 696 1684 721 1670 746 1656 C 770 1641 794 1628 818 1616 C 842 1604 864 1598 885 1598 C 900 1598 914 1601 927 1607 C 940 1613 952 1621 963 1631 C 974 1640 984 1650 993 1662 C 1002 1674 1010 1685 1018 1696 L 1067 1669 Z" unicode="" />
<glyph horiz-adv-x="1462" d="M 1397 670 C 1397 565 1379 470 1345 384 C 1311 298 1263 225 1203 164 C 1143 102 1072 55 990 21 C 908 -12 819 -29 725 -29 C 631 -29 543 -13 463 18 C 382 49 312 94 254 153 C 195 211 149 282 116 366 C 82 450 66 544 66 649 C 66 753 83 848 118 934 C 152 1020 200 1093 260 1155 C 320 1216 391 1263 473 1297 C 555 1331 643 1348 737 1348 C 831 1348 918 1332 999 1300 C 1079 1268 1149 1223 1208 1165 C 1267 1106 1313 1035 1347 951 C 1380 867 1397 774 1397 670 Z M 1130 649 C 1130 744 1119 829 1099 905 C 1079 981 1051 1045 1015 1098 C 979 1151 936 1192 886 1220 C 836 1248 783 1262 725 1262 C 667 1262 613 1249 565 1223 C 517 1197 475 1159 441 1109 C 406 1059 379 997 360 923 C 341 849 332 765 332 670 C 332 574 342 489 362 413 C 382 337 411 273 447 220 C 483 167 525 127 575 99 C 625 71 679 57 737 57 C 795 57 849 70 897 96 C 945 122 986 160 1021 210 C 1055 260 1082 321 1101 395 C 1120 469 1130 553 1130 649 Z M 875 1430 L 832 1395 L 475 1700 L 627 1827 L 875 1430 Z" unicode="" />
<glyph horiz-adv-x="1462" d="M 1397 670 C 1397 565 1379 470 1345 384 C 1311 298 1263 225 1203 164 C 1143 102 1072 55 990 21 C 908 -12 819 -29 725 -29 C 631 -29 543 -13 463 18 C 382 49 312 94 254 153 C 195 211 149 282 116 366 C 82 450 66 544 66 649 C 66 753 83 848 118 934 C 152 1020 200 1093 260 1155 C 320 1216 391 1263 473 1297 C 555 1331 643 1348 737 1348 C 831 1348 918 1332 999 1300 C 1079 1268 1149 1223 1208 1165 C 1267 1106 1313 1035 1347 951 C 1380 867 1397 774 1397 670 Z M 1130 649 C 1130 744 1119 829 1099 905 C 1079 981 1051 1045 1015 1098 C 979 1151 936 1192 886 1220 C 836 1248 783 1262 725 1262 C 667 1262 613 1249 565 1223 C 517 1197 475 1159 441 1109 C 406 1059 379 997 360 923 C 341 849 332 765 332 670 C 332 574 342 489 362 413 C 382 337 411 273 447 220 C 483 167 525 127 575 99 C 625 71 679 57 737 57 C 795 57 849 70 897 96 C 945 122 986 160 1021 210 C 1055 260 1082 321 1101 395 C 1120 469 1130 553 1130 649 Z M 985 1700 L 629 1395 L 586 1430 L 834 1827 L 985 1700 Z" unicode="" />
<glyph horiz-adv-x="1462" d="M 1397 670 C 1397 565 1379 470 1345 384 C 1311 298 1263 225 1203 164 C 1143 102 1072 55 990 21 C 908 -12 819 -29 725 -29 C 631 -29 543 -13 463 18 C 382 49 312 94 254 153 C 195 211 149 282 116 366 C 82 450 66 544 66 649 C 66 753 83 848 118 934 C 152 1020 200 1093 260 1155 C 320 1216 391 1263 473 1297 C 555 1331 643 1348 737 1348 C 831 1348 918 1332 999 1300 C 1079 1268 1149 1223 1208 1165 C 1267 1106 1313 1035 1347 951 C 1380 867 1397 774 1397 670 Z M 1130 649 C 1130 744 1119 829 1099 905 C 1079 981 1051 1045 1015 1098 C 979 1151 936 1192 886 1220 C 836 1248 783 1262 725 1262 C 667 1262 613 1249 565 1223 C 517 1197 475 1159 441 1109 C 406 1059 379 997 360 923 C 341 849 332 765 332 670 C 332 574 342 489 362 413 C 382 337 411 273 447 220 C 483 167 525 127 575 99 C 625 71 679 57 737 57 C 795 57 849 70 897 96 C 945 122 986 160 1021 210 C 1055 260 1082 321 1101 395 C 1120 469 1130 553 1130 649 Z M 1012 1426 L 967 1393 L 731 1608 L 495 1393 L 450 1426 L 711 1819 L 751 1819 L 1012 1426 Z" unicode="" />
<glyph horiz-adv-x="1462" d="M 1397 670 C 1397 565 1379 470 1345 384 C 1311 298 1263 225 1203 164 C 1143 102 1072 55 990 21 C 908 -12 819 -29 725 -29 C 631 -29 543 -13 463 18 C 382 49 312 94 254 153 C 195 211 149 282 116 366 C 82 450 66 544 66 649 C 66 753 83 848 118 934 C 152 1020 200 1093 260 1155 C 320 1216 391 1263 473 1297 C 555 1331 643 1348 737 1348 C 831 1348 918 1332 999 1300 C 1079 1268 1149 1223 1208 1165 C 1267 1106 1313 1035 1347 951 C 1380 867 1397 774 1397 670 Z M 1130 649 C 1130 744 1119 829 1099 905 C 1079 981 1051 1045 1015 1098 C 979 1151 936 1192 886 1220 C 836 1248 783 1262 725 1262 C 667 1262 613 1249 565 1223 C 517 1197 475 1159 441 1109 C 406 1059 379 997 360 923 C 341 849 332 765 332 670 C 332 574 342 489 362 413 C 382 337 411 273 447 220 C 483 167 525 127 575 99 C 625 71 679 57 737 57 C 795 57 849 70 897 96 C 945 122 986 160 1021 210 C 1055 260 1082 321 1101 395 C 1120 469 1130 553 1130 649 Z M 1071 1669 C 1064 1649 1053 1626 1039 1600 C 1025 1574 1008 1549 989 1525 C 970 1501 949 1482 927 1466 C 904 1450 881 1442 858 1442 C 834 1442 810 1448 786 1460 C 761 1472 736 1486 712 1500 C 687 1514 663 1528 639 1540 C 615 1552 593 1559 573 1559 C 557 1559 543 1555 530 1549 C 517 1543 505 1535 494 1525 C 483 1515 473 1505 464 1493 C 455 1481 447 1470 440 1460 L 391 1487 C 397 1507 408 1530 422 1556 C 436 1582 453 1606 472 1630 C 491 1654 512 1674 535 1690 C 557 1706 580 1714 604 1714 C 626 1714 650 1708 675 1696 C 700 1684 725 1670 750 1656 C 774 1641 798 1628 822 1616 C 846 1604 868 1598 889 1598 C 904 1598 918 1601 931 1607 C 944 1613 956 1621 967 1631 C 978 1640 988 1650 997 1662 C 1006 1674 1014 1685 1022 1696 L 1071 1669 Z" unicode="" />
<glyph horiz-adv-x="1462" d="M 1397 670 C 1397 565 1379 470 1345 384 C 1311 298 1263 225 1203 164 C 1143 102 1072 55 990 21 C 908 -12 819 -29 725 -29 C 631 -29 543 -13 463 18 C 382 49 312 94 254 153 C 195 211 149 282 116 366 C 82 450 66 544 66 649 C 66 753 83 848 118 934 C 152 1020 200 1093 260 1155 C 320 1216 391 1263 473 1297 C 555 1331 643 1348 737 1348 C 831 1348 918 1332 999 1300 C 1079 1268 1149 1223 1208 1165 C 1267 1106 1313 1035 1347 951 C 1380 867 1397 774 1397 670 Z M 1130 649 C 1130 744 1119 829 1099 905 C 1079 981 1051 1045 1015 1098 C 979 1151 936 1192 886 1220 C 836 1248 783 1262 725 1262 C 667 1262 613 1249 565 1223 C 517 1197 475 1159 441 1109 C 406 1059 379 997 360 923 C 341 849 332 765 332 670 C 332 574 342 489 362 413 C 382 337 411 273 447 220 C 483 167 525 127 575 99 C 625 71 679 57 737 57 C 795 57 849 70 897 96 C 945 122 986 160 1021 210 C 1055 260 1082 321 1101 395 C 1120 469 1130 553 1130 649 Z M 1042 1569 C 1042 1553 1039 1538 1033 1524 C 1027 1510 1018 1497 1008 1487 C 998 1477 986 1469 972 1463 C 958 1457 944 1454 928 1454 C 912 1454 897 1457 883 1463 C 869 1469 856 1477 846 1487 C 836 1497 828 1510 822 1524 C 816 1538 813 1553 813 1569 C 813 1585 816 1599 822 1613 C 828 1627 836 1639 846 1650 C 856 1660 869 1669 883 1675 C 897 1681 912 1684 928 1684 C 944 1684 958 1681 972 1675 C 986 1669 998 1660 1008 1650 C 1018 1639 1027 1627 1033 1613 C 1039 1599 1042 1585 1042 1569 Z M 649 1569 C 649 1553 646 1538 640 1524 C 634 1510 625 1497 615 1487 C 605 1477 593 1469 579 1463 C 565 1457 550 1454 534 1454 C 518 1454 503 1457 489 1463 C 475 1469 463 1477 453 1487 C 443 1497 435 1510 429 1524 C 423 1538 420 1553 420 1569 C 420 1585 423 1599 429 1613 C 435 1627 443 1639 453 1650 C 463 1660 475 1669 489 1675 C 503 1681 518 1684 534 1684 C 550 1684 565 1681 579 1675 C 593 1669 605 1660 615 1650 C 625 1639 634 1627 640 1613 C 646 1599 649 1585 649 1569 Z" unicode="" />
<glyph horiz-adv-x="1241" d="M 1081 233 L 1001 154 L 621 539 L 240 154 L 160 233 L 545 614 L 160 995 L 240 1075 L 621 690 L 1001 1075 L 1081 995 L 696 614 L 1081 233 Z" unicode="" />
<glyph horiz-adv-x="1462" d="M 1397 670 C 1397 565 1379 470 1345 384 C 1311 298 1263 225 1203 164 C 1143 102 1072 55 990 21 C 908 -12 819 -29 725 -29 C 665 -29 608 -22 554 -9 C 500 3 449 22 401 47 L 297 -121 L 221 -72 L 324 94 C 243 152 180 227 134 321 C 88 415 66 524 66 649 C 66 753 83 848 118 934 C 152 1020 200 1093 260 1155 C 320 1216 391 1263 473 1297 C 555 1331 643 1348 737 1348 C 797 1348 854 1341 908 1328 C 962 1315 1013 1296 1061 1272 L 1165 1440 L 1241 1391 L 1139 1225 C 1219 1167 1282 1091 1328 997 C 1374 903 1397 794 1397 670 Z M 981 1143 C 947 1181 908 1210 864 1231 C 820 1251 774 1262 725 1262 C 667 1262 613 1249 565 1223 C 517 1197 475 1159 441 1109 C 406 1059 379 997 360 923 C 341 849 332 765 332 670 C 332 584 340 507 356 437 C 372 367 396 307 426 256 L 981 1143 Z M 1130 649 C 1130 734 1121 811 1105 881 C 1089 951 1066 1011 1036 1063 L 481 176 C 515 138 553 108 597 88 C 641 67 687 57 737 57 C 795 57 849 70 897 96 C 945 122 986 160 1021 210 C 1055 260 1082 321 1101 395 C 1120 469 1130 553 1130 649 Z" unicode="" />
<glyph horiz-adv-x="1405" d="M 1380 1257 L 1229 1229 L 1229 461 C 1229 379 1217 307 1194 246 C 1171 184 1138 133 1094 93 C 1050 52 996 21 932 1 C 868 -18 795 -29 713 -29 C 631 -29 559 -18 495 2 C 431 22 376 53 332 94 C 288 135 254 186 230 247 C 206 308 195 379 195 461 L 195 1233 L 35 1257 L 35 1319 L 596 1319 L 596 1257 L 436 1233 L 436 516 C 436 449 440 389 450 336 C 459 282 476 237 501 199 C 526 161 560 132 604 112 C 647 92 702 82 770 82 C 835 82 890 92 935 112 C 980 132 1016 160 1044 198 C 1072 235 1092 280 1104 333 C 1116 386 1122 446 1122 512 L 1122 1229 L 963 1257 L 963 1319 L 1380 1319 L 1380 1257 Z M 918 1430 L 875 1395 L 518 1700 L 670 1827 L 918 1430 Z" unicode="" />
<glyph horiz-adv-x="1405" d="M 1380 1257 L 1229 1229 L 1229 461 C 1229 379 1217 307 1194 246 C 1171 184 1138 133 1094 93 C 1050 52 996 21 932 1 C 868 -18 795 -29 713 -29 C 631 -29 559 -18 495 2 C 431 22 376 53 332 94 C 288 135 254 186 230 247 C 206 308 195 379 195 461 L 195 1233 L 35 1257 L 35 1319 L 596 1319 L 596 1257 L 436 1233 L 436 516 C 436 449 440 389 450 336 C 459 282 476 237 501 199 C 526 161 560 132 604 112 C 647 92 702 82 770 82 C 835 82 890 92 935 112 C 980 132 1016 160 1044 198 C 1072 235 1092 280 1104 333 C 1116 386 1122 446 1122 512 L 1122 1229 L 963 1257 L 963 1319 L 1380 1319 L 1380 1257 Z M 981 1700 L 625 1395 L 582 1430 L 830 1827 L 981 1700 Z" unicode="" />
<glyph horiz-adv-x="1405" d="M 1380 1257 L 1229 1229 L 1229 461 C 1229 379 1217 307 1194 246 C 1171 184 1138 133 1094 93 C 1050 52 996 21 932 1 C 868 -18 795 -29 713 -29 C 631 -29 559 -18 495 2 C 431 22 376 53 332 94 C 288 135 254 186 230 247 C 206 308 195 379 195 461 L 195 1233 L 35 1257 L 35 1319 L 596 1319 L 596 1257 L 436 1233 L 436 516 C 436 449 440 389 450 336 C 459 282 476 237 501 199 C 526 161 560 132 604 112 C 647 92 702 82 770 82 C 835 82 890 92 935 112 C 980 132 1016 160 1044 198 C 1072 235 1092 280 1104 333 C 1116 386 1122 446 1122 512 L 1122 1229 L 963 1257 L 963 1319 L 1380 1319 L 1380 1257 Z M 1045 1426 L 1000 1393 L 764 1608 L 528 1393 L 483 1426 L 744 1819 L 784 1819 L 1045 1426 Z" unicode="" />
<glyph horiz-adv-x="1405" d="M 1380 1257 L 1229 1229 L 1229 461 C 1229 379 1217 307 1194 246 C 1171 184 1138 133 1094 93 C 1050 52 996 21 932 1 C 868 -18 795 -29 713 -29 C 631 -29 559 -18 495 2 C 431 22 376 53 332 94 C 288 135 254 186 230 247 C 206 308 195 379 195 461 L 195 1233 L 35 1257 L 35 1319 L 596 1319 L 596 1257 L 436 1233 L 436 516 C 436 449 440 389 450 336 C 459 282 476 237 501 199 C 526 161 560 132 604 112 C 647 92 702 82 770 82 C 835 82 890 92 935 112 C 980 132 1016 160 1044 198 C 1072 235 1092 280 1104 333 C 1116 386 1122 446 1122 512 L 1122 1229 L 963 1257 L 963 1319 L 1380 1319 L 1380 1257 Z M 1073 1569 C 1073 1553 1070 1538 1064 1524 C 1058 1510 1049 1497 1039 1487 C 1029 1477 1017 1469 1003 1463 C 989 1457 975 1454 959 1454 C 943 1454 928 1457 914 1463 C 900 1469 887 1477 877 1487 C 867 1497 859 1510 853 1524 C 847 1538 844 1553 844 1569 C 844 1585 847 1599 853 1613 C 859 1627 867 1639 877 1650 C 887 1660 900 1669 914 1675 C 928 1681 943 1684 959 1684 C 975 1684 989 1681 1003 1675 C 1017 1669 1029 1660 1039 1650 C 1049 1639 1058 1627 1064 1613 C 1070 1599 1073 1585 1073 1569 Z M 680 1569 C 680 1553 677 1538 671 1524 C 665 1510 656 1497 646 1487 C 636 1477 624 1469 610 1463 C 596 1457 581 1454 565 1454 C 549 1454 534 1457 520 1463 C 506 1469 494 1477 484 1487 C 474 1497 466 1510 460 1524 C 454 1538 451 1553 451 1569 C 451 1585 454 1599 460 1613 C 466 1627 474 1639 484 1650 C 494 1660 506 1669 520 1675 C 534 1681 549 1684 565 1684 C 581 1684 596 1681 610 1675 C 624 1669 636 1660 646 1650 C 656 1639 665 1627 671 1613 C 677 1599 680 1585 680 1569 Z" unicode="" />
<glyph horiz-adv-x="1225" d="M 1221 1257 L 1110 1229 L 741 549 L 741 86 L 913 61 L 913 0 L 328 0 L 328 61 L 500 86 L 500 520 L 115 1229 L 4 1257 L 4 1319 L 551 1319 L 551 1257 L 381 1233 L 690 645 L 999 1233 L 829 1257 L 829 1319 L 1221 1319 L 1221 1257 Z M 880 1700 L 524 1395 L 481 1430 L 729 1827 L 880 1700 Z" unicode="" />
<glyph horiz-adv-x="1108" d="M 1077 733 C 1077 669 1066 612 1045 560 C 1023 508 991 463 949 426 C 907 389 854 361 791 341 C 728 321 655 311 573 311 C 568 311 562 311 554 311 C 546 311 537 312 528 313 C 519 314 510 315 501 317 C 492 318 485 320 479 322 L 479 86 L 680 61 L 680 0 L 78 0 L 78 61 L 238 86 L 238 1233 L 78 1257 L 78 1319 L 639 1319 L 639 1257 L 479 1233 L 479 1073 L 621 1073 C 686 1073 746 1065 802 1050 C 858 1034 906 1012 947 983 C 987 953 1019 918 1042 876 C 1065 834 1077 786 1077 733 Z M 831 721 C 831 763 824 802 811 836 C 798 870 780 900 756 924 C 732 948 704 966 672 979 C 639 992 603 999 565 999 C 551 999 537 998 522 997 C 506 996 492 995 479 993 L 479 403 C 487 401 495 400 505 399 C 515 397 525 396 535 395 C 545 394 554 393 563 393 C 572 393 580 393 586 393 C 628 393 665 401 696 418 C 727 434 753 457 773 487 C 793 516 807 551 817 591 C 826 631 831 674 831 721 Z" unicode="" />
<glyph horiz-adv-x="1151" d="M 1126 246 C 1126 204 1117 166 1101 132 C 1084 98 1061 68 1032 44 C 1002 19 968 0 929 -14 C 889 -28 847 -35 803 -35 C 777 -35 750 -33 722 -29 C 694 -25 667 -20 641 -14 C 615 -8 591 0 569 9 C 547 18 528 29 514 41 L 508 266 L 563 270 C 567 236 575 205 586 177 C 596 148 610 123 628 102 C 646 81 667 65 693 53 C 719 41 749 35 784 35 C 829 35 865 49 891 77 C 917 105 930 140 930 184 C 930 202 926 220 920 236 C 913 252 902 268 887 284 C 872 300 853 316 829 333 C 805 349 777 367 743 387 C 673 427 619 471 583 520 C 546 568 528 626 528 692 C 528 724 533 753 545 780 C 557 807 573 832 594 855 C 614 877 639 898 668 916 C 696 934 728 951 762 965 C 765 975 768 989 770 1006 C 772 1022 774 1040 775 1058 C 776 1076 777 1094 777 1112 C 777 1130 778 1145 778 1157 C 778 1187 774 1218 767 1248 C 760 1278 750 1305 736 1329 C 722 1353 704 1372 683 1387 C 661 1401 636 1409 608 1409 C 574 1409 543 1402 516 1389 C 489 1375 466 1355 447 1327 C 428 1299 414 1264 404 1221 C 394 1178 389 1127 389 1069 L 389 0 L 43 0 L 43 53 L 168 78 L 168 774 L 35 774 L 35 836 L 168 874 L 168 993 C 168 1067 178 1135 199 1195 C 220 1255 250 1306 290 1348 C 329 1390 376 1422 432 1445 C 488 1467 551 1479 621 1479 C 676 1479 726 1471 770 1455 C 814 1439 851 1416 882 1387 C 912 1358 936 1324 952 1284 C 968 1244 977 1201 977 1155 C 977 1143 976 1128 975 1110 C 974 1092 973 1073 971 1055 C 969 1036 966 1018 964 1000 C 961 982 958 968 954 956 C 922 950 893 942 865 930 C 837 918 813 904 792 887 C 771 870 755 850 743 827 C 731 804 725 778 725 750 C 725 728 727 709 732 692 C 736 674 745 657 759 641 C 772 625 791 608 815 590 C 839 572 871 551 911 528 C 949 505 982 483 1009 463 C 1036 442 1058 421 1076 399 C 1093 377 1106 353 1114 328 C 1122 303 1126 276 1126 246 Z" unicode="" />
<glyph horiz-adv-x="901" d="M 913 70 C 890 40 862 17 829 0 C 795 -16 758 -25 717 -25 C 673 -25 636 -14 606 7 C 575 28 553 58 539 98 C 522 81 505 65 487 50 C 469 35 451 22 431 11 C 411 0 389 -8 367 -15 C 344 -21 319 -25 293 -25 C 259 -25 227 -19 197 -7 C 167 4 140 20 118 40 C 96 60 78 85 65 113 C 51 141 45 173 45 207 C 45 251 53 288 69 320 C 85 351 107 377 135 399 C 163 421 195 438 232 451 C 269 463 308 473 350 481 L 526 512 L 526 647 C 526 670 523 691 518 710 C 512 729 504 745 493 759 C 481 772 466 782 448 790 C 430 797 407 801 381 801 C 333 801 289 787 249 761 C 208 734 174 700 147 659 L 86 725 C 130 782 180 825 236 854 C 291 882 356 897 432 897 C 535 897 613 875 667 831 C 721 787 748 721 748 635 L 748 209 C 748 186 750 167 754 153 C 758 138 763 126 770 118 C 777 109 785 103 795 99 C 805 95 815 94 827 94 C 841 94 854 96 865 101 C 876 106 887 113 897 123 L 913 70 Z M 526 158 L 526 446 L 393 420 C 349 410 313 390 286 359 C 259 328 246 289 246 242 C 246 220 249 200 257 182 C 264 164 274 148 287 135 C 299 121 314 111 332 103 C 349 95 367 92 387 92 C 411 92 436 98 462 110 C 487 122 508 138 526 158 Z M 577 1008 L 534 973 L 177 1278 L 329 1405 L 577 1008 Z" unicode="" />
<glyph horiz-adv-x="901" d="M 913 70 C 890 40 862 17 829 0 C 795 -16 758 -25 717 -25 C 673 -25 636 -14 606 7 C 575 28 553 58 539 98 C 522 81 505 65 487 50 C 469 35 451 22 431 11 C 411 0 389 -8 367 -15 C 344 -21 319 -25 293 -25 C 259 -25 227 -19 197 -7 C 167 4 140 20 118 40 C 96 60 78 85 65 113 C 51 141 45 173 45 207 C 45 251 53 288 69 320 C 85 351 107 377 135 399 C 163 421 195 438 232 451 C 269 463 308 473 350 481 L 526 512 L 526 647 C 526 670 523 691 518 710 C 512 729 504 745 493 759 C 481 772 466 782 448 790 C 430 797 407 801 381 801 C 333 801 289 787 249 761 C 208 734 174 700 147 659 L 86 725 C 130 782 180 825 236 854 C 291 882 356 897 432 897 C 535 897 613 875 667 831 C 721 787 748 721 748 635 L 748 209 C 748 186 750 167 754 153 C 758 138 763 126 770 118 C 777 109 785 103 795 99 C 805 95 815 94 827 94 C 841 94 854 96 865 101 C 876 106 887 113 897 123 L 913 70 Z M 526 158 L 526 446 L 393 420 C 349 410 313 390 286 359 C 259 328 246 289 246 242 C 246 220 249 200 257 182 C 264 164 274 148 287 135 C 299 121 314 111 332 103 C 349 95 367 92 387 92 C 411 92 436 98 462 110 C 487 122 508 138 526 158 Z M 699 1278 L 343 973 L 300 1008 L 548 1405 L 699 1278 Z" unicode="" />
<glyph horiz-adv-x="901" d="M 913 70 C 890 40 862 17 829 0 C 795 -16 758 -25 717 -25 C 673 -25 636 -14 606 7 C 575 28 553 58 539 98 C 522 81 505 65 487 50 C 469 35 451 22 431 11 C 411 0 389 -8 367 -15 C 344 -21 319 -25 293 -25 C 259 -25 227 -19 197 -7 C 167 4 140 20 118 40 C 96 60 78 85 65 113 C 51 141 45 173 45 207 C 45 251 53 288 69 320 C 85 351 107 377 135 399 C 163 421 195 438 232 451 C 269 463 308 473 350 481 L 526 512 L 526 647 C 526 670 523 691 518 710 C 512 729 504 745 493 759 C 481 772 466 782 448 790 C 430 797 407 801 381 801 C 333 801 289 787 249 761 C 208 734 174 700 147 659 L 86 725 C 130 782 180 825 236 854 C 291 882 356 897 432 897 C 535 897 613 875 667 831 C 721 787 748 721 748 635 L 748 209 C 748 186 750 167 754 153 C 758 138 763 126 770 118 C 777 109 785 103 795 99 C 805 95 815 94 827 94 C 841 94 854 96 865 101 C 876 106 887 113 897 123 L 913 70 Z M 526 158 L 526 446 L 393 420 C 349 410 313 390 286 359 C 259 328 246 289 246 242 C 246 220 249 200 257 182 C 264 164 274 148 287 135 C 299 121 314 111 332 103 C 349 95 367 92 387 92 C 411 92 436 98 462 110 C 487 122 508 138 526 158 Z M 712 1004 L 667 971 L 431 1186 L 195 971 L 150 1004 L 411 1397 L 451 1397 L 712 1004 Z" unicode="" />
<glyph horiz-adv-x="901" d="M 913 70 C 890 40 862 17 829 0 C 795 -16 758 -25 717 -25 C 673 -25 636 -14 606 7 C 575 28 553 58 539 98 C 522 81 505 65 487 50 C 469 35 451 22 431 11 C 411 0 389 -8 367 -15 C 344 -21 319 -25 293 -25 C 259 -25 227 -19 197 -7 C 167 4 140 20 118 40 C 96 60 78 85 65 113 C 51 141 45 173 45 207 C 45 251 53 288 69 320 C 85 351 107 377 135 399 C 163 421 195 438 232 451 C 269 463 308 473 350 481 L 526 512 L 526 647 C 526 670 523 691 518 710 C 512 729 504 745 493 759 C 481 772 466 782 448 790 C 430 797 407 801 381 801 C 333 801 289 787 249 761 C 208 734 174 700 147 659 L 86 725 C 130 782 180 825 236 854 C 291 882 356 897 432 897 C 535 897 613 875 667 831 C 721 787 748 721 748 635 L 748 209 C 748 186 750 167 754 153 C 758 138 763 126 770 118 C 777 109 785 103 795 99 C 805 95 815 94 827 94 C 841 94 854 96 865 101 C 876 106 887 113 897 123 L 913 70 Z M 526 158 L 526 446 L 393 420 C 349 410 313 390 286 359 C 259 328 246 289 246 242 C 246 220 249 200 257 182 C 264 164 274 148 287 135 C 299 121 314 111 332 103 C 349 95 367 92 387 92 C 411 92 436 98 462 110 C 487 122 508 138 526 158 Z M 779 1247 C 772 1227 761 1204 747 1178 C 733 1152 716 1127 697 1103 C 678 1079 657 1060 635 1044 C 612 1028 589 1020 566 1020 C 542 1020 518 1026 494 1038 C 469 1050 444 1064 420 1078 C 395 1092 371 1106 347 1118 C 323 1130 301 1137 281 1137 C 265 1137 251 1133 238 1127 C 225 1121 213 1113 202 1103 C 191 1093 181 1083 172 1071 C 163 1059 155 1048 148 1038 L 99 1065 C 105 1085 116 1108 130 1134 C 144 1160 161 1184 180 1208 C 199 1232 220 1252 243 1268 C 265 1284 288 1292 312 1292 C 334 1292 358 1286 383 1274 C 408 1262 433 1248 458 1234 C 482 1219 506 1206 530 1194 C 554 1182 576 1176 597 1176 C 612 1176 626 1179 639 1185 C 652 1191 664 1199 675 1209 C 686 1218 696 1228 705 1240 C 714 1252 722 1263 730 1274 L 779 1247 Z" unicode="" />
<glyph horiz-adv-x="901" d="M 913 70 C 890 40 862 17 829 0 C 795 -16 758 -25 717 -25 C 673 -25 636 -14 606 7 C 575 28 553 58 539 98 C 522 81 505 65 487 50 C 469 35 451 22 431 11 C 411 0 389 -8 367 -15 C 344 -21 319 -25 293 -25 C 259 -25 227 -19 197 -7 C 167 4 140 20 118 40 C 96 60 78 85 65 113 C 51 141 45 173 45 207 C 45 251 53 288 69 320 C 85 351 107 377 135 399 C 163 421 195 438 232 451 C 269 463 308 473 350 481 L 526 512 L 526 647 C 526 670 523 691 518 710 C 512 729 504 745 493 759 C 481 772 466 782 448 790 C 430 797 407 801 381 801 C 333 801 289 787 249 761 C 208 734 174 700 147 659 L 86 725 C 130 782 180 825 236 854 C 291 882 356 897 432 897 C 535 897 613 875 667 831 C 721 787 748 721 748 635 L 748 209 C 748 186 750 167 754 153 C 758 138 763 126 770 118 C 777 109 785 103 795 99 C 805 95 815 94 827 94 C 841 94 854 96 865 101 C 876 106 887 113 897 123 L 913 70 Z M 526 158 L 526 446 L 393 420 C 349 410 313 390 286 359 C 259 328 246 289 246 242 C 246 220 249 200 257 182 C 264 164 274 148 287 135 C 299 121 314 111 332 103 C 349 95 367 92 387 92 C 411 92 436 98 462 110 C 487 122 508 138 526 158 Z M 740 1147 C 740 1131 737 1116 731 1102 C 725 1088 716 1075 706 1065 C 696 1055 684 1047 670 1041 C 656 1035 642 1032 626 1032 C 610 1032 595 1035 581 1041 C 567 1047 554 1055 544 1065 C 534 1075 526 1088 520 1102 C 514 1116 511 1131 511 1147 C 511 1163 514 1177 520 1191 C 526 1205 534 1217 544 1228 C 554 1238 567 1247 581 1253 C 595 1259 610 1262 626 1262 C 642 1262 656 1259 670 1253 C 684 1247 696 1238 706 1228 C 716 1217 725 1205 731 1191 C 737 1177 740 1163 740 1147 Z M 347 1147 C 347 1131 344 1116 338 1102 C 332 1088 323 1075 313 1065 C 303 1055 291 1047 277 1041 C 263 1035 248 1032 232 1032 C 216 1032 201 1035 187 1041 C 173 1047 161 1055 151 1065 C 141 1075 133 1088 127 1102 C 121 1116 118 1131 118 1147 C 118 1163 121 1177 127 1191 C 133 1205 141 1217 151 1228 C 161 1238 173 1247 187 1253 C 201 1259 216 1262 232 1262 C 248 1262 263 1259 277 1253 C 291 1247 303 1238 313 1228 C 323 1217 332 1205 338 1191 C 344 1177 347 1163 347 1147 Z" unicode="" />
<glyph horiz-adv-x="901" d="M 913 70 C 890 40 862 17 829 0 C 795 -16 758 -25 717 -25 C 673 -25 636 -14 606 7 C 575 28 553 58 539 98 C 522 81 505 65 487 50 C 469 35 451 22 431 11 C 411 0 389 -8 367 -15 C 344 -21 319 -25 293 -25 C 259 -25 227 -19 197 -7 C 167 4 140 20 118 40 C 96 60 78 85 65 113 C 51 141 45 173 45 207 C 45 251 53 288 69 320 C 85 351 107 377 135 399 C 163 421 195 438 232 451 C 269 463 308 473 350 481 L 526 512 L 526 647 C 526 670 523 691 518 710 C 512 729 504 745 493 759 C 481 772 466 782 448 790 C 430 797 407 801 381 801 C 333 801 289 787 249 761 C 208 734 174 700 147 659 L 86 725 C 130 782 180 825 236 854 C 291 882 356 897 432 897 C 535 897 613 875 667 831 C 721 787 748 721 748 635 L 748 209 C 748 186 750 167 754 153 C 758 138 763 126 770 118 C 777 109 785 103 795 99 C 805 95 815 94 827 94 C 841 94 854 96 865 101 C 876 106 887 113 897 123 L 913 70 Z M 526 158 L 526 446 L 393 420 C 349 410 313 390 286 359 C 259 328 246 289 246 242 C 246 220 249 200 257 182 C 264 164 274 148 287 135 C 299 121 314 111 332 103 C 349 95 367 92 387 92 C 411 92 436 98 462 110 C 487 122 508 138 526 158 Z M 660 1188 C 660 1156 654 1127 642 1102 C 630 1077 613 1056 593 1039 C 573 1021 549 1008 522 999 C 494 989 465 985 435 985 C 404 985 375 989 348 999 C 320 1008 296 1021 276 1039 C 256 1056 240 1077 228 1102 C 216 1127 210 1156 210 1188 C 210 1220 216 1248 228 1273 C 240 1298 256 1319 276 1337 C 296 1354 320 1367 348 1377 C 375 1386 404 1391 435 1391 C 465 1391 494 1386 522 1377 C 549 1367 573 1354 593 1337 C 613 1319 630 1298 642 1273 C 654 1248 660 1220 660 1188 Z M 533 1188 C 533 1205 531 1222 527 1238 C 523 1254 517 1268 509 1280 C 501 1292 490 1302 478 1310 C 466 1317 451 1321 435 1321 C 418 1321 403 1317 391 1310 C 379 1303 369 1294 361 1282 C 353 1270 347 1256 343 1240 C 339 1224 337 1206 337 1188 C 337 1170 339 1154 343 1138 C 347 1122 353 1107 361 1095 C 369 1083 379 1073 391 1066 C 403 1058 418 1055 435 1055 C 451 1055 466 1058 478 1066 C 490 1073 501 1083 509 1095 C 517 1107 523 1122 527 1138 C 531 1154 533 1170 533 1188 Z" unicode="" />
<glyph horiz-adv-x="1395" d="M 1341 483 L 748 483 C 746 475 745 465 745 453 C 745 441 745 432 745 426 C 745 379 751 334 764 292 C 776 250 794 212 817 180 C 840 148 868 122 901 103 C 933 83 970 74 1010 74 C 1040 74 1068 77 1094 83 C 1119 89 1142 98 1163 109 C 1184 120 1204 133 1222 149 C 1240 164 1257 181 1274 199 L 1325 139 C 1299 111 1274 87 1248 67 C 1222 46 1195 29 1165 15 C 1135 1 1104 -8 1070 -15 C 1036 -21 998 -25 958 -25 C 881 -25 812 -10 752 19 C 691 48 643 89 608 141 L 604 141 C 587 121 569 102 549 82 C 529 62 507 45 482 29 C 457 13 429 0 398 -10 C 367 -20 332 -25 293 -25 C 259 -25 227 -19 197 -7 C 167 4 140 20 118 40 C 96 60 78 85 65 113 C 51 141 45 173 45 207 C 45 251 53 288 69 320 C 85 351 107 377 135 399 C 163 421 195 438 232 451 C 269 463 308 473 350 481 L 526 512 L 526 647 C 526 670 523 691 518 711 C 513 730 505 746 494 760 C 482 774 468 784 450 792 C 432 799 409 803 383 803 C 359 803 335 799 313 792 C 290 784 269 774 249 761 C 229 748 210 733 193 716 C 175 698 160 679 147 659 L 86 723 C 111 753 136 780 160 802 C 184 824 210 842 237 856 C 264 870 293 880 325 887 C 356 893 392 897 432 897 C 497 897 549 888 588 871 C 627 853 659 826 684 788 C 723 826 766 853 814 869 C 862 885 913 893 967 893 C 1026 893 1079 884 1125 867 C 1171 850 1211 826 1243 794 C 1275 762 1299 723 1316 677 C 1332 631 1341 579 1341 522 L 1341 483 Z M 1112 555 C 1112 587 1109 620 1105 652 C 1101 684 1093 714 1081 740 C 1069 766 1052 787 1032 803 C 1011 819 984 827 952 827 C 920 827 892 818 869 802 C 845 786 826 765 810 739 C 794 713 781 683 772 651 C 762 619 756 587 754 555 L 1112 555 Z M 526 158 L 526 446 L 393 420 C 349 410 313 390 286 359 C 259 328 246 289 246 242 C 246 220 249 200 257 182 C 264 164 274 148 287 135 C 299 121 314 111 332 103 C 349 95 367 92 387 92 C 411 92 436 98 462 110 C 487 122 508 138 526 158 Z" unicode="" />
<glyph horiz-adv-x="889" d="M 428 -23 C 372 -17 321 -2 275 22 C 228 46 188 77 154 117 C 120 156 93 202 74 256 C 54 310 45 370 45 436 C 45 500 56 561 80 617 C 103 673 135 721 176 762 C 216 802 264 834 320 858 C 376 881 436 893 502 893 C 522 893 542 892 564 890 C 585 888 606 885 627 881 C 647 876 667 870 686 863 C 705 855 723 846 739 834 L 766 889 L 821 889 L 807 612 L 737 612 C 723 683 700 737 666 773 C 632 809 582 827 516 827 C 481 827 449 817 420 799 C 391 781 366 755 345 722 C 324 689 308 650 296 604 C 284 558 279 508 279 453 C 279 395 285 343 298 297 C 311 250 329 210 353 177 C 377 144 405 119 437 101 C 469 83 505 74 545 74 C 594 74 640 84 682 104 C 724 124 763 153 797 193 L 848 133 C 822 103 796 79 770 59 C 744 39 717 24 689 12 C 661 0 632 -8 602 -14 C 571 -20 538 -23 504 -25 L 473 -135 C 497 -141 521 -149 543 -159 C 565 -169 585 -181 602 -196 C 619 -210 633 -227 643 -247 C 653 -267 659 -289 659 -315 C 659 -353 652 -386 639 -414 C 625 -442 606 -465 581 -483 C 556 -501 526 -514 491 -523 C 455 -532 416 -537 373 -537 C 352 -537 329 -534 303 -528 C 277 -522 256 -515 238 -506 L 264 -434 C 279 -442 298 -450 320 -457 C 342 -463 362 -467 381 -467 C 399 -467 417 -465 433 -461 C 449 -457 462 -450 474 -442 C 486 -434 495 -423 502 -409 C 508 -395 512 -378 512 -358 C 512 -338 509 -321 503 -307 C 497 -292 486 -279 472 -268 C 457 -256 437 -246 413 -238 C 389 -229 358 -221 322 -215 L 428 -23 Z" unicode="" />
<glyph horiz-adv-x="928" d="M 874 483 L 281 483 C 279 475 279 465 279 453 C 279 441 279 432 279 426 C 279 379 285 334 297 292 C 309 250 327 212 350 180 C 373 148 401 122 434 103 C 466 83 503 74 543 74 C 573 74 601 77 627 83 C 652 89 675 98 696 109 C 717 120 737 133 755 149 C 773 164 790 181 807 199 L 858 139 C 832 111 807 87 781 67 C 755 46 728 29 699 15 C 669 1 638 -8 604 -15 C 570 -21 532 -25 492 -25 C 426 -25 365 -14 311 7 C 256 29 209 60 170 100 C 130 140 100 188 78 245 C 56 301 45 364 45 434 C 45 500 56 562 80 618 C 103 674 135 722 176 763 C 216 803 264 835 320 858 C 375 881 435 893 500 893 C 559 893 612 884 658 867 C 704 850 744 826 776 794 C 808 762 832 723 849 677 C 865 631 874 579 874 522 L 874 483 Z M 645 555 C 645 587 642 620 638 652 C 634 684 626 714 614 740 C 602 766 585 787 565 803 C 544 819 517 827 485 827 C 453 827 425 818 402 802 C 378 786 359 765 343 739 C 327 713 314 683 305 651 C 295 619 289 587 287 555 L 645 555 Z M 605 1008 L 562 973 L 205 1278 L 357 1405 L 605 1008 Z" unicode="" />
<glyph horiz-adv-x="928" d="M 874 483 L 281 483 C 279 475 279 465 279 453 C 279 441 279 432 279 426 C 279 379 285 334 297 292 C 309 250 327 212 350 180 C 373 148 401 122 434 103 C 466 83 503 74 543 74 C 573 74 601 77 627 83 C 652 89 675 98 696 109 C 717 120 737 133 755 149 C 773 164 790 181 807 199 L 858 139 C 832 111 807 87 781 67 C 755 46 728 29 699 15 C 669 1 638 -8 604 -15 C 570 -21 532 -25 492 -25 C 426 -25 365 -14 311 7 C 256 29 209 60 170 100 C 130 140 100 188 78 245 C 56 301 45 364 45 434 C 45 500 56 562 80 618 C 103 674 135 722 176 763 C 216 803 264 835 320 858 C 375 881 435 893 500 893 C 559 893 612 884 658 867 C 704 850 744 826 776 794 C 808 762 832 723 849 677 C 865 631 874 579 874 522 L 874 483 Z M 645 555 C 645 587 642 620 638 652 C 634 684 626 714 614 740 C 602 766 585 787 565 803 C 544 819 517 827 485 827 C 453 827 425 818 402 802 C 378 786 359 765 343 739 C 327 713 314 683 305 651 C 295 619 289 587 287 555 L 645 555 Z M 742 1278 L 386 973 L 343 1008 L 591 1405 L 742 1278 Z" unicode="" />
<glyph horiz-adv-x="928" d="M 874 483 L 281 483 C 279 475 279 465 279 453 C 279 441 279 432 279 426 C 279 379 285 334 297 292 C 309 250 327 212 350 180 C 373 148 401 122 434 103 C 466 83 503 74 543 74 C 573 74 601 77 627 83 C 652 89 675 98 696 109 C 717 120 737 133 755 149 C 773 164 790 181 807 199 L 858 139 C 832 111 807 87 781 67 C 755 46 728 29 699 15 C 669 1 638 -8 604 -15 C 570 -21 532 -25 492 -25 C 426 -25 365 -14 311 7 C 256 29 209 60 170 100 C 130 140 100 188 78 245 C 56 301 45 364 45 434 C 45 500 56 562 80 618 C 103 674 135 722 176 763 C 216 803 264 835 320 858 C 375 881 435 893 500 893 C 559 893 612 884 658 867 C 704 850 744 826 776 794 C 808 762 832 723 849 677 C 865 631 874 579 874 522 L 874 483 Z M 645 555 C 645 587 642 620 638 652 C 634 684 626 714 614 740 C 602 766 585 787 565 803 C 544 819 517 827 485 827 C 453 827 425 818 402 802 C 378 786 359 765 343 739 C 327 713 314 683 305 651 C 295 619 289 587 287 555 L 645 555 Z M 761 1004 L 716 971 L 480 1186 L 244 971 L 199 1004 L 460 1397 L 500 1397 L 761 1004 Z" unicode="" />
<glyph horiz-adv-x="928" d="M 874 483 L 281 483 C 279 475 279 465 279 453 C 279 441 279 432 279 426 C 279 379 285 334 297 292 C 309 250 327 212 350 180 C 373 148 401 122 434 103 C 466 83 503 74 543 74 C 573 74 601 77 627 83 C 652 89 675 98 696 109 C 717 120 737 133 755 149 C 773 164 790 181 807 199 L 858 139 C 832 111 807 87 781 67 C 755 46 728 29 699 15 C 669 1 638 -8 604 -15 C 570 -21 532 -25 492 -25 C 426 -25 365 -14 311 7 C 256 29 209 60 170 100 C 130 140 100 188 78 245 C 56 301 45 364 45 434 C 45 500 56 562 80 618 C 103 674 135 722 176 763 C 216 803 264 835 320 858 C 375 881 435 893 500 893 C 559 893 612 884 658 867 C 704 850 744 826 776 794 C 808 762 832 723 849 677 C 865 631 874 579 874 522 L 874 483 Z M 645 555 C 645 587 642 620 638 652 C 634 684 626 714 614 740 C 602 766 585 787 565 803 C 544 819 517 827 485 827 C 453 827 425 818 402 802 C 378 786 359 765 343 739 C 327 713 314 683 305 651 C 295 619 289 587 287 555 L 645 555 Z M 787 1147 C 787 1131 784 1116 778 1102 C 772 1088 763 1075 753 1065 C 743 1055 731 1047 717 1041 C 703 1035 689 1032 673 1032 C 657 1032 642 1035 628 1041 C 614 1047 601 1055 591 1065 C 581 1075 573 1088 567 1102 C 561 1116 558 1131 558 1147 C 558 1163 561 1177 567 1191 C 573 1205 581 1217 591 1228 C 601 1238 614 1247 628 1253 C 642 1259 657 1262 673 1262 C 689 1262 703 1259 717 1253 C 731 1247 743 1238 753 1228 C 763 1217 772 1205 778 1191 C 784 1177 787 1163 787 1147 Z M 394 1147 C 394 1131 391 1116 385 1102 C 379 1088 370 1075 360 1065 C 350 1055 338 1047 324 1041 C 310 1035 295 1032 279 1032 C 263 1032 248 1035 234 1041 C 220 1047 208 1055 198 1065 C 188 1075 180 1088 174 1102 C 168 1116 165 1131 165 1147 C 165 1163 168 1177 174 1191 C 180 1205 188 1217 198 1228 C 208 1238 220 1247 234 1253 C 248 1259 263 1262 279 1262 C 295 1262 310 1259 324 1253 C 338 1247 350 1238 360 1228 C 370 1217 379 1205 385 1191 C 391 1177 394 1163 394 1147 Z" unicode="" />
<glyph horiz-adv-x="551" d="M 518 0 L 47 0 L 47 53 L 172 74 L 172 766 L 47 788 L 47 846 L 393 893 L 393 74 L 518 53 L 518 0 Z M 407 1008 L 364 973 L 7 1278 L 159 1405 L 407 1008 Z" unicode="" />
<glyph horiz-adv-x="551" d="M 518 0 L 47 0 L 47 53 L 172 74 L 172 766 L 47 788 L 47 846 L 393 893 L 393 74 L 518 53 L 518 0 Z M 519 1278 L 163 973 L 120 1008 L 368 1405 L 519 1278 Z" unicode="" />
<glyph horiz-adv-x="551" d="M 518 0 L 47 0 L 47 53 L 172 74 L 172 766 L 47 788 L 47 846 L 393 893 L 393 74 L 518 53 L 518 0 Z M 544 1004 L 499 971 L 263 1186 L 27 971 L -18 1004 L 243 1397 L 283 1397 L 544 1004 Z" unicode="" />
<glyph horiz-adv-x="551" d="M 553 1147 C 553 1131 550 1116 544 1102 C 538 1088 529 1075 519 1065 C 509 1055 497 1047 483 1041 C 469 1035 454 1032 438 1032 C 422 1032 407 1035 393 1041 C 379 1047 367 1055 357 1065 C 347 1075 339 1088 333 1102 C 327 1116 324 1131 324 1147 C 324 1163 327 1177 333 1191 C 339 1205 347 1217 357 1228 C 367 1238 379 1247 393 1253 C 407 1259 422 1262 438 1262 C 454 1262 469 1259 483 1253 C 497 1247 509 1238 519 1228 C 529 1217 538 1205 544 1191 C 550 1177 553 1163 553 1147 Z M 201 1147 C 201 1131 198 1116 192 1102 C 186 1088 177 1075 167 1065 C 157 1055 145 1047 131 1041 C 117 1035 102 1032 86 1032 C 70 1032 55 1035 41 1041 C 27 1047 15 1055 5 1065 C -5 1075 -14 1088 -20 1102 C -26 1116 -29 1131 -29 1147 C -29 1163 -26 1177 -20 1191 C -14 1205 -5 1217 5 1228 C 15 1238 27 1247 41 1253 C 55 1259 70 1262 86 1262 C 102 1262 117 1259 131 1253 C 145 1247 157 1238 167 1228 C 177 1217 186 1205 192 1191 C 198 1177 201 1163 201 1147 Z M 518 0 L 47 0 L 47 53 L 172 74 L 172 766 L 47 788 L 47 846 L 393 893 L 393 74 L 518 53 L 518 0 Z" unicode="" />
<glyph horiz-adv-x="1014" d="M 948 500 C 948 424 937 354 917 290 C 896 226 866 170 827 124 C 788 77 741 40 686 14 C 630 -11 568 -25 500 -25 C 436 -25 377 -13 322 8 C 266 30 218 62 177 103 C 136 143 104 192 80 248 C 56 304 45 366 45 434 C 45 502 56 564 79 620 C 102 676 134 724 175 765 C 215 805 263 837 318 859 C 373 881 432 893 496 893 C 508 893 521 892 535 891 C 549 889 562 887 576 885 C 590 882 603 878 615 874 C 627 869 639 864 649 858 L 649 860 C 641 903 627 947 608 991 C 588 1035 566 1078 541 1120 L 270 999 L 236 1069 L 496 1186 C 462 1231 426 1274 387 1315 C 348 1355 307 1392 264 1425 L 356 1462 C 404 1433 451 1401 497 1365 C 543 1329 587 1289 629 1245 L 870 1354 L 905 1284 L 684 1184 C 722 1138 758 1089 790 1037 C 822 985 850 931 874 874 C 897 816 915 756 928 694 C 941 631 948 566 948 500 Z M 705 457 C 705 521 700 576 690 623 C 680 669 667 708 649 738 C 631 768 609 790 584 805 C 558 819 530 827 500 827 C 434 827 382 793 346 727 C 309 660 291 562 291 434 C 291 306 309 208 347 141 C 385 74 437 41 504 41 C 570 41 620 75 654 145 C 688 214 705 318 705 457 Z" unicode="" />
<glyph horiz-adv-x="1106" d="M 1085 0 L 616 0 L 616 53 L 739 74 L 739 725 C 729 742 715 756 696 768 C 676 780 651 786 621 786 C 579 786 543 776 514 757 C 485 738 462 712 444 680 C 426 648 413 610 405 568 C 397 526 393 482 393 436 L 393 74 L 516 53 L 516 0 L 47 0 L 47 53 L 172 74 L 172 766 L 47 788 L 47 846 L 381 885 L 381 670 L 383 670 C 413 746 454 802 507 838 C 559 874 620 893 688 893 C 734 893 774 885 808 871 C 842 857 871 836 893 810 C 915 784 932 752 944 715 C 955 677 961 636 961 590 L 961 74 L 1085 53 L 1085 0 Z M 887 1247 C 880 1227 869 1204 855 1178 C 841 1152 824 1127 805 1103 C 786 1079 765 1060 743 1044 C 720 1028 697 1020 674 1020 C 650 1020 626 1026 602 1038 C 577 1050 552 1064 528 1078 C 503 1092 479 1106 455 1118 C 431 1130 409 1137 389 1137 C 373 1137 359 1133 346 1127 C 333 1121 321 1113 310 1103 C 299 1093 289 1083 280 1071 C 271 1059 263 1048 256 1038 L 207 1065 C 213 1085 224 1108 238 1134 C 252 1160 269 1184 288 1208 C 307 1232 328 1252 351 1268 C 373 1284 396 1292 420 1292 C 442 1292 466 1286 491 1274 C 516 1262 541 1248 566 1234 C 590 1219 614 1206 638 1194 C 662 1182 684 1176 705 1176 C 720 1176 734 1179 747 1185 C 760 1191 772 1199 783 1209 C 794 1218 804 1228 813 1240 C 822 1252 830 1263 838 1274 L 887 1247 Z" unicode="" />
<glyph horiz-adv-x="999" d="M 954 434 C 954 364 942 301 919 245 C 895 188 863 140 822 100 C 781 60 733 29 678 7 C 622 -14 563 -25 500 -25 C 436 -25 377 -14 322 7 C 266 29 218 60 177 100 C 136 140 104 188 80 245 C 56 301 45 364 45 434 C 45 504 56 567 80 623 C 104 679 136 728 177 768 C 218 808 266 838 322 860 C 377 882 436 893 500 893 C 563 893 622 882 678 860 C 733 838 781 808 822 768 C 863 728 895 679 919 623 C 942 567 954 504 954 434 Z M 709 434 C 709 494 704 549 695 597 C 686 645 673 687 656 721 C 638 755 616 781 590 799 C 564 817 534 827 500 827 C 465 827 435 817 409 799 C 383 781 361 755 343 721 C 325 687 312 645 304 597 C 295 549 291 494 291 434 C 291 374 295 319 304 271 C 312 222 325 181 343 147 C 361 113 383 86 409 68 C 435 50 465 41 500 41 C 534 41 564 50 590 68 C 616 86 638 113 656 147 C 673 181 686 222 695 271 C 704 319 709 374 709 434 Z M 640 1008 L 597 973 L 240 1278 L 392 1405 L 640 1008 Z" unicode="" />
<glyph horiz-adv-x="999" d="M 954 434 C 954 364 942 301 919 245 C 895 188 863 140 822 100 C 781 60 733 29 678 7 C 622 -14 563 -25 500 -25 C 436 -25 377 -14 322 7 C 266 29 218 60 177 100 C 136 140 104 188 80 245 C 56 301 45 364 45 434 C 45 504 56 567 80 623 C 104 679 136 728 177 768 C 218 808 266 838 322 860 C 377 882 436 893 500 893 C 563 893 622 882 678 860 C 733 838 781 808 822 768 C 863 728 895 679 919 623 C 942 567 954 504 954 434 Z M 709 434 C 709 494 704 549 695 597 C 686 645 673 687 656 721 C 638 755 616 781 590 799 C 564 817 534 827 500 827 C 465 827 435 817 409 799 C 383 781 361 755 343 721 C 325 687 312 645 304 597 C 295 549 291 494 291 434 C 291 374 295 319 304 271 C 312 222 325 181 343 147 C 361 113 383 86 409 68 C 435 50 465 41 500 41 C 534 41 564 50 590 68 C 616 86 638 113 656 147 C 673 181 686 222 695 271 C 704 319 709 374 709 434 Z M 763 1278 L 407 973 L 364 1008 L 612 1405 L 763 1278 Z" unicode="" />
<glyph horiz-adv-x="999" d="M 954 434 C 954 364 942 301 919 245 C 895 188 863 140 822 100 C 781 60 733 29 678 7 C 622 -14 563 -25 500 -25 C 436 -25 377 -14 322 7 C 266 29 218 60 177 100 C 136 140 104 188 80 245 C 56 301 45 364 45 434 C 45 504 56 567 80 623 C 104 679 136 728 177 768 C 218 808 266 838 322 860 C 377 882 436 893 500 893 C 563 893 622 882 678 860 C 733 838 781 808 822 768 C 863 728 895 679 919 623 C 942 567 954 504 954 434 Z M 709 434 C 709 494 704 549 695 597 C 686 645 673 687 656 721 C 638 755 616 781 590 799 C 564 817 534 827 500 827 C 465 827 435 817 409 799 C 383 781 361 755 343 721 C 325 687 312 645 304 597 C 295 549 291 494 291 434 C 291 374 295 319 304 271 C 312 222 325 181 343 147 C 361 113 383 86 409 68 C 435 50 465 41 500 41 C 534 41 564 50 590 68 C 616 86 638 113 656 147 C 673 181 686 222 695 271 C 704 319 709 374 709 434 Z M 782 1004 L 737 971 L 501 1186 L 265 971 L 220 1004 L 481 1397 L 521 1397 L 782 1004 Z" unicode="" />
<glyph horiz-adv-x="999" d="M 954 434 C 954 364 942 301 919 245 C 895 188 863 140 822 100 C 781 60 733 29 678 7 C 622 -14 563 -25 500 -25 C 436 -25 377 -14 322 7 C 266 29 218 60 177 100 C 136 140 104 188 80 245 C 56 301 45 364 45 434 C 45 504 56 567 80 623 C 104 679 136 728 177 768 C 218 808 266 838 322 860 C 377 882 436 893 500 893 C 563 893 622 882 678 860 C 733 838 781 808 822 768 C 863 728 895 679 919 623 C 942 567 954 504 954 434 Z M 709 434 C 709 494 704 549 695 597 C 686 645 673 687 656 721 C 638 755 616 781 590 799 C 564 817 534 827 500 827 C 465 827 435 817 409 799 C 383 781 361 755 343 721 C 325 687 312 645 304 597 C 295 549 291 494 291 434 C 291 374 295 319 304 271 C 312 222 325 181 343 147 C 361 113 383 86 409 68 C 435 50 465 41 500 41 C 534 41 564 50 590 68 C 616 86 638 113 656 147 C 673 181 686 222 695 271 C 704 319 709 374 709 434 Z M 841 1247 C 834 1227 823 1204 809 1178 C 795 1152 778 1127 759 1103 C 740 1079 719 1060 697 1044 C 674 1028 651 1020 628 1020 C 604 1020 580 1026 556 1038 C 531 1050 506 1064 482 1078 C 457 1092 433 1106 409 1118 C 385 1130 363 1137 343 1137 C 327 1137 313 1133 300 1127 C 287 1121 275 1113 264 1103 C 253 1093 243 1083 234 1071 C 225 1059 217 1048 210 1038 L 161 1065 C 167 1085 178 1108 192 1134 C 206 1160 223 1184 242 1208 C 261 1232 282 1252 305 1268 C 327 1284 350 1292 374 1292 C 396 1292 420 1286 445 1274 C 470 1262 495 1248 520 1234 C 544 1219 568 1206 592 1194 C 616 1182 638 1176 659 1176 C 674 1176 688 1179 701 1185 C 714 1191 726 1199 737 1209 C 748 1218 758 1228 767 1240 C 776 1252 784 1263 792 1274 L 841 1247 Z" unicode="" />
<glyph horiz-adv-x="999" d="M 954 434 C 954 364 942 301 919 245 C 895 188 863 140 822 100 C 781 60 733 29 678 7 C 622 -14 563 -25 500 -25 C 436 -25 377 -14 322 7 C 266 29 218 60 177 100 C 136 140 104 188 80 245 C 56 301 45 364 45 434 C 45 504 56 567 80 623 C 104 679 136 728 177 768 C 218 808 266 838 322 860 C 377 882 436 893 500 893 C 563 893 622 882 678 860 C 733 838 781 808 822 768 C 863 728 895 679 919 623 C 942 567 954 504 954 434 Z M 709 434 C 709 494 704 549 695 597 C 686 645 673 687 656 721 C 638 755 616 781 590 799 C 564 817 534 827 500 827 C 465 827 435 817 409 799 C 383 781 361 755 343 721 C 325 687 312 645 304 597 C 295 549 291 494 291 434 C 291 374 295 319 304 271 C 312 222 325 181 343 147 C 361 113 383 86 409 68 C 435 50 465 41 500 41 C 534 41 564 50 590 68 C 616 86 638 113 656 147 C 673 181 686 222 695 271 C 704 319 709 374 709 434 Z M 812 1147 C 812 1131 809 1116 803 1102 C 797 1088 788 1075 778 1065 C 768 1055 756 1047 742 1041 C 728 1035 714 1032 698 1032 C 682 1032 667 1035 653 1041 C 639 1047 626 1055 616 1065 C 606 1075 598 1088 592 1102 C 586 1116 583 1131 583 1147 C 583 1163 586 1177 592 1191 C 598 1205 606 1217 616 1228 C 626 1238 639 1247 653 1253 C 667 1259 682 1262 698 1262 C 714 1262 728 1259 742 1253 C 756 1247 768 1238 778 1228 C 788 1217 797 1205 803 1191 C 809 1177 812 1163 812 1147 Z M 419 1147 C 419 1131 416 1116 410 1102 C 404 1088 395 1075 385 1065 C 375 1055 363 1047 349 1041 C 335 1035 320 1032 304 1032 C 288 1032 273 1035 259 1041 C 245 1047 233 1055 223 1065 C 213 1075 205 1088 199 1102 C 193 1116 190 1131 190 1147 C 190 1163 193 1177 199 1191 C 205 1205 213 1217 223 1228 C 233 1238 245 1247 259 1253 C 273 1259 288 1262 304 1262 C 320 1262 335 1259 349 1253 C 363 1247 375 1238 385 1228 C 395 1217 404 1205 410 1191 C 416 1177 419 1163 419 1147 Z" unicode="" />
<glyph horiz-adv-x="1241" d="M 748 965 C 748 947 744 931 738 915 C 731 899 722 886 710 875 C 698 863 685 854 670 848 C 654 841 638 838 621 838 C 603 838 587 841 571 848 C 555 854 542 863 531 875 C 519 886 510 899 504 914 C 497 929 494 945 494 963 C 494 980 497 996 504 1012 C 510 1027 519 1040 531 1052 C 542 1064 555 1073 571 1080 C 587 1086 603 1090 621 1090 C 638 1090 654 1086 670 1080 C 685 1073 698 1064 710 1052 C 722 1040 731 1027 738 1012 C 744 997 748 981 748 965 Z M 1094 553 L 147 553 L 147 664 L 1094 664 L 1094 553 Z M 748 252 C 748 234 744 218 738 203 C 731 188 722 175 710 164 C 698 152 685 143 670 137 C 654 130 638 127 621 127 C 603 127 587 130 571 137 C 555 143 542 152 531 164 C 519 175 510 188 504 203 C 497 218 494 234 494 252 C 494 269 497 285 504 301 C 510 316 519 329 531 341 C 542 353 555 362 571 369 C 587 375 603 379 621 379 C 638 379 654 375 670 369 C 685 362 698 353 710 341 C 722 329 731 316 738 301 C 744 285 748 269 748 252 Z" unicode="" />
<glyph horiz-adv-x="999" d="M 954 434 C 954 364 942 301 919 245 C 895 188 863 140 822 100 C 781 60 733 29 678 7 C 622 -14 563 -25 500 -25 C 460 -25 423 -20 388 -12 C 352 -4 319 7 287 23 L 203 -111 L 141 -72 L 223 61 C 169 101 125 152 93 215 C 61 278 45 351 45 434 C 45 504 56 567 80 623 C 104 679 136 728 177 768 C 218 808 266 838 322 860 C 377 882 436 893 500 893 C 539 893 577 889 613 881 C 649 873 683 860 713 844 L 797 979 L 858 940 L 776 807 C 830 769 873 718 905 654 C 937 590 954 516 954 434 Z M 647 737 C 629 766 608 788 584 804 C 560 819 532 827 500 827 C 465 827 435 817 409 799 C 383 781 361 755 343 721 C 325 687 312 645 304 597 C 295 549 291 494 291 434 C 291 390 293 350 297 313 C 301 275 307 241 317 211 L 647 737 Z M 709 434 C 709 521 700 595 682 657 L 352 131 C 369 102 390 80 415 64 C 439 48 468 41 500 41 C 534 41 564 50 590 68 C 616 86 638 113 656 147 C 673 181 686 222 695 271 C 704 319 709 374 709 434 Z" unicode="" />
<glyph horiz-adv-x="1069" d="M 1049 14 L 717 -16 L 717 201 L 713 201 C 683 123 641 66 589 30 C 536 -6 476 -25 408 -25 C 362 -25 321 -17 287 -3 C 253 10 224 31 202 57 C 179 83 162 115 151 153 C 140 191 135 233 135 279 L 135 786 L 10 811 L 10 864 L 356 864 L 356 147 C 366 126 382 110 402 99 C 422 87 445 82 471 82 C 513 82 549 91 579 110 C 608 129 632 155 650 187 C 668 219 682 255 690 297 C 698 339 702 382 702 428 L 702 791 L 567 811 L 567 864 L 924 864 L 924 92 L 1049 72 L 1049 14 Z M 678 1008 L 635 973 L 278 1278 L 430 1405 L 678 1008 Z" unicode="" />
<glyph horiz-adv-x="1069" d="M 1049 14 L 717 -16 L 717 201 L 713 201 C 683 123 641 66 589 30 C 536 -6 476 -25 408 -25 C 362 -25 321 -17 287 -3 C 253 10 224 31 202 57 C 179 83 162 115 151 153 C 140 191 135 233 135 279 L 135 786 L 10 811 L 10 864 L 356 864 L 356 147 C 366 126 382 110 402 99 C 422 87 445 82 471 82 C 513 82 549 91 579 110 C 608 129 632 155 650 187 C 668 219 682 255 690 297 C 698 339 702 382 702 428 L 702 791 L 567 811 L 567 864 L 924 864 L 924 92 L 1049 72 L 1049 14 Z M 752 1278 L 396 973 L 353 1008 L 601 1405 L 752 1278 Z" unicode="" />
<glyph horiz-adv-x="1069" d="M 1049 14 L 717 -16 L 717 201 L 713 201 C 683 123 641 66 589 30 C 536 -6 476 -25 408 -25 C 362 -25 321 -17 287 -3 C 253 10 224 31 202 57 C 179 83 162 115 151 153 C 140 191 135 233 135 279 L 135 786 L 10 811 L 10 864 L 356 864 L 356 147 C 366 126 382 110 402 99 C 422 87 445 82 471 82 C 513 82 549 91 579 110 C 608 129 632 155 650 187 C 668 219 682 255 690 297 C 698 339 702 382 702 428 L 702 791 L 567 811 L 567 864 L 924 864 L 924 92 L 1049 72 L 1049 14 Z M 799 1004 L 754 971 L 518 1186 L 282 971 L 237 1004 L 498 1397 L 538 1397 L 799 1004 Z" unicode="" />
<glyph horiz-adv-x="1069" d="M 1049 14 L 717 -16 L 717 201 L 713 201 C 683 123 641 66 589 30 C 536 -6 476 -25 408 -25 C 362 -25 321 -17 287 -3 C 253 10 224 31 202 57 C 179 83 162 115 151 153 C 140 191 135 233 135 279 L 135 786 L 10 811 L 10 864 L 356 864 L 356 147 C 366 126 382 110 402 99 C 422 87 445 82 471 82 C 513 82 549 91 579 110 C 608 129 632 155 650 187 C 668 219 682 255 690 297 C 698 339 702 382 702 428 L 702 791 L 567 811 L 567 864 L 924 864 L 924 92 L 1049 72 L 1049 14 Z M 835 1147 C 835 1131 832 1116 826 1102 C 820 1088 811 1075 801 1065 C 791 1055 779 1047 765 1041 C 751 1035 737 1032 721 1032 C 705 1032 690 1035 676 1041 C 662 1047 649 1055 639 1065 C 629 1075 621 1088 615 1102 C 609 1116 606 1131 606 1147 C 606 1163 609 1177 615 1191 C 621 1205 629 1217 639 1228 C 649 1238 662 1247 676 1253 C 690 1259 705 1262 721 1262 C 737 1262 751 1259 765 1253 C 779 1247 791 1238 801 1228 C 811 1217 820 1205 826 1191 C 832 1177 835 1163 835 1147 Z M 442 1147 C 442 1131 439 1116 433 1102 C 427 1088 418 1075 408 1065 C 398 1055 386 1047 372 1041 C 358 1035 343 1032 327 1032 C 311 1032 296 1035 282 1041 C 268 1047 256 1055 246 1065 C 236 1075 228 1088 222 1102 C 216 1116 213 1131 213 1147 C 213 1163 216 1177 222 1191 C 228 1205 236 1217 246 1228 C 256 1238 268 1247 282 1253 C 296 1259 311 1262 327 1262 C 343 1262 358 1259 372 1253 C 386 1247 398 1238 408 1228 C 418 1217 427 1205 433 1191 C 439 1177 442 1163 442 1147 Z" unicode="" />
<glyph horiz-adv-x="963" d="M 958 811 L 868 791 L 535 -49 L 379 -532 L 174 -532 L 434 -33 L 94 791 L 4 811 L 4 864 L 465 864 L 465 811 L 326 795 L 547 205 L 768 795 L 629 811 L 629 864 L 958 864 L 958 811 Z M 803 1278 L 447 973 L 404 1008 L 652 1405 L 803 1278 Z" unicode="" />
<glyph horiz-adv-x="1024" d="M 979 457 C 979 386 967 321 945 262 C 922 203 891 152 852 110 C 812 67 766 34 714 10 C 661 -13 605 -25 545 -25 C 507 -25 471 -21 437 -13 C 403 -5 373 8 348 27 L 348 -451 L 537 -471 L 537 -524 L 2 -524 L 2 -471 L 127 -451 L 127 1327 L 2 1350 L 2 1407 L 348 1442 L 348 750 C 379 797 418 833 465 857 C 512 881 565 893 623 893 C 669 893 714 883 757 864 C 800 844 838 816 871 779 C 904 742 930 696 950 642 C 969 588 979 526 979 457 Z M 750 438 C 750 484 746 528 738 570 C 730 612 717 649 700 681 C 682 713 660 738 632 757 C 604 776 570 786 530 786 C 489 786 452 773 419 748 C 386 722 362 688 348 645 L 348 115 C 366 94 390 78 418 66 C 446 54 476 49 508 49 C 544 49 578 59 608 81 C 638 102 663 130 684 166 C 705 202 721 243 733 290 C 744 337 750 386 750 438 Z" unicode="" />
<glyph horiz-adv-x="963" d="M 958 811 L 868 791 L 535 -49 L 379 -532 L 174 -532 L 434 -33 L 94 791 L 4 811 L 4 864 L 465 864 L 465 811 L 326 795 L 547 205 L 768 795 L 629 811 L 629 864 L 958 864 L 958 811 Z M 843 1147 C 843 1131 840 1116 834 1102 C 828 1088 819 1075 809 1065 C 799 1055 787 1047 773 1041 C 759 1035 745 1032 729 1032 C 713 1032 698 1035 684 1041 C 670 1047 657 1055 647 1065 C 637 1075 629 1088 623 1102 C 617 1116 614 1131 614 1147 C 614 1163 617 1177 623 1191 C 629 1205 637 1217 647 1228 C 657 1238 670 1247 684 1253 C 698 1259 713 1262 729 1262 C 745 1262 759 1259 773 1253 C 787 1247 799 1238 809 1228 C 819 1217 828 1205 834 1191 C 840 1177 843 1163 843 1147 Z M 450 1147 C 450 1131 447 1116 441 1102 C 435 1088 426 1075 416 1065 C 406 1055 394 1047 380 1041 C 366 1035 351 1032 335 1032 C 319 1032 304 1035 290 1041 C 276 1047 264 1055 254 1065 C 244 1075 236 1088 230 1102 C 224 1116 221 1131 221 1147 C 221 1163 224 1177 230 1191 C 236 1205 244 1217 254 1228 C 264 1238 276 1247 290 1253 C 304 1259 319 1262 335 1262 C 351 1262 366 1259 380 1253 C 394 1247 406 1238 416 1228 C 426 1217 435 1205 441 1191 C 447 1177 450 1163 450 1147 Z" unicode="" />
<glyph horiz-adv-x="551" d="M 518 0 L 47 0 L 47 53 L 172 74 L 172 766 L 47 788 L 47 846 L 393 893 L 393 74 L 518 53 L 518 0 Z" unicode="" />
<glyph horiz-adv-x="1114" d="M 1069 0 L 78 0 L 78 61 L 238 86 L 238 541 L 78 459 L 78 559 L 238 641 L 238 1233 L 78 1257 L 78 1319 L 659 1319 L 659 1257 L 479 1233 L 479 764 L 776 920 L 776 819 L 479 664 L 479 94 L 948 94 L 979 336 L 1069 336 L 1069 0 Z" unicode="" />
<glyph horiz-adv-x="627" d="M 616 811 L 436 721 L 436 74 L 561 53 L 561 0 L 90 0 L 90 53 L 215 74 L 215 610 L 51 528 L 51 627 L 215 709 L 215 1327 L 90 1350 L 90 1407 L 436 1442 L 436 819 L 616 909 L 616 811 Z" unicode="" />
<glyph horiz-adv-x="1864" d="M 1784 0 L 946 0 C 932 -2 916 -5 898 -7 C 880 -9 861 -10 843 -12 C 824 -13 805 -14 787 -15 C 769 -15 752 -16 737 -16 C 635 -16 543 1 460 35 C 377 69 306 116 247 176 C 187 236 141 307 109 389 C 77 471 61 561 61 659 C 61 755 77 845 110 928 C 143 1010 189 1082 249 1142 C 309 1202 380 1250 464 1284 C 547 1318 639 1335 739 1335 C 757 1335 777 1334 798 1333 C 818 1331 838 1330 858 1328 C 877 1326 894 1325 910 1323 C 926 1321 938 1319 946 1319 L 1753 1319 L 1753 1016 L 1667 1016 L 1638 1229 L 1186 1229 L 1186 727 L 1503 727 L 1524 868 L 1597 868 L 1597 496 L 1524 496 L 1503 637 L 1186 637 L 1186 94 L 1665 94 L 1694 324 L 1784 324 L 1784 0 Z M 946 121 L 946 1200 C 932 1209 915 1217 897 1223 C 879 1229 860 1234 840 1238 C 820 1242 801 1244 781 1246 C 761 1248 743 1249 727 1249 C 666 1249 611 1237 562 1213 C 513 1189 471 1152 437 1104 C 402 1056 375 995 356 923 C 337 851 328 766 328 670 C 328 574 338 489 358 415 C 378 341 407 278 443 227 C 479 175 523 136 573 110 C 623 83 679 70 739 70 C 755 70 773 71 792 73 C 810 75 829 78 847 82 C 865 86 883 91 900 97 C 917 103 932 111 946 121 Z" unicode="" />
<glyph horiz-adv-x="1599" d="M 1546 483 L 952 483 C 950 475 950 465 950 453 C 950 441 950 432 950 426 C 950 379 956 334 969 292 C 981 250 999 212 1022 180 C 1045 148 1073 122 1105 103 C 1137 83 1174 74 1214 74 C 1244 74 1272 77 1298 83 C 1323 89 1346 98 1368 109 C 1389 120 1409 133 1427 149 C 1445 164 1462 181 1479 199 L 1530 139 C 1504 111 1479 87 1453 67 C 1427 46 1400 29 1370 15 C 1340 1 1309 -8 1275 -15 C 1241 -21 1203 -25 1163 -25 C 1091 -25 1027 -12 972 14 C 917 40 870 77 831 127 C 798 79 753 42 696 15 C 639 -11 574 -25 500 -25 C 436 -25 377 -14 322 7 C 266 29 218 60 177 100 C 136 140 104 188 80 245 C 56 301 45 364 45 434 C 45 504 56 567 80 623 C 104 679 136 728 177 768 C 218 808 266 838 322 860 C 377 882 436 893 500 893 C 574 893 640 879 698 851 C 756 823 802 783 836 733 C 872 782 918 821 974 850 C 1030 878 1096 893 1171 893 C 1230 893 1283 884 1330 867 C 1376 850 1416 826 1448 794 C 1480 762 1504 723 1521 677 C 1537 631 1546 579 1546 522 L 1546 483 Z M 1317 555 C 1317 587 1314 620 1310 652 C 1306 684 1298 714 1286 740 C 1274 766 1257 787 1237 803 C 1216 819 1189 827 1157 827 C 1125 827 1097 818 1074 802 C 1050 786 1031 765 1015 739 C 999 713 986 683 977 651 C 967 619 961 587 958 555 L 1317 555 Z M 709 434 C 709 494 704 549 695 597 C 686 645 673 687 656 721 C 638 755 616 781 590 799 C 564 817 534 827 500 827 C 465 827 435 817 409 799 C 383 781 361 755 343 721 C 325 687 312 645 304 597 C 295 549 291 494 291 434 C 291 374 295 319 304 271 C 312 222 325 181 343 147 C 361 113 383 86 409 68 C 435 50 465 41 500 41 C 534 41 564 50 590 68 C 616 86 638 113 656 147 C 673 181 686 222 695 271 C 704 319 709 374 709 434 Z" unicode="" />
<glyph horiz-adv-x="1077" d="M 985 367 C 985 305 973 250 951 201 C 928 152 897 111 858 77 C 819 43 773 16 721 -1 C 668 -19 612 -29 553 -29 C 490 -29 432 -23 380 -13 C 328 -3 275 16 223 45 L 199 -25 L 121 -25 L 109 406 L 190 412 L 233 197 C 249 175 268 155 290 137 C 312 119 335 105 361 93 C 386 81 412 71 440 65 C 467 58 494 55 522 55 C 560 55 595 61 627 74 C 659 86 686 103 708 125 C 730 147 748 172 760 202 C 772 231 778 263 778 297 C 778 329 772 356 762 380 C 752 404 734 426 710 448 C 685 470 652 492 612 514 C 571 536 521 562 461 590 C 407 614 360 640 319 667 C 277 693 242 723 214 756 C 185 788 163 825 149 865 C 134 905 127 952 127 1004 C 127 1059 137 1108 159 1151 C 180 1193 209 1229 245 1259 C 281 1288 324 1310 372 1325 C 420 1340 470 1348 524 1348 C 580 1348 632 1343 680 1333 C 728 1323 775 1307 821 1286 L 846 1343 L 924 1343 L 913 961 L 831 961 L 797 1157 C 767 1195 731 1222 691 1240 C 651 1257 601 1266 543 1266 C 515 1266 488 1261 462 1253 C 436 1244 414 1231 394 1214 C 374 1197 358 1176 346 1152 C 334 1127 328 1099 328 1067 C 328 1037 332 1010 342 988 C 352 965 368 943 392 922 C 416 900 448 878 488 856 C 528 834 579 808 641 780 C 697 754 746 727 789 701 C 832 675 868 646 897 614 C 926 582 948 547 963 507 C 977 467 985 420 985 367 Z M 824 1792 L 563 1399 L 523 1399 L 262 1792 L 307 1825 L 543 1610 L 779 1825 L 824 1792 Z" unicode="" />
<glyph horiz-adv-x="774" d="M 715 252 C 715 208 706 169 688 135 C 670 100 645 70 615 46 C 585 21 549 2 509 -11 C 468 -24 425 -31 381 -31 C 335 -31 293 -24 255 -12 C 217 0 185 17 160 39 L 137 -20 L 76 -20 L 68 260 L 135 264 C 141 231 150 201 163 174 C 176 147 193 124 213 104 C 233 84 257 69 285 59 C 313 48 344 43 379 43 C 400 43 419 46 437 54 C 454 62 469 72 481 84 C 493 96 502 111 508 127 C 514 143 518 160 518 178 C 518 200 514 219 506 235 C 498 251 485 267 468 281 C 451 295 429 308 403 321 C 377 333 345 347 309 362 C 277 374 248 389 220 405 C 192 421 168 440 148 462 C 128 484 112 508 100 535 C 88 562 82 593 82 629 C 82 669 90 705 106 737 C 122 769 143 797 170 820 C 197 843 229 861 265 874 C 301 886 339 893 379 893 C 420 893 457 889 490 881 C 522 873 554 859 586 840 L 610 889 L 668 889 L 664 629 L 598 629 C 585 697 562 747 529 778 C 496 809 453 825 401 825 C 383 825 366 822 350 816 C 334 810 319 802 306 792 C 293 781 283 768 275 752 C 267 736 264 719 264 700 C 264 678 268 660 277 644 C 285 628 298 613 316 599 C 333 585 355 572 382 560 C 409 548 441 534 477 520 C 511 506 542 491 571 474 C 600 457 625 438 647 416 C 668 394 685 369 697 342 C 709 315 715 285 715 252 Z M 673 1370 L 412 977 L 372 977 L 111 1370 L 156 1403 L 392 1188 L 628 1403 L 673 1370 Z" unicode="" />
<glyph horiz-adv-x="1225" d="M 1221 1257 L 1110 1229 L 741 549 L 741 86 L 913 61 L 913 0 L 328 0 L 328 61 L 500 86 L 500 520 L 115 1229 L 4 1257 L 4 1319 L 551 1319 L 551 1257 L 381 1233 L 690 645 L 999 1233 L 829 1257 L 829 1319 L 1221 1319 L 1221 1257 Z M 987 1569 C 987 1553 984 1538 978 1524 C 972 1510 963 1497 953 1487 C 943 1477 931 1469 917 1463 C 903 1457 889 1454 873 1454 C 857 1454 842 1457 828 1463 C 814 1469 801 1477 791 1487 C 781 1497 773 1510 767 1524 C 761 1538 758 1553 758 1569 C 758 1585 761 1599 767 1613 C 773 1627 781 1639 791 1650 C 801 1660 814 1669 828 1675 C 842 1681 857 1684 873 1684 C 889 1684 903 1681 917 1675 C 931 1669 943 1660 953 1650 C 963 1639 972 1627 978 1613 C 984 1599 987 1585 987 1569 Z M 594 1569 C 594 1553 591 1538 585 1524 C 579 1510 570 1497 560 1487 C 550 1477 538 1469 524 1463 C 510 1457 495 1454 479 1454 C 463 1454 448 1457 434 1463 C 420 1469 408 1477 398 1487 C 388 1497 380 1510 374 1524 C 368 1538 365 1553 365 1569 C 365 1585 368 1599 374 1613 C 380 1627 388 1639 398 1650 C 408 1660 420 1669 434 1675 C 448 1681 463 1684 479 1684 C 495 1684 510 1681 524 1675 C 538 1669 550 1660 560 1650 C 570 1639 579 1627 585 1613 C 591 1599 594 1585 594 1569 Z" unicode="" />
<glyph horiz-adv-x="1155" d="M 1112 356 L 1092 0 L 43 0 L 31 33 L 791 1229 L 227 1229 L 197 975 L 106 975 L 106 1319 L 1094 1319 L 1094 1286 L 336 94 L 967 94 L 1022 356 L 1112 356 Z M 863 1792 L 602 1399 L 562 1399 L 301 1792 L 346 1825 L 582 1610 L 818 1825 L 863 1792 Z" unicode="" />
<glyph horiz-adv-x="860" d="M 811 279 L 803 0 L 51 0 L 35 63 L 555 788 L 172 788 L 145 627 L 76 627 L 76 864 L 793 864 L 793 793 L 281 76 L 707 76 L 741 279 L 811 279 Z M 714 1370 L 453 977 L 413 977 L 152 1370 L 197 1403 L 433 1188 L 669 1403 L 714 1370 Z" unicode="" />
<glyph horiz-adv-x="1067" d="M 1051 1272 C 1051 1244 1043 1218 1027 1196 C 1011 1173 991 1156 967 1145 C 942 1175 920 1200 901 1221 C 882 1241 866 1258 852 1271 C 838 1283 827 1292 818 1298 C 808 1304 801 1307 797 1307 C 774 1307 754 1298 737 1281 C 719 1263 704 1238 691 1206 C 678 1174 667 1135 658 1089 C 648 1043 641 991 635 934 L 614 737 L 924 737 L 924 655 L 606 655 L 567 299 C 562 253 555 208 546 163 C 537 118 525 75 509 33 C 493 -8 474 -47 452 -83 C 430 -119 403 -150 372 -176 C 341 -202 305 -223 264 -239 C 223 -254 177 -262 125 -262 C 102 -262 80 -259 58 -253 C 36 -247 17 -239 0 -229 C -16 -218 -30 -205 -41 -189 C -51 -173 -57 -155 -57 -135 C -57 -108 -49 -85 -35 -65 C -21 -45 -3 -34 18 -31 C 65 -85 103 -123 131 -145 C 159 -167 180 -178 195 -178 C 216 -178 234 -169 250 -153 C 265 -137 278 -111 290 -76 C 302 -41 312 3 321 58 C 329 112 338 178 346 256 L 389 655 L 184 655 L 184 737 L 397 737 L 416 899 C 424 972 439 1038 462 1098 C 485 1158 515 1209 552 1251 C 589 1293 633 1326 685 1349 C 737 1372 796 1384 862 1384 C 884 1384 906 1381 928 1377 C 950 1373 971 1366 989 1357 C 1007 1348 1022 1336 1034 1322 C 1045 1308 1051 1291 1051 1272 Z" unicode="" />
<glyph horiz-adv-x="1024" d="M 793 1004 L 748 971 L 512 1186 L 276 971 L 231 1004 L 492 1397 L 532 1397 L 793 1004 Z" unicode="" />
<glyph horiz-adv-x="1024" d="M 793 1370 L 532 977 L 492 977 L 231 1370 L 276 1403 L 512 1188 L 748 1403 L 793 1370 Z" unicode="" />
<glyph horiz-adv-x="1024" d="M 817 1329 C 813 1287 803 1247 789 1208 C 774 1168 754 1133 729 1102 C 703 1071 672 1046 636 1027 C 600 1008 558 999 512 999 C 464 999 423 1008 387 1027 C 351 1046 320 1071 295 1102 C 269 1133 249 1168 235 1208 C 220 1247 211 1287 207 1329 L 262 1343 C 270 1315 282 1290 298 1267 C 313 1243 331 1223 352 1206 C 373 1189 397 1176 424 1166 C 450 1156 480 1151 512 1151 C 544 1151 573 1156 600 1166 C 626 1176 650 1189 671 1206 C 692 1223 710 1243 726 1267 C 741 1290 753 1315 762 1343 L 817 1329 Z" unicode="" />
<glyph horiz-adv-x="1024" d="M 643 1184 C 643 1166 639 1149 632 1133 C 625 1117 616 1103 604 1091 C 592 1079 579 1070 563 1063 C 547 1056 530 1053 512 1053 C 494 1053 477 1056 461 1063 C 445 1070 431 1079 419 1091 C 407 1103 398 1117 391 1133 C 384 1149 381 1166 381 1184 C 381 1202 384 1218 391 1234 C 398 1250 407 1264 419 1276 C 431 1288 445 1297 461 1304 C 477 1311 494 1315 512 1315 C 530 1315 547 1311 563 1304 C 579 1297 592 1288 604 1276 C 616 1264 625 1250 632 1234 C 639 1218 643 1202 643 1184 Z" unicode="" />
<glyph horiz-adv-x="1024" d="M 737 1188 C 737 1156 731 1127 719 1102 C 707 1077 690 1056 670 1039 C 650 1021 626 1008 599 999 C 571 989 542 985 512 985 C 481 985 452 989 425 999 C 397 1008 373 1021 353 1039 C 333 1056 317 1077 305 1102 C 293 1127 287 1156 287 1188 C 287 1220 293 1248 305 1273 C 317 1298 333 1319 353 1337 C 373 1354 397 1367 425 1377 C 452 1386 481 1391 512 1391 C 542 1391 571 1386 599 1377 C 626 1367 650 1354 670 1337 C 690 1319 707 1298 719 1273 C 731 1248 737 1220 737 1188 Z M 610 1188 C 610 1205 608 1222 604 1238 C 600 1254 594 1268 586 1280 C 578 1292 567 1302 555 1310 C 543 1317 528 1321 512 1321 C 495 1321 480 1317 468 1310 C 456 1303 446 1294 438 1282 C 430 1270 424 1256 420 1240 C 416 1224 414 1206 414 1188 C 414 1170 416 1154 420 1138 C 424 1122 430 1107 438 1095 C 446 1083 456 1073 468 1066 C 480 1058 495 1055 512 1055 C 528 1055 543 1058 555 1066 C 567 1073 578 1083 586 1095 C 594 1107 600 1122 604 1138 C 608 1154 610 1170 610 1188 Z" unicode="" />
<glyph horiz-adv-x="1024" d="M 711 -473 C 681 -499 646 -520 607 -535 C 567 -549 526 -557 483 -557 C 447 -557 414 -552 384 -542 C 354 -532 328 -518 306 -500 C 284 -482 268 -459 256 -433 C 244 -406 238 -376 238 -342 C 238 -308 246 -275 264 -243 C 282 -211 307 -180 339 -148 C 371 -116 409 -83 453 -51 C 497 -18 546 15 600 51 L 645 16 C 609 -11 577 -37 549 -62 C 521 -87 497 -112 479 -138 C 460 -164 446 -190 436 -217 C 426 -244 422 -273 422 -303 C 422 -325 424 -346 430 -366 C 435 -385 443 -402 455 -416 C 466 -430 480 -441 498 -449 C 516 -457 537 -461 563 -461 C 585 -461 607 -457 629 -450 C 651 -442 670 -432 688 -418 L 711 -473 Z" unicode="" />
<glyph horiz-adv-x="1024" d="M 852 1247 C 845 1227 834 1204 820 1178 C 806 1152 789 1127 770 1103 C 751 1079 730 1060 708 1044 C 685 1028 662 1020 639 1020 C 615 1020 591 1026 567 1038 C 542 1050 517 1064 493 1078 C 468 1092 444 1106 420 1118 C 396 1130 374 1137 354 1137 C 338 1137 324 1133 311 1127 C 298 1121 286 1113 275 1103 C 264 1093 254 1083 245 1071 C 236 1059 228 1048 221 1038 L 172 1065 C 178 1085 189 1108 203 1134 C 217 1160 234 1184 253 1208 C 272 1232 293 1252 316 1268 C 338 1284 361 1292 385 1292 C 407 1292 431 1286 456 1274 C 481 1262 506 1248 531 1234 C 555 1219 579 1206 603 1194 C 627 1182 649 1176 670 1176 C 685 1176 699 1179 712 1185 C 725 1191 737 1199 748 1209 C 759 1218 769 1228 778 1240 C 787 1252 795 1263 803 1274 L 852 1247 Z" unicode="" />
<glyph horiz-adv-x="1024" d="M 623 1309 L 295 973 L 248 1004 L 461 1421 L 623 1309 Z M 973 1278 L 616 973 L 573 1008 L 821 1405 L 973 1278 Z" unicode="" />
<glyph horiz-adv-x="1024" d="M 827 1092 L 197 1092 L 197 1214 L 827 1214 L 827 1092 Z" unicode="" />
<glyph horiz-adv-x="1536" d="M 76 0 L 652 1536 L 884 1536 L 1456 0 L 76 0 Z M 352 148 L 1164 148 L 752 1256 L 352 148 Z" unicode="" />
<glyph horiz-adv-x="1664" d="M 832 1376 C 706 1376 599 1328 510 1234 C 420 1139 376 1006 376 836 C 376 673 405 538 464 432 C 522 325 609 241 724 180 L 724 0 L 88 0 L 88 196 L 536 196 C 456 225 378 295 304 406 C 229 516 192 664 192 848 C 192 1024 247 1184 358 1330 C 468 1475 626 1548 832 1548 C 1037 1548 1195 1478 1306 1338 C 1416 1198 1472 1034 1472 848 C 1472 664 1434 516 1360 406 C 1285 295 1208 225 1128 196 L 1576 196 L 1576 0 L 940 0 L 940 180 C 1054 241 1141 325 1200 432 C 1258 538 1288 673 1288 836 C 1288 974 1246 1099 1162 1210 C 1078 1320 968 1376 832 1376 Z" unicode="" />
<glyph horiz-adv-x="1079" d="M 1098 76 C 1074 44 1044 19 1007 1 C 970 -16 928 -25 881 -25 C 841 -25 805 -17 773 -2 C 741 13 716 36 700 68 L 700 201 L 696 203 C 685 172 670 143 652 115 C 633 87 611 63 587 43 C 562 22 535 5 505 -6 C 475 -18 444 -25 412 -25 C 399 -25 385 -23 370 -20 C 355 -17 340 -13 325 -7 C 310 -1 296 5 282 13 C 268 21 257 31 248 43 L 246 41 L 295 -442 L 86 -442 L 119 98 L 119 864 L 340 864 L 340 147 C 350 126 364 110 383 99 C 402 87 427 82 457 82 C 499 82 535 91 564 111 C 593 130 617 155 635 186 C 653 216 666 251 674 289 C 682 327 686 364 686 401 L 686 864 L 907 864 L 907 119 C 916 106 927 97 941 93 C 954 88 967 86 981 86 C 995 86 1011 89 1029 97 C 1046 104 1059 113 1069 125 L 1098 76 Z" unicode="" />
<glyph horiz-adv-x="1408" d="M 296 0 L 296 1028 L 12 1028 L 12 1176 L 1316 1176 L 1316 1028 L 996 1028 L 996 344 C 996 266 1011 213 1042 184 C 1072 154 1109 140 1152 140 C 1184 140 1210 140 1232 142 C 1253 143 1274 148 1296 156 L 1296 28 C 1264 12 1234 0 1206 -6 C 1178 -12 1138 -16 1088 -16 C 1002 -16 935 10 886 64 C 836 117 812 208 812 336 L 812 1028 L 484 1028 L 484 0 L 296 0 Z" unicode="" />
<glyph horiz-adv-x="1106" d="M 1004 432 L 102 432 L 102 543 L 1004 543 L 1004 432 Z" unicode="" />
<glyph horiz-adv-x="1843" d="M 1741 432 L 102 432 L 102 543 L 1741 543 L 1741 432 Z" unicode="" />
<glyph horiz-adv-x="428" d="M 348 987 C 348 971 345 957 339 944 C 333 931 325 920 315 911 C 305 901 293 894 279 889 C 265 883 251 881 236 881 C 205 881 178 886 156 896 C 133 906 114 921 99 939 C 84 957 73 980 66 1006 C 58 1032 55 1060 55 1092 C 55 1166 73 1227 111 1276 C 149 1324 203 1360 274 1384 L 315 1311 C 293 1304 272 1295 252 1283 C 232 1271 215 1257 201 1241 C 187 1225 175 1207 167 1188 C 158 1168 154 1148 154 1128 L 330 1055 C 335 1048 339 1038 343 1025 C 346 1012 348 999 348 987 Z" unicode="" />
<glyph horiz-adv-x="428" d="M 362 1174 C 362 1099 343 1037 306 989 C 268 940 214 904 143 881 L 102 954 C 124 960 144 970 164 982 C 184 994 201 1008 216 1024 C 230 1040 242 1057 251 1076 C 259 1095 264 1115 264 1137 L 88 1210 C 82 1216 78 1226 75 1239 C 71 1252 70 1265 70 1278 C 70 1293 73 1307 79 1320 C 85 1333 93 1344 103 1354 C 113 1363 124 1370 138 1376 C 152 1381 166 1384 182 1384 C 212 1384 239 1378 262 1368 C 284 1358 303 1343 318 1325 C 332 1307 343 1285 351 1259 C 358 1233 362 1204 362 1174 Z" unicode="" />
<glyph horiz-adv-x="449" d="M 375 45 C 375 -29 356 -90 318 -139 C 280 -188 226 -224 156 -248 L 115 -174 C 137 -167 157 -158 177 -146 C 197 -134 214 -120 228 -104 C 242 -88 254 -71 263 -52 C 271 -33 276 -13 276 8 L 100 82 C 94 88 90 97 87 111 C 83 124 82 137 82 150 C 82 165 85 179 91 192 C 97 205 105 216 115 226 C 125 235 137 242 151 248 C 165 253 179 256 195 256 C 225 256 252 250 274 240 C 296 230 315 215 330 197 C 345 179 356 157 364 131 C 371 105 375 76 375 45 Z" unicode="" />
<glyph horiz-adv-x="815" d="M 735 987 C 735 971 732 957 726 944 C 720 931 712 920 702 911 C 692 901 680 894 666 889 C 652 883 638 881 623 881 C 592 881 565 886 543 896 C 520 906 501 921 486 939 C 471 957 460 980 453 1006 C 445 1032 442 1060 442 1092 C 442 1166 460 1227 498 1276 C 536 1324 590 1360 662 1384 L 702 1311 C 680 1304 659 1295 639 1283 C 619 1271 602 1257 588 1241 C 574 1225 562 1207 554 1188 C 545 1168 541 1148 541 1128 L 717 1055 C 722 1048 726 1038 730 1025 C 733 1012 735 999 735 987 Z M 348 987 C 348 971 345 957 339 944 C 333 931 325 920 315 911 C 305 901 293 894 279 889 C 265 883 251 881 236 881 C 205 881 178 886 156 896 C 133 906 114 921 99 939 C 84 957 73 980 66 1006 C 58 1032 55 1060 55 1092 C 55 1166 73 1227 111 1276 C 149 1324 203 1360 274 1384 L 315 1311 C 293 1304 272 1295 252 1283 C 232 1271 215 1257 201 1241 C 187 1225 175 1207 167 1188 C 158 1168 154 1148 154 1128 L 330 1055 C 335 1048 339 1038 343 1025 C 346 1012 348 999 348 987 Z" unicode="" />
<glyph horiz-adv-x="815" d="M 750 1174 C 750 1099 731 1037 693 989 C 655 940 601 904 530 881 L 489 954 C 511 960 531 970 551 982 C 571 994 588 1008 603 1024 C 617 1040 629 1057 638 1076 C 646 1095 651 1115 651 1137 L 475 1210 C 469 1216 465 1226 462 1239 C 458 1252 457 1265 457 1278 C 457 1293 460 1307 466 1320 C 472 1333 480 1344 490 1354 C 500 1363 511 1370 525 1376 C 539 1381 553 1384 569 1384 C 599 1384 626 1378 649 1368 C 671 1358 690 1343 705 1325 C 720 1307 731 1285 739 1259 C 746 1233 750 1204 750 1174 Z M 362 1174 C 362 1099 343 1037 306 989 C 268 940 214 904 143 881 L 102 954 C 124 960 144 970 164 982 C 184 994 201 1008 216 1024 C 230 1040 242 1057 251 1076 C 259 1095 264 1115 264 1137 L 88 1210 C 82 1216 78 1226 75 1239 C 71 1252 70 1265 70 1278 C 70 1293 73 1307 79 1320 C 85 1333 93 1344 103 1354 C 113 1363 124 1370 138 1376 C 152 1381 166 1384 182 1384 C 212 1384 239 1378 262 1368 C 284 1358 303 1343 318 1325 C 332 1307 343 1285 351 1259 C 358 1233 362 1204 362 1174 Z" unicode="" />
<glyph horiz-adv-x="836" d="M 762 45 C 762 -29 743 -90 705 -139 C 667 -188 613 -224 543 -248 L 502 -174 C 524 -167 544 -158 564 -146 C 584 -134 601 -120 616 -104 C 630 -88 642 -71 651 -52 C 659 -33 664 -13 664 8 L 487 82 C 481 88 477 97 474 111 C 470 124 469 137 469 150 C 469 165 472 179 478 192 C 484 205 492 216 502 226 C 512 235 524 242 538 248 C 552 253 566 256 582 256 C 612 256 639 250 662 240 C 684 230 703 215 718 197 C 732 179 743 157 751 131 C 758 105 762 76 762 45 Z M 375 45 C 375 -29 356 -90 318 -139 C 280 -188 226 -224 156 -248 L 115 -174 C 137 -167 157 -158 177 -146 C 197 -134 214 -120 228 -104 C 242 -88 254 -71 263 -52 C 271 -33 276 -13 276 8 L 100 82 C 94 88 90 97 87 111 C 83 124 82 137 82 150 C 82 165 85 179 91 192 C 97 205 105 216 115 226 C 125 235 137 242 151 248 C 165 253 179 256 195 256 C 225 256 252 250 274 240 C 296 230 315 215 330 197 C 345 179 356 157 364 131 C 371 105 375 76 375 45 Z" unicode="" />
<glyph horiz-adv-x="942" d="M 823 791 L 692 791 L 487 850 L 569 621 L 492 -352 L 451 -352 L 373 621 L 455 850 L 250 791 L 119 791 L 119 942 L 250 942 L 455 883 L 385 1092 L 385 1352 L 557 1352 L 557 1092 L 487 883 L 692 942 L 823 942 L 823 791 Z" unicode="" />
<glyph horiz-adv-x="942" d="M 823 57 L 694 57 L 487 117 L 557 -92 L 557 -352 L 385 -352 L 385 -92 L 455 117 L 250 57 L 119 57 L 119 209 L 250 209 L 455 150 L 373 500 L 455 850 L 250 791 L 119 791 L 119 942 L 250 942 L 455 883 L 385 1092 L 385 1352 L 557 1352 L 557 1092 L 487 883 L 692 942 L 823 942 L 823 791 L 692 791 L 487 850 L 569 500 L 487 150 L 694 209 L 823 209 L 823 57 Z" unicode="" />
<glyph horiz-adv-x="840" d="M 645 647 C 645 615 639 586 627 559 C 615 531 599 507 579 487 C 559 467 535 451 508 439 C 480 427 451 422 420 422 C 388 422 359 427 332 439 C 304 451 280 467 260 487 C 240 507 224 531 212 559 C 200 586 195 615 195 647 C 195 678 200 707 212 735 C 224 762 240 786 260 806 C 280 826 304 842 332 854 C 359 866 388 872 420 872 C 451 872 480 866 508 854 C 535 842 559 826 579 806 C 599 786 615 762 627 735 C 639 707 645 678 645 647 Z" unicode="" />
<glyph horiz-adv-x="2220" d="M 1925 119 C 1925 100 1921 82 1914 66 C 1907 50 1897 35 1885 23 C 1873 11 1858 1 1842 -5 C 1826 -12 1808 -16 1790 -16 C 1771 -16 1753 -12 1737 -5 C 1721 1 1706 11 1694 23 C 1682 35 1672 50 1665 66 C 1658 82 1655 100 1655 119 C 1655 137 1658 155 1665 171 C 1672 187 1682 202 1694 214 C 1706 226 1721 236 1737 243 C 1753 250 1771 254 1790 254 C 1808 254 1826 250 1842 243 C 1858 236 1873 226 1885 214 C 1897 202 1907 187 1914 171 C 1921 155 1925 137 1925 119 Z M 1245 119 C 1245 100 1241 82 1234 66 C 1227 50 1217 35 1205 23 C 1193 11 1178 1 1162 -5 C 1146 -12 1128 -16 1110 -16 C 1091 -16 1073 -12 1057 -5 C 1041 1 1026 11 1014 23 C 1002 35 992 50 985 66 C 978 82 975 100 975 119 C 975 137 978 155 985 171 C 992 187 1002 202 1014 214 C 1026 226 1041 236 1057 243 C 1073 250 1091 254 1110 254 C 1128 254 1146 250 1162 243 C 1178 236 1193 226 1205 214 C 1217 202 1227 187 1234 171 C 1241 155 1245 137 1245 119 Z M 565 119 C 565 100 561 82 554 66 C 547 50 537 35 525 23 C 513 11 498 1 482 -5 C 466 -12 448 -16 430 -16 C 411 -16 393 -12 377 -5 C 361 1 346 11 334 23 C 322 35 312 50 305 66 C 298 82 295 100 295 119 C 295 137 298 155 305 171 C 312 187 322 202 334 214 C 346 226 361 236 377 243 C 393 250 411 254 430 254 C 448 254 466 250 482 243 C 498 236 513 226 525 214 C 537 202 547 187 554 171 C 561 155 565 137 565 119 Z" unicode="" />
<glyph horiz-adv-x="2236" d="M 684 981 C 684 931 677 884 664 840 C 651 795 632 756 607 722 C 581 688 550 660 513 640 C 475 620 432 610 383 610 C 333 610 290 620 253 640 C 215 660 184 688 159 722 C 133 756 114 795 101 840 C 88 884 82 931 82 981 C 82 1030 88 1077 101 1122 C 114 1166 133 1206 159 1240 C 184 1274 215 1301 253 1321 C 290 1341 333 1352 383 1352 C 432 1352 475 1341 513 1321 C 550 1301 581 1274 607 1240 C 632 1206 651 1166 664 1122 C 677 1077 684 1030 684 981 Z M 1223 1309 L 397 -41 L 319 8 L 1145 1358 L 1223 1309 Z M 2154 338 C 2154 288 2147 241 2134 197 C 2121 152 2102 113 2077 79 C 2051 45 2020 17 1983 -2 C 1945 -22 1902 -33 1853 -33 C 1803 -33 1760 -22 1723 -2 C 1685 17 1654 45 1629 79 C 1603 113 1584 152 1571 197 C 1558 241 1552 288 1552 338 C 1552 387 1558 434 1571 479 C 1584 523 1603 563 1629 597 C 1654 631 1685 658 1723 678 C 1760 698 1803 709 1853 709 C 1902 709 1945 698 1983 678 C 2020 658 2051 631 2077 597 C 2102 563 2121 523 2134 479 C 2147 434 2154 387 2154 338 Z M 1464 338 C 1464 288 1457 241 1444 197 C 1431 152 1412 113 1387 79 C 1361 45 1330 17 1293 -2 C 1255 -22 1212 -33 1163 -33 C 1113 -33 1070 -22 1033 -2 C 995 17 964 45 939 79 C 913 113 894 152 881 197 C 868 241 862 288 862 338 C 862 387 868 434 881 479 C 894 523 913 563 939 597 C 964 631 995 658 1033 678 C 1070 698 1113 709 1163 709 C 1212 709 1255 698 1293 678 C 1330 658 1361 631 1387 597 C 1412 563 1431 523 1444 479 C 1457 434 1464 387 1464 338 Z M 506 981 C 506 1018 504 1055 500 1093 C 496 1130 490 1163 481 1193 C 471 1223 459 1247 443 1266 C 427 1284 407 1294 383 1294 C 358 1294 338 1284 322 1266 C 306 1247 294 1223 285 1193 C 275 1163 269 1130 265 1093 C 261 1055 260 1018 260 981 C 260 943 261 906 265 869 C 269 831 275 798 285 768 C 294 738 306 714 322 696 C 338 677 358 668 383 668 C 407 668 427 677 443 696 C 459 714 471 738 481 768 C 490 798 496 831 500 869 C 504 906 506 943 506 981 Z M 1976 338 C 1976 375 1974 412 1970 450 C 1966 487 1960 520 1951 550 C 1942 580 1930 604 1914 623 C 1898 641 1877 651 1853 651 C 1828 651 1808 641 1792 623 C 1776 604 1764 580 1755 550 C 1746 520 1740 487 1736 450 C 1732 412 1731 375 1731 338 C 1731 300 1732 263 1736 226 C 1740 188 1746 155 1755 125 C 1764 95 1776 71 1792 53 C 1808 34 1828 25 1853 25 C 1877 25 1898 34 1914 53 C 1930 71 1942 95 1951 125 C 1960 155 1966 188 1970 226 C 1974 263 1976 300 1976 338 Z M 1286 338 C 1286 375 1284 412 1280 450 C 1276 487 1270 520 1261 550 C 1252 580 1240 604 1224 623 C 1208 641 1187 651 1163 651 C 1138 651 1118 641 1102 623 C 1086 604 1074 580 1065 550 C 1055 520 1049 487 1045 450 C 1041 412 1040 375 1040 338 C 1040 300 1041 263 1045 226 C 1049 188 1055 155 1065 125 C 1074 95 1086 71 1102 53 C 1118 34 1138 25 1163 25 C 1187 25 1208 34 1224 53 C 1240 71 1252 95 1261 125 C 1270 155 1276 188 1280 226 C 1284 263 1286 300 1286 338 Z" unicode="" />
<glyph horiz-adv-x="676" d="M 514 119 L 477 88 L 123 451 L 477 813 L 514 782 L 324 451 L 514 119 Z" unicode="" />
<glyph horiz-adv-x="676" d="M 553 451 L 199 88 L 162 119 L 352 451 L 162 782 L 199 813 L 553 451 Z" unicode="" />
<glyph horiz-adv-x="707" d="M 805 1309 L -20 -41 L -98 8 L 727 1358 L 805 1309 Z" unicode="" />
<glyph horiz-adv-x="1335" d="M 1212 1282 L 1198 965 L 1124 965 L 1094 1165 C 1058 1196 1017 1220 971 1238 C 924 1255 865 1264 795 1264 C 738 1264 689 1251 649 1226 C 608 1201 574 1168 546 1126 C 518 1084 497 1037 481 983 C 465 929 455 874 449 817 L 1079 817 L 1055 735 L 442 735 L 442 684 C 442 664 442 644 443 623 C 444 601 446 580 449 559 L 1001 559 L 977 477 L 461 477 C 471 423 485 370 504 320 C 523 270 548 225 578 186 C 608 147 645 116 688 92 C 730 68 780 57 838 57 C 859 57 881 58 905 61 C 929 64 952 68 975 74 C 998 80 1020 87 1041 96 C 1062 104 1080 115 1096 127 L 1137 328 L 1210 328 L 1196 47 C 1136 21 1073 2 1007 -10 C 941 -22 867 -29 786 -29 C 704 -29 630 -16 565 9 C 500 35 443 70 395 116 C 347 161 307 214 276 276 C 245 338 223 405 209 477 L 25 477 L 49 559 L 197 559 C 195 574 194 589 194 605 C 193 621 193 637 193 653 C 193 666 193 680 194 694 C 194 708 195 721 197 735 L 25 735 L 49 817 L 207 817 C 219 891 241 960 272 1024 C 303 1088 343 1145 393 1193 C 443 1241 502 1278 571 1306 C 639 1334 717 1348 805 1348 C 841 1348 875 1346 909 1344 C 943 1342 976 1338 1009 1333 C 1042 1328 1075 1321 1109 1313 C 1142 1304 1176 1294 1212 1282 Z" unicode="" />
<glyph horiz-adv-x="1552" d="M 1434 662 C 1434 601 1426 543 1410 487 C 1394 431 1372 378 1344 330 C 1315 281 1281 237 1241 197 C 1201 157 1156 122 1108 94 C 1059 65 1007 43 951 27 C 895 11 836 4 776 4 C 715 4 657 11 601 27 C 545 43 493 65 445 94 C 396 122 352 157 312 197 C 272 237 237 281 209 330 C 180 378 158 431 142 487 C 126 543 119 601 119 662 C 119 752 136 836 170 916 C 204 996 251 1065 311 1125 C 371 1185 440 1232 520 1267 C 600 1301 685 1319 776 1319 C 836 1319 895 1311 951 1295 C 1007 1279 1059 1257 1108 1229 C 1156 1200 1201 1166 1241 1126 C 1281 1086 1315 1041 1344 993 C 1372 944 1394 892 1410 836 C 1426 780 1434 722 1434 662 Z M 1360 662 C 1360 742 1344 819 1314 891 C 1284 963 1242 1026 1190 1080 C 1137 1134 1075 1177 1004 1209 C 933 1241 857 1257 776 1257 C 695 1257 619 1241 548 1209 C 477 1177 415 1134 363 1080 C 310 1026 268 963 238 891 C 208 819 193 742 193 662 C 193 580 208 504 238 432 C 268 360 310 296 363 242 C 415 188 477 145 548 113 C 619 81 695 66 776 66 C 830 66 882 73 932 87 C 982 101 1028 122 1071 148 C 1114 174 1153 206 1189 242 C 1225 278 1255 319 1280 363 C 1305 407 1325 455 1339 505 C 1353 555 1360 608 1360 662 Z M 1133 819 C 1133 773 1124 733 1106 700 C 1088 667 1064 640 1034 619 C 1004 598 968 583 927 573 C 885 563 841 559 795 559 C 788 559 778 559 766 560 C 754 560 744 561 737 563 L 737 365 L 881 346 L 881 291 L 457 291 L 457 346 L 584 365 L 584 958 L 457 975 L 457 1026 L 838 1026 C 876 1026 912 1021 948 1013 C 983 1004 1014 991 1042 974 C 1069 957 1091 936 1108 910 C 1124 884 1133 853 1133 819 Z M 973 809 C 973 833 969 854 961 874 C 953 894 942 911 928 925 C 914 939 897 949 877 957 C 857 965 835 969 811 969 C 798 969 785 968 773 968 C 760 968 748 966 737 963 L 737 618 C 747 616 758 615 769 615 C 780 614 789 614 797 614 C 856 614 900 631 929 667 C 958 703 973 750 973 809 Z" unicode="" />
<glyph horiz-adv-x="1024" d="M 983 940 L 795 940 L 795 969 L 848 977 L 831 1247 L 700 940 L 672 940 L 541 1245 L 528 979 L 582 969 L 582 940 L 434 940 L 434 969 L 487 979 L 502 1282 L 449 1290 L 449 1319 L 596 1319 L 707 1061 L 817 1319 L 963 1319 L 963 1290 L 909 1282 L 930 977 L 983 969 L 983 940 Z M 412 1210 L 375 1210 L 367 1284 L 274 1284 L 274 977 L 328 969 L 328 940 L 137 940 L 137 969 L 190 977 L 190 1284 L 98 1284 L 90 1210 L 53 1210 L 53 1319 L 412 1319 L 412 1210 Z" unicode="" />
<glyph horiz-adv-x="1664" d="M 832 1376 C 706 1376 599 1328 510 1234 C 420 1139 376 1006 376 836 C 376 673 405 538 464 432 C 522 325 609 241 724 180 L 724 0 L 88 0 L 88 196 L 536 196 C 456 225 378 295 304 406 C 229 516 192 664 192 848 C 192 1024 247 1184 358 1330 C 468 1475 626 1548 832 1548 C 1037 1548 1195 1478 1306 1338 C 1416 1198 1472 1034 1472 848 C 1472 664 1434 516 1360 406 C 1285 295 1208 225 1128 196 L 1576 196 L 1576 0 L 940 0 L 940 180 C 1054 241 1141 325 1200 432 C 1258 538 1288 673 1288 836 C 1288 974 1246 1099 1162 1210 C 1078 1320 968 1376 832 1376 Z" unicode="" />
<glyph horiz-adv-x="1280" d="M 476 -32 C 342 -32 239 5 166 80 C 92 154 56 248 56 360 C 56 506 108 636 214 750 C 319 863 449 920 604 920 C 668 920 734 908 802 886 C 870 863 924 840 964 816 C 972 872 976 928 976 984 C 976 1109 953 1207 908 1278 C 862 1348 800 1384 720 1384 C 634 1384 567 1374 518 1356 C 468 1337 418 1312 368 1280 L 324 1444 C 374 1473 430 1498 492 1518 C 553 1538 629 1548 720 1548 C 877 1548 992 1496 1064 1394 C 1136 1291 1172 1149 1172 968 C 1172 690 1104 454 968 260 C 832 65 668 -32 476 -32 Z M 488 128 C 602 128 698 174 774 268 C 850 361 906 500 944 684 C 922 705 882 726 824 748 C 765 769 706 780 648 780 C 520 780 424 738 360 654 C 296 570 264 476 264 372 C 264 300 282 241 318 196 C 354 150 410 128 488 128 Z" unicode="" />
<glyph horiz-adv-x="1536" d="M 76 0 L 652 1536 L 884 1536 L 1456 0 L 76 0 Z M 352 148 L 1164 148 L 752 1256 L 352 148 Z" unicode="" />
<glyph horiz-adv-x="1536" d="M 332 0 L 332 1348 L 80 1348 L 80 1524 L 1456 1524 L 1456 1348 L 1212 1348 L 1212 0 L 1004 0 L 1004 1356 L 540 1356 L 540 0 L 332 0 Z" unicode="" />
<glyph horiz-adv-x="1152" d="M 1084 1524 L 1084 1344 L 332 1344 L 796 784 L 304 188 L 1080 188 L 1080 0 L 40 0 L 40 172 L 560 788 L 68 1380 L 68 1524 L 1084 1524 Z" unicode="" />
<glyph horiz-adv-x="1241" d="M 1094 553 L 147 553 L 147 664 L 1094 664 L 1094 553 Z" unicode="" />
<glyph horiz-adv-x="707" d="M 805 1309 L -20 -41 L -98 8 L 727 1358 L 805 1309 Z" unicode="" />
<glyph horiz-adv-x="553" d="M 412 541 C 412 522 408 504 401 488 C 393 472 383 457 371 445 C 359 433 344 423 328 416 C 312 409 294 406 276 406 C 258 406 240 409 224 416 C 208 423 193 433 181 445 C 169 457 159 472 152 488 C 144 504 141 522 141 541 C 141 559 144 576 152 592 C 159 608 169 623 181 635 C 193 647 208 657 224 665 C 240 672 258 676 276 676 C 294 676 312 672 328 665 C 344 657 359 647 371 635 C 383 623 393 608 401 592 C 408 576 412 559 412 541 Z" unicode="" />
<glyph horiz-adv-x="1051" d="M 1174 1483 L 492 -102 L 438 -102 L 98 674 L 0 696 L 0 750 L 285 750 L 522 174 L 1075 1483 L 1174 1483 Z" unicode="" />
<glyph horiz-adv-x="1536" d="M 468 1216 C 566 1216 646 1188 706 1134 C 766 1079 813 981 848 840 C 853 720 877 642 920 608 C 962 573 1013 556 1072 556 C 1128 556 1176 579 1218 626 C 1259 672 1280 736 1280 816 C 1280 882 1264 940 1234 988 C 1203 1036 1152 1060 1080 1060 C 1008 1060 954 1029 920 968 C 885 906 857 834 836 752 C 809 648 760 562 688 496 C 616 429 533 396 440 396 C 336 396 252 433 190 508 C 127 582 96 682 96 808 C 96 925 133 1022 208 1100 C 282 1177 369 1216 468 1216 Z M 1072 396 C 973 396 896 424 840 482 C 784 539 741 633 712 764 C 685 870 652 944 614 986 C 575 1027 528 1048 472 1048 C 408 1048 356 1026 316 982 C 276 938 256 874 256 792 C 256 709 271 648 302 610 C 332 571 381 552 448 552 C 509 552 562 576 608 624 C 653 672 689 752 716 864 C 748 984 796 1072 860 1130 C 924 1187 1004 1216 1100 1216 C 1198 1216 1280 1181 1346 1112 C 1411 1042 1444 945 1444 820 C 1444 700 1409 599 1340 518 C 1270 436 1181 396 1072 396 Z" unicode="" />
<glyph horiz-adv-x="1152" d="M -8 -392 L 56 -260 C 72 -265 88 -270 104 -274 C 120 -278 140 -280 164 -280 C 196 -280 222 -268 242 -246 C 262 -223 277 -178 288 -112 L 516 1224 C 534 1330 574 1410 636 1464 C 697 1517 778 1544 880 1544 C 941 1544 995 1536 1042 1522 C 1088 1507 1125 1492 1152 1476 L 1088 1304 C 1058 1322 1025 1340 988 1356 C 950 1372 910 1380 868 1380 C 806 1380 760 1360 730 1322 C 699 1283 680 1238 672 1188 L 448 -224 C 434 -296 402 -348 350 -382 C 298 -415 240 -432 176 -432 C 136 -432 99 -428 66 -420 C 32 -412 8 -402 -8 -392 Z" unicode="" />
<glyph horiz-adv-x="1536" d="M 236 400 C 230 429 228 456 228 480 C 228 546 248 604 288 652 C 328 700 390 724 476 724 C 542 724 600 714 650 696 C 699 677 745 659 788 642 C 830 624 872 610 912 598 C 952 586 988 580 1020 580 C 1070 580 1106 590 1128 610 C 1149 630 1160 654 1160 684 C 1160 694 1158 705 1156 716 L 1300 716 C 1305 686 1308 660 1308 636 C 1308 569 1288 512 1248 464 C 1208 416 1145 392 1060 392 C 993 392 935 400 886 418 C 836 435 790 452 748 470 C 705 487 664 501 624 512 C 584 522 548 528 516 528 C 465 528 429 518 408 500 C 386 481 376 458 376 432 C 376 421 377 410 380 400 L 236 400 Z M 236 860 C 230 889 228 916 228 940 C 228 1006 248 1064 288 1112 C 328 1160 390 1184 476 1184 C 542 1184 600 1174 650 1156 C 699 1137 745 1119 788 1102 C 830 1084 872 1070 912 1058 C 952 1046 988 1040 1020 1040 C 1070 1040 1106 1050 1128 1070 C 1149 1090 1160 1114 1160 1144 C 1160 1154 1158 1165 1156 1176 L 1300 1176 C 1305 1146 1308 1120 1308 1096 C 1308 1029 1288 972 1248 924 C 1208 876 1145 852 1060 852 C 993 852 935 860 886 878 C 836 895 790 912 748 930 C 705 947 664 961 624 972 C 584 982 548 988 516 988 C 465 988 429 978 408 960 C 386 941 376 918 376 892 C 376 881 377 870 380 860 L 236 860 Z" unicode="" />
<glyph horiz-adv-x="1536" d="M 212 404 L 212 604 L 1328 604 L 1328 404 L 212 404 Z M 212 976 L 212 1176 L 1328 1176 L 1328 976 L 212 976 Z M 548 188 L 372 188 L 996 1356 L 1168 1356 L 548 188 Z" unicode="" />
<glyph horiz-adv-x="1536" d="M 1348 236 L 208 708 L 208 872 L 1348 1344 L 1348 1128 L 448 792 L 1348 452 L 1348 236 Z M 212 24 L 212 216 L 1348 216 L 1348 24 L 212 24 Z" unicode="" />
<glyph horiz-adv-x="1536" d="M 212 236 L 212 452 L 1112 792 L 212 1128 L 212 1344 L 1352 872 L 1352 708 L 212 236 Z M 212 24 L 212 216 L 1348 216 L 1348 24 L 212 24 Z" unicode="" />
<glyph horiz-adv-x="819" d="M 672 647 L 410 385 L 147 647 L 410 909 L 672 647 Z" unicode="" />
<glyph horiz-adv-x="2048" d="M 1462 774 C 1462 744 1456 718 1444 695 C 1432 671 1417 652 1398 636 C 1379 620 1357 607 1333 599 C 1308 590 1283 586 1257 586 C 1231 586 1206 590 1182 598 C 1158 606 1134 616 1112 629 L 1133 690 C 1151 680 1169 672 1189 664 C 1209 656 1229 653 1251 653 C 1267 653 1283 656 1297 662 C 1311 668 1323 676 1335 688 L 1266 825 C 1269 846 1280 864 1298 878 C 1316 892 1335 899 1356 899 C 1372 899 1386 895 1399 888 C 1412 880 1423 871 1433 859 C 1442 847 1449 833 1454 818 C 1459 803 1462 788 1462 774 Z M 889 684 C 889 658 884 633 876 609 C 868 585 858 561 846 539 L 784 559 C 793 577 801 596 809 616 C 817 636 821 656 821 678 C 821 710 809 738 786 762 L 649 692 C 627 695 610 706 596 724 C 582 742 575 761 575 782 C 575 798 578 812 586 825 C 593 838 603 849 615 859 C 627 869 640 876 655 881 C 670 886 685 889 700 889 C 729 889 755 883 779 871 C 802 859 822 844 838 825 C 854 806 867 784 876 760 C 884 735 889 710 889 684 Z M 1946 383 L 1743 383 L 1589 436 L 1632 287 L 1632 174 L 1518 174 L 1518 287 L 1561 436 L 1391 373 L 1036 438 L 1102 84 L 1038 -86 L 1188 -43 L 1300 -43 L 1300 -158 L 1188 -158 L 1038 -115 L 1092 -268 L 1092 -471 L 956 -471 L 956 -268 L 1010 -115 L 860 -158 L 748 -158 L 748 -43 L 860 -43 L 1010 -86 L 946 84 L 1012 438 L 657 373 L 487 436 L 530 287 L 530 174 L 416 174 L 416 287 L 459 436 L 305 383 L 102 383 L 102 518 L 305 518 L 459 465 L 416 614 L 416 727 L 530 727 L 530 614 L 487 465 L 657 528 L 1012 463 L 946 817 L 1010 987 L 860 944 L 748 944 L 748 1059 L 860 1059 L 1010 1016 L 956 1169 L 956 1372 L 1092 1372 L 1092 1169 L 1038 1016 L 1188 1059 L 1300 1059 L 1300 944 L 1188 944 L 1038 987 L 1102 817 L 1036 463 L 1391 528 L 1561 465 L 1518 614 L 1518 727 L 1632 727 L 1632 614 L 1589 465 L 1743 518 L 1946 518 L 1946 383 Z M 1473 119 C 1473 103 1469 88 1462 75 C 1454 62 1445 51 1433 41 C 1421 31 1407 24 1392 19 C 1377 14 1362 12 1348 12 C 1318 12 1292 17 1269 29 C 1245 41 1225 56 1209 75 C 1193 94 1180 116 1172 141 C 1163 165 1159 191 1159 217 C 1159 242 1163 267 1171 291 C 1179 315 1190 339 1202 362 L 1264 342 C 1254 323 1246 304 1238 284 C 1230 264 1227 244 1227 223 C 1227 190 1238 162 1262 139 L 1399 209 C 1420 205 1438 195 1452 177 C 1466 159 1473 139 1473 119 Z M 936 272 L 915 211 C 897 220 878 228 858 236 C 838 244 818 248 797 248 C 763 248 735 236 713 213 L 782 76 C 778 54 768 37 750 23 C 732 9 712 2 692 2 C 676 2 661 5 648 13 C 635 20 624 30 615 42 C 605 54 598 67 593 82 C 588 97 586 112 586 127 C 586 156 591 182 603 206 C 615 229 630 249 649 265 C 668 281 690 293 715 302 C 739 310 765 315 791 315 C 816 315 841 311 865 303 C 889 295 913 284 936 272 Z" unicode="" />
<glyph horiz-adv-x="1219" d="M 1343 1430 L 1274 1257 C 1214 1298 1164 1329 1126 1350 C 1087 1371 1061 1382 1047 1382 C 1034 1382 1023 1378 1013 1372 C 1003 1366 995 1355 989 1340 C 982 1325 977 1306 974 1282 C 970 1258 969 1228 969 1192 L 969 864 L 1221 864 L 1221 778 L 969 778 L 969 74 L 1157 53 L 1157 0 L 623 0 L 623 53 L 748 74 L 748 778 L 391 778 L 391 74 L 551 53 L 551 0 L 45 0 L 45 53 L 170 74 L 170 774 L 37 774 L 37 836 L 170 866 L 170 971 C 170 1047 180 1115 202 1175 C 224 1235 255 1286 295 1328 C 335 1370 383 1402 439 1424 C 495 1446 559 1458 629 1458 C 649 1458 671 1455 695 1451 C 718 1447 741 1441 764 1433 C 786 1425 808 1417 829 1407 C 849 1397 868 1388 885 1378 C 917 1409 956 1433 1000 1450 C 1044 1466 1095 1475 1151 1475 C 1187 1475 1220 1471 1251 1464 C 1281 1457 1312 1446 1343 1430 Z M 799 1249 C 763 1292 728 1325 694 1349 C 660 1372 634 1384 616 1384 C 581 1384 550 1378 522 1368 C 494 1358 471 1341 451 1318 C 431 1294 416 1263 406 1225 C 396 1187 391 1139 391 1083 L 391 864 L 748 864 L 748 963 C 748 1017 751 1068 759 1118 C 767 1167 780 1211 799 1249 Z" unicode="" />
<glyph horiz-adv-x="1135" d="M 1106 0 L 635 0 L 635 53 L 760 74 L 760 766 L 633 778 L 391 778 L 391 74 L 551 53 L 551 0 L 45 0 L 45 53 L 170 74 L 170 774 L 37 774 L 37 836 L 170 866 L 170 965 C 170 1048 181 1121 205 1185 C 229 1248 262 1301 304 1344 C 346 1387 397 1420 456 1442 C 514 1464 579 1475 649 1475 C 723 1475 787 1465 839 1447 C 891 1428 935 1401 971 1366 L 864 1188 C 815 1235 776 1272 747 1300 C 717 1327 694 1347 677 1361 C 659 1375 646 1383 636 1387 C 626 1391 617 1393 608 1393 C 572 1393 540 1387 513 1377 C 486 1366 464 1347 446 1321 C 428 1294 414 1258 405 1212 C 395 1166 391 1108 391 1038 L 391 864 L 633 864 L 981 889 L 981 74 L 1106 53 L 1106 0 Z" unicode="" />
<glyph horiz-adv-x="1141" d="M 1106 0 L 635 0 L 635 53 L 760 74 L 760 1266 C 726 1316 695 1350 667 1370 C 639 1389 612 1399 588 1399 C 556 1399 527 1394 503 1385 C 479 1375 458 1359 442 1337 C 425 1315 412 1285 404 1247 C 395 1209 391 1161 391 1104 L 391 864 L 643 864 L 643 778 L 391 778 L 391 74 L 551 53 L 551 0 L 45 0 L 45 53 L 170 74 L 170 774 L 37 774 L 37 836 L 170 866 L 170 991 C 170 1067 180 1134 200 1194 C 220 1254 250 1304 288 1346 C 326 1388 371 1420 425 1442 C 479 1464 539 1475 606 1475 C 649 1475 687 1470 720 1460 C 753 1450 785 1436 815 1419 L 981 1442 L 981 74 L 1106 53 L 1106 0 Z" unicode="" />
<glyph horiz-adv-x="1712" d="M 1683 0 L 1212 0 L 1212 53 L 1337 74 L 1337 766 L 1210 778 L 969 778 L 969 74 L 1128 53 L 1128 0 L 623 0 L 623 53 L 748 74 L 748 778 L 391 778 L 391 74 L 551 53 L 551 0 L 45 0 L 45 53 L 170 74 L 170 774 L 37 774 L 37 836 L 170 866 L 170 971 C 170 1047 180 1115 202 1175 C 224 1235 255 1286 295 1328 C 335 1370 383 1402 439 1424 C 495 1446 559 1458 629 1458 C 651 1458 676 1455 702 1450 C 728 1444 753 1437 778 1429 C 803 1420 827 1410 849 1399 C 871 1388 889 1377 905 1366 C 946 1402 994 1429 1048 1447 C 1102 1465 1162 1475 1227 1475 C 1301 1475 1364 1465 1417 1447 C 1469 1428 1513 1401 1548 1366 L 1442 1188 C 1393 1235 1354 1272 1325 1300 C 1295 1327 1272 1347 1254 1361 C 1236 1375 1223 1383 1214 1387 C 1204 1391 1195 1393 1186 1393 C 1150 1393 1118 1387 1091 1377 C 1064 1366 1041 1347 1023 1321 C 1005 1294 991 1258 982 1212 C 973 1166 969 1108 969 1038 L 969 864 L 1210 864 L 1559 889 L 1559 74 L 1683 53 L 1683 0 Z M 807 1239 C 788 1261 769 1281 751 1299 C 732 1317 714 1332 697 1345 C 680 1357 665 1367 651 1374 C 637 1380 625 1384 616 1384 C 581 1384 550 1378 522 1368 C 494 1358 471 1341 451 1318 C 431 1294 416 1263 406 1225 C 396 1187 391 1139 391 1083 L 391 864 L 748 864 L 748 965 C 748 1073 767 1164 807 1239 Z" unicode="" />
<glyph horiz-adv-x="1718" d="M 1683 0 L 1212 0 L 1212 53 L 1337 74 L 1337 1266 C 1304 1316 1273 1350 1245 1370 C 1216 1389 1189 1399 1165 1399 C 1133 1399 1104 1394 1080 1385 C 1056 1375 1035 1359 1019 1337 C 1003 1315 990 1285 982 1247 C 973 1209 969 1161 969 1104 L 969 864 L 1214 864 L 1214 778 L 969 778 L 969 74 L 1128 53 L 1128 0 L 623 0 L 623 53 L 748 74 L 748 778 L 391 778 L 391 74 L 551 53 L 551 0 L 45 0 L 45 53 L 170 74 L 170 774 L 37 774 L 37 836 L 170 866 L 170 971 C 170 1047 180 1115 202 1175 C 224 1235 255 1286 295 1328 C 335 1370 383 1402 439 1424 C 495 1446 559 1458 629 1458 C 651 1458 674 1455 698 1451 C 722 1446 745 1440 769 1432 C 792 1424 814 1415 836 1405 C 857 1395 876 1384 893 1374 C 968 1441 1065 1475 1184 1475 C 1227 1475 1265 1470 1298 1460 C 1331 1450 1363 1436 1393 1419 L 1559 1442 L 1559 74 L 1683 53 L 1683 0 Z M 801 1247 C 765 1290 729 1324 695 1348 C 661 1372 634 1384 616 1384 C 581 1384 550 1378 522 1368 C 494 1358 471 1341 451 1318 C 431 1294 416 1263 406 1225 C 396 1187 391 1139 391 1083 L 391 864 L 748 864 L 748 991 C 748 1041 752 1088 761 1130 C 770 1172 783 1211 801 1247 Z" unicode="" />
</font>
</defs>
</svg>
