<?xml version="1.0" encoding="utf-8"?>
<!-- Generator: Adobe Illustrator 19.1.0, SVG Export Plug-In . SVG Version: 6.00 Build 0)  -->
<!DOCTYPE svg PUBLIC "-//W3C//DTD SVG 1.1//EN" "http://www.w3.org/Graphics/SVG/1.1/DTD/svg11.dtd">
<svg version="1.1" id="Layer_1" xmlns="http://www.w3.org/2000/svg" xmlns:xlink="http://www.w3.org/1999/xlink" x="0px" y="0px"
	 viewBox="0 0 12 12" style="enable-background:new 0 0 12 12;" xml:space="preserve">
<style type="text/css">
	.st0{fill:#999999;}
</style>
<path class="st0" d="M7.4,7.5c-1.6,0-3-1.3-3-3s1.3-3,3-3s3,1.3,3,3S9,7.5,7.4,7.5 M7.4,0C4.9,0,3,2,3,4.5c0,0.9,0.2,1.7,0.7,2.4
	l-3.4,3.4c-0.4,0.4-0.4,1,0,1.4C0.5,11.9,0.7,12,1,12c0.2,0,0.5-0.1,0.7-0.3L5,8.3C5.7,8.7,6.5,9,7.4,9c2.5,0,4.4-2,4.4-4.5
	S9.9,0,7.4,0"/>
</svg>
