<?xml version="1.0" encoding="utf-8"?>
<!-- Generator: Adobe Illustrator 19.1.0, SVG Export Plug-In . SVG Version: 6.00 Build 0)  -->
<!DOCTYPE svg PUBLIC "-//W3C//DTD SVG 1.1//EN" "http://www.w3.org/Graphics/SVG/1.1/DTD/svg11.dtd">
<svg version="1.1" xmlns="http://www.w3.org/2000/svg" xmlns:xlink="http://www.w3.org/1999/xlink" x="0px" y="0px"
	 viewBox="0 0 300 200" style="enable-background:new 0 0 300 200;" xml:space="preserve">
<style type="text/css">
	.st0{display:none;}
	.st1{fill:#A17A94;}
	.st2{fill:#B96569;}
	.st3{fill:#CA7A68;}
	.st4{fill:#76909F;}
	.st5{fill:#B1AE68;}
	.st6{fill:#999999;}
	.st7{fill:#CF995A;}
	.st8{fill:#9C8F68;}
	.st9{fill:#6F9A7C;}
	.st10{fill:#FFFFFF;}
</style>
<g id="gray_icon_linework" class="st0">
</g>
<g id="BGs">
	<path class="st4" d="M276,200H24c-13.255,0-24-10.745-24-24V24C0,10.745,10.745,0,24,0h252c13.255,0,24,10.745,24,24v152
		C300,189.255,289.255,200,276,200z"/>
</g>
<g id="Layer_1">
	<g id="atv">
		<path class="st10" d="M212.669,95.71c-19.023,0-34.5,15.317-34.5,34.145c0,18.828,15.477,34.145,34.5,34.145
			c19.023,0,34.5-15.318,34.5-34.145C247.169,111.027,231.692,95.71,212.669,95.71z"/>
		<path class="st4" d="M212.669,143.216c-7.444,0-13.5-5.994-13.5-13.361s6.056-13.361,13.5-13.361c7.444,0,13.5,5.994,13.5,13.361
			S220.113,143.216,212.669,143.216z"/>
		<path class="st10" d="M75.467,95.71c-19.023,0-34.5,15.317-34.5,34.145c0,18.828,15.477,34.145,34.5,34.145
			s34.5-15.318,34.5-34.145C109.967,111.027,94.491,95.71,75.467,95.71z"/>
		<path class="st4" d="M75.467,143.216c-7.444,0-13.5-5.994-13.5-13.361s6.056-13.361,13.5-13.361s13.5,5.994,13.5,13.361
			S82.911,143.216,75.467,143.216z"/>
		<path class="st10" d="M254.294,87.205c0,0-8.066-30.13-47.625-30.13c-3.192,0-6.218,0.322-9.094,0.87l-4.593-15.252
			c-0.568-1.888-2.322-3.182-4.312-3.182h-24.75c-2.485,0-4.5,1.994-4.5,4.454s2.015,4.454,4.5,4.454h21.396l3.616,12.007
			c-17.652,6.854-27.262,21.852-27.262,21.852h-40.48l-4.215-16.858c-0.615-2.46-3.128-4.454-5.614-4.454H78.919
			c-2.485,0-4.5,1.994-4.5,4.454h-26.75c-2.485,0-4.5,1.994-4.5,4.454v33.419c7.704-9.166,19.31-15.006,32.298-15.006
			c23.196,0,42,18.611,42,41.568c0,1.918-0.177,3.79-0.431,5.639H171.1c-0.254-1.849-0.431-3.721-0.431-5.639
			c0-22.957,18.804-41.568,42-41.568c17.63,0,32.698,10.763,38.926,26.001h11.699V96.113
			C263.294,91.193,259.264,87.205,254.294,87.205z"/>
		<g>
			<path class="st4" d="M153.231,126.535h-24.817c-1.657,0-3-1.329-3-2.969c0-1.64,1.343-2.969,3-2.969h21.595
				c-0.243-5.959,0.087-19.001,6.081-32.188c0.68-1.495,2.456-2.162,3.967-1.49c1.511,0.673,2.185,2.431,1.505,3.926
				c-7.285,16.026-5.374,32.195-5.354,32.357c0.105,0.844-0.16,1.693-0.73,2.331C154.909,126.17,154.091,126.535,153.231,126.535z"
				/>
		</g>
	</g>
	<g id="silo">
	</g>
	<g id="skid-loader">
	</g>
	<g id="landscape">
	</g>
	<g id="tractor">
	</g>
	<g id="livestock">
	</g>
	<g id="truck">
	</g>
	<g id="other">
	</g>
</g>
</svg>
