<?xml version="1.0" encoding="utf-8"?>
<!-- Generator: Adobe Illustrator 19.1.0, SVG Export Plug-In . SVG Version: 6.00 Build 0)  -->
<!DOCTYPE svg PUBLIC "-//W3C//DTD SVG 1.1//EN" "http://www.w3.org/Graphics/SVG/1.1/DTD/svg11.dtd">
<svg version="1.1" xmlns="http://www.w3.org/2000/svg" xmlns:xlink="http://www.w3.org/1999/xlink" x="0px" y="0px"
	 viewBox="0 0 300 200" style="enable-background:new 0 0 300 200;" xml:space="preserve">
<style type="text/css">
	.st0{display:none;}
	.st1{fill:#A17A94;}
	.st2{fill:#B96569;}
	.st3{fill:#CA7A68;}
	.st4{fill:#76909F;}
	.st5{fill:#B1AE68;}
	.st6{fill:#999999;}
	.st7{fill:#CF995A;}
	.st8{fill:#9C8F68;}
	.st9{fill:#6F9A7C;}
	.st10{fill:#FFFFFF;}
</style>
<g id="gray_icon_linework" class="st0">
</g>
<g id="BGs">
	<path class="st8" d="M276,200H24c-13.255,0-24-10.745-24-24V24C0,10.745,10.745,0,24,0h252c13.255,0,24,10.745,24,24v152
		C300,189.255,289.255,200,276,200z"/>
</g>
<g id="Layer_1">
	<g id="atv">
	</g>
	<g id="silo">
	</g>
	<g id="skid-loader">
	</g>
	<g id="landscape">
	</g>
	<g id="tractor">
	</g>
	<g id="livestock">
	</g>
	<g id="truck">
		<path class="st10" d="M218.137,117.202c-18.923,0-34.318,15.396-34.318,34.318s15.395,34.318,34.318,34.318
			c18.923,0,34.318-15.396,34.318-34.318S237.06,117.202,218.137,117.202z"/>
		<path class="st8" d="M218.137,164.949c-7.405,0-13.429-6.024-13.429-13.429s6.024-13.429,13.429-13.429
			c7.404,0,13.428,6.024,13.428,13.429S225.542,164.949,218.137,164.949z"/>
		<path class="st10" d="M0,117.202v1.492v1.492v14.921v1.491v1.493c7.405,0,13.429,6.024,13.429,13.429S7.405,164.949,0,164.949
			v1.492v1.492v14.921v1.491v1.493c18.923,0,34.318-15.396,34.318-34.318S18.923,117.202,0,117.202z"/>
		<path class="st10" d="M282.744,132.522h-2.48h-2.48h-3.449V83.018c0-2.462-2.014-4.639-4.476-4.838l-97.373-7.974l-29.218-49.243
			c-1.656-2.462-5.025-4.476-7.487-4.476H61.922c-2.462,0-4.646,2.014-4.853,4.476l-4.145,49.239H0v66.398h39.024
			c1.773,4.635,2.754,9.662,2.754,14.921h134.58c0-5.261,0.992-10.285,2.768-14.921h78.028c1.776,4.635,2.761,9.661,2.761,14.921
			h17.868h2.48h2.48c0.688,0,1.25-0.562,1.25-1.25v-16.498C283.994,133.085,283.432,132.522,282.744,132.522z"/>
		<path class="st8" d="M77.091,70.201V25.439h58.065c0.221,0.125,0.49,0.323,0.641,0.481l26.274,44.282H77.091z"/>
		<path class="st10" d="M128.911,102.136c-0.667,0-1.345-0.15-1.984-0.467c-2.215-1.098-3.121-3.783-2.023-5.998l17.859-36.046
			c1.097-2.215,3.782-3.122,5.998-2.023c2.215,1.098,3.121,3.783,2.023,5.998l-17.859,36.046
			C132.145,101.222,130.559,102.136,128.911,102.136z"/>
		<path class="st8" d="M149.209,136.6H81.567c-4.114,0-7.46-3.347-7.46-7.461V77.525c0-1.648,1.336-2.984,2.984-2.984
			s2.984,1.336,2.984,2.984v51.613c0,0.809,0.683,1.492,1.492,1.492h67.642c0.91,0,1.887-0.824,2.103-1.739l-0.185-23.783
			c-0.003-0.425,0.084-0.846,0.256-1.233l12.225-27.56c0.668-1.507,2.431-2.188,3.938-1.518c1.507,0.668,2.186,2.431,1.518,3.938
			L157.1,105.706l0.182,23.409c0.001,0.144-0.008,0.287-0.027,0.429C156.713,133.5,153.179,136.6,149.209,136.6z"/>
	</g>
	<g id="other">
	</g>
</g>
</svg>
