<?xml version="1.0" encoding="utf-8"?>
<!-- Generator: Adobe Illustrator 19.1.0, SVG Export Plug-In . SVG Version: 6.00 Build 0)  -->
<!DOCTYPE svg PUBLIC "-//W3C//DTD SVG 1.1//EN" "http://www.w3.org/Graphics/SVG/1.1/DTD/svg11.dtd">
<svg version="1.1" xmlns="http://www.w3.org/2000/svg" xmlns:xlink="http://www.w3.org/1999/xlink" x="0px" y="0px"
	 viewBox="0 0 300 200" style="enable-background:new 0 0 300 200;" xml:space="preserve">
<style type="text/css">
	.st0{display:none;}
	.st1{fill:#A17A94;}
	.st2{fill:#B96569;}
	.st3{fill:#CA7A68;}
	.st4{fill:#76909F;}
	.st5{fill:#B1AE68;}
	.st6{fill:#999999;}
	.st7{fill:#CF995A;}
	.st8{fill:#9C8F68;}
	.st9{fill:#6F9A7C;}
	.st10{fill:#FFFFFF;}
</style>
<g id="gray_icon_linework" class="st0">
</g>
<g id="BGs">
	<path class="st3" d="M276,200H24c-13.255,0-24-10.745-24-24V24C0,10.745,10.745,0,24,0h252c13.255,0,24,10.745,24,24v152
		C300,189.255,289.255,200,276,200z"/>
</g>
<g id="Layer_1">
	<g id="atv">
	</g>
	<g id="silo">
	</g>
	<g id="skid-loader">
	</g>
	<g id="landscape">
	</g>
	<g id="tractor">
	</g>
	<g id="livestock">
		<path class="st10" d="M261.838,79.75c-2.905-7.262-7.278-19.95-13.802-29.824c4.049-0.606,9.85-2.066,13.015-7.745
			c1.197-2.147,2.229-5.957,0.178-7.361c-1.395-0.955-3.023,1.353-5.006,2.851c-4.392,3.318-8.706,2.868-12.75,2.662
			c-3.068-0.163-5.221-1.324-5.335-1.387c-0.338-0.196-0.694-0.327-1.054-0.427c-1.256-0.649-2.546-1.095-3.872-1.291
			c-15.6-2.302-22.61,8.51-32.067,10.593C180.581,52.354,91.5,33.839,67.441,46.059c-6,3.048-10.053,6.962-12.776,11.292
			c-11.963,13.623-13.375,58.398-13.316,59.982c0.06,1.618,4.818-0.5,6.05-4.575c1.062-3.513,2.418-14.581,2.959-21.077
			c2.292,11.69,7.534,16.187,7.534,16.187L44.5,133l5.401,39h9.825v-31.825l11.311-7.761L84.738,172h10.375l-6.331-47.1
			l24.631,5.517l7.006-2.838h37.869V172h9.262l11.658-44.42h2.829l17.35,44.42h9.5l-5-53.075l16.591-34.127
			c0,0,7.534,2.91,24.535,9.885C260.695,101.116,266.588,91.625,261.838,79.75z"/>
	</g>
	<g id="truck">
	</g>
	<g id="other">
	</g>
</g>
</svg>
