<?xml version="1.0" encoding="utf-8" ?><svg version="1.1" xmlns = 'http://www.w3.org/2000/svg'><defs><font id='web' horiz-adv-x="1000">
<font-face font-family="web" descent="-102" cap-height="384" units-per-em="578" bbox="-60,-124,666,559" x-height="275" ascent="407" />
<missing-glyph horiz-adv-x="288" d="M 16 358 L 272 358 L 272 0 L 16 0 L 16 358 Z M 42 26 L 246 26 L 246 333 L 42 333 L 42 26 Z" /><glyph horiz-adv-x="160" d="" unicode=" " />
<glyph horiz-adv-x="192" d="M 106 119 L 86 119 L 60 353 C 58 367 61 376 67 381 C 73 385 82 388 96 388 C 109 388 119 385 125 381 C 131 376 133 367 132 353 L 106 119 Z M 137 33 C 137 21 132 12 124 4 C 116 -4 106 -8 96 -8 C 84 -8 74 -4 66 4 C 58 12 54 21 54 33 C 54 45 58 55 66 63 C 74 71 84 75 96 75 C 106 75 116 71 124 63 C 132 55 137 45 137 33 Z" unicode="!" />
<glyph horiz-adv-x="224" d="M 70 232 L 52 232 L 30 356 C 26 376 37 387 61 387 C 85 387 95 376 92 356 L 70 232 Z M 171 232 L 153 232 L 131 356 C 127 376 138 387 162 387 C 186 387 196 376 193 356 L 171 232 Z" unicode="&#x22;" />
<glyph horiz-adv-x="352" d="M 315 142 L 315 93 L 246 93 L 233 0 L 200 0 L 213 93 L 109 93 L 96 0 L 63 0 L 76 93 L 25 93 L 25 142 L 83 142 L 97 241 L 36 241 L 36 290 L 104 290 L 118 384 L 151 384 L 137 290 L 241 290 L 255 384 L 288 384 L 274 290 L 326 290 L 326 241 L 267 241 L 253 142 L 315 142 Z M 116 142 L 220 142 L 234 241 L 130 241 L 116 142 Z" unicode="#" />
<glyph horiz-adv-x="320" d="M 141 426 L 171 426 L 171 384 C 197 383 218 381 232 377 C 248 373 260 369 268 365 L 276 284 L 251 284 L 244 301 C 238 316 229 329 216 340 C 204 350 189 355 171 357 L 171 218 C 213 204 243 190 261 174 C 279 158 289 136 289 108 C 289 75 275 49 249 29 C 228 13 202 4 171 1 L 171 -60 L 141 -60 L 141 0 C 111 0 88 1 70 5 C 51 9 37 13 28 18 L 20 97 L 45 97 L 51 82 C 58 62 69 48 84 40 C 98 31 117 27 141 27 L 141 175 C 105 185 78 198 58 214 C 38 229 29 251 29 281 C 29 311 41 336 67 355 C 87 370 111 379 141 383 L 141 426 Z M 214 43 C 230 54 239 70 239 91 C 239 108 232 123 219 137 C 209 147 193 156 171 165 L 171 28 C 188 30 202 35 214 43 Z M 100 340 C 86 329 80 315 80 298 C 80 288 81 279 84 272 C 86 265 91 259 98 253 C 104 247 113 241 125 236 C 129 234 135 231 141 229 L 141 356 C 123 353 110 348 100 340 Z" unicode="$" />
<glyph horiz-adv-x="480" d="M 456 111 C 456 77 447 49 430 27 C 412 5 390 -6 362 -6 C 337 -6 316 3 299 23 C 282 42 274 70 274 106 C 274 140 282 169 300 191 C 318 213 340 224 367 224 C 392 224 413 214 430 195 C 447 175 456 147 456 111 Z M 205 277 C 205 242 196 214 179 192 C 162 170 140 159 112 159 C 87 159 66 168 49 187 C 32 206 24 234 24 272 C 24 306 32 334 50 356 C 67 378 90 389 118 389 C 143 389 164 379 180 360 C 196 340 205 313 205 277 Z M 410 104 C 410 132 406 155 399 173 C 391 191 379 200 362 200 C 347 200 336 192 329 177 C 322 162 319 141 319 113 C 319 85 323 62 331 45 C 339 27 351 19 367 19 C 383 19 395 26 401 40 C 407 54 410 75 410 104 Z M 161 270 C 161 298 157 320 149 338 C 141 355 129 364 112 364 C 96 364 85 357 79 343 C 73 329 70 307 70 279 C 70 251 73 228 81 210 C 88 192 100 183 118 183 C 132 183 143 190 150 205 C 157 220 161 242 161 270 Z M 130 -9 L 107 4 L 350 392 L 373 378 L 130 -9 Z" unicode="%" />
<glyph horiz-adv-x="448" d="M 20 105 C 20 125 24 143 33 159 C 42 175 53 188 66 200 C 77 210 89 218 101 226 C 100 228 99 230 98 232 C 88 246 80 259 74 273 C 68 286 66 300 66 316 C 66 335 74 352 91 368 C 107 383 131 391 162 391 C 188 391 208 385 222 374 C 236 362 243 347 243 328 C 243 308 234 291 217 277 C 201 264 182 250 160 236 C 178 217 199 196 223 173 C 248 147 270 126 288 109 C 291 113 294 117 297 122 C 309 138 319 153 327 167 C 335 181 341 192 346 202 C 350 212 353 218 354 220 C 356 226 355 231 351 237 C 347 242 341 245 333 246 L 319 248 L 319 269 L 442 269 L 442 247 L 429 246 C 419 244 411 240 405 233 C 399 225 389 213 377 195 C 357 167 339 141 321 117 C 315 109 310 101 304 94 C 322 76 338 63 350 53 C 363 43 373 36 381 32 C 389 28 396 27 403 27 C 409 27 415 27 423 28 C 430 29 436 30 440 32 L 445 12 C 431 6 418 1 406 -2 C 394 -6 383 -8 373 -8 C 360 -8 346 -4 332 4 C 317 12 302 22 286 36 C 279 41 272 46 266 52 C 248 33 229 18 209 8 C 188 -2 165 -8 140 -8 C 124 -8 108 -5 94 0 C 79 5 66 13 55 23 C 44 33 35 44 29 58 C 23 72 20 87 20 105 Z M 236 82 C 218 100 200 118 182 138 C 164 156 148 173 134 188 C 127 195 121 202 116 208 C 106 201 98 194 92 186 C 84 178 78 168 74 158 C 70 147 68 135 68 121 C 68 94 76 72 93 56 C 110 39 133 31 162 31 C 180 31 197 35 213 44 C 225 51 237 59 249 69 C 244 73 240 77 236 82 Z M 185 278 C 195 286 200 299 200 316 C 200 332 195 345 187 355 C 178 364 165 369 149 369 C 133 369 122 364 115 356 C 107 347 104 336 104 324 C 104 308 115 288 137 262 C 139 258 142 255 146 252 C 162 262 175 270 185 278 Z" unicode="&#x26;" />
<glyph horiz-adv-x="128" d="M 79 232 L 61 232 L 39 356 C 35 376 46 387 70 387 C 94 387 104 376 101 356 L 79 232 Z" unicode="'" />
<glyph horiz-adv-x="224" d="M 185 -68 C 138 -42 101 -11 75 26 C 48 64 35 109 35 161 C 35 210 48 254 74 294 C 100 333 137 365 185 390 L 197 375 C 162 350 136 321 120 287 C 104 253 96 211 96 161 C 96 110 104 68 120 34 C 136 0 162 -28 197 -53 L 185 -68 Z" unicode="(" />
<glyph horiz-adv-x="224" d="M 27 -53 C 61 -28 87 0 103 34 C 119 68 128 110 128 161 C 128 211 119 253 103 287 C 87 321 61 350 27 375 L 39 390 C 86 365 123 333 149 294 C 175 254 189 210 189 161 C 189 109 175 64 149 26 C 122 -11 85 -42 39 -68 L 27 -53 Z" unicode=")" />
<glyph horiz-adv-x="256" d="M 225 210 L 145 248 L 137 160 L 121 160 L 112 248 L 33 210 L 24 224 L 97 276 L 24 326 L 33 341 L 112 302 L 121 391 L 137 391 L 145 302 L 225 341 L 232 326 L 160 276 L 232 224 L 225 210 Z" unicode="*" />
<glyph horiz-adv-x="320" d="M 179 158 L 179 49 L 141 49 L 141 158 L 32 158 L 32 195 L 141 195 L 141 306 L 179 306 L 179 195 L 288 195 L 288 158 L 179 158 Z" unicode="+" />
<glyph horiz-adv-x="160" d="M 131 16 C 131 -5 123 -25 109 -44 C 95 -63 75 -80 49 -96 L 35 -79 C 50 -67 61 -55 69 -43 C 77 -31 82 -18 86 -6 C 65 3 51 11 45 19 C 39 27 36 36 36 48 C 36 56 39 64 46 71 C 53 77 62 81 74 81 C 90 81 103 75 114 63 C 125 51 131 35 131 16 Z" unicode="," />
<glyph horiz-adv-x="192" d="M 18 132 L 18 180 L 173 180 L 173 132 L 18 132 Z" unicode="-" />
<glyph horiz-adv-x="160" d="M 126 37 C 126 23 121 12 112 4 C 103 -4 93 -8 81 -8 C 68 -8 57 -4 48 4 C 38 12 34 23 34 37 C 34 50 38 61 48 69 C 57 77 68 82 81 82 C 93 82 103 77 112 69 C 121 61 126 50 126 37 Z" unicode="." />
<glyph horiz-adv-x="256" d="M 28 -59 L 0 -47 L 229 403 L 255 390 L 28 -59 Z" unicode="/" />
<glyph horiz-adv-x="352" d="M 320 191 C 320 163 316 138 309 114 C 301 90 291 69 279 51 C 266 33 251 18 233 8 C 215 -2 195 -8 175 -8 C 152 -8 132 -2 114 7 C 96 17 81 32 69 50 C 57 68 47 89 41 113 C 35 137 32 163 32 191 C 32 218 35 244 42 268 C 49 292 59 314 72 332 C 84 350 99 364 117 375 C 135 385 154 391 175 391 C 197 391 218 385 236 375 C 254 365 269 351 281 333 C 293 315 303 293 310 269 C 316 245 320 219 320 191 Z M 257 179 C 257 237 249 282 235 312 C 220 342 199 358 171 358 C 147 358 128 345 114 321 C 100 296 93 258 93 208 C 93 149 100 104 115 72 C 130 40 152 25 180 25 C 204 25 223 38 237 64 C 250 90 257 129 257 179 Z" unicode="0" />
<glyph horiz-adv-x="256" d="M 30 0 L 30 26 L 63 28 C 71 28 78 30 84 32 C 89 34 93 37 95 42 C 97 47 99 54 100 64 C 100 73 101 85 101 100 L 101 276 C 101 304 97 323 91 331 C 84 339 70 344 50 344 L 30 344 L 30 370 C 38 370 47 371 57 372 C 67 373 78 374 88 376 C 98 378 108 380 118 382 C 127 384 135 387 141 391 L 158 377 L 156 100 C 156 84 156 72 157 63 C 158 54 160 47 164 42 C 167 37 172 33 178 31 C 184 29 193 27 203 27 L 227 26 L 227 0 L 30 0 Z" unicode="1" />
<glyph horiz-adv-x="288" d="M 249 0 L 10 0 L 4 22 L 122 135 C 150 162 172 186 186 208 C 200 230 208 252 208 275 C 208 295 201 312 187 326 C 173 339 157 346 138 346 C 114 346 94 339 76 327 C 58 314 44 298 32 279 L 9 295 C 14 306 21 317 29 329 C 37 340 47 350 59 360 C 71 369 84 376 100 382 C 115 388 132 391 152 391 C 167 391 182 388 196 383 C 210 377 222 370 232 361 C 242 351 251 340 257 328 C 263 316 267 303 267 289 C 267 275 264 261 260 249 C 256 237 249 224 241 212 C 232 200 221 187 208 174 C 194 160 179 146 162 130 L 60 42 L 172 42 C 184 42 194 42 202 44 C 210 46 216 48 222 52 C 228 56 233 60 237 66 C 241 72 245 79 250 88 L 261 108 L 285 108 L 249 0 Z" unicode="2" />
<glyph horiz-adv-x="288" d="M 263 135 C 263 113 257 93 246 75 C 234 57 220 42 202 30 C 184 18 165 8 143 2 C 121 -4 99 -8 78 -8 C 52 -8 34 -4 24 3 C 13 10 8 19 8 29 C 8 36 11 42 17 48 C 23 54 31 57 39 57 C 49 57 59 54 68 48 C 77 42 86 34 95 26 C 110 26 125 27 139 31 C 153 35 165 40 175 47 C 185 54 194 63 200 73 C 206 83 210 95 210 109 C 210 134 202 153 187 165 C 171 177 152 183 130 183 C 115 183 103 182 94 180 C 85 178 76 175 67 171 L 53 192 C 80 206 102 218 119 228 C 136 238 149 248 159 256 C 169 264 175 271 179 278 C 183 285 185 292 185 300 C 185 310 180 321 172 331 C 163 341 148 346 126 346 C 108 346 93 341 80 333 C 66 325 51 314 34 300 L 14 322 C 35 344 57 361 80 373 C 103 385 128 391 156 391 C 181 391 203 385 222 373 C 240 361 250 343 250 321 C 250 301 242 283 228 267 C 214 251 192 236 163 221 C 192 217 216 208 235 194 C 253 180 263 160 263 135 Z" unicode="3" />
<glyph horiz-adv-x="320" d="M 253 100 L 253 0 L 199 0 L 199 100 L 11 100 L 3 118 L 208 386 L 253 386 L 253 137 L 314 137 L 314 100 L 253 100 Z M 199 323 L 61 137 L 199 137 L 199 323 Z" unicode="4" />
<glyph horiz-adv-x="288" d="M 257 335 L 112 335 L 78 272 C 134 266 178 255 210 238 C 242 220 258 193 258 155 C 258 129 252 107 240 87 C 228 67 213 50 195 36 C 177 22 157 11 135 3 C 113 -4 91 -8 71 -8 C 51 -8 36 -4 26 3 C 16 11 11 19 11 29 C 11 37 14 44 20 50 C 26 56 34 59 46 59 C 58 59 70 55 82 49 C 93 42 105 34 117 26 C 140 31 160 43 178 61 C 195 79 204 103 204 132 C 204 164 189 186 160 198 C 131 210 89 219 33 223 L 23 241 L 100 384 L 220 384 C 226 384 230 384 234 385 C 238 386 241 388 243 390 C 245 392 248 395 251 399 L 281 399 L 257 335 Z" unicode="5" />
<glyph horiz-adv-x="352" d="M 327 133 C 327 113 323 94 315 77 C 307 59 296 44 283 32 C 269 20 253 10 235 3 C 216 -4 196 -8 176 -8 C 156 -8 138 -4 121 2 C 103 9 88 19 75 33 C 62 47 52 64 44 84 C 36 104 32 126 32 152 C 32 176 36 200 46 226 C 56 251 70 275 89 298 C 108 321 132 342 161 362 C 189 381 223 397 261 411 L 276 383 C 243 370 215 355 192 338 C 169 321 150 302 136 282 C 121 261 110 239 103 217 C 96 194 93 171 93 148 C 93 107 101 76 118 55 C 134 33 157 23 185 23 C 197 23 209 25 219 30 C 229 35 237 42 244 50 C 251 58 256 68 260 78 C 264 88 266 99 266 110 C 266 148 256 177 237 198 C 218 219 196 230 172 230 L 159 230 C 155 230 151 229 148 229 L 148 252 C 151 253 157 254 166 256 C 175 258 185 259 195 259 C 213 259 230 256 246 250 C 262 244 276 235 288 224 C 300 213 309 200 316 184 C 323 168 327 151 327 133 Z" unicode="6" />
<glyph horiz-adv-x="288" d="M 196 218 C 179 192 165 166 155 142 C 144 117 135 95 129 75 C 122 55 117 39 114 26 C 110 12 108 4 108 0 L 67 0 C 63 0 60 1 58 4 C 56 7 54 11 53 15 C 52 19 52 23 52 27 C 52 31 53 34 55 36 C 67 61 82 90 100 124 C 117 158 136 191 156 225 L 225 335 L 89 335 C 71 335 58 333 50 330 C 42 326 34 318 27 304 L 20 290 L -6 290 L 29 399 L 52 399 C 52 391 60 387 77 386 C 93 384 117 384 147 384 L 281 384 L 289 365 L 196 218 Z" unicode="7" />
<glyph horiz-adv-x="320" d="M 302 101 C 302 65 288 38 261 20 C 233 1 198 -8 155 -8 C 111 -8 78 1 54 19 C 30 37 18 60 18 88 C 18 114 26 134 43 150 C 60 165 82 180 108 195 C 80 207 60 221 49 238 C 38 254 33 273 33 294 C 33 321 44 344 68 363 C 91 381 124 391 166 391 C 204 391 235 382 259 366 C 282 349 294 328 294 304 C 294 293 291 283 286 273 C 281 263 274 253 266 245 C 258 236 248 228 238 222 C 227 216 216 211 205 208 C 238 197 262 181 278 161 C 294 141 302 121 302 101 Z M 240 298 C 240 318 231 333 215 345 C 198 356 179 362 157 362 C 139 362 122 356 107 346 C 91 336 84 322 84 305 C 84 286 91 270 107 258 C 122 246 145 233 175 221 C 192 227 207 237 220 250 C 233 262 240 278 240 298 Z M 248 91 C 248 112 238 130 220 144 C 201 158 173 171 135 183 C 117 173 102 161 90 147 C 78 133 73 115 73 95 C 73 83 75 73 81 64 C 86 54 93 46 101 40 C 109 34 119 29 130 26 C 141 22 153 21 165 21 C 175 21 185 22 195 25 C 205 28 213 32 221 38 C 229 44 235 51 240 60 C 245 68 248 79 248 91 Z" unicode="8" />
<glyph horiz-adv-x="352" d="M 25 255 C 25 275 29 293 37 310 C 45 326 55 341 69 353 C 82 365 98 374 116 381 C 134 387 154 391 176 391 C 194 391 212 387 230 380 C 248 373 263 363 276 350 C 289 336 300 320 308 300 C 316 280 320 258 320 233 C 320 209 315 184 305 159 C 295 134 281 110 262 88 C 243 66 219 45 191 26 C 162 6 129 -9 91 -22 L 76 6 C 141 31 188 64 216 105 C 244 145 259 189 259 237 C 259 277 250 308 234 329 C 217 349 195 360 167 360 C 141 360 121 351 106 335 C 91 318 84 299 84 278 C 84 258 86 241 92 227 C 97 212 104 200 113 190 C 122 180 132 172 144 167 C 156 161 168 159 180 159 L 193 159 C 197 159 200 159 204 160 L 204 137 C 200 135 194 134 185 132 C 176 130 167 130 157 130 C 139 130 122 133 106 139 C 90 145 76 153 64 164 C 52 175 42 188 35 204 C 28 219 25 236 25 255 Z" unicode="9" />
<glyph horiz-adv-x="160" d="M 123 33 C 123 20 118 10 110 2 C 102 -5 92 -9 81 -9 C 68 -9 57 -5 49 2 C 41 10 37 20 37 33 C 37 45 41 55 49 63 C 57 71 68 75 81 75 C 92 75 102 71 110 63 C 118 55 123 45 123 33 Z M 123 233 C 123 220 118 210 110 202 C 102 194 92 191 81 191 C 68 191 57 194 49 202 C 41 210 37 220 37 233 C 37 245 41 255 49 263 C 57 271 68 275 81 275 C 92 275 102 271 110 263 C 118 255 123 245 123 233 Z" unicode=":" />
<glyph horiz-adv-x="160" d="M 123 233 C 123 220 118 210 110 202 C 102 194 92 191 81 191 C 68 191 57 194 49 202 C 41 210 37 220 37 233 C 37 245 41 255 49 263 C 57 271 68 275 81 275 C 92 275 102 271 110 263 C 118 255 123 245 123 233 Z M 131 16 C 131 -5 123 -25 109 -44 C 95 -63 75 -80 49 -96 L 35 -79 C 50 -67 61 -55 69 -43 C 77 -31 82 -18 86 -6 C 65 3 51 11 45 19 C 39 27 36 36 36 48 C 36 56 39 64 46 71 C 53 77 62 81 74 81 C 90 81 103 75 114 63 C 125 51 131 35 131 16 Z" unicode=";" />
<glyph horiz-adv-x="288" d="M 31 182 L 31 206 L 257 313 L 257 274 L 84 194 L 257 114 L 257 74 L 31 182 Z" unicode="&#x3C;" />
<glyph horiz-adv-x="320" d="M 32 228 L 32 265 L 288 265 L 288 228 L 32 228 Z M 32 88 L 32 125 L 288 125 L 288 88 L 32 88 Z" unicode="=" />
<glyph horiz-adv-x="288" d="M 31 74 L 31 114 L 204 194 L 31 274 L 31 313 L 257 206 L 257 182 L 31 74 Z" unicode="&#x3E;" />
<glyph horiz-adv-x="256" d="M 243 256 C 243 245 240 235 235 227 C 230 219 224 211 216 205 C 208 199 198 193 188 189 C 178 185 167 181 157 179 C 141 175 130 170 126 166 C 122 162 120 158 120 154 L 120 132 C 120 126 120 119 121 112 L 95 108 C 92 121 90 134 88 148 C 86 162 86 176 86 191 C 86 199 89 207 97 213 C 105 219 117 224 135 229 C 153 233 169 239 184 247 C 198 254 206 263 206 275 C 206 283 202 290 196 298 C 190 306 182 313 174 319 C 165 325 156 331 147 336 C 137 341 130 345 124 349 C 112 340 102 334 94 330 C 86 326 79 324 72 324 C 63 324 56 327 51 333 C 45 339 43 346 43 356 C 43 376 58 387 88 387 C 101 387 117 384 135 378 C 153 372 170 363 186 351 C 202 339 215 326 226 310 C 237 294 243 276 243 256 Z M 155 33 C 155 21 150 12 142 4 C 134 -4 124 -8 114 -8 C 102 -8 92 -4 84 4 C 76 12 72 21 72 33 C 72 45 76 55 84 63 C 92 71 102 75 114 75 C 124 75 134 71 142 63 C 150 55 155 45 155 33 Z" unicode="?" />
<glyph horiz-adv-x="544" d="M 525 172 C 525 146 521 122 513 102 C 505 82 494 65 482 51 C 469 37 455 26 439 19 C 423 11 407 8 391 8 C 369 8 351 12 338 20 C 324 28 314 40 308 55 C 293 39 279 28 265 20 C 251 12 237 8 222 8 C 199 8 180 16 166 32 C 152 48 145 70 145 98 C 145 122 149 145 157 166 C 165 187 176 205 190 220 C 203 235 218 247 235 255 C 252 263 269 268 287 268 C 301 268 314 266 325 263 C 335 259 345 255 355 251 L 378 272 L 393 272 L 360 90 C 355 70 356 56 364 47 C 371 37 383 33 400 33 C 410 33 421 35 433 41 C 444 47 454 55 464 67 C 473 79 480 93 486 110 C 492 127 495 147 495 171 C 495 202 489 230 479 254 C 469 278 454 299 436 315 C 417 331 395 344 369 353 C 343 361 314 366 283 366 C 249 366 217 360 189 348 C 160 336 135 320 115 300 C 94 279 78 254 66 226 C 54 197 49 166 49 132 C 49 97 54 66 65 38 C 76 10 91 -14 111 -34 C 131 -54 154 -69 182 -80 C 209 -91 239 -97 272 -97 C 307 -97 337 -93 363 -87 C 389 -81 413 -70 437 -56 L 449 -74 C 423 -89 395 -101 367 -109 C 339 -117 307 -121 271 -121 C 234 -121 200 -115 170 -103 C 139 -91 112 -75 90 -53 C 68 -31 50 -4 38 26 C 25 57 19 92 19 131 C 19 167 26 201 40 233 C 54 265 74 292 98 316 C 122 339 150 357 182 371 C 214 384 248 391 284 391 C 318 391 349 386 379 376 C 408 366 433 351 455 332 C 477 313 494 290 506 263 C 518 236 525 206 525 172 Z M 327 188 C 327 204 322 218 314 228 C 306 238 294 243 279 243 C 254 243 234 231 219 207 C 204 183 197 152 197 114 C 197 91 201 74 209 63 C 217 51 227 46 241 46 C 253 46 264 48 274 54 C 284 60 295 69 309 83 L 323 154 C 324 159 325 165 326 171 C 326 177 327 183 327 188 Z" unicode="@" />
<glyph horiz-adv-x="416" d="M 256 0 L 256 25 L 276 27 C 292 27 300 34 300 48 C 300 52 299 57 297 63 C 295 69 293 76 290 84 L 270 137 L 123 137 L 108 99 C 105 93 103 87 101 79 C 99 71 99 61 99 49 C 99 41 102 36 109 33 C 115 29 123 27 132 27 L 151 25 L 151 0 L 0 0 L 0 25 L 14 26 C 20 26 25 28 29 30 C 33 32 37 36 41 41 C 45 45 48 51 52 59 C 56 67 60 76 66 88 L 180 359 L 216 393 L 226 393 L 349 84 C 357 62 365 47 371 40 C 377 32 387 28 400 27 L 416 25 L 416 0 L 256 0 Z M 196 315 L 136 167 L 256 167 L 196 315 Z" unicode="A" />
<glyph horiz-adv-x="384" d="M 358 107 C 358 89 353 73 345 60 C 337 46 325 35 311 26 C 296 17 279 10 259 6 C 239 2 217 0 193 0 L 20 0 L 20 25 L 42 27 C 55 28 65 33 72 42 C 78 51 82 70 82 99 L 82 285 C 82 314 78 333 71 342 C 63 350 54 355 42 357 L 20 359 L 20 384 L 198 384 C 242 384 277 376 302 360 C 327 344 340 322 340 294 C 340 273 333 255 320 241 C 306 226 289 215 267 209 C 297 199 319 187 335 172 C 350 156 358 135 358 107 Z M 276 284 C 276 310 267 329 251 340 C 235 350 215 356 192 356 C 180 356 170 355 161 354 C 151 353 144 352 139 351 L 139 214 L 175 214 C 207 214 231 219 249 230 C 267 240 276 258 276 284 Z M 295 98 C 295 128 285 150 266 164 C 247 178 222 186 190 186 L 139 186 L 139 103 C 139 73 143 54 151 44 C 159 34 176 30 204 30 C 230 30 251 34 269 44 C 286 54 295 72 295 98 Z" unicode="B" />
<glyph horiz-adv-x="416" d="M 393 23 C 378 14 358 7 333 1 C 308 -5 280 -8 250 -8 C 220 -8 193 -3 167 6 C 141 15 118 28 99 45 C 79 62 64 83 53 108 C 41 132 36 160 36 191 C 36 221 42 249 54 274 C 66 298 83 319 103 337 C 123 354 145 367 171 377 C 197 386 223 391 250 391 C 278 391 305 387 331 381 C 356 374 375 367 389 360 L 396 269 L 374 269 L 366 282 C 354 303 338 321 317 337 C 295 352 270 360 240 360 C 220 360 202 356 186 349 C 169 342 154 332 142 318 C 129 304 119 286 112 266 C 105 246 102 223 102 197 C 102 169 106 144 114 122 C 122 100 133 82 147 67 C 161 52 177 41 195 33 C 213 25 233 22 255 22 C 283 22 307 28 328 41 C 348 54 363 73 372 99 L 377 114 L 400 114 L 393 23 Z" unicode="C" />
<glyph horiz-adv-x="480" d="M 440 191 C 440 159 434 131 422 107 C 410 83 394 63 374 47 C 354 31 330 19 304 11 C 277 3 249 0 220 0 L 20 0 L 20 25 L 49 27 C 62 28 71 33 75 42 C 79 51 81 70 81 99 L 81 285 C 81 314 78 333 74 342 C 69 350 61 355 49 357 L 20 359 L 20 384 L 191 384 C 226 384 259 380 289 372 C 319 364 346 352 368 336 C 390 320 408 300 421 276 C 433 252 440 223 440 191 Z M 375 185 C 375 213 370 237 360 259 C 350 280 336 298 319 312 C 301 326 281 336 259 343 C 236 350 212 354 188 354 C 180 354 171 353 160 353 C 149 352 142 351 138 350 L 138 100 C 138 70 143 50 154 41 C 164 32 185 28 215 28 C 238 28 259 31 279 37 C 299 43 316 52 330 64 C 344 76 355 93 363 113 C 371 133 375 157 375 185 Z" unicode="D" />
<glyph horiz-adv-x="384" d="M 343 0 L 20 0 L 20 25 L 42 27 C 55 28 65 33 72 42 C 78 51 82 70 82 99 L 82 285 C 82 314 79 333 75 342 C 70 350 62 355 50 357 L 20 359 L 20 384 L 331 384 L 345 289 L 322 289 L 314 305 C 308 314 303 322 299 328 C 294 334 288 340 282 344 C 276 348 268 350 260 352 C 251 354 240 355 227 355 L 183 355 C 171 355 162 354 156 352 C 150 350 144 349 139 347 L 139 221 L 218 221 C 227 221 234 221 240 223 C 246 225 250 228 253 232 C 256 236 258 241 260 249 L 263 272 L 285 272 L 285 132 L 263 132 L 260 153 C 258 167 251 176 240 182 C 228 188 209 191 183 191 L 139 191 L 139 99 C 139 84 139 72 140 63 C 140 53 142 46 146 41 C 150 36 155 33 162 31 C 169 29 179 28 191 28 L 242 28 C 255 28 266 29 275 31 C 283 33 291 36 297 40 C 303 44 308 49 313 56 C 317 62 322 70 328 80 L 336 96 L 357 96 L 343 0 Z" unicode="E" />
<glyph horiz-adv-x="352" d="M 320 384 L 335 289 L 312 289 L 301 316 C 293 330 283 340 271 346 C 259 352 243 355 221 355 L 183 355 C 173 355 165 354 158 353 C 150 351 144 350 139 349 L 139 221 L 200 221 C 220 221 234 222 244 225 C 253 228 258 236 260 249 L 263 272 L 285 272 L 285 132 L 263 132 L 260 154 C 258 167 252 176 240 182 C 228 188 214 191 200 191 L 139 191 L 139 99 C 139 85 139 74 140 65 C 141 56 143 49 146 44 C 148 38 152 34 157 32 C 161 29 168 27 176 27 L 211 25 L 211 0 L 20 0 L 20 25 L 42 27 C 55 28 65 33 72 42 C 78 51 82 70 82 99 L 82 285 C 82 301 81 313 80 322 C 78 331 76 338 73 343 C 69 348 65 351 60 353 C 55 355 49 356 42 357 L 20 359 L 20 384 L 320 384 Z" unicode="F" />
<glyph horiz-adv-x="448" d="M 419 156 C 405 154 396 150 392 144 C 388 137 386 128 386 116 L 386 84 C 386 68 387 57 391 50 C 394 43 403 40 419 41 L 419 22 C 397 12 371 5 343 0 C 314 -5 285 -8 255 -8 C 225 -8 197 -3 171 5 C 145 13 122 26 102 43 C 82 59 66 80 54 105 C 42 129 36 158 36 191 C 36 221 42 249 54 274 C 66 298 82 319 102 337 C 122 354 146 367 173 377 C 199 386 228 391 258 391 C 288 391 314 387 338 381 C 362 374 380 367 394 361 L 399 272 L 374 272 L 368 288 C 360 307 346 324 326 338 C 305 352 280 359 252 359 C 207 359 171 345 143 319 C 115 293 102 253 102 199 C 102 139 116 95 145 67 C 173 39 211 25 258 25 C 284 25 303 29 315 38 C 327 46 333 58 333 73 L 333 115 C 333 126 330 135 326 142 C 321 149 311 153 296 155 L 265 158 L 265 183 L 436 183 L 436 158 L 419 156 Z" unicode="G" />
<glyph horiz-adv-x="480" d="M 272 384 L 460 384 L 460 359 L 431 357 C 416 355 407 349 403 339 C 399 329 398 311 398 285 L 398 99 C 398 73 399 54 403 44 C 407 34 416 28 431 27 L 460 25 L 460 0 L 272 0 L 272 25 L 303 27 C 319 28 329 34 334 44 C 338 54 341 73 341 99 L 341 184 L 139 184 L 139 99 C 139 73 141 54 146 44 C 150 34 160 28 175 27 L 206 25 L 206 0 L 20 0 L 20 25 L 49 27 C 62 28 71 34 75 44 C 79 54 82 73 82 99 L 82 285 C 82 311 79 329 75 339 C 71 349 62 355 49 357 L 20 359 L 20 384 L 206 384 L 206 359 L 175 357 C 160 355 150 349 146 339 C 141 329 139 311 139 285 L 139 217 L 341 217 L 341 285 C 341 311 338 329 334 339 C 329 349 319 355 303 357 L 272 359 L 272 384 Z" unicode="H" />
<glyph horiz-adv-x="224" d="M 20 0 L 20 25 L 43 27 C 57 28 67 33 73 43 C 79 53 82 71 82 99 L 82 285 C 82 312 79 330 73 340 C 67 350 57 355 43 357 L 20 359 L 20 384 L 198 384 L 198 359 L 175 357 C 159 355 149 350 145 340 C 141 330 139 312 139 285 L 139 99 C 139 71 141 52 145 43 C 149 33 159 28 175 27 L 201 25 L 201 0 L 20 0 Z" unicode="I" />
<glyph horiz-adv-x="224" d="M 175 357 C 160 355 150 350 146 340 C 141 330 139 312 139 285 L 139 28 C 139 10 136 -5 132 -18 C 128 -31 121 -43 111 -53 C 101 -63 87 -73 71 -81 C 55 -89 35 -98 12 -107 L 4 -89 C 19 -81 32 -73 42 -67 C 52 -60 60 -53 66 -45 C 72 -37 76 -29 78 -20 C 80 -11 82 0 82 12 L 82 285 C 82 312 80 330 76 340 C 72 350 62 355 46 357 L 23 359 L 23 384 L 198 384 L 198 359 L 175 357 Z" unicode="J" />
<glyph horiz-adv-x="416" d="M 249 0 L 249 26 L 266 28 C 275 29 281 31 283 34 C 285 36 286 40 286 46 C 286 50 284 55 280 60 C 276 65 269 72 261 82 L 175 170 C 167 177 161 182 156 185 C 151 188 145 190 139 191 L 139 100 C 139 72 141 54 145 44 C 149 34 160 29 176 28 L 199 26 L 199 0 L 20 0 L 20 26 L 42 28 C 55 29 65 34 72 43 C 78 52 82 71 82 100 L 82 288 C 82 302 81 313 79 322 C 77 330 75 337 72 342 C 68 347 64 351 59 353 C 54 355 48 356 42 357 L 20 359 L 20 384 L 199 384 L 199 359 L 176 357 C 160 355 149 350 145 342 C 141 333 139 315 139 288 L 139 211 C 145 212 151 214 157 218 C 163 222 170 226 176 232 L 239 286 C 254 299 265 309 272 317 C 278 325 282 332 282 338 C 282 350 273 356 257 357 L 240 359 L 240 384 L 403 384 L 403 360 L 387 358 C 376 356 365 352 355 345 C 345 338 331 328 315 314 L 203 214 L 342 70 C 354 56 367 46 380 40 C 392 33 403 29 412 28 L 427 26 L 427 0 L 249 0 Z" unicode="K" />
<glyph horiz-adv-x="368" d="M 342 0 L 20 0 L 20 26 L 48 27 C 61 28 70 33 75 43 C 79 52 82 71 82 100 L 82 285 C 82 299 81 310 80 319 C 79 328 77 335 75 341 C 72 346 68 350 64 352 C 60 354 54 356 48 357 L 20 359 L 20 384 L 213 384 L 213 359 L 176 357 C 160 355 149 350 145 340 C 141 330 139 311 139 285 L 139 100 C 139 85 139 73 141 64 C 143 54 146 47 150 42 C 154 36 160 33 168 31 C 176 29 186 28 198 28 L 240 28 C 266 28 284 31 294 37 C 304 43 313 54 320 70 L 333 111 L 357 111 L 342 0 Z" unicode="L" />
<glyph horiz-adv-x="576" d="M 390 0 L 390 25 L 412 27 C 420 27 426 29 431 31 C 435 33 439 36 441 41 C 443 46 444 53 444 62 C 444 70 444 82 444 96 L 428 306 L 288 0 L 262 0 L 124 306 L 107 96 C 105 69 106 51 112 42 C 118 33 127 28 141 27 L 162 25 L 162 0 L 15 0 L 15 25 L 36 27 C 48 28 57 33 62 43 C 67 53 71 70 73 96 L 90 287 C 91 310 89 326 84 336 C 78 346 69 352 56 355 L 34 359 L 34 384 L 153 384 L 290 83 L 424 384 L 541 384 L 541 359 L 520 357 C 506 355 496 350 490 341 C 484 331 482 313 485 285 L 501 96 C 501 82 502 70 504 62 C 506 53 508 46 511 41 C 514 36 518 33 523 31 C 527 29 533 27 540 27 L 561 25 L 561 0 L 390 0 Z" unicode="M" />
<glyph horiz-adv-x="448" d="M 418 357 C 404 355 395 350 391 341 C 387 332 385 313 385 285 L 385 1 L 360 -5 L 110 293 L 110 99 C 110 71 112 53 117 43 C 121 33 132 28 148 27 L 171 25 L 171 0 L 16 0 L 16 25 L 41 27 C 47 27 53 29 57 31 C 61 33 65 37 68 43 C 70 48 72 55 73 64 C 74 73 75 85 75 99 L 75 298 C 75 313 71 326 65 337 C 58 347 45 354 25 358 L 16 359 L 16 384 L 111 384 L 350 104 L 350 285 C 350 312 348 330 344 340 C 340 350 329 355 313 357 L 290 359 L 290 384 L 439 384 L 439 359 L 418 357 Z" unicode="N" />
<glyph horiz-adv-x="480" d="M 444 191 C 444 160 438 132 427 108 C 415 83 400 62 381 45 C 362 28 340 15 316 6 C 291 -3 266 -8 240 -8 C 210 -8 183 -3 159 6 C 134 15 112 28 94 45 C 76 62 61 83 51 108 C 41 132 36 160 36 191 C 36 221 41 249 53 274 C 64 298 79 319 98 337 C 116 354 138 367 163 377 C 187 386 213 391 240 391 C 268 391 295 386 320 377 C 345 367 367 354 385 337 C 403 320 418 299 428 274 C 438 249 444 221 444 191 Z M 376 175 C 376 229 363 274 339 308 C 314 342 278 360 230 360 C 189 360 157 346 135 320 C 113 293 102 256 102 208 C 102 153 114 108 139 74 C 164 40 200 23 248 23 C 288 23 319 36 342 62 C 364 88 376 126 376 175 Z" unicode="O" />
<glyph horiz-adv-x="384" d="M 363 268 C 363 247 358 229 348 214 C 338 198 324 185 308 174 C 292 163 273 154 253 148 C 232 142 211 138 190 136 L 179 164 C 213 168 242 177 264 193 C 286 208 297 232 297 265 C 297 297 287 321 267 336 C 247 350 222 358 191 358 C 181 358 171 357 161 356 C 151 354 144 352 139 350 L 139 99 C 139 71 141 53 147 43 C 153 33 163 28 179 27 L 210 25 L 210 0 L 20 0 L 20 25 L 49 27 C 55 27 61 29 65 31 C 69 33 73 37 75 43 C 77 48 79 55 80 64 C 81 73 82 85 82 99 L 82 285 C 82 314 79 333 74 342 C 69 350 61 355 49 357 L 20 359 L 20 384 L 199 384 C 253 384 294 373 322 353 C 349 332 363 304 363 268 Z" unicode="P" />
<glyph horiz-adv-x="480" d="M 443 191 C 443 160 437 132 426 108 C 414 83 399 62 381 45 C 363 29 342 16 318 6 C 337 -9 353 -21 367 -31 C 381 -41 393 -48 404 -53 C 414 -58 424 -61 433 -63 C 442 -64 451 -65 461 -65 C 473 -65 486 -62 499 -56 C 511 -50 520 -46 524 -43 L 536 -63 C 529 -69 517 -76 500 -84 C 483 -92 464 -97 442 -97 C 428 -97 415 -96 403 -94 C 391 -92 377 -89 363 -83 C 349 -77 332 -68 313 -56 C 293 -44 270 -28 243 -8 L 240 -8 C 210 -8 183 -3 159 6 C 134 15 112 28 94 45 C 76 62 61 83 51 108 C 41 132 36 160 36 191 C 36 221 41 249 53 274 C 64 298 79 319 98 337 C 116 354 138 367 163 377 C 187 386 213 391 240 391 C 268 391 295 386 320 377 C 345 367 367 354 385 337 C 403 320 417 299 427 274 C 437 249 443 221 443 191 Z M 375 175 C 375 229 362 274 338 308 C 314 342 278 360 230 360 C 189 360 157 346 135 320 C 113 293 102 256 102 208 C 102 153 114 108 139 74 C 164 40 200 23 248 23 C 288 23 319 36 341 62 C 363 88 375 126 375 175 Z" unicode="Q" />
<glyph horiz-adv-x="416" d="M 410 0 C 403 0 397 0 393 -1 C 389 -2 382 -3 373 -3 C 359 -3 348 -1 338 0 C 328 2 320 6 312 12 C 304 17 296 23 289 31 C 282 39 275 48 268 60 L 195 163 L 139 163 L 139 99 C 139 71 142 52 149 43 C 156 33 168 28 184 27 L 207 25 L 207 0 L 20 0 L 20 25 L 42 27 C 55 28 65 33 72 42 C 78 51 82 70 82 99 L 82 285 C 82 314 78 333 71 342 C 63 350 54 355 42 357 L 20 359 L 20 384 L 212 384 C 255 384 289 375 315 358 C 341 340 354 315 354 283 C 354 255 344 233 324 215 C 304 197 280 184 252 175 L 324 74 C 332 62 339 53 345 47 C 351 40 358 35 364 32 C 370 28 377 26 384 25 C 391 24 400 24 410 25 L 410 0 Z M 291 278 C 291 308 282 329 265 341 C 247 352 227 358 204 358 C 190 358 178 357 166 356 C 154 354 145 353 139 352 L 139 191 L 194 191 C 228 191 252 198 268 214 C 283 229 291 250 291 278 Z" unicode="R" />
<glyph horiz-adv-x="320" d="M 300 109 C 300 72 286 43 259 23 C 231 2 194 -8 148 -8 C 123 -8 100 -5 79 -1 C 58 2 43 7 35 12 L 26 103 L 51 103 L 59 77 C 68 57 79 43 92 35 C 104 26 124 22 151 22 C 187 22 212 28 226 40 C 240 52 247 68 247 86 C 247 107 239 124 225 136 C 210 148 188 159 158 169 C 120 180 90 194 68 210 C 45 226 34 251 34 283 C 34 299 37 314 45 328 C 53 341 63 352 76 362 C 89 371 104 378 120 383 C 136 388 154 391 172 391 C 196 391 217 388 237 384 C 257 379 271 375 280 371 L 286 270 L 260 270 L 254 297 C 250 314 241 329 227 342 C 213 355 194 362 169 362 C 145 362 126 356 111 346 C 95 335 88 320 88 301 C 88 279 95 264 109 255 C 123 245 143 236 170 227 C 214 211 247 195 268 178 C 289 160 300 137 300 109 Z" unicode="S" />
<glyph horiz-adv-x="416" d="M 392 267 L 368 267 L 363 315 C 361 324 359 331 357 337 C 355 343 351 347 346 350 C 341 352 334 354 326 355 C 317 355 306 356 293 356 L 234 356 L 234 99 C 234 71 236 53 241 43 C 246 33 256 28 272 27 L 300 25 L 300 0 L 113 0 L 113 25 L 140 27 C 155 28 165 33 170 43 C 175 53 178 71 178 99 L 178 356 L 124 356 C 110 356 99 355 91 355 C 82 354 75 352 69 350 C 63 347 59 343 56 337 C 52 331 49 324 47 315 L 34 267 L 9 267 L 21 395 L 45 395 C 49 392 52 390 56 388 C 59 386 66 385 76 384 C 86 383 102 382 122 382 C 142 382 170 382 207 382 C 244 382 273 382 294 382 C 314 382 330 383 341 384 C 352 385 360 386 364 388 C 368 390 373 392 378 395 L 400 395 L 392 267 Z" unicode="T" />
<glyph horiz-adv-x="448" d="M 421 357 C 407 355 398 350 394 341 C 390 332 388 313 388 285 L 388 137 C 388 95 374 60 347 33 C 320 5 281 -8 230 -8 C 178 -8 138 4 110 28 C 82 52 69 85 69 127 L 69 285 C 69 313 66 331 62 341 C 58 350 49 355 36 357 L 15 359 L 15 384 L 186 384 L 186 359 L 163 357 C 147 355 136 350 132 340 C 128 330 126 312 126 285 L 126 151 C 126 109 134 78 150 60 C 166 41 196 32 238 32 C 274 32 302 41 322 60 C 342 78 353 104 353 136 L 353 285 C 353 312 350 330 346 340 C 342 350 331 355 315 357 L 292 359 L 292 384 L 442 384 L 442 359 L 421 357 Z" unicode="U" />
<glyph horiz-adv-x="416" d="M 401 358 C 389 356 380 352 374 345 C 368 338 361 326 354 309 L 225 0 L 189 0 L 63 303 C 58 313 54 321 51 328 C 47 334 44 340 41 344 C 37 348 33 351 29 353 C 25 355 20 356 14 357 L 2 359 L 2 384 L 161 384 L 161 359 L 141 357 C 123 355 115 348 115 337 C 115 331 115 325 117 320 C 119 315 121 309 125 302 L 220 78 L 305 280 C 308 288 311 296 314 305 C 317 313 319 321 319 328 C 319 338 314 345 306 349 C 297 353 288 356 280 357 L 262 359 L 262 384 L 414 384 L 414 359 L 401 358 Z" unicode="V" />
<glyph horiz-adv-x="576" d="M 567 358 C 555 356 545 351 539 343 C 532 335 526 323 521 309 L 411 0 L 380 0 L 288 230 L 199 0 L 168 0 L 56 309 C 50 325 43 337 37 343 C 30 349 21 354 9 357 L -5 359 L -5 384 L 154 384 L 154 359 L 135 357 C 119 355 111 348 111 337 C 111 327 113 316 118 302 L 198 88 L 271 272 L 259 302 C 255 312 251 321 248 328 C 244 334 241 339 237 343 C 233 347 230 350 226 352 C 222 354 217 355 212 357 L 197 359 L 197 384 L 357 384 L 357 359 L 336 357 C 319 355 311 348 311 337 C 311 331 312 326 314 320 C 316 314 318 308 321 302 L 408 88 L 477 278 C 484 298 488 314 488 328 C 488 338 485 345 481 349 C 476 353 470 356 462 357 L 437 359 L 437 384 L 581 384 L 581 359 L 567 358 Z" unicode="W" />
<glyph horiz-adv-x="416" d="M 151 102 C 141 90 133 80 129 72 C 125 64 123 56 123 50 C 123 36 131 29 148 27 L 167 25 L 167 0 L 2 0 L 2 25 L 14 26 C 25 27 36 31 46 38 C 56 44 66 54 77 67 L 184 190 L 91 313 C 80 327 71 338 63 345 C 55 351 46 355 34 357 L 19 359 L 19 384 L 192 384 L 192 359 L 171 357 C 155 355 147 348 147 337 C 147 332 148 327 151 322 C 154 316 158 310 164 303 L 219 231 L 262 281 C 272 293 280 304 284 312 C 288 320 291 327 291 334 C 291 347 281 355 263 357 L 246 359 L 246 384 L 410 384 L 410 359 L 398 358 C 386 356 375 352 366 344 C 357 336 348 327 338 316 L 239 203 L 340 71 C 350 57 359 47 368 40 C 377 32 387 28 398 27 L 414 25 L 414 0 L 240 0 L 240 25 L 261 27 C 277 29 285 35 285 47 C 285 51 283 56 279 62 C 275 68 271 74 266 82 L 204 163 L 151 102 Z" unicode="X" />
<glyph horiz-adv-x="416" d="M 399 358 C 387 357 377 354 371 348 C 364 342 357 333 349 321 L 241 163 L 241 99 C 241 85 241 74 242 65 C 243 56 245 49 248 44 C 250 38 254 34 259 32 C 263 29 270 27 278 27 L 304 25 L 304 0 L 119 0 L 119 25 L 146 27 C 161 28 171 33 176 43 C 181 53 184 71 184 99 L 184 156 L 70 313 C 58 328 49 339 41 345 C 33 351 25 355 16 357 L 1 359 L 1 384 L 174 384 L 174 359 L 152 357 C 143 355 137 353 135 350 C 132 346 131 342 131 338 C 131 331 135 321 143 309 L 221 195 L 287 290 C 292 297 296 304 300 312 C 304 320 306 327 306 333 C 306 347 297 355 279 357 L 259 359 L 259 384 L 415 384 L 415 359 L 399 358 Z" unicode="Y" />
<glyph horiz-adv-x="352" d="M 326 0 L 18 0 L 15 19 L 260 357 L 142 357 C 128 357 117 355 109 353 C 101 351 94 347 88 342 C 82 337 78 331 74 324 C 70 317 65 309 61 301 L 51 279 L 27 279 L 43 395 L 62 395 C 64 391 68 389 72 388 C 76 386 83 385 95 385 C 106 384 122 384 144 384 L 336 384 L 338 366 L 90 27 L 228 27 C 248 27 265 31 278 39 C 291 47 303 61 314 81 L 326 103 L 350 103 L 326 0 Z" unicode="Z" />
<glyph horiz-adv-x="224" d="M 52 -96 L 52 384 L 195 384 L 195 360 L 147 357 C 137 356 130 354 124 352 C 118 349 114 345 112 339 C 109 333 107 326 107 317 C 106 308 106 297 106 285 L 106 -1 C 106 -15 106 -26 107 -35 C 107 -43 109 -50 112 -55 C 115 -59 119 -62 125 -64 C 130 -66 137 -67 147 -68 L 195 -72 L 195 -96 L 52 -96 Z" unicode="[" />
<glyph horiz-adv-x="256" d="M 0 390 L 26 403 L 255 -47 L 227 -59 L 0 390 Z" unicode="\" />
<glyph horiz-adv-x="224" d="M 52 -96 L 52 -72 L 100 -68 C 109 -67 116 -66 122 -64 C 127 -62 131 -59 134 -55 C 137 -50 139 -43 140 -35 C 140 -26 141 -15 141 -1 L 141 285 C 141 311 138 329 134 339 C 130 349 118 355 100 357 L 52 360 L 52 384 L 195 384 L 195 -96 L 52 -96 Z" unicode="]" />
<glyph horiz-adv-x="288" d="M 230 208 L 144 329 L 57 208 L 36 218 L 124 384 L 164 384 L 252 218 L 230 208 Z" unicode="^" />
<glyph horiz-adv-x="352" d="M 0 -90 L 0 -64 L 352 -64 L 352 -90 L 0 -90 Z" unicode="_" />
<glyph horiz-adv-x="256" d="M 167 315 L 101 363 C 91 369 84 376 80 382 C 76 388 74 394 74 401 C 74 408 76 414 81 419 C 85 423 92 426 100 426 C 108 426 115 423 121 417 C 127 411 132 403 138 394 L 179 325 L 167 315 Z" unicode="`" />
<glyph horiz-adv-x="320" d="M 319 19 C 309 9 299 3 287 0 C 275 -4 264 -6 255 -6 C 241 -6 230 -2 220 5 C 210 12 205 22 203 35 C 195 25 182 16 165 6 C 147 -3 127 -8 104 -8 C 84 -8 66 -3 50 7 C 34 17 26 31 26 51 C 26 74 34 93 52 108 C 69 122 93 133 123 141 L 202 162 L 202 186 C 202 212 197 230 187 240 C 177 250 164 256 146 256 C 137 256 130 255 126 255 C 121 254 117 253 113 252 C 110 226 105 208 98 199 C 90 189 82 185 73 185 C 51 185 41 195 41 217 C 41 224 44 232 52 240 C 60 248 70 255 82 262 C 94 268 107 274 122 278 C 136 282 151 285 165 285 C 193 285 215 278 231 264 C 247 250 255 227 255 197 L 255 74 C 255 60 256 49 260 41 C 263 33 270 29 282 29 C 287 29 293 30 300 32 C 307 34 312 35 316 37 L 319 19 Z M 202 137 L 136 119 C 118 113 104 105 96 95 C 88 85 84 74 84 63 C 84 53 87 44 93 36 C 99 28 110 24 124 24 C 140 24 155 27 167 35 C 179 43 190 52 202 64 L 202 137 Z" unicode="a" />
<glyph horiz-adv-x="352" d="M 325 147 C 325 122 321 100 313 81 C 305 62 295 46 282 33 C 268 19 253 9 235 2 C 217 -4 199 -8 180 -8 C 157 -8 138 -4 122 3 C 106 11 95 17 90 21 L 71 0 L 49 0 L 49 325 C 49 337 47 346 43 350 C 39 354 32 359 23 365 L 12 372 L 12 391 L 95 409 L 102 402 L 102 246 C 110 252 122 260 138 270 C 154 280 172 285 194 285 C 234 285 265 272 289 248 C 313 223 325 189 325 147 Z M 272 131 C 272 169 261 197 241 217 C 220 236 195 246 165 246 C 153 246 142 243 131 239 C 119 234 110 229 102 223 L 102 101 C 102 76 109 57 123 43 C 137 29 155 22 177 22 C 205 22 227 30 245 46 C 263 62 272 90 272 131 Z" unicode="b" />
<glyph horiz-adv-x="288" d="M 288 56 C 276 36 259 21 238 9 C 216 -2 193 -8 168 -8 C 147 -8 128 -4 110 2 C 92 9 77 19 65 31 C 52 43 42 58 35 75 C 28 91 25 109 25 129 C 25 153 29 175 38 195 C 46 214 58 230 72 244 C 86 257 103 267 122 274 C 141 281 161 285 182 285 C 215 285 240 278 257 266 C 274 253 283 239 283 225 C 283 214 280 205 274 199 C 268 193 260 190 250 190 C 238 190 229 193 223 201 C 216 209 210 223 206 245 C 202 247 197 249 191 251 C 185 253 176 254 165 254 C 143 254 124 245 107 228 C 90 211 82 186 82 154 C 82 116 92 86 112 64 C 132 42 158 31 190 31 C 210 31 227 35 239 45 C 251 54 261 63 269 72 L 288 56 Z" unicode="c" />
<glyph horiz-adv-x="352" d="M 244 0 L 240 28 C 230 20 217 12 200 4 C 183 -3 166 -8 149 -8 C 132 -8 116 -5 101 0 C 86 6 73 14 62 25 C 50 36 41 50 35 67 C 28 83 25 102 25 124 C 25 146 28 167 36 187 C 44 206 54 223 68 238 C 81 252 97 264 115 272 C 133 280 152 285 174 285 C 186 285 199 283 211 281 C 223 279 232 276 240 274 L 240 326 C 240 339 238 348 234 352 C 230 356 224 360 215 364 L 198 370 L 198 390 L 285 409 L 293 402 L 293 80 C 293 67 293 57 294 50 C 294 43 295 38 297 35 C 299 31 301 29 305 28 C 308 27 313 26 319 26 L 333 24 L 333 0 L 244 0 Z M 240 186 C 240 210 232 227 216 239 C 200 250 181 256 161 256 C 139 256 119 246 102 227 C 85 208 77 182 77 150 C 77 112 86 83 105 63 C 123 42 146 32 173 32 C 185 32 197 33 210 37 C 222 41 232 46 240 53 L 240 186 Z" unicode="d" />
<glyph horiz-adv-x="288" d="M 82 157 L 82 153 C 82 133 84 116 90 101 C 96 85 103 72 112 62 C 121 52 131 44 143 38 C 155 32 166 30 178 30 C 198 30 214 33 228 41 C 241 49 253 58 263 70 L 281 56 C 267 37 250 22 228 10 C 206 -1 182 -7 158 -7 C 140 -7 122 -3 106 4 C 90 11 76 21 64 34 C 52 46 42 61 35 79 C 28 96 25 115 25 135 C 25 157 29 178 37 196 C 45 214 56 230 69 243 C 82 256 97 266 113 274 C 129 281 146 285 163 285 C 199 285 228 273 249 250 C 270 226 281 195 281 157 L 82 157 Z M 220 183 C 218 208 212 227 200 241 C 188 254 174 261 156 261 C 138 261 122 254 108 242 C 94 229 85 209 83 183 L 220 183 Z" unicode="e" />
<glyph horiz-adv-x="208" d="M 257 374 C 257 364 254 357 249 351 C 243 345 237 343 230 343 C 215 343 198 353 178 373 C 160 371 147 363 138 349 C 128 335 124 314 124 286 L 124 275 L 190 275 L 190 243 L 124 243 L 124 89 C 124 49 135 29 159 28 L 187 25 L 187 0 L 20 0 L 20 25 L 34 26 C 40 26 46 28 51 30 C 55 32 59 35 62 40 C 65 44 67 50 69 58 C 70 66 71 76 71 89 L 71 243 L 23 243 L 23 267 L 71 275 L 71 280 C 71 301 75 320 83 336 C 91 352 102 365 115 375 C 128 385 143 393 159 399 C 175 404 192 407 209 407 C 241 407 257 396 257 374 Z" unicode="f" />
<glyph horiz-adv-x="288" d="M 236 238 C 244 226 248 212 248 198 C 248 184 244 172 238 161 C 232 150 223 140 213 132 C 203 123 191 116 177 112 C 163 107 148 105 133 105 C 128 105 123 105 119 105 C 115 105 111 106 108 107 C 98 101 92 97 88 95 C 84 92 82 88 82 84 C 82 78 85 74 91 72 C 97 70 107 68 121 68 L 189 65 C 248 62 278 42 278 6 C 278 -11 274 -26 266 -40 C 258 -54 248 -65 234 -74 C 220 -83 205 -90 187 -95 C 169 -99 149 -102 129 -102 C 95 -102 68 -97 47 -88 C 26 -78 16 -63 16 -42 C 16 -30 21 -18 31 -8 C 41 2 54 13 71 24 C 57 27 47 32 41 38 C 35 44 32 51 32 61 C 32 70 36 79 44 87 C 52 95 65 103 85 111 C 66 117 51 128 40 142 C 29 156 24 173 24 191 C 24 205 27 217 33 229 C 39 240 48 250 58 258 C 68 266 81 273 95 278 C 109 282 124 285 140 285 C 156 285 171 282 185 278 C 198 273 209 267 219 259 L 289 283 L 289 238 L 236 238 Z M 194 194 C 194 216 189 233 179 243 C 169 253 154 258 136 258 C 117 258 103 252 93 241 C 83 229 79 214 79 195 C 79 175 84 159 94 148 C 104 136 118 131 137 131 C 155 131 169 137 179 149 C 189 161 194 176 194 194 Z M 242 -18 C 242 -8 237 0 227 6 C 217 12 200 15 174 17 L 98 20 C 76 6 66 -9 66 -26 C 66 -43 74 -54 90 -60 C 106 -66 126 -69 150 -69 C 174 -69 196 -65 214 -58 C 232 -50 242 -37 242 -18 Z" unicode="g" />
<glyph horiz-adv-x="352" d="M 208 0 L 208 24 L 222 26 C 234 27 241 31 244 38 C 247 45 249 60 249 84 L 249 181 C 249 204 244 221 234 232 C 224 242 210 248 194 248 C 176 248 161 244 147 237 C 133 230 122 221 112 211 L 112 84 C 112 71 112 61 113 54 C 114 46 116 41 118 37 C 120 33 124 30 128 29 C 132 27 136 26 142 26 L 156 24 L 156 0 L 16 0 L 16 24 L 30 26 C 36 26 40 27 44 29 C 48 30 51 33 53 37 C 55 41 57 46 58 54 C 58 61 59 71 59 84 L 59 324 C 59 337 57 346 53 351 C 49 355 43 360 34 364 L 17 371 L 17 390 L 103 409 L 112 402 L 112 242 C 124 254 140 265 160 273 C 179 281 196 285 212 285 C 238 285 259 277 276 262 C 293 246 302 224 302 194 L 302 84 C 302 71 302 61 303 54 C 304 46 306 41 308 37 C 310 33 312 30 316 29 C 319 27 323 26 329 26 L 344 24 L 344 0 L 208 0 Z" unicode="h" />
<glyph horiz-adv-x="192" d="M 130 372 C 130 361 126 352 120 346 C 113 339 104 336 93 336 C 83 336 74 339 67 346 C 59 352 56 361 56 372 C 56 383 59 392 67 399 C 74 405 83 409 93 409 C 104 409 113 405 120 399 C 126 392 130 383 130 372 Z M 16 0 L 16 24 L 37 25 C 50 26 60 31 66 40 C 72 49 75 66 75 92 L 75 199 C 75 212 73 221 70 226 C 66 230 59 235 49 239 L 18 246 L 18 264 L 120 283 L 128 276 L 128 84 C 128 71 128 61 129 53 C 130 45 132 40 134 36 C 136 32 138 29 142 27 C 146 25 151 25 157 25 L 184 24 L 184 0 L 16 0 Z" unicode="i" />
<glyph horiz-adv-x="160" d="M 118 372 C 118 361 114 352 108 346 C 101 339 92 336 82 336 C 71 336 62 339 55 346 C 48 352 45 361 45 372 C 45 383 48 392 55 399 C 62 405 71 409 82 409 C 92 409 101 405 108 399 C 114 392 118 383 118 372 Z M -5 -80 C 3 -77 10 -74 18 -70 C 26 -66 33 -62 39 -57 C 45 -51 51 -45 55 -37 C 59 -29 61 -19 61 -7 L 61 203 C 61 216 57 225 50 231 C 43 237 34 241 23 243 L 4 246 L 4 264 L 106 283 L 114 276 L 114 2 C 114 -17 109 -33 101 -45 C 93 -57 83 -67 72 -75 C 60 -83 48 -89 36 -93 C 23 -97 12 -100 4 -102 L -5 -80 Z" unicode="j" />
<glyph horiz-adv-x="320" d="M 243 0 C 238 9 232 19 224 30 C 216 41 211 50 207 56 L 142 142 L 112 116 L 112 84 C 112 71 112 61 113 54 C 114 46 116 41 118 37 C 120 33 123 30 127 29 C 131 27 135 26 141 26 L 156 24 L 156 0 L 16 0 L 16 24 L 30 26 C 36 26 41 27 45 29 C 49 30 52 33 54 37 C 56 41 57 46 58 54 C 58 61 59 71 59 84 L 59 324 C 59 337 57 346 53 351 C 49 355 43 360 34 364 L 17 371 L 17 390 L 103 409 L 112 402 L 112 146 L 185 206 C 199 218 207 228 207 235 C 207 242 200 247 187 250 L 177 252 L 177 275 L 314 275 L 314 251 L 304 251 C 293 251 282 248 272 243 C 261 237 247 227 230 212 L 184 174 L 269 61 C 280 47 288 38 294 33 C 300 27 306 24 314 23 L 330 21 L 330 0 L 243 0 Z" unicode="k" />
<glyph horiz-adv-x="192" d="M 16 0 L 16 24 L 32 25 C 38 25 44 26 50 28 C 55 30 59 33 63 37 C 67 41 70 46 72 54 C 74 61 75 71 75 84 L 75 329 C 75 342 71 351 63 355 C 55 359 46 364 36 369 L 20 376 L 20 391 L 119 409 L 128 402 L 128 84 C 128 71 128 61 130 54 C 131 46 133 41 136 37 C 139 33 143 30 148 28 C 152 26 158 25 165 25 L 184 24 L 184 0 L 16 0 Z" unicode="l" />
<glyph horiz-adv-x="544" d="M 208 0 L 208 24 L 222 26 C 233 27 240 31 244 38 C 247 45 249 60 249 84 L 249 181 C 249 204 243 221 232 231 C 221 241 207 246 191 246 C 173 246 158 242 146 236 C 133 230 122 221 112 211 L 112 84 C 112 60 113 44 116 38 C 119 31 127 27 139 26 L 153 24 L 153 0 L 16 0 L 16 24 L 30 26 C 41 27 49 31 53 37 C 57 43 59 58 59 84 L 59 199 C 59 213 56 222 52 227 C 48 231 42 235 34 239 L 18 246 L 18 264 L 103 283 L 112 276 L 112 242 C 123 254 138 263 158 271 C 178 279 195 283 211 283 C 230 283 247 279 261 271 C 275 263 286 251 294 236 C 300 243 308 250 318 256 C 327 262 337 267 347 271 C 357 275 366 278 376 280 C 385 282 393 283 401 283 C 427 283 448 275 466 260 C 483 245 492 224 492 196 L 492 84 C 492 62 493 48 497 40 C 500 32 507 27 519 26 L 534 24 L 534 0 L 398 0 L 398 24 L 412 26 C 423 27 430 31 434 38 C 437 45 439 60 439 84 L 439 181 C 439 204 433 221 422 231 C 411 241 397 246 381 246 C 363 246 348 242 335 235 C 321 228 310 219 301 209 C 301 207 301 205 301 201 C 301 197 302 192 302 187 L 302 84 C 302 62 303 48 307 40 C 310 32 317 27 329 26 L 344 24 L 344 0 L 208 0 Z" unicode="m" />
<glyph horiz-adv-x="352" d="M 208 0 L 208 24 L 222 26 C 233 27 240 31 244 38 C 247 45 249 60 249 84 L 249 181 C 249 204 243 221 232 231 C 221 241 207 246 191 246 C 173 246 158 242 146 236 C 133 230 122 221 112 211 L 112 84 C 112 60 113 44 116 38 C 119 31 127 27 139 26 L 153 24 L 153 0 L 16 0 L 16 24 L 30 26 C 41 27 49 31 53 37 C 57 43 59 58 59 84 L 59 199 C 59 213 56 222 52 227 C 48 231 42 235 34 239 L 18 246 L 18 264 L 103 283 L 112 276 L 112 242 C 123 254 138 263 158 271 C 178 279 195 283 211 283 C 237 283 258 275 276 260 C 293 245 302 224 302 196 L 302 84 C 302 62 303 48 307 40 C 310 32 317 27 329 26 L 344 24 L 344 0 L 208 0 Z" unicode="n" />
<glyph horiz-adv-x="352" d="M 327 133 C 327 113 323 95 315 78 C 307 60 296 45 282 33 C 268 20 252 10 234 3 C 216 -4 197 -8 177 -8 C 157 -8 139 -4 121 2 C 103 9 86 19 72 33 C 58 46 46 62 38 81 C 29 100 25 121 25 145 C 25 164 29 182 37 199 C 45 216 56 231 70 244 C 84 256 100 266 118 274 C 136 281 156 285 177 285 C 196 285 215 281 233 274 C 251 266 267 256 281 243 C 295 229 306 213 314 195 C 322 176 327 155 327 133 Z M 269 126 C 269 148 265 167 259 183 C 253 199 245 213 235 224 C 225 234 215 242 203 247 C 191 252 179 255 168 255 C 144 255 123 247 107 232 C 91 217 83 190 83 152 C 83 133 85 116 90 100 C 95 84 102 70 111 59 C 120 47 131 38 143 32 C 155 25 169 22 185 22 C 208 22 228 29 244 45 C 260 61 269 88 269 126 Z" unicode="o" />
<glyph horiz-adv-x="352" d="M 329 155 C 329 131 325 110 317 91 C 309 71 299 55 287 41 C 274 27 259 16 242 8 C 225 0 207 -3 189 -3 C 153 -3 128 1 112 10 L 112 -15 C 112 -26 112 -35 113 -41 C 113 -47 115 -53 117 -57 C 119 -61 122 -63 126 -65 C 130 -67 137 -68 145 -69 L 170 -72 L 170 -96 L 84 -92 L 9 -96 L 9 -73 L 30 -70 C 36 -69 40 -68 44 -67 C 48 -65 51 -63 53 -60 C 55 -56 57 -51 58 -44 C 58 -37 59 -27 59 -15 L 59 199 C 59 212 57 221 54 226 C 50 230 44 235 34 239 L 14 246 L 14 264 L 103 283 L 112 276 L 112 244 C 121 252 134 260 151 270 C 168 280 186 285 204 285 C 219 285 234 282 249 276 C 264 270 277 261 289 250 C 301 238 310 225 318 209 C 325 193 329 175 329 155 Z M 278 128 C 278 166 268 194 250 214 C 232 233 210 243 186 243 C 172 243 158 240 144 234 C 130 228 119 223 112 217 L 112 97 C 112 71 119 52 133 42 C 147 31 167 26 193 26 C 203 26 214 28 224 33 C 234 37 244 44 252 53 C 260 61 266 72 271 85 C 275 97 278 112 278 128 Z" unicode="p" />
<glyph horiz-adv-x="352" d="M 267 -92 C 260 -92 252 -92 244 -92 C 236 -92 227 -93 219 -94 C 211 -94 203 -95 197 -95 C 190 -95 185 -96 182 -96 L 182 -73 L 209 -70 C 215 -69 221 -68 225 -67 C 229 -66 232 -64 234 -61 C 236 -57 238 -52 239 -45 C 239 -38 240 -28 240 -15 L 240 28 C 230 20 217 12 200 4 C 183 -3 166 -8 149 -8 C 133 -8 118 -5 104 1 C 89 7 76 15 64 27 C 52 38 43 52 36 68 C 28 84 25 103 25 124 C 25 148 29 170 37 190 C 45 210 55 227 69 241 C 83 255 99 265 117 273 C 135 281 154 285 174 285 C 189 285 204 282 220 277 C 235 271 247 266 257 261 L 275 284 L 293 284 L 293 -13 C 293 -25 293 -35 294 -42 C 294 -49 296 -54 298 -58 C 300 -62 303 -64 307 -66 C 311 -67 316 -68 322 -69 L 345 -72 L 345 -96 L 267 -92 Z M 240 180 C 240 206 232 224 216 235 C 200 245 182 251 160 251 C 137 251 117 242 100 225 C 82 207 74 182 74 150 C 74 112 83 83 102 63 C 121 42 144 32 172 32 C 184 32 197 33 209 37 C 221 41 232 46 240 53 L 240 180 Z" unicode="q" />
<glyph horiz-adv-x="256" d="M 255 247 C 255 235 251 226 244 220 C 236 214 228 211 220 211 C 213 211 207 213 201 218 C 195 223 187 230 176 239 C 170 237 163 233 157 228 C 151 223 145 218 139 212 C 133 206 128 201 123 195 C 118 189 114 184 112 180 L 112 84 C 112 64 113 50 117 42 C 120 34 129 29 143 28 L 167 24 L 167 0 L 16 0 L 16 24 L 30 26 C 36 26 42 27 46 29 C 50 31 53 34 55 38 C 57 42 58 47 58 55 C 58 62 59 72 59 85 L 59 199 C 59 212 57 221 54 226 C 51 230 44 235 34 239 L 18 246 L 18 264 L 103 283 L 112 276 L 112 215 C 122 233 135 249 152 263 C 169 277 188 285 210 285 C 225 285 236 281 244 273 C 251 265 255 256 255 247 Z" unicode="r" />
<glyph horiz-adv-x="256" d="M 240 79 C 240 55 230 35 210 18 C 190 0 162 -8 124 -8 C 89 -8 57 -1 28 11 L 28 77 L 59 77 C 60 71 62 64 65 58 C 68 51 72 45 78 39 C 83 33 90 29 99 25 C 107 21 118 20 132 20 C 172 20 192 34 192 63 C 192 76 186 86 175 94 C 164 101 147 108 123 116 C 95 124 72 135 56 148 C 39 161 31 180 31 204 C 31 216 33 227 39 237 C 45 247 53 255 63 262 C 73 269 84 275 97 279 C 110 283 124 285 138 285 C 157 285 174 283 189 279 C 204 275 215 272 223 269 L 223 199 L 192 199 C 188 220 181 235 170 245 C 159 254 147 259 133 259 C 118 259 105 255 94 248 C 83 241 78 231 78 219 C 78 205 83 195 94 189 C 104 182 122 174 148 166 C 176 156 199 145 215 133 C 231 121 240 103 240 79 Z" unicode="s" />
<glyph horiz-adv-x="224" d="M 213 42 C 204 28 192 17 178 7 C 163 -3 145 -8 123 -8 C 105 -8 89 -3 77 7 C 64 17 58 33 58 57 L 58 243 L 7 243 L 7 267 L 63 279 L 86 348 L 111 348 L 111 275 L 201 275 L 201 243 L 111 243 L 111 68 C 111 53 114 43 120 37 C 126 31 134 28 146 28 C 157 28 166 30 174 36 C 181 42 188 49 196 59 L 213 42 Z" unicode="t" />
<glyph horiz-adv-x="352" d="M 243 0 L 240 40 C 228 25 211 13 190 5 C 169 -3 151 -8 135 -8 C 109 -8 88 0 73 13 C 57 27 50 50 50 80 L 50 199 C 50 208 48 216 46 222 C 43 228 36 234 25 239 L 9 246 L 9 264 L 94 283 L 103 276 L 103 95 C 103 71 107 54 115 44 C 123 34 136 29 153 29 C 170 29 186 32 201 39 C 216 45 229 55 240 67 L 240 199 C 240 212 238 221 234 226 C 230 230 224 235 214 239 L 197 246 L 197 264 L 284 283 L 293 276 L 293 84 C 293 58 295 43 299 37 C 303 31 310 27 320 26 L 335 24 L 335 0 L 243 0 Z" unicode="u" />
<glyph horiz-adv-x="320" d="M 308 249 C 302 247 295 244 289 238 C 283 232 276 221 269 204 L 173 0 L 142 0 L 49 208 C 42 223 36 233 30 239 C 24 245 15 248 4 250 L -4 251 L -4 275 L 137 275 L 137 251 L 123 249 C 108 247 101 241 101 233 C 101 228 102 223 104 217 C 106 211 108 206 111 201 L 170 68 L 229 191 C 232 198 235 205 237 212 C 239 219 240 225 240 231 C 240 236 237 240 233 243 C 229 245 223 247 216 249 L 201 251 L 201 275 L 324 275 L 324 251 L 308 249 Z" unicode="v" />
<glyph horiz-adv-x="480" d="M 459 249 C 447 247 439 242 434 234 C 428 226 423 214 417 199 L 335 0 L 306 0 L 234 170 L 163 0 L 134 0 L 51 203 C 44 219 38 231 33 237 C 27 243 20 247 10 249 L 0 251 L 0 275 L 127 275 L 127 251 L 119 250 C 111 248 105 246 102 243 C 99 240 98 237 98 233 C 98 224 100 213 106 201 L 161 68 L 220 207 L 215 218 C 210 228 206 235 202 240 C 198 245 192 248 184 250 L 176 251 L 176 275 L 302 275 L 302 251 L 287 249 C 279 247 274 245 272 243 C 270 240 269 237 269 233 C 269 228 269 223 271 218 C 272 212 274 207 276 201 L 330 68 L 381 191 C 383 197 385 204 388 212 C 390 219 392 225 392 230 C 392 235 389 239 385 242 C 380 245 374 247 368 249 L 354 251 L 354 275 L 473 275 L 473 251 L 459 249 Z" unicode="w" />
<glyph horiz-adv-x="320" d="M 258 62 C 267 49 275 40 283 35 C 290 29 298 26 307 25 L 316 24 L 316 0 L 170 0 L 170 24 L 185 25 C 192 25 197 27 200 30 C 203 33 205 36 205 40 C 205 43 203 47 201 51 C 199 55 196 59 192 65 L 152 113 L 113 71 C 103 60 98 50 98 41 C 98 37 99 33 102 30 C 104 27 108 25 114 25 L 126 24 L 126 0 L 4 0 L 4 24 L 13 25 C 23 26 31 30 39 36 C 47 42 56 52 67 64 L 133 135 L 69 213 C 59 225 52 233 46 238 C 40 243 33 247 25 249 L 16 251 L 16 275 L 154 275 L 154 251 L 141 249 C 128 247 122 242 122 235 C 122 231 122 228 124 224 C 126 220 129 215 135 209 L 166 171 L 196 203 C 205 214 210 224 210 233 C 210 237 209 240 207 242 C 205 244 200 247 192 249 L 184 251 L 184 275 L 304 275 L 304 251 L 293 249 C 283 247 275 243 267 237 C 259 231 250 222 240 210 L 184 149 L 258 62 Z" unicode="x" />
<glyph horiz-adv-x="320" d="M 310 249 C 302 247 294 243 288 237 C 281 231 274 220 267 204 L 156 -34 C 144 -59 133 -77 121 -87 C 109 -97 96 -102 83 -102 C 73 -102 65 -99 59 -93 C 53 -87 50 -80 51 -72 C 51 -62 55 -54 65 -48 C 75 -42 93 -37 119 -33 C 123 -29 127 -24 131 -20 C 135 -15 139 -8 143 2 L 50 208 C 43 223 37 233 33 238 C 28 242 20 246 10 249 L -2 251 L -2 275 L 136 275 L 136 251 L 122 249 C 108 247 101 241 101 233 C 101 228 101 223 103 217 C 105 211 107 206 110 201 L 172 65 L 228 191 C 235 207 239 220 240 231 C 240 236 238 240 234 243 C 230 245 224 247 217 249 L 201 251 L 201 275 L 324 275 L 324 251 L 310 249 Z" unicode="y" />
<glyph horiz-adv-x="288" d="M 260 0 L 26 0 L 19 17 L 201 250 L 114 250 C 96 250 84 247 76 241 C 68 235 61 227 56 215 L 50 201 L 27 201 L 44 292 L 65 292 C 65 288 67 286 70 284 C 72 282 78 280 86 279 C 94 277 107 276 124 276 C 140 275 163 275 193 275 L 265 275 L 270 257 L 87 27 L 188 27 C 205 27 218 29 226 34 C 234 38 241 47 247 61 L 257 87 L 280 87 L 260 0 Z" unicode="z" />
<glyph horiz-adv-x="224" d="M 208 -101 C 162 -87 130 -73 112 -59 C 93 -45 84 -27 84 -7 C 84 10 87 26 93 42 C 99 58 102 73 102 89 C 102 105 95 116 82 123 C 68 130 49 134 25 134 L 19 134 L 19 154 L 25 154 C 49 154 68 157 82 164 C 95 170 102 181 102 197 C 102 212 99 228 93 245 C 87 261 84 278 84 295 C 84 315 93 333 111 348 C 129 363 162 377 208 389 L 213 372 C 183 360 163 349 153 341 C 143 333 138 321 138 307 C 138 289 140 272 146 256 C 152 239 155 223 155 207 C 155 187 147 173 131 163 C 115 153 99 146 82 144 C 99 140 115 134 131 124 C 147 114 155 99 155 79 C 155 63 152 47 146 31 C 140 15 138 -1 138 -18 C 138 -33 143 -44 153 -52 C 163 -60 183 -70 213 -82 L 208 -101 Z" unicode="{" />
<glyph horiz-adv-x="160" d="M 65 -96 L 65 409 L 95 409 L 95 -96 L 65 -96 Z" unicode="|" />
<glyph horiz-adv-x="224" d="M 11 -82 C 40 -70 60 -60 70 -52 C 80 -44 86 -33 86 -18 C 86 -1 83 15 77 31 C 71 47 69 63 69 79 C 69 99 76 114 92 124 C 107 134 123 140 141 144 C 123 146 107 153 92 163 C 76 173 69 187 69 207 C 69 223 71 239 77 256 C 83 272 86 289 86 307 C 86 321 80 333 70 341 C 60 349 40 360 11 372 L 16 389 C 62 377 94 363 112 348 C 130 333 140 315 140 295 C 140 278 137 261 131 245 C 125 228 122 212 122 197 C 122 181 128 170 142 164 C 155 157 174 154 199 154 L 205 154 L 205 134 L 199 134 C 174 134 155 130 142 123 C 128 116 122 105 122 89 C 122 73 125 58 131 42 C 137 26 140 10 140 -7 C 140 -27 130 -45 112 -59 C 93 -73 61 -87 16 -101 L 11 -82 Z" unicode="}" />
<glyph horiz-adv-x="256" d="M 240 189 C 230 165 221 149 211 139 C 201 129 190 124 177 124 C 169 124 161 124 151 126 C 141 128 130 130 120 132 C 110 134 100 136 90 138 C 80 140 72 141 66 141 C 60 141 53 139 47 136 C 41 132 35 125 29 114 L 15 121 C 23 144 32 161 42 171 C 52 181 64 187 78 187 C 85 187 94 186 104 184 C 114 182 124 179 134 177 C 144 175 154 173 164 171 C 173 169 181 168 189 168 C 196 168 202 170 207 174 C 212 178 218 185 226 197 L 240 189 Z" unicode="~" />
<glyph horiz-adv-x="160" d="" unicode="" />
<glyph horiz-adv-x="192" d="M 85 262 L 105 262 L 131 28 C 132 14 130 4 124 0 C 118 -4 108 -6 95 -6 C 81 -6 72 -4 66 0 C 60 4 57 14 59 28 L 85 262 Z M 54 348 C 54 359 58 369 66 377 C 74 384 84 388 95 388 C 106 388 116 384 124 377 C 132 369 137 359 137 348 C 137 335 132 325 124 317 C 116 309 106 306 95 306 C 84 306 74 309 66 317 C 58 325 54 335 54 348 Z" unicode="" />
<glyph horiz-adv-x="288" d="M 171 346 L 201 346 L 193 285 C 221 283 242 276 257 266 C 274 253 283 239 283 225 C 283 214 280 205 274 199 C 268 193 260 190 250 190 C 238 190 229 193 223 201 C 216 209 210 223 206 245 C 202 247 197 249 191 251 L 189 251 L 162 34 C 170 32 180 31 190 31 C 210 31 227 35 239 45 C 251 54 261 63 269 72 L 288 56 C 276 36 259 21 238 9 C 216 -2 193 -8 168 -8 L 157 -8 L 151 -60 L 121 -60 L 128 -3 C 122 -1 116 0 110 2 C 92 9 77 19 65 31 C 52 43 42 58 35 75 C 28 91 25 109 25 129 C 25 153 29 175 38 195 C 46 214 58 230 72 244 C 86 257 103 267 122 274 C 135 279 149 282 163 284 L 171 346 Z M 107 228 C 90 211 82 186 82 154 C 82 116 92 86 112 64 C 118 56 126 50 134 45 L 159 254 C 140 252 123 244 107 228 Z" unicode="" />
<glyph horiz-adv-x="304" d="M 18 178 L 18 208 L 65 208 C 61 216 57 225 54 234 C 50 243 47 252 45 261 C 42 270 41 279 41 287 C 41 303 44 317 51 330 C 58 342 67 353 79 362 C 91 370 104 377 120 381 C 135 385 151 388 169 388 C 204 388 231 381 251 369 C 270 357 280 343 280 327 C 280 317 277 310 271 305 C 265 299 259 297 251 297 C 241 297 231 301 221 309 C 211 317 203 332 197 356 C 190 359 179 361 164 361 C 117 361 94 341 94 303 C 94 295 95 286 99 276 C 103 266 107 255 111 245 C 115 235 120 225 124 216 C 125 212 126 210 128 208 L 226 208 L 226 178 L 139 178 C 141 172 142 167 143 163 C 143 155 144 149 144 143 C 144 117 138 97 128 81 C 118 65 104 52 87 42 L 185 42 C 207 42 223 45 234 51 C 244 57 254 69 262 88 L 272 109 L 293 109 L 257 0 L 13 0 L 6 19 C 34 28 55 40 70 55 C 85 70 93 92 93 120 C 93 130 91 142 87 154 C 84 162 81 170 79 178 L 18 178 Z" unicode="" />
<glyph horiz-adv-x="320" d="M 280 97 L 252 72 L 202 127 C 189 119 175 115 160 115 C 145 115 131 119 117 127 L 67 72 L 39 97 L 92 152 C 83 164 79 178 79 194 C 79 210 84 225 92 239 L 39 294 L 67 320 L 117 265 C 129 272 143 276 158 276 C 173 276 188 273 202 265 L 253 320 L 281 291 L 228 239 C 236 226 240 212 240 196 C 240 180 235 165 227 152 L 280 97 Z M 206 196 C 206 210 201 221 192 230 C 183 239 172 244 159 244 C 145 244 134 239 126 230 C 117 221 113 210 113 196 C 113 181 117 169 126 161 C 135 153 146 149 159 149 C 173 149 184 153 193 161 C 201 169 206 181 206 196 Z" unicode="" />
<glyph horiz-adv-x="416" d="M 85 91 L 85 121 L 184 121 L 184 156 L 173 171 L 85 171 L 85 201 L 151 201 L 70 313 C 58 328 49 339 41 345 C 33 351 25 355 16 357 L 1 359 L 1 384 L 174 384 L 174 359 L 152 357 C 143 355 137 353 135 350 C 132 346 131 342 131 338 C 131 331 135 321 143 309 L 221 195 L 287 290 C 292 297 296 304 300 312 C 304 320 306 327 306 333 C 306 347 297 355 279 357 L 259 359 L 259 384 L 415 384 L 415 359 L 399 358 C 387 357 377 354 371 348 C 364 342 357 333 349 321 L 267 201 L 340 201 L 340 171 L 246 171 L 241 163 L 241 121 L 340 121 L 340 91 L 241 91 C 241 81 241 72 242 65 C 243 56 245 49 248 44 C 250 38 254 34 259 32 C 263 29 270 27 278 27 L 304 25 L 304 0 L 119 0 L 119 25 L 146 27 C 161 28 171 33 176 43 C 180 51 183 67 184 91 L 85 91 Z" unicode="" />
<glyph horiz-adv-x="160" d="M 65 197 L 65 409 L 95 409 L 95 197 L 65 197 Z M 95 116 L 95 -96 L 65 -96 L 65 116 L 95 116 Z" unicode="" />
<glyph horiz-adv-x="272" d="M 258 159 C 258 137 253 117 243 97 C 233 77 220 59 204 44 C 188 28 171 16 152 6 C 133 -3 114 -8 96 -8 C 80 -8 69 -4 61 2 C 53 9 50 17 50 25 C 50 34 52 41 58 46 C 64 51 71 54 80 54 C 84 54 90 52 98 48 C 106 44 117 37 131 27 C 143 32 155 38 166 46 C 177 53 187 63 197 75 C 161 77 131 83 107 92 C 83 100 65 111 51 124 C 37 137 27 152 21 169 C 15 186 13 204 13 224 C 13 244 18 265 28 285 C 38 305 50 322 66 338 C 82 354 99 366 119 376 C 138 386 157 391 175 391 C 191 391 203 387 210 380 C 217 373 221 366 221 358 C 221 338 211 329 191 329 C 187 329 180 331 172 335 C 164 339 153 347 141 357 C 127 351 115 345 104 337 C 92 329 82 319 74 306 C 110 304 139 298 163 290 C 187 282 206 271 220 258 C 234 245 243 230 249 213 C 255 196 258 178 258 159 Z M 225 146 C 225 178 211 204 184 225 C 157 245 112 257 48 260 C 46 256 46 253 46 249 L 46 237 C 46 203 59 177 87 158 C 114 138 159 126 223 121 C 224 125 225 129 225 133 L 225 146 Z" unicode="" />
<glyph horiz-adv-x="256" d="M 220 363 C 220 354 216 346 210 339 C 203 331 195 328 185 328 C 175 328 166 331 160 339 C 153 346 150 354 150 363 C 150 373 153 382 160 389 C 166 395 175 399 185 399 C 195 399 203 395 210 389 C 216 382 220 373 220 363 Z M 108 363 C 108 354 104 346 98 339 C 91 331 83 328 73 328 C 63 328 54 331 47 339 C 40 346 37 354 37 363 C 37 373 40 382 47 389 C 54 395 63 399 73 399 C 83 399 91 395 98 389 C 104 382 108 373 108 363 Z" unicode="" />
<glyph horiz-adv-x="416" d="M 407 191 C 407 163 401 137 391 113 C 381 89 367 68 349 50 C 331 32 310 17 286 7 C 262 -2 236 -8 208 -8 C 179 -8 152 -2 128 7 C 104 17 83 32 65 50 C 47 68 34 89 24 113 C 14 137 9 163 9 191 C 9 219 14 245 24 269 C 34 293 47 315 65 333 C 83 351 104 365 128 375 C 152 385 179 391 208 391 C 236 391 262 385 286 375 C 310 365 331 351 349 333 C 367 315 381 293 391 269 C 401 245 407 219 407 191 Z M 386 191 C 386 216 381 240 372 262 C 362 284 350 303 334 319 C 318 335 299 348 277 358 C 255 367 232 372 208 372 C 182 372 159 367 137 358 C 115 348 96 335 80 319 C 64 303 51 284 42 262 C 33 240 29 216 29 191 C 29 165 33 142 42 120 C 51 98 64 79 80 63 C 96 47 115 34 137 25 C 159 15 182 11 208 11 C 232 11 255 15 277 25 C 299 34 318 47 334 63 C 350 79 362 98 372 120 C 381 142 386 165 386 191 Z M 290 97 C 281 91 270 87 257 83 C 243 79 228 78 212 78 C 178 78 150 88 128 109 C 106 129 95 157 95 191 C 95 209 98 225 105 239 C 111 253 120 265 131 275 C 142 285 155 292 169 297 C 183 302 197 305 212 305 C 228 305 242 303 255 300 C 267 297 279 293 289 289 L 292 233 L 270 233 L 265 245 C 259 255 252 264 243 271 C 234 277 223 281 210 281 C 188 281 172 273 160 257 C 148 241 142 221 142 195 C 142 165 148 143 162 127 C 175 111 192 103 214 103 C 228 103 239 106 247 112 C 255 118 261 127 267 140 L 272 152 L 294 152 L 290 97 Z" unicode="" />
<glyph horiz-adv-x="272" d="M 259 191 C 251 188 244 186 238 185 C 232 183 225 183 217 183 C 207 183 199 185 193 190 C 187 194 182 201 178 211 C 164 201 151 193 138 187 C 125 181 112 178 98 178 C 80 178 66 182 54 192 C 42 201 37 213 37 229 C 37 246 43 260 57 271 C 70 281 91 291 121 301 C 128 303 136 306 146 309 C 156 311 165 314 175 317 L 175 330 C 175 348 172 362 166 372 C 160 382 150 387 135 387 C 125 387 116 385 106 382 C 102 364 98 352 94 345 C 89 337 83 334 75 334 C 67 334 61 336 56 340 C 51 344 49 350 49 358 C 49 363 51 369 57 375 C 63 381 70 387 80 393 C 90 399 101 403 113 407 C 125 411 137 413 149 413 C 175 413 194 407 205 395 C 215 383 221 364 221 339 L 221 237 C 221 225 222 218 225 215 C 228 211 232 210 238 210 C 240 210 242 210 244 210 C 246 210 250 211 256 213 L 259 191 Z M 42 101 L 42 130 L 249 130 L 249 101 L 42 101 Z M 175 296 C 167 294 159 291 149 288 C 139 284 131 281 124 279 C 111 273 102 268 96 262 C 90 256 87 249 87 240 C 87 220 97 210 117 210 C 126 210 136 212 146 216 C 156 220 165 225 175 233 L 175 296 Z" unicode="" />
<glyph horiz-adv-x="304" d="M 281 -7 L 153 135 L 281 276 L 297 266 L 219 135 L 297 3 L 281 -7 Z M 156 -7 L 27 135 L 156 276 L 171 266 L 93 135 L 171 3 L 156 -7 Z" unicode="" />
<glyph horiz-adv-x="320" d="M 32 158 L 32 195 L 288 195 L 288 48 L 251 48 L 251 158 L 32 158 Z" unicode="" />
<glyph horiz-adv-x="304" d="M 299 244 C 299 222 295 202 288 184 C 280 166 270 150 257 137 C 244 124 229 114 211 107 C 193 100 173 97 152 97 C 130 97 111 100 93 107 C 75 114 59 124 46 137 C 33 150 23 166 16 184 C 8 202 5 222 5 244 C 5 266 8 286 16 304 C 23 322 33 337 46 350 C 59 363 75 373 93 380 C 111 387 130 391 152 391 C 173 391 193 387 211 380 C 229 373 244 363 257 350 C 270 337 280 322 288 304 C 295 286 299 266 299 244 Z M 278 244 C 278 282 266 313 244 337 C 222 361 191 373 152 373 C 113 373 82 361 59 337 C 36 313 25 282 25 244 C 25 206 36 174 59 150 C 82 126 113 114 152 114 C 191 114 222 126 244 150 C 266 174 278 206 278 244 Z M 243 163 C 237 160 231 159 226 159 C 215 159 205 161 197 166 C 189 170 182 178 177 190 L 148 234 L 131 234 L 131 207 C 131 197 131 190 133 186 C 135 182 138 180 144 180 L 157 178 L 157 160 L 78 160 L 78 178 L 89 180 C 94 181 97 183 98 186 C 98 189 99 196 99 207 L 99 289 C 99 298 98 305 98 309 C 97 313 94 315 89 315 L 78 317 L 78 336 L 155 336 C 174 336 189 331 201 322 C 213 312 219 301 219 288 C 219 276 215 267 208 260 C 201 252 192 247 181 243 L 209 199 C 214 189 219 184 224 182 C 229 180 234 178 240 177 L 243 163 Z M 182 286 C 182 298 179 306 173 310 C 167 314 159 317 151 317 C 146 317 142 316 140 316 C 137 315 134 314 131 314 L 131 255 L 148 255 C 170 255 182 265 182 286 Z" unicode="" />
<glyph horiz-adv-x="256" d="M 42 340 L 42 381 L 214 381 L 214 340 L 42 340 Z" unicode="" />
<glyph horiz-adv-x="224" d="M 206 312 C 206 298 203 286 198 274 C 193 262 186 252 178 244 C 170 236 160 229 148 224 C 136 219 124 217 112 217 C 85 217 62 226 44 244 C 26 262 17 285 17 312 C 17 324 19 336 24 348 C 29 359 36 369 44 378 C 52 386 62 393 74 399 C 86 404 98 407 112 407 C 124 407 136 404 148 399 C 160 393 170 386 178 378 C 186 369 193 359 198 348 C 203 336 206 324 206 312 Z M 172 312 C 172 332 166 347 155 359 C 143 371 129 377 112 377 C 92 377 77 371 67 359 C 57 347 52 332 52 312 C 52 293 57 277 67 264 C 77 251 92 245 112 245 C 129 245 143 251 155 264 C 166 277 172 293 172 312 Z" unicode="" />
<glyph horiz-adv-x="320" d="M 179 213 L 179 104 L 141 104 L 141 213 L 32 213 L 32 250 L 141 250 L 141 361 L 179 361 L 179 250 L 288 250 L 288 213 L 179 213 Z M 32 34 L 32 71 L 288 71 L 288 34 L 32 34 Z" unicode="" />
<glyph horiz-adv-x="224" d="M 172 141 L 31 141 L 22 156 L 94 240 C 102 251 110 261 116 269 C 122 277 127 284 131 290 C 135 296 137 301 139 307 C 141 312 142 318 142 324 C 142 348 129 361 104 361 C 92 361 83 358 75 352 C 67 346 57 336 46 323 L 27 337 C 38 357 50 372 64 382 C 78 392 95 397 117 397 C 138 397 155 391 168 379 C 181 367 188 353 188 335 C 188 326 187 318 185 311 C 183 303 179 296 174 288 C 169 280 163 272 155 263 C 147 254 136 243 124 231 L 69 173 L 115 173 C 132 173 144 174 151 178 C 158 181 164 188 170 199 L 176 211 L 196 211 L 172 141 Z" unicode="" />
<glyph horiz-adv-x="208" d="M 179 226 C 179 212 176 200 170 189 C 164 178 156 169 146 161 C 136 153 124 147 112 143 C 100 139 87 137 75 137 C 56 137 42 139 33 145 C 24 151 20 157 20 165 C 20 170 22 175 26 181 C 30 186 35 189 41 189 C 52 189 64 179 78 161 C 94 160 109 164 122 173 C 134 182 141 195 141 211 C 141 226 136 237 128 244 C 119 251 107 255 92 255 C 86 255 81 254 77 253 C 73 252 67 250 60 248 L 53 265 C 69 274 82 282 92 289 C 102 296 109 302 115 308 C 120 313 123 318 125 322 C 127 326 128 331 128 335 C 128 354 117 364 95 364 C 85 364 77 361 69 357 C 61 353 51 346 40 337 L 24 352 C 35 364 48 375 63 384 C 77 392 94 397 113 397 C 128 397 141 393 153 385 C 165 377 171 365 171 349 C 171 333 166 320 158 312 C 149 303 138 294 124 286 C 140 282 153 276 163 267 C 173 257 179 244 179 226 Z" unicode="" />
<glyph horiz-adv-x="256" d="M 183 401 C 183 387 173 375 155 363 L 90 315 L 77 325 L 118 394 C 122 403 127 411 134 417 C 141 423 148 426 156 426 C 164 426 171 423 176 418 C 180 413 183 407 183 401 Z" unicode="" />
<glyph horiz-adv-x="352" d="M 240 40 C 230 25 216 13 200 5 C 183 -3 168 -8 155 -8 C 123 -8 102 4 90 29 C 93 11 96 -5 98 -21 C 100 -37 102 -50 102 -60 C 102 -71 99 -80 93 -88 C 87 -95 78 -99 67 -99 C 55 -99 47 -95 41 -88 C 35 -80 32 -71 32 -60 C 32 -50 35 -32 41 -6 C 47 19 50 52 50 91 L 50 275 L 103 275 L 103 95 C 103 71 108 54 118 44 C 128 34 143 29 163 29 C 194 29 220 41 240 67 L 240 275 L 293 275 L 293 63 C 293 59 293 54 294 50 C 294 46 296 42 299 40 C 301 37 305 36 311 36 C 316 36 323 38 333 44 L 342 29 C 333 20 324 12 316 6 C 308 0 297 -4 284 -4 C 270 -4 260 0 252 8 C 244 16 240 25 240 35 L 240 40 Z" unicode="" />
<glyph horiz-adv-x="320" d="M 271 359 L 271 0 L 241 0 L 241 359 L 194 359 L 194 63 C 194 38 187 20 175 10 C 163 0 148 -5 131 -5 C 116 -5 104 -2 95 2 C 85 7 78 13 73 21 L 90 41 C 100 27 112 21 128 21 C 140 21 149 23 155 29 C 161 34 164 45 164 62 L 164 141 L 150 141 C 132 141 115 143 99 149 C 83 154 68 162 56 172 C 43 182 33 195 25 210 C 17 225 14 242 14 262 C 14 282 17 300 25 316 C 33 331 43 344 56 354 C 69 364 84 371 102 376 C 120 381 138 384 158 384 L 315 384 L 315 359 L 271 359 Z" unicode="" />
<glyph horiz-adv-x="128" d="M 110 145 C 110 131 105 120 96 112 C 87 104 77 100 65 100 C 52 100 41 104 32 112 C 22 120 18 131 18 145 C 18 158 22 169 32 177 C 41 185 52 190 65 190 C 77 190 87 185 96 177 C 105 169 110 158 110 145 Z" unicode="" />
<glyph horiz-adv-x="256" d="M 193 -63 C 193 -71 190 -78 185 -85 C 180 -92 173 -98 165 -103 C 156 -108 146 -112 136 -115 C 125 -118 114 -120 104 -120 C 91 -120 82 -118 76 -115 C 70 -111 67 -107 67 -103 C 67 -98 68 -93 72 -89 C 76 -84 80 -82 86 -82 C 94 -82 100 -83 106 -86 C 111 -89 117 -93 124 -98 C 134 -96 143 -94 149 -91 C 155 -87 159 -83 159 -77 C 159 -69 154 -64 145 -62 C 135 -59 121 -57 101 -56 L 95 -47 L 124 3 L 144 3 L 126 -28 C 170 -28 193 -39 193 -63 Z" unicode="" />
<glyph horiz-adv-x="160" d="M 20 140 L 20 165 L 35 167 C 45 168 52 172 56 178 C 60 184 62 196 62 214 L 62 315 C 62 332 59 344 55 350 C 51 356 43 359 32 359 L 20 359 L 20 384 C 30 384 43 385 59 387 C 75 389 87 392 97 396 L 103 392 L 103 214 C 103 196 104 184 108 178 C 112 172 119 168 129 166 L 141 165 L 141 140 L 20 140 Z" unicode="" />
<glyph horiz-adv-x="272" d="M 262 294 C 262 278 259 262 253 248 C 247 234 238 221 228 211 C 218 201 206 193 192 187 C 178 181 163 178 147 178 C 115 178 87 188 65 209 C 43 230 32 260 32 298 C 32 332 42 359 64 380 C 85 401 113 412 147 412 C 179 412 206 401 228 381 C 250 361 262 332 262 294 Z M 39 102 L 39 130 L 255 130 L 255 102 L 39 102 Z M 211 285 C 211 314 204 338 191 358 C 177 377 161 387 142 387 C 124 387 110 380 100 368 C 90 356 85 335 85 307 C 85 275 91 250 103 232 C 115 213 131 204 151 204 C 169 204 184 210 195 223 C 205 235 211 256 211 285 Z" unicode="" />
<glyph horiz-adv-x="304" d="M 178 -7 L 162 3 L 240 135 L 162 266 L 178 276 L 306 135 L 178 -7 Z M 52 -7 L 37 3 L 115 135 L 37 266 L 52 276 L 180 135 L 52 -7 Z" unicode="" />
<glyph horiz-adv-x="480" d="M 131 -9 L 108 4 L 351 392 L 374 378 L 131 -9 Z M 17 140 L 17 165 L 32 167 C 42 168 49 172 53 178 C 57 184 59 196 59 214 L 59 315 C 59 332 56 344 52 350 C 48 356 40 359 29 359 L 17 359 L 17 384 C 27 384 40 385 56 387 C 72 389 84 392 94 396 L 100 392 L 100 214 C 100 196 101 184 105 178 C 109 172 116 168 126 166 L 138 165 L 138 140 L 17 140 Z M 417 68 L 417 1 L 380 1 L 380 68 L 274 68 L 262 88 L 383 256 L 417 256 L 417 99 L 453 99 L 453 68 L 417 68 Z M 380 205 L 303 99 L 380 99 L 380 205 Z" unicode="" />
<glyph horiz-adv-x="496" d="M 130 -9 L 107 4 L 350 392 L 373 378 L 130 -9 Z M 457 1 L 316 1 L 307 16 L 379 100 C 387 111 395 121 401 129 C 407 137 412 144 416 150 C 420 156 422 161 424 167 C 426 172 427 178 427 184 C 427 208 414 221 389 221 C 377 221 368 218 360 212 C 352 206 342 196 331 183 L 312 197 C 323 217 335 232 349 242 C 363 252 380 257 402 257 C 423 257 440 251 453 239 C 466 227 473 213 473 195 C 473 186 472 178 470 171 C 468 163 464 156 459 148 C 454 140 448 132 440 123 C 432 114 421 103 409 91 L 354 33 L 400 33 C 417 33 429 34 436 38 C 443 41 449 48 455 59 L 461 71 L 481 71 L 457 1 Z M 16 140 L 16 165 L 31 167 C 41 168 48 172 52 178 C 56 184 58 196 58 214 L 58 315 C 58 332 55 344 51 350 C 47 356 39 359 28 359 L 16 359 L 16 384 C 26 384 39 385 55 387 C 71 389 83 392 93 396 L 99 392 L 99 214 C 99 196 100 184 104 178 C 108 172 115 168 125 166 L 137 165 L 137 140 L 16 140 Z" unicode="" />
<glyph horiz-adv-x="496" d="M 147 -9 L 124 4 L 367 392 L 390 378 L 147 -9 Z M 185 226 C 185 212 182 200 176 189 C 170 178 162 169 152 161 C 142 153 130 147 118 143 C 106 139 93 137 81 137 C 62 137 48 139 39 145 C 30 151 26 157 26 165 C 26 170 28 175 32 181 C 36 186 41 189 47 189 C 58 189 70 179 84 161 C 100 160 115 164 128 173 C 140 182 147 195 147 211 C 147 226 142 237 134 244 C 125 251 113 255 98 255 C 92 255 87 254 83 253 C 79 252 73 250 66 248 L 59 265 C 75 274 88 282 98 289 C 108 296 115 302 121 308 C 126 313 129 318 131 322 C 133 326 134 331 134 335 C 134 354 123 364 101 364 C 91 364 83 361 75 357 C 67 353 57 346 46 337 L 30 352 C 41 364 54 375 69 384 C 83 392 100 397 119 397 C 134 397 147 393 159 385 C 171 377 177 365 177 349 C 177 333 172 320 164 312 C 155 303 144 294 130 286 C 146 282 159 276 169 267 C 179 257 185 244 185 226 Z M 433 68 L 433 1 L 396 1 L 396 68 L 290 68 L 278 88 L 399 256 L 433 256 L 433 99 L 469 99 L 469 68 L 433 68 Z M 396 205 L 319 99 L 396 99 L 396 205 Z" unicode="" />
<glyph horiz-adv-x="256" d="M 13 123 C 13 133 15 143 20 151 C 25 159 32 167 40 173 C 48 179 57 185 67 189 C 77 193 88 197 99 200 C 115 204 125 208 129 212 C 133 216 136 221 136 225 L 136 247 C 136 253 135 259 135 267 L 161 271 C 163 257 165 244 167 230 C 169 216 170 202 170 188 C 170 179 166 172 158 166 C 150 160 138 154 121 150 C 103 145 86 139 72 132 C 57 124 50 115 50 104 C 50 96 53 88 59 80 C 65 72 73 65 82 59 C 90 53 99 47 109 42 C 118 37 126 33 132 30 C 144 38 153 45 161 49 C 169 53 176 55 184 55 C 192 55 199 52 205 46 C 210 40 213 32 213 23 C 213 2 198 -7 168 -7 C 154 -7 139 -4 121 1 C 103 7 86 15 70 27 C 54 39 40 53 29 69 C 18 85 13 103 13 123 Z M 101 346 C 101 357 105 367 113 375 C 121 382 131 386 142 386 C 153 386 163 382 171 375 C 179 367 184 357 184 346 C 184 333 179 323 171 315 C 163 307 153 304 142 304 C 131 304 121 307 113 315 C 105 323 101 333 101 346 Z" unicode="" />
<glyph horiz-adv-x="416" d="M 256 0 L 256 25 L 276 27 C 292 27 300 34 300 48 C 300 52 299 57 297 63 C 295 69 293 76 290 84 L 270 137 L 123 137 L 108 99 C 105 93 103 87 101 79 C 99 71 99 61 99 49 C 99 41 102 36 109 33 C 115 29 123 27 132 27 L 151 25 L 151 0 L 0 0 L 0 25 L 14 26 C 20 26 25 28 29 30 C 33 32 37 36 41 41 C 45 45 48 51 52 59 C 56 67 60 76 66 88 L 180 359 L 216 393 L 226 393 L 349 84 C 357 62 365 47 371 40 C 377 32 387 28 400 27 L 416 25 L 416 0 L 256 0 Z M 196 315 L 136 167 L 256 167 L 196 315 Z M 239 424 L 173 472 C 163 478 156 485 152 491 C 148 497 146 503 146 510 C 146 517 148 523 153 528 C 157 532 164 535 172 535 C 180 535 187 532 193 526 C 199 520 204 512 210 503 L 251 434 L 239 424 Z" unicode="" />
<glyph horiz-adv-x="416" d="M 256 0 L 256 25 L 276 27 C 292 27 300 34 300 48 C 300 52 299 57 297 63 C 295 69 293 76 290 84 L 270 137 L 123 137 L 108 99 C 105 93 103 87 101 79 C 99 71 99 61 99 49 C 99 41 102 36 109 33 C 115 29 123 27 132 27 L 151 25 L 151 0 L 0 0 L 0 25 L 14 26 C 20 26 25 28 29 30 C 33 32 37 36 41 41 C 45 45 48 51 52 59 C 56 67 60 76 66 88 L 180 359 L 216 393 L 226 393 L 349 84 C 357 62 365 47 371 40 C 377 32 387 28 400 27 L 416 25 L 416 0 L 256 0 Z M 196 315 L 136 167 L 256 167 L 196 315 Z M 285 510 C 285 496 275 484 257 472 L 192 424 L 179 434 L 220 503 C 224 512 229 520 236 526 C 243 532 250 535 258 535 C 266 535 273 532 278 527 C 282 522 285 516 285 510 Z" unicode="" />
<glyph horiz-adv-x="416" d="M 256 0 L 256 25 L 276 27 C 292 27 300 34 300 48 C 300 52 299 57 297 63 C 295 69 293 76 290 84 L 270 137 L 123 137 L 108 99 C 105 93 103 87 101 79 C 99 71 99 61 99 49 C 99 41 102 36 109 33 C 115 29 123 27 132 27 L 151 25 L 151 0 L 0 0 L 0 25 L 14 26 C 20 26 25 28 29 30 C 33 32 37 36 41 41 C 45 45 48 51 52 59 C 56 67 60 76 66 88 L 180 359 L 216 393 L 226 393 L 349 84 C 357 62 365 47 371 40 C 377 32 387 28 400 27 L 416 25 L 416 0 L 256 0 Z M 196 315 L 136 167 L 256 167 L 196 315 Z M 279 423 L 210 482 L 140 423 L 127 434 L 194 533 L 226 533 L 293 434 L 279 423 Z" unicode="" />
<glyph horiz-adv-x="416" d="M 256 0 L 256 25 L 276 27 C 292 27 300 34 300 48 C 300 52 299 57 297 63 C 295 69 293 76 290 84 L 270 137 L 123 137 L 108 99 C 105 93 103 87 101 79 C 99 71 99 61 99 49 C 99 41 102 36 109 33 C 115 29 123 27 132 27 L 151 25 L 151 0 L 0 0 L 0 25 L 14 26 C 20 26 25 28 29 30 C 33 32 37 36 41 41 C 45 45 48 51 52 59 C 56 67 60 76 66 88 L 180 359 L 216 393 L 226 393 L 349 84 C 357 62 365 47 371 40 C 377 32 387 28 400 27 L 416 25 L 416 0 L 256 0 Z M 196 315 L 136 167 L 256 167 L 196 315 Z M 316 508 C 306 484 297 468 288 458 C 278 448 266 443 252 443 C 236 443 222 446 208 452 C 194 458 180 461 166 461 C 158 461 152 459 147 455 C 141 451 135 444 129 433 L 114 441 C 123 464 132 481 141 491 C 150 501 162 506 178 506 C 193 506 208 503 222 497 C 236 491 250 489 264 489 C 271 489 277 490 283 494 C 288 498 294 505 301 516 L 316 508 Z" unicode="" />
<glyph horiz-adv-x="416" d="M 256 0 L 256 25 L 276 27 C 292 27 300 34 300 48 C 300 52 299 57 297 63 C 295 69 293 76 290 84 L 270 137 L 123 137 L 108 99 C 105 93 103 87 101 79 C 99 71 99 61 99 49 C 99 41 102 36 109 33 C 115 29 123 27 132 27 L 151 25 L 151 0 L 0 0 L 0 25 L 14 26 C 20 26 25 28 29 30 C 33 32 37 36 41 41 C 45 45 48 51 52 59 C 56 67 60 76 66 88 L 180 359 L 216 393 L 226 393 L 349 84 C 357 62 365 47 371 40 C 377 32 387 28 400 27 L 416 25 L 416 0 L 256 0 Z M 196 315 L 136 167 L 256 167 L 196 315 Z M 299 472 C 299 463 295 455 289 448 C 282 440 274 437 264 437 C 254 437 245 440 239 448 C 232 455 229 463 229 472 C 229 482 232 491 239 498 C 245 504 254 508 264 508 C 274 508 282 504 289 498 C 295 491 299 482 299 472 Z M 187 472 C 187 463 183 455 177 448 C 170 440 162 437 152 437 C 142 437 133 440 126 448 C 119 455 116 463 116 472 C 116 482 119 491 126 498 C 133 504 142 508 152 508 C 162 508 170 504 177 498 C 183 491 187 482 187 472 Z" unicode="" />
<glyph horiz-adv-x="416" d="M 256 0 L 256 25 L 276 27 C 292 27 300 34 300 48 C 300 52 299 57 297 63 C 295 69 293 76 290 84 L 270 137 L 123 137 L 108 99 C 105 93 103 87 101 79 C 99 71 99 61 99 49 C 99 41 102 36 109 33 C 115 29 123 27 132 27 L 151 25 L 151 0 L 0 0 L 0 25 L 14 26 C 20 26 25 28 29 30 C 33 32 37 36 41 41 C 45 45 48 51 52 59 C 56 67 60 76 66 88 L 180 359 L 216 393 L 226 393 L 349 84 C 357 62 365 47 371 40 C 377 32 387 28 400 27 L 416 25 L 416 0 L 256 0 Z M 196 315 L 136 167 L 256 167 L 196 315 Z M 271 494 C 271 476 264 460 252 448 C 239 436 224 430 206 430 C 188 430 173 436 160 448 C 146 460 140 476 140 494 C 140 512 146 527 160 540 C 173 552 188 559 206 559 C 224 559 239 552 252 540 C 264 527 271 512 271 494 Z M 245 494 C 245 506 241 516 234 524 C 226 532 217 536 206 536 C 194 536 185 532 178 524 C 170 516 167 506 167 494 C 167 481 170 471 178 464 C 185 456 194 453 206 453 C 217 453 226 456 234 464 C 241 471 245 481 245 494 Z" unicode="" />
<glyph horiz-adv-x="576" d="M 535 0 L 212 0 L 212 25 L 234 27 C 247 28 257 33 263 41 C 269 49 273 67 274 94 L 274 141 L 141 141 L 120 102 C 115 93 111 85 108 77 C 105 69 104 62 104 55 C 104 39 113 31 132 29 L 146 26 L 146 0 L -8 0 L -8 26 L 7 29 C 20 30 31 33 39 39 C 47 45 57 57 67 75 L 211 341 C 207 345 203 349 197 352 C 191 355 184 357 176 358 L 154 360 L 154 385 C 157 384 163 384 172 384 L 523 384 L 537 289 L 514 289 L 506 305 C 500 314 495 322 491 328 C 486 334 480 340 474 344 C 468 348 460 350 452 352 C 443 354 432 355 419 355 L 375 355 C 363 355 354 354 348 352 C 342 350 336 349 331 347 L 331 221 L 410 221 C 419 221 426 221 432 223 C 438 225 442 228 445 232 C 448 236 450 241 452 249 L 455 272 L 477 272 L 477 132 L 455 132 L 452 153 C 450 167 443 176 432 182 C 420 188 401 191 375 191 L 331 191 L 331 99 C 331 84 331 72 332 63 C 332 53 334 46 338 41 C 342 36 347 33 354 31 C 361 29 371 28 383 28 L 434 28 C 447 28 458 29 467 31 C 475 33 483 36 489 40 C 495 44 500 49 505 56 C 509 62 514 70 520 80 L 528 96 L 549 96 L 535 0 Z M 274 350 L 254 350 L 158 171 L 274 171 L 274 350 Z" unicode="" />
<glyph horiz-adv-x="416" d="M 393 23 C 378 14 358 7 333 1 C 308 -5 280 -8 250 -8 C 220 -8 193 -3 167 6 C 141 15 118 28 99 45 C 79 62 64 83 53 108 C 41 132 36 160 36 191 C 36 221 42 249 54 274 C 66 298 83 319 103 337 C 123 354 145 367 171 377 C 197 386 223 391 250 391 C 278 391 305 387 331 381 C 356 374 375 367 389 360 L 396 269 L 374 269 L 366 282 C 354 303 338 321 317 337 C 295 352 270 360 240 360 C 220 360 202 356 186 349 C 169 342 154 332 142 318 C 129 304 119 286 112 266 C 105 246 102 223 102 197 C 102 169 106 144 114 122 C 122 100 133 82 147 67 C 161 52 177 41 195 33 C 213 25 233 22 255 22 C 283 22 307 28 328 41 C 348 54 363 73 372 99 L 377 114 L 400 114 L 393 23 Z M 285 -63 C 285 -71 282 -78 277 -85 C 272 -92 265 -98 257 -103 C 248 -108 238 -112 228 -115 C 217 -118 206 -120 196 -120 C 183 -120 174 -118 168 -115 C 162 -111 159 -107 159 -103 C 159 -98 160 -93 164 -89 C 168 -84 172 -82 178 -82 C 186 -82 192 -83 198 -86 C 203 -89 209 -93 216 -98 C 226 -96 235 -94 241 -91 C 247 -87 251 -83 251 -77 C 251 -69 246 -64 237 -62 C 227 -59 213 -57 193 -56 L 187 -47 L 216 3 L 236 3 L 218 -28 C 262 -28 285 -39 285 -63 Z" unicode="" />
<glyph horiz-adv-x="384" d="M 343 0 L 20 0 L 20 25 L 42 27 C 55 28 65 33 72 42 C 78 51 82 70 82 99 L 82 285 C 82 314 79 333 75 342 C 70 350 62 355 50 357 L 20 359 L 20 384 L 331 384 L 345 289 L 322 289 L 314 305 C 308 314 303 322 299 328 C 294 334 288 340 282 344 C 276 348 268 350 260 352 C 251 354 240 355 227 355 L 183 355 C 171 355 162 354 156 352 C 150 350 144 349 139 347 L 139 221 L 218 221 C 227 221 234 221 240 223 C 246 225 250 228 253 232 C 256 236 258 241 260 249 L 263 272 L 285 272 L 285 132 L 263 132 L 260 153 C 258 167 251 176 240 182 C 228 188 209 191 183 191 L 139 191 L 139 99 C 139 84 139 72 140 63 C 140 53 142 46 146 41 C 150 36 155 33 162 31 C 169 29 179 28 191 28 L 242 28 C 255 28 266 29 275 31 C 283 33 291 36 297 40 C 303 44 308 49 313 56 C 317 62 322 70 328 80 L 336 96 L 357 96 L 343 0 Z M 233 424 L 167 472 C 157 478 150 485 146 491 C 142 497 140 503 140 510 C 140 517 142 523 147 528 C 151 532 158 535 166 535 C 174 535 181 532 187 526 C 193 520 198 512 204 503 L 245 434 L 233 424 Z" unicode="" />
<glyph horiz-adv-x="384" d="M 343 0 L 20 0 L 20 25 L 42 27 C 55 28 65 33 72 42 C 78 51 82 70 82 99 L 82 285 C 82 314 79 333 75 342 C 70 350 62 355 50 357 L 20 359 L 20 384 L 331 384 L 345 289 L 322 289 L 314 305 C 308 314 303 322 299 328 C 294 334 288 340 282 344 C 276 348 268 350 260 352 C 251 354 240 355 227 355 L 183 355 C 171 355 162 354 156 352 C 150 350 144 349 139 347 L 139 221 L 218 221 C 227 221 234 221 240 223 C 246 225 250 228 253 232 C 256 236 258 241 260 249 L 263 272 L 285 272 L 285 132 L 263 132 L 260 153 C 258 167 251 176 240 182 C 228 188 209 191 183 191 L 139 191 L 139 99 C 139 84 139 72 140 63 C 140 53 142 46 146 41 C 150 36 155 33 162 31 C 169 29 179 28 191 28 L 242 28 C 255 28 266 29 275 31 C 283 33 291 36 297 40 C 303 44 308 49 313 56 C 317 62 322 70 328 80 L 336 96 L 357 96 L 343 0 Z M 279 510 C 279 496 269 484 251 472 L 186 424 L 173 434 L 214 503 C 218 512 223 520 230 526 C 237 532 244 535 252 535 C 260 535 267 532 272 527 C 276 522 279 516 279 510 Z" unicode="" />
<glyph horiz-adv-x="384" d="M 343 0 L 20 0 L 20 25 L 42 27 C 55 28 65 33 72 42 C 78 51 82 70 82 99 L 82 285 C 82 314 79 333 75 342 C 70 350 62 355 50 357 L 20 359 L 20 384 L 331 384 L 345 289 L 322 289 L 314 305 C 308 314 303 322 299 328 C 294 334 288 340 282 344 C 276 348 268 350 260 352 C 251 354 240 355 227 355 L 183 355 C 171 355 162 354 156 352 C 150 350 144 349 139 347 L 139 221 L 218 221 C 227 221 234 221 240 223 C 246 225 250 228 253 232 C 256 236 258 241 260 249 L 263 272 L 285 272 L 285 132 L 263 132 L 260 153 C 258 167 251 176 240 182 C 228 188 209 191 183 191 L 139 191 L 139 99 C 139 84 139 72 140 63 C 140 53 142 46 146 41 C 150 36 155 33 162 31 C 169 29 179 28 191 28 L 242 28 C 255 28 266 29 275 31 C 283 33 291 36 297 40 C 303 44 308 49 313 56 C 317 62 322 70 328 80 L 336 96 L 357 96 L 343 0 Z M 273 423 L 204 482 L 134 423 L 121 434 L 188 533 L 220 533 L 287 434 L 273 423 Z" unicode="" />
<glyph horiz-adv-x="384" d="M 343 0 L 20 0 L 20 25 L 42 27 C 55 28 65 33 72 42 C 78 51 82 70 82 99 L 82 285 C 82 314 79 333 75 342 C 70 350 62 355 50 357 L 20 359 L 20 384 L 331 384 L 345 289 L 322 289 L 314 305 C 308 314 303 322 299 328 C 294 334 288 340 282 344 C 276 348 268 350 260 352 C 251 354 240 355 227 355 L 183 355 C 171 355 162 354 156 352 C 150 350 144 349 139 347 L 139 221 L 218 221 C 227 221 234 221 240 223 C 246 225 250 228 253 232 C 256 236 258 241 260 249 L 263 272 L 285 272 L 285 132 L 263 132 L 260 153 C 258 167 251 176 240 182 C 228 188 209 191 183 191 L 139 191 L 139 99 C 139 84 139 72 140 63 C 140 53 142 46 146 41 C 150 36 155 33 162 31 C 169 29 179 28 191 28 L 242 28 C 255 28 266 29 275 31 C 283 33 291 36 297 40 C 303 44 308 49 313 56 C 317 62 322 70 328 80 L 336 96 L 357 96 L 343 0 Z M 295 472 C 295 463 291 455 285 448 C 278 440 270 437 260 437 C 250 437 241 440 235 448 C 228 455 225 463 225 472 C 225 482 228 491 235 498 C 241 504 250 508 260 508 C 270 508 278 504 285 498 C 291 491 295 482 295 472 Z M 183 472 C 183 463 179 455 173 448 C 166 440 158 437 148 437 C 138 437 129 440 122 448 C 115 455 112 463 112 472 C 112 482 115 491 122 498 C 129 504 138 508 148 508 C 158 508 166 504 173 498 C 179 491 183 482 183 472 Z" unicode="" />
<glyph horiz-adv-x="224" d="M 20 0 L 20 25 L 43 27 C 57 28 67 33 73 43 C 79 53 82 71 82 99 L 82 285 C 82 312 79 330 73 340 C 67 350 57 355 43 357 L 20 359 L 20 384 L 198 384 L 198 359 L 175 357 C 159 355 149 350 145 340 C 141 330 139 312 139 285 L 139 99 C 139 71 141 52 145 43 C 149 33 159 28 175 27 L 201 25 L 201 0 L 20 0 Z M 144 424 L 78 472 C 68 478 61 485 57 491 C 53 497 51 503 51 510 C 51 517 53 523 58 528 C 62 532 69 535 77 535 C 85 535 92 532 98 526 C 104 520 109 512 115 503 L 156 434 L 144 424 Z" unicode="" />
<glyph horiz-adv-x="224" d="M 20 0 L 20 25 L 43 27 C 57 28 67 33 73 43 C 79 53 82 71 82 99 L 82 285 C 82 312 79 330 73 340 C 67 350 57 355 43 357 L 20 359 L 20 384 L 198 384 L 198 359 L 175 357 C 159 355 149 350 145 340 C 141 330 139 312 139 285 L 139 99 C 139 71 141 52 145 43 C 149 33 159 28 175 27 L 201 25 L 201 0 L 20 0 Z M 180 510 C 180 496 170 484 152 472 L 87 424 L 74 434 L 115 503 C 119 512 124 520 131 526 C 138 532 145 535 153 535 C 161 535 168 532 173 527 C 177 522 180 516 180 510 Z" unicode="" />
<glyph horiz-adv-x="224" d="M 20 0 L 20 25 L 43 27 C 57 28 67 33 73 43 C 79 53 82 71 82 99 L 82 285 C 82 312 79 330 73 340 C 67 350 57 355 43 357 L 20 359 L 20 384 L 198 384 L 198 359 L 175 357 C 159 355 149 350 145 340 C 141 330 139 312 139 285 L 139 99 C 139 71 141 52 145 43 C 149 33 159 28 175 27 L 201 25 L 201 0 L 20 0 Z M 180 423 L 111 482 L 41 423 L 28 434 L 95 533 L 127 533 L 194 434 L 180 423 Z" unicode="" />
<glyph horiz-adv-x="224" d="M 20 0 L 20 25 L 43 27 C 57 28 67 33 73 43 C 79 53 82 71 82 99 L 82 285 C 82 312 79 330 73 340 C 67 350 57 355 43 357 L 20 359 L 20 384 L 198 384 L 198 359 L 175 357 C 159 355 149 350 145 340 C 141 330 139 312 139 285 L 139 99 C 139 71 141 52 145 43 C 149 33 159 28 175 27 L 201 25 L 201 0 L 20 0 Z M 204 472 C 204 463 200 455 194 448 C 187 440 179 437 169 437 C 159 437 150 440 144 448 C 137 455 134 463 134 472 C 134 482 137 491 144 498 C 150 504 159 508 169 508 C 179 508 187 504 194 498 C 200 491 204 482 204 472 Z M 92 472 C 92 463 88 455 82 448 C 75 440 67 437 57 437 C 47 437 38 440 31 448 C 24 455 21 463 21 472 C 21 482 24 491 31 498 C 38 504 47 508 57 508 C 67 508 75 504 82 498 C 88 491 92 482 92 472 Z" unicode="" />
<glyph horiz-adv-x="480" d="M 440 191 C 440 159 434 131 422 107 C 410 83 394 63 374 47 C 354 31 330 19 304 11 C 277 3 249 0 220 0 L 20 0 L 20 25 L 49 27 C 62 28 71 33 75 42 C 79 51 81 70 81 99 L 81 184 L 28 184 L 28 217 L 81 217 L 81 285 C 81 314 78 333 74 342 C 69 350 61 355 49 357 L 20 359 L 20 384 L 191 384 C 226 384 259 380 289 372 C 319 364 346 352 368 336 C 390 320 408 300 421 276 C 433 252 440 223 440 191 Z M 375 185 C 375 213 370 237 360 259 C 350 280 336 298 319 312 C 301 326 281 336 259 343 C 236 350 212 354 188 354 C 180 354 171 353 160 353 C 149 352 142 351 138 350 L 138 217 L 244 217 L 244 184 L 138 184 L 138 100 C 138 70 143 50 154 41 C 164 32 185 28 215 28 C 238 28 259 31 279 37 C 299 43 316 52 330 64 C 344 76 355 93 363 113 C 371 133 375 157 375 185 Z" unicode="" />
<glyph horiz-adv-x="448" d="M 418 357 C 404 355 395 350 391 341 C 387 332 385 313 385 285 L 385 1 L 360 -5 L 110 293 L 110 99 C 110 71 112 53 117 43 C 121 33 132 28 148 27 L 171 25 L 171 0 L 16 0 L 16 25 L 41 27 C 47 27 53 29 57 31 C 61 33 65 37 68 43 C 70 48 72 55 73 64 C 74 73 75 85 75 99 L 75 298 C 75 313 71 326 65 337 C 58 347 45 354 25 358 L 16 359 L 16 384 L 111 384 L 350 104 L 350 285 C 350 312 348 330 344 340 C 340 350 329 355 313 357 L 290 359 L 290 384 L 439 384 L 439 359 L 418 357 Z M 337 508 C 327 484 318 468 309 458 C 299 448 287 443 273 443 C 257 443 243 446 229 452 C 215 458 201 461 187 461 C 179 461 173 459 168 455 C 162 451 156 444 150 433 L 135 441 C 144 464 153 481 162 491 C 171 501 183 506 199 506 C 214 506 229 503 243 497 C 257 491 271 489 285 489 C 292 489 298 490 304 494 C 309 498 315 505 322 516 L 337 508 Z" unicode="" />
<glyph horiz-adv-x="480" d="M 444 191 C 444 160 438 132 427 108 C 415 83 400 62 381 45 C 362 28 340 15 316 6 C 291 -3 266 -8 240 -8 C 210 -8 183 -3 159 6 C 134 15 112 28 94 45 C 76 62 61 83 51 108 C 41 132 36 160 36 191 C 36 221 41 249 53 274 C 64 298 79 319 98 337 C 116 354 138 367 163 377 C 187 386 213 391 240 391 C 268 391 295 386 320 377 C 345 367 367 354 385 337 C 403 320 418 299 428 274 C 438 249 444 221 444 191 Z M 376 175 C 376 229 363 274 339 308 C 314 342 278 360 230 360 C 189 360 157 346 135 320 C 113 293 102 256 102 208 C 102 153 114 108 139 74 C 164 40 200 23 248 23 C 288 23 319 36 342 62 C 364 88 376 126 376 175 Z M 261 424 L 195 472 C 185 478 178 485 174 491 C 170 497 168 503 168 510 C 168 517 170 523 175 528 C 179 532 186 535 194 535 C 202 535 209 532 215 526 C 221 520 226 512 232 503 L 273 434 L 261 424 Z" unicode="" />
<glyph horiz-adv-x="480" d="M 444 191 C 444 160 438 132 427 108 C 415 83 400 62 381 45 C 362 28 340 15 316 6 C 291 -3 266 -8 240 -8 C 210 -8 183 -3 159 6 C 134 15 112 28 94 45 C 76 62 61 83 51 108 C 41 132 36 160 36 191 C 36 221 41 249 53 274 C 64 298 79 319 98 337 C 116 354 138 367 163 377 C 187 386 213 391 240 391 C 268 391 295 386 320 377 C 345 367 367 354 385 337 C 403 320 418 299 428 274 C 438 249 444 221 444 191 Z M 376 175 C 376 229 363 274 339 308 C 314 342 278 360 230 360 C 189 360 157 346 135 320 C 113 293 102 256 102 208 C 102 153 114 108 139 74 C 164 40 200 23 248 23 C 288 23 319 36 342 62 C 364 88 376 126 376 175 Z M 305 510 C 305 496 295 484 277 472 L 212 424 L 199 434 L 240 503 C 244 512 249 520 256 526 C 263 532 270 535 278 535 C 286 535 293 532 298 527 C 302 522 305 516 305 510 Z" unicode="" />
<glyph horiz-adv-x="480" d="M 444 191 C 444 160 438 132 427 108 C 415 83 400 62 381 45 C 362 28 340 15 316 6 C 291 -3 266 -8 240 -8 C 210 -8 183 -3 159 6 C 134 15 112 28 94 45 C 76 62 61 83 51 108 C 41 132 36 160 36 191 C 36 221 41 249 53 274 C 64 298 79 319 98 337 C 116 354 138 367 163 377 C 187 386 213 391 240 391 C 268 391 295 386 320 377 C 345 367 367 354 385 337 C 403 320 418 299 428 274 C 438 249 444 221 444 191 Z M 376 175 C 376 229 363 274 339 308 C 314 342 278 360 230 360 C 189 360 157 346 135 320 C 113 293 102 256 102 208 C 102 153 114 108 139 74 C 164 40 200 23 248 23 C 288 23 319 36 342 62 C 364 88 376 126 376 175 Z M 309 423 L 240 482 L 170 423 L 157 434 L 224 533 L 256 533 L 323 434 L 309 423 Z" unicode="" />
<glyph horiz-adv-x="480" d="M 444 191 C 444 160 438 132 427 108 C 415 83 400 62 381 45 C 362 28 340 15 316 6 C 291 -3 266 -8 240 -8 C 210 -8 183 -3 159 6 C 134 15 112 28 94 45 C 76 62 61 83 51 108 C 41 132 36 160 36 191 C 36 221 41 249 53 274 C 64 298 79 319 98 337 C 116 354 138 367 163 377 C 187 386 213 391 240 391 C 268 391 295 386 320 377 C 345 367 367 354 385 337 C 403 320 418 299 428 274 C 438 249 444 221 444 191 Z M 376 175 C 376 229 363 274 339 308 C 314 342 278 360 230 360 C 189 360 157 346 135 320 C 113 293 102 256 102 208 C 102 153 114 108 139 74 C 164 40 200 23 248 23 C 288 23 319 36 342 62 C 364 88 376 126 376 175 Z M 341 508 C 331 484 322 468 313 458 C 303 448 291 443 277 443 C 261 443 247 446 233 452 C 219 458 205 461 191 461 C 183 461 177 459 172 455 C 166 451 160 444 154 433 L 139 441 C 148 464 157 481 166 491 C 175 501 187 506 203 506 C 218 506 233 503 247 497 C 261 491 275 489 289 489 C 296 489 302 490 308 494 C 313 498 319 505 326 516 L 341 508 Z" unicode="" />
<glyph horiz-adv-x="480" d="M 444 191 C 444 160 438 132 427 108 C 415 83 400 62 381 45 C 362 28 340 15 316 6 C 291 -3 266 -8 240 -8 C 210 -8 183 -3 159 6 C 134 15 112 28 94 45 C 76 62 61 83 51 108 C 41 132 36 160 36 191 C 36 221 41 249 53 274 C 64 298 79 319 98 337 C 116 354 138 367 163 377 C 187 386 213 391 240 391 C 268 391 295 386 320 377 C 345 367 367 354 385 337 C 403 320 418 299 428 274 C 438 249 444 221 444 191 Z M 376 175 C 376 229 363 274 339 308 C 314 342 278 360 230 360 C 189 360 157 346 135 320 C 113 293 102 256 102 208 C 102 153 114 108 139 74 C 164 40 200 23 248 23 C 288 23 319 36 342 62 C 364 88 376 126 376 175 Z M 331 472 C 331 463 327 455 321 448 C 314 440 306 437 296 437 C 286 437 277 440 271 448 C 264 455 261 463 261 472 C 261 482 264 491 271 498 C 277 504 286 508 296 508 C 306 508 314 504 321 498 C 327 491 331 482 331 472 Z M 219 472 C 219 463 215 455 209 448 C 202 440 194 437 184 437 C 174 437 165 440 158 448 C 151 455 148 463 148 472 C 148 482 151 491 158 498 C 165 504 174 508 184 508 C 194 508 202 504 209 498 C 215 491 219 482 219 472 Z" unicode="" />
<glyph horiz-adv-x="320" d="M 187 177 L 264 100 L 237 73 L 160 150 L 83 73 L 57 99 L 134 176 L 56 255 L 83 282 L 161 203 L 238 280 L 264 254 L 187 177 Z" unicode="" />
<glyph horiz-adv-x="480" d="M 444 191 C 444 160 438 132 427 108 C 415 83 400 62 381 45 C 362 28 340 15 316 6 C 291 -3 266 -8 240 -8 C 210 -8 183 -3 159 6 C 143 11 129 18 116 28 L 78 -18 L 54 -2 L 94 46 C 76 62 61 83 51 108 C 41 132 36 160 36 191 C 36 221 41 249 53 274 C 64 298 79 319 98 337 C 116 354 138 367 163 377 C 187 386 213 391 240 391 C 268 391 295 386 320 377 C 332 372 344 366 356 359 L 389 399 L 412 382 L 379 343 C 381 341 383 339 385 337 C 403 320 418 299 428 274 C 438 249 444 221 444 191 Z M 376 175 C 376 225 365 267 344 301 L 147 65 C 171 37 204 23 248 23 C 288 23 319 36 342 62 C 364 88 376 126 376 175 Z M 230 360 C 189 360 157 346 135 320 C 113 293 102 256 102 208 C 102 160 111 121 130 89 L 326 323 C 302 347 270 360 230 360 Z" unicode="" />
<glyph horiz-adv-x="448" d="M 421 357 C 407 355 398 350 394 341 C 390 332 388 313 388 285 L 388 137 C 388 95 374 60 347 33 C 320 5 281 -8 230 -8 C 178 -8 138 4 110 28 C 82 52 69 85 69 127 L 69 285 C 69 313 66 331 62 341 C 58 350 49 355 36 357 L 15 359 L 15 384 L 186 384 L 186 359 L 163 357 C 147 355 136 350 132 340 C 128 330 126 312 126 285 L 126 151 C 126 109 134 78 150 60 C 166 41 196 32 238 32 C 274 32 302 41 322 60 C 342 78 353 104 353 136 L 353 285 C 353 312 350 330 346 340 C 342 350 331 355 315 357 L 292 359 L 292 384 L 442 384 L 442 359 L 421 357 Z M 245 424 L 179 472 C 169 478 162 485 158 491 C 154 497 152 503 152 510 C 152 517 154 523 159 528 C 163 532 170 535 178 535 C 186 535 193 532 199 526 C 205 520 210 512 216 503 L 257 434 L 245 424 Z" unicode="" />
<glyph horiz-adv-x="448" d="M 421 357 C 407 355 398 350 394 341 C 390 332 388 313 388 285 L 388 137 C 388 95 374 60 347 33 C 320 5 281 -8 230 -8 C 178 -8 138 4 110 28 C 82 52 69 85 69 127 L 69 285 C 69 313 66 331 62 341 C 58 350 49 355 36 357 L 15 359 L 15 384 L 186 384 L 186 359 L 163 357 C 147 355 136 350 132 340 C 128 330 126 312 126 285 L 126 151 C 126 109 134 78 150 60 C 166 41 196 32 238 32 C 274 32 302 41 322 60 C 342 78 353 104 353 136 L 353 285 C 353 312 350 330 346 340 C 342 350 331 355 315 357 L 292 359 L 292 384 L 442 384 L 442 359 L 421 357 Z M 321 510 C 321 496 311 484 293 472 L 228 424 L 215 434 L 256 503 C 260 512 265 520 272 526 C 279 532 286 535 294 535 C 302 535 309 532 314 527 C 318 522 321 516 321 510 Z" unicode="" />
<glyph horiz-adv-x="448" d="M 421 357 C 407 355 398 350 394 341 C 390 332 388 313 388 285 L 388 137 C 388 95 374 60 347 33 C 320 5 281 -8 230 -8 C 178 -8 138 4 110 28 C 82 52 69 85 69 127 L 69 285 C 69 313 66 331 62 341 C 58 350 49 355 36 357 L 15 359 L 15 384 L 186 384 L 186 359 L 163 357 C 147 355 136 350 132 340 C 128 330 126 312 126 285 L 126 151 C 126 109 134 78 150 60 C 166 41 196 32 238 32 C 274 32 302 41 322 60 C 342 78 353 104 353 136 L 353 285 C 353 312 350 330 346 340 C 342 350 331 355 315 357 L 292 359 L 292 384 L 442 384 L 442 359 L 421 357 Z M 305 423 L 236 482 L 166 423 L 153 434 L 220 533 L 252 533 L 319 434 L 305 423 Z" unicode="" />
<glyph horiz-adv-x="448" d="M 421 357 C 407 355 398 350 394 341 C 390 332 388 313 388 285 L 388 137 C 388 95 374 60 347 33 C 320 5 281 -8 230 -8 C 178 -8 138 4 110 28 C 82 52 69 85 69 127 L 69 285 C 69 313 66 331 62 341 C 58 350 49 355 36 357 L 15 359 L 15 384 L 186 384 L 186 359 L 163 357 C 147 355 136 350 132 340 C 128 330 126 312 126 285 L 126 151 C 126 109 134 78 150 60 C 166 41 196 32 238 32 C 274 32 302 41 322 60 C 342 78 353 104 353 136 L 353 285 C 353 312 350 330 346 340 C 342 350 331 355 315 357 L 292 359 L 292 384 L 442 384 L 442 359 L 421 357 Z M 327 472 C 327 463 323 455 317 448 C 310 440 302 437 292 437 C 282 437 273 440 267 448 C 260 455 257 463 257 472 C 257 482 260 491 267 498 C 273 504 282 508 292 508 C 302 508 310 504 317 498 C 323 491 327 482 327 472 Z M 215 472 C 215 463 211 455 205 448 C 198 440 190 437 180 437 C 170 437 161 440 154 448 C 147 455 144 463 144 472 C 144 482 147 491 154 498 C 161 504 170 508 180 508 C 190 508 198 504 205 498 C 211 491 215 482 215 472 Z" unicode="" />
<glyph horiz-adv-x="416" d="M 399 358 C 387 357 377 354 371 348 C 364 342 357 333 349 321 L 241 163 L 241 99 C 241 85 241 74 242 65 C 243 56 245 49 248 44 C 250 38 254 34 259 32 C 263 29 270 27 278 27 L 304 25 L 304 0 L 119 0 L 119 25 L 146 27 C 161 28 171 33 176 43 C 181 53 184 71 184 99 L 184 156 L 70 313 C 58 328 49 339 41 345 C 33 351 25 355 16 357 L 1 359 L 1 384 L 174 384 L 174 359 L 152 357 C 143 355 137 353 135 350 C 132 346 131 342 131 338 C 131 331 135 321 143 309 L 221 195 L 287 290 C 292 297 296 304 300 312 C 304 320 306 327 306 333 C 306 347 297 355 279 357 L 259 359 L 259 384 L 415 384 L 415 359 L 399 358 Z M 295 510 C 295 496 285 484 267 472 L 202 424 L 189 434 L 230 503 C 234 512 239 520 246 526 C 253 532 260 535 268 535 C 276 535 283 532 288 527 C 292 522 295 516 295 510 Z" unicode="" />
<glyph horiz-adv-x="352" d="M 339 206 C 339 188 335 173 327 160 C 319 147 309 136 296 127 C 283 118 268 111 251 106 C 233 101 215 98 196 96 L 191 121 C 203 123 214 125 224 129 C 234 132 243 137 251 143 C 259 149 265 156 269 166 C 273 176 276 188 276 202 C 276 227 267 246 249 260 C 231 273 212 280 190 280 C 168 280 151 278 139 276 L 139 103 C 139 75 141 55 147 45 C 152 34 162 28 178 27 L 206 25 L 206 0 L 20 0 L 20 25 L 49 27 C 55 27 61 29 65 32 C 69 34 73 38 75 44 C 77 50 79 57 80 67 C 81 76 82 88 82 103 L 82 285 C 82 313 79 331 75 340 C 70 349 61 355 48 357 L 20 359 L 20 384 L 206 384 L 206 359 L 175 357 C 161 355 152 350 148 344 C 144 338 141 326 141 309 L 198 309 C 242 309 276 300 301 282 C 326 264 339 239 339 206 Z" unicode="" />
<glyph horiz-adv-x="368" d="M 355 72 C 355 47 345 27 327 13 C 308 0 285 -8 258 -8 C 226 -8 199 -1 176 12 L 176 77 L 206 77 C 210 39 228 20 260 20 C 274 20 286 23 295 31 C 303 38 308 47 308 59 C 308 70 304 80 297 90 C 290 100 276 109 254 119 C 224 131 204 143 192 153 C 180 163 175 177 175 196 C 175 202 175 207 176 212 C 176 216 178 221 181 227 C 183 232 187 238 193 245 C 198 251 205 260 215 271 C 222 279 228 288 232 296 C 236 304 238 314 238 326 C 238 356 219 372 182 372 C 172 372 163 371 155 370 C 147 368 141 365 136 360 C 131 354 127 346 125 336 C 122 326 121 312 121 294 L 121 0 L 96 0 C 85 0 74 0 64 0 C 54 0 44 -1 35 -1 L 17 -1 L 17 25 L 31 26 C 44 27 53 31 59 38 C 65 45 68 59 68 80 L 68 243 L 20 243 L 20 267 L 68 275 L 68 280 C 68 324 81 356 107 376 C 133 396 165 407 204 407 C 232 407 253 400 267 388 C 281 376 288 360 288 340 C 288 326 284 313 278 301 C 271 289 260 276 246 262 L 229 245 C 225 241 221 237 219 234 C 216 230 214 227 213 224 C 212 221 212 218 212 214 C 212 210 213 206 215 203 C 217 200 220 197 225 193 C 230 189 237 184 246 180 C 255 175 267 169 282 163 C 307 151 325 138 337 126 C 349 114 355 96 355 72 Z" unicode="" />
<glyph horiz-adv-x="320" d="M 319 19 C 309 9 299 3 287 0 C 275 -4 264 -6 255 -6 C 241 -6 230 -2 220 5 C 210 12 205 22 203 35 C 195 25 182 16 165 6 C 147 -3 127 -8 104 -8 C 84 -8 66 -3 50 7 C 34 17 26 31 26 51 C 26 74 34 93 52 108 C 69 122 93 133 123 141 L 202 162 L 202 186 C 202 212 197 230 187 240 C 177 250 164 256 146 256 C 137 256 130 255 126 255 C 121 254 117 253 113 252 C 110 226 105 208 98 199 C 90 189 82 185 73 185 C 51 185 41 195 41 217 C 41 224 44 232 52 240 C 60 248 70 255 82 262 C 94 268 107 274 122 278 C 136 282 151 285 165 285 C 193 285 215 278 231 264 C 247 250 255 227 255 197 L 255 74 C 255 60 256 49 260 41 C 263 33 270 29 282 29 C 287 29 293 30 300 32 C 307 34 312 35 316 37 L 319 19 Z M 202 137 L 136 119 C 118 113 104 105 96 95 C 88 85 84 74 84 63 C 84 53 87 44 93 36 C 99 28 110 24 124 24 C 140 24 155 27 167 35 C 179 43 190 52 202 64 L 202 137 Z M 181 315 L 115 363 C 105 369 98 376 94 382 C 90 388 88 394 88 401 C 88 408 90 414 95 419 C 99 423 106 426 114 426 C 122 426 129 423 135 417 C 141 411 146 403 152 394 L 193 325 L 181 315 Z" unicode="" />
<glyph horiz-adv-x="320" d="M 319 19 C 309 9 299 3 287 0 C 275 -4 264 -6 255 -6 C 241 -6 230 -2 220 5 C 210 12 205 22 203 35 C 195 25 182 16 165 6 C 147 -3 127 -8 104 -8 C 84 -8 66 -3 50 7 C 34 17 26 31 26 51 C 26 74 34 93 52 108 C 69 122 93 133 123 141 L 202 162 L 202 186 C 202 212 197 230 187 240 C 177 250 164 256 146 256 C 137 256 130 255 126 255 C 121 254 117 253 113 252 C 110 226 105 208 98 199 C 90 189 82 185 73 185 C 51 185 41 195 41 217 C 41 224 44 232 52 240 C 60 248 70 255 82 262 C 94 268 107 274 122 278 C 136 282 151 285 165 285 C 193 285 215 278 231 264 C 247 250 255 227 255 197 L 255 74 C 255 60 256 49 260 41 C 263 33 270 29 282 29 C 287 29 293 30 300 32 C 307 34 312 35 316 37 L 319 19 Z M 202 137 L 136 119 C 118 113 104 105 96 95 C 88 85 84 74 84 63 C 84 53 87 44 93 36 C 99 28 110 24 124 24 C 140 24 155 27 167 35 C 179 43 190 52 202 64 L 202 137 Z M 227 401 C 227 387 217 375 199 363 L 134 315 L 121 325 L 162 394 C 166 403 171 411 178 417 C 185 423 192 426 200 426 C 208 426 215 423 220 418 C 224 413 227 407 227 401 Z" unicode="" />
<glyph horiz-adv-x="320" d="M 319 19 C 309 9 299 3 287 0 C 275 -4 264 -6 255 -6 C 241 -6 230 -2 220 5 C 210 12 205 22 203 35 C 195 25 182 16 165 6 C 147 -3 127 -8 104 -8 C 84 -8 66 -3 50 7 C 34 17 26 31 26 51 C 26 74 34 93 52 108 C 69 122 93 133 123 141 L 202 162 L 202 186 C 202 212 197 230 187 240 C 177 250 164 256 146 256 C 137 256 130 255 126 255 C 121 254 117 253 113 252 C 110 226 105 208 98 199 C 90 189 82 185 73 185 C 51 185 41 195 41 217 C 41 224 44 232 52 240 C 60 248 70 255 82 262 C 94 268 107 274 122 278 C 136 282 151 285 165 285 C 193 285 215 278 231 264 C 247 250 255 227 255 197 L 255 74 C 255 60 256 49 260 41 C 263 33 270 29 282 29 C 287 29 293 30 300 32 C 307 34 312 35 316 37 L 319 19 Z M 202 137 L 136 119 C 118 113 104 105 96 95 C 88 85 84 74 84 63 C 84 53 87 44 93 36 C 99 28 110 24 124 24 C 140 24 155 27 167 35 C 179 43 190 52 202 64 L 202 137 Z M 221 314 L 152 373 L 82 314 L 69 325 L 136 424 L 168 424 L 235 325 L 221 314 Z" unicode="" />
<glyph horiz-adv-x="320" d="M 319 19 C 309 9 299 3 287 0 C 275 -4 264 -6 255 -6 C 241 -6 230 -2 220 5 C 210 12 205 22 203 35 C 195 25 182 16 165 6 C 147 -3 127 -8 104 -8 C 84 -8 66 -3 50 7 C 34 17 26 31 26 51 C 26 74 34 93 52 108 C 69 122 93 133 123 141 L 202 162 L 202 186 C 202 212 197 230 187 240 C 177 250 164 256 146 256 C 137 256 130 255 126 255 C 121 254 117 253 113 252 C 110 226 105 208 98 199 C 90 189 82 185 73 185 C 51 185 41 195 41 217 C 41 224 44 232 52 240 C 60 248 70 255 82 262 C 94 268 107 274 122 278 C 136 282 151 285 165 285 C 193 285 215 278 231 264 C 247 250 255 227 255 197 L 255 74 C 255 60 256 49 260 41 C 263 33 270 29 282 29 C 287 29 293 30 300 32 C 307 34 312 35 316 37 L 319 19 Z M 202 137 L 136 119 C 118 113 104 105 96 95 C 88 85 84 74 84 63 C 84 53 87 44 93 36 C 99 28 110 24 124 24 C 140 24 155 27 167 35 C 179 43 190 52 202 64 L 202 137 Z M 253 399 C 243 375 234 359 225 349 C 215 339 203 334 189 334 C 173 334 159 337 145 343 C 131 349 117 352 103 352 C 95 352 89 350 84 346 C 78 342 72 335 66 324 L 51 332 C 60 355 69 372 78 382 C 87 392 99 397 115 397 C 130 397 145 394 159 388 C 173 382 187 380 201 380 C 208 380 214 381 220 385 C 225 389 231 396 238 407 L 253 399 Z" unicode="" />
<glyph horiz-adv-x="320" d="M 319 19 C 309 9 299 3 287 0 C 275 -4 264 -6 255 -6 C 241 -6 230 -2 220 5 C 210 12 205 22 203 35 C 195 25 182 16 165 6 C 147 -3 127 -8 104 -8 C 84 -8 66 -3 50 7 C 34 17 26 31 26 51 C 26 74 34 93 52 108 C 69 122 93 133 123 141 L 202 162 L 202 186 C 202 212 197 230 187 240 C 177 250 164 256 146 256 C 137 256 130 255 126 255 C 121 254 117 253 113 252 C 110 226 105 208 98 199 C 90 189 82 185 73 185 C 51 185 41 195 41 217 C 41 224 44 232 52 240 C 60 248 70 255 82 262 C 94 268 107 274 122 278 C 136 282 151 285 165 285 C 193 285 215 278 231 264 C 247 250 255 227 255 197 L 255 74 C 255 60 256 49 260 41 C 263 33 270 29 282 29 C 287 29 293 30 300 32 C 307 34 312 35 316 37 L 319 19 Z M 202 137 L 136 119 C 118 113 104 105 96 95 C 88 85 84 74 84 63 C 84 53 87 44 93 36 C 99 28 110 24 124 24 C 140 24 155 27 167 35 C 179 43 190 52 202 64 L 202 137 Z M 241 363 C 241 354 237 346 231 339 C 224 331 216 328 206 328 C 196 328 187 331 181 339 C 174 346 171 354 171 363 C 171 373 174 382 181 389 C 187 395 196 399 206 399 C 216 399 224 395 231 389 C 237 382 241 373 241 363 Z M 129 363 C 129 354 125 346 119 339 C 112 331 104 328 94 328 C 84 328 75 331 68 339 C 61 346 58 354 58 363 C 58 373 61 382 68 389 C 75 395 84 399 94 399 C 104 399 112 395 119 389 C 125 382 129 373 129 363 Z" unicode="" />
<glyph horiz-adv-x="320" d="M 319 19 C 309 9 299 3 287 0 C 275 -4 264 -6 255 -6 C 241 -6 230 -2 220 5 C 210 12 205 22 203 35 C 195 25 182 16 165 6 C 147 -3 127 -8 104 -8 C 84 -8 66 -3 50 7 C 34 17 26 31 26 51 C 26 74 34 93 52 108 C 69 122 93 133 123 141 L 202 162 L 202 186 C 202 212 197 230 187 240 C 177 250 164 256 146 256 C 137 256 130 255 126 255 C 121 254 117 253 113 252 C 110 226 105 208 98 199 C 90 189 82 185 73 185 C 51 185 41 195 41 217 C 41 224 44 232 52 240 C 60 248 70 255 82 262 C 94 268 107 274 122 278 C 136 282 151 285 165 285 C 193 285 215 278 231 264 C 247 250 255 227 255 197 L 255 74 C 255 60 256 49 260 41 C 263 33 270 29 282 29 C 287 29 293 30 300 32 C 307 34 312 35 316 37 L 319 19 Z M 202 137 L 136 119 C 118 113 104 105 96 95 C 88 85 84 74 84 63 C 84 53 87 44 93 36 C 99 28 110 24 124 24 C 140 24 155 27 167 35 C 179 43 190 52 202 64 L 202 137 Z M 217 385 C 217 367 210 351 198 339 C 185 327 170 321 152 321 C 134 321 119 327 106 339 C 92 351 86 367 86 385 C 86 403 92 418 106 431 C 119 443 134 450 152 450 C 170 450 185 443 198 431 C 210 418 217 403 217 385 Z M 191 385 C 191 397 187 407 180 415 C 172 423 163 427 152 427 C 140 427 131 423 124 415 C 116 407 113 397 113 385 C 113 372 116 362 124 355 C 131 347 140 344 152 344 C 163 344 172 347 180 355 C 187 362 191 372 191 385 Z" unicode="" />
<glyph horiz-adv-x="464" d="M 258 157 L 258 153 C 258 133 260 116 266 101 C 272 85 279 72 288 62 C 297 52 307 44 319 38 C 331 32 342 30 354 30 C 374 30 390 33 404 41 C 417 49 429 58 439 70 L 457 56 C 443 37 426 22 404 10 C 382 -1 358 -7 334 -7 C 312 -7 293 -2 275 6 C 257 15 243 28 231 44 C 213 29 194 17 174 7 C 153 -3 130 -8 104 -8 C 84 -8 66 -3 50 7 C 34 17 26 31 26 51 C 26 74 34 93 52 108 C 69 122 93 133 123 141 L 201 162 L 201 186 C 201 212 196 230 186 240 C 176 250 163 256 145 256 C 136 256 129 255 125 255 C 121 254 117 253 113 252 C 110 226 105 208 98 199 C 90 189 82 185 73 185 C 51 185 41 195 41 217 C 41 224 44 232 52 240 C 60 248 70 255 82 262 C 94 268 107 274 121 278 C 135 282 150 285 164 285 C 183 285 199 281 213 275 C 227 268 237 257 245 243 C 258 256 273 266 289 274 C 305 281 322 285 339 285 C 375 285 404 273 425 250 C 446 226 457 195 457 157 L 258 157 Z M 124 24 C 143 24 160 27 175 34 C 190 41 205 51 219 63 C 207 83 201 107 201 135 L 201 137 L 136 119 C 118 113 104 105 96 95 C 88 85 84 74 84 63 C 84 53 87 44 93 36 C 99 28 110 24 124 24 Z M 396 183 C 394 208 388 227 376 241 C 364 254 350 261 332 261 C 314 261 298 254 284 242 C 270 229 261 209 259 183 L 396 183 Z" unicode="" />
<glyph horiz-adv-x="288" d="M 288 56 C 276 36 259 21 238 9 C 216 -2 193 -8 168 -8 C 147 -8 128 -4 110 2 C 92 9 77 19 65 31 C 52 43 42 58 35 75 C 28 91 25 109 25 129 C 25 153 29 175 38 195 C 46 214 58 230 72 244 C 86 257 103 267 122 274 C 141 281 161 285 182 285 C 215 285 240 278 257 266 C 274 253 283 239 283 225 C 283 214 280 205 274 199 C 268 193 260 190 250 190 C 238 190 229 193 223 201 C 216 209 210 223 206 245 C 202 247 197 249 191 251 C 185 253 176 254 165 254 C 143 254 124 245 107 228 C 90 211 82 186 82 154 C 82 116 92 86 112 64 C 132 42 158 31 190 31 C 210 31 227 35 239 45 C 251 54 261 63 269 72 L 288 56 Z M 228 -63 C 228 -71 225 -78 220 -85 C 215 -92 208 -98 200 -103 C 191 -108 181 -112 171 -115 C 160 -118 149 -120 139 -120 C 126 -120 117 -118 111 -115 C 105 -111 102 -107 102 -103 C 102 -98 103 -93 107 -89 C 111 -84 115 -82 121 -82 C 129 -82 135 -83 141 -86 C 146 -89 152 -93 159 -98 C 169 -96 178 -94 184 -91 C 190 -87 194 -83 194 -77 C 194 -69 189 -64 180 -62 C 170 -59 156 -57 136 -56 L 130 -47 L 159 3 L 179 3 L 161 -28 C 205 -28 228 -39 228 -63 Z" unicode="" />
<glyph horiz-adv-x="288" d="M 82 157 L 82 153 C 82 133 84 116 90 101 C 96 85 103 72 112 62 C 121 52 131 44 143 38 C 155 32 166 30 178 30 C 198 30 214 33 228 41 C 241 49 253 58 263 70 L 281 56 C 267 37 250 22 228 10 C 206 -1 182 -7 158 -7 C 140 -7 122 -3 106 4 C 90 11 76 21 64 34 C 52 46 42 61 35 79 C 28 96 25 115 25 135 C 25 157 29 178 37 196 C 45 214 56 230 69 243 C 82 256 97 266 113 274 C 129 281 146 285 163 285 C 199 285 228 273 249 250 C 270 226 281 195 281 157 L 82 157 Z M 220 183 C 218 208 212 227 200 241 C 188 254 174 261 156 261 C 138 261 122 254 108 242 C 94 229 85 209 83 183 L 220 183 Z M 175 315 L 109 363 C 99 369 92 376 88 382 C 84 388 82 394 82 401 C 82 408 84 414 89 419 C 93 423 100 426 108 426 C 116 426 123 423 129 417 C 135 411 140 403 146 394 L 187 325 L 175 315 Z" unicode="" />
<glyph horiz-adv-x="288" d="M 82 157 L 82 153 C 82 133 84 116 90 101 C 96 85 103 72 112 62 C 121 52 131 44 143 38 C 155 32 166 30 178 30 C 198 30 214 33 228 41 C 241 49 253 58 263 70 L 281 56 C 267 37 250 22 228 10 C 206 -1 182 -7 158 -7 C 140 -7 122 -3 106 4 C 90 11 76 21 64 34 C 52 46 42 61 35 79 C 28 96 25 115 25 135 C 25 157 29 178 37 196 C 45 214 56 230 69 243 C 82 256 97 266 113 274 C 129 281 146 285 163 285 C 199 285 228 273 249 250 C 270 226 281 195 281 157 L 82 157 Z M 220 183 C 218 208 212 227 200 241 C 188 254 174 261 156 261 C 138 261 122 254 108 242 C 94 229 85 209 83 183 L 220 183 Z M 231 401 C 231 387 221 375 203 363 L 138 315 L 125 325 L 166 394 C 170 403 175 411 182 417 C 189 423 196 426 204 426 C 212 426 219 423 224 418 C 228 413 231 407 231 401 Z" unicode="" />
<glyph horiz-adv-x="288" d="M 82 157 L 82 153 C 82 133 84 116 90 101 C 96 85 103 72 112 62 C 121 52 131 44 143 38 C 155 32 166 30 178 30 C 198 30 214 33 228 41 C 241 49 253 58 263 70 L 281 56 C 267 37 250 22 228 10 C 206 -1 182 -7 158 -7 C 140 -7 122 -3 106 4 C 90 11 76 21 64 34 C 52 46 42 61 35 79 C 28 96 25 115 25 135 C 25 157 29 178 37 196 C 45 214 56 230 69 243 C 82 256 97 266 113 274 C 129 281 146 285 163 285 C 199 285 228 273 249 250 C 270 226 281 195 281 157 L 82 157 Z M 220 183 C 218 208 212 227 200 241 C 188 254 174 261 156 261 C 138 261 122 254 108 242 C 94 229 85 209 83 183 L 220 183 Z M 225 314 L 156 373 L 86 314 L 73 325 L 140 424 L 172 424 L 239 325 L 225 314 Z" unicode="" />
<glyph horiz-adv-x="288" d="M 82 157 L 82 153 C 82 133 84 116 90 101 C 96 85 103 72 112 62 C 121 52 131 44 143 38 C 155 32 166 30 178 30 C 198 30 214 33 228 41 C 241 49 253 58 263 70 L 281 56 C 267 37 250 22 228 10 C 206 -1 182 -7 158 -7 C 140 -7 122 -3 106 4 C 90 11 76 21 64 34 C 52 46 42 61 35 79 C 28 96 25 115 25 135 C 25 157 29 178 37 196 C 45 214 56 230 69 243 C 82 256 97 266 113 274 C 129 281 146 285 163 285 C 199 285 228 273 249 250 C 270 226 281 195 281 157 L 82 157 Z M 220 183 C 218 208 212 227 200 241 C 188 254 174 261 156 261 C 138 261 122 254 108 242 C 94 229 85 209 83 183 L 220 183 Z M 247 363 C 247 354 243 346 237 339 C 230 331 222 328 212 328 C 202 328 193 331 187 339 C 180 346 177 354 177 363 C 177 373 180 382 187 389 C 193 395 202 399 212 399 C 222 399 230 395 237 389 C 243 382 247 373 247 363 Z M 135 363 C 135 354 131 346 125 339 C 118 331 110 328 100 328 C 90 328 81 331 74 339 C 67 346 64 354 64 363 C 64 373 67 382 74 389 C 81 395 90 399 100 399 C 110 399 118 395 125 389 C 131 382 135 373 135 363 Z" unicode="" />
<glyph horiz-adv-x="192" d="M 16 0 L 16 24 L 37 25 C 50 26 60 31 66 40 C 72 49 75 66 75 92 L 75 199 C 75 212 73 221 70 226 C 66 230 59 235 49 239 L 18 246 L 18 264 L 120 283 L 128 276 L 128 84 C 128 71 128 61 129 53 C 130 45 132 40 134 36 C 136 32 138 29 142 27 C 146 25 151 25 157 25 L 184 24 L 184 0 L 16 0 Z M 114 315 L 48 363 C 38 369 31 376 27 382 C 23 388 21 394 21 401 C 21 408 23 414 28 419 C 32 423 39 426 47 426 C 55 426 62 423 68 417 C 74 411 79 403 85 394 L 126 325 L 114 315 Z" unicode="" />
<glyph horiz-adv-x="192" d="M 16 0 L 16 24 L 37 25 C 50 26 60 31 66 40 C 72 49 75 66 75 92 L 75 199 C 75 212 73 221 70 226 C 66 230 59 235 49 239 L 18 246 L 18 264 L 120 283 L 128 276 L 128 84 C 128 71 128 61 129 53 C 130 45 132 40 134 36 C 136 32 138 29 142 27 C 146 25 151 25 157 25 L 184 24 L 184 0 L 16 0 Z M 174 401 C 174 387 164 375 146 363 L 81 315 L 68 325 L 109 394 C 113 403 118 411 125 417 C 132 423 139 426 147 426 C 155 426 162 423 167 418 C 171 413 174 407 174 401 Z" unicode="" />
<glyph horiz-adv-x="192" d="M 16 0 L 16 24 L 37 25 C 50 26 60 31 66 40 C 72 49 75 66 75 92 L 75 199 C 75 212 73 221 70 226 C 66 230 59 235 49 239 L 18 246 L 18 264 L 120 283 L 128 276 L 128 84 C 128 71 128 61 129 53 C 130 45 132 40 134 36 C 136 32 138 29 142 27 C 146 25 151 25 157 25 L 184 24 L 184 0 L 16 0 Z M 165 314 L 96 373 L 26 314 L 13 325 L 80 424 L 112 424 L 179 325 L 165 314 Z" unicode="" />
<glyph horiz-adv-x="192" d="M 16 0 L 16 24 L 37 25 C 50 26 60 31 66 40 C 72 49 75 66 75 92 L 75 199 C 75 212 73 221 70 226 C 66 230 59 235 49 239 L 18 246 L 18 264 L 120 283 L 128 276 L 128 84 C 128 71 128 61 129 53 C 130 45 132 40 134 36 C 136 32 138 29 142 27 C 146 25 151 25 157 25 L 184 24 L 184 0 L 16 0 Z M 191 363 C 191 354 187 346 181 339 C 174 331 166 328 156 328 C 146 328 137 331 131 339 C 124 346 121 354 121 363 C 121 373 124 382 131 389 C 137 395 146 399 156 399 C 166 399 174 395 181 389 C 187 382 191 373 191 363 Z M 79 363 C 79 354 75 346 69 339 C 62 331 54 328 44 328 C 34 328 25 331 18 339 C 11 346 8 354 8 363 C 8 373 11 382 18 389 C 25 395 34 399 44 399 C 54 399 62 395 69 389 C 75 382 79 373 79 363 Z" unicode="" />
<glyph horiz-adv-x="352" d="M 327 149 C 327 125 323 104 315 85 C 307 65 297 49 284 35 C 270 21 254 11 236 3 C 218 -4 198 -8 177 -8 C 159 -8 141 -5 123 1 C 105 7 88 15 74 27 C 59 38 47 52 38 68 C 28 84 24 103 24 125 C 24 142 27 158 34 174 C 41 190 51 204 64 216 C 76 228 91 237 108 244 C 125 251 143 255 163 255 C 182 255 198 252 212 247 C 226 242 238 235 248 227 C 244 245 237 262 226 280 C 215 298 200 316 182 336 L 133 297 L 112 320 L 160 357 C 144 369 126 380 106 390 L 123 409 C 134 403 145 398 155 393 C 165 388 176 383 186 377 L 232 412 L 253 389 L 211 357 C 245 330 272 300 294 267 C 316 234 327 195 327 149 Z M 269 115 C 269 150 259 177 239 196 C 219 215 195 225 166 225 C 140 225 120 217 105 203 C 90 189 83 166 83 134 C 83 99 92 72 111 52 C 129 32 153 22 183 22 C 208 22 229 29 245 45 C 261 61 269 84 269 115 Z" unicode="" />
<glyph horiz-adv-x="352" d="M 208 0 L 208 24 L 222 26 C 233 27 240 31 244 38 C 247 45 249 60 249 84 L 249 181 C 249 204 243 221 232 231 C 221 241 207 246 191 246 C 173 246 158 242 146 236 C 133 230 122 221 112 211 L 112 84 C 112 60 113 44 116 38 C 119 31 127 27 139 26 L 153 24 L 153 0 L 16 0 L 16 24 L 30 26 C 41 27 49 31 53 37 C 57 43 59 58 59 84 L 59 199 C 59 213 56 222 52 227 C 48 231 42 235 34 239 L 18 246 L 18 264 L 103 283 L 112 276 L 112 242 C 123 254 138 263 158 271 C 178 279 195 283 211 283 C 237 283 258 275 276 260 C 293 245 302 224 302 196 L 302 84 C 302 62 303 48 307 40 C 310 32 317 27 329 26 L 344 24 L 344 0 L 208 0 Z M 284 399 C 274 375 265 359 256 349 C 246 339 234 334 220 334 C 204 334 190 337 176 343 C 162 349 148 352 134 352 C 126 352 120 350 115 346 C 109 342 103 335 97 324 L 82 332 C 91 355 100 372 109 382 C 118 392 130 397 146 397 C 161 397 176 394 190 388 C 204 382 218 380 232 380 C 239 380 245 381 251 385 C 256 389 262 396 269 407 L 284 399 Z" unicode="" />
<glyph horiz-adv-x="352" d="M 327 133 C 327 113 323 95 315 78 C 307 60 296 45 282 33 C 268 20 252 10 234 3 C 216 -4 197 -8 177 -8 C 157 -8 139 -4 121 2 C 103 9 86 19 72 33 C 58 46 46 62 38 81 C 29 100 25 121 25 145 C 25 164 29 182 37 199 C 45 216 56 231 70 244 C 84 256 100 266 118 274 C 136 281 156 285 177 285 C 196 285 215 281 233 274 C 251 266 267 256 281 243 C 295 229 306 213 314 195 C 322 176 327 155 327 133 Z M 269 126 C 269 148 265 167 259 183 C 253 199 245 213 235 224 C 225 234 215 242 203 247 C 191 252 179 255 168 255 C 144 255 123 247 107 232 C 91 217 83 190 83 152 C 83 133 85 116 90 100 C 95 84 102 70 111 59 C 120 47 131 38 143 32 C 155 25 169 22 185 22 C 208 22 228 29 244 45 C 260 61 269 88 269 126 Z M 197 315 L 131 363 C 121 369 114 376 110 382 C 106 388 104 394 104 401 C 104 408 106 414 111 419 C 115 423 122 426 130 426 C 138 426 145 423 151 417 C 157 411 162 403 168 394 L 209 325 L 197 315 Z" unicode="" />
<glyph horiz-adv-x="352" d="M 327 133 C 327 113 323 95 315 78 C 307 60 296 45 282 33 C 268 20 252 10 234 3 C 216 -4 197 -8 177 -8 C 157 -8 139 -4 121 2 C 103 9 86 19 72 33 C 58 46 46 62 38 81 C 29 100 25 121 25 145 C 25 164 29 182 37 199 C 45 216 56 231 70 244 C 84 256 100 266 118 274 C 136 281 156 285 177 285 C 196 285 215 281 233 274 C 251 266 267 256 281 243 C 295 229 306 213 314 195 C 322 176 327 155 327 133 Z M 269 126 C 269 148 265 167 259 183 C 253 199 245 213 235 224 C 225 234 215 242 203 247 C 191 252 179 255 168 255 C 144 255 123 247 107 232 C 91 217 83 190 83 152 C 83 133 85 116 90 100 C 95 84 102 70 111 59 C 120 47 131 38 143 32 C 155 25 169 22 185 22 C 208 22 228 29 244 45 C 260 61 269 88 269 126 Z M 253 401 C 253 387 243 375 225 363 L 160 315 L 147 325 L 188 394 C 192 403 197 411 204 417 C 211 423 218 426 226 426 C 234 426 241 423 246 418 C 250 413 253 407 253 401 Z" unicode="" />
<glyph horiz-adv-x="352" d="M 327 133 C 327 113 323 95 315 78 C 307 60 296 45 282 33 C 268 20 252 10 234 3 C 216 -4 197 -8 177 -8 C 157 -8 139 -4 121 2 C 103 9 86 19 72 33 C 58 46 46 62 38 81 C 29 100 25 121 25 145 C 25 164 29 182 37 199 C 45 216 56 231 70 244 C 84 256 100 266 118 274 C 136 281 156 285 177 285 C 196 285 215 281 233 274 C 251 266 267 256 281 243 C 295 229 306 213 314 195 C 322 176 327 155 327 133 Z M 269 126 C 269 148 265 167 259 183 C 253 199 245 213 235 224 C 225 234 215 242 203 247 C 191 252 179 255 168 255 C 144 255 123 247 107 232 C 91 217 83 190 83 152 C 83 133 85 116 90 100 C 95 84 102 70 111 59 C 120 47 131 38 143 32 C 155 25 169 22 185 22 C 208 22 228 29 244 45 C 260 61 269 88 269 126 Z M 245 314 L 176 373 L 106 314 L 93 325 L 160 424 L 192 424 L 259 325 L 245 314 Z" unicode="" />
<glyph horiz-adv-x="352" d="M 327 133 C 327 113 323 95 315 78 C 307 60 296 45 282 33 C 268 20 252 10 234 3 C 216 -4 197 -8 177 -8 C 157 -8 139 -4 121 2 C 103 9 86 19 72 33 C 58 46 46 62 38 81 C 29 100 25 121 25 145 C 25 164 29 182 37 199 C 45 216 56 231 70 244 C 84 256 100 266 118 274 C 136 281 156 285 177 285 C 196 285 215 281 233 274 C 251 266 267 256 281 243 C 295 229 306 213 314 195 C 322 176 327 155 327 133 Z M 269 126 C 269 148 265 167 259 183 C 253 199 245 213 235 224 C 225 234 215 242 203 247 C 191 252 179 255 168 255 C 144 255 123 247 107 232 C 91 217 83 190 83 152 C 83 133 85 116 90 100 C 95 84 102 70 111 59 C 120 47 131 38 143 32 C 155 25 169 22 185 22 C 208 22 228 29 244 45 C 260 61 269 88 269 126 Z M 277 399 C 267 375 258 359 249 349 C 239 339 227 334 213 334 C 197 334 183 337 169 343 C 155 349 141 352 127 352 C 119 352 113 350 108 346 C 102 342 96 335 90 324 L 75 332 C 84 355 93 372 102 382 C 111 392 123 397 139 397 C 154 397 169 394 183 388 C 197 382 211 380 225 380 C 232 380 238 381 244 385 C 249 389 255 396 262 407 L 277 399 Z" unicode="" />
<glyph horiz-adv-x="352" d="M 327 133 C 327 113 323 95 315 78 C 307 60 296 45 282 33 C 268 20 252 10 234 3 C 216 -4 197 -8 177 -8 C 157 -8 139 -4 121 2 C 103 9 86 19 72 33 C 58 46 46 62 38 81 C 29 100 25 121 25 145 C 25 164 29 182 37 199 C 45 216 56 231 70 244 C 84 256 100 266 118 274 C 136 281 156 285 177 285 C 196 285 215 281 233 274 C 251 266 267 256 281 243 C 295 229 306 213 314 195 C 322 176 327 155 327 133 Z M 269 126 C 269 148 265 167 259 183 C 253 199 245 213 235 224 C 225 234 215 242 203 247 C 191 252 179 255 168 255 C 144 255 123 247 107 232 C 91 217 83 190 83 152 C 83 133 85 116 90 100 C 95 84 102 70 111 59 C 120 47 131 38 143 32 C 155 25 169 22 185 22 C 208 22 228 29 244 45 C 260 61 269 88 269 126 Z M 268 363 C 268 354 264 346 258 339 C 251 331 243 328 233 328 C 223 328 214 331 208 339 C 201 346 198 354 198 363 C 198 373 201 382 208 389 C 214 395 223 399 233 399 C 243 399 251 395 258 389 C 264 382 268 373 268 363 Z M 156 363 C 156 354 152 346 146 339 C 139 331 131 328 121 328 C 111 328 102 331 95 339 C 88 346 85 354 85 363 C 85 373 88 382 95 389 C 102 395 111 399 121 399 C 131 399 139 395 146 389 C 152 382 156 373 156 363 Z" unicode="" />
<glyph horiz-adv-x="320" d="M 32 158 L 32 195 L 288 195 L 288 158 L 32 158 Z M 193 270 C 193 260 189 252 183 246 C 176 240 168 237 159 237 C 149 237 141 240 135 246 C 128 252 125 260 125 270 C 125 279 128 287 135 293 C 141 299 149 303 159 303 C 168 303 176 299 183 293 C 189 287 193 279 193 270 Z M 193 83 C 193 73 189 66 183 60 C 176 54 168 51 159 51 C 149 51 141 54 135 60 C 128 66 125 73 125 83 C 125 92 128 100 135 106 C 141 112 149 116 159 116 C 168 116 176 112 183 106 C 189 100 193 92 193 83 Z" unicode="" />
<glyph horiz-adv-x="352" d="M 327 133 C 327 113 323 95 315 78 C 307 60 296 45 282 33 C 268 20 252 10 234 3 C 216 -4 197 -8 177 -8 C 157 -8 139 -4 121 2 C 109 6 98 12 88 20 L 55 -18 L 34 -2 L 68 37 C 55 49 45 64 38 81 C 29 100 25 121 25 145 C 25 164 29 182 37 199 C 45 216 56 231 70 244 C 84 256 100 266 118 274 C 136 281 156 285 177 285 C 196 285 215 281 233 274 C 242 270 251 265 260 259 L 289 292 L 310 276 L 281 243 C 295 229 306 213 314 195 C 322 176 327 155 327 133 Z M 269 126 C 269 148 265 167 259 183 C 256 191 253 198 249 205 L 116 53 C 124 44 133 37 143 32 C 155 25 169 22 185 22 C 208 22 228 29 244 45 C 260 61 269 88 269 126 Z M 203 247 C 191 252 179 255 168 255 C 144 255 123 247 107 232 C 91 217 83 190 83 152 C 83 133 85 116 90 100 C 92 90 96 82 101 75 L 233 227 C 223 235 213 242 203 247 Z" unicode="" />
<glyph horiz-adv-x="352" d="M 243 0 L 240 40 C 228 25 211 13 190 5 C 169 -3 151 -8 135 -8 C 109 -8 88 0 73 13 C 57 27 50 50 50 80 L 50 199 C 50 208 48 216 46 222 C 43 228 36 234 25 239 L 9 246 L 9 264 L 94 283 L 103 276 L 103 95 C 103 71 107 54 115 44 C 123 34 136 29 153 29 C 170 29 186 32 201 39 C 216 45 229 55 240 67 L 240 199 C 240 212 238 221 234 226 C 230 230 224 235 214 239 L 197 246 L 197 264 L 284 283 L 293 276 L 293 84 C 293 58 295 43 299 37 C 303 31 310 27 320 26 L 335 24 L 335 0 L 243 0 Z M 185 315 L 119 363 C 109 369 102 376 98 382 C 94 388 92 394 92 401 C 92 408 94 414 99 419 C 103 423 110 426 118 426 C 126 426 133 423 139 417 C 145 411 150 403 156 394 L 197 325 L 185 315 Z" unicode="" />
<glyph horiz-adv-x="352" d="M 243 0 L 240 40 C 228 25 211 13 190 5 C 169 -3 151 -8 135 -8 C 109 -8 88 0 73 13 C 57 27 50 50 50 80 L 50 199 C 50 208 48 216 46 222 C 43 228 36 234 25 239 L 9 246 L 9 264 L 94 283 L 103 276 L 103 95 C 103 71 107 54 115 44 C 123 34 136 29 153 29 C 170 29 186 32 201 39 C 216 45 229 55 240 67 L 240 199 C 240 212 238 221 234 226 C 230 230 224 235 214 239 L 197 246 L 197 264 L 284 283 L 293 276 L 293 84 C 293 58 295 43 299 37 C 303 31 310 27 320 26 L 335 24 L 335 0 L 243 0 Z M 239 401 C 239 387 229 375 211 363 L 146 315 L 133 325 L 174 394 C 178 403 183 411 190 417 C 197 423 204 426 212 426 C 220 426 227 423 232 418 C 236 413 239 407 239 401 Z" unicode="" />
<glyph horiz-adv-x="352" d="M 243 0 L 240 40 C 228 25 211 13 190 5 C 169 -3 151 -8 135 -8 C 109 -8 88 0 73 13 C 57 27 50 50 50 80 L 50 199 C 50 208 48 216 46 222 C 43 228 36 234 25 239 L 9 246 L 9 264 L 94 283 L 103 276 L 103 95 C 103 71 107 54 115 44 C 123 34 136 29 153 29 C 170 29 186 32 201 39 C 216 45 229 55 240 67 L 240 199 C 240 212 238 221 234 226 C 230 230 224 235 214 239 L 197 246 L 197 264 L 284 283 L 293 276 L 293 84 C 293 58 295 43 299 37 C 303 31 310 27 320 26 L 335 24 L 335 0 L 243 0 Z M 230 314 L 161 373 L 91 314 L 78 325 L 145 424 L 177 424 L 244 325 L 230 314 Z" unicode="" />
<glyph horiz-adv-x="352" d="M 243 0 L 240 40 C 228 25 211 13 190 5 C 169 -3 151 -8 135 -8 C 109 -8 88 0 73 13 C 57 27 50 50 50 80 L 50 199 C 50 208 48 216 46 222 C 43 228 36 234 25 239 L 9 246 L 9 264 L 94 283 L 103 276 L 103 95 C 103 71 107 54 115 44 C 123 34 136 29 153 29 C 170 29 186 32 201 39 C 216 45 229 55 240 67 L 240 199 C 240 212 238 221 234 226 C 230 230 224 235 214 239 L 197 246 L 197 264 L 284 283 L 293 276 L 293 84 C 293 58 295 43 299 37 C 303 31 310 27 320 26 L 335 24 L 335 0 L 243 0 Z M 258 363 C 258 354 254 346 248 339 C 241 331 233 328 223 328 C 213 328 204 331 198 339 C 191 346 188 354 188 363 C 188 373 191 382 198 389 C 204 395 213 399 223 399 C 233 399 241 395 248 389 C 254 382 258 373 258 363 Z M 146 363 C 146 354 142 346 136 339 C 129 331 121 328 111 328 C 101 328 92 331 85 339 C 78 346 75 354 75 363 C 75 373 78 382 85 389 C 92 395 101 399 111 399 C 121 399 129 395 136 389 C 142 382 146 373 146 363 Z" unicode="" />
<glyph horiz-adv-x="320" d="M 310 249 C 302 247 294 243 288 237 C 281 231 274 220 267 204 L 156 -34 C 144 -59 133 -77 121 -87 C 109 -97 96 -102 83 -102 C 73 -102 65 -99 59 -93 C 53 -87 50 -80 51 -72 C 51 -62 55 -54 65 -48 C 75 -42 93 -37 119 -33 C 123 -29 127 -24 131 -20 C 135 -15 139 -8 143 2 L 50 208 C 43 223 37 233 33 238 C 28 242 20 246 10 249 L -2 251 L -2 275 L 136 275 L 136 251 L 122 249 C 108 247 101 241 101 233 C 101 228 101 223 103 217 C 105 211 107 206 110 201 L 172 65 L 228 191 C 235 207 239 220 240 231 C 240 236 238 240 234 243 C 230 245 224 247 217 249 L 201 251 L 201 275 L 324 275 L 324 251 L 310 249 Z M 247 401 C 247 387 237 375 219 363 L 154 315 L 141 325 L 182 394 C 186 403 191 411 198 417 C 205 423 212 426 220 426 C 228 426 235 423 240 418 C 244 413 247 407 247 401 Z" unicode="" />
<glyph horiz-adv-x="368" d="M 340 147 C 340 122 336 100 328 82 C 320 63 310 47 297 35 C 283 22 268 12 250 6 C 232 0 214 -3 195 -3 C 172 -3 156 -1 146 1 C 136 3 126 6 117 10 L 117 -15 C 117 -26 117 -35 118 -41 C 118 -47 120 -53 122 -57 C 124 -61 127 -63 131 -65 C 135 -67 142 -68 150 -69 L 175 -72 L 175 -96 L 89 -92 L 14 -96 L 14 -73 L 35 -70 C 41 -69 45 -68 49 -67 C 53 -65 56 -63 58 -60 C 60 -56 62 -51 63 -44 C 63 -37 64 -27 64 -15 L 64 325 C 64 337 62 346 58 350 C 54 354 47 359 38 365 L 27 372 L 27 391 L 110 409 L 117 402 L 117 246 C 125 252 137 260 153 270 C 169 280 187 285 209 285 C 249 285 280 272 304 248 C 328 223 340 189 340 147 Z M 287 131 C 287 169 276 197 256 217 C 235 236 210 246 180 246 C 168 246 157 243 146 239 C 134 234 125 229 117 223 L 117 100 C 117 75 123 56 136 44 C 148 32 169 26 197 26 C 209 26 221 27 232 31 C 243 34 253 40 261 48 C 269 56 275 66 280 80 C 284 94 287 111 287 131 Z" unicode="" />
<glyph horiz-adv-x="320" d="M 310 249 C 302 247 294 243 288 237 C 281 231 274 220 267 204 L 156 -34 C 144 -59 133 -77 121 -87 C 109 -97 96 -102 83 -102 C 73 -102 65 -99 59 -93 C 53 -87 50 -80 51 -72 C 51 -62 55 -54 65 -48 C 75 -42 93 -37 119 -33 C 123 -29 127 -24 131 -20 C 135 -15 139 -8 143 2 L 50 208 C 43 223 37 233 33 238 C 28 242 20 246 10 249 L -2 251 L -2 275 L 136 275 L 136 251 L 122 249 C 108 247 101 241 101 233 C 101 228 101 223 103 217 C 105 211 107 206 110 201 L 172 65 L 228 191 C 235 207 239 220 240 231 C 240 236 238 240 234 243 C 230 245 224 247 217 249 L 201 251 L 201 275 L 324 275 L 324 251 L 310 249 Z M 263 363 C 263 354 259 346 253 339 C 246 331 238 328 228 328 C 218 328 209 331 203 339 C 196 346 193 354 193 363 C 193 373 196 382 203 389 C 209 395 218 399 228 399 C 238 399 246 395 253 389 C 259 382 263 373 263 363 Z M 151 363 C 151 354 147 346 141 339 C 134 331 126 328 116 328 C 106 328 97 331 90 339 C 83 346 80 354 80 363 C 80 373 83 382 90 389 C 97 395 106 399 116 399 C 126 399 134 395 141 389 C 147 382 151 373 151 363 Z" unicode="" />
<glyph horiz-adv-x="192" d="M 16 0 L 16 24 L 37 25 C 50 26 60 31 66 40 C 72 49 75 66 75 92 L 75 199 C 75 212 73 221 70 226 C 66 230 59 235 49 239 L 18 246 L 18 264 L 120 283 L 128 276 L 128 84 C 128 71 128 61 129 53 C 130 45 132 40 134 36 C 136 32 138 29 142 27 C 146 25 151 25 157 25 L 184 24 L 184 0 L 16 0 Z" unicode="" />
<glyph horiz-adv-x="368" d="M 342 0 L 20 0 L 20 26 L 48 27 C 61 28 70 33 75 43 C 79 52 82 71 82 100 L 82 163 L 40 148 L 29 179 L 82 198 L 82 285 C 82 299 81 310 80 319 C 79 328 77 335 75 341 C 72 346 68 350 64 352 C 60 354 54 356 48 357 L 20 359 L 20 384 L 213 384 L 213 359 L 176 357 C 160 355 149 350 145 340 C 141 330 139 311 139 285 L 139 219 L 232 253 L 243 222 L 139 184 L 139 100 C 139 85 139 73 141 64 C 143 54 146 47 150 42 C 154 36 160 33 168 31 C 176 29 186 28 198 28 L 240 28 C 266 28 284 31 294 37 C 304 43 313 54 320 70 L 333 111 L 357 111 L 342 0 Z" unicode="" />
<glyph horiz-adv-x="192" d="M 16 0 L 16 24 L 32 25 C 38 25 44 26 50 28 C 55 30 59 33 63 37 C 67 41 70 46 72 54 C 74 61 75 71 75 84 L 75 178 L 24 168 L 16 200 L 75 212 L 75 329 C 75 342 71 351 63 355 C 55 359 46 364 36 369 L 20 376 L 20 391 L 119 409 L 128 402 L 128 223 L 179 234 L 187 202 L 128 189 L 128 84 C 128 71 128 61 130 54 C 131 46 133 41 136 37 C 139 33 143 30 148 28 C 152 26 158 25 165 25 L 184 24 L 184 0 L 16 0 Z" unicode="" />
<glyph horiz-adv-x="608" d="M 369 0 C 363 0 356 0 347 0 C 337 0 327 -1 317 -1 C 306 -1 295 -1 284 -1 C 273 -1 264 -2 256 -2 C 224 -2 195 1 169 9 C 142 17 119 29 100 45 C 81 61 66 81 56 105 C 45 129 40 158 40 192 C 40 224 45 252 56 276 C 67 300 82 321 101 337 C 120 353 143 366 169 374 C 195 382 223 386 253 386 C 282 386 305 385 322 385 C 338 384 352 384 364 384 L 555 384 L 569 289 L 546 289 L 538 305 C 532 314 527 322 523 328 C 518 334 512 340 506 344 C 500 348 492 350 484 352 C 475 354 464 355 451 355 L 404 355 C 392 355 383 354 377 352 C 371 350 365 349 360 347 L 360 221 L 439 221 C 449 221 457 221 463 223 C 469 225 473 228 477 232 C 480 236 482 241 484 249 L 487 272 L 509 272 L 509 132 L 487 132 L 484 153 C 482 167 474 176 462 182 C 450 188 430 191 404 191 L 360 191 L 360 99 C 360 84 360 72 361 63 C 361 53 363 46 367 41 C 370 36 375 33 382 31 C 389 29 399 28 411 28 L 466 28 C 479 28 490 29 499 31 C 507 33 515 36 521 40 C 527 44 532 49 537 56 C 541 62 546 70 552 80 L 560 96 L 581 96 L 567 0 L 369 0 Z M 303 298 C 303 320 298 335 290 345 C 282 354 267 359 246 359 C 204 359 171 346 145 320 C 119 294 106 253 106 197 C 106 137 119 94 147 67 C 175 39 212 26 258 26 C 268 26 277 26 284 27 C 291 28 297 29 303 31 L 303 298 Z" unicode="" />
<glyph horiz-adv-x="528" d="M 322 157 L 322 153 C 322 133 324 116 330 101 C 336 85 343 72 352 62 C 361 52 371 44 383 38 C 395 32 406 30 418 30 C 438 30 454 33 468 41 C 481 49 493 58 503 70 L 521 56 C 507 37 490 22 468 10 C 446 -1 422 -7 398 -7 C 375 -7 354 -1 336 11 C 318 23 303 39 293 59 C 281 39 264 22 244 10 C 223 -1 200 -8 175 -8 C 155 -8 137 -4 119 2 C 101 9 85 19 71 33 C 57 46 45 62 37 81 C 29 100 25 121 25 145 C 25 164 29 182 37 199 C 45 216 55 231 69 244 C 82 256 98 266 116 274 C 134 281 154 285 175 285 C 199 285 221 278 243 265 C 264 252 281 234 293 212 C 305 234 321 252 341 265 C 361 278 382 285 403 285 C 439 285 468 273 489 250 C 510 226 521 195 521 157 L 322 157 Z M 265 126 C 265 148 262 167 256 183 C 250 199 242 213 232 224 C 222 234 212 242 200 247 C 188 252 177 255 166 255 C 142 255 122 247 106 232 C 90 217 83 190 83 152 C 83 133 85 116 90 100 C 94 84 101 70 110 59 C 119 47 130 38 142 32 C 154 25 167 22 183 22 C 206 22 225 29 241 45 C 257 61 265 88 265 126 Z M 460 183 C 458 208 452 227 440 241 C 428 254 414 261 396 261 C 378 261 362 254 348 242 C 334 229 325 209 323 183 L 460 183 Z" unicode="" />
<glyph horiz-adv-x="320" d="M 300 109 C 300 72 286 43 259 23 C 231 2 194 -8 148 -8 C 123 -8 100 -5 79 -1 C 58 2 43 7 35 12 L 26 103 L 51 103 L 59 77 C 68 57 79 43 92 35 C 104 26 124 22 151 22 C 187 22 212 28 226 40 C 240 52 247 68 247 86 C 247 107 239 124 225 136 C 210 148 188 159 158 169 C 120 180 90 194 68 210 C 45 226 34 251 34 283 C 34 299 37 314 45 328 C 53 341 63 352 76 362 C 89 371 104 378 120 383 C 136 388 154 391 172 391 C 196 391 217 388 237 384 C 257 379 271 375 280 371 L 286 270 L 260 270 L 254 297 C 250 314 241 329 227 342 C 213 355 194 362 169 362 C 145 362 126 356 111 346 C 95 335 88 320 88 301 C 88 279 95 264 109 255 C 123 245 143 236 170 227 C 214 211 247 195 268 178 C 289 160 300 137 300 109 Z M 181 431 L 149 431 L 82 530 L 95 540 L 165 482 L 234 540 L 248 530 L 181 431 Z" unicode="" />
<glyph horiz-adv-x="256" d="M 240 79 C 240 55 230 35 210 18 C 190 0 162 -8 124 -8 C 89 -8 57 -1 28 11 L 28 77 L 59 77 C 60 71 62 64 65 58 C 68 51 72 45 78 39 C 83 33 90 29 99 25 C 107 21 118 20 132 20 C 172 20 192 34 192 63 C 192 76 186 86 175 94 C 164 101 147 108 123 116 C 95 124 72 135 56 148 C 39 161 31 180 31 204 C 31 216 33 227 39 237 C 45 247 53 255 63 262 C 73 269 84 275 97 279 C 110 283 124 285 138 285 C 157 285 174 283 189 279 C 204 275 215 272 223 269 L 223 199 L 192 199 C 188 220 181 235 170 245 C 159 254 147 259 133 259 C 118 259 105 255 94 248 C 83 241 78 231 78 219 C 78 205 83 195 94 189 C 104 182 122 174 148 166 C 176 156 199 145 215 133 C 231 121 240 103 240 79 Z M 145 322 L 113 322 L 46 421 L 59 431 L 129 373 L 198 431 L 212 421 L 145 322 Z" unicode="" />
<glyph horiz-adv-x="416" d="M 399 358 C 387 357 377 354 371 348 C 364 342 357 333 349 321 L 241 163 L 241 99 C 241 85 241 74 242 65 C 243 56 245 49 248 44 C 250 38 254 34 259 32 C 263 29 270 27 278 27 L 304 25 L 304 0 L 119 0 L 119 25 L 146 27 C 161 28 171 33 176 43 C 181 53 184 71 184 99 L 184 156 L 70 313 C 58 328 49 339 41 345 C 33 351 25 355 16 357 L 1 359 L 1 384 L 174 384 L 174 359 L 152 357 C 143 355 137 353 135 350 C 132 346 131 342 131 338 C 131 331 135 321 143 309 L 221 195 L 287 290 C 292 297 296 304 300 312 C 304 320 306 327 306 333 C 306 347 297 355 279 357 L 259 359 L 259 384 L 415 384 L 415 359 L 399 358 Z M 311 472 C 311 463 307 455 301 448 C 294 440 286 437 276 437 C 266 437 257 440 251 448 C 244 455 241 463 241 472 C 241 482 244 491 251 498 C 257 504 266 508 276 508 C 286 508 294 504 301 498 C 307 491 311 482 311 472 Z M 199 472 C 199 463 195 455 189 448 C 182 440 174 437 164 437 C 154 437 145 440 138 448 C 131 455 128 463 128 472 C 128 482 131 491 138 498 C 145 504 154 508 164 508 C 174 508 182 504 189 498 C 195 491 199 482 199 472 Z" unicode="" />
<glyph horiz-adv-x="352" d="M 326 0 L 18 0 L 15 19 L 260 357 L 142 357 C 128 357 117 355 109 353 C 101 351 94 347 88 342 C 82 337 78 331 74 324 C 70 317 65 309 61 301 L 51 279 L 27 279 L 43 395 L 62 395 C 64 391 68 389 72 388 C 76 386 83 385 95 385 C 106 384 122 384 144 384 L 336 384 L 338 366 L 90 27 L 228 27 C 248 27 265 31 278 39 C 291 47 303 61 314 81 L 326 103 L 350 103 L 326 0 Z M 204 431 L 172 431 L 105 530 L 118 540 L 188 482 L 257 540 L 271 530 L 204 431 Z" unicode="" />
<glyph horiz-adv-x="288" d="M 260 0 L 26 0 L 19 17 L 201 250 L 114 250 C 96 250 84 247 76 241 C 68 235 61 227 56 215 L 50 201 L 27 201 L 44 292 L 65 292 C 65 288 67 286 70 284 C 72 282 78 280 86 279 C 94 277 107 276 124 276 C 140 275 163 275 193 275 L 265 275 L 270 257 L 87 27 L 188 27 C 205 27 218 29 226 34 C 234 38 241 47 247 61 L 257 87 L 280 87 L 260 0 Z M 166 322 L 134 322 L 67 421 L 80 431 L 150 373 L 219 431 L 233 421 L 166 322 Z" unicode="" />
<glyph horiz-adv-x="256" d="M 268 356 C 268 348 264 340 258 333 C 252 326 245 323 239 323 C 233 323 226 324 219 328 C 211 332 200 340 184 354 C 169 348 157 338 148 322 C 138 306 132 283 129 254 L 126 234 L 203 234 L 198 202 L 122 202 L 102 71 C 97 42 90 16 81 -7 C 72 -31 62 -51 50 -69 C 38 -86 25 -99 11 -109 C -2 -119 -16 -124 -30 -124 C -50 -124 -60 -114 -60 -96 C -60 -87 -57 -80 -52 -74 C -47 -68 -42 -66 -36 -66 C -31 -66 -25 -66 -18 -67 C -11 -67 -1 -71 12 -77 C 18 -71 24 -61 29 -47 C 33 -33 37 -16 41 2 L 71 202 L 30 202 L 33 222 L 76 232 C 80 255 86 276 96 296 C 105 315 116 331 129 345 C 142 359 156 369 172 377 C 188 384 204 388 221 388 C 252 388 268 377 268 356 Z" unicode="" />
<glyph horiz-adv-x="256" d="M 209 314 L 140 373 L 70 314 L 57 325 L 124 424 L 156 424 L 223 325 L 209 314 Z" unicode="" />
<glyph horiz-adv-x="256" d="M 144 322 L 112 322 L 45 421 L 58 431 L 128 373 L 197 431 L 211 421 L 144 322 Z" unicode="" />
<glyph horiz-adv-x="256" d="M 216 420 C 208 386 196 361 181 346 C 166 331 148 324 128 324 C 107 324 89 331 75 346 C 60 361 49 386 41 420 L 60 427 C 70 407 79 393 88 384 C 97 374 110 370 128 370 C 144 370 157 374 167 384 C 177 393 186 407 196 427 L 216 420 Z" unicode="" />
<glyph horiz-adv-x="256" d="M 166 367 C 166 357 162 348 155 340 C 147 332 138 328 128 328 C 116 328 107 332 100 340 C 93 348 90 357 90 367 C 90 377 93 385 100 393 C 107 401 116 405 128 405 C 138 405 147 401 155 393 C 162 385 166 377 166 367 Z" unicode="" />
<glyph horiz-adv-x="256" d="M 193 385 C 193 367 186 351 174 339 C 161 327 146 321 128 321 C 110 321 95 327 82 339 C 68 351 62 367 62 385 C 62 403 68 418 82 431 C 95 443 110 450 128 450 C 146 450 161 443 174 431 C 186 418 193 403 193 385 Z M 167 385 C 167 397 163 407 156 415 C 148 423 139 427 128 427 C 116 427 107 423 100 415 C 92 407 89 397 89 385 C 89 372 92 362 100 355 C 107 347 116 344 128 344 C 139 344 148 347 156 355 C 163 362 167 372 167 385 Z" unicode="" />
<glyph horiz-adv-x="256" d="M 197 -100 C 187 -104 178 -108 169 -111 C 159 -114 149 -116 138 -116 C 120 -116 106 -111 96 -103 C 86 -95 81 -84 81 -70 C 81 -41 103 -17 147 2 L 167 2 C 151 -11 140 -23 134 -34 C 128 -45 126 -54 126 -62 C 126 -70 128 -77 133 -83 C 137 -89 145 -92 155 -92 C 160 -92 166 -91 172 -90 C 178 -89 183 -87 189 -83 L 197 -100 Z" unicode="" />
<glyph horiz-adv-x="256" d="M 229 399 C 219 375 210 359 201 349 C 191 339 179 334 165 334 C 149 334 135 337 121 343 C 107 349 93 352 79 352 C 71 352 65 350 60 346 C 54 342 48 335 42 324 L 27 332 C 36 355 45 372 54 382 C 63 392 75 397 91 397 C 106 397 121 394 135 388 C 149 382 163 380 177 380 C 184 380 190 381 196 385 C 201 389 207 396 214 407 L 229 399 Z" unicode="" />
<glyph horiz-adv-x="256" d="M 234 399 C 234 387 225 375 209 363 L 141 314 L 130 323 L 173 393 C 178 400 183 407 189 414 C 195 420 202 424 210 424 C 226 424 234 415 234 399 Z M 128 399 C 128 387 119 375 103 363 L 35 314 L 23 323 L 67 393 C 73 400 78 407 83 414 C 88 420 95 424 104 424 C 120 424 128 415 128 399 Z" unicode="" />
<glyph horiz-adv-x="352" d="M 356 292 L 335 232 L 268 232 L 261 82 C 259 64 262 51 270 43 C 278 35 288 31 300 31 C 310 31 322 35 334 43 L 343 28 C 334 19 325 11 317 5 C 309 -1 298 -5 285 -5 C 262 -5 243 3 229 19 C 215 35 209 60 211 92 L 221 232 L 139 232 L 128 125 C 124 82 114 50 100 28 C 86 6 69 -5 50 -5 C 40 -5 33 -3 28 0 C 22 4 20 10 20 19 C 20 31 25 40 36 47 C 46 54 62 58 83 58 C 89 82 94 108 96 137 C 98 166 100 198 102 232 L 99 232 C 75 230 59 225 51 216 C 42 206 37 193 35 175 L 17 175 C 13 193 12 209 16 222 C 19 234 25 245 34 253 C 42 261 53 266 66 270 C 79 273 93 275 108 275 L 272 275 C 292 275 306 275 316 277 C 325 278 331 283 335 292 L 356 292 Z" unicode="" />
<glyph horiz-adv-x="256" d="M 22 137 L 22 174 L 257 174 L 257 137 L 22 137 Z" unicode="" />
<glyph horiz-adv-x="512" d="M 22 137 L 22 174 L 537 174 L 537 137 L 22 137 Z" unicode="" />
<glyph horiz-adv-x="144" d="M 126 393 C 111 383 99 371 91 359 C 83 346 77 334 75 323 C 95 313 108 305 114 298 C 120 290 123 281 123 270 C 123 260 119 252 112 246 C 105 240 97 237 87 237 C 71 237 58 242 46 254 C 34 266 29 282 29 302 C 29 322 36 341 50 360 C 64 378 84 395 110 411 L 126 393 Z" unicode="" />
<glyph horiz-adv-x="144" d="M 127 345 C 127 323 119 303 105 284 C 90 264 70 248 45 234 L 32 250 C 46 260 58 272 66 285 C 74 298 79 310 81 321 C 71 326 63 331 57 335 C 51 339 46 342 42 346 C 38 350 36 354 35 358 C 33 362 33 368 33 374 C 33 383 36 391 42 398 C 48 404 57 408 69 408 C 86 408 100 402 111 390 C 121 378 127 363 127 345 Z" unicode="" />
<glyph horiz-adv-x="144" d="M 116 21 C 116 0 108 -20 94 -39 C 79 -58 59 -75 34 -91 L 19 -72 C 33 -62 45 -51 53 -38 C 61 -25 66 -13 69 -2 C 49 6 36 15 30 23 C 24 31 21 40 21 50 C 21 59 24 67 31 73 C 38 79 47 83 57 83 C 72 83 86 77 98 65 C 110 53 116 39 116 21 Z" unicode="" />
<glyph horiz-adv-x="272" d="M 261 393 C 246 383 235 371 227 359 C 219 346 214 334 212 323 C 231 313 244 304 250 297 C 256 290 260 281 260 270 C 260 260 257 252 251 246 C 245 240 236 237 225 237 C 209 237 195 242 184 254 C 172 266 167 282 167 302 C 167 322 174 341 188 360 C 202 378 222 395 249 411 L 261 393 Z M 126 393 C 112 383 101 371 93 359 C 85 346 80 334 77 323 C 96 313 109 304 115 297 C 121 290 125 281 125 270 C 125 260 121 252 115 246 C 109 240 100 237 89 237 C 73 237 59 242 49 254 C 38 266 33 282 33 302 C 33 322 40 341 54 360 C 68 378 87 395 113 411 L 126 393 Z" unicode="" />
<glyph horiz-adv-x="272" d="M 264 345 C 264 323 257 303 243 284 C 229 264 210 248 184 234 L 170 250 C 184 260 196 272 204 285 C 212 298 217 310 220 321 C 210 326 202 331 196 335 C 190 339 185 342 181 346 C 177 350 175 354 174 358 C 172 362 172 368 172 374 C 172 383 175 391 181 398 C 187 404 196 408 208 408 C 224 408 237 402 248 390 C 258 378 264 363 264 345 Z M 131 345 C 131 323 123 303 109 284 C 95 264 75 248 49 234 L 37 250 C 51 260 62 272 70 285 C 78 298 83 310 85 321 C 75 326 67 331 61 335 C 55 339 50 342 46 346 C 42 350 40 354 39 358 C 37 362 37 368 37 374 C 37 383 40 391 46 398 C 52 404 61 408 73 408 C 89 408 102 402 114 390 C 125 378 131 363 131 345 Z" unicode="" />
<glyph horiz-adv-x="272" d="M 252 21 C 252 -23 225 -60 173 -91 L 158 -72 C 172 -62 183 -51 192 -38 C 200 -25 206 -13 208 -2 C 188 6 174 15 168 23 C 162 31 159 40 159 50 C 159 59 162 67 170 73 C 177 79 186 83 196 83 C 212 83 226 77 236 65 C 246 53 252 39 252 21 Z M 117 21 C 117 -23 90 -60 38 -91 L 24 -72 C 38 -62 49 -51 57 -38 C 65 -25 70 -13 73 -2 C 53 6 40 15 34 23 C 28 31 25 40 25 50 C 25 59 28 67 35 73 C 42 79 51 83 61 83 C 77 83 90 77 101 65 C 111 53 117 39 117 21 Z" unicode="" />
<glyph horiz-adv-x="288" d="M 245 214 L 192 235 L 155 235 L 163 129 L 151 -72 L 134 -72 L 122 129 L 130 235 L 93 235 L 39 214 L 16 246 L 39 281 L 93 258 L 130 258 L 130 314 L 107 362 L 143 394 L 177 362 L 155 314 L 155 258 L 192 258 L 245 281 L 269 246 L 245 214 Z" unicode="" />
<glyph horiz-adv-x="304" d="M 254 34 L 200 57 L 164 57 L 164 1 L 186 -46 L 151 -80 L 115 -46 L 138 1 L 138 57 L 102 57 L 47 34 L 24 68 L 47 101 L 102 80 L 138 80 L 130 158 L 138 235 L 102 235 L 47 214 L 24 246 L 47 280 L 102 258 L 138 258 L 138 314 L 115 361 L 151 394 L 186 361 L 164 314 L 164 258 L 200 258 L 254 280 L 278 246 L 254 214 L 200 235 L 164 235 L 172 158 L 164 80 L 200 80 L 254 101 L 278 68 L 254 34 Z" unicode="" />
<glyph horiz-adv-x="224" d="M 194 189 C 194 167 186 147 170 131 C 154 115 134 107 112 107 C 89 107 70 115 54 131 C 38 147 30 167 30 189 C 30 212 38 232 54 248 C 70 264 89 272 112 272 C 134 272 154 264 170 248 C 186 232 194 212 194 189 Z" unicode="" />
<glyph horiz-adv-x="496" d="M 124 37 C 124 23 119 12 110 4 C 101 -4 91 -8 79 -8 C 66 -8 55 -4 46 4 C 36 12 32 23 32 37 C 32 50 36 61 46 69 C 55 77 66 82 79 82 C 91 82 101 77 110 69 C 119 61 124 50 124 37 Z M 294 37 C 294 23 289 12 280 4 C 271 -4 261 -8 249 -8 C 236 -8 225 -4 216 4 C 206 12 202 23 202 37 C 202 50 206 61 216 69 C 225 77 236 82 249 82 C 261 82 271 77 280 69 C 289 61 294 50 294 37 Z M 464 37 C 464 23 459 12 450 4 C 441 -4 431 -8 419 -8 C 406 -8 395 -4 386 4 C 376 12 372 23 372 37 C 372 50 376 61 386 69 C 395 77 406 82 419 82 C 431 82 441 77 450 69 C 459 61 464 50 464 37 Z" unicode="" />
<glyph horiz-adv-x="688" d="M 666 111 C 666 77 657 49 640 27 C 623 5 601 -6 573 -6 C 548 -6 527 3 510 23 C 493 42 485 70 485 106 C 485 140 493 169 511 191 C 528 213 551 224 579 224 C 603 224 624 214 641 195 C 657 175 666 147 666 111 Z M 454 111 C 454 77 445 49 428 27 C 410 5 388 -6 360 -6 C 335 -6 314 3 297 23 C 280 42 272 70 272 106 C 272 140 280 169 298 191 C 316 213 338 224 365 224 C 390 224 411 214 428 195 C 445 175 454 147 454 111 Z M 128 -9 L 105 4 L 348 392 L 371 378 L 128 -9 Z M 203 277 C 203 242 194 214 177 192 C 160 170 138 159 110 159 C 85 159 64 168 47 187 C 30 206 22 234 22 272 C 22 306 30 334 48 356 C 65 378 88 389 116 389 C 141 389 162 379 178 360 C 194 340 203 313 203 277 Z M 621 104 C 621 132 617 155 609 173 C 601 191 589 200 573 200 C 557 200 546 192 540 177 C 534 162 531 141 531 113 C 531 85 534 62 542 45 C 549 27 561 19 579 19 C 607 19 621 47 621 104 Z M 408 104 C 408 132 404 155 397 173 C 389 191 377 200 360 200 C 345 200 334 192 327 177 C 320 162 317 141 317 113 C 317 85 321 62 329 45 C 337 27 349 19 365 19 C 381 19 393 26 399 40 C 405 54 408 75 408 104 Z M 159 270 C 159 298 155 320 147 338 C 139 355 127 364 110 364 C 94 364 83 357 77 343 C 71 329 68 307 68 279 C 68 251 71 228 79 210 C 86 192 98 183 116 183 C 130 183 141 190 148 205 C 155 220 159 242 159 270 Z" unicode="" />
<glyph horiz-adv-x="192" d="M 157 -7 L 28 135 L 157 276 L 172 266 L 94 135 L 172 3 L 157 -7 Z" unicode="" />
<glyph horiz-adv-x="192" d="M 53 -7 L 38 3 L 116 135 L 38 266 L 53 276 L 181 135 L 53 -7 Z" unicode="" />
<glyph horiz-adv-x="208" d="M -6 -9 L -29 4 L 214 392 L 237 378 L -6 -9 Z" unicode="" />
<glyph horiz-adv-x="224" d="M 171 208 L 171 141 L 134 141 L 134 208 L 28 208 L 16 228 L 137 396 L 171 396 L 171 239 L 207 239 L 207 208 L 171 208 Z M 134 345 L 57 239 L 134 239 L 134 345 Z" unicode="" />
<glyph horiz-adv-x="336" d="M 18 136 L 18 166 L 63 166 L 63 183 C 63 194 63 205 64 216 L 18 216 L 18 246 L 69 246 C 71 254 73 261 75 269 C 83 294 95 315 110 333 C 124 351 141 364 161 374 C 180 383 201 388 223 388 C 259 388 285 381 303 369 C 321 356 330 341 330 325 C 330 305 320 295 300 295 C 290 295 281 299 274 307 C 266 315 261 331 259 353 C 253 355 247 357 241 358 C 235 359 226 360 216 360 C 198 360 182 354 170 344 C 158 334 148 321 140 306 C 132 290 127 273 124 255 C 123 251 122 248 122 246 L 273 246 L 273 216 L 119 216 L 119 202 C 119 189 119 177 120 166 L 273 166 L 273 136 L 124 136 C 127 115 133 97 141 82 C 149 66 160 54 174 45 C 188 35 206 31 228 31 C 245 31 260 33 274 39 C 288 45 302 56 316 72 L 335 56 C 318 32 299 16 279 6 C 258 -3 236 -8 212 -8 C 192 -8 172 -4 154 2 C 136 9 120 20 107 36 C 93 51 83 71 75 95 C 71 107 67 121 65 136 L 18 136 Z" unicode="" />
<glyph horiz-adv-x="416" d="M 407 191 C 407 163 401 137 391 113 C 381 89 367 68 349 50 C 331 32 310 17 286 7 C 262 -2 236 -8 208 -8 C 179 -8 152 -2 128 7 C 104 17 83 32 65 50 C 47 68 34 89 24 113 C 14 137 9 163 9 191 C 9 219 14 245 24 269 C 34 293 47 315 65 333 C 83 351 104 365 128 375 C 152 385 179 391 208 391 C 236 391 262 385 286 375 C 310 365 331 351 349 333 C 367 315 381 293 391 269 C 401 245 407 219 407 191 Z M 386 191 C 386 216 381 240 372 262 C 362 284 350 303 334 319 C 318 335 299 348 277 358 C 255 367 232 372 208 372 C 182 372 159 367 137 358 C 115 348 96 335 80 319 C 64 303 51 284 42 262 C 33 240 29 216 29 191 C 29 165 33 142 42 120 C 51 98 64 79 80 63 C 96 47 115 34 137 25 C 159 15 182 11 208 11 C 232 11 255 15 277 25 C 299 34 318 47 334 63 C 350 79 362 98 372 120 C 381 142 386 165 386 191 Z M 304 237 C 304 216 296 199 280 187 C 264 175 242 168 216 167 L 214 186 C 229 189 240 194 248 201 C 255 208 259 219 259 235 C 259 251 255 263 247 270 C 239 277 228 281 214 281 C 207 281 201 280 196 279 L 196 141 C 196 127 196 117 198 113 C 199 109 204 106 212 105 L 229 103 L 229 83 L 127 83 L 127 103 L 140 105 C 146 105 150 107 152 113 C 154 118 155 127 155 141 L 155 245 C 155 258 154 267 152 272 C 150 277 146 280 140 280 L 127 282 L 127 302 L 220 302 C 245 303 265 298 281 286 C 296 274 304 258 304 237 Z" unicode="" />
<glyph horiz-adv-x="528" d="M 532 163 C 525 163 516 163 506 163 C 496 163 488 164 483 164 C 476 164 467 163 456 163 C 444 163 436 163 430 163 L 430 184 L 447 185 C 454 186 459 189 461 194 C 463 198 464 207 464 221 L 459 330 L 384 162 L 370 162 L 296 330 L 291 218 C 291 204 292 196 294 192 C 296 188 301 186 308 185 L 324 184 L 324 163 C 318 163 311 163 302 163 C 293 163 285 164 279 164 C 273 164 265 163 257 163 C 248 163 240 163 234 163 L 234 184 L 251 185 C 258 186 262 189 263 193 C 263 197 264 207 266 221 L 270 326 C 270 337 269 345 267 350 C 265 355 260 358 254 360 L 240 363 L 240 383 C 244 383 250 382 257 382 C 263 382 270 382 276 382 L 295 382 C 301 382 308 382 314 384 L 385 221 L 459 384 C 463 382 469 382 477 382 L 496 382 C 501 382 506 382 511 382 C 516 382 521 383 527 383 L 527 363 L 513 361 C 507 359 503 356 500 352 C 497 348 496 339 498 325 L 502 221 C 502 207 503 197 505 193 C 507 189 511 186 517 185 L 532 184 L 532 163 Z M 206 322 L 188 322 L 185 338 C 183 346 180 352 176 355 C 171 357 162 359 150 359 L 123 359 L 123 221 C 123 207 123 198 125 194 C 127 189 131 186 139 185 L 158 184 L 158 163 C 152 163 142 163 130 163 C 118 163 109 164 103 164 C 96 164 86 163 74 163 C 62 163 53 163 47 163 L 47 184 L 65 185 C 73 186 78 189 80 194 C 82 198 83 207 83 221 L 83 359 L 56 359 C 42 359 33 357 29 355 C 24 352 20 346 18 338 L 13 322 L -5 322 L -2 389 L 12 389 C 14 387 16 385 18 384 C 20 383 25 382 31 382 C 37 382 45 382 56 382 L 150 382 C 162 382 171 382 177 382 C 183 382 187 383 189 384 C 191 385 194 387 196 389 L 209 389 L 206 322 Z" unicode="" />
<glyph horiz-adv-x="448" d="M 407 0 L 246 0 L 246 110 C 284 121 309 137 321 157 C 333 177 340 199 340 225 C 340 265 329 297 308 322 C 286 347 255 360 214 360 C 179 360 152 351 134 333 C 115 315 106 290 106 258 C 106 243 107 228 110 214 C 113 200 118 186 126 173 C 133 160 143 148 155 137 C 167 126 183 117 202 110 L 202 0 L 41 0 L 27 96 L 48 96 L 56 80 C 64 62 71 49 77 41 C 83 32 94 28 112 28 L 113 28 C 132 28 144 30 148 35 C 152 40 155 51 155 69 L 155 98 C 120 108 92 126 71 151 C 50 175 40 205 40 241 C 40 263 45 284 55 303 C 65 321 78 337 95 350 C 112 363 132 373 154 380 C 176 387 200 391 224 391 C 250 391 274 387 296 381 C 318 374 338 364 355 351 C 371 338 384 322 394 304 C 403 285 408 264 408 241 C 408 207 397 178 375 154 C 353 130 325 113 293 103 L 293 69 C 293 51 295 40 299 35 C 303 30 315 28 335 28 L 336 28 C 344 28 351 29 357 31 C 362 33 366 36 370 40 C 374 44 377 50 380 57 C 383 63 387 71 392 80 L 400 96 L 421 96 L 407 0 Z" unicode="" />
<glyph horiz-adv-x="336" d="M 158 409 C 180 398 201 384 221 367 C 241 350 258 331 272 309 C 286 287 297 262 304 235 C 310 208 311 179 306 149 C 302 125 294 104 284 85 C 274 65 261 49 246 35 C 231 21 214 11 196 3 C 178 -4 159 -8 139 -8 C 123 -8 107 -5 91 1 C 75 7 61 15 49 27 C 37 38 29 52 23 68 C 17 84 15 103 19 125 C 21 142 27 158 37 174 C 46 190 57 204 71 216 C 85 228 100 237 118 244 C 135 251 153 255 171 255 C 187 255 201 252 213 247 C 224 242 233 235 241 227 C 241 244 238 261 232 277 C 226 293 218 308 208 322 C 198 336 187 348 175 360 C 163 372 150 382 138 390 L 158 409 Z M 242 115 C 247 150 242 177 228 196 C 214 215 194 225 169 225 C 146 225 127 217 111 203 C 95 189 85 166 80 134 C 74 99 78 72 92 52 C 105 32 124 22 150 22 C 173 22 193 29 210 45 C 226 61 237 84 242 115 Z" unicode="" />
<glyph horiz-adv-x="416" d="M 22 0 L 22 17 L 180 359 L 216 393 L 226 393 L 390 17 L 390 0 L 22 0 Z M 196 315 L 69 38 L 323 38 L 196 315 Z" unicode="" />
<glyph horiz-adv-x="480" d="M 398 3 C 398 -23 400 -41 404 -51 C 408 -61 417 -67 431 -69 L 460 -71 L 460 -96 L 274 -96 L 274 -71 L 305 -69 C 319 -67 329 -61 334 -51 C 338 -41 341 -23 341 3 L 341 347 C 335 349 329 350 322 352 C 315 354 307 355 297 355 L 183 355 C 173 355 164 354 157 352 C 150 350 144 349 139 347 L 139 3 C 139 -23 141 -41 146 -51 C 150 -61 160 -67 175 -69 L 206 -71 L 206 -96 L 20 -96 L 20 -71 L 49 -69 C 62 -67 71 -61 75 -51 C 79 -41 82 -23 82 3 L 82 285 C 82 314 79 333 75 342 C 70 350 62 355 50 357 L 20 359 L 20 384 L 460 384 L 460 359 L 430 357 C 418 355 409 350 405 342 C 400 333 398 314 398 285 L 398 3 Z" unicode="" />
<glyph horiz-adv-x="336" d="M 90 356 L 210 174 L 210 144 L 67 -58 L 202 -58 C 228 -58 246 -54 256 -48 C 266 -42 275 -31 282 -16 L 295 25 L 319 25 L 304 -96 L 9 -96 L 9 -79 L 167 135 L 12 366 L 12 384 L 203 384 C 217 384 228 384 237 384 C 245 384 252 385 257 386 C 262 387 266 388 268 390 C 270 391 273 393 275 395 L 297 395 L 289 267 L 265 267 L 260 315 C 258 324 256 331 254 337 C 252 343 248 347 243 350 C 238 352 231 354 223 355 C 214 355 203 356 190 356 L 90 356 Z" unicode="" />
<glyph horiz-adv-x="320" d="M 32 158 L 32 195 L 288 195 L 288 158 L 32 158 Z" unicode="" />
<glyph horiz-adv-x="320" d="M 333 410 C 333 404 331 399 329 393 C 313 359 296 319 280 275 C 264 231 250 187 238 143 L 181 -50 L 152 -50 L 67 109 C 59 122 52 132 48 138 C 43 144 36 147 27 149 L 15 151 L 15 172 L 105 172 C 105 163 106 154 109 144 C 112 134 116 124 121 114 L 172 20 L 209 146 C 215 168 222 191 228 215 C 234 239 240 262 246 286 C 252 309 257 331 262 353 C 267 374 272 393 276 410 C 277 417 280 423 284 427 C 288 431 294 433 302 433 C 312 433 320 430 325 426 C 330 421 333 416 333 410 Z" unicode="" />
<glyph horiz-adv-x="432" d="M 310 239 C 290 239 275 233 263 222 C 251 211 241 198 235 183 C 247 157 259 138 271 125 C 283 111 298 105 316 105 C 333 105 347 111 358 125 C 368 138 374 152 374 168 C 374 187 368 204 356 218 C 344 232 329 239 310 239 Z M 207 138 C 203 128 199 118 193 109 C 187 100 180 92 172 85 C 164 77 155 71 145 67 C 135 63 126 61 116 61 C 92 61 72 71 56 91 C 40 111 32 137 32 171 C 32 207 41 235 59 255 C 77 275 99 286 125 286 C 144 286 161 281 177 271 C 193 261 206 245 218 221 L 224 209 C 227 219 232 228 238 237 C 244 246 251 254 259 262 C 267 269 275 275 285 279 C 295 283 305 286 315 286 C 338 286 358 276 374 256 C 390 236 399 209 399 176 C 399 140 390 111 372 91 C 354 71 332 61 306 61 C 286 61 269 65 253 75 C 237 84 223 101 212 126 L 207 138 Z M 121 108 C 140 108 156 113 168 124 C 180 135 189 148 196 164 C 184 189 171 208 159 222 C 147 235 132 242 115 242 C 97 242 83 235 73 222 C 62 208 57 194 57 179 C 57 159 62 143 74 129 C 85 115 101 108 121 108 Z" unicode="" />
<glyph horiz-adv-x="256" d="M 268 356 C 268 348 264 340 258 333 C 252 326 245 323 239 323 C 233 323 226 324 219 328 C 211 332 200 340 184 354 C 169 348 157 338 148 322 C 138 306 132 283 129 254 L 102 71 C 97 42 90 16 81 -7 C 72 -31 62 -51 50 -69 C 38 -86 25 -99 11 -109 C -2 -119 -16 -124 -30 -124 C -50 -124 -60 -114 -60 -96 C -60 -87 -57 -80 -52 -74 C -47 -68 -42 -66 -36 -66 C -31 -66 -25 -66 -18 -67 C -11 -67 -1 -71 12 -77 C 18 -71 24 -61 29 -47 C 33 -33 37 -16 41 2 L 76 232 C 79 255 85 276 95 296 C 104 315 115 331 128 345 C 141 359 156 369 172 377 C 188 384 204 388 221 388 C 252 388 268 377 268 356 Z" unicode="" />
<glyph horiz-adv-x="320" d="M 272 147 C 262 123 253 107 243 97 C 233 87 222 82 209 82 C 201 82 193 82 183 84 C 173 86 162 88 152 90 C 142 92 132 94 122 96 C 112 98 104 99 98 99 C 92 99 85 97 79 94 C 73 90 67 83 61 72 L 47 79 C 55 102 64 119 74 129 C 84 139 96 145 110 145 C 117 145 126 144 136 142 C 146 140 156 137 166 135 C 176 133 186 131 196 129 C 205 127 213 126 221 126 C 228 126 234 128 239 132 C 244 136 250 143 258 155 L 272 147 Z M 272 286 C 262 262 253 246 243 236 C 233 226 222 221 209 221 C 201 221 193 221 183 223 C 173 225 162 227 152 229 C 142 231 132 233 122 235 C 112 237 104 238 98 238 C 92 238 85 236 79 233 C 73 229 67 222 61 211 L 47 218 C 55 241 64 258 74 268 C 84 278 96 284 110 284 C 117 284 126 283 136 281 C 146 279 156 276 166 274 C 176 272 186 270 196 268 C 205 266 213 265 221 265 C 228 265 234 267 239 271 C 244 275 250 282 258 294 L 272 286 Z" unicode="" />
<glyph horiz-adv-x="320" d="M 32 88 L 32 125 L 114 125 L 175 228 L 32 228 L 32 265 L 197 265 L 235 329 L 263 309 L 237 265 L 288 265 L 288 228 L 215 228 L 154 125 L 288 125 L 288 88 L 132 88 L 97 28 L 68 47 L 92 88 L 32 88 Z" unicode="" />
<glyph horiz-adv-x="288" d="M 31 34 L 31 69 L 257 69 L 257 34 L 31 34 Z M 31 212 L 31 236 L 257 343 L 257 304 L 84 224 L 257 144 L 257 104 L 31 212 Z" unicode="" />
<glyph horiz-adv-x="288" d="M 31 34 L 31 69 L 257 69 L 257 34 L 31 34 Z M 31 104 L 31 144 L 204 224 L 31 304 L 31 343 L 257 236 L 257 212 L 31 104 Z" unicode="" />
<glyph horiz-adv-x="336" d="M 37 191 L 158 393 L 177 393 L 299 191 L 176 -11 L 157 -11 L 37 191 Z M 261 190 L 167 346 L 74 191 L 168 36 L 261 190 Z" unicode="" />
<glyph horiz-adv-x="400" d="M 428 185 C 392 181 365 175 347 169 C 329 163 314 156 302 148 C 305 136 310 124 318 112 C 325 99 333 86 343 74 L 335 67 C 323 76 310 84 298 92 C 285 99 273 104 262 107 C 258 100 254 93 251 86 C 248 78 245 70 242 60 C 239 50 236 38 234 25 C 231 11 228 -4 226 -22 L 212 -22 C 208 13 203 40 197 60 C 191 80 184 95 177 107 C 165 103 152 98 140 91 C 128 83 116 75 105 66 L 97 73 C 105 85 113 97 121 110 C 128 122 133 135 137 148 C 125 156 109 163 90 169 C 71 175 45 181 11 185 L 11 198 C 45 202 71 207 90 213 C 108 219 124 227 136 235 C 132 247 126 259 119 271 C 112 283 104 295 95 306 L 104 315 C 128 295 151 281 175 275 C 191 293 204 337 212 405 L 226 405 C 231 369 236 342 242 322 C 247 302 254 287 264 276 C 274 279 286 284 298 291 C 310 298 323 306 335 316 L 342 307 C 333 296 325 284 318 272 C 310 260 305 247 302 235 C 313 227 328 220 347 214 C 365 207 392 202 428 198 L 428 185 Z" unicode="" />
<glyph horiz-adv-x="408" d="M 457 374 C 457 364 454 357 449 351 C 443 345 437 343 430 343 C 415 343 398 353 378 373 C 360 371 347 363 338 349 C 328 335 324 314 324 286 L 324 275 L 390 275 L 390 243 L 324 243 L 324 89 C 324 49 335 29 359 28 L 387 25 L 387 0 L 220 0 L 220 25 L 234 26 C 240 26 246 28 251 30 C 255 32 259 35 262 40 C 265 44 267 50 269 58 C 270 66 271 76 271 89 L 271 243 L 124 243 L 124 89 C 124 48 135 27 157 27 L 175 25 L 175 0 L 20 0 L 20 25 L 34 26 C 40 26 46 28 51 30 C 55 32 59 35 62 40 C 65 44 67 50 69 58 C 70 66 71 76 71 89 L 71 243 L 23 243 L 23 267 L 71 275 L 71 280 C 71 301 75 320 83 336 C 91 352 102 365 115 375 C 128 385 143 393 159 399 C 175 404 192 407 209 407 C 241 407 257 396 257 374 C 257 364 254 357 249 351 C 243 345 237 343 230 343 C 215 343 198 353 178 373 C 160 371 147 363 138 349 C 128 335 124 314 124 286 L 124 275 L 271 275 L 271 280 C 271 301 275 320 283 336 C 291 352 302 365 315 375 C 328 385 343 393 359 399 C 375 404 392 407 409 407 C 441 407 457 396 457 374 Z" unicode="" />
<glyph horiz-adv-x="386" d="M 294 371 C 294 361 291 352 285 346 C 279 340 272 337 265 337 C 254 337 244 339 234 344 C 224 349 215 359 208 375 C 152 372 124 342 124 286 L 124 275 L 271 275 L 314 283 L 322 276 L 322 84 C 322 71 322 61 323 53 C 324 45 326 40 328 36 C 330 32 332 29 336 27 C 340 25 345 25 351 25 L 378 24 L 378 0 L 220 0 L 220 24 L 241 25 C 250 26 257 31 262 40 C 266 49 269 66 269 92 L 269 199 C 269 211 267 221 265 229 C 262 237 256 241 247 243 L 124 243 L 124 89 C 124 48 135 27 157 27 L 175 25 L 175 0 L 20 0 L 20 25 L 34 26 C 40 26 46 28 51 30 C 55 32 59 35 62 40 C 65 44 67 50 69 58 C 70 66 71 76 71 89 L 71 243 L 23 243 L 23 267 L 71 275 L 71 280 C 71 301 75 320 84 336 C 93 352 105 365 120 375 C 134 385 151 393 171 399 C 190 404 210 407 231 407 C 253 407 269 403 279 397 C 289 391 294 382 294 371 Z" unicode="" />
<glyph horiz-adv-x="390" d="M 224 0 L 224 24 L 240 25 C 245 25 250 26 254 28 C 258 30 261 33 264 37 C 267 41 269 46 271 54 C 272 61 273 71 273 84 L 273 329 C 273 342 267 353 256 363 C 245 372 230 377 211 377 C 183 377 161 370 146 358 C 131 345 124 321 124 286 L 124 275 L 190 275 L 190 243 L 124 243 L 124 89 C 124 49 135 29 159 28 L 177 25 L 177 0 L 20 0 L 20 25 L 34 26 C 40 26 46 28 51 30 C 55 32 59 35 62 40 C 65 44 67 50 69 58 C 70 66 71 76 71 89 L 71 243 L 23 243 L 23 267 L 71 275 L 71 280 C 71 309 77 333 90 352 C 103 370 120 384 141 393 C 162 402 186 407 212 407 C 238 407 263 403 289 395 L 317 409 L 326 402 L 326 84 C 326 71 326 61 328 54 C 329 46 331 41 334 37 C 337 33 341 30 346 28 C 350 26 356 25 363 25 L 382 24 L 382 0 L 224 0 Z" unicode="" />
<glyph horiz-adv-x="586" d="M 420 0 L 420 24 L 441 25 C 450 26 457 31 462 40 C 466 49 469 66 469 92 L 469 199 C 469 212 467 223 465 231 C 462 239 455 243 444 243 L 324 243 L 324 89 C 324 69 326 54 332 43 C 337 32 345 26 357 26 L 375 25 L 375 0 L 220 0 L 220 25 L 234 26 C 240 26 246 28 251 30 C 255 32 259 35 262 40 C 265 44 267 50 269 58 C 270 66 271 76 271 89 L 271 243 L 124 243 L 124 89 C 124 69 126 54 132 43 C 137 32 145 26 157 26 L 175 25 L 175 0 L 20 0 L 20 25 L 34 26 C 40 26 46 28 51 30 C 55 32 59 35 62 40 C 65 44 67 50 69 58 C 70 66 71 76 71 89 L 71 243 L 23 243 L 23 267 L 71 275 L 71 280 C 71 301 75 320 83 336 C 91 352 102 365 115 375 C 128 385 143 393 159 399 C 175 404 192 407 209 407 C 241 407 257 396 257 374 C 257 364 254 357 249 351 C 243 345 237 343 230 343 C 215 343 198 353 178 373 C 160 371 147 363 138 349 C 128 335 124 314 124 286 L 124 275 L 271 275 L 271 280 C 271 301 275 320 284 336 C 293 352 305 365 320 375 C 334 385 351 393 371 399 C 390 404 410 407 431 407 C 453 407 469 403 479 397 C 489 391 494 382 494 371 C 494 361 491 352 485 346 C 479 340 472 337 465 337 C 454 337 444 339 434 344 C 424 349 415 359 408 375 C 352 372 324 342 324 286 L 324 275 L 471 275 L 514 283 L 522 276 L 522 84 C 522 71 522 61 523 53 C 524 45 526 40 528 36 C 530 32 532 29 536 27 C 540 25 545 25 551 25 L 578 24 L 578 0 L 420 0 Z" unicode="" />
<glyph horiz-adv-x="590" d="M 424 0 L 424 24 L 440 25 C 445 25 450 26 454 28 C 458 30 461 33 464 37 C 467 41 469 46 471 54 C 472 61 473 71 473 84 L 473 329 C 473 342 467 353 456 363 C 445 372 430 377 411 377 C 383 377 361 370 346 358 C 331 345 324 321 324 286 L 324 275 L 390 275 L 390 243 L 324 243 L 324 89 C 324 49 335 29 359 28 L 377 25 L 377 0 L 220 0 L 220 25 L 234 26 C 240 26 246 28 251 30 C 255 32 259 35 262 40 C 265 44 267 50 269 58 C 270 66 271 76 271 89 L 271 243 L 124 243 L 124 89 C 124 48 135 27 157 27 L 175 25 L 175 0 L 20 0 L 20 25 L 34 26 C 40 26 46 28 51 30 C 55 32 59 35 62 40 C 65 44 67 50 69 58 C 70 66 71 76 71 89 L 71 243 L 23 243 L 23 267 L 71 275 L 71 280 C 71 301 75 320 83 336 C 91 352 102 365 115 375 C 128 385 143 393 159 399 C 175 404 192 407 209 407 C 241 407 257 396 257 374 C 257 364 254 357 249 351 C 243 345 237 343 230 343 C 215 343 198 353 178 373 C 160 371 147 363 138 349 C 128 335 124 314 124 286 L 124 275 L 271 275 L 271 280 C 271 309 277 333 290 352 C 303 370 320 384 341 393 C 362 402 386 407 412 407 C 438 407 463 403 489 395 L 517 409 L 526 402 L 526 84 C 526 71 526 61 528 54 C 529 46 531 41 534 37 C 537 33 541 30 546 28 C 550 26 556 25 563 25 L 582 24 L 582 0 L 424 0 Z" unicode="" />
</font>
</defs>
</svg>
