<?xml version="1.0" encoding="utf-8" ?><svg version="1.1" xmlns = 'http://www.w3.org/2000/svg'><defs><font id='web' horiz-adv-x="1000">
<font-face font-family="web" descent="-410" cap-height="1509" units-per-em="2048" bbox="-41,-424,2122,2052" x-height="1061" ascent="1638" />
<missing-glyph horiz-adv-x="1024" d="" /><glyph horiz-adv-x="479" d="" unicode=" " />
<glyph horiz-adv-x="423" d="M 119 80 C 119 88 121 100 127 117 C 129 126 135 135 145 145 C 155 155 165 162 176 166 C 188 170 200 172 212 172 C 224 172 237 170 250 166 C 258 163 267 156 278 145 C 289 134 296 125 299 117 C 303 105 305 92 305 80 C 305 54 296 32 278 14 C 260 -3 239 -12 213 -12 C 188 -12 165 -3 145 14 C 127 30 119 52 119 80 Z M 137 1511 L 287 1511 L 256 397 L 168 397 L 137 1511 Z" unicode="!" />
<glyph horiz-adv-x="643" d="M 115 1511 L 260 1511 L 231 1114 L 141 1114 L 115 1511 Z M 385 1511 L 530 1511 L 502 1114 L 412 1114 L 385 1511 Z" unicode="&#x22;" />
<glyph horiz-adv-x="1208" d="M 59 438 L 59 567 L 287 567 L 365 944 L 162 944 L 162 1073 L 389 1073 L 479 1511 L 606 1511 L 516 1073 L 817 1073 L 907 1511 L 1034 1511 L 944 1073 L 1151 1073 L 1151 944 L 920 944 L 842 567 L 1049 567 L 1049 438 L 817 438 L 729 0 L 602 0 L 690 438 L 389 438 L 301 0 L 174 0 L 262 438 L 59 438 Z M 414 567 L 715 567 L 793 944 L 492 944 L 414 567 Z" unicode="#" />
<glyph horiz-adv-x="1083" d="M 39 197 L 129 285 C 138 275 156 258 184 233 C 204 213 228 196 256 182 C 279 168 312 155 354 141 C 388 130 431 123 485 121 L 485 745 C 418 760 364 777 322 797 C 275 817 235 843 201 874 C 165 906 140 943 125 985 C 108 1027 100 1079 100 1141 C 100 1199 109 1250 127 1294 C 143 1334 169 1373 205 1409 C 236 1440 276 1465 326 1485 C 371 1503 424 1514 485 1518 L 485 1663 L 594 1663 L 594 1518 C 634 1514 672 1507 708 1499 C 744 1491 775 1480 803 1466 C 835 1449 862 1434 883 1421 C 889 1415 912 1397 952 1366 L 872 1272 L 819 1315 C 799 1330 780 1343 760 1354 C 737 1366 712 1376 686 1384 C 659 1392 628 1399 594 1403 L 594 848 C 663 831 726 811 782 788 C 830 767 873 739 911 705 C 941 676 965 635 985 582 C 1001 534 1010 477 1010 410 C 1010 348 1001 295 983 250 C 963 200 937 159 905 127 C 872 94 828 67 774 45 C 722 24 662 12 594 8 L 594 -256 L 485 -256 L 485 6 C 429 8 380 14 338 25 C 296 34 256 48 219 66 C 181 84 148 103 121 125 C 83 155 55 179 39 197 Z M 227 1143 C 227 1101 232 1064 243 1034 C 254 1004 271 978 293 958 C 316 937 343 920 373 907 C 400 895 437 883 485 872 L 485 1405 C 393 1399 327 1374 287 1329 C 247 1285 227 1223 227 1143 Z M 594 121 C 785 133 881 228 881 408 C 881 457 876 496 866 526 C 855 561 839 590 819 612 C 797 636 767 657 729 674 C 688 692 643 707 594 721 L 594 121 Z" unicode="$" />
<glyph horiz-adv-x="1560" d="M 76 1051 L 76 1219 C 76 1263 83 1305 98 1346 C 111 1384 131 1416 158 1444 C 184 1472 215 1493 252 1507 C 290 1522 330 1530 372 1530 C 414 1530 455 1522 494 1507 C 530 1493 562 1472 588 1444 C 615 1414 635 1381 649 1346 C 662 1309 669 1267 670 1219 L 670 1051 C 670 1001 663 958 649 922 C 634 883 614 850 588 823 C 560 795 529 775 494 762 C 456 746 415 739 373 739 C 330 739 290 746 252 762 C 216 775 185 795 158 823 C 133 847 113 880 98 921 C 83 962 76 1005 76 1051 Z M 205 1055 C 205 987 218 935 246 899 C 274 862 317 844 373 844 C 429 844 471 862 500 899 C 528 935 543 987 543 1055 L 543 1214 C 543 1283 528 1336 500 1374 C 471 1411 429 1430 373 1430 C 317 1430 274 1411 246 1374 C 218 1338 205 1285 205 1214 L 205 1055 Z M 279 0 L 1155 1511 L 1280 1511 L 403 0 L 279 0 Z M 891 297 L 891 465 C 891 509 898 551 913 592 C 926 630 946 662 973 690 C 999 718 1030 740 1067 754 C 1105 769 1145 776 1187 776 C 1229 776 1270 768 1309 754 C 1345 740 1377 719 1403 690 C 1430 660 1450 627 1464 592 C 1477 555 1484 513 1485 465 L 1485 297 C 1485 249 1478 206 1464 170 C 1449 131 1429 98 1403 72 C 1374 43 1343 22 1309 8 C 1271 -7 1230 -14 1188 -14 C 1145 -14 1105 -6 1067 8 C 1033 21 1001 42 973 72 C 948 96 928 129 913 170 C 898 210 891 253 891 297 Z M 1020 301 C 1020 233 1033 181 1061 145 C 1089 108 1132 90 1188 90 C 1244 90 1286 108 1315 145 C 1343 182 1358 234 1358 301 L 1358 461 C 1358 529 1343 581 1315 618 C 1285 656 1242 675 1188 675 C 1133 675 1091 656 1061 618 C 1033 582 1020 530 1020 461 L 1020 301 Z" unicode="%" />
<glyph horiz-adv-x="1366" d="M 43 397 L 43 449 C 43 535 72 613 131 684 C 187 752 271 809 385 856 C 348 904 328 930 326 934 C 306 962 290 990 276 1016 C 262 1044 252 1073 244 1102 C 236 1132 231 1164 231 1198 C 231 1246 238 1289 254 1327 C 270 1366 293 1402 322 1434 C 348 1462 382 1486 426 1505 C 465 1523 511 1532 565 1532 C 614 1532 656 1525 692 1511 C 727 1497 759 1476 788 1448 C 812 1423 832 1390 847 1349 C 862 1308 870 1264 870 1217 C 870 1173 864 1134 852 1100 C 840 1064 822 1032 799 1004 C 774 973 743 944 707 918 C 663 886 619 858 575 834 L 952 381 C 972 429 989 481 1001 537 C 1011 587 1017 648 1018 719 L 1018 797 L 1143 797 L 1143 713 C 1143 632 1134 556 1116 485 C 1096 409 1069 341 1034 281 L 1188 98 L 1315 98 L 1315 0 L 1098 0 L 956 170 C 908 114 848 69 776 35 C 706 2 627 -14 537 -14 C 469 -14 402 -4 338 14 C 280 32 228 59 182 96 C 138 131 104 174 80 225 C 55 276 43 333 43 397 Z M 176 401 C 176 353 183 312 199 279 C 217 239 240 207 268 182 C 300 153 339 132 383 119 C 431 103 481 96 535 96 C 609 96 674 110 731 139 C 785 166 835 206 881 260 L 449 780 C 399 759 355 735 317 709 C 280 683 252 656 233 629 C 211 597 196 567 188 539 C 180 508 176 475 176 440 L 176 401 Z M 369 1200 C 369 1172 373 1146 381 1120 C 389 1093 399 1069 412 1047 C 427 1018 441 995 455 977 C 461 969 471 957 484 942 C 497 927 506 917 510 911 C 538 926 570 946 604 971 C 632 991 657 1014 678 1038 C 698 1062 713 1088 723 1116 C 733 1146 739 1178 739 1212 C 739 1282 723 1335 692 1369 C 660 1403 618 1421 565 1421 C 537 1421 511 1415 485 1405 C 460 1395 440 1380 424 1362 C 407 1342 393 1319 383 1292 C 373 1267 369 1236 369 1200 Z" unicode="&#x26;" />
<glyph horiz-adv-x="374" d="M 115 1511 L 260 1511 L 231 1114 L 141 1114 L 115 1511 Z" unicode="'" />
<glyph horiz-adv-x="559" d="M 117 207 L 117 1036 C 117 1106 122 1173 133 1235 C 143 1292 161 1341 188 1382 C 214 1423 249 1458 293 1487 C 337 1515 391 1540 455 1561 L 496 1464 C 458 1447 421 1429 387 1409 C 357 1391 331 1365 309 1333 C 287 1300 271 1261 262 1217 C 252 1173 248 1112 248 1034 L 248 209 C 248 131 252 70 262 27 C 271 -18 287 -57 309 -90 C 331 -122 357 -148 387 -166 C 421 -186 457 -205 496 -221 L 455 -317 C 395 -297 341 -272 293 -242 C 249 -213 214 -178 188 -137 C 162 -96 143 -48 133 8 C 122 66 117 133 117 207 Z" unicode="(" />
<glyph horiz-adv-x="559" d="M 66 -221 C 104 -204 140 -186 174 -166 C 204 -148 230 -122 252 -90 C 274 -57 289 -18 299 27 C 308 71 313 131 313 209 L 313 1034 C 313 1112 308 1173 299 1217 C 289 1262 274 1301 252 1333 C 230 1365 204 1391 174 1409 C 140 1429 104 1448 66 1464 L 106 1561 C 172 1540 227 1515 270 1487 C 310 1459 345 1424 373 1382 C 399 1341 418 1292 428 1235 C 438 1173 444 1107 444 1036 L 444 207 C 444 133 438 66 428 8 C 417 -48 399 -96 373 -137 C 345 -179 311 -214 270 -242 C 223 -273 168 -298 106 -317 L 66 -221 Z" unicode=")" />
<glyph horiz-adv-x="749" d="M 88 1128 L 324 1212 L 88 1296 L 160 1421 L 346 1262 L 305 1511 L 446 1511 L 406 1262 L 590 1421 L 662 1296 L 428 1212 L 662 1128 L 590 1004 L 406 1163 L 446 913 L 305 913 L 346 1163 L 160 1004 L 88 1128 Z" unicode="*" />
<glyph horiz-adv-x="1009" d="M 86 657 L 86 772 L 440 772 L 440 1153 L 567 1153 L 567 772 L 924 772 L 924 657 L 567 657 L 567 274 L 440 274 L 440 657 L 86 657 Z" unicode="+" />
<glyph horiz-adv-x="401" d="M 104 -121 L 106 -121 C 133 -121 156 -110 176 -90 C 195 -68 204 -40 203 -6 C 173 -7 149 0 133 16 C 117 32 109 54 109 82 C 109 104 117 125 135 145 C 151 163 173 172 199 172 C 227 172 251 161 270 141 C 288 121 297 92 297 53 L 297 45 C 297 -35 280 -95 246 -133 C 210 -172 165 -192 111 -193 L 104 -193 L 104 -121 Z" unicode="," />
<glyph horiz-adv-x="538" d="M 82 541 L 82 647 L 457 647 L 457 541 L 82 541 Z" unicode="-" />
<glyph horiz-adv-x="401" d="M 109 80 C 109 88 111 100 117 117 C 121 126 127 135 135 145 C 145 154 156 161 166 166 C 178 170 190 172 202 172 C 214 172 227 170 240 166 C 248 163 257 156 268 145 C 279 134 286 125 289 117 C 293 105 295 92 295 80 C 295 54 286 32 268 14 C 250 -3 229 -12 203 -12 C 178 -12 155 -3 135 14 C 117 30 109 52 109 80 Z" unicode="." />
<glyph horiz-adv-x="765" d="M -14 -338 L 598 1581 L 719 1581 L 106 -338 L -14 -338 Z" unicode="/" />
<glyph horiz-adv-x="1224" d="M 111 565 L 111 952 C 111 1043 123 1126 149 1202 C 175 1277 209 1338 252 1384 C 297 1433 350 1470 412 1495 C 473 1519 540 1532 612 1532 C 684 1532 751 1519 813 1495 C 874 1470 927 1433 972 1384 C 1017 1335 1052 1274 1077 1202 C 1101 1130 1114 1046 1114 952 L 1114 565 C 1114 469 1101 385 1077 311 C 1053 240 1019 179 973 129 C 927 79 874 42 813 18 C 749 -8 682 -20 612 -20 C 542 -20 476 -7 412 18 C 350 42 297 79 252 129 C 208 177 174 237 150 311 C 124 389 111 473 111 565 Z M 250 573 C 250 483 258 408 276 350 C 295 286 320 236 352 201 C 387 161 425 134 467 119 C 512 102 560 94 612 94 C 664 94 712 102 758 119 C 798 134 836 161 872 201 C 903 236 928 286 948 350 C 966 408 975 483 975 573 L 975 944 C 975 1035 966 1109 948 1167 C 928 1228 903 1277 872 1313 C 839 1351 801 1377 758 1393 C 712 1409 664 1417 612 1417 C 560 1417 512 1409 467 1393 C 423 1377 384 1351 352 1313 C 320 1277 295 1229 276 1167 C 258 1109 249 1035 250 944 L 250 573 Z" unicode="0" />
<glyph horiz-adv-x="747" d="M 76 1169 L 76 1288 L 354 1511 L 461 1511 L 461 98 L 694 98 L 694 0 L 84 0 L 84 98 L 324 98 L 324 1354 L 84 1169 L 76 1169 Z" unicode="1" />
<glyph horiz-adv-x="1036" d="M 57 0 L 57 90 L 440 485 C 512 560 564 615 594 649 C 630 691 666 739 700 793 C 727 835 748 881 764 932 C 777 977 784 1027 784 1083 L 784 1116 C 784 1169 776 1216 762 1257 C 747 1295 726 1326 700 1350 C 671 1374 640 1391 608 1401 C 575 1410 538 1415 496 1415 C 423 1415 358 1400 301 1372 C 243 1343 191 1305 143 1257 L 66 1343 C 85 1363 113 1387 150 1415 C 186 1441 219 1461 248 1475 C 288 1493 328 1506 367 1516 C 406 1525 453 1530 508 1530 C 568 1530 624 1520 678 1501 C 728 1483 772 1456 809 1421 C 841 1389 869 1346 893 1292 C 912 1245 922 1190 922 1126 L 922 1081 C 922 1018 913 960 897 907 C 881 856 856 804 821 750 C 791 703 750 651 700 594 C 658 546 603 488 537 422 L 219 104 L 813 104 L 827 301 L 932 301 L 932 0 L 57 0 Z" unicode="2" />
<glyph horiz-adv-x="1064" d="M 39 129 L 115 225 C 137 207 158 191 180 178 C 204 162 230 149 258 137 C 290 123 322 114 354 109 C 394 102 436 98 479 98 C 597 98 685 126 741 182 C 799 240 829 320 829 420 L 829 451 C 829 503 820 547 804 584 C 788 620 765 651 737 676 C 708 700 672 719 629 731 C 591 741 541 747 479 748 L 367 748 L 367 854 L 463 854 C 521 854 571 860 612 872 C 651 884 685 902 713 928 C 737 950 756 979 768 1016 C 780 1050 786 1089 786 1133 L 786 1153 C 786 1192 780 1228 768 1262 C 754 1300 737 1328 717 1346 C 691 1369 660 1387 625 1399 C 588 1411 544 1417 494 1417 C 462 1417 429 1413 395 1407 C 362 1400 333 1391 307 1380 C 277 1368 249 1354 225 1339 C 199 1323 176 1308 156 1292 L 86 1378 C 108 1397 135 1418 168 1440 C 198 1459 229 1475 262 1489 C 286 1498 323 1508 373 1520 C 411 1528 453 1532 500 1532 C 574 1532 635 1522 684 1503 C 738 1482 783 1455 817 1423 C 851 1391 877 1352 897 1305 C 915 1261 924 1214 924 1165 L 924 1133 C 924 1083 918 1043 907 1012 C 895 976 879 946 860 922 C 843 900 820 878 791 858 C 765 840 737 825 707 813 L 707 807 C 743 796 777 782 807 764 C 835 747 863 723 889 692 C 912 664 931 630 946 588 C 959 548 966 501 967 446 L 967 408 C 967 338 955 278 932 227 C 907 175 873 130 831 94 C 789 57 738 30 680 12 C 618 -7 553 -16 485 -16 C 429 -16 379 -12 336 -4 C 281 6 241 16 217 25 C 183 37 151 52 121 71 C 91 90 63 109 39 129 Z" unicode="3" />
<glyph horiz-adv-x="1155" d="M 61 354 L 61 444 L 766 1509 L 913 1509 L 913 457 L 1096 457 L 1096 354 L 913 354 L 913 98 L 1085 98 L 1085 0 L 588 0 L 588 98 L 780 98 L 780 354 L 61 354 Z M 211 457 L 780 457 L 780 1325 L 776 1325 L 211 461 L 211 457 Z" unicode="4" />
<glyph horiz-adv-x="1071" d="M 63 123 L 131 217 C 158 197 179 183 195 174 C 223 156 248 143 270 135 C 306 121 339 113 367 109 C 407 102 450 98 494 98 C 555 98 606 107 647 125 C 693 145 730 170 758 199 C 786 230 808 267 823 311 C 838 356 846 404 846 455 L 846 508 C 846 559 839 606 827 649 C 816 688 796 724 768 758 C 740 789 708 812 670 827 C 629 843 582 852 528 852 C 490 852 455 848 424 840 C 391 832 362 821 338 807 C 308 790 285 774 270 760 C 250 740 235 720 223 700 L 117 700 L 117 1511 L 928 1511 L 928 1239 L 823 1239 L 813 1405 L 231 1405 L 231 827 C 246 846 264 864 285 881 C 308 900 332 915 356 926 C 382 938 411 948 442 956 C 468 962 501 966 543 967 C 615 967 678 956 731 934 C 787 910 832 880 868 844 C 907 802 936 754 954 702 C 973 644 983 584 983 522 L 983 446 C 983 382 971 320 948 262 C 925 204 892 155 850 115 C 804 73 754 40 698 18 C 636 -5 570 -16 500 -16 C 445 -16 395 -12 350 -4 C 300 5 260 16 229 29 C 179 49 148 64 135 72 C 113 85 89 102 63 123 Z" unicode="5" />
<glyph horiz-adv-x="1167" d="M 111 518 L 111 958 C 111 1058 124 1145 152 1219 C 178 1289 214 1349 260 1397 C 304 1442 357 1476 420 1499 C 480 1521 544 1532 612 1532 C 661 1532 702 1529 735 1524 C 775 1517 810 1508 838 1497 C 878 1480 908 1466 928 1454 C 948 1440 976 1420 1012 1393 L 930 1296 C 910 1314 890 1329 870 1343 C 844 1361 821 1374 801 1382 C 767 1395 739 1404 717 1409 C 691 1414 659 1417 621 1417 C 561 1417 508 1408 463 1390 C 417 1372 378 1345 346 1308 C 313 1271 288 1225 272 1169 C 254 1107 245 1041 246 969 L 246 741 C 282 799 331 846 391 881 C 453 916 524 934 604 934 C 672 934 732 924 784 905 C 844 883 893 853 932 817 C 971 779 1003 732 1028 676 C 1052 618 1065 553 1065 481 L 1065 440 C 1065 367 1052 302 1028 246 C 1004 191 970 143 925 102 C 880 61 830 31 776 12 C 714 -10 653 -20 592 -20 C 510 -20 441 -6 385 20 C 322 50 271 88 233 135 C 192 185 161 242 141 305 C 121 370 111 441 111 518 Z M 248 455 C 248 393 256 341 274 297 C 293 250 318 212 348 182 C 378 152 414 129 457 113 C 496 97 541 90 592 90 C 638 90 683 97 725 113 C 760 125 795 148 829 182 C 861 214 885 252 901 295 C 917 340 926 391 926 449 L 926 475 C 926 532 917 582 901 626 C 885 670 861 706 829 735 C 796 765 761 787 723 801 C 681 816 636 823 590 823 C 542 823 497 815 455 801 C 414 787 378 765 346 735 C 318 709 294 673 274 627 C 256 586 247 536 248 477 L 248 455 Z" unicode="6" />
<glyph horiz-adv-x="1064" d="M 66 1208 L 66 1511 L 1010 1511 L 1010 1430 L 385 0 L 236 0 L 860 1407 L 186 1407 L 168 1208 L 66 1208 Z" unicode="7" />
<glyph horiz-adv-x="1193" d="M 104 397 L 104 428 C 104 476 111 519 125 559 C 141 605 160 642 180 670 C 203 701 233 730 270 756 C 307 782 346 801 387 815 C 319 842 265 882 225 936 C 185 990 166 1056 166 1133 L 166 1157 C 166 1214 177 1265 199 1309 C 222 1357 253 1396 291 1428 C 329 1459 374 1484 428 1503 C 482 1522 539 1532 598 1532 C 656 1532 712 1522 766 1503 C 816 1485 861 1459 899 1427 C 934 1397 964 1357 989 1309 C 1011 1265 1022 1214 1022 1157 L 1022 1133 C 1022 1053 1003 988 965 936 C 925 882 873 842 807 815 C 852 799 891 780 924 758 C 960 732 990 703 1014 672 C 1037 640 1056 603 1071 561 C 1084 521 1091 477 1092 428 L 1092 397 C 1092 330 1080 273 1057 225 C 1033 175 999 132 954 94 C 913 58 861 30 799 10 C 737 -10 670 -20 598 -20 C 525 -20 458 -10 397 10 C 334 30 282 58 242 94 C 196 132 162 175 139 225 C 115 273 104 330 104 397 Z M 242 408 C 242 357 250 312 266 274 C 282 234 306 201 338 174 C 368 148 405 127 450 112 C 495 97 544 90 598 90 C 651 90 700 97 745 112 C 790 127 828 148 858 174 C 889 201 913 234 930 274 C 946 312 954 356 954 408 L 954 430 C 954 479 946 524 930 565 C 913 604 889 639 858 670 C 828 697 790 719 745 737 C 701 753 652 762 598 762 C 543 762 494 753 451 737 C 405 719 368 696 338 670 C 306 640 282 605 266 565 C 249 524 241 479 242 430 L 242 408 Z M 299 1137 C 299 1104 305 1069 319 1032 C 332 996 350 967 374 944 C 398 920 429 901 469 887 C 504 873 547 866 598 866 C 647 866 689 872 725 886 C 760 900 790 919 815 944 C 839 968 858 997 870 1030 C 882 1062 889 1098 889 1137 L 889 1151 C 889 1187 882 1222 870 1255 C 858 1288 839 1317 815 1341 C 789 1367 759 1387 725 1401 C 689 1414 647 1421 598 1421 C 548 1421 506 1414 471 1401 C 437 1387 405 1367 377 1341 C 351 1317 331 1289 319 1255 C 305 1218 299 1183 299 1151 L 299 1137 Z" unicode="8" />
<glyph horiz-adv-x="1169" d="M 104 1024 L 104 1065 C 104 1137 116 1202 141 1260 C 165 1316 200 1365 244 1407 C 283 1445 333 1475 393 1499 C 449 1521 510 1532 578 1532 C 654 1532 723 1518 785 1491 C 846 1463 896 1426 936 1378 C 978 1327 1008 1270 1028 1206 C 1048 1139 1059 1066 1059 987 L 1059 553 C 1059 449 1046 362 1020 293 C 992 220 956 161 911 117 C 864 70 810 36 750 16 C 684 -6 619 -16 555 -16 C 466 -16 385 -6 313 14 C 241 34 177 65 123 106 L 190 207 C 213 190 236 176 260 164 C 280 153 309 141 346 129 C 368 122 400 114 444 106 C 475 100 509 98 547 98 C 607 98 659 107 705 125 C 754 144 793 171 823 205 C 855 241 880 288 897 344 C 915 404 924 470 924 543 L 924 754 C 888 698 839 652 776 616 C 716 582 645 565 565 565 C 499 565 439 575 385 596 C 325 618 276 647 238 684 C 197 722 164 770 139 829 C 115 883 104 948 104 1024 Z M 244 1030 C 244 975 252 925 270 879 C 286 835 310 798 340 768 C 372 735 408 712 446 698 C 488 682 532 675 580 676 C 628 676 673 683 715 698 C 754 711 790 734 823 768 C 853 796 877 833 895 877 C 913 917 922 968 922 1028 L 922 1051 C 922 1113 913 1166 895 1210 C 875 1256 851 1295 821 1325 C 789 1356 753 1380 712 1396 C 671 1412 626 1421 578 1421 C 530 1421 485 1413 444 1397 C 402 1380 367 1357 340 1327 C 310 1294 286 1256 270 1212 C 252 1162 243 1111 244 1057 L 244 1030 Z" unicode="9" />
<glyph horiz-adv-x="415" d="M 115 80 C 115 88 117 100 123 117 C 125 126 131 135 141 145 C 151 155 161 162 172 166 C 184 170 196 172 208 172 C 220 172 233 170 246 166 C 254 163 263 156 274 145 C 285 134 292 125 295 117 C 299 105 301 92 301 80 C 301 54 292 32 274 14 C 256 -3 235 -12 209 -12 C 184 -12 161 -3 141 14 C 123 30 115 52 115 80 Z M 115 608 C 115 614 117 626 123 643 C 127 655 133 665 141 673 C 149 681 160 688 172 692 C 188 697 201 700 209 700 C 217 700 229 697 246 692 C 256 689 266 683 274 674 C 284 664 291 654 295 643 C 299 631 301 619 301 608 C 301 582 292 560 274 542 C 256 524 235 516 209 516 C 184 516 161 525 141 543 C 123 559 115 580 115 608 Z" unicode=":" />
<glyph horiz-adv-x="415" d="M 111 -121 L 113 -121 C 128 -121 141 -118 152 -113 C 165 -106 175 -98 182 -90 C 192 -76 199 -65 203 -55 C 207 -40 209 -24 209 -6 C 179 -7 155 0 139 16 C 123 32 115 54 115 82 C 115 91 117 103 123 117 C 127 127 133 137 141 145 C 150 154 159 161 169 165 C 179 169 191 172 205 172 C 235 172 258 161 276 141 C 294 121 303 92 303 53 L 303 45 C 303 -35 286 -95 252 -133 C 216 -172 171 -192 117 -193 L 111 -193 L 111 -121 Z M 115 608 C 115 614 117 626 123 643 C 127 655 133 665 141 673 C 149 681 160 688 172 692 C 188 697 201 700 209 700 C 217 700 229 697 246 692 C 256 689 266 683 274 674 C 284 664 291 654 295 643 C 299 631 301 619 301 608 C 301 582 292 560 274 542 C 256 524 235 516 209 516 C 184 516 161 525 141 543 C 123 559 115 580 115 608 Z" unicode=";" />
<glyph horiz-adv-x="980" d="M 86 621 L 86 764 L 895 1110 L 895 981 L 213 696 L 213 690 L 895 399 L 895 272 L 86 621 Z" unicode="&#x3C;" />
<glyph horiz-adv-x="987" d="M 86 442 L 86 553 L 903 553 L 903 442 L 86 442 Z M 86 770 L 86 881 L 903 881 L 903 770 L 86 770 Z" unicode="=" />
<glyph horiz-adv-x="980" d="M 86 272 L 86 401 L 768 686 L 768 692 L 86 983 L 86 1110 L 895 762 L 895 618 L 86 272 Z" unicode="&#x3E;" />
<glyph horiz-adv-x="923" d="M 76 1393 C 96 1413 119 1431 143 1446 C 169 1462 198 1477 229 1489 C 259 1501 293 1511 332 1520 C 368 1528 408 1532 451 1532 C 503 1532 550 1525 592 1513 C 634 1501 672 1481 707 1454 C 739 1426 765 1392 784 1352 C 803 1310 813 1261 813 1206 L 813 1171 C 813 1131 809 1095 801 1063 C 794 1037 781 1007 762 973 C 746 947 725 920 698 893 C 668 863 638 837 610 815 C 577 790 550 767 528 745 C 504 721 487 700 475 680 C 461 655 453 634 449 618 C 445 597 442 574 442 549 L 442 397 L 330 397 L 330 555 C 330 591 333 625 340 657 C 344 676 355 703 375 739 C 387 762 406 787 434 815 C 456 837 487 865 528 899 C 560 926 582 945 594 956 C 610 971 625 991 639 1016 C 652 1038 662 1060 668 1083 C 674 1110 678 1139 678 1169 L 678 1196 C 678 1231 674 1263 666 1292 C 659 1316 645 1340 623 1362 C 605 1380 581 1394 551 1405 C 523 1414 487 1419 442 1419 C 410 1419 379 1415 348 1409 C 319 1403 292 1394 268 1384 C 243 1374 221 1362 201 1348 C 173 1328 153 1314 141 1305 L 76 1393 Z M 293 80 C 293 92 295 104 299 117 C 301 125 308 134 319 145 C 329 154 340 161 350 166 C 362 170 374 172 387 172 C 399 172 412 170 424 166 C 432 163 441 156 453 145 C 462 135 468 126 471 117 C 476 100 479 88 479 80 C 479 54 470 32 452 14 C 434 -3 413 -12 387 -12 C 362 -12 339 -3 319 14 C 301 30 293 52 293 80 Z" unicode="?" />
<glyph horiz-adv-x="1660" d="M 113 549 L 125 684 C 137 820 166 940 213 1044 C 258 1144 315 1226 385 1290 C 453 1352 533 1400 627 1432 C 715 1462 812 1477 918 1477 C 1023 1477 1121 1461 1211 1430 C 1297 1400 1372 1350 1436 1282 C 1497 1216 1542 1132 1571 1030 C 1599 928 1606 806 1592 664 L 1579 543 C 1572 479 1563 425 1551 383 C 1535 332 1516 289 1493 254 C 1468 218 1438 190 1403 170 C 1366 149 1322 139 1270 139 C 1216 139 1170 152 1131 180 C 1091 207 1063 245 1047 293 C 1035 269 1020 248 1002 229 C 982 208 963 191 943 178 C 914 160 889 147 869 141 C 842 133 813 129 783 129 C 735 129 691 137 652 154 C 615 169 582 195 553 233 C 527 267 508 313 498 371 C 488 421 489 487 500 569 L 521 707 C 529 765 543 816 563 858 C 583 900 609 937 639 967 C 666 994 699 1015 738 1030 C 773 1043 812 1050 854 1051 C 889 1051 921 1046 949 1036 C 981 1024 1006 1011 1024 997 C 1050 976 1068 957 1080 940 C 1095 916 1107 893 1117 870 C 1119 880 1125 898 1133 924 C 1138 943 1143 960 1149 975 C 1150 976 1152 982 1156 992 C 1160 1002 1163 1010 1166 1014 C 1171 1023 1176 1028 1180 1028 L 1237 1028 L 1149 451 C 1139 387 1144 336 1162 299 C 1181 262 1216 244 1268 244 C 1294 244 1319 249 1344 260 C 1364 269 1383 286 1399 311 C 1417 337 1430 369 1440 409 C 1450 449 1458 501 1465 565 L 1475 670 C 1487 800 1481 910 1459 1001 C 1437 1089 1400 1162 1348 1219 C 1297 1273 1234 1313 1160 1337 C 1086 1361 1003 1374 912 1374 C 819 1374 737 1362 666 1339 C 590 1314 523 1275 465 1221 C 405 1165 356 1092 318 1003 C 280 914 254 804 242 674 L 230 545 C 222 453 222 371 230 299 C 238 228 253 165 277 111 C 299 57 328 12 363 -25 C 395 -60 436 -89 484 -113 C 533 -137 583 -154 633 -164 C 682 -173 739 -178 803 -178 C 865 -178 928 -170 992 -156 C 1049 -142 1111 -120 1178 -88 L 1223 -180 C 1176 -202 1141 -217 1119 -225 C 1082 -238 1048 -248 1016 -256 C 979 -264 944 -270 912 -274 C 875 -278 837 -280 799 -281 C 687 -281 586 -264 496 -231 C 408 -199 333 -148 269 -78 C 207 -10 162 75 134 180 C 104 282 97 405 113 549 Z M 701 250 C 724 239 755 233 793 233 C 823 233 852 237 879 246 C 902 252 926 266 951 287 C 970 302 989 326 1008 360 C 1023 387 1034 423 1041 469 L 1041 471 L 1072 678 C 1078 727 1078 768 1070 801 C 1062 835 1048 863 1029 885 C 1009 907 987 922 961 932 C 936 941 907 946 875 946 C 842 946 813 942 787 934 C 761 926 739 912 721 893 C 697 867 681 841 672 815 C 658 779 649 739 644 694 L 623 559 C 613 501 611 451 615 407 C 619 363 627 329 641 305 C 655 280 675 262 701 250 Z" unicode="@" />
<glyph horiz-adv-x="1562" d="M 53 0 L 53 98 L 215 98 L 680 1409 L 483 1409 L 483 1511 L 840 1511 L 1350 98 L 1509 98 L 1509 0 L 1016 0 L 1016 98 L 1202 98 L 1085 432 L 459 432 L 340 98 L 514 98 L 514 0 L 53 0 Z M 494 530 L 1051 530 L 778 1315 L 772 1315 L 494 530 Z" unicode="A" />
<glyph horiz-adv-x="1357" d="M 53 0 L 53 98 L 250 98 L 250 1409 L 53 1409 L 53 1511 L 737 1511 C 805 1511 869 1502 930 1485 C 980 1469 1027 1445 1071 1411 C 1107 1381 1137 1342 1159 1296 C 1178 1254 1188 1203 1188 1145 L 1188 1110 C 1188 1037 1170 975 1134 923 C 1098 871 1045 831 975 803 L 975 797 C 1073 768 1144 725 1190 668 C 1236 609 1260 534 1260 444 L 1260 408 C 1260 342 1250 286 1231 238 C 1210 186 1179 143 1139 109 C 1098 75 1045 48 981 29 C 915 9 841 0 758 0 L 53 0 Z M 387 104 L 748 104 C 874 104 968 130 1028 182 C 1089 235 1120 312 1120 414 L 1120 438 C 1120 536 1089 610 1028 662 C 965 714 872 739 748 739 L 387 739 L 387 104 Z M 387 842 L 735 842 C 792 842 841 848 883 860 C 921 870 953 888 979 913 C 1005 936 1022 964 1032 997 C 1042 1033 1048 1073 1049 1116 L 1049 1139 C 1049 1226 1023 1293 971 1339 C 919 1385 837 1409 727 1409 L 387 1409 L 387 842 Z" unicode="B" />
<glyph horiz-adv-x="1314" d="M 111 674 L 111 850 C 111 964 126 1065 158 1153 C 189 1240 230 1311 281 1366 C 333 1422 393 1463 461 1491 C 530 1518 602 1532 676 1532 C 725 1532 770 1528 811 1520 C 855 1512 892 1501 922 1487 C 950 1475 978 1457 1006 1434 C 1028 1416 1049 1392 1069 1362 C 1069 1368 1069 1377 1071 1388 C 1072 1399 1073 1408 1073 1415 C 1075 1433 1077 1450 1079 1464 C 1080 1476 1082 1486 1085 1496 C 1088 1506 1092 1511 1096 1511 L 1190 1511 L 1190 1145 L 1075 1145 C 1046 1239 999 1308 934 1352 C 867 1396 784 1417 684 1417 C 625 1417 569 1406 516 1386 C 464 1365 418 1332 379 1288 C 337 1240 305 1181 285 1112 C 261 1035 250 945 250 842 L 250 682 C 250 576 261 486 285 410 C 308 336 339 275 379 229 C 419 182 468 149 524 129 C 581 108 643 98 711 98 C 775 98 826 103 864 115 C 909 127 948 142 981 162 C 1013 180 1042 201 1067 223 C 1091 246 1113 268 1133 289 L 1223 207 C 1199 179 1175 153 1149 129 C 1124 105 1089 81 1044 57 C 1003 35 955 16 899 2 C 841 -13 779 -20 711 -20 C 617 -20 535 -6 465 20 C 394 47 331 90 277 149 C 222 208 181 280 154 365 C 125 452 111 555 111 674 Z" unicode="C" />
<glyph horiz-adv-x="1429" d="M 53 0 L 53 98 L 250 98 L 250 1409 L 53 1409 L 53 1511 L 690 1511 C 780 1511 863 1498 940 1473 C 1022 1444 1089 1405 1141 1356 C 1199 1300 1243 1233 1272 1155 C 1303 1071 1319 976 1319 868 L 1319 649 C 1319 538 1303 441 1272 358 C 1242 278 1198 211 1141 156 C 1089 106 1022 67 940 39 C 863 13 780 0 690 0 L 53 0 Z M 387 104 L 678 104 C 752 104 817 113 874 133 C 932 152 985 184 1032 229 C 1077 271 1113 328 1141 401 C 1167 469 1180 554 1180 657 L 1180 860 C 1180 962 1167 1048 1141 1116 C 1115 1182 1078 1238 1032 1284 C 984 1329 931 1360 874 1378 C 810 1397 744 1407 678 1407 L 387 1407 L 387 104 Z" unicode="D" />
<glyph horiz-adv-x="1271" d="M 53 0 L 53 98 L 250 98 L 250 1409 L 53 1409 L 53 1511 L 1163 1511 L 1163 1161 L 1059 1161 L 1047 1407 L 387 1407 L 387 834 L 766 834 L 778 999 L 877 999 L 877 547 L 778 547 L 764 729 L 387 729 L 387 104 L 1085 104 L 1102 371 L 1206 371 L 1206 0 L 53 0 Z" unicode="E" />
<glyph horiz-adv-x="1226" d="M 53 0 L 53 98 L 250 98 L 250 1409 L 53 1409 L 53 1511 L 1169 1511 L 1169 1165 L 1065 1165 L 1053 1407 L 387 1407 L 387 809 L 784 809 L 797 989 L 895 989 L 895 514 L 797 514 L 782 705 L 387 705 L 387 98 L 604 98 L 604 0 L 53 0 Z" unicode="F" />
<glyph horiz-adv-x="1413" d="M 111 674 L 111 848 C 111 960 126 1059 158 1147 C 188 1231 230 1303 285 1362 C 335 1416 397 1459 469 1489 C 538 1517 612 1532 692 1532 C 794 1532 878 1517 942 1487 C 1004 1457 1056 1415 1098 1362 L 1104 1415 C 1106 1433 1108 1450 1110 1464 C 1111 1476 1113 1486 1116 1496 C 1118 1506 1121 1511 1124 1511 L 1219 1511 L 1219 1153 L 1112 1153 C 1096 1201 1076 1241 1051 1274 C 1022 1309 991 1336 958 1356 C 922 1376 883 1392 840 1403 C 800 1412 754 1417 700 1417 C 637 1417 578 1406 524 1386 C 469 1366 421 1333 381 1288 C 339 1241 307 1182 285 1110 C 261 1033 250 943 250 840 L 250 682 C 250 574 262 483 287 409 C 311 335 345 275 387 229 C 431 181 483 147 543 127 C 601 106 666 96 737 96 C 799 96 857 104 909 121 C 959 137 1002 163 1038 199 C 1074 234 1100 278 1118 332 C 1136 385 1145 450 1145 526 L 1145 606 L 807 606 L 807 721 L 1282 721 L 1282 514 C 1282 425 1269 349 1243 285 C 1217 222 1179 167 1130 119 C 1079 71 1022 36 958 14 C 888 -9 815 -20 737 -20 C 647 -20 563 -5 487 23 C 409 53 343 96 289 152 C 231 210 188 283 158 369 C 126 456 111 558 111 674 Z" unicode="G" />
<glyph horiz-adv-x="1544" d="M 53 0 L 53 98 L 250 98 L 250 1409 L 53 1409 L 53 1511 L 582 1511 L 582 1409 L 387 1409 L 387 836 L 1159 836 L 1159 1409 L 965 1409 L 965 1511 L 1493 1511 L 1493 1409 L 1296 1409 L 1296 98 L 1493 98 L 1493 0 L 965 0 L 965 98 L 1159 98 L 1159 731 L 387 731 L 387 98 L 582 98 L 582 0 L 53 0 Z" unicode="H" />
<glyph horiz-adv-x="655" d="M 53 0 L 53 98 L 260 98 L 260 1409 L 53 1409 L 53 1511 L 604 1511 L 604 1409 L 397 1409 L 397 98 L 604 98 L 604 0 L 53 0 Z" unicode="I" />
<glyph horiz-adv-x="868" d="M 37 45 L 92 152 C 107 142 132 131 168 119 C 195 109 231 104 276 104 C 316 104 350 109 377 121 C 407 133 430 149 446 170 C 464 192 477 218 485 250 C 493 280 497 314 498 352 L 498 1409 L 297 1409 L 297 1511 L 817 1511 L 817 1409 L 635 1409 L 635 352 C 635 301 627 252 612 205 C 598 161 577 122 547 88 C 519 56 483 31 438 12 C 393 -6 342 -16 285 -16 C 223 -16 173 -10 135 2 C 96 14 63 28 37 45 Z" unicode="J" />
<glyph horiz-adv-x="1452" d="M 53 0 L 53 98 L 250 98 L 250 1409 L 53 1409 L 53 1511 L 582 1511 L 582 1409 L 385 1409 L 385 643 L 1034 1409 L 885 1409 L 885 1511 L 1343 1511 L 1343 1409 L 1188 1409 L 713 862 L 1251 98 L 1401 98 L 1401 0 L 913 0 L 913 98 L 1085 98 L 623 758 L 385 483 L 385 98 L 582 98 L 582 0 L 53 0 Z" unicode="K" />
<glyph horiz-adv-x="1155" d="M 53 0 L 53 98 L 250 98 L 250 1409 L 53 1409 L 53 1511 L 596 1511 L 596 1409 L 387 1409 L 387 104 L 979 104 L 999 375 L 1104 375 L 1104 0 L 53 0 Z" unicode="L" />
<glyph horiz-adv-x="1763" d="M 53 0 L 53 98 L 250 98 L 250 1409 L 53 1409 L 53 1511 L 428 1511 L 877 524 L 885 524 L 1333 1511 L 1712 1511 L 1712 1409 L 1516 1409 L 1516 98 L 1712 98 L 1712 0 L 1190 0 L 1190 98 L 1378 98 L 1378 1317 L 1370 1317 L 926 352 L 825 352 L 379 1317 L 371 1317 L 371 98 L 559 98 L 559 0 L 53 0 Z" unicode="M" />
<glyph horiz-adv-x="1562" d="M 53 0 L 53 98 L 250 98 L 250 1409 L 53 1409 L 53 1511 L 432 1511 L 1198 221 L 1206 221 L 1206 1409 L 1018 1409 L 1018 1511 L 1509 1511 L 1509 1409 L 1327 1409 L 1327 0 L 1186 0 L 379 1352 L 371 1352 L 371 98 L 559 98 L 559 0 L 53 0 Z" unicode="N" />
<glyph horiz-adv-x="1441" d="M 111 674 L 111 844 C 111 958 127 1059 160 1145 C 192 1229 237 1301 293 1360 C 347 1417 412 1460 487 1489 C 561 1517 639 1532 721 1532 C 804 1532 882 1517 956 1489 C 1031 1460 1096 1417 1151 1360 C 1205 1304 1249 1232 1282 1145 C 1314 1059 1331 958 1331 844 L 1331 674 C 1331 556 1314 455 1282 369 C 1248 279 1204 206 1151 152 C 1096 94 1031 51 956 23 C 882 -5 803 -20 721 -20 C 639 -20 561 -5 487 23 C 411 51 347 94 293 152 C 237 209 192 281 160 369 C 127 455 111 556 111 674 Z M 250 682 C 250 578 263 487 289 410 C 312 339 346 279 391 229 C 435 179 485 145 541 127 C 602 105 662 94 721 94 C 779 94 839 105 901 127 C 957 146 1007 180 1051 229 C 1096 278 1130 338 1153 410 C 1179 488 1192 578 1192 682 L 1192 836 C 1192 938 1179 1028 1153 1106 C 1128 1181 1094 1241 1051 1286 C 1005 1334 955 1367 901 1386 C 843 1406 783 1417 721 1417 C 658 1417 598 1406 541 1386 C 486 1366 436 1333 391 1286 C 347 1240 313 1180 289 1106 C 263 1028 250 938 250 836 L 250 682 Z" unicode="O" />
<glyph horiz-adv-x="1280" d="M 53 0 L 53 98 L 250 98 L 250 1409 L 53 1409 L 53 1511 L 702 1511 C 788 1511 862 1501 924 1481 C 986 1460 1037 1431 1075 1395 C 1115 1357 1145 1314 1163 1266 C 1181 1218 1190 1164 1190 1106 L 1190 1071 C 1190 1013 1179 960 1159 911 C 1139 864 1109 822 1067 784 C 1025 746 974 717 915 698 C 849 676 778 665 702 666 L 387 666 L 387 98 L 575 98 L 575 0 L 53 0 Z M 387 770 L 694 770 C 759 770 813 776 856 790 C 898 804 935 825 967 854 C 994 880 1015 912 1030 952 C 1043 988 1050 1031 1051 1081 L 1051 1104 C 1051 1154 1044 1197 1030 1233 C 1016 1269 995 1301 967 1327 C 942 1349 905 1368 856 1384 C 814 1397 760 1404 694 1405 L 387 1405 L 387 770 Z" unicode="P" />
<glyph horiz-adv-x="1441" d="M 111 674 L 111 844 C 111 958 127 1059 160 1145 C 192 1229 237 1301 293 1360 C 347 1417 412 1460 487 1489 C 561 1517 639 1532 721 1532 C 804 1532 882 1517 956 1489 C 1031 1460 1096 1417 1151 1360 C 1205 1304 1249 1232 1282 1145 C 1314 1059 1331 958 1331 844 L 1331 674 C 1331 571 1318 479 1294 399 C 1270 322 1236 255 1192 199 C 1148 143 1095 98 1034 66 C 974 34 908 13 836 2 L 1298 -63 L 1284 -170 L 580 -70 L 588 -4 C 515 11 452 35 399 68 C 339 103 288 149 248 205 C 206 262 172 329 147 406 C 123 483 111 572 111 674 Z M 250 682 C 250 578 263 487 289 410 C 313 336 347 275 391 227 C 431 181 481 147 541 125 C 597 103 657 92 721 92 C 785 92 845 103 901 125 C 959 148 1009 182 1051 227 C 1095 275 1129 336 1153 410 C 1179 488 1192 578 1192 682 L 1192 836 C 1192 938 1179 1028 1153 1106 C 1128 1181 1094 1241 1051 1286 C 1005 1334 955 1367 901 1386 C 843 1406 783 1417 721 1417 C 658 1417 598 1406 541 1386 C 486 1366 436 1333 391 1286 C 347 1240 313 1180 289 1106 C 263 1028 250 938 250 836 L 250 682 Z" unicode="Q" />
<glyph horiz-adv-x="1378" d="M 53 0 L 53 98 L 250 98 L 250 1409 L 53 1409 L 53 1511 L 719 1511 C 805 1511 878 1501 940 1481 C 1002 1460 1053 1431 1092 1395 C 1132 1355 1162 1314 1180 1270 C 1199 1220 1208 1169 1208 1116 L 1208 1081 C 1208 1035 1200 992 1186 950 C 1170 906 1150 868 1124 838 C 1096 804 1062 774 1020 750 C 979 725 932 706 879 694 L 1176 98 L 1327 98 L 1327 0 L 1083 0 L 739 680 L 387 680 L 387 98 L 575 98 L 575 0 L 53 0 Z M 387 784 L 711 784 C 776 784 830 791 872 805 C 920 820 957 840 985 866 C 1012 890 1033 923 1049 963 C 1062 998 1069 1040 1069 1090 L 1069 1112 C 1069 1160 1062 1201 1049 1237 C 1033 1275 1012 1305 985 1329 C 955 1355 917 1374 872 1386 C 827 1398 773 1405 711 1405 L 387 1405 L 387 784 Z" unicode="R" />
<glyph horiz-adv-x="1136" d="M 59 0 L 59 383 L 166 383 C 184 337 205 296 231 260 C 255 226 285 196 319 172 C 351 148 390 130 436 118 C 481 106 532 100 588 100 C 646 100 697 107 739 121 C 783 134 820 154 852 182 C 880 206 904 239 922 279 C 938 315 946 357 946 403 C 946 454 938 497 922 532 C 904 568 880 598 852 621 C 819 645 778 666 729 682 C 683 697 625 712 555 727 C 497 739 435 756 369 778 C 315 796 269 820 229 852 C 189 883 159 921 139 966 C 119 1011 109 1068 109 1137 C 109 1194 119 1248 141 1300 C 160 1346 189 1388 229 1425 C 265 1459 310 1485 362 1505 C 411 1523 468 1532 532 1532 C 567 1532 605 1528 647 1522 C 685 1515 719 1505 750 1491 C 784 1475 812 1458 836 1438 C 860 1417 880 1392 895 1362 C 895 1371 896 1388 899 1413 C 900 1425 902 1440 905 1460 C 907 1474 909 1487 911 1497 C 912 1506 915 1511 920 1511 L 1018 1511 L 1018 1157 L 915 1157 C 904 1195 888 1231 866 1266 C 846 1296 820 1323 788 1348 C 754 1372 719 1390 684 1401 C 643 1413 597 1419 545 1419 C 498 1419 453 1412 410 1399 C 373 1387 341 1368 313 1343 C 287 1318 268 1289 256 1255 C 242 1217 236 1178 236 1139 C 236 1092 243 1052 258 1020 C 273 987 294 961 322 942 C 354 918 389 900 426 888 C 462 876 511 863 573 850 C 643 834 714 815 786 793 C 851 771 904 745 944 715 C 987 682 1020 641 1042 592 C 1064 544 1075 482 1075 408 C 1075 348 1064 293 1044 242 C 1023 190 992 145 952 109 C 908 69 858 40 803 20 C 740 -2 672 -12 598 -12 C 561 -12 520 -8 475 -2 C 445 2 406 13 358 33 C 321 48 288 67 258 90 C 228 113 202 142 182 176 C 180 159 178 141 176 121 C 174 107 172 88 170 63 C 168 46 166 31 164 18 C 161 6 158 0 154 0 L 59 0 Z" unicode="S" />
<glyph horiz-adv-x="1294" d="M 61 1165 L 61 1511 L 1235 1511 L 1235 1165 L 1126 1165 L 1114 1407 L 717 1407 L 717 98 L 924 98 L 924 0 L 373 0 L 373 98 L 580 98 L 580 1407 L 182 1407 L 170 1165 L 61 1165 Z" unicode="T" />
<glyph horiz-adv-x="1533" d="M 53 1409 L 53 1511 L 561 1511 L 561 1409 L 373 1409 L 373 516 C 373 439 381 375 399 324 C 417 270 444 227 479 194 C 513 161 556 137 608 121 C 654 105 713 98 784 98 C 845 98 899 106 946 123 C 996 141 1037 166 1069 199 C 1104 235 1130 278 1147 328 C 1165 380 1174 442 1174 516 L 1174 1409 L 985 1409 L 985 1511 L 1481 1511 L 1481 1409 L 1296 1409 L 1296 510 C 1296 426 1284 351 1262 285 C 1240 222 1206 167 1161 119 C 1117 73 1063 39 999 16 C 933 -7 860 -18 778 -18 C 694 -18 618 -6 549 16 C 483 38 427 72 381 119 C 333 167 297 221 274 283 C 249 348 237 424 238 510 L 238 1409 L 53 1409 Z" unicode="U" />
<glyph horiz-adv-x="1562" d="M 53 1409 L 53 1511 L 543 1511 L 543 1409 L 356 1409 L 788 182 L 795 182 L 1221 1409 L 1044 1409 L 1044 1511 L 1509 1511 L 1509 1409 L 1350 1409 L 844 -8 L 725 -8 L 213 1409 L 53 1409 Z" unicode="V" />
<glyph horiz-adv-x="2174" d="M 53 1409 L 53 1511 L 532 1511 L 532 1409 L 342 1409 L 653 231 L 659 231 L 1040 1511 L 1126 1511 L 1522 231 L 1528 231 L 1847 1409 L 1663 1409 L 1663 1511 L 2122 1511 L 2122 1409 L 1972 1409 L 1577 -8 L 1466 -8 L 1087 1241 L 1081 1241 L 707 -8 L 588 -8 L 203 1409 L 53 1409 Z" unicode="W" />
<glyph horiz-adv-x="1464" d="M 53 0 L 53 98 L 209 98 L 641 776 L 229 1409 L 86 1409 L 86 1511 L 549 1511 L 549 1409 L 389 1409 L 729 868 L 735 868 L 1067 1409 L 905 1409 L 905 1511 L 1350 1511 L 1350 1409 L 1206 1409 L 807 774 L 1257 98 L 1413 98 L 1413 0 L 915 0 L 915 98 L 1098 98 L 719 680 L 713 680 L 348 98 L 504 98 L 504 0 L 53 0 Z" unicode="X" />
<glyph horiz-adv-x="1480" d="M 53 1409 L 53 1511 L 543 1511 L 543 1409 L 362 1409 L 756 700 L 762 700 L 1137 1409 L 971 1409 L 971 1511 L 1427 1511 L 1427 1409 L 1272 1409 L 819 580 L 819 98 L 1026 98 L 1026 0 L 475 0 L 475 98 L 682 98 L 682 580 L 207 1409 L 53 1409 Z" unicode="Y" />
<glyph horiz-adv-x="1189" d="M 66 0 L 66 98 L 965 1401 L 965 1407 L 244 1407 L 229 1157 L 123 1157 L 123 1509 L 1126 1509 L 1126 1411 L 227 111 L 227 104 L 991 104 L 1008 375 L 1114 375 L 1114 0 L 66 0 Z" unicode="Z" />
<glyph horiz-adv-x="595" d="M 106 -338 L 106 1581 L 524 1581 L 524 1479 L 236 1479 L 236 -240 L 524 -240 L 524 -338 L 106 -338 Z" unicode="[" />
<glyph horiz-adv-x="765" d="M 47 1581 L 168 1581 L 780 -338 L 659 -338 L 47 1581 Z" unicode="\" />
<glyph horiz-adv-x="595" d="M 74 -240 L 362 -240 L 362 1479 L 74 1479 L 74 1581 L 492 1581 L 492 -338 L 74 -338 L 74 -240 Z" unicode="]" />
<glyph horiz-adv-x="610" d="M 82 670 L 82 776 L 530 776 L 530 670 L 82 670 Z" unicode="^" />
<glyph horiz-adv-x="796" d="M -4 -295 L 801 -295 L 801 -393 L -4 -393 L -4 -295 Z" unicode="_" />
<glyph horiz-adv-x="1003" d="M 283 1511 L 434 1511 L 588 1190 L 467 1190 L 283 1511 Z" unicode="`" />
<glyph horiz-adv-x="1085" d="M 53 299 L 53 317 C 53 366 63 411 84 453 C 103 491 132 525 170 555 C 205 582 249 603 301 618 C 354 633 409 641 467 641 C 533 641 589 634 635 621 C 684 605 724 589 756 571 L 756 690 C 756 785 732 855 684 899 C 634 944 567 967 481 967 C 446 967 413 965 383 961 C 359 958 331 951 297 940 C 271 932 245 922 221 911 C 198 901 178 891 160 881 L 109 977 L 184 1014 C 208 1024 236 1035 268 1047 C 290 1053 324 1061 371 1069 C 411 1075 454 1079 498 1079 C 556 1079 609 1071 655 1055 C 703 1038 743 1013 776 981 C 810 947 836 907 854 862 C 873 812 883 758 883 700 L 883 98 L 1042 98 L 1042 0 L 793 0 C 789 0 785 5 782 16 C 782 17 781 20 780 26 C 778 32 777 37 776 42 C 774 46 774 51 774 57 C 771 79 769 96 768 109 C 765 133 764 152 764 164 C 746 135 724 110 700 88 C 676 67 649 49 618 33 C 589 19 557 8 522 -2 C 489 -10 455 -14 420 -14 C 360 -14 307 -6 262 10 C 212 28 174 50 147 76 C 117 104 94 138 78 176 C 61 214 53 255 53 299 Z M 188 309 C 188 273 193 243 203 219 C 213 189 228 166 248 150 C 268 132 294 117 326 106 C 358 95 395 90 436 90 C 481 90 522 97 559 111 C 599 126 634 145 662 168 C 690 192 713 221 729 254 C 747 289 756 324 756 358 L 756 467 C 722 489 683 506 641 518 C 594 531 538 538 473 539 C 421 539 379 533 348 522 C 312 510 282 493 258 473 C 234 453 217 430 205 403 C 194 379 188 351 188 317 L 188 309 Z" unicode="a" />
<glyph horiz-adv-x="1236" d="M 41 1409 L 41 1511 L 356 1511 L 356 864 C 372 898 394 928 420 954 C 446 980 475 1003 506 1022 C 537 1041 570 1055 606 1065 C 640 1074 677 1079 719 1079 C 779 1079 836 1067 891 1044 C 945 1021 991 989 1028 948 C 1067 902 1098 851 1120 795 C 1142 735 1153 666 1153 588 L 1153 475 C 1153 398 1142 330 1120 270 C 1096 207 1066 155 1030 115 C 990 71 945 38 893 16 C 838 -7 781 -18 721 -18 C 680 -18 639 -12 598 -2 C 562 7 528 22 494 43 C 461 62 433 85 410 111 C 384 138 363 167 348 199 C 348 192 347 181 347 167 C 346 152 346 141 346 133 C 346 117 344 96 342 70 C 340 56 338 40 336 20 C 334 6 331 0 326 0 L 53 0 L 53 98 L 229 98 L 229 1409 L 41 1409 Z M 356 481 C 356 419 364 365 381 319 C 397 271 421 230 451 196 C 481 162 517 136 559 119 C 604 99 652 90 702 90 C 755 90 800 99 838 117 C 880 137 913 163 938 193 C 965 227 986 267 1001 315 C 1014 360 1021 414 1022 477 L 1022 586 C 1022 648 1015 702 1001 748 C 987 792 966 831 938 867 C 909 902 876 927 838 942 C 797 958 751 967 700 967 C 648 967 601 958 561 942 C 523 926 487 902 455 870 C 425 840 401 801 383 754 C 367 712 358 660 356 600 L 356 481 Z" unicode="b" />
<glyph horiz-adv-x="1036" d="M 86 483 L 86 580 C 86 656 97 726 121 788 C 143 848 173 900 213 944 C 249 984 296 1016 352 1040 C 406 1063 464 1075 524 1075 C 596 1075 655 1064 700 1042 C 748 1018 785 983 811 936 C 811 956 811 971 813 981 C 815 1000 817 1014 819 1022 C 820 1030 822 1039 825 1051 C 826 1057 829 1061 834 1061 L 920 1061 L 920 756 L 815 756 C 805 790 792 820 776 846 C 760 872 741 894 717 913 C 694 931 667 946 637 956 C 608 965 572 970 530 971 C 479 971 435 962 399 944 C 359 924 327 899 301 868 C 272 832 251 791 237 745 C 223 699 217 643 217 578 L 217 485 C 217 408 227 345 248 297 C 271 241 297 200 326 176 C 358 147 395 126 436 114 C 477 102 517 96 557 96 C 622 96 680 108 731 133 C 777 155 828 191 883 242 L 956 162 C 939 144 912 120 874 90 C 845 67 814 49 782 35 C 740 15 704 3 676 -2 C 638 -10 595 -14 549 -14 C 485 -14 423 -2 365 20 C 310 42 261 75 219 119 C 173 165 141 217 121 274 C 97 336 86 406 86 483 Z" unicode="c" />
<glyph horiz-adv-x="1230" d="M 86 475 L 86 588 C 86 666 97 735 119 795 C 141 852 171 903 211 948 C 247 988 293 1020 348 1044 C 402 1067 460 1079 520 1079 C 559 1079 595 1074 629 1065 C 671 1053 704 1039 729 1024 C 763 1003 791 981 815 958 C 842 930 865 901 883 870 L 883 1409 L 659 1409 L 659 1511 L 1010 1511 L 1010 98 L 1186 98 L 1186 0 L 913 0 C 907 0 904 6 903 18 C 901 30 899 46 897 68 C 893 108 891 129 891 131 C 891 139 890 149 890 163 C 889 177 889 187 889 195 C 872 164 851 135 827 109 C 803 83 775 60 743 41 C 712 22 677 8 639 -2 C 598 -12 558 -18 518 -18 C 458 -18 400 -6 346 16 C 294 38 248 71 209 115 C 172 155 142 207 119 270 C 97 330 86 398 86 475 Z M 217 477 C 217 414 224 360 238 315 C 253 267 274 226 301 193 C 325 163 359 137 401 117 C 437 99 483 90 537 90 C 587 90 635 99 680 119 C 722 137 758 163 788 197 C 818 231 842 271 858 319 C 874 365 883 419 883 481 L 883 600 C 881 654 872 706 854 754 C 836 803 812 842 784 870 C 752 901 716 925 675 942 C 634 958 588 967 538 967 C 488 967 442 958 401 942 C 363 926 329 901 301 866 C 272 830 251 791 238 748 C 224 702 217 648 217 586 L 217 477 Z" unicode="d" />
<glyph horiz-adv-x="1060" d="M 86 479 L 86 584 C 86 660 97 730 121 793 C 144 854 175 906 215 948 C 253 988 302 1020 362 1044 C 420 1067 482 1079 547 1079 C 615 1079 675 1068 727 1047 C 783 1023 828 993 862 956 C 900 916 928 869 946 815 C 965 757 975 697 975 635 L 975 512 L 217 512 L 217 481 C 217 418 224 364 238 319 C 253 269 274 229 301 198 C 328 167 366 142 414 123 C 458 105 511 96 575 96 C 619 96 654 98 682 104 C 718 110 747 117 768 125 C 794 133 819 143 842 156 L 909 193 L 965 98 C 957 92 929 77 883 53 C 862 42 833 30 797 18 C 767 8 732 0 694 -6 C 661 -11 620 -14 571 -14 C 500 -14 434 -2 373 20 C 311 43 260 75 219 117 C 175 161 142 212 121 272 C 97 334 86 403 86 479 Z M 217 614 L 844 614 L 844 629 C 844 677 838 724 827 770 C 817 812 800 848 776 879 C 750 910 719 934 684 950 C 647 966 601 975 547 975 C 495 975 450 966 412 950 C 372 933 338 909 309 879 C 283 851 261 813 244 764 C 228 720 219 670 217 614 Z" unicode="e" />
<glyph horiz-adv-x="671" d="M 41 958 L 41 1061 L 229 1061 L 229 1204 C 229 1260 237 1308 254 1350 C 269 1388 291 1421 319 1450 C 346 1477 377 1497 411 1509 C 445 1521 482 1528 520 1528 C 559 1528 586 1526 600 1524 C 632 1517 655 1511 668 1507 L 639 1401 C 633 1402 625 1404 613 1406 C 601 1408 594 1409 592 1411 C 574 1415 552 1417 528 1417 C 498 1417 475 1413 459 1407 C 439 1399 422 1386 406 1368 C 388 1347 375 1324 369 1300 C 361 1271 356 1236 356 1196 L 356 1061 L 616 1061 L 616 958 L 356 958 L 356 98 L 545 98 L 545 0 L 53 0 L 53 98 L 229 98 L 229 958 L 41 958 Z" unicode="f" />
<glyph horiz-adv-x="1230" d="M 86 502 L 86 588 C 86 666 97 735 119 795 C 141 852 171 903 211 948 C 247 988 293 1020 348 1044 C 402 1067 460 1079 520 1079 C 560 1079 598 1074 633 1065 C 664 1055 699 1040 737 1020 C 761 1006 790 983 823 950 C 850 922 872 892 889 858 C 889 864 889 875 890 889 C 890 903 891 915 891 924 C 891 926 893 948 897 989 C 898 1007 900 1024 903 1040 C 904 1053 907 1060 913 1061 L 1174 1061 L 1174 958 L 1010 958 L 1010 14 C 1010 -51 999 -108 977 -158 C 955 -208 923 -251 881 -287 C 841 -319 793 -345 735 -365 C 675 -384 613 -393 549 -393 C 491 -393 444 -390 406 -385 C 370 -379 331 -372 289 -362 C 256 -354 225 -344 195 -332 C 163 -318 137 -306 117 -295 L 164 -188 L 233 -219 C 272 -235 299 -246 313 -250 C 347 -259 380 -266 412 -272 C 444 -277 485 -280 535 -281 C 593 -281 643 -274 684 -260 C 728 -244 764 -224 793 -199 C 824 -170 846 -138 860 -102 C 875 -64 883 -21 883 25 L 883 221 C 867 189 847 160 821 133 C 797 108 770 86 739 68 C 703 46 670 31 639 23 C 605 13 564 8 518 8 C 458 8 400 19 346 43 C 294 65 248 97 209 141 C 172 181 142 233 119 297 C 97 357 86 425 86 502 Z M 217 504 C 217 441 223 387 237 342 C 251 296 272 256 301 221 C 328 187 361 161 401 145 C 443 127 488 118 537 119 C 583 119 630 127 676 145 C 716 160 752 185 784 219 C 814 250 837 289 854 336 C 872 384 881 435 883 489 L 883 582 C 883 642 874 695 858 743 C 840 792 816 832 788 864 C 756 898 720 922 680 938 C 633 956 586 965 539 965 C 436 965 357 932 301 866 C 245 799 217 706 217 586 L 217 504 Z" unicode="g" />
<glyph horiz-adv-x="1247" d="M 41 1409 L 41 1511 L 356 1511 L 356 879 C 370 907 389 934 412 958 C 434 982 459 1004 487 1022 C 515 1041 547 1055 582 1065 C 614 1074 652 1079 696 1079 C 748 1079 794 1070 836 1053 C 875 1036 911 1010 944 975 C 976 941 1000 901 1016 856 C 1032 809 1040 756 1040 698 L 1040 98 L 1204 98 L 1204 0 L 913 0 L 913 684 C 913 776 891 847 848 895 C 806 941 743 965 659 965 C 618 965 579 956 543 940 C 505 923 473 901 449 874 C 421 844 399 810 383 772 C 367 735 358 693 356 645 L 356 98 L 516 98 L 516 0 L 53 0 L 53 98 L 229 98 L 229 1409 L 41 1409 Z" unicode="h" />
<glyph horiz-adv-x="589" d="M 41 958 L 41 1061 L 365 1061 L 365 98 L 545 98 L 545 0 L 53 0 L 53 98 L 238 98 L 238 958 L 41 958 Z M 180 1421 C 180 1429 182 1441 188 1458 C 190 1468 197 1479 209 1489 C 219 1499 229 1506 238 1509 C 250 1513 262 1515 274 1516 C 286 1516 298 1513 311 1509 C 321 1505 332 1498 342 1489 C 348 1482 355 1472 362 1458 C 367 1447 370 1435 370 1421 C 370 1407 368 1395 362 1384 C 356 1373 350 1364 342 1356 C 332 1345 322 1338 311 1335 C 294 1329 282 1327 274 1327 C 266 1327 254 1329 238 1335 C 230 1337 220 1344 209 1355 C 198 1366 191 1376 188 1384 C 182 1400 180 1413 180 1421 Z" unicode="i" />
<glyph horiz-adv-x="548" d="M -27 -367 L 6 -266 C 26 -274 40 -279 47 -281 C 66 -283 84 -285 102 -285 C 146 -285 180 -270 205 -242 C 229 -213 242 -169 242 -109 L 242 958 L 41 958 L 41 1061 L 369 1061 L 369 -117 C 369 -163 362 -203 348 -236 C 332 -272 315 -302 295 -324 C 275 -346 248 -363 213 -377 C 183 -389 149 -395 113 -395 C 81 -395 55 -393 35 -389 C 17 -385 -3 -377 -27 -367 Z M 184 1421 C 184 1429 187 1441 193 1458 C 195 1468 202 1479 213 1489 C 223 1499 233 1506 242 1509 C 254 1513 266 1515 278 1515 C 290 1515 303 1513 315 1509 C 325 1505 336 1498 346 1489 C 352 1482 359 1472 367 1458 C 372 1447 375 1435 375 1421 C 375 1407 372 1395 366 1384 C 360 1373 354 1364 346 1356 C 336 1345 326 1338 315 1335 C 298 1329 286 1327 278 1327 C 270 1327 258 1329 242 1335 C 234 1337 224 1344 213 1355 C 202 1366 195 1376 193 1384 C 187 1400 184 1413 184 1421 Z" unicode="j" />
<glyph horiz-adv-x="1153" d="M 41 1409 L 41 1511 L 356 1511 L 356 489 L 799 958 L 672 958 L 672 1061 L 1073 1061 L 1073 958 L 946 958 L 604 604 L 987 98 L 1110 98 L 1110 0 L 905 0 L 514 516 L 356 354 L 356 98 L 516 98 L 516 0 L 53 0 L 53 98 L 229 98 L 229 1409 L 41 1409 Z" unicode="k" />
<glyph horiz-adv-x="595" d="M 41 1409 L 41 1511 L 369 1511 L 369 98 L 553 98 L 553 0 L 53 0 L 53 98 L 242 98 L 242 1409 L 41 1409 Z" unicode="l" />
<glyph horiz-adv-x="1832" d="M 41 958 L 41 1061 L 326 1061 C 330 1061 332 1055 334 1044 C 336 1030 338 1015 340 999 C 342 974 344 954 344 940 C 344 926 345 906 348 879 C 363 910 380 936 399 958 C 419 982 443 1004 469 1022 C 491 1037 521 1051 559 1063 C 594 1073 630 1079 667 1079 C 704 1079 737 1074 766 1065 C 797 1054 825 1040 850 1022 C 874 1003 897 980 918 954 C 937 929 953 900 965 868 C 975 892 994 920 1022 952 C 1046 982 1071 1004 1096 1020 C 1124 1039 1156 1053 1190 1063 C 1226 1073 1264 1079 1303 1079 C 1348 1079 1392 1070 1434 1053 C 1473 1036 1507 1011 1536 979 C 1562 950 1584 910 1602 860 C 1618 814 1626 763 1626 707 L 1626 98 L 1790 98 L 1790 0 L 1499 0 L 1499 692 C 1499 780 1479 848 1441 895 C 1403 941 1344 965 1266 965 C 1229 965 1193 957 1159 942 C 1127 928 1099 907 1073 877 C 1045 845 1025 812 1013 778 C 1001 744 993 702 991 653 L 991 98 L 1159 98 L 1159 0 L 864 0 L 864 692 C 864 780 845 848 807 895 C 769 941 710 965 631 965 C 594 965 558 957 524 942 C 492 928 464 907 438 877 C 410 845 390 812 378 778 C 366 744 358 702 356 653 L 356 98 L 516 98 L 516 0 L 53 0 L 53 98 L 229 98 L 229 958 L 41 958 Z" unicode="m" />
<glyph horiz-adv-x="1247" d="M 41 958 L 41 1061 L 326 1061 C 330 1061 333 1054 336 1042 C 338 1030 340 1013 342 993 C 344 965 346 944 346 928 C 346 920 346 909 347 895 C 347 881 348 870 348 864 C 358 888 378 916 406 948 C 432 978 457 1001 481 1018 C 512 1038 544 1053 578 1063 C 614 1073 654 1079 696 1079 C 748 1079 794 1070 836 1053 C 875 1036 911 1010 944 975 C 976 941 1000 901 1016 856 C 1032 809 1040 756 1040 698 L 1040 98 L 1204 98 L 1204 0 L 913 0 L 913 684 C 913 776 891 847 848 895 C 806 941 743 965 659 965 C 618 965 579 956 543 940 C 505 923 473 901 449 874 C 421 844 399 810 383 772 C 367 735 358 693 356 645 L 356 98 L 516 98 L 516 0 L 53 0 L 53 98 L 229 98 L 229 958 L 41 958 Z" unicode="n" />
<glyph horiz-adv-x="1116" d="M 86 483 L 86 580 C 86 658 98 727 123 788 C 149 853 181 906 221 946 C 263 988 313 1020 372 1044 C 431 1067 493 1079 559 1079 C 624 1079 686 1067 745 1044 C 804 1021 855 988 897 946 C 936 906 969 854 995 788 C 1019 726 1032 657 1032 580 L 1032 483 C 1032 405 1019 335 995 274 C 969 208 936 156 897 117 C 851 71 801 38 745 16 C 686 -7 624 -18 559 -18 C 493 -18 431 -6 373 16 C 317 38 266 71 221 117 C 181 156 149 208 123 274 C 98 335 86 405 86 483 Z M 217 485 C 217 425 225 370 242 322 C 258 271 281 229 309 195 C 337 159 373 133 416 115 C 461 95 509 86 559 86 C 609 86 657 95 702 115 C 744 133 779 159 809 195 C 837 229 860 271 877 322 C 893 371 901 425 901 485 L 901 578 C 901 638 893 692 877 741 C 860 789 837 830 809 866 C 780 902 744 928 702 946 C 656 965 608 975 558 975 C 508 975 460 965 416 946 C 374 928 338 901 309 866 C 280 830 258 789 242 741 C 225 691 217 637 217 578 L 217 485 Z" unicode="o" />
<glyph horiz-adv-x="1236" d="M 41 958 L 41 1061 L 326 1061 C 330 1061 333 1054 336 1042 C 338 1030 340 1013 342 993 C 344 965 346 944 346 930 C 346 922 346 911 347 897 C 347 883 348 873 348 866 C 367 900 390 930 416 956 C 440 980 470 1002 504 1022 C 536 1040 571 1055 608 1065 C 642 1074 679 1079 719 1079 C 779 1079 836 1067 891 1044 C 945 1021 991 989 1028 948 C 1067 902 1098 851 1120 795 C 1142 735 1153 666 1153 588 L 1153 475 C 1153 398 1142 330 1120 270 C 1096 207 1066 155 1030 115 C 990 71 945 38 893 16 C 838 -7 781 -18 721 -18 C 675 -18 636 -13 602 -4 C 562 6 529 20 502 37 C 470 56 442 78 418 102 C 392 128 371 155 356 184 L 356 -295 L 543 -295 L 543 -393 L 53 -393 L 53 -295 L 229 -295 L 229 958 L 41 958 Z M 356 481 C 356 419 364 365 381 319 C 399 269 422 229 451 199 C 483 163 519 137 559 121 C 599 103 647 94 702 94 C 750 94 795 103 838 121 C 878 139 912 163 938 195 C 966 230 987 270 1001 315 C 1015 360 1022 414 1022 477 L 1022 586 C 1022 648 1015 702 1001 748 C 987 792 966 831 938 867 C 909 902 876 927 838 942 C 797 958 751 967 700 967 C 648 967 601 958 561 942 C 523 926 487 902 455 870 C 425 840 401 801 383 754 C 367 712 358 660 356 600 L 356 481 Z" unicode="p" />
<glyph horiz-adv-x="1230" d="M 86 475 L 86 588 C 86 666 97 735 119 795 C 141 852 171 903 211 948 C 247 988 293 1020 348 1044 C 402 1067 460 1079 520 1079 C 560 1079 598 1074 632 1065 C 666 1055 701 1041 735 1022 C 763 1005 793 982 823 952 C 846 928 868 898 889 860 C 889 866 889 877 890 891 C 890 905 891 917 891 926 C 891 928 893 950 897 991 C 898 1004 900 1020 903 1040 C 904 1053 907 1060 913 1061 L 1174 1061 L 1174 958 L 1010 958 L 1010 -295 L 1186 -295 L 1186 -393 L 696 -393 L 696 -295 L 883 -295 L 883 190 C 865 157 844 129 821 106 C 793 78 766 57 739 41 C 709 23 675 8 637 -2 C 597 -12 558 -18 518 -18 C 458 -18 400 -6 346 16 C 294 38 248 71 209 115 C 172 155 142 207 119 270 C 97 330 86 398 86 475 Z M 217 477 C 217 414 224 360 238 315 C 253 267 274 226 301 193 C 325 163 359 137 401 117 C 437 99 483 90 537 90 C 589 90 635 99 676 117 C 718 135 754 160 784 193 C 814 224 837 263 854 309 C 872 357 881 408 883 463 L 883 600 C 881 654 872 706 854 754 C 836 803 812 842 784 870 C 752 901 716 925 675 942 C 634 958 588 967 538 967 C 488 967 442 958 401 942 C 363 926 329 901 301 866 C 272 830 251 791 238 748 C 224 702 217 648 217 586 L 217 477 Z" unicode="q" />
<glyph horiz-adv-x="813" d="M 41 958 L 41 1061 L 326 1061 C 331 1061 334 1054 336 1040 C 337 1028 339 1010 342 987 C 344 959 346 936 346 918 C 346 910 346 898 347 884 C 347 869 348 858 348 852 C 382 921 424 974 475 1012 C 529 1051 589 1071 655 1071 C 681 1071 700 1069 713 1067 C 731 1063 750 1057 768 1049 L 731 936 C 719 942 707 946 696 948 C 679 950 663 952 647 952 C 606 952 568 944 532 928 C 499 912 469 890 442 860 C 414 831 394 797 380 759 C 366 721 358 678 356 631 L 356 98 L 537 98 L 537 0 L 53 0 L 53 98 L 229 98 L 229 958 L 41 958 Z" unicode="r" />
<glyph horiz-adv-x="983" d="M 76 0 L 76 319 L 182 319 C 191 285 205 253 225 225 C 243 197 266 173 295 153 C 323 133 356 116 393 104 C 425 93 468 88 520 88 C 562 88 598 92 629 102 C 661 111 688 125 709 143 C 729 159 746 181 760 209 C 772 233 778 262 778 295 C 778 326 773 351 764 371 C 753 393 736 410 713 424 C 687 439 656 451 621 461 C 600 466 551 474 475 485 C 407 495 357 505 326 514 C 274 527 234 543 207 563 C 173 586 147 615 129 649 C 111 683 102 726 102 780 C 102 832 111 875 131 909 C 151 945 178 976 211 1001 C 245 1027 282 1045 322 1057 C 364 1069 408 1075 455 1075 C 524 1075 582 1063 629 1040 C 677 1015 715 981 745 938 C 746 946 748 953 750 961 C 752 969 754 976 756 983 C 757 987 759 993 761 1003 C 763 1013 764 1020 766 1024 C 767 1028 769 1033 771 1039 C 773 1045 774 1049 774 1051 C 776 1057 780 1061 784 1061 L 852 1061 L 852 780 L 752 780 C 740 808 727 832 713 852 C 696 874 675 895 651 913 C 626 932 599 946 569 956 C 536 966 501 972 463 972 C 425 972 391 968 362 960 C 333 952 308 940 287 926 C 267 912 251 893 238 868 C 227 847 221 820 221 788 C 221 756 226 731 236 713 C 246 691 262 673 284 659 C 306 645 336 633 374 622 C 412 611 457 603 508 598 C 577 590 634 579 680 565 C 733 549 774 532 803 512 C 837 487 862 458 879 426 C 895 390 903 348 903 299 C 903 249 893 204 874 164 C 856 127 829 94 795 66 C 765 41 726 21 678 6 C 636 -7 587 -14 532 -14 C 450 -14 380 -1 324 23 C 268 46 220 84 180 137 C 177 123 172 90 164 37 C 160 12 154 0 147 0 L 76 0 Z" unicode="s" />
<glyph horiz-adv-x="692" d="M 45 958 L 45 1061 L 219 1061 L 219 1321 L 346 1350 L 346 1061 L 618 1061 L 618 958 L 346 958 L 346 311 C 346 275 350 242 360 211 C 369 181 381 158 397 143 C 415 125 433 113 453 109 C 476 102 499 98 522 98 C 542 98 563 100 584 104 C 597 106 613 111 633 117 L 662 10 C 625 0 602 -4 592 -6 C 568 -10 542 -12 514 -12 C 474 -12 437 -6 401 6 C 363 19 331 38 307 63 C 281 89 259 121 243 161 C 227 201 219 248 219 303 L 219 958 L 45 958 Z" unicode="t" />
<glyph horiz-adv-x="1234" d="M 45 958 L 45 1061 L 344 1061 L 344 377 C 344 284 365 214 408 168 C 452 120 513 96 592 96 C 632 96 671 104 709 121 C 748 139 780 162 805 190 C 833 224 854 259 868 297 C 883 339 891 383 891 430 L 891 958 L 719 958 L 719 1061 L 1018 1061 L 1018 98 L 1194 98 L 1194 0 L 922 0 C 918 0 914 6 911 20 C 908 34 906 50 905 68 C 903 81 901 103 899 133 C 897 148 897 169 897 197 C 882 166 864 137 842 111 C 817 81 792 58 768 43 C 736 22 704 7 672 -2 C 635 -12 596 -18 555 -18 C 504 -18 459 -9 420 8 C 379 27 343 53 311 86 C 281 117 258 157 242 205 C 225 251 217 304 217 362 L 217 958 L 45 958 Z" unicode="u" />
<glyph horiz-adv-x="1228" d="M 45 958 L 45 1061 L 453 1061 L 453 958 L 313 958 L 614 166 L 621 166 L 924 958 L 782 958 L 782 1061 L 1176 1061 L 1176 958 L 1044 958 L 664 -8 L 559 -8 L 176 958 L 45 958 Z" unicode="v" />
<glyph horiz-adv-x="1714" d="M 45 958 L 45 1061 L 442 1061 L 442 958 L 309 958 L 526 211 L 532 211 L 834 1061 L 913 1061 L 1214 211 L 1221 211 L 1421 958 L 1284 958 L 1284 1061 L 1663 1061 L 1663 958 L 1540 958 L 1264 -6 L 1169 -6 L 872 831 L 866 831 L 561 -6 L 467 -6 L 176 958 L 45 958 Z" unicode="w" />
<glyph horiz-adv-x="1150" d="M 41 958 L 41 1061 L 463 1061 L 463 958 L 330 958 L 582 625 L 588 625 L 827 958 L 688 958 L 688 1061 L 1094 1061 L 1094 958 L 961 958 L 659 549 L 991 98 L 1106 98 L 1106 0 L 696 0 L 696 98 L 834 98 L 569 471 L 563 471 L 303 98 L 449 98 L 449 0 L 53 0 L 53 98 L 170 98 L 492 549 L 172 958 L 41 958 Z" unicode="x" />
<glyph horiz-adv-x="1230" d="M 45 958 L 45 1061 L 451 1061 L 451 958 L 309 958 L 608 160 L 614 160 L 920 958 L 784 958 L 784 1061 L 1178 1061 L 1178 958 L 1042 958 L 594 -180 C 578 -218 561 -253 541 -285 C 523 -312 501 -334 477 -352 C 453 -368 428 -381 401 -389 C 372 -397 341 -401 307 -401 C 279 -401 252 -397 225 -391 C 195 -384 174 -377 162 -371 L 190 -268 C 202 -272 218 -276 240 -281 C 267 -286 288 -289 303 -289 C 319 -289 340 -286 365 -281 C 381 -277 398 -269 414 -258 C 427 -248 441 -233 455 -213 C 467 -195 477 -173 487 -147 L 545 4 L 174 958 L 45 958 Z" unicode="y" />
<glyph horiz-adv-x="976" d="M 70 0 L 70 86 L 733 956 L 733 963 L 213 963 L 195 780 L 90 780 L 90 1061 L 907 1061 L 907 991 L 231 104 L 231 98 L 774 98 L 795 299 L 899 299 L 899 0 L 70 0 Z" unicode="z" />
<glyph horiz-adv-x="749" d="M 49 571 L 49 678 L 125 678 C 165 678 197 689 221 711 C 245 734 258 767 258 811 L 258 1280 C 258 1318 263 1357 274 1397 C 284 1435 301 1467 324 1493 C 344 1517 376 1538 418 1556 C 456 1572 503 1581 559 1581 L 676 1581 L 676 1479 L 567 1479 C 505 1479 460 1461 432 1427 C 402 1390 387 1340 387 1278 L 387 803 C 387 753 376 716 356 690 C 334 661 304 640 266 627 L 266 623 C 304 609 334 588 356 559 C 376 533 387 495 387 446 L 387 -35 C 387 -100 402 -151 432 -188 C 460 -222 505 -239 567 -240 L 676 -240 L 676 -338 L 559 -338 C 503 -338 456 -329 418 -313 C 376 -295 344 -274 324 -250 C 302 -224 285 -192 274 -154 C 263 -114 258 -75 258 -37 L 258 438 C 258 481 245 514 221 537 C 195 560 163 571 125 571 L 49 571 Z" unicode="{" />
<glyph horiz-adv-x="491" d="M 180 -338 L 180 1581 L 311 1581 L 311 -338 L 180 -338 Z" unicode="|" />
<glyph horiz-adv-x="749" d="M 74 -240 L 182 -240 C 243 -240 288 -222 317 -188 C 347 -151 362 -100 362 -35 L 362 446 C 362 495 372 533 393 559 C 415 587 445 609 483 623 L 483 627 C 445 640 415 661 393 690 C 372 716 362 753 362 803 L 362 1278 C 362 1340 347 1390 317 1427 C 288 1461 243 1478 182 1479 L 74 1479 L 74 1581 L 190 1581 C 246 1581 293 1572 331 1556 C 369 1540 401 1519 426 1493 C 449 1467 466 1435 477 1397 C 486 1363 491 1324 492 1280 L 492 811 C 492 767 504 733 528 711 C 551 689 583 678 625 678 L 700 678 L 700 571 L 625 571 C 587 571 554 559 528 537 C 503 514 491 481 492 438 L 492 -37 C 492 -81 487 -120 477 -154 C 466 -192 449 -224 426 -250 C 401 -276 369 -297 331 -313 C 293 -329 246 -338 190 -338 L 74 -338 L 74 -240 Z" unicode="}" />
<glyph horiz-adv-x="796" d="M 74 631 C 90 679 115 715 147 741 C 177 765 218 778 270 778 C 293 778 317 774 342 768 C 365 761 388 753 410 745 C 437 734 457 727 469 723 C 489 716 507 713 522 713 C 545 713 564 719 580 733 C 592 743 606 762 623 788 L 723 741 C 706 697 681 661 649 633 C 619 607 578 594 526 594 C 501 594 477 597 453 604 C 429 610 407 618 385 627 C 357 637 338 645 326 649 C 305 655 287 659 272 659 C 247 659 228 652 215 639 C 204 628 190 610 174 584 L 74 631 Z" unicode="~" />
<glyph horiz-adv-x="479" d="" unicode="" />
<glyph horiz-adv-x="423" d="M 119 1210 C 119 1237 127 1260 145 1278 C 161 1294 183 1303 211 1303 C 237 1303 260 1294 279 1278 C 297 1261 305 1238 305 1210 C 305 1198 303 1186 299 1174 C 296 1166 289 1156 279 1145 C 268 1135 258 1128 248 1124 C 236 1120 223 1118 211 1118 C 199 1118 186 1120 174 1124 C 166 1126 156 1133 145 1145 C 135 1154 129 1164 127 1174 C 121 1190 119 1202 119 1210 Z M 137 -221 L 168 893 L 256 893 L 287 -221 L 137 -221 Z" unicode="" />
<glyph horiz-adv-x="1036" d="M 86 483 L 86 569 C 86 641 96 706 117 764 C 139 825 167 875 201 915 C 237 957 280 990 328 1016 C 378 1042 433 1057 492 1063 L 492 1270 L 600 1270 L 600 1065 C 676 1059 743 1041 801 1010 C 857 980 906 937 950 881 L 868 803 C 822 852 781 888 743 911 C 706 933 658 947 600 954 L 600 98 C 654 103 704 118 748 143 C 798 170 843 203 883 242 L 956 162 C 909 114 857 74 800 43 C 743 11 676 -6 600 -12 L 600 -256 L 492 -256 L 492 -10 C 433 -4 378 11 328 37 C 281 60 239 94 201 139 C 165 179 137 229 117 289 C 96 345 86 410 86 483 Z M 217 485 C 217 422 224 366 240 317 C 252 276 272 238 301 203 C 324 174 353 151 389 133 C 419 117 453 106 492 100 L 492 950 C 454 943 419 932 389 918 C 351 898 321 876 301 850 C 272 814 252 776 240 735 C 224 685 217 629 217 567 L 217 485 Z" unicode="" />
<glyph horiz-adv-x="1050" d="M 61 694 L 61 797 L 193 797 C 173 862 160 911 152 944 C 141 988 135 1033 135 1079 L 135 1141 C 135 1199 145 1252 166 1300 C 186 1346 216 1387 254 1421 C 293 1456 339 1483 391 1501 C 445 1520 504 1530 567 1530 C 617 1530 662 1526 700 1518 C 739 1510 776 1498 811 1483 C 846 1467 877 1450 903 1432 C 941 1404 969 1383 987 1368 L 909 1278 C 865 1318 813 1352 754 1378 C 699 1402 638 1415 571 1415 C 531 1415 492 1409 453 1399 C 417 1389 386 1373 358 1350 C 329 1325 308 1296 295 1262 C 279 1224 272 1180 272 1130 L 272 1081 C 272 1033 277 983 288 933 C 299 883 312 837 326 797 L 725 797 L 725 694 L 358 694 C 370 654 380 615 389 575 C 397 534 401 492 401 449 C 401 369 388 300 362 242 C 338 188 298 142 242 104 L 862 104 L 877 276 L 981 276 L 981 0 L 66 0 L 66 90 C 97 102 122 115 141 129 C 161 142 183 164 207 195 C 227 222 244 255 256 295 C 268 335 274 384 274 442 C 274 481 269 521 260 561 C 249 606 237 650 223 694 L 61 694 Z" unicode="" />
<glyph horiz-adv-x="1150" d="M 92 391 L 299 608 C 281 634 268 660 262 686 C 255 713 252 744 252 780 C 252 808 255 838 262 870 C 267 897 279 924 299 952 L 92 1167 L 209 1276 L 408 1061 C 453 1092 507 1108 571 1108 C 637 1108 693 1092 739 1061 L 944 1276 L 1061 1155 L 852 952 C 872 922 885 895 891 872 C 896 849 899 818 899 780 C 899 716 882 658 848 608 L 1057 391 L 940 285 L 739 500 C 693 468 637 453 571 453 C 507 453 452 468 408 500 L 209 285 L 92 391 Z M 399 780 C 399 728 416 685 451 651 C 482 619 522 604 571 604 C 625 604 668 619 700 651 C 732 682 748 725 748 780 C 748 833 731 876 698 909 C 664 943 621 960 571 961 C 523 961 482 943 449 909 C 415 876 399 833 399 780 Z" unicode="" />
<glyph horiz-adv-x="1314" d="M 53 1409 L 53 1511 L 500 1511 L 500 1409 L 319 1409 L 670 731 L 676 731 L 1016 1409 L 850 1409 L 850 1511 L 1262 1511 L 1262 1409 L 1147 1409 L 831 795 L 1163 795 L 1163 692 L 778 692 L 735 606 L 735 518 L 1161 518 L 1161 416 L 735 416 L 735 98 L 942 98 L 942 0 L 391 0 L 391 98 L 598 98 L 598 416 L 172 416 L 172 518 L 598 518 L 598 606 L 551 692 L 172 692 L 172 795 L 496 795 L 166 1409 L 53 1409 Z" unicode="" />
<glyph horiz-adv-x="491" d="M 180 -338 L 180 561 L 311 561 L 311 -338 L 180 -338 Z M 180 745 L 180 1581 L 311 1581 L 311 745 L 180 745 Z" unicode="" />
<glyph horiz-adv-x="1167" d="M 84 733 C 84 765 90 797 102 827 C 114 857 132 885 156 911 C 180 937 207 959 236 977 C 266 995 300 1009 338 1020 C 308 1043 282 1072 262 1108 C 244 1139 235 1181 236 1235 C 236 1283 244 1324 262 1360 C 277 1391 302 1422 338 1452 C 365 1475 403 1495 451 1511 C 491 1524 538 1531 592 1532 C 634 1532 673 1528 711 1520 C 749 1512 783 1501 813 1489 C 849 1473 879 1458 901 1444 C 932 1422 956 1402 973 1386 L 889 1298 C 875 1311 857 1326 834 1343 C 809 1361 787 1374 768 1382 C 739 1395 714 1404 692 1409 C 660 1415 628 1419 596 1419 C 554 1419 519 1414 492 1405 C 460 1394 436 1381 420 1366 C 399 1348 385 1329 379 1309 C 369 1283 365 1259 365 1237 C 365 1207 370 1179 381 1155 C 391 1131 407 1112 428 1096 C 455 1074 480 1057 502 1047 C 517 1039 533 1031 549 1023 C 565 1015 581 1007 598 999 L 834 889 C 878 868 915 846 946 823 C 978 799 1004 775 1024 750 C 1043 725 1058 696 1069 663 C 1079 630 1085 596 1085 561 C 1085 528 1079 496 1067 465 C 1056 436 1038 409 1014 383 C 989 357 962 335 934 317 C 904 299 869 284 831 274 C 862 250 887 222 907 190 C 925 160 934 120 934 71 C 934 22 925 -20 907 -57 C 889 -95 863 -127 831 -154 C 795 -182 756 -203 714 -217 C 672 -231 623 -238 567 -238 C 527 -238 489 -234 451 -227 C 419 -221 386 -212 352 -199 C 314 -183 286 -170 268 -158 C 235 -136 213 -118 201 -106 L 281 -16 C 294 -29 311 -43 332 -57 C 351 -69 372 -80 395 -92 C 418 -103 443 -111 471 -117 C 497 -122 527 -125 563 -125 C 607 -125 643 -120 672 -110 C 700 -100 726 -87 748 -70 C 764 -58 779 -37 791 -8 C 800 12 805 37 805 66 C 805 96 799 121 788 143 C 777 165 761 184 741 201 C 717 219 693 234 668 248 C 652 256 636 263 620 271 C 604 279 587 287 571 295 L 336 406 C 251 446 187 493 145 545 C 104 596 84 659 84 733 Z M 213 737 C 213 693 225 653 250 618 C 272 588 313 557 375 526 L 756 344 C 784 352 811 362 836 375 C 858 385 879 401 899 422 C 915 438 929 459 940 483 C 950 507 956 532 956 557 C 956 597 943 636 918 674 C 894 708 853 739 795 768 L 414 950 C 378 940 351 930 332 920 C 306 904 284 888 268 872 C 252 856 238 835 227 811 C 217 790 213 765 213 737 Z" unicode="" />
<glyph horiz-adv-x="1024" d="M 246 1319 C 246 1325 248 1337 254 1354 C 258 1366 264 1376 272 1384 C 281 1392 291 1398 301 1403 C 317 1408 330 1411 338 1411 C 346 1411 358 1408 375 1403 C 384 1399 393 1392 403 1384 C 412 1373 419 1363 424 1354 C 428 1342 430 1330 430 1319 C 430 1308 428 1296 424 1284 C 421 1276 414 1266 403 1255 C 392 1244 383 1237 375 1235 C 358 1229 346 1227 338 1227 C 330 1227 317 1229 301 1235 C 293 1237 283 1244 272 1255 C 262 1264 256 1274 254 1284 C 248 1300 246 1312 246 1319 Z M 594 1319 C 594 1329 596 1341 600 1354 C 604 1363 611 1373 621 1384 C 630 1392 639 1398 649 1403 C 665 1408 678 1411 686 1411 C 694 1411 706 1408 723 1403 C 732 1399 742 1392 752 1384 C 760 1376 766 1366 770 1354 C 775 1337 778 1325 778 1319 C 778 1312 775 1300 770 1284 C 767 1274 761 1265 752 1255 C 741 1244 731 1237 723 1235 C 706 1229 694 1227 686 1227 C 678 1227 665 1229 649 1235 C 641 1237 631 1244 620 1255 C 609 1266 602 1276 600 1284 C 596 1296 594 1308 594 1319 Z" unicode="" />
<glyph horiz-adv-x="1617" d="M 98 631 L 98 885 C 98 961 107 1028 127 1085 C 147 1145 175 1199 209 1249 C 237 1289 278 1331 330 1374 C 375 1410 424 1441 477 1466 C 527 1489 581 1507 639 1519 C 696 1531 752 1538 807 1538 C 861 1538 917 1532 975 1520 C 1037 1506 1093 1488 1141 1466 C 1194 1441 1243 1410 1288 1374 C 1340 1332 1380 1290 1409 1249 C 1443 1199 1470 1145 1491 1085 C 1510 1027 1520 961 1520 885 L 1520 631 C 1520 551 1510 483 1491 426 C 1470 363 1443 308 1409 260 C 1377 214 1337 172 1288 133 C 1247 99 1198 69 1141 43 C 1093 21 1037 3 975 -10 C 924 -20 868 -26 807 -26 C 745 -26 689 -21 639 -10 C 581 2 527 19 477 43 C 419 69 370 99 330 133 C 280 172 240 214 209 260 C 175 308 147 363 127 426 C 107 483 98 551 98 631 Z M 186 637 C 186 573 194 513 211 457 C 226 407 249 359 281 311 C 305 274 340 237 385 199 C 423 166 465 139 512 119 C 562 95 611 79 657 69 C 703 59 753 55 807 55 C 887 55 962 66 1032 90 C 1106 114 1173 151 1233 199 C 1291 245 1339 305 1376 379 C 1413 452 1432 538 1432 637 L 1432 879 C 1432 975 1413 1058 1376 1130 C 1339 1200 1291 1261 1233 1311 C 1177 1357 1110 1393 1032 1419 C 958 1443 883 1456 807 1456 C 759 1456 709 1450 657 1440 C 610 1430 562 1414 512 1391 C 465 1370 423 1343 385 1311 C 339 1273 305 1235 281 1198 C 249 1150 226 1102 211 1055 C 194 1001 186 943 186 879 L 186 637 Z M 436 698 L 436 817 C 436 881 445 939 465 993 C 483 1043 508 1085 541 1118 C 577 1154 614 1180 651 1194 C 694 1210 739 1219 786 1219 C 843 1219 889 1210 924 1194 C 959 1177 986 1154 1006 1124 C 1008 1151 1011 1170 1014 1182 C 1018 1198 1022 1206 1026 1206 L 1116 1206 L 1116 963 L 1008 963 C 993 1016 968 1055 934 1079 C 901 1102 857 1114 801 1114 C 765 1114 735 1108 709 1098 C 680 1086 656 1068 637 1044 C 616 1019 599 988 587 950 C 575 912 569 865 569 811 L 569 705 C 569 650 575 603 588 565 C 601 524 618 492 639 469 C 659 445 685 428 715 416 C 741 405 773 399 813 399 C 851 399 880 402 901 410 C 929 419 952 429 969 440 C 989 453 1006 466 1018 479 C 1028 489 1041 503 1055 520 L 1139 449 C 1110 416 1094 398 1092 395 C 1070 373 1047 356 1024 344 C 991 326 960 313 932 305 C 899 295 859 291 811 291 C 757 291 706 299 657 317 C 609 335 569 360 539 393 C 506 427 481 469 463 520 C 445 569 436 628 436 698 Z" unicode="" />
<glyph horiz-adv-x="983" d="M 47 834 L 47 850 C 47 894 56 935 76 973 C 94 1008 120 1039 154 1065 C 184 1088 223 1107 272 1122 C 314 1135 363 1142 421 1142 C 479 1142 529 1136 571 1124 C 610 1113 646 1099 680 1081 L 680 1180 C 680 1266 658 1328 616 1366 C 572 1405 511 1425 434 1425 C 413 1425 384 1422 346 1417 C 312 1411 286 1406 268 1401 C 243 1393 221 1384 201 1376 C 194 1373 175 1364 145 1350 L 98 1442 C 117 1452 140 1464 166 1477 C 193 1489 218 1498 241 1505 C 264 1512 296 1519 336 1526 C 367 1531 406 1534 453 1534 C 503 1534 551 1526 596 1511 C 638 1497 675 1476 707 1446 C 741 1414 765 1378 780 1337 C 796 1293 805 1244 805 1190 L 805 657 L 946 657 L 946 563 L 715 563 C 709 563 706 568 705 578 C 702 591 700 602 698 612 L 692 662 C 689 684 688 700 688 711 C 672 687 653 665 631 645 C 610 625 585 608 557 594 C 531 580 503 569 473 561 C 447 554 415 551 379 551 C 327 551 280 558 238 573 C 194 588 159 608 133 633 C 104 659 83 689 70 723 C 54 760 47 797 47 834 Z M 180 844 C 180 785 197 738 233 702 C 267 668 321 651 397 651 C 437 651 472 656 502 668 C 536 680 566 696 592 717 C 614 733 634 757 653 788 C 668 814 677 843 680 877 L 680 979 C 652 998 618 1013 578 1024 C 530 1037 480 1044 430 1044 C 389 1044 352 1038 319 1028 C 285 1017 259 1003 242 987 C 220 967 204 947 195 926 C 185 905 180 880 180 850 L 180 844 Z" unicode="" />
<glyph horiz-adv-x="847" d="M 88 514 L 88 526 L 322 979 L 451 979 L 213 518 L 451 61 L 322 61 L 88 514 Z M 406 514 L 406 526 L 639 979 L 768 979 L 530 518 L 768 61 L 639 61 L 406 514 Z" unicode="" />
<glyph horiz-adv-x="1536" d="M 213 727 L 213 920 L 1296 920 L 1296 352 L 1116 352 L 1116 727 L 213 727 Z" unicode="" />
<glyph horiz-adv-x="538" d="M 82 541 L 82 647 L 457 647 L 457 541 L 82 541 Z" unicode="" />
<glyph horiz-adv-x="1175" d="M 90 903 L 90 1081 C 90 1157 105 1224 135 1280 C 165 1336 204 1383 252 1423 C 300 1463 352 1491 410 1509 C 471 1528 530 1538 586 1538 C 626 1538 666 1534 705 1526 C 739 1519 777 1506 819 1487 C 847 1475 882 1453 922 1423 C 956 1397 984 1367 1008 1335 C 1032 1301 1051 1263 1065 1221 C 1078 1180 1085 1133 1085 1081 L 1085 903 C 1085 848 1078 800 1065 760 C 1051 718 1032 679 1008 645 C 982 608 953 578 922 555 C 888 529 853 508 819 494 C 782 477 744 465 705 457 C 667 449 627 444 586 444 C 526 444 467 453 410 471 C 350 490 297 518 252 555 C 205 593 166 641 135 700 C 105 756 90 823 90 903 Z M 170 907 C 170 837 181 779 205 733 C 229 683 261 644 299 614 C 343 580 387 556 432 543 C 484 527 535 520 586 520 C 636 520 688 527 741 543 C 787 555 833 578 877 614 C 915 644 946 683 971 733 C 994 779 1006 837 1006 907 L 1006 1077 C 1006 1143 994 1200 971 1247 C 947 1292 916 1332 877 1366 C 840 1396 795 1420 741 1438 C 689 1454 637 1462 586 1462 C 532 1462 481 1454 432 1438 C 378 1420 334 1396 299 1366 C 262 1334 231 1294 205 1245 C 181 1199 170 1143 170 1077 L 170 907 Z M 334 715 L 334 782 L 401 782 L 401 1217 L 334 1217 L 334 1288 L 618 1288 C 684 1288 735 1273 769 1243 C 803 1213 821 1172 821 1122 L 821 1106 C 821 1071 811 1040 791 1014 C 770 988 743 968 709 956 L 801 782 L 860 782 L 860 715 L 725 715 L 600 944 L 510 944 L 510 782 L 573 782 L 573 715 L 334 715 Z M 510 1020 L 610 1020 C 641 1020 666 1027 686 1042 C 704 1055 713 1077 713 1108 L 713 1122 C 713 1150 704 1172 686 1186 C 666 1201 641 1208 610 1208 L 510 1208 L 510 1020 Z" unicode="" />
<glyph horiz-adv-x="1024" d="M 244 1294 L 244 1409 L 778 1409 L 778 1294 L 244 1294 Z" unicode="" />
<glyph horiz-adv-x="735" d="M 90 1151 L 90 1247 C 90 1291 97 1329 111 1362 C 124 1396 143 1426 168 1452 C 192 1479 222 1499 256 1513 C 288 1526 326 1533 369 1534 C 413 1534 451 1527 483 1513 C 517 1499 546 1479 571 1452 C 593 1428 611 1398 627 1362 C 640 1329 647 1291 647 1247 L 647 1151 C 647 1105 640 1066 627 1034 C 610 994 591 964 571 944 C 547 920 518 901 483 887 C 450 873 412 866 369 866 C 327 866 289 873 256 887 C 222 902 192 921 168 944 C 144 967 125 997 111 1034 C 97 1066 90 1105 90 1151 Z M 207 1155 C 207 1092 221 1044 250 1012 C 278 979 318 963 368 963 C 418 963 458 979 487 1012 C 515 1044 530 1092 530 1155 L 530 1245 C 530 1307 515 1355 487 1388 C 458 1421 418 1438 368 1438 C 318 1438 278 1421 250 1388 C 221 1355 207 1307 207 1245 L 207 1155 Z" unicode="" />
<glyph horiz-adv-x="1536" d="M 201 764 L 201 936 L 672 936 L 672 1352 L 864 1352 L 864 936 L 1339 936 L 1339 764 L 864 764 L 864 352 L 672 352 L 672 764 L 201 764 Z M 205 25 L 205 215 L 1335 215 L 1335 25 L 205 25 Z" unicode="" />
<glyph horiz-adv-x="894" d="M 55 629 L 55 768 L 399 1108 C 451 1157 488 1198 512 1231 C 539 1269 553 1309 553 1352 C 553 1387 537 1415 506 1436 C 473 1458 437 1468 399 1468 C 361 1468 320 1455 276 1430 C 239 1408 204 1380 172 1348 L 63 1456 C 105 1501 157 1539 219 1571 C 283 1603 352 1620 428 1620 C 522 1620 598 1593 657 1540 C 717 1486 747 1421 748 1343 C 748 1272 717 1203 657 1135 C 595 1065 540 1013 492 977 L 268 788 L 776 788 L 776 629 L 55 629 Z" unicode="" />
<glyph horiz-adv-x="894" d="M 47 731 L 152 864 C 190 835 234 813 285 797 C 327 783 373 776 424 776 C 490 776 539 789 571 817 C 603 845 620 882 621 928 C 621 978 598 1016 553 1040 C 511 1063 455 1075 385 1075 L 311 1075 L 311 1204 L 373 1204 C 438 1204 490 1216 530 1241 C 568 1265 587 1297 588 1335 C 588 1379 571 1409 537 1427 C 501 1446 460 1456 412 1456 C 364 1456 317 1447 272 1430 C 231 1413 199 1398 176 1384 L 88 1516 C 148 1552 208 1579 268 1595 C 329 1611 389 1620 449 1620 C 547 1620 625 1598 684 1556 C 742 1514 772 1454 772 1376 C 772 1310 751 1259 711 1223 C 674 1189 622 1164 555 1149 C 625 1141 686 1117 737 1079 C 786 1042 811 983 811 903 C 811 811 774 740 700 688 C 627 637 538 612 432 612 C 343 612 268 623 207 645 C 143 667 90 696 47 731 Z" unicode="" />
<glyph horiz-adv-x="1003" d="M 436 1190 L 590 1511 L 741 1511 L 557 1190 L 436 1190 Z" unicode="" />
<glyph horiz-adv-x="1406" d="M 139 -281 C 139 -249 140 -191 143 -106 C 145 -42 150 26 156 100 C 162 168 166 220 168 256 C 168 265 168 275 169 287 C 169 299 170 308 171 314 C 171 320 172 325 172 328 C 172 332 172 336 173 340 C 173 344 174 347 175 350 C 175 352 176 354 176 356 L 176 1176 L 369 1176 L 369 319 C 369 257 396 210 450 176 C 504 142 564 125 629 125 C 715 125 791 146 858 190 C 920 230 970 294 1008 381 L 1008 1176 L 1200 1176 L 1200 307 L 1221 0 L 1057 0 L 1020 176 C 974 105 913 51 835 14 C 757 -22 669 -41 571 -41 C 542 -41 500 -32 444 -14 C 392 2 352 27 324 59 C 324 1 333 -55 352 -113 C 371 -170 381 -220 381 -264 C 381 -370 338 -424 252 -424 C 215 -424 187 -413 168 -391 C 148 -369 139 -333 139 -281 Z" unicode="" />
<glyph horiz-adv-x="1142" d="M 74 1124 L 74 1159 C 74 1212 82 1259 100 1300 C 119 1344 146 1381 182 1413 C 218 1444 262 1468 315 1485 C 372 1503 434 1511 500 1511 L 1090 1511 L 1090 1409 L 918 1409 L 918 -102 L 1090 -102 L 1090 -201 L 801 -201 L 801 1405 L 616 1405 L 616 -201 L 324 -201 L 324 -102 L 500 -102 L 500 782 C 434 782 375 790 322 807 C 267 823 222 847 186 877 C 146 909 118 945 102 983 C 83 1027 74 1074 74 1124 Z" unicode="" />
<glyph horiz-adv-x="382" d="M 98 580 C 98 592 100 604 104 616 C 106 624 113 633 125 645 C 134 654 144 661 156 666 C 168 670 180 672 192 672 C 204 672 217 670 229 666 C 237 663 246 656 257 645 C 268 634 275 624 279 616 C 283 604 285 592 285 580 C 285 552 276 530 258 512 C 241 495 219 487 193 487 C 166 487 143 495 125 512 C 107 528 98 551 98 580 Z" unicode="" />
<glyph horiz-adv-x="1091" d="M 328 -383 L 360 -307 C 369 -311 385 -316 408 -322 C 432 -327 453 -330 469 -330 C 508 -330 537 -324 557 -313 C 576 -302 586 -284 586 -260 L 586 -252 C 586 -235 583 -223 578 -217 C 570 -206 561 -199 551 -197 C 535 -191 519 -188 502 -186 C 488 -184 464 -184 430 -184 L 412 -141 L 528 0 L 637 0 L 539 -115 C 595 -119 636 -132 662 -154 C 689 -177 702 -210 702 -252 L 702 -264 C 702 -312 683 -349 647 -377 C 611 -403 560 -416 494 -416 C 454 -416 421 -412 393 -406 C 370 -400 348 -392 328 -383 Z" unicode="" />
<glyph horiz-adv-x="768" d="M 143 1384 L 143 1528 L 391 1636 L 508 1636 L 508 629 L 324 629 L 324 1423 L 143 1384 Z" unicode="" />
<glyph horiz-adv-x="1011" d="M 78 995 L 78 1083 C 78 1155 89 1218 111 1272 C 133 1328 163 1374 201 1411 C 240 1450 286 1480 338 1501 C 388 1521 444 1532 506 1532 C 566 1532 622 1521 676 1501 C 726 1481 772 1451 813 1411 C 849 1374 879 1328 903 1272 C 925 1218 936 1155 936 1083 L 936 995 C 936 922 925 859 903 807 C 879 749 849 702 813 666 C 772 625 726 595 676 575 C 622 554 566 544 506 545 C 444 545 388 555 338 575 C 286 595 240 626 201 666 C 164 702 134 749 111 807 C 89 859 78 922 78 995 Z M 203 997 C 203 941 209 892 223 852 C 237 808 258 771 285 741 C 309 712 341 689 381 672 C 417 655 459 647 505 647 C 551 647 593 655 630 671 C 667 687 699 711 725 741 C 751 771 772 808 786 852 C 799 892 806 941 807 997 L 807 1081 C 807 1137 800 1185 786 1227 C 771 1270 751 1307 725 1337 C 699 1367 667 1390 630 1407 C 593 1423 551 1432 505 1432 C 459 1432 417 1423 381 1407 C 341 1389 309 1365 285 1337 C 258 1306 237 1269 223 1227 C 209 1186 203 1137 203 1081 L 203 997 Z" unicode="" />
<glyph horiz-adv-x="847" d="M 80 61 L 317 522 L 80 979 L 209 979 L 442 526 L 442 514 L 209 61 L 80 61 Z M 397 61 L 635 522 L 397 979 L 526 979 L 760 526 L 760 514 L 526 61 L 397 61 Z" unicode="" />
<glyph horiz-adv-x="1918" d="M 113 1384 L 113 1528 L 360 1636 L 475 1636 L 475 629 L 293 629 L 293 1423 L 113 1384 Z M 369 0 L 1339 1524 L 1520 1524 L 549 0 L 369 0 Z M 1061 219 L 1061 360 L 1511 981 L 1724 981 L 1724 377 L 1843 377 L 1843 219 L 1724 219 L 1724 0 L 1540 0 L 1540 219 L 1061 219 Z M 1260 369 L 1540 369 L 1540 768 L 1260 369 Z" unicode="" />
<glyph horiz-adv-x="1918" d="M 88 1384 L 88 1528 L 336 1636 L 453 1636 L 453 629 L 268 629 L 268 1423 L 88 1384 Z M 276 0 L 1247 1524 L 1427 1524 L 457 0 L 276 0 Z M 1137 0 L 1137 139 L 1481 479 C 1528 524 1565 565 1591 602 C 1618 640 1632 681 1632 725 C 1632 760 1616 788 1585 809 C 1555 829 1520 840 1481 840 C 1439 840 1397 827 1356 803 C 1318 781 1283 753 1251 721 L 1145 827 C 1187 872 1238 910 1300 942 C 1364 974 1433 991 1507 991 C 1602 991 1679 964 1739 911 C 1799 857 1829 793 1829 717 C 1829 644 1799 574 1739 506 C 1677 436 1622 384 1573 348 L 1348 160 L 1855 160 L 1855 0 L 1137 0 Z" unicode="" />
<glyph horiz-adv-x="1918" d="M 47 731 L 152 864 C 190 835 234 813 285 797 C 327 783 373 776 424 776 C 490 776 539 789 571 817 C 603 845 620 882 621 928 C 621 978 598 1016 553 1040 C 511 1063 455 1075 385 1075 L 311 1075 L 311 1204 L 373 1204 C 438 1204 490 1216 530 1241 C 568 1265 587 1297 588 1335 C 588 1379 571 1409 537 1427 C 501 1446 460 1456 412 1456 C 364 1456 317 1447 272 1430 C 231 1413 199 1398 176 1384 L 88 1516 C 148 1552 208 1579 268 1595 C 329 1611 389 1620 449 1620 C 547 1620 625 1598 684 1556 C 742 1514 772 1454 772 1376 C 772 1310 751 1259 711 1223 C 674 1189 622 1164 555 1149 C 625 1141 686 1117 737 1079 C 786 1042 811 983 811 903 C 811 811 774 740 700 688 C 627 637 538 612 432 612 C 343 612 268 623 207 645 C 143 667 90 696 47 731 Z M 440 0 L 1411 1524 L 1591 1524 L 621 0 L 440 0 Z M 1083 219 L 1083 360 L 1536 981 L 1749 981 L 1749 377 L 1868 377 L 1868 219 L 1749 219 L 1749 0 L 1565 0 L 1565 219 L 1083 219 Z M 1284 369 L 1565 369 L 1565 768 L 1284 369 Z" unicode="" />
<glyph horiz-adv-x="923" d="M 111 84 L 111 119 C 111 159 115 196 123 229 C 129 255 142 285 162 319 C 177 345 198 371 225 399 C 249 422 279 447 313 475 C 349 505 377 529 395 547 C 417 569 434 590 446 610 C 459 634 468 655 473 672 C 478 699 481 722 481 741 L 481 893 L 594 893 L 594 735 C 594 699 590 666 584 635 C 578 609 567 581 551 551 C 535 523 515 497 489 473 C 463 449 431 422 395 391 C 362 363 340 344 330 334 C 310 314 295 294 283 274 C 272 254 263 232 256 207 C 249 179 246 151 246 121 L 246 94 C 246 58 250 26 258 -2 C 266 -29 279 -52 299 -72 C 317 -90 341 -104 373 -115 C 400 -124 436 -129 481 -129 C 517 -129 549 -126 575 -121 C 597 -117 623 -108 655 -94 C 679 -84 702 -71 723 -57 C 750 -37 770 -23 782 -14 L 848 -102 C 831 -118 808 -136 780 -154 C 747 -174 718 -189 694 -199 C 657 -214 623 -225 592 -232 C 560 -238 521 -242 473 -242 C 422 -242 375 -235 332 -223 C 290 -211 251 -191 217 -164 C 184 -136 158 -102 139 -61 C 120 -19 111 29 111 84 Z M 444 1210 C 444 1238 452 1261 469 1278 C 485 1294 508 1303 537 1303 C 563 1303 586 1294 604 1278 C 622 1261 631 1238 631 1210 C 631 1198 629 1186 625 1174 C 622 1166 615 1156 604 1145 C 594 1135 584 1128 573 1124 C 561 1120 548 1118 536 1118 C 524 1118 512 1120 500 1124 C 492 1126 482 1133 471 1144 C 460 1155 453 1165 451 1174 C 446 1186 444 1198 444 1210 Z" unicode="" />
<glyph horiz-adv-x="1562" d="M 53 0 L 53 98 L 215 98 L 680 1409 L 483 1409 L 483 1511 L 840 1511 L 1350 98 L 1509 98 L 1509 0 L 1016 0 L 1016 98 L 1202 98 L 1085 432 L 459 432 L 340 98 L 514 98 L 514 0 L 53 0 Z M 494 530 L 1051 530 L 778 1315 L 772 1315 L 494 530 Z M 520 1962 L 672 1962 L 825 1640 L 705 1640 L 520 1962 Z" unicode="" />
<glyph horiz-adv-x="1562" d="M 53 0 L 53 98 L 215 98 L 680 1409 L 483 1409 L 483 1511 L 840 1511 L 1350 98 L 1509 98 L 1509 0 L 1016 0 L 1016 98 L 1202 98 L 1085 432 L 459 432 L 340 98 L 514 98 L 514 0 L 53 0 Z M 494 530 L 1051 530 L 778 1315 L 772 1315 L 494 530 Z M 705 1640 L 858 1962 L 1010 1962 L 825 1640 L 705 1640 Z" unicode="" />
<glyph horiz-adv-x="1562" d="M 53 0 L 53 98 L 215 98 L 680 1409 L 483 1409 L 483 1511 L 840 1511 L 1350 98 L 1509 98 L 1509 0 L 1016 0 L 1016 98 L 1202 98 L 1085 432 L 459 432 L 340 98 L 514 98 L 514 0 L 53 0 Z M 481 1640 L 707 1962 L 811 1962 L 1038 1640 L 915 1640 L 760 1843 L 604 1640 L 481 1640 Z M 494 530 L 1051 530 L 778 1315 L 772 1315 L 494 530 Z" unicode="" />
<glyph horiz-adv-x="1562" d="M 53 0 L 53 98 L 215 98 L 680 1409 L 483 1409 L 483 1511 L 840 1511 L 1350 98 L 1509 98 L 1509 0 L 1016 0 L 1016 98 L 1202 98 L 1085 432 L 459 432 L 340 98 L 514 98 L 514 0 L 53 0 Z M 457 1692 C 477 1739 502 1776 530 1802 C 557 1828 595 1841 645 1841 C 665 1841 687 1837 711 1831 C 729 1825 748 1818 770 1808 C 788 1800 806 1792 825 1786 C 843 1779 858 1776 872 1776 C 892 1776 910 1782 924 1796 C 940 1812 954 1831 965 1851 L 1065 1806 C 1044 1759 1019 1723 991 1698 C 961 1670 923 1657 877 1657 C 856 1657 834 1660 811 1667 C 789 1673 768 1681 750 1690 C 732 1698 713 1705 694 1712 C 676 1718 660 1722 647 1722 C 626 1722 609 1715 596 1702 C 584 1690 571 1671 557 1647 L 457 1692 Z M 494 530 L 1051 530 L 778 1315 L 772 1315 L 494 530 Z" unicode="" />
<glyph horiz-adv-x="1562" d="M 53 0 L 53 98 L 215 98 L 680 1409 L 483 1409 L 483 1511 L 840 1511 L 1350 98 L 1509 98 L 1509 0 L 1016 0 L 1016 98 L 1202 98 L 1085 432 L 459 432 L 340 98 L 514 98 L 514 0 L 53 0 Z M 494 530 L 1051 530 L 778 1315 L 772 1315 L 494 530 Z M 494 1769 C 494 1778 496 1790 502 1804 C 507 1818 513 1828 520 1835 C 530 1845 541 1852 551 1855 C 563 1859 574 1861 586 1862 C 598 1862 610 1859 623 1855 C 631 1852 640 1845 651 1835 C 660 1825 667 1815 672 1804 C 676 1794 678 1783 678 1769 C 678 1758 676 1747 672 1735 C 669 1725 662 1715 651 1704 C 643 1696 633 1690 623 1686 C 606 1680 594 1677 586 1677 C 579 1677 567 1680 551 1686 C 539 1690 528 1696 520 1704 C 512 1712 506 1722 502 1735 C 496 1751 494 1762 494 1769 Z M 842 1769 C 842 1778 844 1790 850 1804 C 855 1818 861 1828 868 1835 C 878 1845 888 1852 897 1855 C 909 1859 921 1861 934 1862 C 946 1862 958 1859 971 1855 C 979 1852 988 1845 999 1835 C 1008 1825 1015 1815 1020 1804 C 1024 1794 1026 1783 1026 1769 C 1026 1758 1024 1747 1020 1735 C 1017 1725 1010 1715 999 1704 C 991 1696 981 1690 971 1686 C 954 1680 942 1677 934 1677 C 926 1677 913 1680 897 1686 C 886 1690 876 1696 868 1704 C 860 1712 854 1722 850 1735 C 844 1751 842 1762 842 1769 Z" unicode="" />
<glyph horiz-adv-x="1562" d="M 53 0 L 53 98 L 215 98 L 680 1409 L 483 1409 L 483 1511 L 840 1511 L 1350 98 L 1509 98 L 1509 0 L 1016 0 L 1016 98 L 1202 98 L 1085 432 L 459 432 L 340 98 L 514 98 L 514 0 L 53 0 Z M 494 530 L 1051 530 L 778 1315 L 772 1315 L 494 530 Z M 551 1823 L 551 1841 C 551 1877 557 1909 569 1935 C 584 1966 600 1989 616 2003 C 638 2021 660 2033 682 2040 C 706 2048 732 2052 760 2052 C 787 2052 813 2048 838 2040 C 864 2032 885 2019 903 2003 C 921 1986 936 1963 950 1935 C 962 1909 968 1877 969 1841 L 969 1823 C 969 1787 962 1756 950 1729 C 938 1701 922 1679 903 1663 C 885 1646 863 1634 838 1626 C 813 1618 787 1614 760 1614 C 732 1614 706 1618 682 1626 C 660 1632 638 1645 616 1663 C 598 1676 582 1698 569 1729 C 557 1756 551 1787 551 1823 Z M 655 1825 C 655 1781 664 1749 682 1731 C 700 1710 726 1700 760 1700 C 791 1700 816 1710 836 1731 C 855 1753 864 1784 864 1825 L 864 1839 C 864 1881 854 1913 836 1935 C 816 1955 791 1966 760 1966 C 726 1966 700 1955 682 1935 C 664 1915 655 1883 655 1839 L 655 1825 Z" unicode="" />
<glyph horiz-adv-x="2084" d="M 53 0 L 53 98 L 207 98 L 791 1409 L 582 1409 L 582 1511 L 1976 1511 L 1976 1161 L 1872 1161 L 1860 1407 L 1200 1407 L 1200 834 L 1579 834 L 1591 999 L 1690 999 L 1690 547 L 1591 547 L 1577 729 L 1200 729 L 1200 104 L 1898 104 L 1915 371 L 2019 371 L 2019 0 L 866 0 L 866 98 L 1063 98 L 1063 432 L 481 432 L 332 98 L 514 98 L 514 0 L 53 0 Z M 524 530 L 1063 530 L 1063 1407 L 920 1407 L 524 530 Z" unicode="" />
<glyph horiz-adv-x="1314" d="M 111 674 L 111 850 C 111 964 126 1065 158 1153 C 189 1240 230 1311 281 1366 C 333 1422 393 1463 461 1491 C 530 1518 602 1532 676 1532 C 725 1532 770 1528 811 1520 C 855 1512 892 1501 922 1487 C 950 1475 978 1457 1006 1434 C 1028 1416 1049 1392 1069 1362 C 1069 1368 1069 1377 1071 1388 C 1072 1399 1073 1408 1073 1415 C 1075 1433 1077 1450 1079 1464 C 1080 1476 1082 1486 1085 1496 C 1088 1506 1092 1511 1096 1511 L 1190 1511 L 1190 1145 L 1075 1145 C 1046 1239 999 1308 934 1352 C 867 1396 784 1417 684 1417 C 625 1417 569 1406 516 1386 C 464 1365 418 1332 379 1288 C 337 1240 305 1181 285 1112 C 261 1035 250 945 250 842 L 250 682 C 250 576 261 486 285 410 C 308 336 339 275 379 229 C 419 182 468 149 524 129 C 581 108 643 98 711 98 C 775 98 826 103 864 115 C 909 127 948 142 981 162 C 1013 180 1042 201 1067 223 C 1091 246 1113 268 1133 289 L 1223 207 C 1207 186 1183 161 1151 131 C 1129 110 1095 87 1051 61 C 1012 38 967 20 915 6 C 857 -10 798 -19 737 -20 L 657 -115 C 713 -119 754 -132 780 -154 C 807 -177 821 -210 821 -252 L 821 -264 C 821 -312 802 -349 766 -377 C 730 -403 679 -416 612 -416 C 572 -416 539 -412 512 -406 C 488 -400 466 -393 446 -383 L 479 -307 C 488 -311 504 -316 526 -322 C 550 -327 571 -330 588 -330 C 627 -330 656 -324 676 -313 C 695 -302 705 -284 705 -260 L 705 -252 C 705 -235 702 -223 696 -217 C 688 -206 679 -199 670 -197 C 654 -191 638 -188 621 -186 C 607 -184 583 -184 549 -184 L 530 -141 L 633 -16 C 556 -10 484 8 418 41 C 354 72 299 116 254 174 C 206 234 170 304 147 385 C 123 469 111 566 111 674 Z" unicode="" />
<glyph horiz-adv-x="1271" d="M 53 0 L 53 98 L 250 98 L 250 1409 L 53 1409 L 53 1511 L 1163 1511 L 1163 1161 L 1059 1161 L 1047 1407 L 387 1407 L 387 834 L 766 834 L 778 999 L 877 999 L 877 547 L 778 547 L 764 729 L 387 729 L 387 104 L 1085 104 L 1102 371 L 1206 371 L 1206 0 L 53 0 Z M 457 1962 L 608 1962 L 762 1640 L 641 1640 L 457 1962 Z" unicode="" />
<glyph horiz-adv-x="1271" d="M 53 0 L 53 98 L 250 98 L 250 1409 L 53 1409 L 53 1511 L 1163 1511 L 1163 1161 L 1059 1161 L 1047 1407 L 387 1407 L 387 834 L 766 834 L 778 999 L 877 999 L 877 547 L 778 547 L 764 729 L 387 729 L 387 104 L 1085 104 L 1102 371 L 1206 371 L 1206 0 L 53 0 Z M 610 1640 L 764 1962 L 915 1962 L 731 1640 L 610 1640 Z" unicode="" />
<glyph horiz-adv-x="1271" d="M 53 0 L 53 98 L 250 98 L 250 1409 L 53 1409 L 53 1511 L 1163 1511 L 1163 1161 L 1059 1161 L 1047 1407 L 387 1407 L 387 834 L 766 834 L 778 999 L 877 999 L 877 547 L 778 547 L 764 729 L 387 729 L 387 104 L 1085 104 L 1102 371 L 1206 371 L 1206 0 L 53 0 Z M 385 1640 L 610 1962 L 715 1962 L 942 1640 L 819 1640 L 664 1843 L 508 1640 L 385 1640 Z" unicode="" />
<glyph horiz-adv-x="1271" d="M 53 0 L 53 98 L 250 98 L 250 1409 L 53 1409 L 53 1511 L 1163 1511 L 1163 1161 L 1059 1161 L 1047 1407 L 387 1407 L 387 834 L 766 834 L 778 999 L 877 999 L 877 547 L 778 547 L 764 729 L 387 729 L 387 104 L 1085 104 L 1102 371 L 1206 371 L 1206 0 L 53 0 Z M 424 1769 C 424 1782 426 1794 430 1804 C 434 1814 441 1825 451 1835 C 461 1845 471 1852 479 1855 C 491 1859 503 1861 516 1862 C 528 1862 540 1859 553 1855 C 561 1852 570 1845 582 1835 C 588 1828 594 1818 600 1804 C 605 1790 608 1779 608 1769 C 608 1762 605 1751 600 1735 C 596 1723 589 1712 581 1704 C 573 1696 563 1690 553 1686 C 536 1680 524 1677 516 1677 C 508 1677 495 1680 479 1686 C 468 1690 459 1696 451 1704 C 440 1714 433 1725 430 1735 C 426 1747 424 1758 424 1769 Z M 772 1769 C 772 1782 774 1794 778 1804 C 782 1814 789 1825 799 1835 C 809 1845 819 1852 827 1855 C 839 1859 851 1861 864 1862 C 874 1862 886 1859 899 1855 C 908 1852 918 1845 930 1835 C 936 1828 942 1818 948 1804 C 953 1790 956 1779 956 1769 C 956 1762 953 1751 948 1735 C 944 1723 938 1712 930 1704 C 922 1696 911 1690 899 1686 C 882 1680 870 1677 864 1677 C 856 1677 843 1680 827 1686 C 816 1690 807 1696 799 1704 C 788 1714 781 1725 778 1735 C 774 1747 772 1758 772 1769 Z" unicode="" />
<glyph horiz-adv-x="655" d="M 53 0 L 53 98 L 260 98 L 260 1409 L 53 1409 L 53 1511 L 604 1511 L 604 1409 L 397 1409 L 397 98 L 604 98 L 604 0 L 53 0 Z M 109 1962 L 260 1962 L 414 1640 L 293 1640 L 109 1962 Z" unicode="" />
<glyph horiz-adv-x="655" d="M 53 0 L 53 98 L 260 98 L 260 1409 L 53 1409 L 53 1511 L 604 1511 L 604 1409 L 397 1409 L 397 98 L 604 98 L 604 0 L 53 0 Z M 252 1640 L 406 1962 L 557 1962 L 373 1640 L 252 1640 Z" unicode="" />
<glyph horiz-adv-x="655" d="M 49 1640 L 274 1962 L 379 1962 L 606 1640 L 483 1640 L 328 1843 L 172 1640 L 49 1640 Z M 53 0 L 53 98 L 260 98 L 260 1409 L 53 1409 L 53 1511 L 604 1511 L 604 1409 L 397 1409 L 397 98 L 604 98 L 604 0 L 53 0 Z" unicode="" />
<glyph horiz-adv-x="655" d="M 53 0 L 53 98 L 260 98 L 260 1409 L 53 1409 L 53 1511 L 604 1511 L 604 1409 L 397 1409 L 397 98 L 604 98 L 604 0 L 53 0 Z M 61 1769 C 61 1782 63 1794 68 1804 C 72 1814 78 1824 88 1834 C 97 1844 107 1851 117 1855 C 127 1859 139 1861 154 1862 C 166 1862 178 1859 190 1855 C 198 1852 207 1845 219 1835 C 228 1825 235 1815 240 1804 C 244 1794 246 1783 246 1769 C 246 1758 244 1747 240 1735 C 236 1725 229 1715 219 1704 C 209 1696 200 1690 190 1686 C 173 1680 161 1677 154 1677 C 143 1677 131 1680 117 1686 C 106 1690 96 1696 88 1704 C 78 1714 72 1725 68 1735 C 63 1747 61 1758 61 1769 Z M 410 1769 C 410 1778 412 1790 418 1804 C 423 1818 429 1828 436 1835 C 445 1845 455 1852 467 1855 C 479 1859 490 1861 502 1862 C 514 1862 526 1859 539 1855 C 547 1852 556 1845 567 1835 C 576 1825 583 1815 588 1804 C 592 1794 594 1783 594 1769 C 594 1758 592 1747 588 1735 C 584 1725 577 1715 567 1704 C 557 1696 548 1690 539 1686 C 522 1680 510 1677 502 1677 C 495 1677 483 1680 467 1686 C 455 1690 444 1696 436 1704 C 428 1712 422 1722 418 1735 C 412 1751 410 1762 410 1769 Z" unicode="" />
<glyph horiz-adv-x="1429" d="M 53 0 L 53 98 L 250 98 L 250 713 L 59 713 L 59 815 L 250 815 L 250 1409 L 53 1409 L 53 1511 L 690 1511 C 780 1511 863 1498 940 1473 C 1022 1444 1089 1405 1141 1356 C 1199 1300 1243 1233 1272 1155 C 1303 1071 1319 976 1319 868 L 1319 649 C 1319 538 1303 441 1272 358 C 1242 278 1198 211 1141 156 C 1089 106 1022 67 940 39 C 863 13 780 0 690 0 L 53 0 Z M 387 104 L 678 104 C 752 104 817 113 874 133 C 932 152 985 184 1032 229 C 1077 271 1113 328 1141 401 C 1167 469 1180 554 1180 657 L 1180 860 C 1180 962 1167 1048 1141 1116 C 1115 1182 1078 1238 1032 1284 C 984 1329 931 1360 874 1378 C 810 1397 744 1407 678 1407 L 387 1407 L 387 815 L 801 815 L 801 713 L 387 713 L 387 104 Z" unicode="" />
<glyph horiz-adv-x="1562" d="M 53 0 L 53 98 L 250 98 L 250 1409 L 53 1409 L 53 1511 L 432 1511 L 1198 221 L 1206 221 L 1206 1409 L 1018 1409 L 1018 1511 L 1509 1511 L 1509 1409 L 1327 1409 L 1327 0 L 1186 0 L 379 1352 L 371 1352 L 371 98 L 559 98 L 559 0 L 53 0 Z M 483 1692 C 503 1739 528 1776 557 1802 C 584 1828 622 1841 672 1841 C 692 1841 714 1837 737 1831 C 755 1825 775 1818 797 1808 C 815 1800 833 1792 852 1786 C 870 1779 885 1776 899 1776 C 921 1776 938 1782 952 1796 C 964 1808 977 1826 991 1851 L 1092 1806 C 1071 1759 1046 1723 1018 1698 C 988 1670 949 1657 903 1657 C 882 1657 860 1660 838 1667 C 816 1673 795 1681 776 1690 C 751 1700 733 1708 723 1712 C 705 1718 688 1722 674 1722 C 653 1722 636 1715 623 1702 C 611 1690 598 1671 584 1647 L 483 1692 Z" unicode="" />
<glyph horiz-adv-x="1441" d="M 111 674 L 111 844 C 111 958 127 1059 160 1145 C 192 1229 237 1301 293 1360 C 347 1417 412 1460 487 1489 C 561 1517 639 1532 721 1532 C 804 1532 882 1517 956 1489 C 1031 1460 1096 1417 1151 1360 C 1205 1304 1249 1232 1282 1145 C 1314 1059 1331 958 1331 844 L 1331 674 C 1331 556 1314 455 1282 369 C 1248 279 1204 206 1151 152 C 1096 94 1031 51 956 23 C 882 -5 803 -20 721 -20 C 639 -20 561 -5 487 23 C 411 51 347 94 293 152 C 237 209 192 281 160 369 C 127 455 111 556 111 674 Z M 250 682 C 250 578 263 487 289 410 C 312 339 346 279 391 229 C 435 179 485 145 541 127 C 602 105 662 94 721 94 C 779 94 839 105 901 127 C 957 146 1007 180 1051 229 C 1096 278 1130 338 1153 410 C 1179 488 1192 578 1192 682 L 1192 836 C 1192 938 1179 1028 1153 1106 C 1128 1181 1094 1241 1051 1286 C 1005 1334 955 1367 901 1386 C 843 1406 783 1417 721 1417 C 658 1417 598 1406 541 1386 C 486 1366 436 1333 391 1286 C 347 1240 313 1180 289 1106 C 263 1028 250 938 250 836 L 250 682 Z M 502 1962 L 653 1962 L 807 1640 L 686 1640 L 502 1962 Z" unicode="" />
<glyph horiz-adv-x="1441" d="M 111 674 L 111 844 C 111 958 127 1059 160 1145 C 192 1229 237 1301 293 1360 C 347 1417 412 1460 487 1489 C 561 1517 639 1532 721 1532 C 804 1532 882 1517 956 1489 C 1031 1460 1096 1417 1151 1360 C 1205 1304 1249 1232 1282 1145 C 1314 1059 1331 958 1331 844 L 1331 674 C 1331 556 1314 455 1282 369 C 1248 279 1204 206 1151 152 C 1096 94 1031 51 956 23 C 882 -5 803 -20 721 -20 C 639 -20 561 -5 487 23 C 411 51 347 94 293 152 C 237 209 192 281 160 369 C 127 455 111 556 111 674 Z M 250 682 C 250 578 263 487 289 410 C 312 339 346 279 391 229 C 435 179 485 145 541 127 C 602 105 662 94 721 94 C 779 94 839 105 901 127 C 957 146 1007 180 1051 229 C 1096 278 1130 338 1153 410 C 1179 488 1192 578 1192 682 L 1192 836 C 1192 938 1179 1028 1153 1106 C 1128 1181 1094 1241 1051 1286 C 1005 1334 955 1367 901 1386 C 843 1406 783 1417 721 1417 C 658 1417 598 1406 541 1386 C 486 1366 436 1333 391 1286 C 347 1240 313 1180 289 1106 C 263 1028 250 938 250 836 L 250 682 Z M 645 1640 L 799 1962 L 950 1962 L 766 1640 L 645 1640 Z" unicode="" />
<glyph horiz-adv-x="1441" d="M 111 674 L 111 844 C 111 958 127 1059 160 1145 C 192 1229 237 1301 293 1360 C 347 1417 412 1460 487 1489 C 561 1517 639 1532 721 1532 C 804 1532 882 1517 956 1489 C 1031 1460 1096 1417 1151 1360 C 1205 1304 1249 1232 1282 1145 C 1314 1059 1331 958 1331 844 L 1331 674 C 1331 556 1314 455 1282 369 C 1248 279 1204 206 1151 152 C 1096 94 1031 51 956 23 C 882 -5 803 -20 721 -20 C 639 -20 561 -5 487 23 C 411 51 347 94 293 152 C 237 209 192 281 160 369 C 127 455 111 556 111 674 Z M 250 682 C 250 578 263 487 289 410 C 312 339 346 279 391 229 C 435 179 485 145 541 127 C 602 105 662 94 721 94 C 779 94 839 105 901 127 C 957 146 1007 180 1051 229 C 1096 278 1130 338 1153 410 C 1179 488 1192 578 1192 682 L 1192 836 C 1192 938 1179 1028 1153 1106 C 1128 1181 1094 1241 1051 1286 C 1005 1334 955 1367 901 1386 C 843 1406 783 1417 721 1417 C 658 1417 598 1406 541 1386 C 486 1366 436 1333 391 1286 C 347 1240 313 1180 289 1106 C 263 1028 250 938 250 836 L 250 682 Z M 442 1640 L 668 1962 L 772 1962 L 999 1640 L 877 1640 L 721 1843 L 565 1640 L 442 1640 Z" unicode="" />
<glyph horiz-adv-x="1441" d="M 111 674 L 111 844 C 111 958 127 1059 160 1145 C 192 1229 237 1301 293 1360 C 347 1417 412 1460 487 1489 C 561 1517 639 1532 721 1532 C 804 1532 882 1517 956 1489 C 1031 1460 1096 1417 1151 1360 C 1205 1304 1249 1232 1282 1145 C 1314 1059 1331 958 1331 844 L 1331 674 C 1331 556 1314 455 1282 369 C 1248 279 1204 206 1151 152 C 1096 94 1031 51 956 23 C 882 -5 803 -20 721 -20 C 639 -20 561 -5 487 23 C 411 51 347 94 293 152 C 237 209 192 281 160 369 C 127 455 111 556 111 674 Z M 250 682 C 250 578 263 487 289 410 C 312 339 346 279 391 229 C 435 179 485 145 541 127 C 602 105 662 94 721 94 C 779 94 839 105 901 127 C 957 146 1007 180 1051 229 C 1096 278 1130 338 1153 410 C 1179 488 1192 578 1192 682 L 1192 836 C 1192 938 1179 1028 1153 1106 C 1128 1181 1094 1241 1051 1286 C 1005 1334 955 1367 901 1386 C 843 1406 783 1417 721 1417 C 658 1417 598 1406 541 1386 C 486 1366 436 1333 391 1286 C 347 1240 313 1180 289 1106 C 263 1028 250 938 250 836 L 250 682 Z M 426 1692 C 446 1739 471 1776 500 1802 C 527 1828 565 1841 614 1841 C 634 1841 656 1837 680 1831 C 698 1825 717 1818 739 1808 C 763 1797 781 1790 793 1786 C 811 1779 827 1776 842 1776 C 864 1776 881 1782 895 1796 C 907 1808 920 1826 934 1851 L 1034 1806 C 1013 1759 989 1723 961 1698 C 931 1670 892 1657 846 1657 C 825 1657 803 1660 780 1667 C 762 1672 742 1680 721 1690 C 700 1699 681 1706 664 1712 C 643 1718 627 1722 616 1722 C 595 1722 578 1715 565 1702 C 553 1690 540 1671 526 1647 L 426 1692 Z" unicode="" />
<glyph horiz-adv-x="1441" d="M 111 674 L 111 844 C 111 958 127 1059 160 1145 C 192 1229 237 1301 293 1360 C 347 1417 412 1460 487 1489 C 561 1517 639 1532 721 1532 C 804 1532 882 1517 956 1489 C 1031 1460 1096 1417 1151 1360 C 1205 1304 1249 1232 1282 1145 C 1314 1059 1331 958 1331 844 L 1331 674 C 1331 556 1314 455 1282 369 C 1248 279 1204 206 1151 152 C 1096 94 1031 51 956 23 C 882 -5 803 -20 721 -20 C 639 -20 561 -5 487 23 C 411 51 347 94 293 152 C 237 209 192 281 160 369 C 127 455 111 556 111 674 Z M 250 682 C 250 578 263 487 289 410 C 312 339 346 279 391 229 C 435 179 485 145 541 127 C 602 105 662 94 721 94 C 779 94 839 105 901 127 C 957 146 1007 180 1051 229 C 1096 278 1130 338 1153 410 C 1179 488 1192 578 1192 682 L 1192 836 C 1192 938 1179 1028 1153 1106 C 1128 1181 1094 1241 1051 1286 C 1005 1334 955 1367 901 1386 C 843 1406 783 1417 721 1417 C 658 1417 598 1406 541 1386 C 486 1366 436 1333 391 1286 C 347 1240 313 1180 289 1106 C 263 1028 250 938 250 836 L 250 682 Z M 455 1769 C 455 1778 457 1790 463 1804 C 468 1818 474 1828 481 1835 C 490 1845 500 1852 512 1855 C 524 1859 535 1861 547 1862 C 559 1862 571 1859 584 1855 C 592 1852 601 1845 612 1835 C 621 1825 628 1815 633 1804 C 637 1794 639 1783 639 1769 C 639 1758 637 1747 633 1735 C 629 1725 622 1715 612 1704 C 602 1696 593 1690 584 1686 C 567 1680 555 1677 547 1677 C 540 1677 528 1680 512 1686 C 500 1690 489 1696 481 1704 C 473 1712 467 1722 463 1735 C 457 1751 455 1762 455 1769 Z M 803 1769 C 803 1778 805 1790 811 1804 C 816 1818 822 1828 829 1835 C 839 1845 849 1852 858 1855 C 870 1859 882 1861 895 1862 C 907 1862 919 1859 932 1855 C 940 1852 949 1845 961 1835 C 970 1825 977 1815 981 1804 C 985 1794 987 1783 987 1769 C 987 1758 985 1747 981 1735 C 977 1725 970 1715 961 1704 C 951 1696 942 1690 932 1686 C 915 1680 903 1677 895 1677 C 887 1677 874 1680 858 1686 C 848 1690 839 1696 829 1704 C 821 1712 815 1722 811 1735 C 805 1751 803 1762 803 1769 Z" unicode="" />
<glyph horiz-adv-x="997" d="M 100 397 L 416 713 L 100 1028 L 184 1112 L 500 797 L 815 1112 L 899 1028 L 584 713 L 899 397 L 815 313 L 500 629 L 184 313 L 100 397 Z" unicode="" />
<glyph horiz-adv-x="1441" d="M 111 674 L 111 844 C 111 958 127 1059 160 1145 C 192 1229 237 1301 293 1360 C 347 1417 412 1460 487 1489 C 561 1517 639 1532 721 1532 C 784 1532 845 1523 905 1507 C 962 1491 1016 1466 1067 1430 L 1178 1612 L 1264 1567 L 1143 1366 C 1197 1311 1243 1239 1280 1149 C 1314 1064 1331 962 1331 844 L 1331 674 C 1331 556 1314 455 1282 369 C 1248 279 1204 206 1151 152 C 1096 94 1031 51 956 23 C 882 -5 803 -20 721 -20 C 661 -20 599 -11 535 6 C 477 21 423 47 373 84 L 221 -168 L 135 -123 L 297 147 C 237 207 191 279 160 365 C 127 452 111 555 111 674 Z M 250 682 C 250 586 260 504 281 434 C 301 363 329 305 365 260 L 1006 1327 C 964 1358 920 1381 874 1395 C 822 1410 771 1417 721 1417 C 658 1417 598 1406 541 1386 C 486 1366 436 1333 391 1286 C 347 1240 313 1180 289 1106 C 263 1028 250 938 250 836 L 250 682 Z M 434 186 C 473 154 517 131 567 116 C 616 101 667 94 721 94 C 779 94 839 105 901 127 C 957 146 1007 180 1051 229 C 1096 278 1130 338 1153 410 C 1179 488 1192 578 1192 682 L 1192 836 C 1192 931 1181 1013 1161 1083 C 1140 1151 1112 1208 1077 1255 L 434 186 Z" unicode="" />
<glyph horiz-adv-x="1533" d="M 53 1409 L 53 1511 L 561 1511 L 561 1409 L 373 1409 L 373 516 C 373 439 381 375 399 324 C 417 270 444 227 479 194 C 513 161 556 137 608 121 C 654 105 713 98 784 98 C 845 98 899 106 946 123 C 996 141 1037 166 1069 199 C 1104 235 1130 278 1147 328 C 1165 380 1174 442 1174 516 L 1174 1409 L 985 1409 L 985 1511 L 1481 1511 L 1481 1409 L 1296 1409 L 1296 510 C 1296 426 1284 351 1262 285 C 1240 222 1206 167 1161 119 C 1117 73 1063 39 999 16 C 933 -7 860 -18 778 -18 C 694 -18 618 -6 549 16 C 483 38 427 72 381 119 C 333 167 297 221 274 283 C 249 348 237 424 238 510 L 238 1409 L 53 1409 Z M 539 1962 L 690 1962 L 844 1640 L 723 1640 L 539 1962 Z" unicode="" />
<glyph horiz-adv-x="1533" d="M 53 1409 L 53 1511 L 561 1511 L 561 1409 L 373 1409 L 373 516 C 373 439 381 375 399 324 C 417 270 444 227 479 194 C 513 161 556 137 608 121 C 654 105 713 98 784 98 C 845 98 899 106 946 123 C 996 141 1037 166 1069 199 C 1104 235 1130 278 1147 328 C 1165 380 1174 442 1174 516 L 1174 1409 L 985 1409 L 985 1511 L 1481 1511 L 1481 1409 L 1296 1409 L 1296 510 C 1296 426 1284 351 1262 285 C 1240 222 1206 167 1161 119 C 1117 73 1063 39 999 16 C 933 -7 860 -18 778 -18 C 694 -18 618 -6 549 16 C 483 38 427 72 381 119 C 333 167 297 221 274 283 C 249 348 237 424 238 510 L 238 1409 L 53 1409 Z M 709 1640 L 862 1962 L 1014 1962 L 829 1640 L 709 1640 Z" unicode="" />
<glyph horiz-adv-x="1533" d="M 53 1409 L 53 1511 L 561 1511 L 561 1409 L 373 1409 L 373 516 C 373 439 381 375 399 324 C 417 270 444 227 479 194 C 513 161 556 137 608 121 C 654 105 713 98 784 98 C 845 98 899 106 946 123 C 996 141 1037 166 1069 199 C 1104 235 1130 278 1147 328 C 1165 380 1174 442 1174 516 L 1174 1409 L 985 1409 L 985 1511 L 1481 1511 L 1481 1409 L 1296 1409 L 1296 510 C 1296 426 1284 351 1262 285 C 1240 222 1206 167 1161 119 C 1117 73 1063 39 999 16 C 933 -7 860 -18 778 -18 C 694 -18 618 -6 549 16 C 483 38 427 72 381 119 C 333 167 297 221 274 283 C 249 348 237 424 238 510 L 238 1409 L 53 1409 Z M 502 1640 L 727 1962 L 831 1962 L 1059 1640 L 936 1640 L 780 1843 L 625 1640 L 502 1640 Z" unicode="" />
<glyph horiz-adv-x="1533" d="M 53 1409 L 53 1511 L 561 1511 L 561 1409 L 373 1409 L 373 516 C 373 439 381 375 399 324 C 417 270 444 227 479 194 C 513 161 556 137 608 121 C 654 105 713 98 784 98 C 845 98 899 106 946 123 C 996 141 1037 166 1069 199 C 1104 235 1130 278 1147 328 C 1165 380 1174 442 1174 516 L 1174 1409 L 985 1409 L 985 1511 L 1481 1511 L 1481 1409 L 1296 1409 L 1296 510 C 1296 426 1284 351 1262 285 C 1240 222 1206 167 1161 119 C 1117 73 1063 39 999 16 C 933 -7 860 -18 778 -18 C 694 -18 618 -6 549 16 C 483 38 427 72 381 119 C 333 167 297 221 274 283 C 249 348 237 424 238 510 L 238 1409 L 53 1409 Z M 508 1769 C 508 1782 510 1794 514 1804 C 518 1814 525 1825 535 1835 C 545 1845 555 1852 563 1855 C 575 1859 587 1861 600 1862 C 612 1862 624 1859 637 1855 C 645 1852 654 1845 666 1835 C 672 1828 678 1818 684 1804 C 689 1790 692 1779 692 1769 C 692 1762 689 1751 684 1735 C 680 1723 674 1712 666 1704 C 656 1696 647 1690 637 1686 C 620 1680 608 1677 600 1677 C 592 1677 579 1680 563 1686 C 553 1690 544 1696 535 1704 C 525 1714 518 1725 514 1735 C 510 1747 508 1758 508 1769 Z M 856 1769 C 856 1782 858 1794 862 1804 C 866 1814 873 1825 883 1835 C 893 1845 903 1852 911 1855 C 923 1859 935 1861 948 1862 C 958 1862 970 1859 983 1855 C 993 1852 1004 1845 1014 1835 C 1020 1828 1026 1818 1032 1804 C 1037 1790 1040 1779 1040 1769 C 1040 1762 1037 1751 1032 1735 C 1028 1723 1021 1712 1013 1704 C 1005 1696 995 1690 983 1686 C 966 1680 954 1677 948 1677 C 940 1677 927 1680 911 1686 C 901 1690 892 1696 883 1704 C 873 1714 866 1725 862 1735 C 858 1747 856 1758 856 1769 Z" unicode="" />
<glyph horiz-adv-x="1480" d="M 53 1409 L 53 1511 L 543 1511 L 543 1409 L 362 1409 L 756 700 L 762 700 L 1137 1409 L 971 1409 L 971 1511 L 1427 1511 L 1427 1409 L 1272 1409 L 819 580 L 819 98 L 1026 98 L 1026 0 L 475 0 L 475 98 L 682 98 L 682 580 L 207 1409 L 53 1409 Z M 692 1640 L 846 1962 L 997 1962 L 813 1640 L 692 1640 Z" unicode="" />
<glyph horiz-adv-x="1280" d="M 53 0 L 53 98 L 250 98 L 250 1409 L 53 1409 L 53 1511 L 582 1511 L 582 1409 L 387 1409 L 387 1182 L 702 1182 C 788 1182 862 1171 924 1151 C 988 1129 1038 1101 1075 1069 C 1114 1033 1143 992 1163 944 C 1181 898 1190 846 1190 788 L 1190 754 C 1190 696 1179 644 1159 598 C 1137 548 1106 507 1067 473 C 1026 439 975 411 915 391 C 857 371 786 362 702 362 L 387 362 L 387 98 L 582 98 L 582 0 L 53 0 Z M 387 467 L 694 467 C 759 467 813 473 856 487 C 902 502 939 521 967 545 C 994 568 1015 599 1030 639 C 1043 674 1050 716 1051 764 L 1051 786 C 1051 880 1023 951 967 1001 C 912 1050 821 1075 694 1075 L 387 1075 L 387 467 Z" unicode="" />
<glyph horiz-adv-x="1236" d="M 53 0 L 53 98 L 229 98 L 229 1057 C 229 1132 238 1197 256 1251 C 275 1311 302 1361 338 1401 C 376 1443 421 1475 473 1497 C 527 1520 590 1532 662 1532 C 716 1532 768 1524 817 1509 C 865 1493 905 1473 938 1448 C 970 1420 996 1388 1016 1352 C 1034 1316 1042 1275 1042 1229 L 1042 1196 C 1042 1138 1029 1088 1004 1044 C 980 1004 940 971 883 944 L 883 940 C 921 929 953 914 979 895 C 1010 871 1036 845 1057 817 C 1081 781 1099 743 1110 702 C 1123 651 1130 597 1130 541 L 1130 430 C 1130 353 1120 287 1100 231 C 1078 172 1050 126 1016 92 C 980 55 937 28 885 10 C 835 -8 777 -16 711 -16 C 664 -16 624 -13 592 -8 C 554 -1 519 7 489 18 L 520 117 C 539 110 566 103 600 96 C 626 90 659 88 700 88 C 746 88 787 95 823 109 C 859 122 890 142 915 170 C 939 197 959 233 975 279 C 988 321 995 374 995 440 L 995 535 C 995 597 987 651 973 696 C 957 740 936 775 909 803 C 884 827 851 846 809 860 C 775 870 731 876 678 877 L 569 877 L 569 979 L 684 979 C 766 979 824 998 858 1036 C 893 1075 911 1126 911 1190 L 911 1217 C 911 1248 906 1276 897 1300 C 887 1326 872 1348 852 1366 C 828 1388 802 1403 774 1411 C 738 1421 700 1427 659 1427 C 558 1427 482 1394 432 1329 C 381 1265 356 1172 356 1051 L 356 0 L 53 0 Z" unicode="" />
<glyph horiz-adv-x="1085" d="M 53 299 L 53 317 C 53 366 63 411 84 453 C 103 491 132 525 170 555 C 205 582 249 603 301 618 C 354 633 409 641 467 641 C 533 641 589 634 635 621 C 684 605 724 589 756 571 L 756 690 C 756 785 732 855 684 899 C 634 944 567 967 481 967 C 446 967 413 965 383 961 C 359 958 331 951 297 940 C 271 932 245 922 221 911 C 198 901 178 891 160 881 L 109 977 L 184 1014 C 208 1024 236 1035 268 1047 C 290 1053 324 1061 371 1069 C 411 1075 454 1079 498 1079 C 556 1079 609 1071 655 1055 C 703 1038 743 1013 776 981 C 810 947 836 907 854 862 C 873 812 883 758 883 700 L 883 98 L 1042 98 L 1042 0 L 793 0 C 789 0 785 5 782 16 C 782 17 781 20 780 26 C 778 32 777 37 776 42 C 774 46 774 51 774 57 C 771 79 769 96 768 109 C 765 133 764 152 764 164 C 746 135 724 110 700 88 C 676 67 649 49 618 33 C 589 19 557 8 522 -2 C 489 -10 455 -14 420 -14 C 360 -14 307 -6 262 10 C 212 28 174 50 147 76 C 117 104 94 138 78 176 C 61 214 53 255 53 299 Z M 188 309 C 188 273 193 243 203 219 C 213 189 228 166 248 150 C 268 132 294 117 326 106 C 358 95 395 90 436 90 C 481 90 522 97 559 111 C 599 126 634 145 662 168 C 690 192 713 221 729 254 C 747 289 756 324 756 358 L 756 467 C 722 489 683 506 641 518 C 594 531 538 538 473 539 C 421 539 379 533 348 522 C 312 510 282 493 258 473 C 234 453 217 430 205 403 C 194 379 188 351 188 317 L 188 309 Z M 289 1511 L 440 1511 L 594 1190 L 473 1190 L 289 1511 Z" unicode="" />
<glyph horiz-adv-x="1085" d="M 53 299 L 53 317 C 53 366 63 411 84 453 C 103 491 132 525 170 555 C 205 582 249 603 301 618 C 354 633 409 641 467 641 C 533 641 589 634 635 621 C 684 605 724 589 756 571 L 756 690 C 756 785 732 855 684 899 C 634 944 567 967 481 967 C 446 967 413 965 383 961 C 359 958 331 951 297 940 C 271 932 245 922 221 911 C 198 901 178 891 160 881 L 109 977 L 184 1014 C 208 1024 236 1035 268 1047 C 290 1053 324 1061 371 1069 C 411 1075 454 1079 498 1079 C 556 1079 609 1071 655 1055 C 703 1038 743 1013 776 981 C 810 947 836 907 854 862 C 873 812 883 758 883 700 L 883 98 L 1042 98 L 1042 0 L 793 0 C 789 0 785 5 782 16 C 782 17 781 20 780 26 C 778 32 777 37 776 42 C 774 46 774 51 774 57 C 771 79 769 96 768 109 C 765 133 764 152 764 164 C 746 135 724 110 700 88 C 676 67 649 49 618 33 C 589 19 557 8 522 -2 C 489 -10 455 -14 420 -14 C 360 -14 307 -6 262 10 C 212 28 174 50 147 76 C 117 104 94 138 78 176 C 61 214 53 255 53 299 Z M 188 309 C 188 273 193 243 203 219 C 213 189 228 166 248 150 C 268 132 294 117 326 106 C 358 95 395 90 436 90 C 481 90 522 97 559 111 C 599 126 634 145 662 168 C 690 192 713 221 729 254 C 747 289 756 324 756 358 L 756 467 C 722 489 683 506 641 518 C 594 531 538 538 473 539 C 421 539 379 533 348 522 C 312 510 282 493 258 473 C 234 453 217 430 205 403 C 194 379 188 351 188 317 L 188 309 Z M 453 1190 L 606 1511 L 758 1511 L 573 1190 L 453 1190 Z" unicode="" />
<glyph horiz-adv-x="1085" d="M 53 299 L 53 317 C 53 366 63 411 84 453 C 103 491 132 525 170 555 C 205 582 249 603 301 618 C 354 633 409 641 467 641 C 533 641 589 634 635 621 C 684 605 724 589 756 571 L 756 690 C 756 785 732 855 684 899 C 634 944 567 967 481 967 C 446 967 413 965 383 961 C 359 958 331 951 297 940 C 271 932 245 922 221 911 C 198 901 178 891 160 881 L 109 977 L 184 1014 C 208 1024 236 1035 268 1047 C 290 1053 324 1061 371 1069 C 411 1075 454 1079 498 1079 C 556 1079 609 1071 655 1055 C 703 1038 743 1013 776 981 C 810 947 836 907 854 862 C 873 812 883 758 883 700 L 883 98 L 1042 98 L 1042 0 L 793 0 C 789 0 785 5 782 16 C 782 17 781 20 780 26 C 778 32 777 37 776 42 C 774 46 774 51 774 57 C 771 79 769 96 768 109 C 765 133 764 152 764 164 C 746 135 724 110 700 88 C 676 67 649 49 618 33 C 589 19 557 8 522 -2 C 489 -10 455 -14 420 -14 C 360 -14 307 -6 262 10 C 212 28 174 50 147 76 C 117 104 94 138 78 176 C 61 214 53 255 53 299 Z M 188 309 C 188 273 193 243 203 219 C 213 189 228 166 248 150 C 268 132 294 117 326 106 C 358 95 395 90 436 90 C 481 90 522 97 559 111 C 599 126 634 145 662 168 C 690 192 713 221 729 254 C 747 289 756 324 756 358 L 756 467 C 722 489 683 506 641 518 C 594 531 538 538 473 539 C 421 539 379 533 348 522 C 312 510 282 493 258 473 C 234 453 217 430 205 403 C 194 379 188 351 188 317 L 188 309 Z M 233 1190 L 459 1511 L 563 1511 L 791 1190 L 668 1190 L 512 1393 L 356 1190 L 233 1190 Z" unicode="" />
<glyph horiz-adv-x="1085" d="M 53 299 L 53 317 C 53 366 63 411 84 453 C 103 491 132 525 170 555 C 205 582 249 603 301 618 C 354 633 409 641 467 641 C 533 641 589 634 635 621 C 684 605 724 589 756 571 L 756 690 C 756 785 732 855 684 899 C 634 944 567 967 481 967 C 446 967 413 965 383 961 C 359 958 331 951 297 940 C 271 932 245 922 221 911 C 198 901 178 891 160 881 L 109 977 L 184 1014 C 208 1024 236 1035 268 1047 C 290 1053 324 1061 371 1069 C 411 1075 454 1079 498 1079 C 556 1079 609 1071 655 1055 C 703 1038 743 1013 776 981 C 810 947 836 907 854 862 C 873 812 883 758 883 700 L 883 98 L 1042 98 L 1042 0 L 793 0 C 789 0 785 5 782 16 C 782 17 781 20 780 26 C 778 32 777 37 776 42 C 774 46 774 51 774 57 C 771 79 769 96 768 109 C 765 133 764 152 764 164 C 746 135 724 110 700 88 C 676 67 649 49 618 33 C 589 19 557 8 522 -2 C 489 -10 455 -14 420 -14 C 360 -14 307 -6 262 10 C 212 28 174 50 147 76 C 117 104 94 138 78 176 C 61 214 53 255 53 299 Z M 188 309 C 188 273 193 243 203 219 C 213 189 228 166 248 150 C 268 132 294 117 326 106 C 358 95 395 90 436 90 C 481 90 522 97 559 111 C 599 126 634 145 662 168 C 690 192 713 221 729 254 C 747 289 756 324 756 358 L 756 467 C 722 489 683 506 641 518 C 594 531 538 538 473 539 C 421 539 379 533 348 522 C 312 510 282 493 258 473 C 234 453 217 430 205 403 C 194 379 188 351 188 317 L 188 309 Z M 190 1241 C 210 1288 235 1325 264 1352 C 291 1378 329 1391 379 1391 C 399 1391 421 1387 444 1380 C 462 1374 482 1367 504 1358 C 514 1354 524 1349 534 1345 C 544 1341 552 1337 559 1335 C 577 1328 592 1325 606 1325 C 628 1325 645 1332 659 1346 C 671 1358 684 1376 698 1401 L 799 1356 C 778 1309 753 1273 725 1247 C 695 1219 656 1206 610 1206 C 589 1206 567 1209 545 1217 C 523 1223 502 1231 483 1239 C 464 1247 446 1254 428 1261 C 410 1268 394 1272 381 1272 C 360 1272 343 1265 330 1251 C 318 1239 305 1220 291 1196 L 190 1241 Z" unicode="" />
<glyph horiz-adv-x="1085" d="M 53 299 L 53 317 C 53 366 63 411 84 453 C 103 491 132 525 170 555 C 205 582 249 603 301 618 C 354 633 409 641 467 641 C 533 641 589 634 635 621 C 684 605 724 589 756 571 L 756 690 C 756 785 732 855 684 899 C 634 944 567 967 481 967 C 446 967 413 965 383 961 C 359 958 331 951 297 940 C 271 932 245 922 221 911 C 198 901 178 891 160 881 L 109 977 L 184 1014 C 208 1024 236 1035 268 1047 C 290 1053 324 1061 371 1069 C 411 1075 454 1079 498 1079 C 556 1079 609 1071 655 1055 C 703 1038 743 1013 776 981 C 810 947 836 907 854 862 C 873 812 883 758 883 700 L 883 98 L 1042 98 L 1042 0 L 793 0 C 789 0 785 5 782 16 C 782 17 781 20 780 26 C 778 32 777 37 776 42 C 774 46 774 51 774 57 C 771 79 769 96 768 109 C 765 133 764 152 764 164 C 746 135 724 110 700 88 C 676 67 649 49 618 33 C 589 19 557 8 522 -2 C 489 -10 455 -14 420 -14 C 360 -14 307 -6 262 10 C 212 28 174 50 147 76 C 117 104 94 138 78 176 C 61 214 53 255 53 299 Z M 188 309 C 188 273 193 243 203 219 C 213 189 228 166 248 150 C 268 132 294 117 326 106 C 358 95 395 90 436 90 C 481 90 522 97 559 111 C 599 126 634 145 662 168 C 690 192 713 221 729 254 C 747 289 756 324 756 358 L 756 467 C 722 489 683 506 641 518 C 594 531 538 538 473 539 C 421 539 379 533 348 522 C 312 510 282 493 258 473 C 234 453 217 430 205 403 C 194 379 188 351 188 317 L 188 309 Z M 223 1319 C 223 1329 225 1341 229 1354 C 231 1363 238 1373 250 1384 C 258 1392 267 1398 279 1403 C 295 1408 307 1411 315 1411 C 321 1411 333 1408 350 1403 C 362 1399 372 1392 381 1384 C 391 1373 398 1363 401 1354 C 405 1342 407 1330 407 1319 C 407 1308 405 1296 401 1284 C 398 1276 391 1266 381 1255 C 370 1245 360 1239 350 1235 C 333 1229 321 1227 315 1227 C 307 1227 295 1229 279 1235 C 271 1237 261 1244 250 1255 C 238 1266 231 1276 229 1284 C 225 1296 223 1308 223 1319 Z M 571 1319 C 571 1329 573 1341 578 1354 C 580 1363 587 1373 598 1384 C 606 1392 615 1398 627 1403 C 640 1408 652 1411 664 1411 C 672 1411 684 1408 700 1403 C 710 1399 720 1392 729 1384 C 739 1373 746 1363 750 1354 C 754 1342 756 1330 756 1319 C 756 1308 754 1296 750 1284 C 747 1276 740 1266 729 1255 C 718 1244 708 1237 700 1235 C 683 1229 671 1227 664 1227 C 653 1227 641 1229 627 1235 C 617 1239 608 1245 598 1255 C 587 1265 580 1275 578 1284 C 573 1296 571 1308 571 1319 Z" unicode="" />
<glyph horiz-adv-x="1085" d="M 53 299 L 53 317 C 53 366 63 411 84 453 C 103 491 132 525 170 555 C 205 582 249 603 301 618 C 354 633 409 641 467 641 C 533 641 589 634 635 621 C 684 605 724 589 756 571 L 756 690 C 756 785 732 855 684 899 C 634 944 567 967 481 967 C 446 967 413 965 383 961 C 359 958 331 951 297 940 C 271 932 245 922 221 911 C 198 901 178 891 160 881 L 109 977 L 184 1014 C 208 1024 236 1035 268 1047 C 290 1053 324 1061 371 1069 C 411 1075 454 1079 498 1079 C 556 1079 609 1071 655 1055 C 703 1038 743 1013 776 981 C 810 947 836 907 854 862 C 873 812 883 758 883 700 L 883 98 L 1042 98 L 1042 0 L 793 0 C 789 0 785 5 782 16 C 782 17 781 20 780 26 C 778 32 777 37 776 42 C 774 46 774 51 774 57 C 771 79 769 96 768 109 C 765 133 764 152 764 164 C 746 135 724 110 700 88 C 676 67 649 49 618 33 C 589 19 557 8 522 -2 C 489 -10 455 -14 420 -14 C 360 -14 307 -6 262 10 C 212 28 174 50 147 76 C 117 104 94 138 78 176 C 61 214 53 255 53 299 Z M 188 309 C 188 273 193 243 203 219 C 213 189 228 166 248 150 C 268 132 294 117 326 106 C 358 95 395 90 436 90 C 481 90 522 97 559 111 C 599 126 634 145 662 168 C 690 192 713 221 729 254 C 747 289 756 324 756 358 L 756 467 C 722 489 683 506 641 518 C 594 531 538 538 473 539 C 421 539 379 533 348 522 C 312 510 282 493 258 473 C 234 453 217 430 205 403 C 194 379 188 351 188 317 L 188 309 Z M 295 1372 L 295 1391 C 295 1427 301 1459 313 1487 C 326 1517 342 1538 360 1552 C 382 1570 404 1582 426 1589 C 450 1597 476 1601 504 1601 C 531 1601 557 1597 582 1589 C 608 1581 629 1568 647 1552 C 666 1535 682 1513 694 1486 C 706 1459 713 1427 713 1391 L 713 1372 C 713 1336 706 1305 694 1278 C 682 1250 666 1228 647 1212 C 629 1195 607 1183 582 1176 C 557 1168 531 1163 504 1163 C 476 1163 450 1167 426 1176 C 404 1182 382 1194 360 1212 C 342 1225 326 1247 313 1278 C 301 1305 295 1336 295 1372 Z M 399 1374 C 399 1330 408 1298 426 1280 C 445 1259 471 1249 504 1249 C 536 1249 562 1259 580 1280 C 599 1302 608 1333 608 1374 L 608 1389 C 608 1431 598 1463 580 1485 C 562 1505 536 1516 504 1516 C 471 1516 445 1505 426 1485 C 408 1465 399 1433 399 1389 L 399 1374 Z" unicode="" />
<glyph horiz-adv-x="1730" d="M 53 299 L 53 317 C 53 366 63 411 84 453 C 103 491 132 525 170 555 C 205 582 249 603 301 618 C 354 633 409 641 467 641 C 533 641 589 634 635 621 C 684 605 724 589 756 571 L 756 690 C 756 785 732 855 684 899 C 634 944 567 967 481 967 C 446 967 413 965 383 961 C 359 958 331 951 297 940 C 271 932 245 922 221 911 C 198 901 178 891 160 881 L 109 977 L 182 1014 C 201 1023 229 1034 266 1047 C 289 1055 323 1062 367 1069 C 407 1075 449 1079 492 1079 C 578 1079 651 1061 711 1026 C 772 990 816 938 842 868 C 877 934 927 986 991 1024 C 1053 1060 1129 1079 1217 1079 C 1285 1079 1345 1068 1397 1047 C 1453 1023 1498 993 1532 956 C 1570 916 1598 869 1616 815 C 1635 757 1645 697 1645 635 L 1645 512 L 887 512 L 887 481 C 887 418 893 364 907 319 C 922 269 943 229 971 198 C 998 167 1035 142 1083 123 C 1127 105 1181 96 1245 96 C 1290 96 1326 98 1354 104 C 1390 110 1419 117 1440 125 C 1463 131 1487 142 1511 156 L 1579 193 L 1634 98 C 1626 92 1598 77 1552 53 C 1531 42 1502 30 1466 18 C 1434 7 1401 0 1366 -6 C 1333 -11 1291 -14 1241 -14 C 1141 -14 1054 5 982 45 C 910 84 854 141 815 217 C 797 179 776 147 752 121 C 728 95 697 71 659 49 C 621 27 585 11 551 2 C 510 -8 470 -14 432 -14 C 368 -14 312 -6 264 10 C 214 28 175 50 147 76 C 111 108 88 142 76 176 C 60 217 53 258 53 299 Z M 188 309 C 188 273 193 243 203 219 C 213 189 228 166 248 150 C 268 132 294 117 326 106 C 358 95 395 90 436 90 C 478 90 517 97 555 111 C 595 126 629 145 657 168 C 689 196 714 226 731 256 C 749 288 760 326 764 369 C 762 378 760 394 758 416 C 756 426 756 443 756 467 C 722 489 683 506 641 518 C 594 531 538 538 473 539 C 421 539 379 533 348 522 C 312 510 282 493 258 473 C 234 453 217 430 205 403 C 194 379 188 351 188 317 L 188 309 Z M 887 614 L 1513 614 L 1513 629 C 1513 677 1507 724 1497 770 C 1487 812 1470 848 1446 879 C 1420 910 1389 934 1354 950 C 1317 966 1271 975 1217 975 C 1165 975 1120 966 1081 950 C 1044 934 1011 911 981 879 C 955 851 933 813 915 764 C 897 716 888 666 887 614 Z" unicode="" />
<glyph horiz-adv-x="1036" d="M 86 483 L 86 580 C 86 656 97 726 121 788 C 143 848 173 900 213 944 C 249 984 296 1016 352 1040 C 406 1063 464 1075 524 1075 C 596 1075 655 1064 700 1042 C 748 1018 785 983 811 936 C 811 956 811 971 813 981 C 815 1000 817 1014 819 1022 C 820 1030 822 1039 825 1051 C 826 1057 829 1061 834 1061 L 920 1061 L 920 756 L 815 756 C 805 790 792 820 776 846 C 760 872 741 894 717 913 C 694 931 667 946 637 956 C 608 965 572 970 530 971 C 479 971 435 962 399 944 C 359 924 327 899 301 868 C 272 832 251 791 237 745 C 223 699 217 643 217 578 L 217 485 C 217 408 227 345 248 297 C 271 241 297 200 326 176 C 358 147 395 126 436 114 C 477 102 517 96 557 96 C 622 96 680 108 731 133 C 777 155 828 191 883 242 L 956 162 C 910 112 858 72 799 41 C 737 9 668 -8 590 -12 L 504 -115 C 560 -119 601 -132 627 -154 C 654 -177 668 -210 668 -252 L 668 -264 C 668 -312 649 -349 612 -377 C 576 -403 525 -416 459 -416 C 419 -416 386 -412 358 -406 C 334 -400 313 -393 293 -383 L 326 -307 C 335 -311 351 -316 373 -322 C 397 -327 418 -330 434 -330 C 473 -330 502 -324 522 -313 C 541 -302 551 -284 551 -260 L 551 -252 C 551 -235 548 -223 543 -217 C 535 -206 526 -199 516 -197 C 500 -191 484 -188 467 -186 C 453 -184 429 -184 395 -184 L 377 -141 L 483 -10 C 425 -4 372 12 324 39 C 273 66 231 100 199 141 C 162 186 134 236 115 291 C 95 343 86 407 86 483 Z" unicode="" />
<glyph horiz-adv-x="1060" d="M 86 479 L 86 584 C 86 660 97 730 121 793 C 144 854 175 906 215 948 C 253 988 302 1020 362 1044 C 420 1067 482 1079 547 1079 C 615 1079 675 1068 727 1047 C 783 1023 828 993 862 956 C 900 916 928 869 946 815 C 965 757 975 697 975 635 L 975 512 L 217 512 L 217 481 C 217 418 224 364 238 319 C 253 269 274 229 301 198 C 328 167 366 142 414 123 C 458 105 511 96 575 96 C 619 96 654 98 682 104 C 718 110 747 117 768 125 C 794 133 819 143 842 156 L 909 193 L 965 98 C 957 92 929 77 883 53 C 862 42 833 30 797 18 C 767 8 732 0 694 -6 C 661 -11 620 -14 571 -14 C 500 -14 434 -2 373 20 C 311 43 260 75 219 117 C 175 161 142 212 121 272 C 97 334 86 403 86 479 Z M 217 614 L 844 614 L 844 629 C 844 677 838 724 827 770 C 817 812 800 848 776 879 C 750 910 719 934 684 950 C 647 966 601 975 547 975 C 495 975 450 966 412 950 C 372 933 338 909 309 879 C 283 851 261 813 244 764 C 228 720 219 670 217 614 Z M 311 1511 L 463 1511 L 616 1190 L 496 1190 L 311 1511 Z" unicode="" />
<glyph horiz-adv-x="1060" d="M 86 479 L 86 584 C 86 660 97 730 121 793 C 144 854 175 906 215 948 C 253 988 302 1020 362 1044 C 420 1067 482 1079 547 1079 C 615 1079 675 1068 727 1047 C 783 1023 828 993 862 956 C 900 916 928 869 946 815 C 965 757 975 697 975 635 L 975 512 L 217 512 L 217 481 C 217 418 224 364 238 319 C 253 269 274 229 301 198 C 328 167 366 142 414 123 C 458 105 511 96 575 96 C 619 96 654 98 682 104 C 718 110 747 117 768 125 C 794 133 819 143 842 156 L 909 193 L 965 98 C 957 92 929 77 883 53 C 862 42 833 30 797 18 C 767 8 732 0 694 -6 C 661 -11 620 -14 571 -14 C 500 -14 434 -2 373 20 C 311 43 260 75 219 117 C 175 161 142 212 121 272 C 97 334 86 403 86 479 Z M 217 614 L 844 614 L 844 629 C 844 677 838 724 827 770 C 817 812 800 848 776 879 C 750 910 719 934 684 950 C 647 966 601 975 547 975 C 495 975 450 966 412 950 C 372 933 338 909 309 879 C 283 851 261 813 244 764 C 228 720 219 670 217 614 Z M 496 1190 L 649 1511 L 801 1511 L 616 1190 L 496 1190 Z" unicode="" />
<glyph horiz-adv-x="1060" d="M 86 479 L 86 584 C 86 660 97 730 121 793 C 144 854 175 906 215 948 C 253 988 302 1020 362 1044 C 420 1067 482 1079 547 1079 C 615 1079 675 1068 727 1047 C 783 1023 828 993 862 956 C 900 916 928 869 946 815 C 965 757 975 697 975 635 L 975 512 L 217 512 L 217 481 C 217 418 224 364 238 319 C 253 269 274 229 301 198 C 328 167 366 142 414 123 C 458 105 511 96 575 96 C 619 96 654 98 682 104 C 718 110 747 117 768 125 C 794 133 819 143 842 156 L 909 193 L 965 98 C 957 92 929 77 883 53 C 862 42 833 30 797 18 C 767 8 732 0 694 -6 C 661 -11 620 -14 571 -14 C 500 -14 434 -2 373 20 C 311 43 260 75 219 117 C 175 161 142 212 121 272 C 97 334 86 403 86 479 Z M 217 614 L 844 614 L 844 629 C 844 677 838 724 827 770 C 817 812 800 848 776 879 C 750 910 719 934 684 950 C 647 966 601 975 547 975 C 495 975 450 966 412 950 C 372 933 338 909 309 879 C 283 851 261 813 244 764 C 228 720 219 670 217 614 Z M 272 1190 L 498 1511 L 602 1511 L 829 1190 L 707 1190 L 551 1393 L 395 1190 L 272 1190 Z" unicode="" />
<glyph horiz-adv-x="1060" d="M 86 479 L 86 584 C 86 660 97 730 121 793 C 144 854 175 906 215 948 C 253 988 302 1020 362 1044 C 420 1067 482 1079 547 1079 C 615 1079 675 1068 727 1047 C 783 1023 828 993 862 956 C 900 916 928 869 946 815 C 965 757 975 697 975 635 L 975 512 L 217 512 L 217 481 C 217 418 224 364 238 319 C 253 269 274 229 301 198 C 328 167 366 142 414 123 C 458 105 511 96 575 96 C 619 96 654 98 682 104 C 718 110 747 117 768 125 C 794 133 819 143 842 156 L 909 193 L 965 98 C 957 92 929 77 883 53 C 862 42 833 30 797 18 C 767 8 732 0 694 -6 C 661 -11 620 -14 571 -14 C 500 -14 434 -2 373 20 C 311 43 260 75 219 117 C 175 161 142 212 121 272 C 97 334 86 403 86 479 Z M 217 614 L 844 614 L 844 629 C 844 677 838 724 827 770 C 817 812 800 848 776 879 C 750 910 719 934 684 950 C 647 966 601 975 547 975 C 495 975 450 966 412 950 C 372 933 338 909 309 879 C 283 851 261 813 244 764 C 228 720 219 670 217 614 Z M 293 1319 C 293 1329 295 1341 299 1354 C 301 1363 308 1373 319 1384 C 327 1392 336 1398 348 1403 C 364 1408 377 1411 385 1411 C 393 1411 405 1408 422 1403 C 432 1399 442 1392 450 1384 C 458 1376 465 1366 469 1354 C 474 1337 477 1325 477 1319 C 477 1312 474 1300 469 1284 C 465 1274 459 1265 451 1255 C 440 1244 430 1237 422 1235 C 405 1229 393 1227 385 1227 C 377 1227 364 1229 348 1235 C 340 1237 330 1244 319 1255 C 308 1266 301 1276 299 1284 C 295 1296 293 1308 293 1319 Z M 641 1319 C 641 1329 643 1341 647 1354 C 649 1363 656 1373 668 1384 C 676 1392 685 1398 696 1403 C 712 1408 725 1411 733 1411 C 739 1411 751 1408 768 1403 C 780 1399 790 1392 798 1384 C 806 1376 813 1366 817 1354 C 822 1337 825 1325 825 1319 C 825 1312 822 1300 817 1284 C 813 1274 807 1265 799 1255 C 788 1245 778 1239 768 1235 C 751 1229 739 1227 733 1227 C 725 1227 712 1229 696 1235 C 688 1237 678 1244 667 1255 C 656 1266 649 1276 647 1284 C 643 1296 641 1308 641 1319 Z" unicode="" />
<glyph horiz-adv-x="589" d="M 41 958 L 41 1061 L 365 1061 L 365 98 L 545 98 L 545 0 L 53 0 L 53 98 L 238 98 L 238 958 L 41 958 Z M 76 1511 L 227 1511 L 381 1190 L 260 1190 L 76 1511 Z" unicode="" />
<glyph horiz-adv-x="589" d="M 41 958 L 41 1061 L 365 1061 L 365 98 L 545 98 L 545 0 L 53 0 L 53 98 L 238 98 L 238 958 L 41 958 Z M 219 1190 L 373 1511 L 524 1511 L 340 1190 L 219 1190 Z" unicode="" />
<glyph horiz-adv-x="589" d="M 16 1190 L 242 1511 L 346 1511 L 573 1190 L 451 1190 L 295 1393 L 139 1190 L 16 1190 Z M 41 958 L 41 1061 L 365 1061 L 365 98 L 545 98 L 545 0 L 53 0 L 53 98 L 238 98 L 238 958 L 41 958 Z" unicode="" />
<glyph horiz-adv-x="589" d="M 18 1319 C 18 1329 20 1341 25 1354 C 27 1363 34 1373 45 1384 C 53 1392 62 1398 74 1403 C 87 1408 99 1411 111 1411 C 119 1411 131 1408 147 1403 C 157 1399 167 1392 176 1384 C 186 1373 193 1363 197 1354 C 201 1342 203 1330 203 1319 C 203 1308 201 1296 197 1284 C 194 1276 187 1266 176 1255 C 165 1244 155 1237 147 1235 C 130 1229 118 1227 111 1227 C 100 1227 88 1229 74 1235 C 64 1239 55 1245 45 1255 C 34 1265 27 1275 25 1284 C 20 1296 18 1308 18 1319 Z M 41 958 L 41 1061 L 365 1061 L 365 98 L 545 98 L 545 0 L 53 0 L 53 98 L 238 98 L 238 958 L 41 958 Z M 342 1319 C 342 1329 344 1341 348 1354 C 350 1363 357 1373 369 1384 C 377 1392 386 1398 397 1403 C 413 1408 426 1411 434 1411 C 440 1411 452 1408 469 1403 C 481 1399 491 1392 499 1384 C 507 1376 514 1366 518 1354 C 523 1337 526 1325 526 1319 C 526 1312 523 1300 518 1284 C 514 1274 508 1265 500 1255 C 489 1245 479 1239 469 1235 C 452 1229 440 1227 434 1227 C 426 1227 413 1229 397 1235 C 389 1237 379 1244 368 1255 C 357 1266 350 1276 348 1284 C 344 1296 342 1308 342 1319 Z" unicode="" />
<glyph horiz-adv-x="1116" d="M 86 483 L 86 580 C 86 658 98 727 123 788 C 147 850 180 903 221 946 C 262 988 311 1021 367 1044 C 424 1067 482 1079 541 1079 C 564 1079 586 1077 606 1073 C 630 1067 649 1063 662 1059 C 680 1052 695 1044 709 1034 C 733 1016 748 1004 754 999 L 563 1280 L 303 1200 L 279 1282 L 512 1354 L 408 1511 L 553 1511 L 633 1393 L 870 1466 L 895 1384 L 684 1319 L 809 1135 C 837 1093 869 1043 905 985 C 933 937 957 892 975 850 C 993 804 1008 759 1018 715 C 1027 673 1032 626 1032 575 L 1032 483 C 1032 405 1019 335 995 274 C 969 208 936 156 897 117 C 851 71 801 38 745 16 C 686 -7 624 -18 559 -18 C 493 -18 431 -6 373 16 C 317 38 266 71 221 117 C 181 156 149 208 123 274 C 98 335 86 405 86 483 Z M 217 485 C 217 425 225 370 242 322 C 258 271 281 229 309 195 C 337 159 373 133 416 115 C 461 95 509 86 559 86 C 609 86 657 95 702 115 C 744 133 779 159 809 195 C 837 229 860 271 877 322 C 893 371 901 425 901 485 L 901 578 C 901 638 893 692 877 741 C 860 789 837 830 809 866 C 780 902 744 928 702 946 C 656 965 608 975 558 975 C 508 975 460 965 416 946 C 374 928 338 901 309 866 C 280 830 258 789 242 741 C 225 691 217 637 217 578 L 217 485 Z" unicode="" />
<glyph horiz-adv-x="1247" d="M 41 958 L 41 1061 L 326 1061 C 330 1061 333 1054 336 1042 C 338 1030 340 1013 342 993 C 344 965 346 944 346 928 C 346 920 346 909 347 895 C 347 881 348 870 348 864 C 358 888 378 916 406 948 C 432 978 457 1001 481 1018 C 512 1038 544 1053 578 1063 C 614 1073 654 1079 696 1079 C 748 1079 794 1070 836 1053 C 875 1036 911 1010 944 975 C 976 941 1000 901 1016 856 C 1032 809 1040 756 1040 698 L 1040 98 L 1204 98 L 1204 0 L 913 0 L 913 684 C 913 776 891 847 848 895 C 806 941 743 965 659 965 C 618 965 579 956 543 940 C 505 923 473 901 449 874 C 421 844 399 810 383 772 C 367 735 358 693 356 645 L 356 98 L 516 98 L 516 0 L 53 0 L 53 98 L 229 98 L 229 958 L 41 958 Z M 309 1241 C 329 1288 354 1325 383 1352 C 410 1378 448 1391 498 1391 C 518 1391 540 1387 563 1380 C 581 1374 601 1367 623 1358 C 633 1354 643 1349 653 1345 C 663 1341 671 1337 678 1335 C 696 1328 711 1325 725 1325 C 747 1325 764 1332 778 1346 C 790 1358 803 1376 817 1401 L 918 1356 C 897 1309 872 1273 844 1247 C 814 1219 775 1206 729 1206 C 708 1206 686 1209 664 1217 C 642 1223 621 1231 602 1239 C 570 1252 553 1260 549 1262 C 531 1268 514 1272 500 1272 C 479 1272 462 1265 449 1251 C 437 1239 424 1220 410 1196 L 309 1241 Z" unicode="" />
<glyph horiz-adv-x="1116" d="M 86 483 L 86 580 C 86 658 98 727 123 788 C 149 853 181 906 221 946 C 263 988 313 1020 372 1044 C 431 1067 493 1079 559 1079 C 624 1079 686 1067 745 1044 C 804 1021 855 988 897 946 C 936 906 969 854 995 788 C 1019 726 1032 657 1032 580 L 1032 483 C 1032 405 1019 335 995 274 C 969 208 936 156 897 117 C 851 71 801 38 745 16 C 686 -7 624 -18 559 -18 C 493 -18 431 -6 373 16 C 317 38 266 71 221 117 C 181 156 149 208 123 274 C 98 335 86 405 86 483 Z M 217 485 C 217 425 225 370 242 322 C 258 271 281 229 309 195 C 337 159 373 133 416 115 C 461 95 509 86 559 86 C 609 86 657 95 702 115 C 744 133 779 159 809 195 C 837 229 860 271 877 322 C 893 371 901 425 901 485 L 901 578 C 901 638 893 692 877 741 C 860 789 837 830 809 866 C 780 902 744 928 702 946 C 656 965 608 975 558 975 C 508 975 460 965 416 946 C 374 928 338 901 309 866 C 280 830 258 789 242 741 C 225 691 217 637 217 578 L 217 485 Z M 319 1511 L 471 1511 L 625 1190 L 504 1190 L 319 1511 Z" unicode="" />
<glyph horiz-adv-x="1116" d="M 86 483 L 86 580 C 86 658 98 727 123 788 C 149 853 181 906 221 946 C 263 988 313 1020 372 1044 C 431 1067 493 1079 559 1079 C 624 1079 686 1067 745 1044 C 804 1021 855 988 897 946 C 936 906 969 854 995 788 C 1019 726 1032 657 1032 580 L 1032 483 C 1032 405 1019 335 995 274 C 969 208 936 156 897 117 C 851 71 801 38 745 16 C 686 -7 624 -18 559 -18 C 493 -18 431 -6 373 16 C 317 38 266 71 221 117 C 181 156 149 208 123 274 C 98 335 86 405 86 483 Z M 217 485 C 217 425 225 370 242 322 C 258 271 281 229 309 195 C 337 159 373 133 416 115 C 461 95 509 86 559 86 C 609 86 657 95 702 115 C 744 133 779 159 809 195 C 837 229 860 271 877 322 C 893 371 901 425 901 485 L 901 578 C 901 638 893 692 877 741 C 860 789 837 830 809 866 C 780 902 744 928 702 946 C 656 965 608 975 558 975 C 508 975 460 965 416 946 C 374 928 338 901 309 866 C 280 830 258 789 242 741 C 225 691 217 637 217 578 L 217 485 Z M 504 1190 L 657 1511 L 809 1511 L 625 1190 L 504 1190 Z" unicode="" />
<glyph horiz-adv-x="1116" d="M 86 483 L 86 580 C 86 658 98 727 123 788 C 149 853 181 906 221 946 C 263 988 313 1020 372 1044 C 431 1067 493 1079 559 1079 C 624 1079 686 1067 745 1044 C 804 1021 855 988 897 946 C 936 906 969 854 995 788 C 1019 726 1032 657 1032 580 L 1032 483 C 1032 405 1019 335 995 274 C 969 208 936 156 897 117 C 851 71 801 38 745 16 C 686 -7 624 -18 559 -18 C 493 -18 431 -6 373 16 C 317 38 266 71 221 117 C 181 156 149 208 123 274 C 98 335 86 405 86 483 Z M 217 485 C 217 425 225 370 242 322 C 258 271 281 229 309 195 C 337 159 373 133 416 115 C 461 95 509 86 559 86 C 609 86 657 95 702 115 C 744 133 779 159 809 195 C 837 229 860 271 877 322 C 893 371 901 425 901 485 L 901 578 C 901 638 893 692 877 741 C 860 789 837 830 809 866 C 780 902 744 928 702 946 C 656 965 608 975 558 975 C 508 975 460 965 416 946 C 374 928 338 901 309 866 C 280 830 258 789 242 741 C 225 691 217 637 217 578 L 217 485 Z M 281 1190 L 506 1511 L 610 1511 L 838 1190 L 715 1190 L 559 1393 L 403 1190 L 281 1190 Z" unicode="" />
<glyph horiz-adv-x="1116" d="M 86 483 L 86 580 C 86 658 98 727 123 788 C 149 853 181 906 221 946 C 263 988 313 1020 372 1044 C 431 1067 493 1079 559 1079 C 624 1079 686 1067 745 1044 C 804 1021 855 988 897 946 C 936 906 969 854 995 788 C 1019 726 1032 657 1032 580 L 1032 483 C 1032 405 1019 335 995 274 C 969 208 936 156 897 117 C 851 71 801 38 745 16 C 686 -7 624 -18 559 -18 C 493 -18 431 -6 373 16 C 317 38 266 71 221 117 C 181 156 149 208 123 274 C 98 335 86 405 86 483 Z M 217 485 C 217 425 225 370 242 322 C 258 271 281 229 309 195 C 337 159 373 133 416 115 C 461 95 509 86 559 86 C 609 86 657 95 702 115 C 744 133 779 159 809 195 C 837 229 860 271 877 322 C 893 371 901 425 901 485 L 901 578 C 901 638 893 692 877 741 C 860 789 837 830 809 866 C 780 902 744 928 702 946 C 656 965 608 975 558 975 C 508 975 460 965 416 946 C 374 928 338 901 309 866 C 280 830 258 789 242 741 C 225 691 217 637 217 578 L 217 485 Z M 264 1241 C 284 1288 309 1325 338 1352 C 365 1378 403 1391 453 1391 C 473 1391 495 1387 518 1380 C 536 1374 556 1367 578 1358 C 588 1354 598 1349 608 1345 C 618 1341 626 1337 633 1335 C 651 1328 666 1325 680 1325 C 702 1325 719 1332 733 1346 C 745 1358 758 1376 772 1401 L 872 1356 C 851 1312 826 1275 797 1247 C 767 1219 729 1206 684 1206 C 663 1206 641 1209 618 1217 C 596 1223 575 1231 557 1239 C 525 1252 508 1260 504 1262 C 486 1268 469 1272 455 1272 C 434 1272 417 1265 403 1251 C 391 1239 378 1220 365 1196 L 264 1241 Z" unicode="" />
<glyph horiz-adv-x="1116" d="M 86 483 L 86 580 C 86 658 98 727 123 788 C 149 853 181 906 221 946 C 263 988 313 1020 372 1044 C 431 1067 493 1079 559 1079 C 624 1079 686 1067 745 1044 C 804 1021 855 988 897 946 C 936 906 969 854 995 788 C 1019 726 1032 657 1032 580 L 1032 483 C 1032 405 1019 335 995 274 C 969 208 936 156 897 117 C 851 71 801 38 745 16 C 686 -7 624 -18 559 -18 C 493 -18 431 -6 373 16 C 317 38 266 71 221 117 C 181 156 149 208 123 274 C 98 335 86 405 86 483 Z M 217 485 C 217 425 225 370 242 322 C 258 271 281 229 309 195 C 337 159 373 133 416 115 C 461 95 509 86 559 86 C 609 86 657 95 702 115 C 744 133 779 159 809 195 C 837 229 860 271 877 322 C 893 371 901 425 901 485 L 901 578 C 901 638 893 692 877 741 C 860 789 837 830 809 866 C 780 902 744 928 702 946 C 656 965 608 975 558 975 C 508 975 460 965 416 946 C 374 928 338 901 309 866 C 280 830 258 789 242 741 C 225 691 217 637 217 578 L 217 485 Z M 293 1319 C 293 1329 295 1341 299 1354 C 301 1363 308 1373 319 1384 C 327 1392 336 1398 348 1403 C 364 1408 377 1411 385 1411 C 393 1411 405 1408 422 1403 C 432 1399 442 1392 450 1384 C 458 1376 465 1366 469 1354 C 474 1337 477 1325 477 1319 C 477 1312 474 1300 469 1284 C 465 1274 459 1265 451 1255 C 440 1244 430 1237 422 1235 C 405 1229 393 1227 385 1227 C 377 1227 364 1229 348 1235 C 340 1237 330 1244 319 1255 C 308 1266 301 1276 299 1284 C 295 1296 293 1308 293 1319 Z M 641 1319 C 641 1329 643 1341 647 1354 C 649 1363 656 1373 668 1384 C 676 1392 685 1398 696 1403 C 712 1408 725 1411 733 1411 C 739 1411 751 1408 768 1403 C 780 1399 790 1392 798 1384 C 806 1376 813 1366 817 1354 C 822 1337 825 1325 825 1319 C 825 1312 822 1300 817 1284 C 813 1274 807 1265 799 1255 C 788 1245 778 1239 768 1235 C 751 1229 739 1227 733 1227 C 725 1227 712 1229 696 1235 C 688 1237 678 1244 667 1255 C 656 1266 649 1276 647 1284 C 643 1296 641 1308 641 1319 Z" unicode="" />
<glyph horiz-adv-x="1009" d="M 86 657 L 86 772 L 924 772 L 924 657 L 86 657 Z M 412 389 C 412 397 414 409 420 426 C 424 436 430 446 438 454 C 446 462 457 469 469 473 C 485 478 498 481 506 481 C 514 481 526 478 543 473 C 552 469 561 463 571 455 C 581 444 588 434 592 426 C 596 414 598 401 598 389 C 598 363 589 341 571 323 C 553 305 532 297 506 297 C 481 297 458 306 438 324 C 420 340 412 361 412 389 Z M 412 1040 C 412 1066 420 1088 438 1106 C 456 1124 478 1133 506 1133 C 533 1133 555 1124 571 1106 C 589 1085 598 1063 598 1040 C 598 1014 589 992 571 974 C 553 956 532 948 506 948 C 481 948 458 957 438 975 C 420 991 412 1012 412 1040 Z" unicode="" />
<glyph horiz-adv-x="1116" d="M 86 483 L 86 580 C 86 658 98 727 123 788 C 149 853 181 906 221 946 C 263 988 313 1020 372 1044 C 431 1067 493 1079 559 1079 C 601 1079 644 1073 688 1063 C 727 1053 765 1038 803 1016 L 920 1206 L 999 1161 L 879 963 C 927 919 964 865 991 801 C 1018 735 1032 662 1032 580 L 1032 483 C 1032 405 1019 335 995 274 C 969 208 936 156 897 117 C 851 71 801 38 745 16 C 686 -7 624 -18 559 -18 C 515 -18 471 -12 428 -2 C 391 7 353 23 313 45 L 207 -131 L 127 -86 L 240 98 C 190 140 153 194 127 260 C 99 326 86 401 86 483 Z M 217 485 C 217 426 224 372 240 324 C 255 276 276 235 303 201 L 745 922 C 717 940 689 953 659 961 C 623 970 590 975 559 975 C 508 975 460 965 416 946 C 374 928 338 901 309 866 C 280 830 258 789 242 741 C 225 691 217 637 217 578 L 217 485 Z M 371 139 C 423 103 485 86 559 86 C 609 86 657 95 702 115 C 744 133 779 159 809 195 C 837 229 860 271 877 322 C 893 371 901 425 901 485 L 901 578 C 901 635 893 688 879 737 C 863 785 842 826 815 860 L 371 139 Z" unicode="" />
<glyph horiz-adv-x="1234" d="M 45 958 L 45 1061 L 344 1061 L 344 377 C 344 284 365 214 408 168 C 452 120 513 96 592 96 C 632 96 671 104 709 121 C 748 139 780 162 805 190 C 833 224 854 259 868 297 C 883 339 891 383 891 430 L 891 958 L 719 958 L 719 1061 L 1018 1061 L 1018 98 L 1194 98 L 1194 0 L 922 0 C 918 0 914 6 911 20 C 908 34 906 50 905 68 C 903 81 901 103 899 133 C 897 148 897 169 897 197 C 882 166 864 137 842 111 C 817 81 792 58 768 43 C 736 22 704 7 672 -2 C 635 -12 596 -18 555 -18 C 504 -18 459 -9 420 8 C 379 27 343 53 311 86 C 281 117 258 157 242 205 C 225 251 217 304 217 362 L 217 958 L 45 958 Z M 356 1511 L 508 1511 L 662 1190 L 541 1190 L 356 1511 Z" unicode="" />
<glyph horiz-adv-x="1234" d="M 45 958 L 45 1061 L 344 1061 L 344 377 C 344 284 365 214 408 168 C 452 120 513 96 592 96 C 632 96 671 104 709 121 C 748 139 780 162 805 190 C 833 224 854 259 868 297 C 883 339 891 383 891 430 L 891 958 L 719 958 L 719 1061 L 1018 1061 L 1018 98 L 1194 98 L 1194 0 L 922 0 C 918 0 914 6 911 20 C 908 34 906 50 905 68 C 903 81 901 103 899 133 C 897 148 897 169 897 197 C 882 166 864 137 842 111 C 817 81 792 58 768 43 C 736 22 704 7 672 -2 C 635 -12 596 -18 555 -18 C 504 -18 459 -9 420 8 C 379 27 343 53 311 86 C 281 117 258 157 242 205 C 225 251 217 304 217 362 L 217 958 L 45 958 Z M 502 1190 L 655 1511 L 807 1511 L 623 1190 L 502 1190 Z" unicode="" />
<glyph horiz-adv-x="1234" d="M 45 958 L 45 1061 L 344 1061 L 344 377 C 344 284 365 214 408 168 C 452 120 513 96 592 96 C 632 96 671 104 709 121 C 748 139 780 162 805 190 C 833 224 854 259 868 297 C 883 339 891 383 891 430 L 891 958 L 719 958 L 719 1061 L 1018 1061 L 1018 98 L 1194 98 L 1194 0 L 922 0 C 918 0 914 6 911 20 C 908 34 906 50 905 68 C 903 81 901 103 899 133 C 897 148 897 169 897 197 C 882 166 864 137 842 111 C 817 81 792 58 768 43 C 736 22 704 7 672 -2 C 635 -12 596 -18 555 -18 C 504 -18 459 -9 420 8 C 379 27 343 53 311 86 C 281 117 258 157 242 205 C 225 251 217 304 217 362 L 217 958 L 45 958 Z M 315 1190 L 541 1511 L 645 1511 L 872 1190 L 750 1190 L 594 1393 L 438 1190 L 315 1190 Z" unicode="" />
<glyph horiz-adv-x="1234" d="M 45 958 L 45 1061 L 344 1061 L 344 377 C 344 284 365 214 408 168 C 452 120 513 96 592 96 C 632 96 671 104 709 121 C 748 139 780 162 805 190 C 833 224 854 259 868 297 C 883 339 891 383 891 430 L 891 958 L 719 958 L 719 1061 L 1018 1061 L 1018 98 L 1194 98 L 1194 0 L 922 0 C 918 0 914 6 911 20 C 908 34 906 50 905 68 C 903 81 901 103 899 133 C 897 148 897 169 897 197 C 882 166 864 137 842 111 C 817 81 792 58 768 43 C 736 22 704 7 672 -2 C 635 -12 596 -18 555 -18 C 504 -18 459 -9 420 8 C 379 27 343 53 311 86 C 281 117 258 157 242 205 C 225 251 217 304 217 362 L 217 958 L 45 958 Z M 328 1319 C 328 1325 330 1337 336 1354 C 340 1366 346 1376 354 1384 C 362 1392 373 1399 385 1403 C 401 1408 413 1411 420 1411 C 428 1411 440 1408 457 1403 C 466 1399 475 1392 485 1384 C 494 1373 501 1363 506 1354 C 510 1342 512 1330 512 1319 C 512 1308 510 1296 506 1284 C 503 1276 496 1266 485 1255 C 474 1244 465 1237 457 1235 C 440 1229 428 1227 420 1227 C 413 1227 401 1229 385 1235 C 374 1239 364 1245 354 1255 C 344 1265 338 1274 336 1284 C 330 1300 328 1312 328 1319 Z M 676 1319 C 676 1329 678 1341 682 1354 C 686 1363 692 1373 702 1384 C 711 1392 721 1398 731 1403 C 747 1408 760 1411 768 1411 C 776 1411 788 1408 805 1403 C 814 1399 824 1392 834 1384 C 843 1373 850 1363 854 1354 C 858 1342 860 1330 860 1319 C 860 1308 858 1296 854 1284 C 851 1276 844 1266 833 1255 C 822 1244 813 1237 805 1235 C 788 1229 776 1227 768 1227 C 760 1227 747 1229 731 1235 C 723 1237 713 1244 702 1255 C 691 1266 684 1276 682 1284 C 678 1296 676 1308 676 1319 Z" unicode="" />
<glyph horiz-adv-x="1230" d="M 45 958 L 45 1061 L 451 1061 L 451 958 L 309 958 L 608 160 L 614 160 L 920 958 L 784 958 L 784 1061 L 1178 1061 L 1178 958 L 1042 958 L 594 -180 C 578 -218 561 -253 541 -285 C 523 -312 501 -334 477 -352 C 453 -368 428 -381 401 -389 C 372 -397 341 -401 307 -401 C 279 -401 252 -397 225 -391 C 195 -384 174 -377 162 -371 L 190 -268 C 202 -272 218 -276 240 -281 C 267 -286 288 -289 303 -289 C 319 -289 340 -286 365 -281 C 381 -277 398 -269 414 -258 C 427 -248 441 -233 455 -213 C 467 -195 477 -173 487 -147 L 545 4 L 174 958 L 45 958 Z M 551 1190 L 705 1511 L 856 1511 L 672 1190 L 551 1190 Z" unicode="" />
<glyph horiz-adv-x="1155" d="M -41 1409 L -41 1511 L 274 1511 L 274 864 C 290 898 312 928 338 954 C 364 980 393 1003 424 1022 C 455 1041 488 1055 524 1065 C 558 1074 595 1079 637 1079 C 697 1079 754 1067 809 1044 C 863 1021 909 989 946 948 C 985 902 1016 851 1038 795 C 1060 735 1071 666 1071 588 L 1071 475 C 1071 398 1060 330 1038 270 C 1014 207 984 155 948 115 C 908 71 863 38 811 16 C 756 -7 699 -18 639 -18 C 593 -18 554 -13 520 -4 C 480 6 447 20 420 37 C 388 56 360 78 336 102 C 310 128 289 155 274 184 L 274 -295 L 461 -295 L 461 -393 L -29 -393 L -29 -295 L 147 -295 L 147 1409 L -41 1409 Z M 274 481 C 274 419 282 365 299 319 C 317 269 340 229 369 199 C 401 163 437 137 477 121 C 517 103 565 94 621 94 C 669 94 714 103 756 121 C 796 139 830 163 856 195 C 882 227 902 267 918 315 C 933 364 940 418 940 477 L 940 586 C 940 644 932 698 918 748 C 904 794 884 834 856 866 C 827 901 794 926 756 942 C 715 958 669 967 618 967 C 566 967 519 958 479 942 C 441 926 405 902 373 870 C 344 841 321 802 303 754 C 285 706 275 654 274 600 L 274 481 Z" unicode="" />
<glyph horiz-adv-x="1230" d="M 45 958 L 45 1061 L 451 1061 L 451 958 L 309 958 L 608 160 L 614 160 L 920 958 L 784 958 L 784 1061 L 1178 1061 L 1178 958 L 1042 958 L 594 -180 C 578 -218 561 -253 541 -285 C 523 -312 501 -334 477 -352 C 453 -368 428 -381 401 -389 C 372 -397 341 -401 307 -401 C 279 -401 252 -397 225 -391 C 195 -384 174 -377 162 -371 L 190 -268 C 202 -272 218 -276 240 -281 C 267 -286 288 -289 303 -289 C 319 -289 340 -286 365 -281 C 381 -277 398 -269 414 -258 C 427 -248 441 -233 455 -213 C 467 -195 477 -173 487 -147 L 545 4 L 174 958 L 45 958 Z M 352 1319 C 352 1329 354 1341 358 1354 C 362 1363 369 1373 379 1384 C 388 1392 398 1398 408 1403 C 424 1408 436 1411 444 1411 C 450 1411 462 1408 479 1403 C 491 1399 501 1392 510 1384 C 519 1373 526 1363 530 1354 C 534 1342 536 1330 536 1319 C 536 1308 534 1296 530 1284 C 527 1276 520 1266 510 1255 C 500 1245 490 1239 479 1235 C 462 1229 450 1227 444 1227 C 436 1227 424 1229 408 1235 C 400 1237 390 1244 379 1255 C 367 1266 360 1276 358 1284 C 354 1296 352 1308 352 1319 Z M 700 1319 C 700 1329 702 1341 707 1354 C 711 1363 717 1373 727 1384 C 735 1392 744 1398 756 1403 C 769 1408 781 1411 793 1411 C 801 1411 813 1408 829 1403 C 838 1399 848 1392 858 1384 C 867 1373 874 1363 879 1354 C 883 1342 885 1330 885 1319 C 885 1308 883 1296 879 1284 C 876 1276 869 1266 858 1255 C 847 1244 837 1237 829 1235 C 812 1229 800 1227 793 1227 C 782 1227 770 1229 756 1235 C 746 1239 737 1245 727 1255 C 716 1265 709 1275 707 1284 C 702 1296 700 1308 700 1319 Z" unicode="" />
<glyph horiz-adv-x="2062" d="M 111 643 L 111 862 C 111 970 126 1067 156 1153 C 183 1231 225 1298 281 1354 C 334 1407 398 1447 473 1473 C 547 1499 629 1511 721 1511 L 1956 1511 L 1956 1161 L 1851 1161 L 1839 1407 L 1180 1407 L 1180 834 L 1559 834 L 1571 999 L 1669 999 L 1669 547 L 1571 547 L 1556 729 L 1180 729 L 1180 104 L 1878 104 L 1894 371 L 1999 371 L 1999 0 L 721 0 C 629 0 547 13 473 39 C 395 66 331 105 281 156 C 226 210 184 277 156 356 C 126 439 111 535 111 643 Z M 250 651 C 250 549 262 464 287 395 C 311 325 345 269 387 227 C 432 181 483 150 541 133 C 602 113 666 104 733 104 L 1042 104 L 1042 1407 L 733 1407 C 660 1407 596 1397 541 1378 C 482 1357 431 1325 387 1282 C 346 1241 313 1184 287 1110 C 262 1040 250 955 250 854 L 250 651 Z" unicode="" />
<glyph horiz-adv-x="1875" d="M 86 483 L 86 580 C 86 658 98 727 123 788 C 149 853 181 906 221 946 C 263 988 313 1020 372 1044 C 431 1067 493 1079 559 1079 C 651 1079 734 1056 807 1010 C 876 964 929 899 965 815 C 997 901 1047 966 1114 1010 C 1183 1056 1266 1079 1362 1079 C 1430 1079 1490 1068 1542 1047 C 1598 1023 1643 993 1677 956 C 1715 916 1743 869 1761 815 C 1780 757 1790 697 1790 635 L 1790 512 L 1032 512 L 1032 481 C 1032 418 1039 364 1053 319 C 1068 269 1089 229 1116 198 C 1143 167 1181 142 1229 123 C 1273 105 1327 96 1391 96 C 1435 96 1470 98 1497 104 C 1533 110 1562 117 1583 125 C 1609 133 1634 143 1657 156 L 1724 193 L 1780 98 C 1772 92 1744 77 1698 53 C 1677 42 1648 30 1612 18 C 1582 8 1547 0 1509 -6 C 1476 -11 1435 -14 1386 -14 C 1281 -14 1193 8 1122 53 C 1052 97 1000 162 965 248 C 929 163 877 97 809 51 C 741 5 657 -18 559 -18 C 493 -18 431 -6 373 16 C 317 38 266 71 221 117 C 181 156 149 208 123 274 C 98 335 86 405 86 483 Z M 217 485 C 217 425 225 370 242 322 C 258 271 281 229 309 195 C 337 159 373 133 416 115 C 461 95 509 86 559 86 C 609 86 657 95 702 115 C 744 133 779 159 809 195 C 837 229 860 271 877 322 C 893 371 901 425 901 485 L 901 578 C 901 638 893 692 877 741 C 860 789 837 830 809 866 C 780 902 744 928 702 946 C 656 965 608 975 558 975 C 508 975 460 965 416 946 C 374 928 338 901 309 866 C 280 830 258 789 242 741 C 225 691 217 637 217 578 L 217 485 Z M 1032 614 L 1659 614 L 1659 629 C 1659 677 1653 724 1642 770 C 1632 812 1615 848 1591 879 C 1565 910 1534 934 1499 950 C 1462 966 1416 975 1362 975 C 1310 975 1265 966 1227 950 C 1187 933 1153 909 1124 879 C 1098 851 1076 813 1059 764 C 1043 720 1034 670 1032 614 Z" unicode="" />
<glyph horiz-adv-x="1480" d="M 53 1409 L 53 1511 L 543 1511 L 543 1409 L 362 1409 L 756 700 L 762 700 L 1137 1409 L 971 1409 L 971 1511 L 1427 1511 L 1427 1409 L 1272 1409 L 819 580 L 819 98 L 1026 98 L 1026 0 L 475 0 L 475 98 L 682 98 L 682 580 L 207 1409 L 53 1409 Z M 494 1769 C 494 1778 496 1790 502 1804 C 507 1818 513 1828 520 1835 C 530 1845 541 1852 551 1855 C 563 1859 574 1861 586 1862 C 598 1862 610 1859 623 1855 C 631 1852 640 1845 651 1835 C 660 1825 667 1815 672 1804 C 676 1794 678 1783 678 1769 C 678 1758 676 1747 672 1735 C 669 1725 662 1715 651 1704 C 643 1696 633 1690 623 1686 C 606 1680 594 1677 586 1677 C 579 1677 567 1680 551 1686 C 539 1690 528 1696 520 1704 C 512 1712 506 1722 502 1735 C 496 1751 494 1762 494 1769 Z M 842 1769 C 842 1778 844 1790 850 1804 C 855 1818 861 1828 868 1835 C 878 1845 888 1852 897 1855 C 909 1859 921 1861 934 1862 C 946 1862 958 1859 971 1855 C 979 1852 988 1845 999 1835 C 1008 1825 1015 1815 1020 1804 C 1024 1794 1026 1783 1026 1769 C 1026 1758 1024 1747 1020 1735 C 1017 1725 1010 1715 999 1704 C 991 1696 981 1690 971 1686 C 954 1680 942 1677 934 1677 C 926 1677 913 1680 897 1686 C 886 1690 876 1696 868 1704 C 860 1712 854 1722 850 1735 C 844 1751 842 1762 842 1769 Z" unicode="" />
<glyph horiz-adv-x="1024" d="M 233 1190 L 459 1511 L 563 1511 L 791 1190 L 668 1190 L 512 1393 L 356 1190 L 233 1190 Z" unicode="" />
<glyph horiz-adv-x="1040" d="M 217 1241 C 237 1288 262 1325 291 1352 C 318 1378 356 1391 406 1391 C 426 1391 448 1387 471 1380 C 489 1374 508 1367 530 1358 L 584 1335 C 602 1328 618 1325 633 1325 C 653 1325 670 1332 684 1346 C 700 1362 714 1381 725 1401 L 825 1356 C 804 1312 779 1275 750 1247 C 720 1219 682 1206 637 1206 C 616 1206 594 1209 571 1217 C 553 1222 533 1229 512 1239 C 492 1247 474 1254 456 1261 C 438 1268 422 1272 408 1272 C 387 1272 370 1265 356 1251 C 344 1239 331 1220 317 1196 L 217 1241 Z" unicode="" />
<glyph horiz-adv-x="1024" d="M 244 1294 L 244 1409 L 778 1409 L 778 1294 L 244 1294 Z" unicode="" />
<glyph horiz-adv-x="1406" d="M 139 -281 C 139 -249 140 -191 143 -106 C 145 -42 150 26 156 100 C 162 168 166 220 168 256 C 168 265 168 275 169 287 C 169 299 170 308 171 314 C 171 320 172 325 172 328 C 172 332 172 336 173 340 C 173 344 174 347 175 350 C 175 352 176 354 176 356 L 176 1176 L 369 1176 L 369 319 C 369 257 396 210 450 176 C 504 142 564 125 629 125 C 715 125 791 146 858 190 C 920 230 970 294 1008 381 L 1008 1176 L 1200 1176 L 1200 307 L 1221 0 L 1057 0 L 1020 176 C 974 105 913 51 835 14 C 757 -22 669 -41 571 -41 C 542 -41 500 -32 444 -14 C 392 2 352 27 324 59 C 324 1 333 -55 352 -113 C 371 -170 381 -220 381 -264 C 381 -370 338 -424 252 -424 C 215 -424 187 -413 168 -391 C 148 -369 139 -333 139 -281 Z" unicode="" />
<glyph horiz-adv-x="1024" d="" unicode="" />
<glyph horiz-adv-x="2050" d="" unicode="" />
<glyph horiz-adv-x="1024" d="" unicode="" />
<glyph horiz-adv-x="2050" d="" unicode="" />
<glyph horiz-adv-x="681" d="" unicode="" />
<glyph horiz-adv-x="512" d="" unicode="" />
<glyph horiz-adv-x="339" d="" unicode="" />
<glyph horiz-adv-x="339" d="" unicode="" />
<glyph horiz-adv-x="256" d="" unicode="" />
<glyph horiz-adv-x="409" d="" unicode="" />
<glyph horiz-adv-x="112" d="" unicode="" />
<glyph horiz-adv-x="538" d="M 82 541 L 82 647 L 457 647 L 457 541 L 82 541 Z" unicode="" />
<glyph horiz-adv-x="538" d="M 82 541 L 82 647 L 457 647 L 457 541 L 82 541 Z" unicode="" />
<glyph horiz-adv-x="538" d="M 82 541 L 82 647 L 457 647 L 457 541 L 82 541 Z" unicode="" />
<glyph horiz-adv-x="968" d="M 82 545 L 82 645 L 887 645 L 887 545 L 82 545 Z" unicode="" />
<glyph horiz-adv-x="1376" d="M 82 545 L 82 645 L 1296 645 L 1296 545 L 82 545 Z" unicode="" />
<glyph horiz-adv-x="387" d="M 106 1276 L 106 1296 C 106 1332 110 1365 119 1393 C 125 1417 138 1440 158 1460 C 174 1478 193 1491 215 1499 C 238 1507 262 1511 287 1511 L 293 1511 L 293 1446 L 291 1446 C 283 1446 270 1443 254 1438 C 240 1434 230 1427 223 1417 C 212 1405 205 1392 203 1380 C 199 1365 197 1349 197 1331 C 221 1332 242 1324 258 1308 C 274 1292 283 1271 283 1247 C 283 1222 275 1202 260 1188 C 243 1171 223 1163 199 1163 C 170 1163 147 1172 131 1192 C 114 1211 106 1239 106 1276 Z" unicode="" />
<glyph horiz-adv-x="387" d="M 96 1171 L 96 1237 L 98 1237 C 106 1237 118 1239 135 1245 C 148 1249 158 1256 166 1266 C 176 1279 183 1290 186 1300 C 190 1315 192 1332 193 1352 C 167 1350 145 1358 129 1374 C 113 1389 106 1410 106 1436 C 106 1460 113 1480 129 1495 C 145 1511 166 1520 190 1520 C 217 1520 239 1510 256 1491 C 274 1470 283 1442 283 1407 L 283 1386 C 283 1347 278 1314 270 1288 C 262 1262 249 1240 231 1223 C 211 1203 192 1190 174 1184 C 150 1176 126 1171 102 1171 L 96 1171 Z" unicode="" />
<glyph horiz-adv-x="387" d="M 96 -100 L 98 -100 C 106 -100 118 -97 135 -92 C 148 -88 158 -81 166 -72 C 176 -60 183 -47 186 -35 C 190 -20 192 -4 193 14 C 167 12 145 20 129 37 C 113 52 106 72 106 98 C 106 122 113 142 129 158 C 145 174 166 182 190 182 C 217 182 239 172 256 154 C 274 133 283 105 283 70 L 283 49 C 283 10 278 -22 270 -49 C 262 -75 249 -97 231 -115 C 211 -134 192 -147 174 -154 C 150 -162 126 -166 102 -166 L 96 -166 L 96 -100 Z" unicode="" />
<glyph horiz-adv-x="675" d="M 106 1276 L 106 1296 C 106 1332 110 1365 119 1393 C 125 1417 138 1440 158 1460 C 174 1478 193 1491 215 1499 C 238 1507 262 1511 287 1511 L 293 1511 L 293 1446 L 291 1446 C 283 1446 270 1443 254 1438 C 240 1434 230 1427 223 1417 C 212 1405 205 1392 203 1380 C 199 1365 197 1349 197 1331 C 221 1332 242 1324 258 1308 C 274 1292 283 1271 283 1247 C 283 1222 275 1202 260 1188 C 243 1171 223 1163 199 1163 C 170 1163 147 1172 131 1192 C 114 1211 106 1239 106 1276 Z M 393 1276 L 393 1296 C 393 1332 397 1365 406 1393 C 412 1417 425 1440 444 1460 C 460 1478 480 1491 502 1499 C 525 1507 549 1511 573 1511 L 580 1511 L 580 1446 L 578 1446 C 570 1446 557 1443 541 1438 C 527 1434 517 1427 510 1417 C 499 1405 492 1392 489 1380 C 485 1365 483 1349 483 1331 C 507 1332 528 1324 544 1308 C 560 1292 569 1271 569 1247 C 569 1225 561 1205 547 1188 C 531 1171 511 1163 485 1163 C 457 1163 436 1172 420 1192 C 402 1212 393 1240 393 1276 Z" unicode="" />
<glyph horiz-adv-x="675" d="M 96 1171 L 96 1237 L 98 1237 C 106 1237 118 1239 135 1245 C 148 1249 158 1256 166 1266 C 176 1279 183 1290 186 1300 C 190 1315 192 1332 193 1352 C 167 1350 145 1358 129 1374 C 113 1389 106 1410 106 1436 C 106 1460 113 1480 129 1495 C 145 1511 166 1520 190 1520 C 217 1520 239 1510 256 1491 C 274 1470 283 1442 283 1407 L 283 1386 C 283 1347 278 1314 270 1288 C 262 1262 249 1240 231 1223 C 211 1203 192 1190 174 1184 C 150 1176 126 1171 102 1171 L 96 1171 Z M 383 1171 L 383 1237 L 385 1237 C 411 1237 433 1246 453 1266 C 471 1284 479 1312 479 1352 C 454 1350 433 1358 417 1374 C 401 1390 393 1411 393 1436 C 393 1460 400 1480 416 1495 C 432 1511 453 1520 477 1520 C 504 1520 526 1510 543 1491 C 561 1470 569 1442 569 1407 L 569 1386 C 569 1352 564 1319 555 1288 C 547 1260 534 1239 518 1223 C 498 1203 479 1190 461 1184 C 437 1176 413 1171 389 1171 L 383 1171 Z" unicode="" />
<glyph horiz-adv-x="675" d="M 96 -100 L 98 -100 C 106 -100 118 -97 135 -92 C 148 -88 158 -81 166 -72 C 176 -60 183 -47 186 -35 C 190 -20 192 -4 193 14 C 167 12 145 20 129 37 C 113 52 106 72 106 98 C 106 122 113 142 129 158 C 145 174 166 182 190 182 C 217 182 239 172 256 154 C 274 133 283 105 283 70 L 283 49 C 283 10 278 -22 270 -49 C 262 -75 249 -97 231 -115 C 211 -134 192 -147 174 -154 C 150 -162 126 -166 102 -166 L 96 -166 L 96 -100 Z M 383 -100 L 385 -100 C 411 -100 433 -90 453 -72 C 471 -54 479 -25 479 14 C 454 12 433 20 417 36 C 401 52 393 73 393 98 C 393 122 400 142 416 158 C 432 174 453 182 477 182 C 504 182 526 172 543 154 C 561 133 569 105 569 70 L 569 49 C 569 15 564 -17 555 -49 C 547 -76 534 -98 518 -115 C 498 -134 479 -147 461 -154 C 437 -162 413 -166 389 -166 L 383 -166 L 383 -100 Z" unicode="" />
<glyph horiz-adv-x="653" d="M 162 842 C 180 860 205 875 238 889 C 266 901 296 907 328 907 C 360 907 391 901 420 889 C 451 875 476 860 494 842 C 514 821 531 796 543 768 C 555 739 561 709 561 678 C 561 646 554 616 542 588 C 530 559 514 534 494 514 C 476 496 451 480 420 467 C 391 455 360 449 328 449 C 296 449 266 455 238 467 C 205 480 180 496 162 514 C 141 534 124 559 112 588 C 100 616 94 646 94 678 C 94 709 100 739 112 768 C 124 796 141 821 162 842 Z" unicode="" />
<glyph horiz-adv-x="1290" d="M 109 80 C 109 88 111 100 117 117 C 121 126 127 135 135 145 C 145 154 156 161 166 166 C 178 170 190 172 202 172 C 214 172 227 170 240 166 C 248 163 257 156 268 145 C 279 134 286 125 289 117 C 293 105 295 92 295 80 C 295 54 286 32 268 14 C 250 -3 229 -12 203 -12 C 178 -12 155 -3 135 14 C 117 30 109 52 109 80 Z M 553 80 C 553 92 555 104 559 117 C 561 125 568 134 580 145 C 589 154 599 161 610 166 C 622 170 634 172 647 172 C 659 172 672 170 684 166 C 692 163 701 156 713 145 C 721 135 727 126 731 117 C 736 100 739 88 739 80 C 739 54 730 32 712 14 C 694 -3 673 -12 647 -12 C 622 -12 600 -3 580 14 C 562 30 553 52 553 80 Z M 997 80 C 997 92 999 104 1004 117 C 1006 125 1013 134 1024 145 C 1034 154 1045 161 1055 166 C 1067 170 1079 172 1091 172 C 1103 172 1116 170 1128 166 C 1136 163 1145 156 1157 145 C 1168 134 1175 125 1178 117 C 1182 105 1184 92 1184 80 C 1184 54 1175 32 1157 14 C 1139 -3 1117 -12 1092 -12 C 1067 -12 1044 -3 1024 14 C 1006 30 997 52 997 80 Z" unicode="" />
<glyph horiz-adv-x="409" d="" unicode="" />
<glyph horiz-adv-x="528" d="M 88 514 L 88 526 L 322 979 L 451 979 L 213 518 L 451 61 L 322 61 L 88 514 Z" unicode="" />
<glyph horiz-adv-x="528" d="M 80 61 L 317 522 L 80 979 L 209 979 L 442 526 L 442 514 L 209 61 L 80 61 Z" unicode="" />
<glyph horiz-adv-x="512" d="" unicode="" />
<glyph horiz-adv-x="1212" d="M 70 567 L 70 672 L 209 672 L 209 844 L 70 844 L 70 948 L 209 948 C 210 1043 222 1128 246 1202 C 268 1272 300 1333 344 1384 C 386 1433 438 1470 502 1495 C 563 1519 634 1532 715 1532 C 769 1532 820 1526 866 1516 C 908 1506 946 1493 981 1475 C 1017 1455 1047 1436 1069 1417 C 1101 1387 1125 1364 1139 1348 L 1042 1264 C 1024 1283 1005 1301 987 1319 C 973 1332 952 1348 922 1366 C 894 1381 866 1393 836 1401 C 803 1409 763 1413 715 1413 C 656 1413 604 1405 559 1389 C 515 1372 477 1345 446 1309 C 414 1271 391 1222 375 1163 C 359 1105 350 1034 348 948 L 782 948 L 782 844 L 348 844 L 348 672 L 782 672 L 782 567 L 348 567 C 348 481 356 408 373 348 C 389 289 413 241 444 203 C 474 166 513 139 561 123 C 607 106 661 98 723 98 C 769 98 809 103 842 113 C 878 123 910 136 938 150 C 957 159 982 176 1012 201 C 1027 213 1047 232 1073 258 L 1163 174 C 1137 146 1112 122 1090 102 C 1065 81 1033 60 995 40 C 957 20 916 5 874 -4 C 826 -14 775 -20 723 -20 C 384 -20 213 175 209 567 L 70 567 Z" unicode="" />
<glyph horiz-adv-x="1685" d="M 53 1317 L 53 1511 L 674 1511 L 674 1317 L 586 1317 L 578 1434 L 418 1434 L 418 829 L 514 829 L 514 756 L 213 756 L 213 829 L 309 829 L 309 1434 L 150 1434 L 141 1317 L 53 1317 Z M 772 756 L 772 829 L 866 829 L 866 1436 L 772 1436 L 772 1511 L 997 1511 L 1200 1047 L 1204 1047 L 1403 1511 L 1632 1511 L 1632 1436 L 1540 1436 L 1540 829 L 1632 829 L 1632 756 L 1343 756 L 1343 829 L 1432 829 L 1432 1358 L 1427 1358 L 1237 918 L 1153 918 L 963 1358 L 958 1358 L 958 829 L 1047 829 L 1047 756 L 772 756 Z" unicode="" />
<glyph horiz-adv-x="382" d="M 98 580 C 98 592 100 604 104 616 C 106 624 113 633 125 645 C 134 654 144 661 156 666 C 168 670 180 672 192 672 C 204 672 217 670 229 666 C 237 663 246 656 257 645 C 268 634 275 624 279 616 C 283 604 285 592 285 580 C 285 552 276 530 258 512 C 241 495 219 487 193 487 C 166 487 143 495 125 512 C 107 528 98 551 98 580 Z" unicode="" />
<glyph horiz-adv-x="1173" d="M 41 958 L 41 1061 L 229 1061 L 229 1145 C 229 1209 239 1265 260 1315 C 280 1364 308 1404 342 1434 C 377 1465 416 1489 459 1505 C 498 1520 544 1528 596 1528 C 628 1528 652 1527 668 1526 C 695 1523 716 1520 731 1518 C 749 1514 769 1508 791 1501 C 803 1497 821 1488 846 1475 L 801 1372 C 785 1377 771 1383 758 1389 C 738 1397 724 1402 714 1405 C 704 1407 687 1410 663 1413 C 639 1415 619 1417 604 1417 C 570 1417 536 1411 504 1401 C 475 1391 449 1375 426 1352 C 404 1330 386 1301 374 1265 C 362 1229 356 1188 356 1141 L 356 1061 L 948 1061 L 948 98 L 1128 98 L 1128 0 L 674 0 L 674 98 L 821 98 L 821 958 L 356 958 L 356 98 L 512 98 L 512 0 L 53 0 L 53 98 L 229 98 L 229 958 L 41 958 Z" unicode="" />
<glyph horiz-adv-x="1177" d="M 41 958 L 41 1061 L 229 1061 L 229 1137 C 229 1202 238 1258 258 1305 C 278 1353 306 1393 342 1427 C 378 1462 419 1487 465 1503 C 513 1519 563 1528 616 1528 C 636 1528 662 1526 692 1524 C 722 1521 743 1518 756 1516 C 771 1512 789 1506 809 1499 C 813 1497 820 1495 831 1492 C 842 1488 850 1485 856 1483 C 865 1487 875 1491 886 1495 C 897 1499 908 1502 918 1505 C 919 1505 922 1506 927 1508 C 931 1510 935 1511 938 1511 C 944 1511 948 1509 948 1505 L 948 98 L 1133 98 L 1133 0 L 674 0 L 674 98 L 821 98 L 821 1376 C 810 1380 798 1385 786 1391 C 783 1392 779 1394 774 1396 C 768 1398 763 1399 759 1401 C 754 1402 749 1403 743 1405 C 731 1407 713 1410 690 1413 C 662 1415 638 1417 618 1417 C 533 1417 468 1392 423 1343 C 378 1294 356 1224 356 1133 L 356 1061 L 616 1061 L 616 958 L 356 958 L 356 98 L 512 98 L 512 0 L 53 0 L 53 98 L 229 98 L 229 958 L 41 958 Z" unicode="" />
<glyph horiz-adv-x="1763" d="M 41 958 L 41 1061 L 229 1061 L 229 1184 C 229 1240 237 1288 254 1329 C 269 1367 291 1400 319 1430 C 346 1457 377 1477 411 1489 C 445 1501 482 1507 520 1507 C 552 1507 579 1505 600 1501 C 636 1494 659 1489 668 1487 L 639 1380 C 619 1385 603 1389 591 1392 C 579 1395 558 1397 528 1397 C 498 1397 475 1393 459 1386 C 439 1378 422 1365 406 1348 C 388 1327 375 1304 369 1280 C 361 1251 356 1216 356 1176 L 356 1061 L 821 1061 L 821 1145 C 821 1209 831 1265 852 1315 C 872 1364 900 1404 934 1434 C 969 1465 1008 1489 1051 1505 C 1090 1520 1136 1528 1188 1528 C 1220 1528 1244 1527 1260 1526 C 1287 1523 1308 1520 1323 1518 C 1339 1514 1359 1508 1382 1501 C 1394 1497 1412 1488 1438 1475 L 1393 1372 C 1377 1377 1363 1383 1350 1389 C 1330 1397 1316 1402 1307 1405 C 1296 1407 1279 1410 1257 1413 C 1232 1415 1212 1417 1196 1417 C 1162 1417 1128 1411 1096 1401 C 1067 1391 1041 1375 1018 1352 C 996 1330 978 1301 966 1265 C 954 1229 948 1188 948 1141 L 948 1061 L 1540 1061 L 1540 98 L 1720 98 L 1720 0 L 1266 0 L 1266 98 L 1413 98 L 1413 958 L 948 958 L 948 98 L 1104 98 L 1104 0 L 674 0 L 674 98 L 821 98 L 821 958 L 356 958 L 356 98 L 510 98 L 510 0 L 53 0 L 53 98 L 229 98 L 229 958 L 41 958 Z" unicode="" />
<glyph horiz-adv-x="1767" d="M 41 958 L 41 1061 L 229 1061 L 229 1184 C 229 1240 237 1288 254 1329 C 269 1367 291 1400 319 1430 C 346 1457 377 1477 411 1489 C 445 1501 482 1507 520 1507 C 552 1507 579 1505 600 1501 C 636 1494 659 1489 668 1487 L 639 1380 C 619 1385 603 1389 591 1392 C 579 1395 558 1397 528 1397 C 498 1397 475 1393 459 1386 C 439 1378 422 1365 406 1348 C 388 1327 375 1304 369 1280 C 361 1251 356 1216 356 1176 L 356 1061 L 821 1061 L 821 1137 C 821 1199 831 1255 852 1305 C 872 1355 900 1396 934 1427 C 970 1462 1011 1487 1057 1503 C 1103 1519 1154 1528 1208 1528 C 1228 1528 1254 1526 1284 1524 C 1314 1521 1335 1518 1348 1516 C 1363 1512 1381 1506 1401 1499 C 1405 1497 1412 1495 1423 1492 C 1434 1488 1442 1485 1448 1483 C 1457 1487 1467 1491 1478 1495 C 1489 1499 1499 1502 1509 1505 C 1510 1505 1513 1506 1519 1508 C 1525 1510 1529 1511 1532 1511 C 1537 1511 1540 1509 1540 1505 L 1540 98 L 1724 98 L 1724 0 L 1266 0 L 1266 98 L 1413 98 L 1413 1376 C 1402 1380 1390 1385 1378 1391 C 1375 1392 1371 1394 1366 1396 C 1360 1398 1355 1399 1350 1401 C 1345 1402 1340 1403 1335 1405 C 1323 1407 1305 1410 1282 1413 C 1254 1415 1230 1417 1210 1417 C 1125 1417 1060 1392 1015 1343 C 970 1294 948 1224 948 1133 L 948 1061 L 1208 1061 L 1208 958 L 948 958 L 948 98 L 1104 98 L 1104 0 L 674 0 L 674 98 L 821 98 L 821 958 L 356 958 L 356 98 L 510 98 L 510 0 L 53 0 L 53 98 L 229 98 L 229 958 L 41 958 Z" unicode="" />
</font>
</defs>
</svg>
