<?xml version="1.0" encoding="utf-8" ?><svg version="1.1" xmlns = 'http://www.w3.org/2000/svg'><defs><font id='web' horiz-adv-x="1000">
<font-face font-family="web" descent="-557" cap-height="1319" units-per-em="2048" bbox="-117,-557,2066,1804" x-height="852" ascent="1475" />
<missing-glyph horiz-adv-x="410" d="" /><glyph horiz-adv-x="410" d="" unicode=" " />
<glyph horiz-adv-x="594" d="M 389 1167 L 332 332 L 279 332 L 221 1167 L 221 1352 L 389 1352 L 389 1167 Z M 406 80 C 406 66 403 53 398 41 C 392 29 385 18 376 9 C 366 0 356 -6 344 -12 C 332 -17 319 -20 305 -20 C 277 -20 253 -10 234 9 C 214 28 205 52 205 80 C 205 108 214 131 234 151 C 253 170 277 180 305 180 C 319 180 332 177 344 172 C 356 166 366 159 376 150 C 385 141 392 131 398 119 C 403 107 406 94 406 80 Z" unicode="!" />
<glyph horiz-adv-x="614" d="M 520 1270 L 471 942 L 430 942 L 381 1270 L 381 1434 L 520 1434 L 520 1270 Z M 233 1270 L 184 942 L 143 942 L 94 1270 L 94 1434 L 233 1434 L 233 1270 Z" unicode="&#x22;" />
<glyph horiz-adv-x="1151" d="M 1036 901 L 1026 827 L 819 827 L 776 489 L 983 489 L 973 416 L 766 416 L 715 0 L 639 0 L 690 416 L 397 416 L 346 0 L 270 0 L 322 416 L 115 416 L 125 489 L 332 489 L 375 827 L 168 827 L 178 901 L 385 901 L 438 1319 L 514 1319 L 461 901 L 754 901 L 807 1319 L 883 1319 L 829 901 L 1036 901 Z M 743 827 L 451 827 L 408 489 L 700 489 L 743 827 Z" unicode="#" />
<glyph horiz-adv-x="1055" d="M 920 352 C 920 298 910 249 892 205 C 873 161 848 124 816 93 C 784 62 746 37 703 19 C 660 1 615 -10 567 -14 L 567 -176 L 498 -176 L 498 -16 C 466 -15 433 -13 400 -10 C 367 -6 335 -2 304 4 C 272 10 243 17 216 26 C 188 34 165 45 145 57 L 135 381 L 180 387 L 223 162 C 238 144 256 128 278 114 C 300 100 323 88 348 78 C 372 68 397 60 423 54 C 449 48 474 45 498 45 L 498 614 C 440 641 390 668 347 694 C 303 720 267 748 238 778 C 209 808 187 841 172 877 C 157 913 150 956 150 1004 C 150 1050 158 1094 175 1134 C 192 1174 216 1208 247 1238 C 277 1267 314 1290 357 1308 C 399 1325 446 1335 498 1337 L 498 1483 L 567 1483 L 567 1335 C 625 1331 679 1324 730 1313 C 780 1301 828 1287 872 1270 L 860 979 L 815 979 L 784 1186 C 772 1199 757 1211 741 1221 C 724 1231 706 1240 687 1248 C 668 1256 648 1262 628 1267 C 607 1272 587 1276 567 1278 L 567 758 C 635 728 691 698 736 668 C 781 638 817 606 845 574 C 872 542 891 507 903 471 C 914 435 920 395 920 352 Z M 498 786 L 498 1278 C 468 1276 440 1269 414 1257 C 388 1245 366 1230 348 1211 C 329 1191 314 1168 304 1142 C 294 1116 289 1087 289 1055 C 289 1027 292 1000 298 976 C 304 951 316 928 332 906 C 348 884 369 864 396 844 C 422 824 456 804 498 786 Z M 772 301 C 772 329 769 355 763 381 C 757 407 747 432 732 456 C 717 480 696 502 670 524 C 643 546 609 566 567 586 L 567 51 C 597 57 625 68 651 84 C 676 100 698 120 716 143 C 734 165 747 190 757 218 C 767 245 772 273 772 301 Z" unicode="$" />
<glyph horiz-adv-x="1481" d="M 627 981 C 627 934 621 888 610 844 C 599 800 582 760 559 726 C 536 691 507 663 473 642 C 438 620 397 610 350 610 C 302 610 261 620 227 642 C 193 663 164 691 141 726 C 118 760 101 800 90 844 C 79 888 74 934 74 981 C 74 1027 79 1073 90 1118 C 101 1162 118 1202 141 1237 C 164 1271 193 1299 227 1320 C 261 1341 302 1352 350 1352 C 397 1352 438 1341 473 1320 C 507 1299 536 1271 559 1237 C 582 1202 599 1162 610 1118 C 621 1073 627 1027 627 981 Z M 1174 1315 L 367 -35 L 309 2 L 1116 1352 L 1174 1315 Z M 1407 338 C 1407 291 1401 245 1390 201 C 1379 157 1362 117 1339 83 C 1316 48 1287 20 1253 -1 C 1218 -22 1177 -33 1130 -33 C 1082 -33 1041 -22 1007 -1 C 973 20 944 48 921 83 C 898 117 881 157 870 201 C 859 245 854 291 854 338 C 854 384 859 430 870 475 C 881 519 898 559 921 594 C 944 628 973 656 1007 677 C 1041 698 1082 709 1130 709 C 1177 709 1218 698 1253 677 C 1287 656 1316 628 1339 594 C 1362 559 1379 519 1390 475 C 1401 430 1407 384 1407 338 Z M 500 981 C 500 1019 497 1058 492 1097 C 487 1135 479 1170 468 1201 C 456 1232 441 1257 422 1277 C 402 1297 378 1307 350 1307 C 320 1307 296 1297 277 1277 C 258 1257 243 1232 232 1201 C 220 1170 212 1135 208 1097 C 203 1058 201 1019 201 981 C 201 942 203 903 208 865 C 212 826 220 791 232 760 C 244 729 259 704 278 684 C 297 664 321 655 350 655 C 378 655 402 664 422 684 C 441 704 456 729 468 760 C 479 791 487 826 492 865 C 497 903 500 942 500 981 Z M 1280 338 C 1280 376 1277 415 1272 454 C 1267 492 1259 527 1248 558 C 1236 589 1221 614 1202 634 C 1182 654 1158 664 1130 664 C 1100 664 1076 654 1057 634 C 1038 614 1023 589 1012 558 C 1000 527 992 492 988 454 C 983 415 981 376 981 338 C 981 299 983 260 988 222 C 992 183 1000 148 1012 117 C 1024 86 1039 61 1058 41 C 1077 21 1101 12 1130 12 C 1158 12 1182 21 1202 41 C 1221 61 1236 86 1248 117 C 1259 148 1267 183 1272 222 C 1277 260 1280 299 1280 338 Z" unicode="%" />
<glyph horiz-adv-x="1268" d="M 1268 0 L 1034 0 L 856 193 C 840 167 820 140 796 114 C 772 87 743 63 711 41 C 678 19 641 2 600 -12 C 558 -26 513 -33 463 -33 C 407 -33 354 -23 306 -5 C 258 13 216 40 180 74 C 144 108 116 148 96 196 C 76 243 66 296 66 354 C 66 402 74 445 91 484 C 107 522 129 557 157 588 C 185 619 216 646 251 670 C 286 694 322 714 358 731 C 310 776 273 823 246 872 C 218 920 205 972 205 1028 C 205 1073 212 1115 228 1154 C 244 1193 265 1227 293 1256 C 321 1284 354 1307 392 1323 C 430 1339 471 1348 516 1348 C 558 1348 597 1341 633 1329 C 669 1316 701 1298 727 1274 C 753 1250 774 1221 790 1187 C 805 1153 813 1114 813 1071 C 813 1028 803 990 783 956 C 763 922 738 893 709 867 C 679 841 647 819 613 801 C 579 783 548 768 520 756 L 881 365 C 889 387 898 412 906 440 C 914 468 921 497 929 527 C 936 556 942 584 948 612 C 954 640 959 664 963 686 L 809 702 L 809 748 L 1243 748 L 1243 702 L 1081 686 C 1073 660 1062 630 1049 596 C 1036 562 1022 527 1008 492 C 994 456 979 423 965 391 C 951 359 938 334 928 315 L 1159 63 L 1268 41 L 1268 0 Z M 682 1085 C 682 1113 678 1139 671 1165 C 663 1190 652 1212 638 1231 C 624 1250 606 1265 586 1277 C 565 1288 542 1294 516 1294 C 490 1294 466 1288 445 1276 C 423 1264 405 1248 390 1228 C 374 1207 362 1182 354 1154 C 346 1126 342 1095 342 1061 C 342 1032 346 1005 354 980 C 362 955 374 932 388 910 C 402 888 417 866 435 846 C 453 826 471 806 489 788 C 556 822 605 864 636 914 C 666 964 682 1021 682 1085 Z M 815 238 L 391 696 C 366 680 343 662 323 642 C 302 622 284 599 269 574 C 254 549 242 521 234 491 C 225 461 221 428 221 393 C 221 348 228 307 242 269 C 256 231 277 198 303 170 C 329 142 359 120 395 104 C 431 88 470 80 514 80 C 544 80 574 84 605 93 C 635 101 664 113 691 127 C 718 141 742 158 764 177 C 786 196 803 216 815 238 Z" unicode="&#x26;" />
<glyph horiz-adv-x="369" d="M 254 1270 L 205 942 L 164 942 L 115 1270 L 115 1434 L 254 1434 L 254 1270 Z" unicode="'" />
<glyph horiz-adv-x="705" d="M 614 -412 L 582 -451 C 512 -396 447 -334 389 -264 C 331 -194 281 -118 239 -37 C 197 44 164 130 141 221 C 117 312 106 406 106 502 C 106 598 117 691 141 782 C 164 873 197 959 239 1041 C 281 1122 331 1198 389 1268 C 447 1338 512 1400 582 1454 L 614 1415 C 550 1359 494 1294 446 1222 C 398 1149 357 1072 325 992 C 292 912 267 830 251 746 C 235 662 227 580 227 502 C 227 422 235 341 251 257 C 267 173 292 91 325 11 C 357 -68 398 -145 446 -218 C 494 -290 550 -355 614 -412 Z" unicode="(" />
<glyph horiz-adv-x="705" d="M 598 502 C 598 406 586 312 563 221 C 539 130 507 44 465 -37 C 423 -118 372 -194 314 -264 C 256 -334 192 -396 123 -451 L 90 -412 C 153 -355 209 -290 257 -218 C 305 -145 346 -68 378 11 C 410 91 435 173 452 257 C 468 341 477 422 477 502 C 477 580 468 662 452 746 C 435 830 410 912 378 992 C 346 1072 305 1149 257 1222 C 209 1294 153 1359 90 1415 L 123 1454 C 192 1400 256 1338 314 1268 C 372 1198 423 1122 465 1041 C 507 959 539 873 563 782 C 586 691 598 598 598 502 Z" unicode=")" />
<glyph horiz-adv-x="864" d="M 782 840 L 727 745 L 670 778 L 446 954 L 487 672 L 487 606 L 377 606 L 377 672 L 418 954 L 195 778 L 137 745 L 82 840 L 139 872 L 403 979 L 139 1085 L 82 1118 L 137 1212 L 195 1180 L 418 1004 L 377 1286 L 377 1352 L 487 1352 L 487 1286 L 446 1004 L 670 1180 L 727 1212 L 782 1118 L 725 1085 L 461 979 L 725 872 L 782 840 Z" unicode="*" />
<glyph horiz-adv-x="1229" d="M 1079 567 L 657 567 L 657 123 L 571 123 L 571 567 L 150 567 L 150 645 L 571 645 L 571 1090 L 657 1090 L 657 645 L 1079 645 L 1079 567 Z" unicode="+" />
<glyph horiz-adv-x="451" d="M 360 18 C 360 -20 354 -54 343 -84 C 331 -114 316 -140 296 -164 C 276 -187 253 -207 226 -224 C 199 -240 170 -254 139 -264 L 111 -211 C 134 -203 156 -194 177 -182 C 197 -170 215 -156 231 -140 C 246 -123 258 -104 267 -82 C 276 -60 281 -36 281 -10 L 117 51 C 111 57 107 65 103 75 C 99 85 98 96 98 106 C 98 131 107 153 126 172 C 145 191 171 201 205 201 C 226 201 246 196 265 186 C 284 176 301 162 315 145 C 329 128 340 109 348 87 C 356 65 360 42 360 18 Z" unicode="," />
<glyph horiz-adv-x="573" d="M 492 442 L 82 393 L 82 483 L 492 532 L 492 442 Z" unicode="-" />
<glyph horiz-adv-x="451" d="M 332 86 C 332 71 329 57 323 44 C 317 31 310 20 301 11 C 291 1 280 -5 267 -11 C 253 -17 239 -20 225 -20 C 195 -20 169 -9 149 10 C 129 30 119 56 119 86 C 119 100 121 114 127 127 C 133 140 140 151 150 161 C 159 171 170 178 183 184 C 196 190 210 193 225 193 C 239 193 253 190 267 184 C 280 178 291 171 301 161 C 310 151 317 140 323 127 C 329 114 332 100 332 86 Z" unicode="." />
<glyph horiz-adv-x="606" d="M 541 1348 L 152 -102 L 66 -102 L 455 1348 L 541 1348 Z" unicode="/" />
<glyph horiz-adv-x="1016" d="M 942 659 C 942 601 938 545 931 489 C 924 433 913 379 899 329 C 885 278 866 231 843 188 C 820 144 792 107 760 76 C 728 44 691 20 649 2 C 607 -16 560 -25 508 -25 C 455 -25 408 -16 366 2 C 324 20 287 44 255 76 C 223 107 195 144 172 188 C 149 231 130 278 116 329 C 102 379 91 433 84 489 C 77 545 74 601 74 659 C 74 716 77 773 84 829 C 91 885 102 939 116 990 C 130 1040 149 1087 172 1130 C 195 1173 223 1210 255 1242 C 287 1274 324 1298 366 1316 C 408 1334 455 1343 508 1343 C 560 1343 607 1334 649 1316 C 691 1298 728 1274 760 1242 C 792 1210 820 1173 843 1130 C 866 1087 885 1040 899 990 C 913 939 924 885 931 829 C 938 773 942 716 942 659 Z M 774 659 C 774 711 772 763 769 815 C 765 866 760 915 752 961 C 744 1007 734 1049 721 1089 C 707 1128 691 1162 671 1191 C 651 1219 628 1242 601 1258 C 574 1274 543 1282 508 1282 C 472 1282 441 1274 414 1258 C 387 1242 364 1219 344 1191 C 324 1162 308 1128 295 1089 C 281 1049 271 1007 263 961 C 255 915 250 866 247 815 C 243 763 242 711 242 659 C 242 580 245 503 253 429 C 261 354 275 288 295 230 C 315 172 342 125 376 90 C 410 54 454 37 508 37 C 561 37 605 54 639 90 C 673 125 701 172 721 230 C 741 288 754 354 762 429 C 770 503 774 580 774 659 Z" unicode="0" />
<glyph horiz-adv-x="774" d="M 735 0 L 109 0 L 109 45 L 348 74 L 348 1188 L 70 1159 L 70 1204 L 487 1333 L 496 1333 L 496 74 L 735 45 L 735 0 Z" unicode="1" />
<glyph horiz-adv-x="950" d="M 883 281 L 846 0 L 55 0 L 45 61 L 354 385 C 404 437 448 486 488 532 C 528 578 561 625 589 671 C 617 717 638 766 653 816 C 668 866 676 922 676 983 C 676 1025 670 1064 659 1100 C 647 1135 631 1165 609 1191 C 587 1216 561 1235 529 1249 C 497 1263 460 1270 420 1270 C 384 1270 351 1264 322 1254 C 293 1243 267 1228 245 1209 C 222 1189 202 1166 185 1139 C 167 1111 153 1081 141 1047 L 76 1083 C 89 1121 106 1156 128 1188 C 150 1220 176 1248 207 1272 C 238 1296 274 1314 314 1328 C 354 1341 400 1348 451 1348 C 507 1348 559 1340 607 1324 C 655 1308 696 1286 730 1256 C 764 1226 791 1189 811 1145 C 830 1101 840 1052 840 997 C 840 943 833 893 819 849 C 805 805 784 761 757 719 C 729 676 695 632 655 587 C 614 542 567 492 514 438 L 211 127 L 211 123 L 778 123 L 831 291 L 883 281 Z" unicode="2" />
<glyph horiz-adv-x="907" d="M 838 375 C 838 312 825 255 799 205 C 773 154 738 111 695 75 C 651 39 601 11 545 -8 C 489 -27 431 -37 371 -37 C 341 -37 312 -34 282 -29 C 252 -23 224 -16 196 -6 C 168 3 142 14 117 28 C 92 42 70 57 51 74 L 84 141 C 100 127 119 113 141 101 C 162 89 185 78 209 69 C 233 59 259 52 286 47 C 313 41 341 39 369 39 C 412 39 452 46 490 60 C 527 74 559 94 587 121 C 614 147 635 180 651 218 C 666 256 674 300 674 350 C 674 398 666 440 651 476 C 635 512 614 543 588 568 C 562 592 531 611 495 624 C 459 636 420 643 379 643 C 356 643 334 642 312 641 C 290 639 266 636 242 631 L 231 717 C 293 717 348 722 396 734 C 444 746 485 764 519 789 C 552 814 577 846 595 886 C 612 926 621 974 621 1030 C 621 1066 615 1099 605 1129 C 595 1158 580 1183 561 1204 C 541 1225 518 1241 491 1253 C 463 1264 433 1270 399 1270 C 340 1270 289 1255 246 1225 C 203 1195 165 1150 131 1090 L 74 1137 C 118 1211 168 1264 226 1298 C 283 1331 350 1348 428 1348 C 474 1348 519 1341 561 1327 C 603 1313 640 1292 672 1266 C 704 1239 729 1206 748 1167 C 766 1128 776 1084 776 1034 C 776 997 769 961 755 926 C 741 891 721 859 696 830 C 671 801 641 776 607 754 C 572 732 534 715 494 705 L 494 700 C 540 696 585 685 627 667 C 669 649 705 626 736 598 C 767 569 792 536 810 498 C 828 460 838 419 838 375 Z" unicode="3" />
<glyph horiz-adv-x="958" d="M 938 481 L 918 383 L 723 383 L 723 -29 L 580 -29 L 580 383 L 35 383 L 12 444 L 686 1343 L 723 1335 L 723 481 L 938 481 Z M 580 481 L 580 1085 L 133 481 L 580 481 Z" unicode="4" />
<glyph horiz-adv-x="918" d="M 842 399 C 842 332 829 272 805 218 C 781 164 747 119 705 81 C 663 43 613 13 556 -6 C 499 -26 438 -37 373 -37 C 342 -37 311 -34 281 -29 C 250 -23 220 -16 192 -6 C 163 4 135 16 109 31 C 83 45 59 62 37 82 L 70 150 C 113 112 162 84 216 65 C 270 46 327 37 385 37 C 426 37 465 45 501 61 C 537 77 569 100 596 129 C 622 157 643 191 659 231 C 674 271 682 314 682 362 C 682 418 673 468 656 510 C 638 552 614 586 582 614 C 550 642 512 662 468 676 C 423 689 373 696 319 696 C 284 696 250 694 217 691 C 183 688 151 684 121 678 L 184 1319 L 791 1319 L 776 1188 L 256 1188 L 215 772 C 249 778 281 782 312 786 C 342 789 376 791 412 791 C 470 791 525 782 577 764 C 629 746 675 720 714 686 C 753 652 784 610 807 562 C 830 514 842 459 842 399 Z" unicode="5" />
<glyph horiz-adv-x="983" d="M 926 420 C 926 366 916 313 897 260 C 878 206 851 158 815 115 C 779 72 734 37 681 11 C 628 -15 568 -29 500 -29 C 425 -29 360 -12 306 19 C 251 51 206 95 171 150 C 135 204 109 267 92 339 C 74 411 66 486 66 565 C 66 683 82 790 116 887 C 150 984 198 1067 262 1137 C 326 1206 403 1260 495 1298 C 587 1336 691 1356 807 1356 L 807 1290 C 641 1290 509 1240 413 1142 C 317 1043 258 894 238 694 C 281 746 327 786 377 812 C 427 838 483 852 545 852 C 602 852 654 840 701 816 C 747 792 787 761 821 721 C 854 681 880 636 898 584 C 916 532 926 477 926 420 Z M 766 406 C 766 469 759 523 745 569 C 731 615 712 652 688 682 C 664 711 637 733 606 747 C 574 761 541 768 506 768 C 478 768 452 764 426 757 C 400 750 375 740 351 728 C 327 716 306 701 286 683 C 266 665 250 645 236 623 C 235 618 234 612 234 605 C 234 598 233 591 233 583 C 233 575 233 568 233 560 C 233 552 233 546 233 541 C 233 502 235 463 239 423 C 243 383 249 345 258 307 C 267 269 279 234 293 201 C 307 167 325 138 346 113 C 367 88 392 68 420 54 C 448 40 480 33 516 33 C 550 33 582 41 612 59 C 642 76 668 101 691 133 C 714 165 732 205 746 251 C 759 297 766 348 766 406 Z" unicode="6" />
<glyph horiz-adv-x="899" d="M 907 1286 L 510 430 L 330 -25 L 170 -25 L 784 1196 L 160 1196 L 104 1022 L 55 1030 L 102 1319 L 907 1319 L 907 1286 Z" unicode="7" />
<glyph horiz-adv-x="993" d="M 928 342 C 928 295 921 253 907 217 C 893 180 874 148 851 120 C 828 92 801 69 771 50 C 741 30 709 14 677 2 C 645 -9 612 -18 580 -24 C 547 -30 517 -33 489 -33 C 436 -33 384 -25 334 -10 C 283 5 238 28 198 59 C 158 89 126 127 102 173 C 78 218 66 270 66 330 C 66 372 73 412 89 449 C 105 485 126 519 153 549 C 180 579 212 605 248 629 C 284 653 323 674 365 692 C 329 712 297 733 268 756 C 238 778 213 803 191 830 C 169 857 153 887 141 919 C 129 951 123 986 123 1026 C 123 1078 133 1124 153 1165 C 173 1205 200 1239 234 1267 C 268 1295 308 1316 354 1330 C 400 1344 448 1352 500 1352 C 554 1352 603 1345 649 1332 C 694 1318 733 1298 765 1272 C 797 1246 823 1213 841 1173 C 859 1133 868 1088 868 1036 C 868 1004 860 972 845 940 C 830 908 811 879 787 851 C 763 823 736 797 706 775 C 676 752 646 733 616 719 C 662 693 704 667 742 641 C 780 614 812 585 840 555 C 868 524 889 491 905 456 C 920 421 928 383 928 342 Z M 725 1042 C 725 1084 718 1121 704 1153 C 690 1184 671 1210 649 1230 C 626 1250 600 1265 572 1275 C 544 1285 515 1290 487 1290 C 458 1290 431 1285 405 1277 C 379 1268 356 1255 336 1237 C 316 1219 300 1197 288 1169 C 276 1141 270 1109 270 1071 C 270 1037 276 1007 290 979 C 303 951 323 924 349 898 C 375 872 407 847 445 822 C 483 797 528 771 578 743 C 598 763 618 783 636 803 C 654 823 669 845 683 869 C 696 892 706 918 714 946 C 721 974 725 1006 725 1042 Z M 768 309 C 768 342 760 373 744 403 C 728 432 705 461 675 489 C 645 517 607 546 561 575 C 515 604 463 635 403 668 C 373 648 347 626 325 604 C 303 582 284 557 268 530 C 252 503 241 474 233 442 C 225 410 221 374 221 336 C 221 281 229 234 247 195 C 264 156 286 124 314 100 C 341 75 371 57 404 46 C 437 34 470 29 502 29 C 534 29 565 33 597 43 C 629 53 657 69 683 91 C 708 113 728 141 744 177 C 760 213 768 257 768 309 Z" unicode="8" />
<glyph horiz-adv-x="981" d="M 915 756 C 915 642 897 536 862 439 C 826 341 776 257 712 186 C 648 115 571 59 481 18 C 391 -22 292 -43 184 -45 L 178 20 C 258 24 332 41 398 71 C 464 100 521 140 569 192 C 617 243 656 304 685 376 C 713 448 731 528 739 618 C 697 572 652 535 604 509 C 556 482 500 469 436 469 C 372 469 316 482 268 508 C 220 534 180 568 148 609 C 116 650 93 696 77 746 C 61 796 53 845 53 893 C 53 961 63 1024 85 1080 C 106 1136 136 1184 174 1224 C 212 1263 257 1293 309 1315 C 361 1337 417 1348 479 1348 C 549 1348 612 1332 666 1302 C 720 1272 766 1230 803 1177 C 839 1124 867 1061 886 989 C 905 917 915 839 915 756 Z M 745 805 C 745 867 739 928 728 986 C 716 1044 699 1095 676 1140 C 653 1184 624 1220 589 1246 C 553 1272 511 1286 463 1286 C 425 1286 391 1277 361 1260 C 330 1243 304 1218 282 1186 C 260 1154 243 1114 231 1066 C 219 1018 213 964 213 903 C 213 847 219 798 233 754 C 246 710 265 672 290 642 C 314 611 344 587 379 571 C 413 555 452 547 496 547 C 516 547 538 550 562 557 C 586 563 609 573 631 586 C 653 598 674 614 694 632 C 713 650 729 670 743 694 C 743 708 744 727 744 749 C 744 771 745 790 745 805 Z" unicode="9" />
<glyph horiz-adv-x="532" d="M 373 741 C 373 726 370 712 364 699 C 358 686 351 675 342 666 C 332 656 321 649 308 643 C 294 637 280 635 266 635 C 236 635 210 645 190 665 C 170 685 160 711 160 741 C 160 755 162 769 168 783 C 174 796 181 807 191 817 C 200 826 211 833 224 839 C 237 845 251 848 266 848 C 280 848 294 845 308 839 C 321 833 332 826 342 817 C 351 807 358 796 364 783 C 370 769 373 755 373 741 Z M 373 90 C 373 75 370 61 364 48 C 358 35 351 24 342 15 C 332 5 321 -1 308 -7 C 294 -13 280 -16 266 -16 C 236 -16 210 -5 190 14 C 170 34 160 60 160 90 C 160 104 162 118 168 132 C 174 145 181 156 191 166 C 200 175 211 182 224 188 C 237 194 251 197 266 197 C 280 197 294 194 308 188 C 321 182 332 175 342 166 C 351 156 358 145 364 132 C 370 118 373 104 373 90 Z" unicode=":" />
<glyph horiz-adv-x="532" d="M 373 741 C 373 726 370 712 364 699 C 358 686 351 675 342 666 C 332 656 321 649 308 643 C 294 637 280 635 266 635 C 236 635 210 645 190 665 C 170 685 160 711 160 741 C 160 755 162 769 168 783 C 174 796 181 807 191 817 C 200 826 211 833 224 839 C 237 845 251 848 266 848 C 280 848 294 845 308 839 C 321 833 332 826 342 817 C 351 807 358 796 364 783 C 370 769 373 755 373 741 Z M 403 18 C 403 -20 397 -54 386 -84 C 374 -114 359 -140 339 -164 C 319 -187 296 -207 269 -224 C 242 -240 213 -254 182 -264 L 154 -211 C 177 -203 199 -194 220 -182 C 240 -170 258 -156 274 -140 C 289 -123 301 -104 310 -82 C 319 -60 324 -36 324 -10 L 160 51 C 154 57 150 65 146 75 C 142 85 141 96 141 106 C 141 131 150 153 169 172 C 188 191 214 201 248 201 C 269 201 289 196 308 186 C 327 176 344 162 358 145 C 372 128 383 109 391 87 C 399 65 403 42 403 18 Z" unicode=";" />
<glyph horiz-adv-x="1229" d="M 1049 104 L 127 573 L 127 639 L 1049 1108 L 1049 1018 L 236 606 L 1049 195 L 1049 104 Z" unicode="&#x3C;" />
<glyph horiz-adv-x="1229" d="M 1079 748 L 150 748 L 150 825 L 1079 825 L 1079 748 Z M 1079 387 L 150 387 L 150 465 L 1079 465 L 1079 387 Z" unicode="=" />
<glyph horiz-adv-x="1229" d="M 1102 573 L 180 104 L 180 195 L 993 606 L 180 1018 L 180 1108 L 1102 639 L 1102 573 Z" unicode="&#x3E;" />
<glyph horiz-adv-x="831" d="M 762 913 C 762 853 751 800 730 752 C 708 704 679 662 642 627 C 604 591 560 563 509 542 C 457 520 402 507 342 502 L 342 274 L 266 274 L 266 657 C 325 657 378 664 426 679 C 474 693 514 715 548 744 C 581 772 606 807 624 849 C 642 890 651 937 651 991 C 651 1033 644 1072 630 1108 C 616 1144 598 1176 574 1202 C 550 1228 522 1249 490 1265 C 458 1280 423 1288 387 1288 C 363 1288 342 1286 324 1283 C 305 1280 287 1275 269 1268 C 251 1260 232 1251 212 1239 C 192 1227 170 1212 145 1194 L 82 1325 C 94 1333 109 1340 125 1347 C 141 1353 159 1359 177 1364 C 195 1368 213 1372 232 1374 C 251 1376 270 1378 289 1378 C 357 1378 421 1366 479 1344 C 537 1322 587 1290 629 1249 C 671 1208 703 1159 727 1102 C 750 1045 762 982 762 913 Z M 403 80 C 403 52 393 28 374 9 C 354 -10 331 -20 303 -20 C 275 -20 251 -10 232 9 C 212 28 203 52 203 80 C 203 108 212 131 232 151 C 251 170 275 180 303 180 C 331 180 354 170 374 151 C 393 131 403 108 403 80 Z" unicode="?" />
<glyph horiz-adv-x="1597" d="M 1507 651 C 1507 578 1497 510 1477 447 C 1457 383 1428 328 1390 282 C 1352 235 1304 198 1248 171 C 1192 144 1127 131 1055 131 C 1038 131 1021 132 1004 136 C 986 139 970 144 956 152 L 956 332 C 948 308 936 285 920 261 C 904 237 885 215 863 196 C 841 176 816 161 788 149 C 760 137 731 131 700 131 C 664 131 631 138 603 153 C 575 167 551 187 531 212 C 511 237 495 266 485 298 C 474 330 469 365 469 401 C 469 464 478 525 496 583 C 514 641 539 693 573 738 C 607 782 648 818 697 845 C 745 871 800 885 862 885 C 876 885 890 883 905 881 C 919 878 934 874 948 869 C 962 864 975 858 987 851 C 999 843 1009 835 1018 827 L 1022 858 L 1135 872 L 1159 872 L 1102 444 C 1100 436 1099 425 1098 413 C 1097 401 1096 388 1095 375 C 1094 361 1093 348 1093 336 C 1092 323 1092 313 1092 305 L 1092 188 C 1130 188 1165 194 1197 206 C 1229 218 1258 235 1284 256 C 1310 277 1332 302 1352 331 C 1372 360 1388 391 1402 424 C 1415 457 1425 492 1432 528 C 1438 564 1442 599 1442 635 C 1442 720 1427 795 1398 859 C 1368 923 1328 976 1277 1019 C 1226 1061 1166 1093 1098 1115 C 1030 1136 957 1147 879 1147 C 787 1147 701 1129 622 1094 C 543 1059 475 1011 417 949 C 359 887 314 813 282 729 C 249 645 233 553 233 455 C 233 363 247 276 275 196 C 303 116 344 46 397 -12 C 450 -71 515 -118 591 -152 C 667 -186 752 -203 848 -203 C 926 -203 1004 -191 1081 -169 C 1157 -146 1227 -114 1290 -72 L 1313 -119 C 1271 -144 1231 -166 1191 -184 C 1151 -202 1110 -217 1068 -229 C 1026 -241 984 -249 940 -255 C 896 -261 851 -264 803 -264 C 702 -264 609 -246 524 -212 C 439 -177 366 -129 304 -67 C 242 -5 193 67 158 152 C 123 237 106 330 106 430 C 106 502 115 571 134 638 C 153 704 180 766 214 824 C 248 881 290 933 338 980 C 386 1026 439 1066 497 1100 C 555 1133 618 1159 685 1177 C 752 1195 822 1204 895 1204 C 979 1204 1059 1191 1134 1165 C 1208 1139 1273 1103 1328 1055 C 1383 1007 1427 948 1459 880 C 1491 812 1507 735 1507 651 Z M 1010 778 C 992 795 971 809 946 819 C 921 829 896 834 870 834 C 826 834 789 821 757 795 C 725 769 699 736 678 695 C 657 653 641 607 631 555 C 621 503 616 450 616 397 C 616 367 618 339 623 314 C 627 289 635 268 645 250 C 655 232 668 218 684 208 C 700 198 719 193 741 193 C 772 193 801 202 828 222 C 855 242 879 269 901 305 C 922 340 940 382 955 430 C 969 478 980 530 987 588 L 1010 778 Z" unicode="@" />
<glyph horiz-adv-x="1237" d="M 1233 0 L 774 0 L 774 45 L 950 61 L 807 446 L 334 446 L 193 66 L 365 45 L 365 0 L 4 0 L 4 45 L 115 70 L 592 1327 L 639 1327 L 1122 61 L 1233 45 L 1233 0 Z M 782 512 L 569 1081 L 356 512 L 782 512 Z" unicode="A" />
<glyph horiz-adv-x="1155" d="M 1081 373 C 1081 317 1070 267 1050 221 C 1030 175 998 136 954 103 C 910 70 855 45 787 27 C 719 9 639 0 545 0 L 86 0 L 86 45 L 246 61 L 246 1257 L 86 1274 L 86 1319 L 592 1319 C 653 1319 708 1312 757 1300 C 806 1288 848 1269 882 1244 C 916 1218 943 1186 961 1147 C 979 1108 989 1062 989 1008 C 989 966 982 929 968 895 C 954 861 935 831 911 805 C 887 779 859 758 827 742 C 795 725 761 713 725 707 L 725 702 C 772 698 817 690 860 676 C 903 662 941 641 974 615 C 1006 588 1032 555 1052 515 C 1071 475 1081 428 1081 373 Z M 825 993 C 825 1037 818 1076 805 1110 C 791 1143 772 1171 748 1194 C 723 1216 693 1233 658 1245 C 623 1256 584 1262 541 1262 C 511 1262 487 1261 467 1260 C 447 1258 426 1256 403 1253 L 403 719 L 520 719 C 570 719 614 725 652 738 C 690 751 722 770 748 794 C 773 818 792 846 805 880 C 818 914 825 951 825 993 Z M 918 352 C 918 394 910 434 895 471 C 880 508 858 540 828 568 C 798 595 762 617 718 633 C 674 649 624 657 567 657 L 403 657 L 403 74 C 418 70 432 68 446 66 C 459 64 472 62 486 61 C 500 59 515 58 531 58 C 547 57 566 57 588 57 C 641 57 688 64 729 79 C 770 94 805 115 833 141 C 861 167 882 199 896 235 C 910 271 918 310 918 352 Z" unicode="B" />
<glyph horiz-adv-x="1266" d="M 1188 178 C 1120 109 1046 57 968 23 C 890 -11 804 -29 711 -29 C 619 -29 535 -13 457 19 C 379 51 311 96 254 156 C 197 215 152 286 120 370 C 88 454 72 547 72 651 C 72 752 88 845 120 931 C 152 1016 197 1089 255 1151 C 313 1213 382 1261 464 1296 C 546 1330 637 1348 737 1348 C 822 1348 895 1341 955 1329 C 1015 1317 1064 1302 1102 1286 L 1128 1348 L 1178 1348 L 1161 985 L 1112 985 L 1079 1161 C 1054 1181 1028 1199 1002 1215 C 976 1230 947 1243 917 1254 C 887 1264 854 1272 819 1278 C 783 1283 744 1286 702 1286 C 640 1286 582 1271 528 1242 C 473 1212 425 1171 384 1118 C 342 1065 310 1002 286 928 C 262 854 250 772 250 682 C 250 599 260 519 281 443 C 302 367 333 299 374 241 C 414 182 464 135 523 100 C 581 64 649 47 725 47 C 809 47 888 63 960 95 C 1032 127 1095 172 1149 231 L 1188 178 Z" unicode="C" />
<glyph horiz-adv-x="1393" d="M 1323 676 C 1323 571 1307 477 1275 394 C 1243 310 1197 239 1138 181 C 1078 123 1007 78 923 47 C 839 15 745 0 641 0 L 86 0 L 86 45 L 246 61 L 246 1257 L 86 1274 L 86 1319 L 631 1319 C 731 1319 823 1305 908 1277 C 992 1249 1065 1208 1127 1154 C 1189 1100 1237 1033 1271 953 C 1305 873 1323 780 1323 676 Z M 1145 651 C 1145 745 1132 829 1108 905 C 1084 981 1048 1045 1001 1098 C 953 1150 894 1191 823 1219 C 752 1247 670 1262 578 1262 C 548 1262 518 1261 488 1260 C 458 1258 430 1256 406 1253 L 406 74 C 414 72 424 71 438 69 C 451 67 465 65 481 63 C 496 61 511 60 527 59 C 543 57 557 57 569 57 C 659 57 739 69 811 95 C 882 120 942 158 992 208 C 1042 258 1080 320 1106 394 C 1132 468 1145 553 1145 651 Z" unicode="D" />
<glyph horiz-adv-x="1102" d="M 999 0 L 86 0 L 86 45 L 246 61 L 246 1257 L 86 1274 L 86 1319 L 971 1319 L 971 1040 L 913 1040 L 885 1253 L 406 1253 L 406 719 L 758 719 L 778 860 L 831 860 L 831 512 L 778 512 L 758 653 L 406 653 L 406 70 L 909 70 L 938 299 L 999 299 L 999 0 Z" unicode="E" />
<glyph horiz-adv-x="1049" d="M 971 1042 L 913 1042 L 885 1253 L 406 1253 L 406 698 L 758 698 L 778 840 L 831 840 L 831 492 L 778 492 L 758 633 L 406 633 L 406 61 L 606 45 L 606 0 L 86 0 L 86 45 L 246 61 L 246 1257 L 86 1274 L 86 1319 L 971 1319 L 971 1042 Z" unicode="F" />
<glyph horiz-adv-x="1364" d="M 1294 481 L 1214 457 L 1214 98 C 1192 82 1164 67 1131 52 C 1098 37 1061 24 1019 12 C 977 0 930 -9 880 -17 C 829 -25 775 -29 717 -29 C 622 -29 535 -12 456 20 C 377 53 309 99 252 159 C 195 219 151 290 119 374 C 87 458 72 551 72 653 C 72 756 88 850 121 936 C 153 1021 199 1094 258 1155 C 317 1216 388 1263 471 1297 C 553 1331 645 1348 745 1348 C 792 1348 835 1346 873 1342 C 911 1338 945 1333 976 1327 C 1007 1321 1035 1313 1059 1305 C 1083 1297 1104 1288 1124 1278 L 1147 1348 L 1204 1348 L 1188 985 L 1139 985 L 1106 1159 C 1081 1179 1055 1197 1029 1213 C 1002 1229 973 1242 942 1253 C 910 1263 876 1271 838 1277 C 800 1283 757 1286 711 1286 C 647 1286 588 1271 532 1243 C 476 1215 427 1174 385 1122 C 343 1069 310 1005 286 929 C 262 853 250 768 250 674 C 250 586 261 503 283 426 C 305 349 338 282 380 225 C 422 168 473 123 534 90 C 594 57 663 41 741 41 C 807 41 866 48 917 63 C 967 78 1013 100 1055 129 L 1055 457 L 848 473 L 848 518 L 1294 518 L 1294 481 Z" unicode="G" />
<glyph horiz-adv-x="1479" d="M 1393 0 L 913 0 L 913 45 L 1073 61 L 1073 653 L 406 653 L 406 61 L 565 45 L 565 0 L 86 0 L 86 45 L 246 61 L 246 1257 L 86 1274 L 86 1319 L 565 1319 L 565 1274 L 406 1257 L 406 719 L 1073 719 L 1073 1257 L 913 1274 L 913 1319 L 1393 1319 L 1393 1274 L 1233 1257 L 1233 61 L 1393 45 L 1393 0 Z" unicode="H" />
<glyph horiz-adv-x="659" d="M 569 0 L 90 0 L 90 45 L 250 61 L 250 1257 L 90 1274 L 90 1319 L 569 1319 L 569 1274 L 410 1257 L 410 61 L 569 45 L 569 0 Z" unicode="I" />
<glyph horiz-adv-x="627" d="M 565 1274 L 406 1257 L 406 164 C 406 100 397 43 379 -6 C 361 -56 335 -99 301 -135 C 267 -171 225 -198 176 -217 C 126 -236 70 -246 8 -246 L 4 -246 L -10 -193 C 78 -193 143 -168 184 -118 C 225 -68 246 10 246 117 L 246 1257 L 86 1274 L 86 1319 L 565 1319 L 565 1274 Z" unicode="J" />
<glyph horiz-adv-x="1245" d="M 1241 0 L 977 0 L 463 616 L 406 616 L 406 61 L 565 45 L 565 0 L 86 0 L 86 45 L 246 61 L 246 1257 L 86 1274 L 86 1319 L 565 1319 L 565 1274 L 406 1257 L 406 674 L 432 674 L 961 1257 L 831 1274 L 831 1319 L 1196 1319 L 1196 1274 L 1061 1257 L 571 719 L 1130 66 L 1241 45 L 1241 0 Z" unicode="K" />
<glyph horiz-adv-x="1036" d="M 983 0 L 86 0 L 86 45 L 246 61 L 246 1257 L 86 1274 L 86 1319 L 586 1319 L 586 1274 L 406 1257 L 406 70 L 893 70 L 924 311 L 983 311 L 983 0 Z" unicode="L" />
<glyph horiz-adv-x="1759" d="M 1698 0 L 1219 0 L 1219 45 L 1380 61 L 1319 1139 L 846 0 L 829 0 L 352 1135 L 293 74 L 455 45 L 455 0 L 55 0 L 55 45 L 213 74 L 281 1253 L 115 1274 L 115 1319 L 436 1319 L 883 258 L 1321 1319 L 1636 1319 L 1636 1274 L 1470 1257 L 1540 61 L 1698 45 L 1698 0 Z" unicode="M" />
<glyph horiz-adv-x="1417" d="M 1376 1274 L 1217 1245 L 1217 -12 L 1184 -12 L 307 1079 L 307 74 L 467 45 L 467 0 L 70 0 L 70 45 L 229 74 L 229 1176 L 168 1251 L 70 1274 L 70 1319 L 322 1319 L 1139 299 L 1139 1245 L 979 1274 L 979 1319 L 1376 1319 L 1376 1274 Z" unicode="N" />
<glyph horiz-adv-x="1454" d="M 1378 670 C 1378 566 1361 471 1328 385 C 1295 299 1249 226 1191 164 C 1132 102 1062 55 982 21 C 902 -12 815 -29 721 -29 C 627 -29 540 -13 461 18 C 382 50 314 95 257 154 C 200 212 156 283 124 367 C 92 451 76 545 76 649 C 76 753 92 847 125 933 C 158 1019 204 1092 263 1154 C 321 1216 391 1263 471 1297 C 551 1331 639 1348 733 1348 C 827 1348 913 1332 992 1300 C 1071 1268 1139 1223 1196 1164 C 1253 1105 1298 1034 1330 951 C 1362 867 1378 774 1378 670 Z M 1200 649 C 1200 746 1187 834 1162 912 C 1137 990 1103 1056 1060 1111 C 1016 1166 966 1208 908 1238 C 850 1267 787 1282 721 1282 C 656 1282 595 1268 539 1241 C 482 1213 432 1174 390 1122 C 348 1070 314 1006 290 930 C 266 854 254 767 254 670 C 254 572 266 485 291 407 C 316 329 350 262 394 207 C 437 152 488 110 546 81 C 604 51 666 37 733 37 C 797 37 858 50 915 78 C 971 105 1021 145 1063 197 C 1105 249 1139 313 1163 389 C 1187 465 1200 551 1200 649 Z" unicode="O" />
<glyph horiz-adv-x="1077" d="M 1024 975 C 1024 911 1012 853 989 800 C 966 746 932 700 887 662 C 841 623 785 593 719 571 C 652 549 575 539 487 539 C 482 539 476 539 469 539 C 461 539 454 540 446 540 C 438 540 431 541 424 541 C 416 541 410 542 406 543 L 406 61 L 586 45 L 586 0 L 86 0 L 86 45 L 246 61 L 246 1257 L 86 1274 L 86 1319 L 592 1319 C 653 1319 710 1310 763 1294 C 815 1278 861 1255 900 1225 C 938 1195 969 1158 991 1116 C 1013 1074 1024 1027 1024 975 Z M 856 961 C 856 1009 848 1051 833 1089 C 817 1126 796 1157 769 1183 C 741 1209 708 1228 669 1242 C 630 1255 587 1262 541 1262 C 529 1262 516 1261 503 1261 C 489 1260 477 1259 465 1258 C 453 1257 441 1256 431 1255 C 421 1254 412 1253 406 1253 L 406 600 C 422 598 440 597 460 597 C 480 596 495 596 506 596 C 568 596 622 606 666 626 C 710 646 747 672 775 706 C 803 740 823 779 836 823 C 849 867 856 913 856 961 Z" unicode="P" />
<glyph horiz-adv-x="1454" d="M 1458 -166 L 1309 -385 C 1257 -370 1205 -351 1151 -327 C 1097 -303 1044 -275 991 -244 C 937 -213 885 -179 834 -143 C 783 -107 735 -69 690 -29 C 600 -25 517 -6 442 27 C 366 60 302 106 248 165 C 194 223 151 294 121 376 C 91 458 76 549 76 649 C 76 753 92 847 125 933 C 158 1019 204 1092 263 1154 C 321 1216 391 1263 471 1297 C 551 1331 639 1348 733 1348 C 827 1348 913 1332 992 1300 C 1071 1268 1139 1223 1196 1164 C 1253 1105 1298 1034 1330 951 C 1362 867 1378 774 1378 670 C 1378 576 1364 489 1336 409 C 1308 329 1270 258 1220 198 C 1170 137 1110 88 1041 50 C 971 12 895 -10 813 -18 C 849 -44 889 -68 931 -91 C 973 -113 1017 -134 1061 -152 C 1105 -170 1149 -185 1193 -199 C 1237 -212 1279 -223 1321 -231 L 1434 -143 L 1458 -166 Z M 1200 649 C 1200 746 1187 834 1162 912 C 1137 990 1103 1056 1060 1111 C 1016 1166 966 1208 908 1238 C 850 1267 787 1282 721 1282 C 656 1282 595 1268 539 1241 C 482 1213 432 1174 390 1122 C 348 1070 314 1006 290 930 C 266 854 254 767 254 670 C 254 572 266 485 291 407 C 316 329 350 262 394 207 C 437 152 488 110 546 81 C 604 51 666 37 733 37 C 797 37 858 50 915 78 C 971 105 1021 145 1063 197 C 1105 249 1139 313 1163 389 C 1187 465 1200 551 1200 649 Z" unicode="Q" />
<glyph horiz-adv-x="1221" d="M 1217 0 L 967 0 L 573 582 L 406 567 L 406 61 L 586 45 L 586 0 L 86 0 L 86 45 L 246 61 L 246 1257 L 86 1274 L 86 1319 L 592 1319 C 648 1319 701 1312 751 1300 C 801 1287 846 1267 884 1240 C 922 1213 952 1179 974 1138 C 996 1096 1008 1047 1008 991 C 1008 947 1001 905 987 866 C 973 826 954 790 929 758 C 904 725 874 697 840 673 C 805 649 767 630 725 618 L 1110 66 L 1217 45 L 1217 0 Z M 840 965 C 840 1063 813 1137 761 1187 C 708 1237 635 1262 541 1262 C 518 1262 496 1261 475 1260 C 453 1258 430 1256 406 1253 L 406 637 L 506 637 C 556 637 602 644 644 659 C 685 674 720 696 749 724 C 778 752 800 786 816 827 C 832 867 840 913 840 965 Z" unicode="R" />
<glyph horiz-adv-x="1014" d="M 915 356 C 915 300 904 248 882 201 C 860 154 831 114 794 80 C 757 46 714 19 666 0 C 618 -19 567 -29 514 -29 C 446 -29 386 -23 336 -11 C 286 1 242 18 205 41 L 184 -29 L 127 -29 L 115 381 L 164 385 L 209 170 C 241 126 281 92 331 68 C 381 44 433 33 489 33 C 529 33 566 38 601 50 C 636 62 666 79 692 102 C 718 125 738 154 753 188 C 768 222 776 261 776 305 C 776 339 770 370 759 397 C 747 424 729 449 705 473 C 681 497 649 520 610 543 C 571 565 524 590 469 616 C 409 644 357 672 315 700 C 272 728 237 757 210 788 C 182 818 162 852 150 888 C 137 924 131 966 131 1012 C 131 1063 141 1109 161 1151 C 181 1192 208 1227 242 1257 C 276 1286 315 1308 361 1324 C 407 1340 456 1348 508 1348 C 561 1348 610 1342 655 1332 C 699 1321 740 1305 776 1284 L 797 1348 L 854 1348 L 846 985 L 797 985 L 762 1182 C 733 1222 696 1250 651 1266 C 606 1282 559 1290 510 1290 C 478 1290 447 1284 418 1274 C 388 1263 362 1248 340 1228 C 318 1208 300 1183 286 1155 C 272 1127 266 1095 266 1059 C 266 1025 270 996 279 972 C 287 947 303 923 326 901 C 348 879 380 856 420 833 C 460 809 511 782 573 752 C 626 726 674 699 716 673 C 758 647 794 618 824 588 C 853 558 875 524 891 486 C 907 448 915 405 915 356 Z" unicode="S" />
<glyph horiz-adv-x="1126" d="M 1090 999 L 1032 999 L 1004 1253 L 643 1253 L 643 61 L 815 45 L 815 0 L 311 0 L 311 45 L 483 61 L 483 1253 L 123 1253 L 94 999 L 37 999 L 37 1319 L 1090 1319 L 1090 999 Z" unicode="T" />
<glyph horiz-adv-x="1348" d="M 1325 1274 L 1165 1245 L 1165 477 C 1165 403 1155 335 1136 273 C 1116 211 1087 158 1047 113 C 1007 68 957 33 897 8 C 837 -16 766 -29 684 -29 C 604 -29 534 -17 474 6 C 414 30 363 63 323 107 C 283 151 252 204 232 266 C 211 328 201 399 201 477 L 201 1257 L 41 1274 L 41 1319 L 520 1319 L 520 1274 L 360 1257 L 360 500 C 360 433 365 372 377 318 C 389 263 408 216 436 178 C 464 139 500 109 545 88 C 590 67 646 57 713 57 C 778 57 834 67 882 88 C 929 109 968 139 998 177 C 1028 215 1051 262 1065 316 C 1079 370 1087 430 1087 496 L 1087 1245 L 928 1274 L 928 1319 L 1325 1319 L 1325 1274 Z" unicode="U" />
<glyph horiz-adv-x="1237" d="M 1233 1274 L 1122 1253 L 635 -20 L 610 -20 L 115 1253 L 4 1274 L 4 1319 L 467 1319 L 467 1274 L 287 1257 L 668 262 L 1040 1257 L 868 1274 L 868 1319 L 1233 1319 L 1233 1274 Z" unicode="V" />
<glyph horiz-adv-x="1786" d="M 1782 1274 L 1671 1253 L 1237 -20 L 1208 -20 L 895 893 L 582 -20 L 553 -20 L 115 1253 L 4 1274 L 4 1319 L 465 1319 L 465 1274 L 285 1257 L 606 287 L 854 1012 L 768 1257 L 653 1274 L 653 1319 L 1122 1319 L 1122 1274 L 942 1257 L 942 1241 L 1262 287 L 1589 1257 L 1417 1274 L 1417 1319 L 1782 1319 L 1782 1274 Z" unicode="W" />
<glyph horiz-adv-x="1249" d="M 1245 0 L 768 0 L 768 45 L 936 61 L 592 594 L 244 61 L 412 45 L 412 0 L 4 0 L 4 45 L 158 70 L 549 655 L 145 1257 L 27 1274 L 27 1319 L 504 1319 L 504 1274 L 336 1257 L 647 774 L 961 1257 L 793 1274 L 793 1319 L 1198 1319 L 1198 1274 L 1047 1249 L 690 713 L 1126 61 L 1245 45 L 1245 0 Z" unicode="X" />
<glyph horiz-adv-x="1151" d="M 1143 1274 L 1032 1253 L 659 561 L 659 61 L 831 45 L 831 0 L 328 0 L 328 45 L 500 61 L 500 545 L 119 1253 L 8 1274 L 8 1319 L 471 1319 L 471 1274 L 299 1257 L 623 637 L 946 1257 L 774 1274 L 774 1319 L 1143 1319 L 1143 1274 Z" unicode="Y" />
<glyph horiz-adv-x="1126" d="M 1071 332 L 1051 0 L 47 0 L 35 33 L 848 1253 L 203 1253 L 170 999 L 113 999 L 113 1319 L 1055 1319 L 1055 1286 L 248 70 L 958 70 L 1014 332 L 1071 332 Z" unicode="Z" />
<glyph horiz-adv-x="655" d="M 549 -430 L 184 -430 L 184 1434 L 549 1434 L 549 1397 L 299 1380 L 299 -377 L 549 -393 L 549 -430 Z" unicode="[" />
<glyph horiz-adv-x="606" d="M 541 -102 L 455 -102 L 66 1348 L 152 1348 L 541 -102 Z" unicode="\" />
<glyph horiz-adv-x="655" d="M 471 -430 L 106 -430 L 106 -393 L 356 -377 L 356 1380 L 106 1397 L 106 1434 L 471 1434 L 471 -430 Z" unicode="]" />
<glyph horiz-adv-x="614" d="M 512 604 L 102 555 L 102 645 L 512 694 L 512 604 Z" unicode="^" />
<glyph horiz-adv-x="1024" d="M 1024 -250 L 0 -250 L 0 -164 L 1024 -164 L 1024 -250 Z" unicode="_" />
<glyph horiz-adv-x="1024" d="M 643 983 L 614 961 L 289 1276 L 397 1366 L 643 983 Z" unicode="`" />
<glyph horiz-adv-x="842" d="M 866 72 C 858 60 849 49 837 38 C 825 26 811 16 796 7 C 780 -2 764 -10 746 -16 C 728 -22 710 -25 692 -25 C 654 -25 622 -13 596 10 C 570 34 552 63 543 98 C 527 82 510 66 490 52 C 470 37 450 24 429 13 C 408 1 387 -7 365 -14 C 343 -21 321 -25 301 -25 C 266 -25 234 -19 204 -8 C 174 2 149 17 127 37 C 105 57 87 80 75 108 C 63 136 57 167 57 201 C 57 239 64 273 79 302 C 93 330 113 355 138 376 C 163 396 192 413 226 426 C 260 439 296 449 334 457 L 532 494 L 532 647 C 532 702 519 744 495 772 C 470 800 429 815 371 815 C 323 815 279 800 240 772 C 201 743 168 705 141 659 L 94 698 C 130 756 173 801 223 835 C 273 868 333 885 401 885 C 494 885 564 865 610 825 C 656 785 680 727 680 653 L 680 195 C 680 167 682 144 687 126 C 691 108 698 95 706 85 C 714 75 723 68 734 64 C 744 60 756 59 768 59 C 784 59 800 62 814 70 C 828 77 840 86 850 98 L 866 72 Z M 532 145 L 532 446 L 391 420 C 364 414 339 407 316 397 C 292 387 272 374 255 358 C 237 342 224 324 214 302 C 204 280 199 254 199 225 C 199 200 202 177 210 157 C 218 137 228 119 242 105 C 256 90 272 79 291 71 C 310 63 331 59 354 59 C 386 59 418 67 450 83 C 482 99 509 120 532 145 Z" unicode="a" />
<glyph horiz-adv-x="956" d="M 907 459 C 907 387 896 321 876 262 C 855 202 825 151 785 109 C 745 67 695 34 637 10 C 579 -13 512 -25 438 -25 C 408 -25 379 -23 350 -20 C 321 -16 293 -12 267 -6 C 241 0 216 6 193 14 C 169 22 149 31 133 41 L 133 1343 L 0 1366 L 0 1403 L 281 1442 L 281 748 C 309 788 345 820 390 846 C 435 872 489 885 551 885 C 595 885 639 875 682 857 C 725 838 763 811 796 775 C 829 739 856 694 876 641 C 896 588 907 527 907 459 Z M 750 449 C 750 502 744 551 734 596 C 724 640 709 679 689 712 C 669 744 643 770 613 788 C 583 806 548 815 508 815 C 454 815 408 801 372 775 C 336 749 305 712 281 664 L 281 84 C 288 76 298 68 312 62 C 325 56 340 50 356 46 C 372 41 390 37 409 35 C 427 32 446 31 465 31 C 509 31 549 41 584 62 C 619 83 649 112 674 150 C 698 187 717 231 730 282 C 743 333 750 389 750 449 Z" unicode="b" />
<glyph horiz-adv-x="840" d="M 795 139 C 784 123 769 106 751 87 C 733 68 710 50 684 34 C 657 17 626 3 590 -8 C 554 -19 514 -25 469 -25 C 409 -25 354 -13 303 8 C 252 30 208 62 170 103 C 132 143 103 192 81 248 C 59 304 49 366 49 434 C 49 502 60 564 84 620 C 108 676 139 723 179 762 C 218 801 263 831 313 853 C 363 874 415 885 469 885 C 518 885 562 881 600 873 C 638 865 675 849 711 827 L 735 881 L 774 881 L 762 629 L 721 629 C 709 691 683 740 642 776 C 600 812 547 831 481 831 C 439 831 402 822 369 804 C 335 786 307 760 284 726 C 260 692 242 652 230 604 C 217 556 211 503 211 444 C 211 387 218 334 233 286 C 248 238 269 196 295 161 C 321 126 351 99 385 79 C 419 59 456 49 496 49 C 528 49 558 52 584 58 C 610 64 633 73 654 85 C 675 96 694 109 711 125 C 727 140 742 157 756 176 L 795 139 Z" unicode="c" />
<glyph horiz-adv-x="977" d="M 956 18 L 684 -20 L 684 115 L 682 117 C 670 97 655 79 639 62 C 622 45 603 30 582 17 C 560 4 536 -5 509 -13 C 482 -21 452 -25 418 -25 C 372 -25 328 -15 284 3 C 240 21 200 49 166 85 C 131 121 103 166 81 219 C 59 272 49 333 49 403 C 49 473 59 537 80 596 C 100 655 129 706 165 749 C 201 791 243 825 293 849 C 342 873 395 885 453 885 C 479 885 504 882 527 877 C 550 872 571 866 589 858 C 607 850 624 840 639 830 C 653 820 666 809 676 799 L 676 1343 L 543 1366 L 543 1403 L 823 1442 L 823 74 L 956 51 L 956 18 Z M 676 203 L 676 711 C 666 727 653 742 639 756 C 624 770 608 783 590 794 C 572 804 552 813 532 819 C 512 825 491 829 471 829 C 423 829 383 817 350 793 C 316 769 289 738 268 700 C 247 661 232 617 222 568 C 212 519 207 470 207 420 C 207 366 213 316 225 270 C 237 224 254 184 277 151 C 299 117 327 91 359 73 C 391 54 427 45 467 45 C 497 45 524 49 547 59 C 570 68 590 80 607 95 C 623 110 637 127 648 146 C 659 164 668 183 676 203 Z" unicode="d" />
<glyph horiz-adv-x="862" d="M 805 504 L 213 504 C 211 495 211 485 211 475 C 211 465 211 457 211 451 C 211 391 218 336 232 287 C 246 237 266 195 292 160 C 317 124 347 97 382 78 C 416 58 454 49 496 49 C 528 49 558 52 584 58 C 610 64 633 73 654 85 C 675 96 694 109 711 125 C 727 140 742 157 756 176 L 795 139 C 784 123 770 106 752 87 C 734 68 711 50 685 34 C 658 17 627 3 591 -8 C 555 -19 515 -25 469 -25 C 407 -25 351 -13 300 8 C 248 30 204 62 167 103 C 130 143 101 191 80 247 C 59 303 49 364 49 432 C 49 500 60 562 83 618 C 106 674 137 721 175 761 C 213 801 258 831 308 853 C 358 874 411 885 465 885 C 519 885 567 876 609 860 C 651 844 687 821 716 791 C 745 761 767 725 782 683 C 797 641 805 594 805 543 L 805 504 Z M 647 555 C 647 588 644 621 639 655 C 633 688 623 718 609 745 C 595 772 575 794 550 811 C 525 827 493 836 453 836 C 423 836 395 829 369 815 C 343 801 320 781 300 756 C 279 731 262 701 248 667 C 234 633 225 595 219 555 L 647 555 Z" unicode="e" />
<glyph horiz-adv-x="569" d="M 690 1427 L 631 1300 C 611 1313 592 1326 574 1338 C 555 1350 537 1361 521 1371 C 504 1380 489 1387 475 1393 C 461 1398 449 1401 440 1401 C 424 1401 409 1397 395 1389 C 381 1381 370 1368 360 1350 C 350 1332 342 1309 336 1281 C 330 1253 328 1218 328 1178 L 328 852 L 573 852 L 573 793 L 328 793 L 328 53 L 524 37 L 524 0 L 47 0 L 47 37 L 180 53 L 180 788 L 47 788 L 47 825 L 180 860 L 180 1026 C 180 1087 186 1145 199 1200 C 212 1254 233 1302 261 1343 C 289 1383 324 1415 368 1439 C 412 1463 464 1475 526 1475 C 562 1475 592 1470 616 1462 C 640 1454 664 1442 690 1427 Z" unicode="f" />
<glyph horiz-adv-x="881" d="M 877 770 L 647 791 L 645 786 C 682 760 709 728 725 688 C 741 648 750 606 750 561 C 750 511 740 466 720 428 C 700 389 674 356 642 329 C 610 302 573 281 532 265 C 490 249 448 240 406 238 C 340 232 290 218 258 195 C 225 172 209 145 209 115 C 209 100 211 89 215 81 C 219 73 225 66 231 61 L 616 23 C 642 20 668 13 696 3 C 724 -6 749 -21 772 -39 C 794 -57 813 -79 828 -105 C 842 -131 850 -162 850 -197 C 850 -251 838 -300 815 -344 C 791 -388 759 -426 717 -458 C 675 -490 626 -514 568 -531 C 510 -548 446 -557 377 -557 C 331 -557 287 -551 244 -539 C 200 -527 161 -509 127 -486 C 92 -462 64 -433 43 -399 C 22 -364 12 -324 12 -279 C 12 -251 16 -225 24 -202 C 32 -179 44 -158 59 -140 C 74 -121 91 -104 111 -90 C 131 -75 152 -62 176 -51 C 155 -39 138 -21 125 0 C 112 22 106 48 106 76 C 106 110 120 144 150 178 C 179 211 224 237 285 256 L 285 258 C 253 269 223 284 196 303 C 168 322 145 345 125 371 C 105 397 89 426 78 458 C 66 490 61 524 61 561 C 61 607 70 650 88 690 C 106 730 131 764 163 793 C 195 821 231 844 273 860 C 315 876 359 885 406 885 C 442 885 476 880 510 870 C 543 860 574 846 602 829 L 877 885 L 877 770 Z M 598 561 C 598 601 593 637 584 671 C 575 705 562 734 545 758 C 528 782 508 801 484 815 C 460 829 434 836 406 836 C 376 836 350 829 326 815 C 302 801 282 782 265 758 C 248 734 235 705 226 671 C 217 637 213 601 213 561 C 213 521 217 484 226 450 C 235 416 248 388 265 364 C 282 340 302 321 326 307 C 350 293 376 287 406 287 C 434 287 460 293 484 307 C 508 321 528 340 545 364 C 562 388 575 416 584 450 C 593 484 598 521 598 561 Z M 739 -254 C 739 -210 726 -174 702 -148 C 677 -122 641 -106 594 -102 L 217 -66 C 192 -82 171 -106 154 -138 C 137 -170 129 -206 129 -244 C 129 -274 135 -305 147 -336 C 159 -366 178 -394 204 -419 C 229 -443 261 -463 300 -479 C 338 -494 384 -502 438 -502 C 468 -502 500 -496 535 -486 C 570 -476 603 -460 633 -439 C 663 -418 688 -392 708 -362 C 728 -331 739 -295 739 -254 Z" unicode="g" />
<glyph horiz-adv-x="1014" d="M 997 0 L 569 0 L 569 37 L 717 53 L 717 737 C 706 761 688 780 662 794 C 636 808 605 815 569 815 C 528 815 492 805 460 785 C 428 765 401 739 379 705 C 357 671 340 631 328 586 C 316 541 311 494 311 444 L 311 53 L 459 37 L 459 0 L 31 0 L 31 37 L 164 53 L 164 1341 L 31 1366 L 31 1403 L 311 1442 L 311 670 C 336 736 373 789 423 827 C 473 865 534 885 606 885 C 645 885 681 878 713 865 C 745 851 772 832 794 808 C 816 784 834 755 846 721 C 858 687 864 650 864 610 L 864 53 L 997 37 L 997 0 Z" unicode="h" />
<glyph horiz-adv-x="500" d="M 340 1192 C 340 1179 337 1167 332 1156 C 327 1144 320 1134 312 1126 C 303 1117 293 1110 282 1105 C 270 1100 258 1098 246 1098 C 233 1098 221 1100 210 1105 C 198 1110 188 1117 180 1126 C 171 1134 164 1144 159 1156 C 154 1167 152 1179 152 1192 C 152 1204 154 1216 159 1228 C 164 1239 171 1249 180 1258 C 188 1266 198 1273 210 1278 C 221 1283 233 1286 246 1286 C 258 1286 270 1283 282 1278 C 293 1273 303 1266 312 1258 C 320 1249 327 1239 332 1228 C 337 1216 340 1204 340 1192 Z M 465 0 L 51 0 L 51 37 L 184 53 L 184 776 L 51 797 L 51 834 L 332 881 L 332 53 L 465 37 L 465 0 Z" unicode="i" />
<glyph horiz-adv-x="465" d="M 332 1192 C 332 1179 329 1167 324 1156 C 319 1144 312 1134 304 1126 C 295 1117 285 1110 274 1105 C 262 1100 250 1098 238 1098 C 224 1098 212 1100 201 1105 C 189 1110 179 1117 171 1126 C 162 1134 155 1144 150 1156 C 145 1167 143 1179 143 1192 C 143 1204 145 1216 150 1228 C 155 1239 162 1249 171 1258 C 179 1266 189 1273 201 1278 C 212 1283 224 1286 238 1286 C 250 1286 262 1283 274 1278 C 285 1273 295 1266 304 1258 C 312 1249 319 1239 324 1228 C 329 1216 332 1204 332 1192 Z M 324 -123 C 324 -215 300 -294 252 -362 C 204 -430 131 -490 33 -543 L 12 -502 C 44 -485 70 -466 92 -445 C 113 -424 130 -400 142 -372 C 154 -344 163 -311 168 -274 C 173 -236 176 -193 176 -143 L 176 776 L 43 797 L 43 834 L 324 881 L 324 -123 Z" unicode="j" />
<glyph horiz-adv-x="958" d="M 954 0 L 717 0 L 676 53 L 360 440 L 311 440 L 311 53 L 451 37 L 451 0 L 31 0 L 31 37 L 164 53 L 164 1341 L 31 1366 L 31 1403 L 311 1442 L 311 465 L 315 465 L 676 795 L 676 797 L 537 815 L 537 852 L 893 852 L 893 815 L 774 795 L 473 526 L 868 57 L 954 33 L 954 0 Z" unicode="k" />
<glyph horiz-adv-x="483" d="M 449 0 L 35 0 L 35 37 L 168 53 L 168 1343 L 35 1366 L 35 1403 L 315 1442 L 315 53 L 449 37 L 449 0 Z" unicode="l" />
<glyph horiz-adv-x="1548" d="M 1528 0 L 1100 0 L 1100 37 L 1247 53 L 1247 733 C 1235 757 1219 777 1199 792 C 1179 807 1149 815 1110 815 C 1076 815 1043 805 1013 787 C 983 769 956 743 934 711 C 912 678 894 639 881 594 C 868 548 862 498 862 444 L 862 53 L 1010 37 L 1010 0 L 567 0 L 567 37 L 715 53 L 715 733 C 703 757 687 777 667 792 C 646 807 616 815 578 815 C 543 815 511 805 481 787 C 451 769 424 743 402 711 C 380 678 362 639 349 594 C 336 548 330 498 330 444 L 330 53 L 477 37 L 477 0 L 49 0 L 49 37 L 182 53 L 182 772 L 49 797 L 49 834 L 322 877 L 322 655 L 324 655 C 334 687 349 717 368 745 C 386 773 408 797 433 818 C 457 838 485 855 516 867 C 546 879 579 885 614 885 C 686 885 743 864 783 823 C 823 782 846 726 854 655 L 856 655 C 868 689 883 721 902 749 C 920 777 942 802 967 822 C 992 842 1020 857 1050 868 C 1080 879 1113 885 1149 885 C 1187 885 1222 878 1253 865 C 1283 851 1309 832 1330 808 C 1351 784 1367 755 1378 721 C 1389 687 1395 650 1395 610 L 1395 53 L 1528 37 L 1528 0 Z" unicode="m" />
<glyph horiz-adv-x="1036" d="M 1016 0 L 588 0 L 588 37 L 735 53 L 735 737 C 725 761 707 780 681 794 C 655 808 624 815 588 815 C 546 815 510 805 478 785 C 446 765 419 739 397 705 C 375 671 358 631 347 586 C 335 541 330 494 330 444 L 330 53 L 477 37 L 477 0 L 49 0 L 49 37 L 182 53 L 182 772 L 49 797 L 49 834 L 322 877 L 322 655 L 324 655 C 349 728 387 785 439 825 C 490 865 552 885 625 885 C 664 885 699 878 731 865 C 763 851 790 832 813 808 C 835 784 853 755 865 721 C 877 687 883 650 883 610 L 883 53 L 1016 37 L 1016 0 Z" unicode="n" />
<glyph horiz-adv-x="942" d="M 893 430 C 893 362 882 301 860 245 C 838 189 808 141 770 101 C 732 61 687 30 636 8 C 584 -14 529 -25 471 -25 C 412 -25 357 -14 306 8 C 254 30 210 61 172 101 C 134 141 104 189 82 245 C 60 301 49 362 49 430 C 49 497 60 559 82 615 C 104 671 134 719 172 759 C 210 799 254 830 306 852 C 357 874 412 885 471 885 C 529 885 584 874 636 852 C 687 830 732 799 770 759 C 808 719 838 671 860 615 C 882 559 893 497 893 430 Z M 729 430 C 729 492 723 549 711 599 C 699 649 682 691 660 726 C 638 761 611 788 579 807 C 547 826 511 836 471 836 C 431 836 395 826 363 807 C 331 788 304 761 282 726 C 260 691 243 649 231 599 C 219 549 213 492 213 430 C 213 367 219 311 231 261 C 243 211 260 168 282 133 C 304 98 331 71 363 53 C 395 34 431 25 471 25 C 511 25 547 34 579 53 C 611 71 638 98 660 133 C 682 168 699 211 711 261 C 723 311 729 367 729 430 Z" unicode="o" />
<glyph horiz-adv-x="981" d="M 932 459 C 932 389 921 324 899 265 C 877 205 848 154 810 111 C 772 68 727 35 675 11 C 623 -13 568 -25 508 -25 C 462 -25 422 -19 389 -9 C 356 0 328 14 305 31 L 305 -471 L 494 -487 L 494 -524 L 25 -524 L 25 -487 L 158 -471 L 158 772 L 25 797 L 25 834 L 297 877 L 297 737 L 299 737 C 326 779 363 814 409 842 C 455 870 512 885 578 885 C 622 885 666 875 709 857 C 751 838 789 811 822 775 C 855 739 882 694 902 641 C 922 588 932 527 932 459 Z M 774 449 C 774 502 768 551 758 596 C 748 640 732 679 712 712 C 691 744 665 770 635 788 C 605 806 570 815 530 815 C 476 815 430 800 392 771 C 353 742 324 705 305 659 L 305 106 C 315 94 328 83 342 74 C 356 65 372 57 388 51 C 404 44 421 39 439 36 C 456 32 473 31 489 31 C 539 31 582 43 618 67 C 654 91 683 123 706 163 C 729 202 746 247 757 297 C 768 347 774 397 774 449 Z" unicode="p" />
<glyph horiz-adv-x="954" d="M 956 -524 L 487 -524 L 487 -487 L 676 -471 L 676 106 C 663 88 649 72 633 56 C 617 40 598 27 578 15 C 558 3 534 -6 508 -14 C 482 -21 452 -25 418 -25 C 372 -25 328 -15 284 3 C 240 21 200 49 166 85 C 131 121 103 166 81 219 C 59 272 49 333 49 403 C 49 475 58 540 78 599 C 97 658 124 709 160 751 C 195 793 237 826 287 850 C 337 873 392 885 453 885 C 479 885 504 882 528 878 C 551 874 572 868 592 861 C 612 854 629 846 645 837 C 660 828 674 819 686 811 L 815 901 L 823 895 L 823 -471 L 956 -487 L 956 -524 Z M 676 203 L 676 711 C 666 727 653 742 639 756 C 624 770 608 783 590 794 C 572 804 552 813 532 819 C 512 825 491 829 471 829 C 423 829 382 816 348 792 C 314 768 287 736 266 698 C 245 659 230 615 221 566 C 211 517 207 468 207 420 C 207 364 213 314 225 268 C 237 222 254 182 277 149 C 299 116 327 90 359 72 C 391 54 427 45 467 45 C 495 45 521 49 544 59 C 566 68 586 80 603 95 C 620 110 635 127 647 146 C 659 164 668 183 676 203 Z" unicode="q" />
<glyph horiz-adv-x="702" d="M 686 834 L 633 709 C 626 713 616 718 602 726 C 588 734 573 741 558 749 C 542 757 528 763 515 769 C 501 775 492 778 487 778 C 462 778 440 769 420 753 C 400 736 384 713 370 685 C 356 656 346 622 339 583 C 331 543 328 501 328 457 L 328 53 L 518 37 L 518 0 L 49 0 L 49 37 L 182 53 L 182 772 L 49 797 L 49 834 L 315 874 L 315 655 L 317 655 C 328 695 342 729 360 758 C 378 787 398 811 420 830 C 442 848 465 862 490 871 C 515 880 541 885 567 885 C 587 885 609 879 632 869 C 654 859 672 847 686 834 Z" unicode="r" />
<glyph horiz-adv-x="709" d="M 643 238 C 643 204 636 172 623 141 C 610 109 591 81 567 57 C 542 32 512 12 476 -2 C 440 -17 400 -25 354 -25 C 312 -25 274 -20 240 -12 C 206 -3 175 11 147 33 L 127 -25 L 88 -25 L 78 246 L 117 250 C 131 176 157 120 196 82 C 234 44 284 25 344 25 C 368 25 391 29 411 37 C 431 45 449 57 464 71 C 479 85 491 103 499 123 C 507 143 512 166 512 190 C 512 216 506 238 496 258 C 485 277 471 294 453 310 C 435 325 414 339 391 351 C 367 363 343 374 317 385 C 289 397 261 409 234 423 C 206 437 182 453 160 473 C 138 492 121 515 108 542 C 94 568 88 601 88 639 C 88 673 94 706 108 736 C 121 766 139 792 163 814 C 186 836 213 853 245 866 C 276 878 310 885 346 885 C 384 885 418 881 448 874 C 478 866 507 854 535 836 L 557 881 L 596 881 L 594 645 L 555 645 C 545 705 523 752 489 786 C 455 819 410 836 354 836 C 330 836 308 831 290 823 C 272 815 256 804 244 790 C 232 776 222 761 216 744 C 210 726 207 709 207 692 C 207 665 212 642 223 623 C 233 604 248 587 266 573 C 284 559 304 546 328 535 C 351 523 375 512 401 502 C 431 488 461 474 490 459 C 519 444 545 426 568 406 C 590 386 608 362 622 335 C 636 308 643 276 643 238 Z" unicode="s" />
<glyph horiz-adv-x="608" d="M 606 98 C 594 82 581 67 566 53 C 550 39 533 26 513 15 C 493 4 471 -4 447 -10 C 422 -16 395 -20 365 -20 C 337 -20 310 -15 285 -6 C 260 2 238 16 220 35 C 201 54 186 78 176 108 C 165 137 160 172 160 213 L 160 788 L 23 788 L 23 825 L 156 877 L 260 1137 L 305 1137 L 305 852 L 557 852 L 557 793 L 305 793 L 305 227 C 305 167 317 124 342 97 C 366 70 398 57 438 57 C 473 57 502 64 525 80 C 548 95 566 111 580 129 L 606 98 Z" unicode="t" />
<glyph horiz-adv-x="997" d="M 977 18 L 705 -20 L 705 205 L 702 205 C 676 131 638 75 587 35 C 535 -5 473 -25 401 -25 C 361 -25 326 -18 294 -5 C 262 8 235 27 213 51 C 190 75 173 104 161 138 C 149 172 143 209 143 250 L 143 791 L 10 815 L 10 852 L 291 852 L 291 131 C 301 104 318 83 343 68 C 368 52 400 45 438 45 C 478 45 515 54 547 74 C 579 94 606 121 628 155 C 650 189 666 228 678 273 C 690 318 696 366 696 416 L 696 791 L 549 815 L 549 852 L 844 852 L 844 74 L 977 51 L 977 18 Z" unicode="u" />
<glyph horiz-adv-x="893" d="M 889 815 L 793 791 L 457 -33 L 436 -33 L 100 795 L 4 815 L 4 852 L 395 852 L 395 815 L 256 799 L 487 203 L 719 795 L 580 815 L 580 852 L 889 852 L 889 815 Z" unicode="v" />
<glyph horiz-adv-x="1405" d="M 1401 815 L 1305 791 L 969 -33 L 948 -33 L 702 578 L 457 -33 L 436 -33 L 100 795 L 4 815 L 4 852 L 395 852 L 395 815 L 256 799 L 489 205 L 668 662 L 612 799 L 512 815 L 512 852 L 913 852 L 913 815 L 774 799 L 774 791 L 1001 205 L 1231 795 L 1092 815 L 1092 852 L 1401 852 L 1401 815 Z" unicode="w" />
<glyph horiz-adv-x="877" d="M 868 0 L 473 0 L 473 37 L 608 53 L 410 362 L 213 53 L 348 37 L 348 0 L 12 0 L 12 37 L 139 57 L 373 414 L 113 799 L 16 815 L 16 852 L 403 852 L 403 815 L 276 799 L 459 512 L 639 799 L 512 815 L 512 852 L 840 852 L 840 815 L 715 795 L 496 461 L 772 53 L 868 37 L 868 0 Z" unicode="x" />
<glyph horiz-adv-x="901" d="M 897 815 L 801 791 L 479 -20 L 303 -532 L 160 -532 L 416 -4 L 100 795 L 4 815 L 4 852 L 399 852 L 399 815 L 256 799 L 492 176 L 727 795 L 584 815 L 584 852 L 897 852 L 897 815 Z" unicode="y" />
<glyph horiz-adv-x="829" d="M 776 279 L 768 0 L 49 0 L 37 33 L 584 795 L 158 795 L 135 618 L 82 618 L 82 852 L 762 852 L 762 819 L 215 57 L 690 57 L 723 279 L 776 279 Z" unicode="z" />
<glyph horiz-adv-x="717" d="M 590 -451 C 544 -451 501 -444 460 -432 C 419 -420 383 -401 352 -377 C 321 -353 296 -323 278 -288 C 259 -252 250 -212 250 -166 C 250 -122 252 -80 256 -38 C 260 4 265 45 270 87 C 275 128 280 170 284 212 C 288 254 291 296 291 340 C 291 384 274 418 242 444 C 210 470 158 483 86 483 L 86 520 C 158 520 210 532 242 558 C 274 584 291 619 291 664 C 291 707 288 750 284 792 C 280 834 275 877 270 919 C 265 961 260 1003 256 1045 C 252 1087 250 1130 250 1174 C 250 1218 259 1258 278 1293 C 296 1328 321 1357 352 1381 C 383 1405 419 1423 460 1435 C 501 1447 544 1454 590 1454 L 590 1417 C 562 1417 535 1413 509 1406 C 483 1398 460 1387 440 1372 C 420 1357 403 1338 391 1316 C 379 1293 373 1266 373 1235 C 373 1191 375 1148 379 1105 C 383 1061 388 1018 393 975 C 398 931 403 888 407 845 C 411 801 414 758 414 715 C 414 688 409 663 399 641 C 389 618 376 598 360 580 C 343 562 323 546 301 534 C 279 522 255 512 229 506 L 229 498 C 255 491 279 481 301 469 C 323 456 343 441 360 423 C 376 405 389 384 399 362 C 409 340 414 315 414 289 C 414 245 411 202 407 159 C 403 115 398 72 393 29 C 388 -14 383 -57 379 -101 C 375 -144 373 -187 373 -231 C 373 -261 379 -287 391 -310 C 403 -333 420 -352 440 -368 C 460 -383 483 -394 509 -402 C 535 -410 562 -414 590 -414 L 590 -451 Z" unicode="{" />
<glyph horiz-adv-x="512" d="M 299 -537 L 213 -537 L 213 1475 L 299 1475 L 299 -537 Z" unicode="|" />
<glyph horiz-adv-x="717" d="M 631 483 C 559 483 506 470 474 444 C 442 418 426 384 426 340 C 426 296 428 253 432 211 C 436 169 441 127 446 85 C 451 43 456 0 460 -41 C 464 -83 467 -126 467 -170 C 467 -215 457 -255 439 -290 C 420 -324 395 -354 364 -378 C 333 -402 297 -420 256 -432 C 214 -444 171 -451 127 -451 L 127 -414 C 155 -414 182 -410 208 -403 C 234 -395 257 -384 277 -369 C 297 -354 313 -335 325 -312 C 337 -289 344 -262 344 -231 C 344 -187 341 -144 337 -101 C 333 -57 328 -14 323 29 C 318 72 313 115 309 159 C 305 202 303 245 303 289 C 303 315 307 340 317 362 C 327 384 340 405 357 423 C 373 441 393 456 415 469 C 437 481 461 491 487 498 L 487 506 C 461 512 437 522 415 534 C 393 546 373 562 357 580 C 340 598 327 618 317 641 C 307 663 303 688 303 715 C 303 758 305 801 309 845 C 313 888 318 931 323 975 C 328 1018 333 1061 337 1105 C 341 1148 344 1191 344 1235 C 344 1265 337 1291 325 1314 C 313 1337 297 1356 277 1371 C 257 1386 234 1397 208 1405 C 182 1413 155 1417 127 1417 L 127 1454 C 171 1454 214 1447 256 1435 C 297 1423 333 1405 364 1381 C 395 1357 420 1327 439 1291 C 457 1255 467 1215 467 1169 C 467 1125 464 1083 460 1041 C 456 999 451 958 446 916 C 441 874 436 833 432 791 C 428 749 426 707 426 664 C 426 619 442 584 474 558 C 506 532 559 520 631 520 L 631 483 Z" unicode="}" />
<glyph horiz-adv-x="1331" d="M 1159 633 C 1143 601 1125 570 1105 540 C 1085 509 1062 481 1037 457 C 1011 432 983 412 953 397 C 922 382 888 375 852 375 C 830 375 807 379 783 388 C 759 396 735 407 711 420 C 686 433 661 447 636 463 C 611 478 587 492 563 505 C 539 518 515 529 493 538 C 471 546 450 551 430 551 C 384 551 343 536 305 507 C 267 477 235 439 207 391 L 172 414 C 188 445 206 476 226 507 C 246 537 269 565 294 590 C 319 614 347 634 378 649 C 408 664 442 672 479 672 C 501 672 523 667 547 659 C 571 650 595 639 620 626 C 644 613 669 599 694 584 C 719 568 744 554 768 541 C 792 528 815 517 837 509 C 859 500 881 496 901 496 C 946 496 987 510 1025 539 C 1063 568 1096 607 1124 655 L 1159 633 Z" unicode="~" />
<glyph horiz-adv-x="410" d="" unicode="" />
<glyph horiz-adv-x="594" d="M 389 1255 C 389 1227 379 1203 360 1184 C 340 1164 317 1155 289 1155 C 275 1155 261 1157 249 1163 C 237 1168 226 1175 217 1184 C 208 1193 201 1204 196 1216 C 190 1228 188 1241 188 1255 C 188 1269 190 1282 196 1294 C 201 1306 208 1317 217 1326 C 226 1335 237 1342 249 1348 C 261 1353 275 1356 289 1356 C 303 1356 316 1353 328 1348 C 340 1342 350 1335 359 1326 C 368 1317 375 1306 381 1294 C 386 1282 389 1269 389 1255 Z M 373 -16 L 205 -16 L 205 168 L 262 1004 L 315 1004 L 373 168 L 373 -16 Z" unicode="" />
<glyph horiz-adv-x="950" d="M 840 389 C 830 375 816 359 800 342 C 784 324 764 308 741 292 C 718 276 691 263 661 251 C 630 239 595 231 557 227 L 557 -29 L 492 -29 L 492 225 C 435 227 382 240 334 264 C 286 288 244 320 208 360 C 172 400 144 448 124 503 C 104 558 94 618 94 684 C 94 750 105 810 127 864 C 149 918 179 964 216 1003 C 253 1042 295 1073 343 1096 C 391 1118 440 1131 492 1135 L 492 1348 L 557 1348 L 557 1133 C 595 1131 629 1126 661 1118 C 693 1109 724 1095 756 1077 L 780 1135 L 819 1135 L 807 879 L 766 879 C 755 935 732 981 696 1019 C 660 1057 613 1079 557 1085 L 557 293 C 587 293 614 297 639 305 C 664 312 687 321 707 333 C 727 345 745 358 761 374 C 777 390 791 406 803 424 L 840 389 Z M 492 299 L 492 1085 C 455 1079 422 1066 393 1046 C 364 1025 339 998 319 964 C 299 930 283 890 272 844 C 261 798 256 748 256 694 C 256 643 262 595 274 551 C 286 507 302 467 323 432 C 344 397 369 368 398 345 C 427 322 458 307 492 299 Z" unicode="" />
<glyph horiz-adv-x="1094" d="M 997 219 C 997 192 994 165 988 139 C 982 112 974 86 964 61 C 953 36 940 13 926 -8 C 912 -30 896 -49 879 -66 C 837 -52 793 -39 747 -27 C 701 -14 653 -3 605 6 C 557 16 509 24 461 30 C 413 36 368 39 326 39 C 307 39 288 38 269 36 C 249 34 232 30 217 25 L 117 -39 L 84 16 L 168 72 C 188 85 205 99 219 114 C 232 129 243 148 251 171 C 259 194 264 222 267 256 C 270 289 272 331 272 381 L 272 614 L 96 614 L 96 680 L 272 680 L 272 891 C 272 957 280 1019 298 1075 C 315 1131 341 1180 376 1221 C 410 1262 453 1294 505 1317 C 557 1340 617 1352 686 1352 C 740 1352 788 1344 828 1329 C 868 1313 904 1292 934 1264 L 852 1133 C 827 1157 804 1180 782 1201 C 760 1221 740 1239 722 1254 C 703 1269 686 1281 670 1290 C 654 1298 639 1303 627 1303 C 599 1303 573 1295 550 1280 C 526 1264 506 1243 489 1216 C 472 1188 459 1156 450 1118 C 440 1080 436 1038 436 993 L 436 680 L 791 680 L 791 614 L 436 614 L 436 492 C 436 452 433 414 428 378 C 422 342 413 309 401 278 C 388 246 371 217 350 189 C 329 161 303 135 272 111 L 274 109 C 292 117 308 125 324 131 C 340 137 355 142 370 146 C 384 149 399 151 414 153 C 428 155 444 156 461 156 C 495 156 530 153 567 149 C 604 145 641 139 679 131 C 716 123 753 115 790 105 C 826 95 861 86 893 76 C 910 96 923 120 932 147 C 940 173 946 200 948 227 L 997 219 Z" unicode="" />
<glyph horiz-adv-x="1152" d="M 1056 392 L 940 284 L 740 500 C 692 468 636 452 572 452 C 510 452 456 468 408 500 L 208 284 L 92 392 L 300 608 C 281 634 268 660 262 686 C 255 711 252 742 252 780 C 252 812 255 842 262 870 C 268 898 281 925 300 952 L 92 1168 L 208 1276 L 408 1060 C 456 1092 510 1108 572 1108 C 636 1108 692 1092 740 1060 L 944 1276 L 1060 1156 L 852 952 C 870 925 883 898 890 872 C 896 845 900 814 900 780 C 900 716 882 658 848 608 L 1056 392 Z M 748 780 C 748 833 731 876 698 910 C 664 943 622 960 572 960 C 521 960 480 943 448 910 C 416 876 400 833 400 780 C 400 726 416 684 450 652 C 483 620 524 604 572 604 C 625 604 668 620 700 652 C 732 684 748 726 748 780 Z" unicode="" />
<glyph horiz-adv-x="1253" d="M 1163 1274 L 1051 1249 L 813 797 L 1098 797 L 1098 735 L 784 735 L 705 586 L 705 539 L 1098 539 L 1098 477 L 705 477 L 705 61 L 866 45 L 866 0 L 387 0 L 387 45 L 549 61 L 549 477 L 156 477 L 156 539 L 549 539 L 549 586 L 473 735 L 156 735 L 156 797 L 440 797 L 199 1257 L 90 1274 L 90 1319 L 555 1319 L 555 1274 L 377 1257 L 668 680 L 956 1253 L 780 1274 L 780 1319 L 1163 1319 L 1163 1274 Z" unicode="" />
<glyph horiz-adv-x="512" d="M 299 670 L 213 670 L 213 1475 L 299 1475 L 299 670 Z M 299 -537 L 213 -537 L 213 268 L 299 268 L 299 -537 Z" unicode="" />
<glyph horiz-adv-x="1024" d="M 868 543 C 868 517 864 493 856 471 C 848 448 837 427 824 407 C 810 387 795 370 778 354 C 761 338 743 325 725 313 C 739 300 754 287 768 274 C 782 261 794 247 805 233 C 815 219 824 203 830 187 C 836 170 840 151 840 131 C 840 90 831 52 814 18 C 797 -15 773 -45 743 -71 C 713 -96 677 -116 635 -130 C 593 -144 548 -152 500 -152 C 472 -152 444 -149 416 -145 C 388 -140 362 -133 336 -125 C 310 -117 285 -107 261 -95 C 237 -83 216 -71 197 -57 L 188 156 L 233 162 L 272 -8 C 286 -20 302 -31 321 -41 C 340 -51 360 -59 382 -67 C 403 -74 425 -80 447 -84 C 469 -88 490 -90 510 -90 C 540 -90 568 -85 594 -76 C 620 -67 644 -54 664 -37 C 684 -20 699 0 711 24 C 723 48 729 75 729 106 L 330 446 C 308 464 288 481 269 499 C 250 517 233 535 219 555 C 205 575 193 596 185 619 C 176 641 172 666 172 694 C 172 742 185 785 211 822 C 237 858 271 890 313 918 C 281 944 255 973 233 1003 C 211 1033 201 1068 201 1108 C 201 1148 209 1184 225 1218 C 241 1252 262 1281 290 1306 C 318 1330 351 1349 389 1363 C 427 1377 468 1384 512 1384 C 530 1384 548 1383 568 1382 C 588 1380 607 1378 626 1376 C 645 1373 663 1369 681 1365 C 698 1361 713 1356 727 1350 L 745 1384 L 791 1384 L 791 1096 L 745 1096 L 707 1268 C 679 1291 647 1307 612 1315 C 577 1323 541 1327 504 1327 C 482 1327 460 1323 437 1315 C 414 1307 393 1296 375 1281 C 356 1265 341 1246 329 1223 C 317 1200 311 1173 311 1143 C 311 1141 311 1139 311 1137 C 311 1135 311 1133 312 1132 C 312 1129 312 1127 313 1126 L 705 797 C 731 774 755 752 775 732 C 795 712 812 692 826 672 C 840 652 850 631 857 610 C 864 589 868 567 868 543 Z M 758 489 C 758 510 753 528 744 544 C 734 559 718 576 696 596 L 350 887 C 342 881 334 872 326 862 C 318 852 310 841 304 829 C 298 817 293 804 289 791 C 285 778 283 766 283 756 C 283 741 284 728 287 717 C 289 706 293 696 299 687 C 304 678 311 670 319 662 C 327 654 336 645 346 637 L 688 346 C 708 360 725 381 738 407 C 751 433 758 460 758 489 Z" unicode="" />
<glyph horiz-adv-x="1024" d="M 774 1122 C 774 1097 765 1076 747 1058 C 729 1040 708 1032 684 1032 C 659 1032 638 1040 620 1058 C 602 1076 594 1097 594 1122 C 594 1146 602 1167 620 1185 C 638 1203 659 1212 684 1212 C 708 1212 729 1203 747 1185 C 765 1167 774 1146 774 1122 Z M 430 1122 C 430 1097 421 1076 403 1058 C 385 1040 364 1032 340 1032 C 315 1032 294 1040 276 1058 C 258 1076 250 1097 250 1122 C 250 1146 258 1167 276 1185 C 294 1203 315 1212 340 1212 C 364 1212 385 1203 403 1185 C 421 1167 430 1146 430 1122 Z" unicode="" />
<glyph horiz-adv-x="1536" d="M 1415 670 C 1415 580 1398 495 1364 417 C 1330 339 1283 270 1225 212 C 1167 153 1098 107 1020 73 C 941 39 857 23 768 23 C 678 23 594 39 516 73 C 437 107 368 153 310 212 C 251 270 205 339 171 417 C 137 495 121 580 121 670 C 121 729 128 786 144 842 C 159 897 181 949 209 997 C 237 1045 270 1088 310 1128 C 349 1167 393 1201 441 1229 C 489 1257 540 1278 596 1294 C 651 1309 708 1317 768 1317 C 827 1317 884 1309 940 1294 C 995 1278 1047 1257 1095 1229 C 1143 1201 1186 1167 1226 1128 C 1265 1088 1299 1045 1327 997 C 1355 949 1376 897 1392 842 C 1407 786 1415 729 1415 670 Z M 1346 670 C 1346 751 1330 827 1300 899 C 1270 971 1228 1033 1176 1087 C 1124 1140 1063 1182 993 1213 C 923 1244 848 1260 768 1260 C 688 1260 613 1244 543 1213 C 473 1182 411 1140 359 1087 C 307 1033 265 971 235 899 C 205 827 190 751 190 670 C 190 588 205 512 235 440 C 265 368 307 306 359 253 C 411 199 473 157 543 126 C 613 95 688 80 768 80 C 848 80 923 95 993 126 C 1063 157 1124 199 1176 253 C 1228 306 1270 368 1300 440 C 1330 512 1346 588 1346 670 Z M 1071 393 C 1047 374 1024 358 1002 346 C 980 333 957 323 933 315 C 909 307 884 301 858 298 C 832 294 804 293 774 293 C 718 293 667 301 620 319 C 572 337 531 362 496 395 C 461 427 434 466 414 512 C 394 558 385 608 385 664 C 385 721 395 773 415 820 C 435 867 462 907 498 941 C 533 975 575 1001 623 1019 C 671 1037 724 1047 782 1047 C 821 1047 857 1044 889 1038 C 921 1032 955 1022 989 1006 L 999 1047 L 1044 1047 L 1036 825 L 991 825 L 975 936 C 958 948 942 957 927 965 C 911 973 896 979 880 984 C 864 988 848 992 831 994 C 813 996 794 997 774 997 C 732 997 696 988 665 970 C 633 952 607 929 585 900 C 563 870 547 836 536 798 C 525 760 520 720 520 680 C 520 634 526 590 538 550 C 550 509 569 474 593 444 C 617 414 647 390 683 372 C 718 354 759 346 805 346 C 852 346 894 353 931 369 C 967 385 1004 408 1040 438 L 1071 393 Z" unicode="" />
<glyph horiz-adv-x="641" d="M 616 817 C 611 811 604 804 596 797 C 588 790 578 783 567 777 C 556 771 544 766 532 762 C 519 758 506 756 494 756 C 468 756 446 762 428 776 C 410 789 396 807 387 831 C 377 823 365 814 352 806 C 339 797 325 789 311 781 C 297 773 282 767 267 763 C 252 758 238 756 225 756 C 201 756 180 759 161 765 C 141 771 125 781 111 793 C 97 805 86 820 78 838 C 70 856 66 876 66 899 C 66 925 70 947 79 967 C 88 986 100 1002 116 1016 C 132 1030 150 1041 172 1049 C 193 1057 216 1064 240 1069 L 381 1096 L 381 1165 C 381 1201 372 1229 356 1249 C 339 1269 312 1280 274 1280 C 243 1280 215 1270 191 1252 C 166 1234 144 1210 125 1182 L 86 1214 C 110 1252 141 1281 178 1303 C 214 1324 253 1335 295 1335 C 359 1335 409 1321 444 1293 C 478 1265 496 1226 496 1174 L 496 901 C 496 883 497 868 501 857 C 504 846 508 838 514 832 C 520 826 526 822 533 820 C 539 818 546 817 553 817 C 563 817 573 819 583 823 C 593 827 600 832 606 838 L 616 817 Z M 381 868 L 381 1059 L 289 1042 C 255 1036 227 1023 205 1004 C 183 984 172 957 172 922 C 172 905 174 890 180 878 C 186 865 193 854 202 846 C 211 837 221 830 232 826 C 243 821 254 819 266 819 C 286 819 307 824 327 834 C 347 844 365 856 381 868 Z" unicode="" />
<glyph horiz-adv-x="1024" d="M 864 121 L 831 94 L 481 446 L 831 799 L 864 772 L 645 446 L 864 121 Z M 506 121 L 473 94 L 123 446 L 473 799 L 506 772 L 287 446 L 506 121 Z" unicode="" />
<glyph horiz-adv-x="1229" d="M 1065 586 L 164 586 L 164 668 L 1065 668 L 1065 586 Z" unicode="" />
<glyph horiz-adv-x="573" d="M 492 442 L 82 393 L 82 483 L 492 532 L 492 442 Z" unicode="" />
<glyph horiz-adv-x="696" d="M 655 1071 C 655 1028 647 988 631 951 C 615 913 593 881 565 853 C 537 825 505 804 468 788 C 430 772 390 764 348 764 C 305 764 265 772 228 788 C 190 804 158 825 130 853 C 102 881 81 913 65 951 C 49 988 41 1028 41 1071 C 41 1113 49 1153 65 1191 C 81 1228 102 1260 130 1288 C 158 1316 190 1338 228 1354 C 265 1370 305 1378 348 1378 C 390 1378 430 1370 468 1354 C 505 1338 537 1316 565 1288 C 593 1260 615 1228 631 1191 C 647 1153 655 1113 655 1071 Z M 621 1071 C 621 1109 613 1145 599 1179 C 585 1213 565 1242 541 1267 C 516 1292 487 1312 454 1326 C 420 1340 385 1348 348 1348 C 310 1348 275 1340 242 1326 C 209 1312 180 1292 156 1267 C 131 1242 111 1213 97 1179 C 83 1145 76 1109 76 1071 C 76 1033 83 997 97 963 C 111 929 131 900 156 875 C 180 850 209 830 242 816 C 275 802 310 795 348 795 C 385 795 420 802 454 816 C 487 830 516 850 541 875 C 565 900 585 929 599 963 C 613 997 621 1033 621 1071 Z M 532 901 L 444 901 L 348 1047 L 299 1042 L 299 928 L 344 922 L 344 901 L 199 901 L 199 922 L 242 928 L 242 1225 L 199 1231 L 199 1249 L 350 1249 C 385 1249 414 1242 438 1228 C 461 1214 473 1191 473 1159 C 473 1134 466 1113 452 1097 C 438 1080 420 1068 399 1061 L 500 928 L 532 922 L 532 901 Z M 412 1153 C 412 1176 404 1194 389 1207 C 374 1220 355 1227 332 1227 C 325 1227 320 1227 316 1227 C 312 1227 306 1226 299 1225 L 299 1069 L 328 1069 C 384 1069 412 1097 412 1153 Z" unicode="" />
<glyph horiz-adv-x="1024" d="M 799 1092 L 225 1092 L 225 1190 L 799 1190 L 799 1092 Z" unicode="" />
<glyph horiz-adv-x="676" d="M 610 1077 C 610 1039 602 1003 588 970 C 574 937 554 908 530 883 C 505 858 476 838 443 824 C 410 810 375 803 338 803 C 300 803 265 810 232 824 C 199 838 170 858 146 883 C 121 908 101 937 87 970 C 73 1003 66 1039 66 1077 C 66 1115 73 1150 87 1184 C 101 1217 121 1246 146 1271 C 170 1296 199 1316 232 1330 C 265 1344 300 1352 338 1352 C 375 1352 410 1344 443 1330 C 476 1316 505 1296 530 1271 C 554 1246 574 1217 588 1184 C 602 1150 610 1115 610 1077 Z M 528 1077 C 528 1105 523 1131 513 1156 C 503 1180 490 1202 473 1220 C 456 1238 436 1253 413 1264 C 389 1274 364 1280 338 1280 C 310 1280 285 1274 262 1264 C 238 1253 218 1238 201 1220 C 184 1202 171 1180 161 1156 C 151 1131 147 1105 147 1077 C 147 1049 151 1022 161 998 C 171 973 184 951 201 933 C 218 915 238 900 262 890 C 285 879 310 874 338 874 C 364 874 389 879 413 890 C 436 900 456 915 473 933 C 490 951 503 973 513 998 C 523 1022 528 1049 528 1077 Z" unicode="" />
<glyph horiz-adv-x="1536" d="M 672 352 L 672 764 L 200 764 L 200 936 L 672 936 L 672 1352 L 864 1352 L 864 936 L 1340 936 L 1340 764 L 864 764 L 864 352 L 672 352 Z M 204 24 L 204 216 L 1336 216 L 1336 24 L 204 24 Z" unicode="" />
<glyph horiz-adv-x="682" d="M 629 834 L 602 627 L 63 627 L 51 682 L 244 838 C 282 868 314 896 340 920 C 366 944 387 967 403 989 C 419 1011 430 1033 438 1057 C 445 1080 449 1107 449 1137 C 449 1184 436 1222 410 1250 C 384 1278 348 1292 303 1292 C 263 1292 229 1279 200 1255 C 171 1230 148 1198 131 1159 L 84 1204 C 112 1251 146 1288 186 1314 C 226 1340 273 1354 328 1354 C 362 1354 394 1349 425 1340 C 455 1331 482 1318 506 1301 C 530 1283 549 1262 563 1236 C 577 1210 584 1181 584 1147 C 584 1117 579 1091 570 1068 C 560 1045 547 1023 530 1003 C 513 982 492 961 468 941 C 444 921 417 899 387 877 L 205 737 L 205 731 L 547 731 L 588 842 L 629 834 Z" unicode="" />
<glyph horiz-adv-x="682" d="M 586 825 C 586 790 577 758 560 730 C 543 702 521 678 494 658 C 467 638 436 622 402 612 C 368 601 333 596 299 596 C 259 596 219 601 181 612 C 143 622 108 640 76 664 L 104 723 C 128 704 156 688 188 676 C 220 663 251 657 281 657 C 305 657 328 660 349 666 C 369 672 387 682 402 695 C 417 708 429 724 438 744 C 446 763 451 786 451 813 C 451 837 447 859 439 877 C 431 895 419 910 405 922 C 391 934 374 943 354 949 C 334 955 312 958 289 958 C 274 958 258 957 241 956 C 224 955 209 953 195 950 L 188 1014 L 205 1014 C 237 1014 266 1016 293 1021 C 319 1026 342 1035 361 1047 C 380 1059 395 1076 406 1097 C 416 1117 422 1143 422 1174 C 422 1195 418 1213 411 1229 C 404 1244 395 1256 383 1266 C 371 1276 357 1283 341 1287 C 325 1291 309 1294 291 1294 C 259 1294 230 1286 204 1272 C 178 1258 155 1235 137 1204 L 92 1249 C 107 1269 123 1285 139 1299 C 155 1312 171 1323 189 1331 C 207 1339 226 1345 246 1349 C 266 1352 287 1354 311 1354 C 341 1354 371 1350 400 1342 C 429 1334 455 1322 478 1307 C 500 1292 518 1274 532 1253 C 546 1232 553 1208 553 1182 C 553 1158 548 1137 539 1118 C 529 1098 516 1081 500 1066 C 484 1051 464 1038 442 1028 C 420 1017 396 1009 371 1004 L 371 1001 C 398 998 425 992 451 983 C 477 973 500 961 520 946 C 540 931 556 913 568 893 C 580 872 586 849 586 825 Z" unicode="" />
<glyph horiz-adv-x="1024" d="M 735 1276 L 410 961 L 381 983 L 627 1366 L 735 1276 Z" unicode="" />
<glyph horiz-adv-x="995" d="M 1020 72 C 1010 56 997 42 983 30 C 968 18 952 7 934 0 C 916 -8 897 -15 877 -19 C 857 -23 838 -25 819 -25 C 807 -25 795 -23 783 -20 C 770 -17 758 -13 746 -8 C 734 -3 723 2 713 10 C 703 17 696 25 690 33 L 690 205 L 688 205 C 676 169 660 137 640 109 C 620 81 598 57 573 37 C 548 17 521 1 491 -9 C 461 -19 429 -25 397 -25 C 360 -25 326 -18 294 -5 C 262 7 235 28 213 57 L 211 55 L 244 -442 L 96 -442 L 129 98 L 129 852 L 276 852 L 276 127 C 290 99 310 78 336 65 C 361 51 390 45 424 45 C 464 45 500 55 532 75 C 564 95 591 122 613 155 C 635 187 652 224 664 264 C 676 304 682 345 682 385 L 682 852 L 829 852 L 829 72 C 837 63 848 57 860 54 C 872 50 883 49 895 49 C 903 49 913 50 923 53 C 933 55 942 59 952 64 C 961 68 969 74 977 80 C 985 86 991 92 997 100 L 1020 72 Z" unicode="" />
<glyph horiz-adv-x="985" d="M 911 1274 L 752 1257 L 752 -287 L 674 -287 L 674 336 C 590 336 510 346 436 366 C 361 386 295 416 239 457 C 183 497 138 548 106 610 C 73 672 57 745 57 829 C 57 906 68 975 92 1036 C 116 1096 150 1148 195 1190 C 239 1232 294 1264 359 1286 C 423 1308 497 1319 580 1319 L 911 1319 L 911 1274 Z M 674 389 L 674 1266 L 485 1266 L 485 625 C 485 588 487 555 493 526 C 499 497 509 472 524 452 C 538 432 558 416 582 405 C 606 394 636 389 674 389 Z" unicode="" />
<glyph horiz-adv-x="512" d="M 362 541 C 362 525 359 511 353 498 C 347 485 340 474 331 465 C 321 455 310 448 297 442 C 284 436 270 434 256 434 C 241 434 227 436 214 442 C 201 448 190 455 181 465 C 171 474 164 485 158 498 C 152 511 150 525 150 541 C 150 571 160 596 180 616 C 200 636 226 647 256 647 C 286 647 311 636 331 616 C 351 596 362 571 362 541 Z" unicode="" />
<glyph horiz-adv-x="1024" d="M 698 -311 C 698 -347 690 -378 676 -405 C 662 -432 642 -454 618 -472 C 594 -490 566 -503 534 -512 C 502 -521 468 -526 432 -526 C 411 -526 390 -523 369 -519 C 347 -514 327 -507 309 -498 L 330 -446 C 345 -454 362 -461 382 -465 C 402 -469 421 -471 440 -471 C 464 -471 484 -467 502 -461 C 520 -454 534 -445 546 -434 C 558 -422 566 -409 572 -394 C 577 -379 580 -363 580 -346 C 580 -313 566 -286 539 -264 C 512 -242 469 -224 410 -209 L 510 0 L 563 0 L 535 -141 C 553 -146 571 -153 591 -162 C 610 -170 628 -181 644 -195 C 660 -209 673 -225 683 -244 C 693 -263 698 -285 698 -311 Z" unicode="" />
<glyph horiz-adv-x="682" d="M 553 627 L 152 627 L 152 664 L 291 680 L 291 1255 L 139 1255 L 139 1290 L 414 1348 L 414 680 L 553 664 L 553 627 Z" unicode="" />
<glyph horiz-adv-x="696" d="M 631 1049 C 631 1005 623 966 608 930 C 593 894 573 864 548 839 C 522 813 492 793 458 779 C 423 765 386 758 348 758 C 309 758 272 765 238 779 C 204 793 174 813 149 839 C 123 864 103 894 88 930 C 73 966 66 1005 66 1049 C 66 1091 73 1130 88 1166 C 103 1201 123 1231 149 1256 C 174 1281 204 1300 238 1314 C 272 1328 309 1335 348 1335 C 386 1335 423 1328 458 1314 C 492 1300 522 1281 548 1256 C 573 1231 593 1201 608 1166 C 623 1130 631 1091 631 1049 Z M 504 1049 C 504 1129 489 1189 461 1230 C 433 1271 395 1292 348 1292 C 300 1292 263 1271 235 1230 C 207 1189 193 1129 193 1049 C 193 968 207 906 235 864 C 263 822 300 801 348 801 C 395 801 433 822 461 864 C 489 906 504 968 504 1049 Z" unicode="" />
<glyph horiz-adv-x="1024" d="M 901 446 L 551 94 L 518 121 L 737 446 L 518 772 L 551 799 L 901 446 Z M 543 446 L 193 94 L 160 121 L 379 446 L 160 772 L 193 799 L 543 446 Z" unicode="" />
<glyph horiz-adv-x="1438" d="M 489 627 L 88 627 L 88 664 L 227 680 L 227 1255 L 76 1255 L 76 1290 L 350 1348 L 350 680 L 489 664 L 489 627 Z M 1139 1315 L 332 -35 L 274 2 L 1081 1352 L 1139 1315 Z M 1376 246 L 1360 162 L 1235 162 L 1235 -49 L 1116 -49 L 1116 162 L 766 162 L 750 223 L 1118 674 L 1182 754 L 1235 743 L 1235 246 L 1376 246 Z M 1116 246 L 1116 590 L 838 246 L 1116 246 Z" unicode="" />
<glyph horiz-adv-x="1499" d="M 489 627 L 88 627 L 88 664 L 227 680 L 227 1255 L 76 1255 L 76 1290 L 350 1348 L 350 680 L 489 664 L 489 627 Z M 1139 1315 L 332 -35 L 274 2 L 1081 1352 L 1139 1315 Z M 1415 207 L 1389 0 L 850 0 L 838 55 L 1030 211 C 1068 241 1100 269 1126 293 C 1152 317 1173 340 1189 362 C 1205 384 1217 406 1224 430 C 1231 453 1235 480 1235 510 C 1235 557 1222 595 1196 623 C 1170 651 1135 666 1090 666 C 1050 666 1016 653 987 628 C 958 603 935 571 918 532 L 870 578 C 899 625 933 662 973 688 C 1013 714 1060 727 1114 727 C 1148 727 1180 722 1211 713 C 1241 704 1268 691 1292 674 C 1316 656 1335 635 1349 609 C 1363 583 1370 554 1370 520 C 1370 490 1365 464 1356 441 C 1346 418 1333 396 1316 376 C 1299 355 1279 334 1255 314 C 1231 294 1204 272 1174 250 L 991 111 L 991 104 L 1333 104 L 1374 215 L 1415 207 Z" unicode="" />
<glyph horiz-adv-x="1477" d="M 590 825 C 590 790 581 758 564 730 C 547 702 525 678 498 658 C 471 638 440 622 406 612 C 372 601 337 596 303 596 C 263 596 223 601 185 612 C 147 622 112 640 80 664 L 109 723 C 121 713 134 705 148 697 C 162 689 177 682 193 676 C 208 670 223 665 239 662 C 255 658 270 657 285 657 C 309 657 332 660 353 666 C 373 672 391 682 406 695 C 421 708 433 724 442 744 C 450 763 455 786 455 813 C 455 837 451 859 443 877 C 435 895 423 910 409 922 C 395 934 378 943 358 949 C 338 955 316 958 293 958 C 278 958 262 957 245 956 C 228 955 213 953 199 950 L 193 1014 L 209 1014 C 241 1014 270 1016 297 1021 C 323 1026 346 1035 365 1047 C 384 1059 399 1076 410 1097 C 420 1117 426 1143 426 1174 C 426 1195 422 1213 415 1229 C 408 1244 399 1256 387 1266 C 375 1276 362 1283 346 1287 C 330 1291 313 1294 295 1294 C 263 1294 234 1286 208 1272 C 182 1258 159 1235 141 1204 L 96 1249 C 111 1269 127 1285 143 1299 C 159 1312 175 1323 193 1331 C 211 1339 230 1345 250 1349 C 270 1352 291 1354 315 1354 C 345 1354 375 1350 404 1342 C 433 1334 459 1322 482 1307 C 504 1292 522 1274 536 1253 C 550 1232 557 1208 557 1182 C 557 1158 552 1137 543 1118 C 533 1098 520 1081 504 1066 C 488 1051 468 1038 446 1028 C 424 1017 400 1009 375 1004 L 375 1001 C 402 998 429 992 455 983 C 481 973 504 961 524 946 C 544 931 560 913 572 893 C 584 872 590 849 590 825 Z M 1176 1315 L 371 -35 L 313 2 L 1118 1352 L 1176 1315 Z M 1415 246 L 1399 162 L 1274 162 L 1274 -49 L 1155 -49 L 1155 162 L 805 162 L 788 223 L 1157 674 L 1221 754 L 1274 743 L 1274 246 L 1415 246 Z M 1155 246 L 1155 590 L 877 246 L 1155 246 Z" unicode="" />
<glyph horiz-adv-x="831" d="M 633 1255 C 633 1241 630 1227 624 1215 C 618 1202 611 1191 602 1181 C 592 1171 581 1164 569 1159 C 556 1153 542 1151 528 1151 C 514 1151 500 1153 488 1159 C 475 1164 464 1171 454 1181 C 444 1191 437 1202 432 1215 C 426 1227 424 1241 424 1255 C 424 1269 426 1283 432 1296 C 437 1308 444 1319 454 1329 C 464 1338 475 1345 488 1351 C 500 1357 514 1360 528 1360 C 542 1360 556 1357 569 1351 C 581 1345 592 1338 602 1329 C 611 1319 618 1308 624 1296 C 630 1283 633 1269 633 1255 Z M 750 10 C 724 -6 692 -19 654 -29 C 616 -38 579 -43 543 -43 C 473 -43 410 -31 352 -9 C 294 12 244 44 202 85 C 160 126 128 175 105 232 C 81 289 70 352 70 422 C 70 481 80 535 102 583 C 123 631 152 672 190 708 C 227 743 271 771 322 793 C 373 814 429 828 489 834 L 489 1061 L 565 1061 L 565 678 C 505 678 452 670 405 656 C 357 641 317 619 284 591 C 250 562 225 527 207 486 C 189 444 180 397 180 344 C 180 302 186 262 200 226 C 214 190 233 158 257 132 C 281 106 309 85 341 70 C 373 54 407 47 444 47 C 468 47 489 48 508 51 C 526 54 545 59 563 67 C 581 74 599 84 619 96 C 638 108 660 123 686 141 L 750 10 Z" unicode="" />
<glyph horiz-adv-x="1237" d="M 1233 0 L 774 0 L 774 45 L 950 61 L 807 446 L 334 446 L 193 66 L 365 45 L 365 0 L 4 0 L 4 45 L 115 70 L 592 1327 L 639 1327 L 1122 61 L 1233 45 L 1233 0 Z M 782 512 L 569 1081 L 356 512 L 782 512 Z M 709 1413 L 680 1391 L 355 1706 L 463 1796 L 709 1413 Z" unicode="" />
<glyph horiz-adv-x="1237" d="M 1233 0 L 774 0 L 774 45 L 950 61 L 807 446 L 334 446 L 193 66 L 365 45 L 365 0 L 4 0 L 4 45 L 115 70 L 592 1327 L 639 1327 L 1122 61 L 1233 45 L 1233 0 Z M 782 512 L 569 1081 L 356 512 L 782 512 Z M 872 1706 L 547 1391 L 518 1413 L 764 1796 L 872 1706 Z" unicode="" />
<glyph horiz-adv-x="1237" d="M 1233 0 L 774 0 L 774 45 L 950 61 L 807 446 L 334 446 L 193 66 L 365 45 L 365 0 L 4 0 L 4 45 L 115 70 L 592 1327 L 639 1327 L 1122 61 L 1233 45 L 1233 0 Z M 782 512 L 569 1081 L 356 512 L 782 512 Z M 884 1403 L 854 1382 L 616 1630 L 376 1382 L 348 1403 L 604 1798 L 628 1798 L 884 1403 Z" unicode="" />
<glyph horiz-adv-x="1237" d="M 1233 0 L 774 0 L 774 45 L 950 61 L 807 446 L 334 446 L 193 66 L 365 45 L 365 0 L 4 0 L 4 45 L 115 70 L 592 1327 L 639 1327 L 1122 61 L 1233 45 L 1233 0 Z M 782 512 L 569 1081 L 356 512 L 782 512 Z M 940 1651 C 932 1630 921 1608 907 1584 C 893 1560 878 1537 861 1517 C 843 1497 824 1480 804 1466 C 783 1452 761 1446 739 1446 C 718 1446 696 1452 672 1464 C 648 1476 623 1490 598 1504 C 573 1518 549 1532 525 1544 C 501 1556 478 1563 458 1563 C 442 1563 427 1559 414 1553 C 401 1546 389 1537 379 1527 C 369 1516 359 1504 351 1491 C 343 1478 335 1466 327 1454 L 292 1472 C 300 1492 310 1514 324 1538 C 338 1562 353 1584 371 1605 C 388 1625 407 1642 428 1656 C 448 1670 470 1677 493 1677 C 513 1677 536 1670 560 1658 C 584 1646 608 1632 633 1618 C 658 1604 683 1590 707 1578 C 731 1566 753 1560 774 1560 C 790 1560 804 1563 817 1570 C 830 1576 842 1585 852 1596 C 862 1606 872 1618 880 1631 C 888 1644 897 1657 905 1669 L 940 1651 Z" unicode="" />
<glyph horiz-adv-x="1237" d="M 1233 0 L 774 0 L 774 45 L 950 61 L 807 446 L 334 446 L 193 66 L 365 45 L 365 0 L 4 0 L 4 45 L 115 70 L 592 1327 L 639 1327 L 1122 61 L 1233 45 L 1233 0 Z M 782 512 L 569 1081 L 356 512 L 782 512 Z M 878 1552 C 878 1527 869 1506 851 1488 C 833 1470 812 1462 788 1462 C 763 1462 742 1470 724 1488 C 706 1506 698 1527 698 1552 C 698 1576 706 1597 724 1615 C 742 1633 763 1642 788 1642 C 812 1642 833 1633 851 1615 C 869 1597 878 1576 878 1552 Z M 534 1552 C 534 1527 525 1506 507 1488 C 489 1470 468 1462 444 1462 C 419 1462 398 1470 380 1488 C 362 1506 354 1527 354 1552 C 354 1576 362 1597 380 1615 C 398 1633 419 1642 444 1642 C 468 1642 489 1633 507 1615 C 525 1597 534 1576 534 1552 Z" unicode="" />
<glyph horiz-adv-x="1237" d="M 643 1319 L 1122 61 L 1233 45 L 1233 0 L 774 0 L 774 45 L 950 61 L 807 446 L 334 446 L 193 66 L 365 45 L 365 0 L 4 0 L 4 45 L 115 70 L 588 1319 C 562 1321 539 1328 517 1339 C 495 1349 477 1363 461 1379 C 445 1395 432 1414 423 1436 C 414 1458 410 1481 410 1507 C 410 1535 415 1560 426 1584 C 436 1607 451 1627 470 1644 C 488 1661 510 1674 535 1684 C 560 1693 587 1698 616 1698 C 644 1698 671 1693 697 1684 C 722 1674 744 1661 763 1644 C 781 1627 796 1607 807 1584 C 817 1560 823 1535 823 1507 C 823 1481 818 1458 809 1436 C 799 1414 787 1394 771 1378 C 755 1362 736 1348 714 1338 C 692 1328 668 1321 643 1319 Z M 725 1507 C 725 1525 722 1543 718 1560 C 714 1577 707 1592 698 1605 C 689 1618 678 1629 664 1637 C 650 1645 634 1649 616 1649 C 598 1649 582 1645 568 1637 C 554 1629 543 1618 534 1605 C 525 1592 518 1577 514 1560 C 510 1543 508 1525 508 1507 C 508 1489 510 1471 514 1454 C 518 1437 525 1422 534 1409 C 543 1396 554 1386 568 1378 C 582 1370 598 1366 616 1366 C 634 1366 650 1370 664 1378 C 678 1386 689 1396 698 1409 C 707 1422 714 1437 718 1454 C 722 1471 725 1489 725 1507 Z M 782 512 L 569 1081 L 356 512 L 782 512 Z" unicode="" />
<glyph horiz-adv-x="1573" d="M 1483 0 L 573 0 L 573 45 L 733 61 L 733 485 L 311 485 L 88 66 L 246 45 L 246 0 L -117 0 L -117 45 L 6 70 L 637 1257 L 481 1274 L 481 1319 L 1454 1319 L 1454 1040 L 1397 1040 L 1368 1255 L 889 1255 L 889 719 L 1241 719 L 1262 860 L 1315 860 L 1315 512 L 1262 512 L 1241 653 L 889 653 L 889 70 L 1395 70 L 1421 299 L 1483 299 L 1483 0 Z M 733 551 L 733 1257 L 719 1257 L 344 551 L 733 551 Z" unicode="" />
<glyph horiz-adv-x="1266" d="M 653 -27 C 569 -20 491 0 420 35 C 349 70 288 117 236 175 C 184 233 144 303 115 383 C 86 463 72 553 72 651 C 72 752 88 845 120 931 C 152 1016 197 1089 255 1151 C 313 1213 382 1261 464 1296 C 546 1330 637 1348 737 1348 C 822 1348 895 1341 955 1329 C 1015 1317 1064 1302 1102 1286 L 1128 1348 L 1178 1348 L 1161 985 L 1112 985 L 1079 1161 C 1054 1181 1028 1199 1002 1215 C 976 1230 947 1243 917 1254 C 887 1264 854 1272 819 1278 C 783 1283 744 1286 702 1286 C 640 1286 582 1271 528 1242 C 473 1212 425 1171 384 1118 C 342 1065 310 1002 286 928 C 262 854 250 772 250 682 C 250 599 260 519 281 443 C 302 367 333 299 374 241 C 414 182 464 135 523 100 C 581 64 649 47 725 47 C 809 47 888 63 960 95 C 1032 127 1095 172 1149 231 L 1188 178 C 1120 109 1047 57 969 23 C 891 -11 806 -29 713 -29 L 690 -141 C 708 -146 727 -153 747 -162 C 766 -170 784 -181 800 -195 C 816 -209 829 -225 839 -244 C 849 -263 854 -285 854 -311 C 854 -347 846 -378 832 -405 C 818 -432 798 -454 774 -472 C 750 -490 722 -503 690 -512 C 658 -521 624 -526 588 -526 C 567 -526 546 -523 525 -519 C 503 -514 483 -507 465 -498 L 485 -446 C 500 -454 518 -461 538 -465 C 558 -469 577 -471 596 -471 C 620 -471 640 -467 658 -461 C 675 -454 689 -445 701 -434 C 713 -422 721 -409 727 -394 C 732 -379 735 -363 735 -346 C 735 -313 721 -286 695 -264 C 668 -242 625 -224 565 -209 L 653 -27 Z" unicode="" />
<glyph horiz-adv-x="1102" d="M 999 0 L 86 0 L 86 45 L 246 61 L 246 1257 L 86 1274 L 86 1319 L 971 1319 L 971 1040 L 913 1040 L 885 1253 L 406 1253 L 406 719 L 758 719 L 778 860 L 831 860 L 831 512 L 778 512 L 758 653 L 406 653 L 406 70 L 909 70 L 938 299 L 999 299 L 999 0 Z M 704 1413 L 675 1391 L 350 1706 L 458 1796 L 704 1413 Z" unicode="" />
<glyph horiz-adv-x="1102" d="M 999 0 L 86 0 L 86 45 L 246 61 L 246 1257 L 86 1274 L 86 1319 L 971 1319 L 971 1040 L 913 1040 L 885 1253 L 406 1253 L 406 719 L 758 719 L 778 860 L 831 860 L 831 512 L 778 512 L 758 653 L 406 653 L 406 70 L 909 70 L 938 299 L 999 299 L 999 0 Z M 766 1706 L 441 1391 L 412 1413 L 658 1796 L 766 1706 Z" unicode="" />
<glyph horiz-adv-x="1102" d="M 999 0 L 86 0 L 86 45 L 246 61 L 246 1257 L 86 1274 L 86 1319 L 971 1319 L 971 1040 L 913 1040 L 885 1253 L 406 1253 L 406 719 L 758 719 L 778 860 L 831 860 L 831 512 L 778 512 L 758 653 L 406 653 L 406 70 L 909 70 L 938 299 L 999 299 L 999 0 Z M 848 1403 L 818 1382 L 580 1630 L 340 1382 L 312 1403 L 568 1798 L 592 1798 L 848 1403 Z" unicode="" />
<glyph horiz-adv-x="1102" d="M 999 0 L 86 0 L 86 45 L 246 61 L 246 1257 L 86 1274 L 86 1319 L 971 1319 L 971 1040 L 913 1040 L 885 1253 L 406 1253 L 406 719 L 758 719 L 778 860 L 831 860 L 831 512 L 778 512 L 758 653 L 406 653 L 406 70 L 909 70 L 938 299 L 999 299 L 999 0 Z M 840 1552 C 840 1527 831 1506 813 1488 C 795 1470 774 1462 750 1462 C 725 1462 704 1470 686 1488 C 668 1506 660 1527 660 1552 C 660 1576 668 1597 686 1615 C 704 1633 725 1642 750 1642 C 774 1642 795 1633 813 1615 C 831 1597 840 1576 840 1552 Z M 496 1552 C 496 1527 487 1506 469 1488 C 451 1470 430 1462 406 1462 C 381 1462 360 1470 342 1488 C 324 1506 316 1527 316 1552 C 316 1576 324 1597 342 1615 C 360 1633 381 1642 406 1642 C 430 1642 451 1633 469 1615 C 487 1597 496 1576 496 1552 Z" unicode="" />
<glyph horiz-adv-x="659" d="M 569 0 L 90 0 L 90 45 L 250 61 L 250 1257 L 90 1274 L 90 1319 L 569 1319 L 569 1274 L 410 1257 L 410 61 L 569 45 L 569 0 Z M 415 1413 L 386 1391 L 61 1706 L 169 1796 L 415 1413 Z" unicode="" />
<glyph horiz-adv-x="659" d="M 569 0 L 90 0 L 90 45 L 250 61 L 250 1257 L 90 1274 L 90 1319 L 569 1319 L 569 1274 L 410 1257 L 410 61 L 569 45 L 569 0 Z M 601 1706 L 276 1391 L 247 1413 L 493 1796 L 601 1706 Z" unicode="" />
<glyph horiz-adv-x="659" d="M 569 0 L 90 0 L 90 45 L 250 61 L 250 1257 L 90 1274 L 90 1319 L 569 1319 L 569 1274 L 410 1257 L 410 61 L 569 45 L 569 0 Z M 599 1403 L 569 1382 L 331 1630 L 91 1382 L 63 1403 L 319 1798 L 343 1798 L 599 1403 Z" unicode="" />
<glyph horiz-adv-x="659" d="M 569 0 L 90 0 L 90 45 L 250 61 L 250 1257 L 90 1274 L 90 1319 L 569 1319 L 569 1274 L 410 1257 L 410 61 L 569 45 L 569 0 Z M 593 1552 C 593 1527 584 1506 566 1488 C 548 1470 527 1462 503 1462 C 478 1462 457 1470 439 1488 C 421 1506 413 1527 413 1552 C 413 1576 421 1597 439 1615 C 457 1633 478 1642 503 1642 C 527 1642 548 1633 566 1615 C 584 1597 593 1576 593 1552 Z M 249 1552 C 249 1527 240 1506 222 1488 C 204 1470 183 1462 159 1462 C 134 1462 113 1470 95 1488 C 77 1506 69 1527 69 1552 C 69 1576 77 1597 95 1615 C 113 1633 134 1642 159 1642 C 183 1642 204 1633 222 1615 C 240 1597 249 1576 249 1552 Z" unicode="" />
<glyph horiz-adv-x="1393" d="M 1323 676 C 1323 571 1307 477 1275 394 C 1243 310 1197 239 1138 181 C 1078 123 1007 78 923 47 C 839 15 745 0 641 0 L 86 0 L 86 45 L 246 61 L 246 649 L 86 649 L 86 719 L 246 719 L 246 1257 L 86 1274 L 86 1319 L 631 1319 C 731 1319 823 1305 908 1277 C 992 1249 1065 1208 1127 1154 C 1189 1100 1237 1033 1271 953 C 1305 873 1323 780 1323 676 Z M 1145 651 C 1145 745 1132 829 1108 905 C 1084 981 1048 1045 1001 1098 C 953 1150 894 1191 823 1219 C 752 1247 670 1262 578 1262 C 548 1262 518 1261 488 1260 C 458 1258 430 1256 406 1253 L 406 719 L 705 719 L 705 649 L 406 649 L 406 74 C 414 72 424 71 438 69 C 451 67 465 65 481 63 C 496 61 511 60 527 59 C 543 57 557 57 569 57 C 659 57 739 69 811 95 C 882 120 942 158 992 208 C 1042 258 1080 320 1106 394 C 1132 468 1145 553 1145 651 Z" unicode="" />
<glyph horiz-adv-x="1417" d="M 1376 1274 L 1217 1245 L 1217 -12 L 1184 -12 L 307 1079 L 307 74 L 467 45 L 467 0 L 70 0 L 70 45 L 229 74 L 229 1176 L 168 1251 L 70 1274 L 70 1319 L 322 1319 L 1139 299 L 1139 1245 L 979 1274 L 979 1319 L 1376 1319 L 1376 1274 Z M 1053 1651 C 1045 1630 1034 1608 1020 1584 C 1006 1560 991 1537 974 1517 C 956 1497 937 1480 917 1466 C 896 1452 874 1446 852 1446 C 831 1446 809 1452 785 1464 C 761 1476 736 1490 711 1504 C 686 1518 662 1532 638 1544 C 614 1556 591 1563 571 1563 C 555 1563 540 1559 527 1553 C 514 1546 502 1537 492 1527 C 482 1516 472 1504 464 1491 C 456 1478 448 1466 440 1454 L 405 1472 C 413 1492 423 1514 437 1538 C 451 1562 466 1584 484 1605 C 501 1625 520 1642 541 1656 C 561 1670 583 1677 606 1677 C 626 1677 649 1670 673 1658 C 697 1646 721 1632 746 1618 C 771 1604 796 1590 820 1578 C 844 1566 866 1560 887 1560 C 903 1560 917 1563 930 1570 C 943 1576 955 1585 965 1596 C 975 1606 985 1618 993 1631 C 1001 1644 1010 1657 1018 1669 L 1053 1651 Z" unicode="" />
<glyph horiz-adv-x="1454" d="M 1378 670 C 1378 566 1361 471 1328 385 C 1295 299 1249 226 1191 164 C 1132 102 1062 55 982 21 C 902 -12 815 -29 721 -29 C 627 -29 540 -13 461 18 C 382 50 314 95 257 154 C 200 212 156 283 124 367 C 92 451 76 545 76 649 C 76 753 92 847 125 933 C 158 1019 204 1092 263 1154 C 321 1216 391 1263 471 1297 C 551 1331 639 1348 733 1348 C 827 1348 913 1332 992 1300 C 1071 1268 1139 1223 1196 1164 C 1253 1105 1298 1034 1330 951 C 1362 867 1378 774 1378 670 Z M 1200 649 C 1200 746 1187 834 1162 912 C 1137 990 1103 1056 1060 1111 C 1016 1166 966 1208 908 1238 C 850 1267 787 1282 721 1282 C 656 1282 595 1268 539 1241 C 482 1213 432 1174 390 1122 C 348 1070 314 1006 290 930 C 266 854 254 767 254 670 C 254 572 266 485 291 407 C 316 329 350 262 394 207 C 437 152 488 110 546 81 C 604 51 666 37 733 37 C 797 37 858 50 915 78 C 971 105 1021 145 1063 197 C 1105 249 1139 313 1163 389 C 1187 465 1200 551 1200 649 Z M 858 1413 L 829 1391 L 504 1706 L 612 1796 L 858 1413 Z" unicode="" />
<glyph horiz-adv-x="1454" d="M 1378 670 C 1378 566 1361 471 1328 385 C 1295 299 1249 226 1191 164 C 1132 102 1062 55 982 21 C 902 -12 815 -29 721 -29 C 627 -29 540 -13 461 18 C 382 50 314 95 257 154 C 200 212 156 283 124 367 C 92 451 76 545 76 649 C 76 753 92 847 125 933 C 158 1019 204 1092 263 1154 C 321 1216 391 1263 471 1297 C 551 1331 639 1348 733 1348 C 827 1348 913 1332 992 1300 C 1071 1268 1139 1223 1196 1164 C 1253 1105 1298 1034 1330 951 C 1362 867 1378 774 1378 670 Z M 1200 649 C 1200 746 1187 834 1162 912 C 1137 990 1103 1056 1060 1111 C 1016 1166 966 1208 908 1238 C 850 1267 787 1282 721 1282 C 656 1282 595 1268 539 1241 C 482 1213 432 1174 390 1122 C 348 1070 314 1006 290 930 C 266 854 254 767 254 670 C 254 572 266 485 291 407 C 316 329 350 262 394 207 C 437 152 488 110 546 81 C 604 51 666 37 733 37 C 797 37 858 50 915 78 C 971 105 1021 145 1063 197 C 1105 249 1139 313 1163 389 C 1187 465 1200 551 1200 649 Z M 950 1706 L 625 1391 L 596 1413 L 842 1796 L 950 1706 Z" unicode="" />
<glyph horiz-adv-x="1454" d="M 1378 670 C 1378 566 1361 471 1328 385 C 1295 299 1249 226 1191 164 C 1132 102 1062 55 982 21 C 902 -12 815 -29 721 -29 C 627 -29 540 -13 461 18 C 382 50 314 95 257 154 C 200 212 156 283 124 367 C 92 451 76 545 76 649 C 76 753 92 847 125 933 C 158 1019 204 1092 263 1154 C 321 1216 391 1263 471 1297 C 551 1331 639 1348 733 1348 C 827 1348 913 1332 992 1300 C 1071 1268 1139 1223 1196 1164 C 1253 1105 1298 1034 1330 951 C 1362 867 1378 774 1378 670 Z M 1200 649 C 1200 746 1187 834 1162 912 C 1137 990 1103 1056 1060 1111 C 1016 1166 966 1208 908 1238 C 850 1267 787 1282 721 1282 C 656 1282 595 1268 539 1241 C 482 1213 432 1174 390 1122 C 348 1070 314 1006 290 930 C 266 854 254 767 254 670 C 254 572 266 485 291 407 C 316 329 350 262 394 207 C 437 152 488 110 546 81 C 604 51 666 37 733 37 C 797 37 858 50 915 78 C 971 105 1021 145 1063 197 C 1105 249 1139 313 1163 389 C 1187 465 1200 551 1200 649 Z M 995 1403 L 965 1382 L 727 1630 L 487 1382 L 459 1403 L 715 1798 L 739 1798 L 995 1403 Z" unicode="" />
<glyph horiz-adv-x="1454" d="M 1378 670 C 1378 566 1361 471 1328 385 C 1295 299 1249 226 1191 164 C 1132 102 1062 55 982 21 C 902 -12 815 -29 721 -29 C 627 -29 540 -13 461 18 C 382 50 314 95 257 154 C 200 212 156 283 124 367 C 92 451 76 545 76 649 C 76 753 92 847 125 933 C 158 1019 204 1092 263 1154 C 321 1216 391 1263 471 1297 C 551 1331 639 1348 733 1348 C 827 1348 913 1332 992 1300 C 1071 1268 1139 1223 1196 1164 C 1253 1105 1298 1034 1330 951 C 1362 867 1378 774 1378 670 Z M 1200 649 C 1200 746 1187 834 1162 912 C 1137 990 1103 1056 1060 1111 C 1016 1166 966 1208 908 1238 C 850 1267 787 1282 721 1282 C 656 1282 595 1268 539 1241 C 482 1213 432 1174 390 1122 C 348 1070 314 1006 290 930 C 266 854 254 767 254 670 C 254 572 266 485 291 407 C 316 329 350 262 394 207 C 437 152 488 110 546 81 C 604 51 666 37 733 37 C 797 37 858 50 915 78 C 971 105 1021 145 1063 197 C 1105 249 1139 313 1163 389 C 1187 465 1200 551 1200 649 Z M 1051 1651 C 1043 1630 1032 1608 1018 1584 C 1004 1560 989 1537 972 1517 C 954 1497 935 1480 915 1466 C 894 1452 872 1446 850 1446 C 829 1446 807 1452 783 1464 C 759 1476 734 1490 709 1504 C 684 1518 660 1532 636 1544 C 612 1556 589 1563 569 1563 C 553 1563 538 1559 525 1553 C 512 1546 500 1537 490 1527 C 480 1516 470 1504 462 1491 C 454 1478 446 1466 438 1454 L 403 1472 C 411 1492 421 1514 435 1538 C 449 1562 464 1584 482 1605 C 499 1625 518 1642 539 1656 C 559 1670 581 1677 604 1677 C 624 1677 647 1670 671 1658 C 695 1646 719 1632 744 1618 C 769 1604 794 1590 818 1578 C 842 1566 864 1560 885 1560 C 901 1560 915 1563 928 1570 C 941 1576 953 1585 963 1596 C 973 1606 983 1618 991 1631 C 999 1644 1008 1657 1016 1669 L 1051 1651 Z" unicode="" />
<glyph horiz-adv-x="1454" d="M 1378 670 C 1378 566 1361 471 1328 385 C 1295 299 1249 226 1191 164 C 1132 102 1062 55 982 21 C 902 -12 815 -29 721 -29 C 627 -29 540 -13 461 18 C 382 50 314 95 257 154 C 200 212 156 283 124 367 C 92 451 76 545 76 649 C 76 753 92 847 125 933 C 158 1019 204 1092 263 1154 C 321 1216 391 1263 471 1297 C 551 1331 639 1348 733 1348 C 827 1348 913 1332 992 1300 C 1071 1268 1139 1223 1196 1164 C 1253 1105 1298 1034 1330 951 C 1362 867 1378 774 1378 670 Z M 1200 649 C 1200 746 1187 834 1162 912 C 1137 990 1103 1056 1060 1111 C 1016 1166 966 1208 908 1238 C 850 1267 787 1282 721 1282 C 656 1282 595 1268 539 1241 C 482 1213 432 1174 390 1122 C 348 1070 314 1006 290 930 C 266 854 254 767 254 670 C 254 572 266 485 291 407 C 316 329 350 262 394 207 C 437 152 488 110 546 81 C 604 51 666 37 733 37 C 797 37 858 50 915 78 C 971 105 1021 145 1063 197 C 1105 249 1139 313 1163 389 C 1187 465 1200 551 1200 649 Z M 989 1552 C 989 1527 980 1506 962 1488 C 944 1470 923 1462 899 1462 C 874 1462 853 1470 835 1488 C 817 1506 809 1527 809 1552 C 809 1576 817 1597 835 1615 C 853 1633 874 1642 899 1642 C 923 1642 944 1633 962 1615 C 980 1597 989 1576 989 1552 Z M 645 1552 C 645 1527 636 1506 618 1488 C 600 1470 579 1462 555 1462 C 530 1462 509 1470 491 1488 C 473 1506 465 1527 465 1552 C 465 1576 473 1597 491 1615 C 509 1633 530 1642 555 1642 C 579 1642 600 1633 618 1615 C 636 1597 645 1576 645 1552 Z" unicode="" />
<glyph horiz-adv-x="1229" d="M 1055 229 L 997 172 L 614 559 L 231 172 L 174 229 L 561 612 L 174 995 L 231 1053 L 614 666 L 997 1053 L 1055 995 L 668 612 L 1055 229 Z" unicode="" />
<glyph horiz-adv-x="1454" d="M 1378 670 C 1378 566 1361 471 1328 385 C 1295 299 1249 226 1191 164 C 1132 102 1062 55 982 21 C 902 -12 815 -29 721 -29 C 656 -29 595 -21 537 -6 C 479 8 426 30 377 59 L 266 -111 L 211 -76 L 324 96 C 246 154 186 230 142 323 C 98 416 76 525 76 649 C 76 753 92 847 125 933 C 158 1019 204 1092 263 1154 C 321 1216 391 1263 471 1297 C 551 1331 639 1348 733 1348 C 797 1348 858 1340 916 1325 C 974 1310 1027 1288 1077 1260 L 1188 1430 L 1243 1395 L 1130 1223 C 1207 1164 1268 1088 1312 995 C 1356 901 1378 793 1378 670 Z M 1014 1163 C 974 1202 929 1232 879 1252 C 829 1272 776 1282 721 1282 C 656 1282 595 1268 539 1241 C 482 1213 432 1174 390 1122 C 348 1070 314 1006 290 930 C 266 854 254 767 254 670 C 254 572 266 483 292 405 C 317 327 351 261 395 207 L 1014 1163 Z M 1200 649 C 1200 747 1187 835 1162 913 C 1136 991 1102 1058 1059 1114 L 440 156 C 480 116 525 87 575 67 C 625 47 677 37 733 37 C 797 37 858 50 915 78 C 971 105 1021 145 1063 197 C 1105 249 1139 313 1163 389 C 1187 465 1200 551 1200 649 Z" unicode="" />
<glyph horiz-adv-x="1348" d="M 1325 1274 L 1165 1245 L 1165 477 C 1165 403 1155 335 1136 273 C 1116 211 1087 158 1047 113 C 1007 68 957 33 897 8 C 837 -16 766 -29 684 -29 C 604 -29 534 -17 474 6 C 414 30 363 63 323 107 C 283 151 252 204 232 266 C 211 328 201 399 201 477 L 201 1257 L 41 1274 L 41 1319 L 520 1319 L 520 1274 L 360 1257 L 360 500 C 360 433 365 372 377 318 C 389 263 408 216 436 178 C 464 139 500 109 545 88 C 590 67 646 57 713 57 C 778 57 834 67 882 88 C 929 109 968 139 998 177 C 1028 215 1051 262 1065 316 C 1079 370 1087 430 1087 496 L 1087 1245 L 928 1274 L 928 1319 L 1325 1319 L 1325 1274 Z M 885 1413 L 856 1391 L 531 1706 L 639 1796 L 885 1413 Z" unicode="" />
<glyph horiz-adv-x="1348" d="M 1325 1274 L 1165 1245 L 1165 477 C 1165 403 1155 335 1136 273 C 1116 211 1087 158 1047 113 C 1007 68 957 33 897 8 C 837 -16 766 -29 684 -29 C 604 -29 534 -17 474 6 C 414 30 363 63 323 107 C 283 151 252 204 232 266 C 211 328 201 399 201 477 L 201 1257 L 41 1274 L 41 1319 L 520 1319 L 520 1274 L 360 1257 L 360 500 C 360 433 365 372 377 318 C 389 263 408 216 436 178 C 464 139 500 109 545 88 C 590 67 646 57 713 57 C 778 57 834 67 882 88 C 929 109 968 139 998 177 C 1028 215 1051 262 1065 316 C 1079 370 1087 430 1087 496 L 1087 1245 L 928 1274 L 928 1319 L 1325 1319 L 1325 1274 Z M 923 1706 L 598 1391 L 569 1413 L 815 1796 L 923 1706 Z" unicode="" />
<glyph horiz-adv-x="1348" d="M 1325 1274 L 1165 1245 L 1165 477 C 1165 403 1155 335 1136 273 C 1116 211 1087 158 1047 113 C 1007 68 957 33 897 8 C 837 -16 766 -29 684 -29 C 604 -29 534 -17 474 6 C 414 30 363 63 323 107 C 283 151 252 204 232 266 C 211 328 201 399 201 477 L 201 1257 L 41 1274 L 41 1319 L 520 1319 L 520 1274 L 360 1257 L 360 500 C 360 433 365 372 377 318 C 389 263 408 216 436 178 C 464 139 500 109 545 88 C 590 67 646 57 713 57 C 778 57 834 67 882 88 C 929 109 968 139 998 177 C 1028 215 1051 262 1065 316 C 1079 370 1087 430 1087 496 L 1087 1245 L 928 1274 L 928 1319 L 1325 1319 L 1325 1274 Z M 985 1403 L 955 1382 L 717 1630 L 477 1382 L 449 1403 L 705 1798 L 729 1798 L 985 1403 Z" unicode="" />
<glyph horiz-adv-x="1348" d="M 1325 1274 L 1165 1245 L 1165 477 C 1165 403 1155 335 1136 273 C 1116 211 1087 158 1047 113 C 1007 68 957 33 897 8 C 837 -16 766 -29 684 -29 C 604 -29 534 -17 474 6 C 414 30 363 63 323 107 C 283 151 252 204 232 266 C 211 328 201 399 201 477 L 201 1257 L 41 1274 L 41 1319 L 520 1319 L 520 1274 L 360 1257 L 360 500 C 360 433 365 372 377 318 C 389 263 408 216 436 178 C 464 139 500 109 545 88 C 590 67 646 57 713 57 C 778 57 834 67 882 88 C 929 109 968 139 998 177 C 1028 215 1051 262 1065 316 C 1079 370 1087 430 1087 496 L 1087 1245 L 928 1274 L 928 1319 L 1325 1319 L 1325 1274 Z M 979 1552 C 979 1527 970 1506 952 1488 C 934 1470 913 1462 889 1462 C 864 1462 843 1470 825 1488 C 807 1506 799 1527 799 1552 C 799 1576 807 1597 825 1615 C 843 1633 864 1642 889 1642 C 913 1642 934 1633 952 1615 C 970 1597 979 1576 979 1552 Z M 635 1552 C 635 1527 626 1506 608 1488 C 590 1470 569 1462 545 1462 C 520 1462 499 1470 481 1488 C 463 1506 455 1527 455 1552 C 455 1576 463 1597 481 1615 C 499 1633 520 1642 545 1642 C 569 1642 590 1633 608 1615 C 626 1597 635 1576 635 1552 Z" unicode="" />
<glyph horiz-adv-x="1151" d="M 1143 1274 L 1032 1253 L 659 561 L 659 61 L 831 45 L 831 0 L 328 0 L 328 45 L 500 61 L 500 545 L 119 1253 L 8 1274 L 8 1319 L 471 1319 L 471 1274 L 299 1257 L 623 637 L 946 1257 L 774 1274 L 774 1319 L 1143 1319 L 1143 1274 Z M 801 1706 L 476 1391 L 447 1413 L 693 1796 L 801 1706 Z" unicode="" />
<glyph horiz-adv-x="1036" d="M 1004 733 C 1004 671 993 615 971 564 C 949 513 917 469 875 433 C 833 396 780 367 718 347 C 656 327 584 317 504 317 C 497 317 489 317 480 318 C 471 318 462 319 453 321 C 443 322 434 323 426 325 C 418 327 411 328 406 330 L 406 61 L 586 45 L 586 0 L 86 0 L 86 45 L 246 61 L 246 1257 L 86 1274 L 86 1319 L 565 1319 L 565 1274 L 406 1257 L 406 1065 L 575 1065 C 636 1065 693 1057 745 1042 C 797 1026 843 1004 881 976 C 919 947 949 912 971 871 C 993 830 1004 784 1004 733 Z M 836 717 C 836 763 828 804 814 840 C 799 876 778 906 751 931 C 724 956 692 975 654 988 C 616 1001 573 1008 526 1008 C 501 1008 478 1007 456 1005 C 434 1003 418 1001 406 999 L 406 391 C 414 389 423 387 433 385 C 443 383 454 382 464 381 C 474 380 484 379 493 379 C 501 379 508 379 514 379 C 572 379 622 388 663 407 C 703 425 736 450 762 482 C 788 513 806 549 818 590 C 830 630 836 673 836 717 Z" unicode="" />
<glyph horiz-adv-x="1069" d="M 1040 207 C 1040 169 1033 135 1019 105 C 1005 75 986 50 962 30 C 937 9 908 -6 874 -17 C 840 -27 802 -33 762 -33 C 736 -33 709 -31 682 -27 C 655 -23 629 -18 605 -11 C 581 -4 558 3 537 13 C 515 22 497 33 483 45 L 477 246 L 512 252 C 520 214 530 180 542 151 C 554 121 569 97 588 77 C 606 57 629 41 655 31 C 681 21 713 16 750 16 C 795 16 831 29 859 55 C 887 81 901 120 901 174 C 901 198 895 220 885 241 C 874 262 860 282 842 301 C 824 320 803 339 780 357 C 757 375 733 393 709 412 C 683 430 658 450 634 470 C 610 490 588 511 569 534 C 549 557 534 582 522 608 C 510 634 504 664 504 696 C 504 728 509 757 521 783 C 533 809 549 834 570 856 C 590 878 615 898 643 916 C 671 934 701 950 733 965 C 737 975 740 989 742 1007 C 744 1025 745 1043 747 1063 C 748 1083 749 1102 749 1121 C 749 1139 750 1155 750 1167 C 750 1201 745 1234 737 1266 C 729 1298 716 1326 699 1350 C 682 1374 661 1394 636 1409 C 610 1424 581 1432 547 1432 C 513 1432 482 1424 455 1409 C 427 1393 404 1370 385 1340 C 365 1310 350 1272 340 1227 C 329 1182 324 1130 324 1071 L 324 0 L 43 0 L 43 37 L 176 53 L 176 786 L 43 786 L 43 823 L 176 866 L 176 1028 C 176 1093 185 1153 203 1209 C 221 1264 248 1312 282 1352 C 316 1392 356 1423 404 1445 C 452 1467 505 1479 563 1479 C 611 1479 654 1471 694 1455 C 734 1439 768 1417 797 1389 C 826 1361 849 1329 865 1291 C 881 1253 889 1213 889 1171 C 889 1159 888 1144 888 1127 C 887 1109 886 1092 884 1074 C 882 1056 880 1038 878 1022 C 875 1005 872 991 868 979 C 839 969 811 956 784 941 C 757 926 733 908 712 888 C 691 868 674 845 662 821 C 649 796 643 769 643 741 C 643 716 647 693 657 673 C 666 653 679 633 695 615 C 711 597 729 579 749 562 C 769 545 791 528 813 512 C 840 491 867 470 894 449 C 921 427 945 404 967 380 C 989 356 1006 329 1020 301 C 1033 273 1040 241 1040 207 Z" unicode="" />
<glyph horiz-adv-x="842" d="M 866 72 C 858 60 849 49 837 38 C 825 26 811 16 796 7 C 780 -2 764 -10 746 -16 C 728 -22 710 -25 692 -25 C 654 -25 622 -13 596 10 C 570 34 552 63 543 98 C 527 82 510 66 490 52 C 470 37 450 24 429 13 C 408 1 387 -7 365 -14 C 343 -21 321 -25 301 -25 C 266 -25 234 -19 204 -8 C 174 2 149 17 127 37 C 105 57 87 80 75 108 C 63 136 57 167 57 201 C 57 239 64 273 79 302 C 93 330 113 355 138 376 C 163 396 192 413 226 426 C 260 439 296 449 334 457 L 532 494 L 532 647 C 532 702 519 744 495 772 C 470 800 429 815 371 815 C 323 815 279 800 240 772 C 201 743 168 705 141 659 L 94 698 C 130 756 173 801 223 835 C 273 868 333 885 401 885 C 494 885 564 865 610 825 C 656 785 680 727 680 653 L 680 195 C 680 167 682 144 687 126 C 691 108 698 95 706 85 C 714 75 723 68 734 64 C 744 60 756 59 768 59 C 784 59 800 62 814 70 C 828 77 840 86 850 98 L 866 72 Z M 532 145 L 532 446 L 391 420 C 364 414 339 407 316 397 C 292 387 272 374 255 358 C 237 342 224 324 214 302 C 204 280 199 254 199 225 C 199 200 202 177 210 157 C 218 137 228 119 242 105 C 256 90 272 79 291 71 C 310 63 331 59 354 59 C 386 59 418 67 450 83 C 482 99 509 120 532 145 Z M 533 983 L 504 961 L 179 1276 L 287 1366 L 533 983 Z" unicode="" />
<glyph horiz-adv-x="842" d="M 866 72 C 858 60 849 49 837 38 C 825 26 811 16 796 7 C 780 -2 764 -10 746 -16 C 728 -22 710 -25 692 -25 C 654 -25 622 -13 596 10 C 570 34 552 63 543 98 C 527 82 510 66 490 52 C 470 37 450 24 429 13 C 408 1 387 -7 365 -14 C 343 -21 321 -25 301 -25 C 266 -25 234 -19 204 -8 C 174 2 149 17 127 37 C 105 57 87 80 75 108 C 63 136 57 167 57 201 C 57 239 64 273 79 302 C 93 330 113 355 138 376 C 163 396 192 413 226 426 C 260 439 296 449 334 457 L 532 494 L 532 647 C 532 702 519 744 495 772 C 470 800 429 815 371 815 C 323 815 279 800 240 772 C 201 743 168 705 141 659 L 94 698 C 130 756 173 801 223 835 C 273 868 333 885 401 885 C 494 885 564 865 610 825 C 656 785 680 727 680 653 L 680 195 C 680 167 682 144 687 126 C 691 108 698 95 706 85 C 714 75 723 68 734 64 C 744 60 756 59 768 59 C 784 59 800 62 814 70 C 828 77 840 86 850 98 L 866 72 Z M 532 145 L 532 446 L 391 420 C 364 414 339 407 316 397 C 292 387 272 374 255 358 C 237 342 224 324 214 302 C 204 280 199 254 199 225 C 199 200 202 177 210 157 C 218 137 228 119 242 105 C 256 90 272 79 291 71 C 310 63 331 59 354 59 C 386 59 418 67 450 83 C 482 99 509 120 532 145 Z M 648 1276 L 323 961 L 294 983 L 540 1366 L 648 1276 Z" unicode="" />
<glyph horiz-adv-x="842" d="M 866 72 C 858 60 849 49 837 38 C 825 26 811 16 796 7 C 780 -2 764 -10 746 -16 C 728 -22 710 -25 692 -25 C 654 -25 622 -13 596 10 C 570 34 552 63 543 98 C 527 82 510 66 490 52 C 470 37 450 24 429 13 C 408 1 387 -7 365 -14 C 343 -21 321 -25 301 -25 C 266 -25 234 -19 204 -8 C 174 2 149 17 127 37 C 105 57 87 80 75 108 C 63 136 57 167 57 201 C 57 239 64 273 79 302 C 93 330 113 355 138 376 C 163 396 192 413 226 426 C 260 439 296 449 334 457 L 532 494 L 532 647 C 532 702 519 744 495 772 C 470 800 429 815 371 815 C 323 815 279 800 240 772 C 201 743 168 705 141 659 L 94 698 C 130 756 173 801 223 835 C 273 868 333 885 401 885 C 494 885 564 865 610 825 C 656 785 680 727 680 653 L 680 195 C 680 167 682 144 687 126 C 691 108 698 95 706 85 C 714 75 723 68 734 64 C 744 60 756 59 768 59 C 784 59 800 62 814 70 C 828 77 840 86 850 98 L 866 72 Z M 532 145 L 532 446 L 391 420 C 364 414 339 407 316 397 C 292 387 272 374 255 358 C 237 342 224 324 214 302 C 204 280 199 254 199 225 C 199 200 202 177 210 157 C 218 137 228 119 242 105 C 256 90 272 79 291 71 C 310 63 331 59 354 59 C 386 59 418 67 450 83 C 482 99 509 120 532 145 Z M 675 973 L 645 952 L 407 1200 L 167 952 L 139 973 L 395 1368 L 419 1368 L 675 973 Z" unicode="" />
<glyph horiz-adv-x="842" d="M 866 72 C 858 60 849 49 837 38 C 825 26 811 16 796 7 C 780 -2 764 -10 746 -16 C 728 -22 710 -25 692 -25 C 654 -25 622 -13 596 10 C 570 34 552 63 543 98 C 527 82 510 66 490 52 C 470 37 450 24 429 13 C 408 1 387 -7 365 -14 C 343 -21 321 -25 301 -25 C 266 -25 234 -19 204 -8 C 174 2 149 17 127 37 C 105 57 87 80 75 108 C 63 136 57 167 57 201 C 57 239 64 273 79 302 C 93 330 113 355 138 376 C 163 396 192 413 226 426 C 260 439 296 449 334 457 L 532 494 L 532 647 C 532 702 519 744 495 772 C 470 800 429 815 371 815 C 323 815 279 800 240 772 C 201 743 168 705 141 659 L 94 698 C 130 756 173 801 223 835 C 273 868 333 885 401 885 C 494 885 564 865 610 825 C 656 785 680 727 680 653 L 680 195 C 680 167 682 144 687 126 C 691 108 698 95 706 85 C 714 75 723 68 734 64 C 744 60 756 59 768 59 C 784 59 800 62 814 70 C 828 77 840 86 850 98 L 866 72 Z M 532 145 L 532 446 L 391 420 C 364 414 339 407 316 397 C 292 387 272 374 255 358 C 237 342 224 324 214 302 C 204 280 199 254 199 225 C 199 200 202 177 210 157 C 218 137 228 119 242 105 C 256 90 272 79 291 71 C 310 63 331 59 354 59 C 386 59 418 67 450 83 C 482 99 509 120 532 145 Z M 731 1221 C 723 1200 712 1178 698 1154 C 684 1130 669 1107 652 1087 C 634 1067 615 1050 595 1036 C 574 1022 552 1016 530 1016 C 509 1016 487 1022 463 1034 C 439 1046 414 1060 389 1074 C 364 1088 340 1102 316 1114 C 292 1126 269 1133 249 1133 C 233 1133 218 1129 205 1123 C 192 1116 180 1107 170 1097 C 160 1086 150 1074 142 1061 C 134 1048 126 1036 118 1024 L 83 1042 C 91 1062 101 1084 115 1108 C 129 1132 144 1154 162 1175 C 179 1195 198 1212 219 1226 C 239 1240 261 1247 284 1247 C 304 1247 327 1240 351 1228 C 375 1216 399 1202 424 1188 C 449 1174 474 1160 498 1148 C 522 1136 544 1130 565 1130 C 581 1130 595 1133 608 1140 C 621 1146 633 1155 643 1166 C 653 1176 663 1188 671 1201 C 679 1214 688 1227 696 1239 L 731 1221 Z" unicode="" />
<glyph horiz-adv-x="842" d="M 866 72 C 858 60 849 49 837 38 C 825 26 811 16 796 7 C 780 -2 764 -10 746 -16 C 728 -22 710 -25 692 -25 C 654 -25 622 -13 596 10 C 570 34 552 63 543 98 C 527 82 510 66 490 52 C 470 37 450 24 429 13 C 408 1 387 -7 365 -14 C 343 -21 321 -25 301 -25 C 266 -25 234 -19 204 -8 C 174 2 149 17 127 37 C 105 57 87 80 75 108 C 63 136 57 167 57 201 C 57 239 64 273 79 302 C 93 330 113 355 138 376 C 163 396 192 413 226 426 C 260 439 296 449 334 457 L 532 494 L 532 647 C 532 702 519 744 495 772 C 470 800 429 815 371 815 C 323 815 279 800 240 772 C 201 743 168 705 141 659 L 94 698 C 130 756 173 801 223 835 C 273 868 333 885 401 885 C 494 885 564 865 610 825 C 656 785 680 727 680 653 L 680 195 C 680 167 682 144 687 126 C 691 108 698 95 706 85 C 714 75 723 68 734 64 C 744 60 756 59 768 59 C 784 59 800 62 814 70 C 828 77 840 86 850 98 L 866 72 Z M 532 145 L 532 446 L 391 420 C 364 414 339 407 316 397 C 292 387 272 374 255 358 C 237 342 224 324 214 302 C 204 280 199 254 199 225 C 199 200 202 177 210 157 C 218 137 228 119 242 105 C 256 90 272 79 291 71 C 310 63 331 59 354 59 C 386 59 418 67 450 83 C 482 99 509 120 532 145 Z M 669 1122 C 669 1097 660 1076 642 1058 C 624 1040 603 1032 579 1032 C 554 1032 533 1040 515 1058 C 497 1076 489 1097 489 1122 C 489 1146 497 1167 515 1185 C 533 1203 554 1212 579 1212 C 603 1212 624 1203 642 1185 C 660 1167 669 1146 669 1122 Z M 325 1122 C 325 1097 316 1076 298 1058 C 280 1040 259 1032 235 1032 C 210 1032 189 1040 171 1058 C 153 1076 145 1097 145 1122 C 145 1146 153 1167 171 1185 C 189 1203 210 1212 235 1212 C 259 1212 280 1203 298 1185 C 316 1167 325 1146 325 1122 Z" unicode="" />
<glyph horiz-adv-x="842" d="M 866 72 C 858 60 849 49 837 38 C 825 26 811 16 796 7 C 780 -2 764 -10 746 -16 C 728 -22 710 -25 692 -25 C 654 -25 622 -13 596 10 C 570 34 552 63 543 98 C 527 82 510 66 490 52 C 470 37 450 24 429 13 C 408 1 387 -7 365 -14 C 343 -21 321 -25 301 -25 C 266 -25 234 -19 204 -8 C 174 2 149 17 127 37 C 105 57 87 80 75 108 C 63 136 57 167 57 201 C 57 239 64 273 79 302 C 93 330 113 355 138 376 C 163 396 192 413 226 426 C 260 439 296 449 334 457 L 532 494 L 532 647 C 532 702 519 744 495 772 C 470 800 429 815 371 815 C 323 815 279 800 240 772 C 201 743 168 705 141 659 L 94 698 C 130 756 173 801 223 835 C 273 868 333 885 401 885 C 494 885 564 865 610 825 C 656 785 680 727 680 653 L 680 195 C 680 167 682 144 687 126 C 691 108 698 95 706 85 C 714 75 723 68 734 64 C 744 60 756 59 768 59 C 784 59 800 62 814 70 C 828 77 840 86 850 98 L 866 72 Z M 532 145 L 532 446 L 391 420 C 364 414 339 407 316 397 C 292 387 272 374 255 358 C 237 342 224 324 214 302 C 204 280 199 254 199 225 C 199 200 202 177 210 157 C 218 137 228 119 242 105 C 256 90 272 79 291 71 C 310 63 331 59 354 59 C 386 59 418 67 450 83 C 482 99 509 120 532 145 Z M 611 1163 C 611 1135 605 1110 595 1087 C 584 1063 569 1043 551 1026 C 532 1009 510 996 485 987 C 459 977 432 973 404 973 C 375 973 348 977 323 987 C 297 996 275 1009 257 1026 C 238 1043 223 1063 213 1087 C 202 1110 197 1135 197 1163 C 197 1191 202 1216 213 1240 C 223 1263 238 1283 257 1300 C 275 1317 297 1330 323 1340 C 348 1349 375 1354 404 1354 C 432 1354 459 1349 485 1340 C 510 1330 532 1317 551 1300 C 569 1283 584 1263 595 1240 C 605 1216 611 1191 611 1163 Z M 513 1163 C 513 1181 510 1199 506 1216 C 502 1233 495 1248 486 1261 C 477 1274 466 1285 452 1293 C 438 1301 422 1305 404 1305 C 385 1305 369 1301 355 1293 C 341 1285 330 1274 321 1261 C 312 1248 305 1233 301 1216 C 297 1199 295 1181 295 1163 C 295 1145 297 1127 301 1110 C 305 1093 312 1078 321 1065 C 330 1052 341 1042 355 1034 C 369 1026 385 1022 404 1022 C 422 1022 438 1026 452 1034 C 466 1042 477 1052 486 1065 C 495 1078 502 1093 506 1110 C 510 1127 513 1145 513 1163 Z" unicode="" />
<glyph horiz-adv-x="1335" d="M 1278 504 L 686 504 C 684 495 684 485 684 475 C 684 465 684 457 684 451 C 684 391 691 336 705 287 C 719 237 739 195 765 160 C 790 124 820 97 855 78 C 889 58 927 49 969 49 C 1034 49 1087 60 1128 84 C 1168 108 1202 138 1229 176 L 1268 139 C 1257 123 1243 106 1225 87 C 1207 68 1184 50 1158 34 C 1131 17 1100 3 1064 -8 C 1028 -19 988 -25 942 -25 C 906 -25 871 -21 839 -13 C 807 -5 777 6 749 20 C 721 34 695 52 672 72 C 648 92 628 115 612 141 L 608 141 C 592 123 574 105 555 86 C 535 66 513 48 489 32 C 464 15 437 1 407 -9 C 377 -19 345 -25 309 -25 C 272 -25 238 -19 207 -9 C 176 1 149 16 127 36 C 105 56 87 79 75 107 C 63 135 57 166 57 201 C 57 239 64 273 79 302 C 93 330 113 355 138 376 C 163 396 192 413 226 426 C 260 439 296 449 334 457 L 532 494 L 532 647 C 532 702 519 744 495 772 C 470 800 429 815 371 815 C 323 815 279 800 240 772 C 201 743 168 705 141 659 L 94 698 C 130 756 173 801 223 835 C 273 868 333 885 401 885 C 537 885 621 841 651 754 C 684 796 726 828 777 851 C 827 873 881 885 938 885 C 992 885 1040 876 1082 860 C 1124 844 1160 821 1189 791 C 1218 761 1240 725 1255 683 C 1270 641 1278 594 1278 543 L 1278 504 Z M 1120 555 C 1120 588 1117 621 1112 655 C 1106 688 1096 718 1082 745 C 1068 772 1048 794 1023 811 C 998 827 966 836 926 836 C 896 836 868 829 842 815 C 816 801 793 781 773 756 C 752 731 735 701 721 667 C 707 633 698 595 692 555 L 1120 555 Z M 532 145 L 532 446 L 391 420 C 364 414 339 407 316 397 C 292 387 272 374 255 358 C 237 342 224 324 214 302 C 204 280 199 254 199 225 C 199 200 202 177 210 157 C 218 137 228 119 242 105 C 256 90 272 79 291 71 C 310 63 331 59 354 59 C 386 59 418 67 450 83 C 482 99 509 120 532 145 Z" unicode="" />
<glyph horiz-adv-x="840" d="M 408 -20 C 356 -12 309 3 265 29 C 221 54 184 86 152 126 C 120 165 94 211 76 263 C 58 315 49 372 49 434 C 49 502 60 564 84 620 C 108 676 139 723 179 762 C 218 801 263 831 313 853 C 363 874 415 885 469 885 C 518 885 562 881 600 873 C 638 865 675 849 711 827 L 735 881 L 774 881 L 762 629 L 721 629 C 709 691 683 740 642 776 C 600 812 547 831 481 831 C 439 831 402 822 369 804 C 335 786 307 760 284 726 C 260 692 242 652 230 604 C 217 556 211 503 211 444 C 211 387 218 334 233 286 C 248 238 269 196 295 161 C 321 126 351 99 385 79 C 419 59 456 49 496 49 C 528 49 558 52 584 58 C 610 64 633 73 654 85 C 675 96 694 109 711 125 C 727 140 742 157 756 176 L 795 139 C 784 123 769 106 751 87 C 733 68 710 50 684 34 C 657 17 626 3 590 -8 C 554 -19 514 -25 469 -25 L 465 -25 C 465 -25 464 -31 462 -43 C 460 -55 457 -68 454 -83 L 442 -141 C 460 -146 479 -153 499 -162 C 518 -170 536 -181 552 -195 C 568 -209 581 -225 591 -244 C 601 -263 606 -285 606 -311 C 606 -347 598 -378 584 -405 C 570 -432 550 -454 526 -472 C 502 -490 474 -503 442 -512 C 410 -521 376 -526 340 -526 C 319 -526 298 -523 277 -519 C 255 -514 235 -507 217 -498 L 238 -446 C 253 -454 270 -461 290 -465 C 310 -469 329 -471 348 -471 C 372 -471 392 -467 410 -461 C 427 -454 441 -445 453 -434 C 465 -422 473 -409 479 -394 C 484 -379 487 -363 487 -346 C 487 -313 473 -286 447 -264 C 420 -242 377 -224 317 -209 L 408 -20 Z" unicode="" />
<glyph horiz-adv-x="862" d="M 805 504 L 213 504 C 211 495 211 485 211 475 C 211 465 211 457 211 451 C 211 391 218 336 232 287 C 246 237 266 195 292 160 C 317 124 347 97 382 78 C 416 58 454 49 496 49 C 528 49 558 52 584 58 C 610 64 633 73 654 85 C 675 96 694 109 711 125 C 727 140 742 157 756 176 L 795 139 C 784 123 770 106 752 87 C 734 68 711 50 685 34 C 658 17 627 3 591 -8 C 555 -19 515 -25 469 -25 C 407 -25 351 -13 300 8 C 248 30 204 62 167 103 C 130 143 101 191 80 247 C 59 303 49 364 49 432 C 49 500 60 562 83 618 C 106 674 137 721 175 761 C 213 801 258 831 308 853 C 358 874 411 885 465 885 C 519 885 567 876 609 860 C 651 844 687 821 716 791 C 745 761 767 725 782 683 C 797 641 805 594 805 543 L 805 504 Z M 647 555 C 647 588 644 621 639 655 C 633 688 623 718 609 745 C 595 772 575 794 550 811 C 525 827 493 836 453 836 C 423 836 395 829 369 815 C 343 801 320 781 300 756 C 279 731 262 701 248 667 C 234 633 225 595 219 555 L 647 555 Z M 554 983 L 525 961 L 200 1276 L 308 1366 L 554 983 Z" unicode="" />
<glyph horiz-adv-x="862" d="M 805 504 L 213 504 C 211 495 211 485 211 475 C 211 465 211 457 211 451 C 211 391 218 336 232 287 C 246 237 266 195 292 160 C 317 124 347 97 382 78 C 416 58 454 49 496 49 C 528 49 558 52 584 58 C 610 64 633 73 654 85 C 675 96 694 109 711 125 C 727 140 742 157 756 176 L 795 139 C 784 123 770 106 752 87 C 734 68 711 50 685 34 C 658 17 627 3 591 -8 C 555 -19 515 -25 469 -25 C 407 -25 351 -13 300 8 C 248 30 204 62 167 103 C 130 143 101 191 80 247 C 59 303 49 364 49 432 C 49 500 60 562 83 618 C 106 674 137 721 175 761 C 213 801 258 831 308 853 C 358 874 411 885 465 885 C 519 885 567 876 609 860 C 651 844 687 821 716 791 C 745 761 767 725 782 683 C 797 641 805 594 805 543 L 805 504 Z M 647 555 C 647 588 644 621 639 655 C 633 688 623 718 609 745 C 595 772 575 794 550 811 C 525 827 493 836 453 836 C 423 836 395 829 369 815 C 343 801 320 781 300 756 C 279 731 262 701 248 667 C 234 633 225 595 219 555 L 647 555 Z M 697 1276 L 372 961 L 343 983 L 589 1366 L 697 1276 Z" unicode="" />
<glyph horiz-adv-x="862" d="M 805 504 L 213 504 C 211 495 211 485 211 475 C 211 465 211 457 211 451 C 211 391 218 336 232 287 C 246 237 266 195 292 160 C 317 124 347 97 382 78 C 416 58 454 49 496 49 C 528 49 558 52 584 58 C 610 64 633 73 654 85 C 675 96 694 109 711 125 C 727 140 742 157 756 176 L 795 139 C 784 123 770 106 752 87 C 734 68 711 50 685 34 C 658 17 627 3 591 -8 C 555 -19 515 -25 469 -25 C 407 -25 351 -13 300 8 C 248 30 204 62 167 103 C 130 143 101 191 80 247 C 59 303 49 364 49 432 C 49 500 60 562 83 618 C 106 674 137 721 175 761 C 213 801 258 831 308 853 C 358 874 411 885 465 885 C 519 885 567 876 609 860 C 651 844 687 821 716 791 C 745 761 767 725 782 683 C 797 641 805 594 805 543 L 805 504 Z M 647 555 C 647 588 644 621 639 655 C 633 688 623 718 609 745 C 595 772 575 794 550 811 C 525 827 493 836 453 836 C 423 836 395 829 369 815 C 343 801 320 781 300 756 C 279 731 262 701 248 667 C 234 633 225 595 219 555 L 647 555 Z M 715 973 L 685 952 L 447 1200 L 207 952 L 179 973 L 435 1368 L 459 1368 L 715 973 Z" unicode="" />
<glyph horiz-adv-x="862" d="M 805 504 L 213 504 C 211 495 211 485 211 475 C 211 465 211 457 211 451 C 211 391 218 336 232 287 C 246 237 266 195 292 160 C 317 124 347 97 382 78 C 416 58 454 49 496 49 C 528 49 558 52 584 58 C 610 64 633 73 654 85 C 675 96 694 109 711 125 C 727 140 742 157 756 176 L 795 139 C 784 123 770 106 752 87 C 734 68 711 50 685 34 C 658 17 627 3 591 -8 C 555 -19 515 -25 469 -25 C 407 -25 351 -13 300 8 C 248 30 204 62 167 103 C 130 143 101 191 80 247 C 59 303 49 364 49 432 C 49 500 60 562 83 618 C 106 674 137 721 175 761 C 213 801 258 831 308 853 C 358 874 411 885 465 885 C 519 885 567 876 609 860 C 651 844 687 821 716 791 C 745 761 767 725 782 683 C 797 641 805 594 805 543 L 805 504 Z M 647 555 C 647 588 644 621 639 655 C 633 688 623 718 609 745 C 595 772 575 794 550 811 C 525 827 493 836 453 836 C 423 836 395 829 369 815 C 343 801 320 781 300 756 C 279 731 262 701 248 667 C 234 633 225 595 219 555 L 647 555 Z M 712 1122 C 712 1097 703 1076 685 1058 C 667 1040 646 1032 622 1032 C 597 1032 576 1040 558 1058 C 540 1076 532 1097 532 1122 C 532 1146 540 1167 558 1185 C 576 1203 597 1212 622 1212 C 646 1212 667 1203 685 1185 C 703 1167 712 1146 712 1122 Z M 368 1122 C 368 1097 359 1076 341 1058 C 323 1040 302 1032 278 1032 C 253 1032 232 1040 214 1058 C 196 1076 188 1097 188 1122 C 188 1146 196 1167 214 1185 C 232 1203 253 1212 278 1212 C 302 1212 323 1203 341 1185 C 359 1167 368 1146 368 1122 Z" unicode="" />
<glyph horiz-adv-x="500" d="M 465 0 L 51 0 L 51 37 L 184 53 L 184 776 L 51 797 L 51 834 L 332 881 L 332 53 L 465 37 L 465 0 Z M 335 983 L 306 961 L -19 1276 L 89 1366 L 335 983 Z" unicode="" />
<glyph horiz-adv-x="500" d="M 465 0 L 51 0 L 51 37 L 184 53 L 184 776 L 51 797 L 51 834 L 332 881 L 332 53 L 465 37 L 465 0 Z M 507 1276 L 182 961 L 153 983 L 399 1366 L 507 1276 Z" unicode="" />
<glyph horiz-adv-x="500" d="M 465 0 L 51 0 L 51 37 L 184 53 L 184 776 L 51 797 L 51 834 L 332 881 L 332 53 L 465 37 L 465 0 Z M 509 973 L 479 952 L 241 1200 L 1 952 L -27 973 L 229 1368 L 253 1368 L 509 973 Z" unicode="" />
<glyph horiz-adv-x="500" d="M 479 1122 C 479 1097 470 1076 452 1058 C 434 1040 413 1032 389 1032 C 364 1032 343 1040 325 1058 C 307 1076 299 1097 299 1122 C 299 1146 307 1167 325 1185 C 343 1203 364 1212 389 1212 C 413 1212 434 1203 452 1185 C 470 1167 479 1146 479 1122 Z M 176 1122 C 176 1097 167 1076 149 1058 C 131 1040 110 1032 86 1032 C 61 1032 40 1040 22 1058 C 4 1076 -4 1097 -4 1122 C -4 1146 4 1167 22 1185 C 40 1203 61 1212 86 1212 C 110 1212 131 1203 149 1185 C 167 1167 176 1146 176 1122 Z M 465 0 L 51 0 L 51 37 L 184 53 L 184 776 L 51 797 L 51 834 L 332 881 L 332 53 L 465 37 L 465 0 Z" unicode="" />
<glyph horiz-adv-x="963" d="M 891 496 C 891 422 881 354 863 291 C 845 227 818 172 783 125 C 747 78 704 41 652 15 C 600 -11 541 -25 475 -25 C 414 -25 358 -13 307 8 C 255 30 211 62 173 102 C 135 142 106 190 85 246 C 63 302 53 363 53 430 C 53 495 63 555 85 611 C 106 667 135 715 172 755 C 209 795 253 827 304 850 C 354 873 409 885 469 885 C 501 885 533 880 567 872 C 600 863 632 848 662 827 L 664 829 C 649 883 629 934 603 984 C 577 1034 548 1082 514 1130 L 248 1012 L 223 1065 L 477 1180 C 442 1224 403 1265 360 1305 C 316 1345 270 1383 221 1419 L 289 1442 C 340 1412 390 1379 438 1343 C 486 1307 531 1267 575 1223 L 813 1331 L 838 1276 L 618 1178 C 658 1132 695 1082 729 1030 C 762 978 791 923 815 866 C 839 808 857 749 871 687 C 884 625 891 561 891 496 Z M 729 449 C 729 514 722 571 709 620 C 696 668 678 709 655 741 C 632 773 605 796 575 812 C 544 828 511 836 475 836 C 437 836 402 827 370 810 C 338 792 311 767 289 733 C 266 699 248 656 236 606 C 223 555 217 496 217 430 C 217 363 223 304 236 254 C 248 204 266 162 289 128 C 311 94 338 68 370 51 C 402 33 437 25 475 25 C 515 25 551 35 583 56 C 615 76 641 105 663 143 C 685 180 701 225 712 277 C 723 329 729 386 729 449 Z" unicode="" />
<glyph horiz-adv-x="1036" d="M 1016 0 L 588 0 L 588 37 L 735 53 L 735 737 C 725 761 707 780 681 794 C 655 808 624 815 588 815 C 546 815 510 805 478 785 C 446 765 419 739 397 705 C 375 671 358 631 347 586 C 335 541 330 494 330 444 L 330 53 L 477 37 L 477 0 L 49 0 L 49 37 L 182 53 L 182 772 L 49 797 L 49 834 L 322 877 L 322 655 L 324 655 C 349 728 387 785 439 825 C 490 865 552 885 625 885 C 664 885 699 878 731 865 C 763 851 790 832 813 808 C 835 784 853 755 865 721 C 877 687 883 650 883 610 L 883 53 L 1016 37 L 1016 0 Z M 846 1221 C 838 1200 827 1178 813 1154 C 799 1130 784 1107 767 1087 C 749 1067 730 1050 710 1036 C 689 1022 667 1016 645 1016 C 624 1016 602 1022 578 1034 C 554 1046 529 1060 504 1074 C 479 1088 455 1102 431 1114 C 407 1126 384 1133 364 1133 C 348 1133 333 1129 320 1123 C 307 1116 295 1107 285 1097 C 275 1086 265 1074 257 1061 C 249 1048 241 1036 233 1024 L 198 1042 C 206 1062 216 1084 230 1108 C 244 1132 259 1154 277 1175 C 294 1195 313 1212 334 1226 C 354 1240 376 1247 399 1247 C 419 1247 442 1240 466 1228 C 490 1216 514 1202 539 1188 C 564 1174 589 1160 613 1148 C 637 1136 659 1130 680 1130 C 696 1130 710 1133 723 1140 C 736 1146 748 1155 758 1166 C 768 1176 778 1188 786 1201 C 794 1214 803 1227 811 1239 L 846 1221 Z" unicode="" />
<glyph horiz-adv-x="942" d="M 893 430 C 893 362 882 301 860 245 C 838 189 808 141 770 101 C 732 61 687 30 636 8 C 584 -14 529 -25 471 -25 C 412 -25 357 -14 306 8 C 254 30 210 61 172 101 C 134 141 104 189 82 245 C 60 301 49 362 49 430 C 49 497 60 559 82 615 C 104 671 134 719 172 759 C 210 799 254 830 306 852 C 357 874 412 885 471 885 C 529 885 584 874 636 852 C 687 830 732 799 770 759 C 808 719 838 671 860 615 C 882 559 893 497 893 430 Z M 729 430 C 729 492 723 549 711 599 C 699 649 682 691 660 726 C 638 761 611 788 579 807 C 547 826 511 836 471 836 C 431 836 395 826 363 807 C 331 788 304 761 282 726 C 260 691 243 649 231 599 C 219 549 213 492 213 430 C 213 367 219 311 231 261 C 243 211 260 168 282 133 C 304 98 331 71 363 53 C 395 34 431 25 471 25 C 511 25 547 34 579 53 C 611 71 638 98 660 133 C 682 168 699 211 711 261 C 723 311 729 367 729 430 Z M 597 983 L 568 961 L 243 1276 L 351 1366 L 597 983 Z" unicode="" />
<glyph horiz-adv-x="942" d="M 893 430 C 893 362 882 301 860 245 C 838 189 808 141 770 101 C 732 61 687 30 636 8 C 584 -14 529 -25 471 -25 C 412 -25 357 -14 306 8 C 254 30 210 61 172 101 C 134 141 104 189 82 245 C 60 301 49 362 49 430 C 49 497 60 559 82 615 C 104 671 134 719 172 759 C 210 799 254 830 306 852 C 357 874 412 885 471 885 C 529 885 584 874 636 852 C 687 830 732 799 770 759 C 808 719 838 671 860 615 C 882 559 893 497 893 430 Z M 729 430 C 729 492 723 549 711 599 C 699 649 682 691 660 726 C 638 761 611 788 579 807 C 547 826 511 836 471 836 C 431 836 395 826 363 807 C 331 788 304 761 282 726 C 260 691 243 649 231 599 C 219 549 213 492 213 430 C 213 367 219 311 231 261 C 243 211 260 168 282 133 C 304 98 331 71 363 53 C 395 34 431 25 471 25 C 511 25 547 34 579 53 C 611 71 638 98 660 133 C 682 168 699 211 711 261 C 723 311 729 367 729 430 Z M 701 1276 L 376 961 L 347 983 L 593 1366 L 701 1276 Z" unicode="" />
<glyph horiz-adv-x="942" d="M 893 430 C 893 362 882 301 860 245 C 838 189 808 141 770 101 C 732 61 687 30 636 8 C 584 -14 529 -25 471 -25 C 412 -25 357 -14 306 8 C 254 30 210 61 172 101 C 134 141 104 189 82 245 C 60 301 49 362 49 430 C 49 497 60 559 82 615 C 104 671 134 719 172 759 C 210 799 254 830 306 852 C 357 874 412 885 471 885 C 529 885 584 874 636 852 C 687 830 732 799 770 759 C 808 719 838 671 860 615 C 882 559 893 497 893 430 Z M 729 430 C 729 492 723 549 711 599 C 699 649 682 691 660 726 C 638 761 611 788 579 807 C 547 826 511 836 471 836 C 431 836 395 826 363 807 C 331 788 304 761 282 726 C 260 691 243 649 231 599 C 219 549 213 492 213 430 C 213 367 219 311 231 261 C 243 211 260 168 282 133 C 304 98 331 71 363 53 C 395 34 431 25 471 25 C 511 25 547 34 579 53 C 611 71 638 98 660 133 C 682 168 699 211 711 261 C 723 311 729 367 729 430 Z M 740 973 L 710 952 L 472 1200 L 232 952 L 204 973 L 460 1368 L 484 1368 L 740 973 Z" unicode="" />
<glyph horiz-adv-x="942" d="M 893 430 C 893 362 882 301 860 245 C 838 189 808 141 770 101 C 732 61 687 30 636 8 C 584 -14 529 -25 471 -25 C 412 -25 357 -14 306 8 C 254 30 210 61 172 101 C 134 141 104 189 82 245 C 60 301 49 362 49 430 C 49 497 60 559 82 615 C 104 671 134 719 172 759 C 210 799 254 830 306 852 C 357 874 412 885 471 885 C 529 885 584 874 636 852 C 687 830 732 799 770 759 C 808 719 838 671 860 615 C 882 559 893 497 893 430 Z M 729 430 C 729 492 723 549 711 599 C 699 649 682 691 660 726 C 638 761 611 788 579 807 C 547 826 511 836 471 836 C 431 836 395 826 363 807 C 331 788 304 761 282 726 C 260 691 243 649 231 599 C 219 549 213 492 213 430 C 213 367 219 311 231 261 C 243 211 260 168 282 133 C 304 98 331 71 363 53 C 395 34 431 25 471 25 C 511 25 547 34 579 53 C 611 71 638 98 660 133 C 682 168 699 211 711 261 C 723 311 729 367 729 430 Z M 796 1221 C 788 1200 777 1178 763 1154 C 749 1130 734 1107 717 1087 C 699 1067 680 1050 660 1036 C 639 1022 617 1016 595 1016 C 574 1016 552 1022 528 1034 C 504 1046 479 1060 454 1074 C 429 1088 405 1102 381 1114 C 357 1126 334 1133 314 1133 C 298 1133 283 1129 270 1123 C 257 1116 245 1107 235 1097 C 225 1086 215 1074 207 1061 C 199 1048 191 1036 183 1024 L 148 1042 C 156 1062 166 1084 180 1108 C 194 1132 209 1154 227 1175 C 244 1195 263 1212 284 1226 C 304 1240 326 1247 349 1247 C 369 1247 392 1240 416 1228 C 440 1216 464 1202 489 1188 C 514 1174 539 1160 563 1148 C 587 1136 609 1130 630 1130 C 646 1130 660 1133 673 1140 C 686 1146 698 1155 708 1166 C 718 1176 728 1188 736 1201 C 744 1214 753 1227 761 1239 L 796 1221 Z" unicode="" />
<glyph horiz-adv-x="942" d="M 893 430 C 893 362 882 301 860 245 C 838 189 808 141 770 101 C 732 61 687 30 636 8 C 584 -14 529 -25 471 -25 C 412 -25 357 -14 306 8 C 254 30 210 61 172 101 C 134 141 104 189 82 245 C 60 301 49 362 49 430 C 49 497 60 559 82 615 C 104 671 134 719 172 759 C 210 799 254 830 306 852 C 357 874 412 885 471 885 C 529 885 584 874 636 852 C 687 830 732 799 770 759 C 808 719 838 671 860 615 C 882 559 893 497 893 430 Z M 729 430 C 729 492 723 549 711 599 C 699 649 682 691 660 726 C 638 761 611 788 579 807 C 547 826 511 836 471 836 C 431 836 395 826 363 807 C 331 788 304 761 282 726 C 260 691 243 649 231 599 C 219 549 213 492 213 430 C 213 367 219 311 231 261 C 243 211 260 168 282 133 C 304 98 331 71 363 53 C 395 34 431 25 471 25 C 511 25 547 34 579 53 C 611 71 638 98 660 133 C 682 168 699 211 711 261 C 723 311 729 367 729 430 Z M 734 1122 C 734 1097 725 1076 707 1058 C 689 1040 668 1032 644 1032 C 619 1032 598 1040 580 1058 C 562 1076 554 1097 554 1122 C 554 1146 562 1167 580 1185 C 598 1203 619 1212 644 1212 C 668 1212 689 1203 707 1185 C 725 1167 734 1146 734 1122 Z M 390 1122 C 390 1097 381 1076 363 1058 C 345 1040 324 1032 300 1032 C 275 1032 254 1040 236 1058 C 218 1076 210 1097 210 1122 C 210 1146 218 1167 236 1185 C 254 1203 275 1212 300 1212 C 324 1212 345 1203 363 1185 C 381 1167 390 1146 390 1122 Z" unicode="" />
<glyph horiz-adv-x="1229" d="M 719 942 C 719 928 716 914 710 902 C 704 889 697 878 688 868 C 678 858 667 851 655 846 C 642 840 628 838 614 838 C 600 838 586 840 574 846 C 561 851 550 858 540 868 C 530 878 523 889 518 902 C 512 914 510 928 510 942 C 510 956 512 969 518 982 C 523 995 530 1006 540 1016 C 550 1025 561 1032 574 1038 C 586 1044 600 1047 614 1047 C 628 1047 642 1044 655 1038 C 667 1032 678 1025 688 1016 C 697 1006 704 995 710 982 C 716 969 719 956 719 942 Z M 1079 567 L 150 567 L 150 645 L 1079 645 L 1079 567 Z M 719 270 C 719 256 716 242 710 230 C 704 217 697 206 688 196 C 678 186 667 179 655 174 C 642 168 628 166 614 166 C 600 166 586 168 574 174 C 561 179 550 186 540 196 C 530 206 523 217 518 230 C 512 242 510 256 510 270 C 510 284 512 298 518 311 C 523 323 530 334 540 344 C 550 353 561 360 574 366 C 586 372 600 375 614 375 C 628 375 642 372 655 366 C 667 360 678 353 688 344 C 697 334 704 323 710 311 C 716 298 719 284 719 270 Z" unicode="" />
<glyph horiz-adv-x="942" d="M 893 430 C 893 362 882 301 860 245 C 838 189 808 141 770 101 C 732 61 687 30 636 8 C 584 -14 529 -25 471 -25 C 429 -25 390 -19 354 -8 C 318 2 284 17 252 37 L 166 -94 L 115 -61 L 203 72 C 155 112 118 162 90 224 C 62 285 49 354 49 430 C 49 497 60 559 82 615 C 104 671 134 719 172 759 C 210 799 254 830 306 852 C 357 874 412 885 471 885 C 512 885 551 879 587 868 C 623 857 658 842 690 823 L 776 954 L 827 922 L 739 788 C 787 748 824 697 852 636 C 879 575 893 506 893 430 Z M 643 750 C 621 778 596 799 567 814 C 538 828 506 836 471 836 C 431 836 395 826 363 807 C 331 788 304 761 282 726 C 260 691 243 649 231 599 C 219 549 213 492 213 430 C 213 376 217 327 225 283 C 233 239 245 200 262 166 L 643 750 Z M 729 430 C 729 484 725 533 717 577 C 709 621 696 660 680 694 L 299 111 C 343 53 400 25 471 25 C 511 25 547 34 579 53 C 611 71 638 98 660 133 C 682 168 699 211 711 261 C 723 311 729 367 729 430 Z" unicode="" />
<glyph horiz-adv-x="997" d="M 977 18 L 705 -20 L 705 205 L 702 205 C 676 131 638 75 587 35 C 535 -5 473 -25 401 -25 C 361 -25 326 -18 294 -5 C 262 8 235 27 213 51 C 190 75 173 104 161 138 C 149 172 143 209 143 250 L 143 791 L 10 815 L 10 852 L 291 852 L 291 131 C 301 104 318 83 343 68 C 368 52 400 45 438 45 C 478 45 515 54 547 74 C 579 94 606 121 628 155 C 650 189 666 228 678 273 C 690 318 696 366 696 416 L 696 791 L 549 815 L 549 852 L 844 852 L 844 74 L 977 51 L 977 18 Z M 645 983 L 616 961 L 291 1276 L 399 1366 L 645 983 Z" unicode="" />
<glyph horiz-adv-x="997" d="M 977 18 L 705 -20 L 705 205 L 702 205 C 676 131 638 75 587 35 C 535 -5 473 -25 401 -25 C 361 -25 326 -18 294 -5 C 262 8 235 27 213 51 C 190 75 173 104 161 138 C 149 172 143 209 143 250 L 143 791 L 10 815 L 10 852 L 291 852 L 291 131 C 301 104 318 83 343 68 C 368 52 400 45 438 45 C 478 45 515 54 547 74 C 579 94 606 121 628 155 C 650 189 666 228 678 273 C 690 318 696 366 696 416 L 696 791 L 549 815 L 549 852 L 844 852 L 844 74 L 977 51 L 977 18 Z M 703 1276 L 378 961 L 349 983 L 595 1366 L 703 1276 Z" unicode="" />
<glyph horiz-adv-x="997" d="M 977 18 L 705 -20 L 705 205 L 702 205 C 676 131 638 75 587 35 C 535 -5 473 -25 401 -25 C 361 -25 326 -18 294 -5 C 262 8 235 27 213 51 C 190 75 173 104 161 138 C 149 172 143 209 143 250 L 143 791 L 10 815 L 10 852 L 291 852 L 291 131 C 301 104 318 83 343 68 C 368 52 400 45 438 45 C 478 45 515 54 547 74 C 579 94 606 121 628 155 C 650 189 666 228 678 273 C 690 318 696 366 696 416 L 696 791 L 549 815 L 549 852 L 844 852 L 844 74 L 977 51 L 977 18 Z M 756 973 L 726 952 L 488 1200 L 248 952 L 220 973 L 476 1368 L 500 1368 L 756 973 Z" unicode="" />
<glyph horiz-adv-x="997" d="M 977 18 L 705 -20 L 705 205 L 702 205 C 676 131 638 75 587 35 C 535 -5 473 -25 401 -25 C 361 -25 326 -18 294 -5 C 262 8 235 27 213 51 C 190 75 173 104 161 138 C 149 172 143 209 143 250 L 143 791 L 10 815 L 10 852 L 291 852 L 291 131 C 301 104 318 83 343 68 C 368 52 400 45 438 45 C 478 45 515 54 547 74 C 579 94 606 121 628 155 C 650 189 666 228 678 273 C 690 318 696 366 696 416 L 696 791 L 549 815 L 549 852 L 844 852 L 844 74 L 977 51 L 977 18 Z M 757 1122 C 757 1097 748 1076 730 1058 C 712 1040 691 1032 667 1032 C 642 1032 621 1040 603 1058 C 585 1076 577 1097 577 1122 C 577 1146 585 1167 603 1185 C 621 1203 642 1212 667 1212 C 691 1212 712 1203 730 1185 C 748 1167 757 1146 757 1122 Z M 413 1122 C 413 1097 404 1076 386 1058 C 368 1040 347 1032 323 1032 C 298 1032 277 1040 259 1058 C 241 1076 233 1097 233 1122 C 233 1146 241 1167 259 1185 C 277 1203 298 1212 323 1212 C 347 1212 368 1203 386 1185 C 404 1167 413 1146 413 1122 Z" unicode="" />
<glyph horiz-adv-x="901" d="M 897 815 L 801 791 L 479 -20 L 303 -532 L 160 -532 L 416 -4 L 100 795 L 4 815 L 4 852 L 399 852 L 399 815 L 256 799 L 492 176 L 727 795 L 584 815 L 584 852 L 897 852 L 897 815 Z M 716 1276 L 391 961 L 362 983 L 608 1366 L 716 1276 Z" unicode="" />
<glyph horiz-adv-x="956" d="M 907 459 C 907 389 896 324 874 265 C 852 205 823 154 785 111 C 747 68 702 35 650 11 C 598 -13 543 -25 483 -25 C 437 -25 397 -19 365 -9 C 332 0 304 14 281 31 L 281 -471 L 469 -487 L 469 -524 L 0 -524 L 0 -487 L 133 -471 L 133 1343 L 0 1366 L 0 1403 L 281 1442 L 281 748 C 294 768 310 786 329 803 C 347 819 368 834 391 846 C 414 858 439 867 467 874 C 494 881 523 885 553 885 C 597 885 641 875 684 857 C 726 838 764 811 797 775 C 830 739 857 694 877 641 C 897 588 907 527 907 459 Z M 750 449 C 750 502 744 551 734 596 C 724 640 708 679 688 712 C 667 744 641 770 611 788 C 581 806 546 815 506 815 C 452 815 405 800 367 771 C 329 742 300 705 281 659 L 281 106 C 291 94 304 83 318 74 C 332 65 348 57 364 51 C 380 44 397 39 414 36 C 431 32 448 31 465 31 C 515 31 558 43 594 67 C 630 91 659 123 682 163 C 705 202 722 247 733 297 C 744 347 750 397 750 449 Z" unicode="" />
<glyph horiz-adv-x="901" d="M 897 815 L 801 791 L 479 -20 L 303 -532 L 160 -532 L 416 -4 L 100 795 L 4 815 L 4 852 L 399 852 L 399 815 L 256 799 L 492 176 L 727 795 L 584 815 L 584 852 L 897 852 L 897 815 Z M 746 1122 C 746 1097 737 1076 719 1058 C 701 1040 680 1032 656 1032 C 631 1032 610 1040 592 1058 C 574 1076 566 1097 566 1122 C 566 1146 574 1167 592 1185 C 610 1203 631 1212 656 1212 C 680 1212 701 1203 719 1185 C 737 1167 746 1146 746 1122 Z M 402 1122 C 402 1097 393 1076 375 1058 C 357 1040 336 1032 312 1032 C 287 1032 266 1040 248 1058 C 230 1076 222 1097 222 1122 C 222 1146 230 1167 248 1185 C 266 1203 287 1212 312 1212 C 336 1212 357 1203 375 1185 C 393 1167 402 1146 402 1122 Z" unicode="" />
<glyph horiz-adv-x="500" d="M 465 0 L 51 0 L 51 37 L 184 53 L 184 776 L 51 797 L 51 834 L 332 881 L 332 53 L 465 37 L 465 0 Z" unicode="" />
<glyph horiz-adv-x="1036" d="M 983 0 L 86 0 L 86 45 L 246 61 L 246 578 L 86 496 L 86 569 L 246 651 L 246 1257 L 86 1274 L 86 1319 L 586 1319 L 586 1274 L 406 1257 L 406 733 L 702 887 L 702 813 L 406 659 L 406 70 L 893 70 L 924 311 L 983 311 L 983 0 Z" unicode="" />
<glyph horiz-adv-x="561" d="M 545 813 L 362 719 L 362 53 L 496 37 L 496 0 L 82 0 L 82 37 L 215 53 L 215 641 L 57 559 L 57 631 L 215 713 L 215 1343 L 82 1366 L 82 1403 L 362 1442 L 362 791 L 545 885 L 545 813 Z" unicode="" />
<glyph horiz-adv-x="1747" d="M 1657 0 L 879 0 C 849 -5 818 -9 786 -12 C 753 -14 721 -16 690 -16 C 596 -16 510 1 432 35 C 354 69 288 117 233 177 C 177 237 134 309 104 391 C 74 473 59 563 59 659 C 59 755 74 844 104 927 C 134 1009 177 1081 233 1141 C 288 1201 354 1249 432 1283 C 510 1317 596 1335 690 1335 C 723 1335 755 1333 787 1331 C 819 1328 849 1324 877 1319 L 1628 1319 L 1628 1040 L 1571 1040 L 1542 1253 L 1063 1253 L 1063 719 L 1415 719 L 1436 860 L 1489 860 L 1489 512 L 1436 512 L 1415 653 L 1063 653 L 1063 70 L 1567 70 L 1595 299 L 1657 299 L 1657 0 Z M 903 104 L 903 1219 C 871 1238 836 1252 800 1260 C 764 1268 727 1272 690 1272 C 630 1272 573 1259 519 1235 C 465 1210 417 1172 376 1122 C 334 1072 301 1009 277 933 C 252 857 240 768 240 666 C 240 563 252 473 277 396 C 302 319 335 255 377 203 C 418 151 466 113 520 87 C 574 61 631 49 690 49 C 727 49 764 53 800 62 C 836 70 871 84 903 104 Z" unicode="" />
<glyph horiz-adv-x="1544" d="M 1487 504 L 895 504 C 893 495 893 485 893 475 C 893 465 893 457 893 451 C 893 391 900 336 914 287 C 928 237 948 195 974 160 C 999 124 1029 97 1064 78 C 1098 58 1136 49 1178 49 C 1210 49 1240 52 1266 58 C 1292 64 1315 73 1336 85 C 1357 96 1376 109 1393 125 C 1409 140 1424 157 1438 176 L 1477 139 C 1466 123 1452 106 1434 87 C 1416 68 1393 50 1367 34 C 1340 17 1309 3 1273 -8 C 1237 -19 1197 -25 1151 -25 C 1074 -25 1006 -8 947 25 C 888 59 843 106 811 166 C 777 106 731 59 671 25 C 611 -8 545 -25 471 -25 C 412 -25 357 -14 306 8 C 254 30 210 61 172 101 C 134 141 104 189 82 245 C 60 301 49 362 49 430 C 49 497 60 559 82 615 C 104 671 134 719 172 759 C 210 799 254 830 306 852 C 357 874 412 885 471 885 C 507 885 542 880 576 872 C 610 863 642 850 672 834 C 702 817 729 797 753 774 C 777 750 797 724 813 694 C 829 724 850 750 874 774 C 898 798 925 818 954 834 C 983 850 1014 863 1047 872 C 1079 880 1113 885 1147 885 C 1201 885 1249 876 1291 860 C 1333 844 1369 821 1398 791 C 1427 761 1449 725 1464 683 C 1479 641 1487 594 1487 543 L 1487 504 Z M 1329 555 C 1329 588 1326 621 1321 655 C 1315 688 1305 718 1291 745 C 1277 772 1257 794 1232 811 C 1207 827 1175 836 1135 836 C 1105 836 1077 829 1051 815 C 1025 801 1002 781 982 756 C 961 731 944 701 930 667 C 916 633 907 595 901 555 L 1329 555 Z M 729 430 C 729 492 723 549 711 599 C 699 649 682 691 660 726 C 638 761 611 788 579 807 C 547 826 511 836 471 836 C 431 836 395 826 363 807 C 331 788 304 761 282 726 C 260 691 243 649 231 599 C 219 549 213 492 213 430 C 213 367 219 311 231 261 C 243 211 260 168 282 133 C 304 98 331 71 363 53 C 395 34 431 25 471 25 C 511 25 547 34 579 53 C 611 71 638 98 660 133 C 682 168 699 211 711 261 C 723 311 729 367 729 430 Z" unicode="" />
<glyph horiz-adv-x="1014" d="M 915 356 C 915 300 904 248 882 201 C 860 154 831 114 794 80 C 757 46 714 19 666 0 C 618 -19 567 -29 514 -29 C 446 -29 386 -23 336 -11 C 286 1 242 18 205 41 L 184 -29 L 127 -29 L 115 381 L 164 385 L 209 170 C 241 126 281 92 331 68 C 381 44 433 33 489 33 C 529 33 566 38 601 50 C 636 62 666 79 692 102 C 718 125 738 154 753 188 C 768 222 776 261 776 305 C 776 339 770 370 759 397 C 747 424 729 449 705 473 C 681 497 649 520 610 543 C 571 565 524 590 469 616 C 409 644 357 672 315 700 C 272 728 237 757 210 788 C 182 818 162 852 150 888 C 137 924 131 966 131 1012 C 131 1063 141 1109 161 1151 C 181 1192 208 1227 242 1257 C 276 1286 315 1308 361 1324 C 407 1340 456 1348 508 1348 C 561 1348 610 1342 655 1332 C 699 1321 740 1305 776 1284 L 797 1348 L 854 1348 L 846 985 L 797 985 L 762 1182 C 733 1222 696 1250 651 1266 C 606 1282 559 1290 510 1290 C 478 1290 447 1284 418 1274 C 388 1263 362 1248 340 1228 C 318 1208 300 1183 286 1155 C 272 1127 266 1095 266 1059 C 266 1025 270 996 279 972 C 287 947 303 923 326 901 C 348 879 380 856 420 833 C 460 809 511 782 573 752 C 626 726 674 699 716 673 C 758 647 794 618 824 588 C 853 558 875 524 891 486 C 907 448 915 405 915 356 Z M 777 1784 L 521 1388 L 497 1388 L 241 1784 L 269 1804 L 509 1556 L 749 1804 L 777 1784 Z" unicode="" />
<glyph horiz-adv-x="709" d="M 643 238 C 643 204 636 172 623 141 C 610 109 591 81 567 57 C 542 32 512 12 476 -2 C 440 -17 400 -25 354 -25 C 312 -25 274 -20 240 -12 C 206 -3 175 11 147 33 L 127 -25 L 88 -25 L 78 246 L 117 250 C 131 176 157 120 196 82 C 234 44 284 25 344 25 C 368 25 391 29 411 37 C 431 45 449 57 464 71 C 479 85 491 103 499 123 C 507 143 512 166 512 190 C 512 216 506 238 496 258 C 485 277 471 294 453 310 C 435 325 414 339 391 351 C 367 363 343 374 317 385 C 289 397 261 409 234 423 C 206 437 182 453 160 473 C 138 492 121 515 108 542 C 94 568 88 601 88 639 C 88 673 94 706 108 736 C 121 766 139 792 163 814 C 186 836 213 853 245 866 C 276 878 310 885 346 885 C 384 885 418 881 448 874 C 478 866 507 854 535 836 L 557 881 L 596 881 L 594 645 L 555 645 C 545 705 523 752 489 786 C 455 819 410 836 354 836 C 330 836 308 831 290 823 C 272 815 256 804 244 790 C 232 776 222 761 216 744 C 210 726 207 709 207 692 C 207 665 212 642 223 623 C 233 604 248 587 266 573 C 284 559 304 546 328 535 C 351 523 375 512 401 502 C 431 488 461 474 490 459 C 519 444 545 426 568 406 C 590 386 608 362 622 335 C 636 308 643 276 643 238 Z M 629 1354 L 373 958 L 349 958 L 93 1354 L 121 1374 L 361 1126 L 601 1374 L 629 1354 Z" unicode="" />
<glyph horiz-adv-x="1151" d="M 1143 1274 L 1032 1253 L 659 561 L 659 61 L 831 45 L 831 0 L 328 0 L 328 45 L 500 61 L 500 545 L 119 1253 L 8 1274 L 8 1319 L 471 1319 L 471 1274 L 299 1257 L 623 637 L 946 1257 L 774 1274 L 774 1319 L 1143 1319 L 1143 1274 Z M 876 1552 C 876 1527 867 1506 849 1488 C 831 1470 810 1462 786 1462 C 761 1462 740 1470 722 1488 C 704 1506 696 1527 696 1552 C 696 1576 704 1597 722 1615 C 740 1633 761 1642 786 1642 C 810 1642 831 1633 849 1615 C 867 1597 876 1576 876 1552 Z M 532 1552 C 532 1527 523 1506 505 1488 C 487 1470 466 1462 442 1462 C 417 1462 396 1470 378 1488 C 360 1506 352 1527 352 1552 C 352 1576 360 1597 378 1615 C 396 1633 417 1642 442 1642 C 466 1642 487 1633 505 1615 C 523 1597 532 1576 532 1552 Z" unicode="" />
<glyph horiz-adv-x="1126" d="M 1071 332 L 1051 0 L 47 0 L 35 33 L 848 1253 L 203 1253 L 170 999 L 113 999 L 113 1319 L 1055 1319 L 1055 1286 L 248 70 L 958 70 L 1014 332 L 1071 332 Z M 831 1784 L 575 1388 L 551 1388 L 295 1784 L 323 1804 L 563 1556 L 803 1804 L 831 1784 Z" unicode="" />
<glyph horiz-adv-x="829" d="M 776 279 L 768 0 L 49 0 L 37 33 L 584 795 L 158 795 L 135 618 L 82 618 L 82 852 L 762 852 L 762 819 L 215 57 L 690 57 L 723 279 L 776 279 Z M 683 1354 L 427 958 L 403 958 L 147 1354 L 175 1374 L 415 1126 L 655 1374 L 683 1354 Z" unicode="" />
<glyph horiz-adv-x="977" d="M 961 1290 C 961 1266 954 1246 941 1228 C 928 1210 911 1195 891 1184 C 849 1234 817 1270 793 1293 C 769 1315 751 1327 739 1327 C 710 1327 685 1317 665 1298 C 644 1278 626 1251 611 1217 C 596 1182 584 1141 574 1093 C 564 1045 557 992 551 934 L 528 727 L 836 727 L 836 666 L 520 666 L 479 299 C 474 258 468 216 461 172 C 454 128 444 86 431 45 C 418 3 402 -35 382 -73 C 362 -110 338 -143 309 -171 C 279 -199 244 -221 204 -237 C 164 -253 117 -262 63 -262 C 43 -262 25 -260 9 -256 C -7 -252 -22 -245 -34 -237 C -46 -229 -56 -218 -63 -205 C -70 -191 -74 -176 -74 -158 C -74 -142 -69 -127 -59 -111 C -49 -95 -36 -85 -20 -80 C 24 -121 59 -149 87 -165 C 115 -180 137 -188 154 -188 C 174 -188 192 -181 209 -168 C 225 -154 241 -131 255 -98 C 269 -64 281 -19 293 38 C 305 95 316 168 326 256 L 371 666 L 170 666 L 170 727 L 379 727 L 397 903 C 405 975 419 1040 439 1100 C 459 1159 487 1210 521 1252 C 555 1294 596 1326 644 1349 C 692 1372 747 1384 811 1384 C 829 1384 848 1382 866 1378 C 884 1374 900 1369 914 1361 C 928 1353 939 1344 948 1332 C 956 1320 961 1306 961 1290 Z" unicode="" />
<glyph horiz-adv-x="1024" d="M 780 973 L 750 952 L 512 1200 L 272 952 L 244 973 L 500 1368 L 524 1368 L 780 973 Z" unicode="" />
<glyph horiz-adv-x="1024" d="M 780 1354 L 524 958 L 500 958 L 244 1354 L 272 1374 L 512 1126 L 752 1374 L 780 1354 Z" unicode="" />
<glyph horiz-adv-x="1024" d="M 797 1315 C 793 1271 785 1231 771 1195 C 757 1158 738 1126 714 1099 C 690 1071 661 1050 627 1035 C 593 1019 554 1012 512 1012 C 468 1012 430 1019 396 1035 C 362 1050 334 1071 310 1099 C 286 1126 267 1158 253 1195 C 239 1231 230 1271 227 1315 L 266 1323 C 284 1255 313 1206 351 1174 C 389 1142 442 1126 512 1126 C 581 1126 635 1142 673 1174 C 711 1206 739 1255 758 1323 L 797 1315 Z" unicode="" />
<glyph horiz-adv-x="1024" d="M 610 1155 C 610 1127 600 1103 582 1085 C 563 1066 540 1057 512 1057 C 484 1057 460 1066 442 1085 C 423 1103 414 1127 414 1155 C 414 1183 423 1206 442 1225 C 460 1243 484 1253 512 1253 C 540 1253 563 1243 582 1225 C 600 1206 610 1183 610 1155 Z" unicode="" />
<glyph horiz-adv-x="1024" d="M 719 1163 C 719 1135 713 1110 703 1087 C 692 1063 677 1043 659 1026 C 640 1009 618 996 593 987 C 567 977 540 973 512 973 C 483 973 456 977 431 987 C 405 996 383 1009 365 1026 C 346 1043 331 1063 321 1087 C 310 1110 305 1135 305 1163 C 305 1191 310 1216 321 1240 C 331 1263 346 1283 365 1300 C 383 1317 405 1330 431 1340 C 456 1349 483 1354 512 1354 C 540 1354 567 1349 593 1340 C 618 1330 640 1317 659 1300 C 677 1283 692 1263 703 1240 C 713 1216 719 1191 719 1163 Z M 621 1163 C 621 1181 618 1199 614 1216 C 610 1233 603 1248 594 1261 C 585 1274 574 1285 560 1293 C 546 1301 530 1305 512 1305 C 493 1305 477 1301 463 1293 C 449 1285 438 1274 429 1261 C 420 1248 413 1233 409 1216 C 405 1199 403 1181 403 1163 C 403 1145 405 1127 409 1110 C 413 1093 420 1078 429 1065 C 438 1052 449 1042 463 1034 C 477 1026 493 1022 512 1022 C 530 1022 546 1026 560 1034 C 574 1042 585 1052 594 1065 C 603 1078 610 1093 614 1110 C 618 1127 621 1145 621 1163 Z" unicode="" />
<glyph horiz-adv-x="1024" d="M 721 -465 C 691 -489 658 -509 622 -524 C 586 -539 549 -547 512 -547 C 476 -547 443 -542 414 -533 C 385 -523 360 -510 340 -492 C 320 -474 304 -451 293 -425 C 281 -398 276 -368 276 -334 C 276 -303 283 -273 298 -244 C 313 -215 335 -186 364 -156 C 393 -126 429 -95 471 -63 C 513 -31 562 3 616 39 L 653 12 C 615 -16 581 -42 552 -67 C 522 -91 498 -116 479 -141 C 459 -165 445 -191 435 -217 C 425 -243 420 -272 420 -303 C 420 -353 433 -392 459 -421 C 485 -450 523 -465 573 -465 C 595 -465 618 -461 641 -453 C 664 -445 684 -434 702 -420 L 721 -465 Z" unicode="" />
<glyph horiz-adv-x="1024" d="M 836 1221 C 828 1200 817 1178 803 1154 C 789 1130 774 1107 757 1087 C 739 1067 720 1050 700 1036 C 679 1022 657 1016 635 1016 C 614 1016 592 1022 568 1034 C 544 1046 519 1060 494 1074 C 469 1088 445 1102 421 1114 C 397 1126 374 1133 354 1133 C 338 1133 323 1129 310 1123 C 297 1116 285 1107 275 1097 C 265 1086 255 1074 247 1061 C 239 1048 231 1036 223 1024 L 188 1042 C 196 1062 206 1084 220 1108 C 234 1132 249 1154 267 1175 C 284 1195 303 1212 324 1226 C 344 1240 366 1247 389 1247 C 409 1247 432 1240 456 1228 C 480 1216 504 1202 529 1188 C 554 1174 579 1160 603 1148 C 627 1136 649 1130 670 1130 C 686 1130 700 1133 713 1140 C 726 1146 738 1155 748 1166 C 758 1176 768 1188 776 1201 C 784 1214 793 1227 801 1239 L 836 1221 Z" unicode="" />
<glyph horiz-adv-x="1024" d="M 909 1276 L 582 963 L 557 981 L 801 1366 L 909 1276 Z M 602 1276 L 274 963 L 250 981 L 494 1366 L 602 1276 Z" unicode="" />
<glyph horiz-adv-x="1024" d="M 799 1092 L 225 1092 L 225 1190 L 799 1190 L 799 1092 Z" unicode="" />
<glyph horiz-adv-x="1536" d="M 76 0 L 652 1536 L 884 1536 L 1456 0 L 76 0 Z M 352 148 L 1164 148 L 752 1256 L 352 148 Z" unicode="" />
<glyph horiz-adv-x="1664" d="M 832 1376 C 706 1376 599 1328 510 1234 C 420 1139 376 1006 376 836 C 376 673 405 538 464 432 C 522 325 609 241 724 180 L 724 0 L 88 0 L 88 196 L 536 196 C 456 225 378 295 304 406 C 229 516 192 664 192 848 C 192 1024 247 1184 358 1330 C 468 1475 626 1548 832 1548 C 1037 1548 1195 1478 1306 1338 C 1416 1198 1472 1034 1472 848 C 1472 664 1434 516 1360 406 C 1285 295 1208 225 1128 196 L 1576 196 L 1576 0 L 940 0 L 940 180 C 1054 241 1141 325 1200 432 C 1258 538 1288 673 1288 836 C 1288 974 1246 1099 1162 1210 C 1078 1320 968 1376 832 1376 Z" unicode="" />
<glyph horiz-adv-x="995" d="M 1020 72 C 1010 56 997 42 983 30 C 968 18 952 7 934 0 C 916 -8 897 -15 877 -19 C 857 -23 838 -25 819 -25 C 807 -25 795 -23 783 -20 C 770 -17 758 -13 746 -8 C 734 -3 723 2 713 10 C 703 17 696 25 690 33 L 690 205 L 688 205 C 676 169 660 137 640 109 C 620 81 598 57 573 37 C 548 17 521 1 491 -9 C 461 -19 429 -25 397 -25 C 360 -25 326 -18 294 -5 C 262 7 235 28 213 57 L 211 55 L 244 -442 L 96 -442 L 129 98 L 129 852 L 276 852 L 276 127 C 290 99 310 78 336 65 C 361 51 390 45 424 45 C 464 45 500 55 532 75 C 564 95 591 122 613 155 C 635 187 652 224 664 264 C 676 304 682 345 682 385 L 682 852 L 829 852 L 829 72 C 837 63 848 57 860 54 C 872 50 883 49 895 49 C 903 49 913 50 923 53 C 933 55 942 59 952 64 C 961 68 969 74 977 80 C 985 86 991 92 997 100 L 1020 72 Z" unicode="" />
<glyph horiz-adv-x="1408" d="M 296 0 L 296 1028 L 12 1028 L 12 1176 L 1316 1176 L 1316 1028 L 996 1028 L 996 344 C 996 266 1011 213 1042 184 C 1072 154 1109 140 1152 140 C 1184 140 1210 140 1232 142 C 1253 143 1274 148 1296 156 L 1296 28 C 1264 12 1234 0 1206 -6 C 1178 -12 1138 -16 1088 -16 C 1002 -16 935 10 886 64 C 836 117 812 208 812 336 L 812 1028 L 484 1028 L 484 0 L 296 0 Z" unicode="" />
<glyph horiz-adv-x="1106" d="M 1004 440 L 102 440 L 102 522 L 1004 522 L 1004 440 Z" unicode="" />
<glyph horiz-adv-x="1843" d="M 1741 440 L 102 440 L 102 522 L 1741 522 L 1741 440 Z" unicode="" />
<glyph horiz-adv-x="373" d="M 299 1036 C 299 1009 289 988 271 974 C 252 959 229 952 203 952 C 181 952 162 956 144 965 C 126 973 110 985 97 1000 C 84 1014 74 1031 67 1051 C 60 1070 57 1090 57 1112 C 57 1147 61 1179 71 1207 C 80 1235 93 1261 110 1283 C 126 1305 146 1325 169 1341 C 192 1357 217 1372 244 1384 L 279 1333 C 232 1314 196 1289 172 1257 C 147 1225 135 1187 135 1143 L 281 1096 C 286 1089 290 1080 294 1070 C 297 1060 299 1048 299 1036 Z" unicode="" />
<glyph horiz-adv-x="373" d="M 303 1225 C 303 1189 298 1157 289 1129 C 279 1100 266 1074 250 1052 C 233 1030 213 1010 191 994 C 168 978 143 964 117 952 L 82 1004 C 128 1022 163 1047 188 1079 C 212 1111 225 1150 225 1194 L 80 1241 C 74 1247 70 1255 66 1266 C 62 1276 61 1288 61 1300 C 61 1327 70 1348 89 1362 C 107 1376 130 1384 158 1384 C 179 1384 199 1379 217 1371 C 235 1362 250 1350 263 1336 C 275 1322 285 1305 292 1286 C 299 1266 303 1246 303 1225 Z" unicode="" />
<glyph horiz-adv-x="385" d="M 315 33 C 315 -2 310 -34 301 -63 C 291 -91 278 -117 262 -139 C 245 -161 225 -181 203 -197 C 180 -213 155 -228 129 -240 L 94 -188 C 140 -170 175 -144 200 -112 C 225 -80 238 -42 238 2 L 92 49 C 86 55 82 63 79 74 C 75 84 74 96 74 109 C 74 135 83 156 102 171 C 120 185 143 193 170 193 C 191 193 211 188 229 180 C 247 171 262 159 275 145 C 287 130 297 113 304 94 C 311 74 315 54 315 33 Z" unicode="" />
<glyph horiz-adv-x="692" d="M 618 1036 C 618 1009 609 988 592 974 C 575 959 553 952 526 952 C 504 952 485 956 468 965 C 450 973 435 985 423 1000 C 411 1014 401 1031 395 1051 C 388 1070 385 1090 385 1112 C 385 1147 389 1179 398 1207 C 407 1235 420 1261 436 1283 C 452 1305 471 1325 493 1341 C 515 1357 540 1372 567 1384 L 602 1333 C 556 1314 520 1289 496 1257 C 471 1225 459 1187 459 1143 L 600 1096 C 605 1089 609 1080 613 1070 C 616 1060 618 1048 618 1036 Z M 291 1036 C 291 1009 282 988 265 974 C 247 959 225 952 199 952 C 177 952 158 956 140 965 C 122 973 107 985 95 1000 C 83 1014 73 1031 67 1051 C 60 1070 57 1090 57 1112 C 57 1147 61 1179 70 1207 C 79 1235 92 1261 108 1283 C 124 1305 144 1325 166 1341 C 188 1357 213 1372 240 1384 L 274 1333 C 228 1314 192 1289 168 1257 C 143 1225 131 1187 131 1143 L 272 1096 C 277 1089 281 1080 285 1070 C 289 1060 291 1048 291 1036 Z" unicode="" />
<glyph horiz-adv-x="692" d="M 623 1225 C 623 1189 618 1157 609 1129 C 600 1100 587 1074 571 1052 C 555 1030 535 1010 513 994 C 491 978 466 964 440 952 L 406 1004 C 452 1022 487 1047 512 1079 C 536 1111 549 1150 549 1194 L 408 1241 C 402 1247 398 1255 394 1266 C 390 1276 389 1288 389 1300 C 389 1327 397 1348 415 1362 C 432 1376 454 1384 481 1384 C 502 1384 521 1379 539 1371 C 557 1362 572 1350 584 1336 C 596 1322 606 1305 613 1286 C 619 1266 623 1246 623 1225 Z M 295 1225 C 295 1189 290 1157 281 1129 C 272 1100 260 1074 244 1052 C 228 1030 208 1010 186 994 C 164 978 139 964 113 952 L 78 1004 C 124 1022 159 1047 184 1079 C 208 1111 221 1150 221 1194 L 80 1241 C 74 1247 70 1255 66 1266 C 62 1276 61 1288 61 1300 C 61 1327 69 1348 87 1362 C 104 1376 126 1384 154 1384 C 175 1384 194 1379 212 1371 C 229 1362 244 1350 256 1336 C 268 1322 278 1305 285 1286 C 291 1266 295 1246 295 1225 Z" unicode="" />
<glyph horiz-adv-x="705" d="M 635 33 C 635 -2 630 -34 621 -63 C 612 -91 600 -117 584 -139 C 568 -161 548 -181 526 -197 C 504 -213 479 -228 453 -240 L 418 -188 C 464 -170 499 -144 524 -112 C 548 -80 561 -42 561 2 L 420 49 C 414 55 410 63 406 74 C 402 84 401 96 401 109 C 401 135 409 156 427 171 C 444 185 466 193 494 193 C 515 193 534 188 552 180 C 569 171 584 159 596 145 C 608 130 618 113 625 94 C 631 74 635 54 635 33 Z M 307 33 C 307 -2 302 -34 293 -63 C 284 -91 272 -117 256 -139 C 240 -161 220 -181 198 -197 C 176 -213 151 -228 125 -240 L 90 -188 C 136 -170 171 -144 196 -112 C 220 -80 233 -42 233 2 L 92 49 C 86 55 82 63 79 74 C 75 84 74 96 74 109 C 74 135 82 156 100 171 C 117 185 139 193 166 193 C 187 193 206 188 224 180 C 241 171 256 159 268 145 C 280 130 290 113 297 94 C 303 74 307 54 307 33 Z" unicode="" />
<glyph horiz-adv-x="922" d="M 793 817 L 672 817 L 473 864 L 539 641 L 473 -352 L 449 -352 L 383 641 L 449 864 L 250 817 L 129 817 L 129 936 L 250 936 L 449 889 L 395 1092 L 395 1352 L 526 1352 L 526 1092 L 473 889 L 672 936 L 793 936 L 793 817 Z" unicode="" />
<glyph horiz-adv-x="922" d="M 793 63 L 672 63 L 473 111 L 526 -92 L 526 -352 L 395 -352 L 395 -92 L 449 111 L 250 63 L 129 63 L 129 182 L 250 182 L 449 135 L 383 500 L 449 864 L 250 817 L 129 817 L 129 936 L 250 936 L 449 889 L 395 1092 L 395 1352 L 526 1352 L 526 1092 L 473 889 L 672 936 L 793 936 L 793 817 L 672 817 L 473 864 L 539 500 L 473 135 L 672 182 L 793 182 L 793 63 Z" unicode="" />
<glyph horiz-adv-x="819" d="M 614 647 C 614 619 608 592 598 567 C 587 542 572 520 554 502 C 535 484 513 469 489 458 C 464 447 438 442 410 442 C 382 442 355 447 330 458 C 305 469 283 484 265 502 C 246 520 231 542 221 567 C 210 592 205 619 205 647 C 205 675 210 701 221 726 C 231 751 246 773 265 792 C 283 810 305 825 330 836 C 355 846 382 852 410 852 C 438 852 464 846 489 836 C 513 825 535 810 554 792 C 572 773 587 751 598 726 C 608 701 614 675 614 647 Z" unicode="" />
<glyph horiz-adv-x="2040" d="M 1749 86 C 1749 71 1746 57 1740 44 C 1734 31 1727 20 1718 11 C 1708 1 1697 -5 1684 -11 C 1670 -17 1656 -20 1642 -20 C 1612 -20 1586 -9 1566 10 C 1546 30 1536 56 1536 86 C 1536 100 1538 114 1544 127 C 1550 140 1557 151 1567 161 C 1576 171 1587 178 1600 184 C 1613 190 1627 193 1642 193 C 1656 193 1670 190 1684 184 C 1697 178 1708 171 1718 161 C 1727 151 1734 140 1740 127 C 1746 114 1749 100 1749 86 Z M 1126 86 C 1126 56 1115 30 1095 10 C 1075 -9 1050 -20 1020 -20 C 1005 -20 991 -17 978 -11 C 965 -5 954 1 944 11 C 934 20 927 31 921 44 C 915 57 913 71 913 86 C 913 100 915 114 921 127 C 927 140 934 151 944 161 C 954 171 965 178 978 184 C 991 190 1005 193 1020 193 C 1034 193 1048 190 1061 184 C 1074 178 1085 171 1095 161 C 1104 151 1111 140 1117 127 C 1123 114 1126 100 1126 86 Z M 504 86 C 504 71 501 57 495 44 C 489 31 482 20 473 11 C 463 1 452 -5 439 -11 C 425 -17 411 -20 397 -20 C 367 -20 341 -9 321 10 C 301 30 291 56 291 86 C 291 100 293 114 299 127 C 305 140 312 151 322 161 C 331 171 342 178 355 184 C 368 190 382 193 397 193 C 411 193 425 190 439 184 C 452 178 463 171 473 161 C 482 151 489 140 495 127 C 501 114 504 100 504 86 Z" unicode="" />
<glyph horiz-adv-x="2140" d="M 627 981 C 627 934 621 888 610 844 C 599 800 582 760 559 726 C 536 691 507 663 473 642 C 438 620 397 610 350 610 C 302 610 261 620 227 642 C 193 663 164 691 141 726 C 118 760 101 800 90 844 C 79 888 74 934 74 981 C 74 1027 79 1073 90 1118 C 101 1162 118 1202 141 1237 C 164 1271 193 1299 227 1320 C 261 1341 302 1352 350 1352 C 397 1352 438 1341 473 1320 C 507 1299 536 1271 559 1237 C 582 1202 599 1162 610 1118 C 621 1073 627 1027 627 981 Z M 1174 1315 L 367 -35 L 309 2 L 1116 1352 L 1174 1315 Z M 2066 338 C 2066 291 2060 245 2049 201 C 2038 157 2021 117 1998 83 C 1975 48 1946 20 1912 -1 C 1877 -22 1836 -33 1790 -33 C 1742 -33 1701 -22 1667 -1 C 1632 20 1603 48 1581 83 C 1558 117 1541 157 1530 201 C 1518 245 1513 291 1513 338 C 1513 384 1518 430 1530 475 C 1541 519 1558 559 1581 594 C 1603 628 1632 656 1667 677 C 1701 698 1742 709 1790 709 C 1836 709 1877 698 1912 677 C 1946 656 1975 628 1998 594 C 2021 559 2038 519 2049 475 C 2060 430 2066 384 2066 338 Z M 1407 338 C 1407 291 1401 245 1390 201 C 1379 157 1362 117 1339 83 C 1316 48 1287 20 1253 -1 C 1218 -22 1177 -33 1130 -33 C 1082 -33 1041 -22 1007 -1 C 973 20 944 48 921 83 C 898 117 881 157 870 201 C 859 245 854 291 854 338 C 854 384 859 430 870 475 C 881 519 898 559 921 594 C 944 628 973 656 1007 677 C 1041 698 1082 709 1130 709 C 1177 709 1218 698 1253 677 C 1287 656 1316 628 1339 594 C 1362 559 1379 519 1390 475 C 1401 430 1407 384 1407 338 Z M 500 981 C 500 1019 497 1058 492 1097 C 487 1135 479 1170 468 1201 C 456 1232 441 1257 422 1277 C 402 1297 378 1307 350 1307 C 320 1307 296 1297 277 1277 C 258 1257 243 1232 232 1201 C 220 1170 212 1135 208 1097 C 203 1058 201 1019 201 981 C 201 942 203 903 208 865 C 212 826 220 791 232 760 C 244 729 259 704 278 684 C 297 664 321 655 350 655 C 378 655 402 664 422 684 C 441 704 456 729 468 760 C 479 791 487 826 492 865 C 497 903 500 942 500 981 Z M 1939 338 C 1939 376 1936 415 1932 454 C 1927 492 1919 527 1907 558 C 1895 589 1880 614 1861 634 C 1842 654 1818 664 1790 664 C 1760 664 1736 654 1717 634 C 1697 614 1682 589 1671 558 C 1659 527 1651 492 1647 454 C 1642 415 1640 376 1640 338 C 1640 299 1642 260 1647 222 C 1652 183 1660 148 1672 117 C 1683 86 1698 61 1718 41 C 1737 21 1761 12 1790 12 C 1818 12 1842 21 1861 41 C 1880 61 1895 86 1907 117 C 1919 148 1927 183 1932 222 C 1936 260 1939 299 1939 338 Z M 1280 338 C 1280 376 1277 415 1272 454 C 1267 492 1259 527 1248 558 C 1236 589 1221 614 1202 634 C 1182 654 1158 664 1130 664 C 1100 664 1076 654 1057 634 C 1038 614 1023 589 1012 558 C 1000 527 992 492 988 454 C 983 415 981 376 981 338 C 981 299 983 260 988 222 C 992 183 1000 148 1012 117 C 1024 86 1039 61 1058 41 C 1077 21 1101 12 1130 12 C 1158 12 1182 21 1202 41 C 1221 61 1236 86 1248 117 C 1259 148 1267 183 1272 222 C 1277 260 1280 299 1280 338 Z" unicode="" />
<glyph horiz-adv-x="666" d="M 506 121 L 473 94 L 123 446 L 473 799 L 506 772 L 287 446 L 506 121 Z" unicode="" />
<glyph horiz-adv-x="666" d="M 543 446 L 193 94 L 160 121 L 379 446 L 160 772 L 193 799 L 543 446 Z" unicode="" />
<glyph horiz-adv-x="684" d="M 774 1315 L -33 -35 L -90 2 L 717 1352 L 774 1315 Z" unicode="" />
<glyph horiz-adv-x="1247" d="M 1124 1282 L 1112 989 L 1063 989 L 1034 1186 C 1014 1202 994 1216 974 1229 C 954 1241 931 1252 907 1260 C 883 1268 856 1275 828 1279 C 799 1283 767 1286 731 1286 C 668 1286 614 1272 569 1245 C 524 1218 486 1182 456 1138 C 425 1094 401 1043 384 985 C 366 927 354 868 348 807 L 1006 807 L 987 745 L 344 745 C 342 735 342 725 342 715 C 342 705 342 694 342 684 C 342 662 342 640 343 617 C 344 594 346 571 350 549 L 926 549 L 907 487 L 358 487 C 368 429 383 372 404 318 C 425 264 452 216 485 174 C 518 132 558 98 604 73 C 650 47 704 35 766 35 C 787 35 810 36 835 39 C 859 41 883 45 907 51 C 931 57 953 64 975 73 C 996 81 1014 92 1030 104 L 1071 303 L 1120 303 L 1108 37 C 1050 13 990 -3 929 -13 C 868 -23 801 -29 727 -29 C 649 -29 579 -15 518 11 C 457 38 404 75 359 122 C 314 168 277 223 249 286 C 221 348 200 415 188 487 L 12 487 L 31 549 L 180 549 C 176 583 174 618 174 653 C 174 668 174 683 175 699 C 175 714 176 729 178 745 L 12 745 L 31 807 L 186 807 C 197 881 217 950 245 1016 C 273 1081 311 1138 358 1188 C 404 1237 460 1276 525 1305 C 590 1333 665 1348 750 1348 C 784 1348 816 1346 847 1344 C 878 1341 909 1337 939 1332 C 969 1326 1000 1319 1030 1311 C 1060 1303 1092 1293 1124 1282 Z" unicode="" />
<glyph horiz-adv-x="1536" d="M 1415 670 C 1415 580 1398 495 1364 417 C 1330 339 1283 270 1225 212 C 1167 153 1098 107 1020 73 C 941 39 857 23 768 23 C 678 23 594 39 516 73 C 437 107 368 153 310 212 C 251 270 205 339 171 417 C 137 495 121 580 121 670 C 121 729 128 786 144 842 C 159 897 181 949 209 997 C 237 1045 270 1088 310 1128 C 349 1167 393 1201 441 1229 C 489 1257 540 1278 596 1294 C 651 1309 708 1317 768 1317 C 827 1317 884 1309 940 1294 C 995 1278 1047 1257 1095 1229 C 1143 1201 1186 1167 1226 1128 C 1265 1088 1299 1045 1327 997 C 1355 949 1376 897 1392 842 C 1407 786 1415 729 1415 670 Z M 1346 670 C 1346 751 1330 827 1300 899 C 1270 971 1228 1033 1176 1087 C 1124 1140 1063 1182 993 1213 C 923 1244 848 1260 768 1260 C 688 1260 613 1244 543 1213 C 473 1182 411 1140 359 1087 C 307 1033 265 971 235 899 C 205 827 190 751 190 670 C 190 588 205 512 235 440 C 265 368 307 306 359 253 C 411 199 473 157 543 126 C 613 95 688 80 768 80 C 848 80 923 95 993 126 C 1063 157 1124 199 1176 253 C 1228 306 1270 368 1300 440 C 1330 512 1346 588 1346 670 Z M 1114 836 C 1114 790 1105 750 1087 718 C 1069 686 1045 659 1015 639 C 984 619 948 604 907 594 C 865 584 821 580 774 580 C 768 580 759 580 747 581 C 735 581 726 582 719 584 L 719 354 L 862 340 L 862 303 L 469 303 L 469 340 L 596 354 L 596 989 L 469 1001 L 469 1038 L 821 1038 C 860 1038 897 1033 933 1025 C 969 1017 1000 1004 1027 987 C 1053 970 1074 949 1090 924 C 1106 899 1114 870 1114 836 Z M 985 823 C 985 849 980 872 971 894 C 961 915 949 933 933 948 C 917 963 897 975 875 983 C 853 991 829 995 803 995 C 790 995 776 994 760 993 C 744 992 731 991 719 989 L 719 621 C 729 619 740 618 754 617 C 768 616 778 616 786 616 C 818 616 846 621 871 631 C 895 641 916 655 933 673 C 950 691 963 713 972 739 C 980 764 985 792 985 823 Z" unicode="" />
<glyph horiz-adv-x="1004" d="M 963 940 L 791 940 L 791 965 L 844 971 L 827 1257 L 688 940 L 666 940 L 528 1247 L 514 973 L 567 965 L 567 940 L 424 940 L 424 965 L 477 973 L 496 1288 L 440 1294 L 440 1319 L 565 1319 L 694 1030 L 819 1319 L 944 1319 L 944 1294 L 889 1288 L 909 971 L 963 965 L 963 940 Z M 401 1217 L 371 1217 L 362 1290 L 262 1290 L 262 971 L 315 965 L 315 940 L 141 940 L 141 965 L 195 971 L 195 1290 L 94 1290 L 86 1217 L 55 1217 L 55 1319 L 401 1319 L 401 1217 Z" unicode="" />
<glyph horiz-adv-x="1664" d="M 832 1376 C 706 1376 599 1328 510 1234 C 420 1139 376 1006 376 836 C 376 673 405 538 464 432 C 522 325 609 241 724 180 L 724 0 L 88 0 L 88 196 L 536 196 C 456 225 378 295 304 406 C 229 516 192 664 192 848 C 192 1024 247 1184 358 1330 C 468 1475 626 1548 832 1548 C 1037 1548 1195 1478 1306 1338 C 1416 1198 1472 1034 1472 848 C 1472 664 1434 516 1360 406 C 1285 295 1208 225 1128 196 L 1576 196 L 1576 0 L 940 0 L 940 180 C 1054 241 1141 325 1200 432 C 1258 538 1288 673 1288 836 C 1288 974 1246 1099 1162 1210 C 1078 1320 968 1376 832 1376 Z" unicode="" />
<glyph horiz-adv-x="1280" d="M 476 -32 C 342 -32 239 5 166 80 C 92 154 56 248 56 360 C 56 506 108 636 214 750 C 319 863 449 920 604 920 C 668 920 734 908 802 886 C 870 863 924 840 964 816 C 972 872 976 928 976 984 C 976 1109 953 1207 908 1278 C 862 1348 800 1384 720 1384 C 634 1384 567 1374 518 1356 C 468 1337 418 1312 368 1280 L 324 1444 C 374 1473 430 1498 492 1518 C 553 1538 629 1548 720 1548 C 877 1548 992 1496 1064 1394 C 1136 1291 1172 1149 1172 968 C 1172 690 1104 454 968 260 C 832 65 668 -32 476 -32 Z M 488 128 C 602 128 698 174 774 268 C 850 361 906 500 944 684 C 922 705 882 726 824 748 C 765 769 706 780 648 780 C 520 780 424 738 360 654 C 296 570 264 476 264 372 C 264 300 282 241 318 196 C 354 150 410 128 488 128 Z" unicode="" />
<glyph horiz-adv-x="1536" d="M 76 0 L 652 1536 L 884 1536 L 1456 0 L 76 0 Z M 352 148 L 1164 148 L 752 1256 L 352 148 Z" unicode="" />
<glyph horiz-adv-x="1536" d="M 332 0 L 332 1348 L 80 1348 L 80 1524 L 1456 1524 L 1456 1348 L 1212 1348 L 1212 0 L 1004 0 L 1004 1356 L 540 1356 L 540 0 L 332 0 Z" unicode="" />
<glyph horiz-adv-x="1152" d="M 1084 1524 L 1084 1344 L 332 1344 L 796 784 L 304 188 L 1080 188 L 1080 0 L 40 0 L 40 172 L 560 788 L 68 1380 L 68 1524 L 1084 1524 Z" unicode="" />
<glyph horiz-adv-x="1229" d="M 1079 567 L 150 567 L 150 645 L 1079 645 L 1079 567 Z" unicode="" />
<glyph horiz-adv-x="684" d="M 774 1315 L -33 -35 L -90 2 L 717 1352 L 774 1315 Z" unicode="" />
<glyph horiz-adv-x="512" d="M 362 541 C 362 525 359 511 353 498 C 347 485 340 474 331 465 C 321 455 310 448 297 442 C 284 436 270 434 256 434 C 241 434 227 436 214 442 C 201 448 190 455 181 465 C 171 474 164 485 158 498 C 152 511 150 525 150 541 C 150 571 160 596 180 616 C 200 636 226 647 256 647 C 286 647 311 636 331 616 C 351 596 362 571 362 541 Z" unicode="" />
<glyph horiz-adv-x="1030" d="M 1153 1475 L 475 -102 L 438 -102 L 96 696 L 0 713 L 0 750 L 231 750 L 492 115 L 1075 1475 L 1153 1475 Z" unicode="" />
<glyph horiz-adv-x="1536" d="M 468 1216 C 566 1216 646 1188 706 1134 C 766 1079 813 981 848 840 C 853 720 877 642 920 608 C 962 573 1013 556 1072 556 C 1128 556 1176 579 1218 626 C 1259 672 1280 736 1280 816 C 1280 882 1264 940 1234 988 C 1203 1036 1152 1060 1080 1060 C 1008 1060 954 1029 920 968 C 885 906 857 834 836 752 C 809 648 760 562 688 496 C 616 429 533 396 440 396 C 336 396 252 433 190 508 C 127 582 96 682 96 808 C 96 925 133 1022 208 1100 C 282 1177 369 1216 468 1216 Z M 1072 396 C 973 396 896 424 840 482 C 784 539 741 633 712 764 C 685 870 652 944 614 986 C 575 1027 528 1048 472 1048 C 408 1048 356 1026 316 982 C 276 938 256 874 256 792 C 256 709 271 648 302 610 C 332 571 381 552 448 552 C 509 552 562 576 608 624 C 653 672 689 752 716 864 C 748 984 796 1072 860 1130 C 924 1187 1004 1216 1100 1216 C 1198 1216 1280 1181 1346 1112 C 1411 1042 1444 945 1444 820 C 1444 700 1409 599 1340 518 C 1270 436 1181 396 1072 396 Z" unicode="" />
<glyph horiz-adv-x="1152" d="M -8 -392 L 56 -260 C 72 -265 88 -270 104 -274 C 120 -278 140 -280 164 -280 C 196 -280 222 -268 242 -246 C 262 -223 277 -178 288 -112 L 516 1224 C 534 1330 574 1410 636 1464 C 697 1517 778 1544 880 1544 C 941 1544 995 1536 1042 1522 C 1088 1507 1125 1492 1152 1476 L 1088 1304 C 1058 1322 1025 1340 988 1356 C 950 1372 910 1380 868 1380 C 806 1380 760 1360 730 1322 C 699 1283 680 1238 672 1188 L 448 -224 C 434 -296 402 -348 350 -382 C 298 -415 240 -432 176 -432 C 136 -432 99 -428 66 -420 C 32 -412 8 -402 -8 -392 Z" unicode="" />
<glyph horiz-adv-x="1536" d="M 236 400 C 230 429 228 456 228 480 C 228 546 248 604 288 652 C 328 700 390 724 476 724 C 542 724 600 714 650 696 C 699 677 745 659 788 642 C 830 624 872 610 912 598 C 952 586 988 580 1020 580 C 1070 580 1106 590 1128 610 C 1149 630 1160 654 1160 684 C 1160 694 1158 705 1156 716 L 1300 716 C 1305 686 1308 660 1308 636 C 1308 569 1288 512 1248 464 C 1208 416 1145 392 1060 392 C 993 392 935 400 886 418 C 836 435 790 452 748 470 C 705 487 664 501 624 512 C 584 522 548 528 516 528 C 465 528 429 518 408 500 C 386 481 376 458 376 432 C 376 421 377 410 380 400 L 236 400 Z M 236 860 C 230 889 228 916 228 940 C 228 1006 248 1064 288 1112 C 328 1160 390 1184 476 1184 C 542 1184 600 1174 650 1156 C 699 1137 745 1119 788 1102 C 830 1084 872 1070 912 1058 C 952 1046 988 1040 1020 1040 C 1070 1040 1106 1050 1128 1070 C 1149 1090 1160 1114 1160 1144 C 1160 1154 1158 1165 1156 1176 L 1300 1176 C 1305 1146 1308 1120 1308 1096 C 1308 1029 1288 972 1248 924 C 1208 876 1145 852 1060 852 C 993 852 935 860 886 878 C 836 895 790 912 748 930 C 705 947 664 961 624 972 C 584 982 548 988 516 988 C 465 988 429 978 408 960 C 386 941 376 918 376 892 C 376 881 377 870 380 860 L 236 860 Z" unicode="" />
<glyph horiz-adv-x="1536" d="M 212 404 L 212 604 L 1328 604 L 1328 404 L 212 404 Z M 212 976 L 212 1176 L 1328 1176 L 1328 976 L 212 976 Z M 548 188 L 372 188 L 996 1356 L 1168 1356 L 548 188 Z" unicode="" />
<glyph horiz-adv-x="1536" d="M 1348 236 L 208 708 L 208 872 L 1348 1344 L 1348 1128 L 448 792 L 1348 452 L 1348 236 Z M 212 24 L 212 216 L 1348 216 L 1348 24 L 212 24 Z" unicode="" />
<glyph horiz-adv-x="1536" d="M 212 236 L 212 452 L 1112 792 L 212 1128 L 212 1344 L 1352 872 L 1352 708 L 212 236 Z M 212 24 L 212 216 L 1348 216 L 1348 24 L 212 24 Z" unicode="" />
<glyph horiz-adv-x="819" d="M 647 647 L 410 410 L 172 647 L 410 885 L 647 647 Z" unicode="" />
<glyph horiz-adv-x="2048" d="M 1436 741 C 1436 715 1430 692 1418 671 C 1406 650 1391 632 1372 616 C 1352 600 1330 588 1306 580 C 1282 571 1257 567 1233 567 C 1209 567 1187 570 1165 576 C 1143 582 1121 590 1100 602 L 1118 657 C 1135 647 1153 639 1172 633 C 1191 627 1210 625 1229 625 C 1249 625 1267 628 1282 634 C 1297 640 1312 651 1327 666 L 1264 791 C 1264 799 1267 808 1273 816 C 1278 824 1284 830 1292 836 C 1299 841 1307 845 1316 849 C 1325 852 1334 854 1343 854 C 1357 854 1369 850 1381 844 C 1392 837 1402 828 1410 818 C 1418 808 1425 796 1429 782 C 1433 768 1436 755 1436 741 Z M 907 659 C 907 613 895 569 872 526 L 817 545 C 827 562 835 580 841 599 C 847 617 850 636 850 655 C 850 675 846 693 840 709 C 834 724 823 739 809 754 L 684 690 C 674 690 666 693 658 699 C 650 704 644 710 638 718 C 632 726 628 734 625 743 C 622 752 621 761 621 770 C 621 784 624 796 631 808 C 637 819 646 829 656 837 C 666 845 678 851 692 855 C 705 859 719 862 733 862 C 759 862 782 856 804 845 C 825 833 843 818 859 799 C 874 780 886 758 894 734 C 902 710 907 685 907 659 Z M 1946 399 L 1743 399 L 1589 436 L 1620 287 L 1620 190 L 1530 190 L 1530 287 L 1561 436 L 1391 389 L 1036 438 L 1085 84 L 1038 -86 L 1188 -55 L 1284 -55 L 1284 -145 L 1188 -145 L 1038 -115 L 1075 -268 L 1075 -471 L 973 -471 L 973 -268 L 1010 -115 L 860 -145 L 764 -145 L 764 -55 L 860 -55 L 1010 -86 L 963 84 L 1012 438 L 657 389 L 487 436 L 518 287 L 518 190 L 428 190 L 428 287 L 459 436 L 305 399 L 102 399 L 102 502 L 305 502 L 459 465 L 428 614 L 428 711 L 518 711 L 518 614 L 487 465 L 657 512 L 1012 463 L 963 817 L 1010 987 L 860 956 L 764 956 L 764 1047 L 860 1047 L 1010 1016 L 973 1169 L 973 1372 L 1075 1372 L 1075 1169 L 1038 1016 L 1188 1047 L 1284 1047 L 1284 956 L 1188 956 L 1038 987 L 1085 817 L 1036 463 L 1391 512 L 1561 465 L 1530 614 L 1530 711 L 1620 711 L 1620 614 L 1589 465 L 1743 502 L 1946 502 L 1946 399 Z M 1427 131 C 1427 117 1423 104 1417 93 C 1410 81 1401 72 1391 64 C 1381 56 1369 49 1356 45 C 1342 41 1329 39 1315 39 C 1289 39 1266 44 1245 56 C 1223 68 1205 83 1190 102 C 1174 121 1162 143 1154 167 C 1145 191 1141 216 1141 242 C 1141 287 1152 331 1176 375 L 1231 356 C 1209 320 1198 284 1198 246 C 1198 225 1201 207 1207 192 C 1213 176 1224 161 1239 147 L 1364 211 C 1373 209 1381 206 1389 201 C 1397 196 1403 190 1409 182 C 1415 174 1419 166 1422 157 C 1425 148 1427 139 1427 131 Z M 948 299 L 930 244 C 912 254 894 261 875 267 C 856 273 837 276 819 276 C 798 276 780 272 765 266 C 750 260 735 250 721 236 L 784 111 C 782 101 779 93 774 85 C 769 77 763 71 755 65 C 747 59 739 55 731 52 C 722 48 713 47 705 47 C 691 47 678 50 667 57 C 655 63 645 72 637 82 C 629 92 622 104 618 118 C 614 132 612 146 612 160 C 612 184 617 207 629 229 C 641 250 656 268 676 284 C 695 300 717 312 741 321 C 765 329 789 334 815 334 C 860 334 904 322 948 299 Z" unicode="" />
<glyph horiz-adv-x="1098" d="M 1219 1427 L 1159 1300 C 1139 1313 1120 1326 1102 1338 C 1083 1350 1065 1361 1049 1371 C 1032 1380 1017 1387 1003 1393 C 989 1398 978 1401 969 1401 C 952 1401 937 1397 923 1389 C 909 1381 898 1368 888 1350 C 878 1332 870 1309 864 1281 C 858 1253 856 1218 856 1178 L 856 852 L 1102 852 L 1102 793 L 856 793 L 856 53 L 1053 37 L 1053 0 L 575 0 L 575 37 L 709 53 L 709 793 L 328 793 L 328 53 L 504 37 L 504 0 L 47 0 L 47 37 L 180 53 L 180 788 L 47 788 L 47 825 L 180 860 L 180 1010 C 180 1072 189 1131 208 1185 C 226 1239 253 1286 287 1326 C 321 1366 363 1397 411 1420 C 459 1442 513 1454 573 1454 C 621 1454 665 1446 704 1432 C 742 1418 779 1398 815 1374 C 843 1405 876 1430 915 1448 C 954 1466 1001 1475 1055 1475 C 1090 1475 1120 1470 1144 1462 C 1168 1454 1193 1442 1219 1427 Z M 754 1276 C 736 1292 719 1308 702 1323 C 685 1337 669 1350 653 1361 C 637 1371 622 1380 608 1386 C 594 1392 581 1395 571 1395 C 530 1395 494 1389 464 1378 C 434 1366 408 1348 388 1323 C 368 1298 353 1265 343 1224 C 333 1183 328 1133 328 1075 L 328 852 L 709 852 L 709 1026 C 709 1072 712 1116 720 1158 C 727 1200 738 1240 754 1276 Z" unicode="" />
<glyph horiz-adv-x="1040" d="M 1010 0 L 596 0 L 596 37 L 729 53 L 729 776 L 635 793 L 328 793 L 328 53 L 524 37 L 524 0 L 47 0 L 47 37 L 180 53 L 180 788 L 47 788 L 47 825 L 180 860 L 180 993 C 180 1066 190 1132 210 1192 C 230 1251 259 1302 297 1344 C 335 1386 381 1418 436 1441 C 490 1463 553 1475 623 1475 C 680 1475 730 1465 772 1445 C 814 1425 851 1398 885 1362 L 803 1227 C 765 1263 734 1293 708 1317 C 682 1340 661 1358 643 1371 C 625 1384 611 1393 599 1398 C 587 1402 577 1405 567 1405 C 529 1405 495 1400 466 1390 C 436 1380 411 1363 391 1337 C 370 1311 354 1275 344 1230 C 333 1184 328 1126 328 1055 L 328 852 L 635 852 L 877 879 L 877 53 L 1010 37 L 1010 0 Z" unicode="" />
<glyph horiz-adv-x="1044" d="M 1010 0 L 596 0 L 596 37 L 729 53 L 729 1276 C 710 1302 692 1324 676 1342 C 659 1359 643 1373 628 1383 C 612 1393 598 1401 584 1405 C 570 1409 557 1411 545 1411 C 507 1411 474 1405 447 1395 C 419 1384 397 1366 379 1342 C 361 1318 348 1285 340 1245 C 332 1205 328 1155 328 1096 L 328 852 L 618 852 L 618 793 L 328 793 L 328 53 L 524 37 L 524 0 L 47 0 L 47 37 L 180 53 L 180 788 L 47 788 L 47 825 L 180 860 L 180 1030 C 180 1092 188 1151 206 1205 C 224 1259 249 1307 282 1347 C 315 1387 355 1418 401 1441 C 447 1463 499 1475 557 1475 C 593 1475 627 1470 659 1460 C 691 1450 722 1436 754 1419 L 877 1442 L 877 53 L 1010 37 L 1010 0 Z" unicode="" />
<glyph horiz-adv-x="1569" d="M 1538 0 L 1124 0 L 1124 37 L 1257 53 L 1257 776 L 1163 793 L 856 793 L 856 53 L 1053 37 L 1053 0 L 575 0 L 575 37 L 709 53 L 709 793 L 328 793 L 328 53 L 504 37 L 504 0 L 47 0 L 47 37 L 180 53 L 180 788 L 47 788 L 47 825 L 180 860 L 180 1010 C 180 1072 189 1131 208 1185 C 226 1239 253 1286 287 1326 C 321 1366 363 1397 411 1420 C 459 1442 513 1454 573 1454 C 627 1454 675 1445 717 1428 C 759 1411 800 1388 838 1358 C 876 1396 921 1425 973 1445 C 1025 1465 1084 1475 1151 1475 C 1209 1475 1259 1465 1301 1445 C 1343 1425 1380 1398 1413 1362 L 1331 1227 C 1293 1263 1262 1293 1237 1317 C 1211 1340 1190 1358 1172 1371 C 1154 1384 1140 1393 1128 1398 C 1116 1402 1106 1405 1096 1405 C 1058 1405 1024 1400 994 1390 C 964 1380 939 1363 919 1337 C 898 1311 882 1275 872 1230 C 861 1184 856 1126 856 1055 L 856 852 L 1163 852 L 1405 879 L 1405 53 L 1538 37 L 1538 0 Z M 768 1262 C 750 1280 732 1297 714 1313 C 695 1329 677 1344 660 1356 C 642 1368 626 1377 611 1384 C 595 1391 582 1395 571 1395 C 530 1395 494 1389 464 1378 C 434 1366 408 1348 388 1323 C 368 1298 353 1265 343 1224 C 333 1183 328 1133 328 1075 L 328 852 L 709 852 L 709 993 C 709 1097 728 1187 768 1262 Z" unicode="" />
<glyph horiz-adv-x="1573" d="M 1538 0 L 1124 0 L 1124 37 L 1257 53 L 1257 1276 C 1239 1302 1221 1324 1204 1342 C 1187 1359 1171 1373 1156 1383 C 1140 1393 1126 1401 1112 1405 C 1098 1409 1085 1411 1073 1411 C 1035 1411 1002 1405 975 1395 C 947 1384 925 1366 907 1342 C 889 1318 876 1285 868 1245 C 860 1205 856 1155 856 1096 L 856 852 L 1147 852 L 1147 793 L 856 793 L 856 53 L 1053 37 L 1053 0 L 575 0 L 575 37 L 709 53 L 709 793 L 328 793 L 328 53 L 504 37 L 504 0 L 47 0 L 47 37 L 180 53 L 180 788 L 47 788 L 47 825 L 180 860 L 180 1010 C 180 1072 189 1131 208 1185 C 226 1239 253 1286 287 1326 C 321 1366 363 1397 411 1420 C 459 1442 513 1454 573 1454 C 625 1454 671 1446 711 1431 C 751 1415 790 1394 827 1366 C 859 1400 897 1426 941 1446 C 985 1465 1033 1475 1085 1475 C 1121 1475 1155 1470 1187 1460 C 1219 1450 1251 1436 1282 1419 L 1405 1442 L 1405 53 L 1538 37 L 1538 0 Z M 760 1268 C 742 1285 725 1301 707 1317 C 689 1332 672 1345 656 1357 C 639 1369 623 1378 609 1385 C 594 1391 581 1395 571 1395 C 530 1395 494 1389 464 1378 C 434 1366 408 1348 388 1323 C 368 1298 353 1265 343 1224 C 333 1183 328 1133 328 1075 L 328 852 L 709 852 L 709 1030 C 709 1074 713 1116 722 1156 C 730 1196 743 1234 760 1268 Z" unicode="" />
</font>
</defs>
</svg>
