<?xml version="1.0" encoding="utf-8" ?><svg version="1.1" xmlns = 'http://www.w3.org/2000/svg'><defs><font id='web' horiz-adv-x="1000">
<font-face font-family="web" descent="-410" cap-height="1511" units-per-em="2048" bbox="-78,-455,2236,2118" x-height="1061" ascent="1638" />
<missing-glyph horiz-adv-x="1024" d="" /><glyph horiz-adv-x="512" d="" unicode=" " />
<glyph horiz-adv-x="522" d="M 92 145 C 92 165 96 187 106 211 C 114 231 125 249 141 264 C 154 277 173 289 197 299 C 221 308 243 313 262 313 C 284 313 306 308 330 299 C 350 291 368 279 383 264 C 401 246 413 228 420 211 C 428 190 432 168 432 145 C 432 120 428 98 420 78 C 413 60 401 42 383 25 C 367 9 349 -2 329 -10 C 309 -18 286 -23 262 -23 C 238 -23 217 -18 197 -10 C 173 0 155 11 141 25 C 125 40 114 58 106 78 C 96 102 92 124 92 145 Z M 104 1511 L 420 1511 L 358 459 L 166 459 L 104 1511 Z" unicode="!" />
<glyph horiz-adv-x="937" d="M 109 1511 L 418 1511 L 358 991 L 164 991 L 109 1511 Z M 522 1511 L 831 1511 L 772 991 L 578 991 L 522 1511 Z" unicode="&#x22;" />
<glyph horiz-adv-x="1230" d="M 51 377 L 51 629 L 256 629 L 313 883 L 137 883 L 137 1135 L 371 1135 L 459 1511 L 657 1511 L 569 1135 L 834 1135 L 922 1511 L 1120 1511 L 1032 1135 L 1180 1135 L 1180 883 L 975 883 L 918 629 L 1094 629 L 1094 377 L 860 377 L 774 0 L 575 0 L 662 377 L 397 377 L 311 0 L 113 0 L 199 377 L 51 377 Z M 455 629 L 719 629 L 776 883 L 512 883 L 455 629 Z" unicode="#" />
<glyph horiz-adv-x="1224" d="M 37 205 L 193 399 C 201 391 218 376 246 354 C 262 340 286 325 317 309 C 337 298 369 285 412 270 C 446 258 486 250 532 246 L 532 647 C 456 661 390 680 336 702 C 272 728 225 755 195 784 C 157 820 129 862 111 909 C 93 957 84 1015 84 1085 C 84 1152 94 1212 115 1264 C 135 1316 165 1359 203 1393 C 241 1427 287 1454 342 1475 C 395 1494 458 1507 532 1513 L 532 1663 L 705 1663 L 705 1513 C 759 1509 805 1502 842 1493 C 873 1485 910 1472 954 1454 C 977 1444 1008 1427 1047 1403 C 1081 1381 1106 1362 1124 1346 L 975 1151 C 968 1156 960 1162 952 1168 C 944 1174 936 1181 928 1188 C 917 1196 898 1208 870 1225 C 846 1238 822 1249 797 1257 C 770 1265 739 1271 705 1276 L 705 889 C 785 875 850 860 899 842 C 959 820 1009 793 1049 762 C 1087 730 1118 687 1143 633 C 1165 583 1176 519 1176 440 C 1176 307 1137 205 1059 135 C 979 62 861 20 705 8 L 705 -256 L 532 -256 L 532 8 C 468 12 412 21 365 35 C 307 51 261 67 227 82 C 190 98 153 118 117 141 C 88 159 61 180 37 205 Z M 348 1092 C 348 1068 352 1047 360 1028 C 366 1011 379 995 397 981 C 409 970 429 958 457 946 C 480 935 505 927 532 922 L 532 1278 C 495 1274 465 1267 442 1257 C 417 1247 398 1235 385 1219 C 373 1205 363 1187 356 1163 C 350 1145 348 1122 348 1092 Z M 705 246 C 741 250 773 257 799 268 C 822 277 841 291 856 309 C 872 328 883 347 889 367 C 894 387 897 412 897 440 C 897 467 893 491 885 512 C 878 527 865 543 846 561 C 829 574 809 585 786 594 C 756 604 729 612 705 616 L 705 246 Z" unicode="$" />
<glyph horiz-adv-x="1787" d="M 74 1036 L 74 1194 C 74 1248 82 1296 98 1337 C 114 1376 138 1411 170 1442 C 202 1473 238 1495 276 1507 C 321 1522 367 1530 415 1530 C 463 1530 509 1522 555 1507 C 594 1493 630 1472 664 1442 C 694 1414 717 1379 733 1337 C 749 1296 758 1248 758 1194 L 758 1036 C 758 980 749 931 733 889 C 717 848 694 813 664 784 C 631 754 595 732 555 719 C 514 705 468 698 416 698 C 364 698 317 705 276 719 C 238 731 202 752 170 784 C 137 815 113 850 98 889 C 82 931 74 980 74 1036 Z M 301 1040 C 301 985 309 945 327 919 C 345 893 374 881 416 881 C 458 881 487 893 505 919 C 523 945 532 985 532 1040 L 532 1190 C 532 1243 523 1283 505 1311 C 487 1338 458 1352 416 1352 C 375 1352 346 1338 328 1311 C 310 1283 301 1243 301 1190 L 301 1040 Z M 365 0 L 1225 1511 L 1423 1511 L 563 0 L 365 0 Z M 1030 324 L 1030 481 C 1030 534 1038 581 1055 623 C 1073 667 1096 702 1124 729 C 1156 759 1193 781 1233 795 C 1278 810 1324 817 1372 817 C 1420 817 1466 809 1511 795 C 1550 781 1586 759 1620 729 C 1648 701 1672 666 1690 623 C 1706 582 1714 535 1714 481 L 1714 324 C 1714 268 1706 219 1690 176 C 1674 135 1651 100 1620 72 C 1590 43 1553 22 1511 8 C 1465 -7 1419 -14 1371 -14 C 1323 -14 1277 -6 1233 8 C 1191 21 1154 42 1124 72 C 1092 100 1069 135 1055 176 C 1038 219 1030 268 1030 324 Z M 1257 328 C 1257 273 1266 233 1284 207 C 1302 181 1331 168 1372 168 C 1414 168 1444 181 1462 207 C 1480 233 1489 273 1489 328 L 1489 477 C 1489 530 1480 570 1462 598 C 1444 625 1414 639 1372 639 C 1331 639 1302 625 1284 598 C 1266 570 1257 530 1257 477 L 1257 328 Z" unicode="%" />
<glyph horiz-adv-x="1443" d="M 68 420 L 68 432 C 68 480 75 525 90 567 C 105 609 125 647 150 680 C 172 708 204 739 246 772 C 284 802 326 828 373 850 C 359 866 341 891 319 924 C 303 947 289 973 276 1001 C 268 1020 260 1047 252 1083 C 245 1114 242 1145 242 1176 C 242 1228 251 1277 270 1323 C 288 1365 314 1403 350 1438 C 381 1468 423 1492 475 1511 C 523 1529 577 1538 637 1538 C 693 1538 745 1529 793 1513 C 840 1496 881 1474 915 1446 C 947 1418 975 1382 997 1337 C 1016 1297 1026 1249 1026 1192 C 1026 1107 1002 1035 956 975 C 908 913 839 858 748 809 L 1030 487 C 1042 521 1051 564 1059 616 C 1065 666 1069 714 1069 760 L 1069 776 L 1303 776 L 1303 752 C 1303 668 1294 590 1276 518 C 1258 442 1230 371 1192 305 L 1292 193 L 1401 193 L 1401 0 L 1118 0 L 1022 106 C 972 66 913 35 843 12 C 773 -11 698 -23 618 -23 C 541 -23 473 -15 414 0 C 348 16 290 42 238 78 C 187 112 146 157 115 215 C 83 271 68 339 68 420 Z M 350 420 C 350 347 373 292 420 254 C 468 214 537 195 627 195 C 678 195 725 201 768 213 C 804 223 842 242 881 268 L 502 702 C 473 685 449 667 430 649 C 413 632 398 612 385 588 C 373 566 364 542 358 518 C 352 494 350 466 350 434 L 350 420 Z M 502 1184 C 502 1159 504 1138 510 1120 C 515 1100 523 1081 535 1063 C 545 1044 557 1026 571 1008 C 581 994 598 975 621 950 C 721 1011 770 1090 770 1188 C 770 1206 766 1223 760 1241 C 753 1259 744 1273 733 1284 C 716 1300 702 1311 692 1315 C 674 1321 655 1325 637 1325 C 615 1325 596 1321 580 1313 C 566 1306 553 1296 539 1282 C 528 1271 519 1256 512 1237 C 505 1219 502 1202 502 1184 Z" unicode="&#x26;" />
<glyph horiz-adv-x="524" d="M 109 1511 L 418 1511 L 358 991 L 164 991 L 109 1511 Z" unicode="'" />
<glyph horiz-adv-x="692" d="M 96 289 L 96 954 C 96 1055 107 1140 129 1210 C 152 1285 183 1345 221 1390 C 259 1435 309 1474 369 1507 C 426 1538 490 1563 561 1581 L 633 1382 C 589 1366 552 1349 522 1331 C 489 1310 460 1283 436 1251 C 414 1222 395 1182 381 1130 C 367 1083 360 1024 360 952 L 360 291 C 360 220 367 161 381 115 C 396 61 414 20 436 -8 C 460 -40 489 -67 522 -88 C 552 -107 589 -124 633 -139 L 561 -338 C 490 -320 426 -295 369 -264 C 309 -231 259 -192 221 -147 C 183 -102 152 -42 129 33 C 107 102 96 187 96 289 Z" unicode="(" />
<glyph horiz-adv-x="692" d="M 61 -139 C 105 -123 142 -106 172 -88 C 204 -67 233 -40 258 -8 C 280 20 298 61 313 113 C 326 159 333 219 334 291 L 334 952 C 334 1022 327 1081 313 1128 C 297 1181 279 1222 258 1251 C 233 1283 204 1310 172 1331 C 142 1350 105 1367 61 1382 L 133 1581 C 203 1563 268 1538 326 1507 C 386 1474 435 1435 473 1390 C 511 1345 541 1285 565 1210 C 587 1140 598 1055 598 954 L 598 289 C 598 187 587 102 565 33 C 541 -42 511 -102 473 -147 C 435 -192 386 -231 326 -264 C 268 -295 204 -320 133 -338 L 61 -139 Z" unicode=")" />
<glyph horiz-adv-x="894" d="M 90 1085 L 348 1157 L 90 1231 L 205 1432 L 381 1262 L 330 1511 L 565 1511 L 514 1262 L 690 1432 L 805 1231 L 547 1157 L 805 1085 L 690 885 L 514 1055 L 559 805 L 336 805 L 381 1055 L 205 885 L 90 1085 Z" unicode="*" />
<glyph horiz-adv-x="1122" d="M 72 602 L 72 827 L 440 827 L 440 1229 L 682 1229 L 682 827 L 1053 827 L 1053 602 L 682 602 L 682 199 L 440 199 L 440 602 L 72 602 Z" unicode="+" />
<glyph horiz-adv-x="491" d="M 76 147 C 76 170 80 192 88 213 C 94 231 107 248 125 266 C 140 281 158 293 178 301 C 198 309 220 313 244 313 C 264 313 287 308 311 299 C 331 291 351 278 369 260 C 381 248 393 226 406 195 C 415 170 420 140 420 104 L 420 90 C 420 22 409 -36 389 -84 C 367 -133 342 -171 315 -197 C 286 -223 252 -242 213 -256 C 176 -268 141 -274 109 -274 L 94 -274 L 94 -164 L 102 -164 C 115 -164 131 -160 150 -152 C 174 -141 192 -131 203 -121 C 216 -109 229 -92 242 -70 C 252 -51 256 -30 254 -8 C 230 -12 207 -10 184 -4 C 162 1 143 11 127 27 C 110 40 98 58 90 80 C 80 102 76 125 76 147 Z" unicode="," />
<glyph horiz-adv-x="661" d="M 72 500 L 72 725 L 590 725 L 590 500 L 72 500 Z" unicode="-" />
<glyph horiz-adv-x="491" d="M 76 145 C 76 165 80 187 90 211 C 96 229 109 246 127 264 C 142 279 160 291 180 299 C 204 308 226 313 246 313 C 268 313 290 308 313 299 C 333 291 351 279 367 264 C 385 246 397 228 403 211 C 411 190 415 168 416 145 C 416 120 411 98 403 78 C 396 60 384 42 367 25 C 351 9 333 -2 313 -10 C 293 -18 270 -23 246 -23 C 222 -23 200 -18 180 -10 C 160 -2 142 9 127 25 C 109 43 96 60 90 78 C 80 102 76 124 76 145 Z" unicode="." />
<glyph horiz-adv-x="882" d="M -25 -338 L 588 1581 L 825 1581 L 213 -338 L -25 -338 Z" unicode="/" />
<glyph horiz-adv-x="1296" d="M 78 580 L 78 936 C 78 1034 91 1119 119 1192 C 147 1268 186 1331 236 1382 C 282 1430 342 1468 416 1497 C 486 1524 563 1538 647 1538 C 729 1538 807 1524 881 1497 C 951 1471 1012 1432 1063 1382 C 1111 1334 1150 1270 1180 1192 C 1207 1119 1221 1034 1221 936 L 1221 580 C 1221 477 1207 389 1180 317 C 1150 237 1111 174 1063 127 C 1012 77 951 39 881 12 C 811 -14 733 -27 647 -27 C 561 -27 484 -14 416 12 C 342 40 282 79 236 127 C 186 178 147 241 119 317 C 91 389 78 477 78 580 Z M 379 592 C 379 525 383 470 393 426 C 402 379 418 339 440 305 C 460 272 488 247 524 231 C 562 213 603 204 647 205 C 692 205 734 213 772 231 C 804 246 832 271 856 305 C 878 337 894 378 905 426 C 914 470 919 525 920 592 L 920 924 C 920 989 915 1043 905 1087 C 894 1135 878 1175 856 1208 C 832 1242 804 1266 772 1282 C 738 1298 696 1307 647 1307 C 599 1307 558 1298 524 1282 C 488 1265 460 1240 440 1208 C 418 1174 402 1133 393 1087 C 383 1043 379 988 379 924 L 379 592 Z" unicode="0" />
<glyph horiz-adv-x="856" d="M 70 1057 L 70 1309 L 336 1511 L 600 1511 L 600 193 L 813 193 L 813 0 L 72 0 L 72 193 L 305 193 L 305 1225 L 78 1057 L 70 1057 Z" unicode="1" />
<glyph horiz-adv-x="1083" d="M 27 0 L 27 170 L 473 616 C 512 655 549 695 584 737 C 611 769 636 806 659 846 C 678 877 693 911 705 948 C 714 978 719 1011 719 1049 L 719 1094 C 719 1158 699 1207 659 1243 C 621 1277 565 1294 492 1294 C 463 1294 431 1289 395 1280 C 359 1270 330 1259 307 1247 C 280 1232 255 1218 233 1204 C 209 1188 190 1175 174 1163 L 31 1360 C 54 1380 84 1403 121 1427 C 153 1449 189 1468 229 1485 C 267 1500 311 1513 362 1524 C 408 1533 462 1538 524 1538 C 596 1538 663 1528 725 1509 C 785 1489 836 1462 879 1427 C 923 1389 955 1344 977 1294 C 1000 1239 1012 1180 1012 1116 L 1012 1055 C 1012 1003 1005 954 991 909 C 979 868 956 820 924 764 C 895 714 857 664 811 614 C 757 555 702 501 645 453 L 371 211 L 762 211 L 791 362 L 1020 362 L 1020 0 L 27 0 Z" unicode="2" />
<glyph horiz-adv-x="1142" d="M 29 131 L 160 328 C 166 322 187 309 223 289 C 250 273 276 261 301 252 C 331 241 361 233 391 227 C 427 220 462 217 494 217 C 540 217 580 221 613 231 C 645 241 675 256 702 276 C 725 294 744 316 760 344 C 773 370 780 400 780 436 L 780 477 C 780 508 776 536 768 561 C 758 588 746 609 731 623 C 714 638 691 649 662 657 C 633 665 598 669 557 670 L 383 670 L 383 909 L 518 909 C 562 909 597 911 623 917 C 649 923 672 934 692 950 C 711 965 725 984 733 1006 C 741 1029 745 1057 745 1090 L 745 1118 C 745 1176 725 1221 686 1253 C 648 1283 593 1298 522 1298 C 490 1298 458 1294 424 1288 C 403 1284 374 1275 336 1262 C 302 1250 275 1238 256 1227 C 210 1201 187 1187 186 1186 L 61 1382 C 85 1401 115 1420 150 1440 C 188 1462 224 1479 258 1491 C 300 1506 343 1518 387 1526 C 435 1534 487 1538 543 1538 C 615 1538 680 1529 739 1513 C 803 1495 855 1471 897 1442 C 942 1409 977 1369 1001 1323 C 1025 1276 1038 1221 1038 1159 L 1038 1092 C 1038 1030 1023 976 995 928 C 966 880 916 841 846 811 L 846 805 C 880 794 913 777 946 754 C 973 734 996 710 1016 680 C 1034 651 1048 619 1059 584 C 1068 551 1073 514 1073 473 L 1073 408 C 1073 341 1058 279 1028 223 C 999 168 959 123 909 88 C 858 51 799 24 733 6 C 663 -13 592 -23 520 -23 C 456 -23 399 -18 350 -10 C 304 -3 261 8 219 25 C 180 39 145 56 115 74 C 98 83 69 102 29 131 Z" unicode="3" />
<glyph horiz-adv-x="1249" d="M 51 369 L 51 569 L 731 1511 L 1038 1511 L 1038 592 L 1200 592 L 1200 369 L 1038 369 L 1038 193 L 1190 193 L 1190 0 L 586 0 L 586 193 L 758 193 L 758 369 L 51 369 Z M 356 592 L 758 592 L 758 1147 L 752 1147 L 356 598 L 356 592 Z" unicode="4" />
<glyph horiz-adv-x="1120" d="M 27 127 L 160 330 C 166 324 187 311 223 291 C 247 276 274 264 303 254 C 331 244 362 235 395 229 C 431 222 466 219 500 219 C 549 219 589 224 621 236 C 655 248 684 264 707 285 C 729 304 746 328 758 358 C 770 386 776 418 776 453 L 776 522 C 776 553 772 583 764 612 C 756 640 743 666 725 688 C 707 708 683 725 653 739 C 624 751 589 757 549 758 C 517 758 491 755 471 750 C 443 742 424 734 412 727 C 394 716 379 705 369 694 C 353 678 342 667 336 659 L 98 659 L 98 1511 L 1010 1511 L 1010 1182 L 795 1182 L 766 1300 L 344 1300 L 344 870 C 371 905 408 933 456 954 C 504 974 561 985 627 985 C 703 985 769 972 825 948 C 882 922 927 890 961 852 C 996 810 1022 763 1038 711 C 1054 657 1063 601 1063 541 L 1063 446 C 1063 370 1050 305 1024 250 C 997 192 960 143 913 102 C 863 58 806 26 741 8 C 673 -12 600 -23 520 -23 C 456 -23 399 -18 350 -10 C 296 0 252 10 217 23 C 178 37 143 54 113 72 C 82 90 53 108 27 127 Z" unicode="5" />
<glyph horiz-adv-x="1245" d="M 72 561 L 72 907 C 72 986 80 1056 96 1118 C 114 1186 135 1240 160 1280 C 187 1325 220 1365 258 1399 C 293 1430 333 1457 379 1479 C 418 1498 464 1513 516 1524 C 560 1533 607 1538 659 1538 C 713 1538 766 1534 817 1528 C 861 1522 901 1513 938 1499 C 972 1487 1004 1471 1034 1452 C 1072 1427 1100 1407 1120 1393 L 975 1186 C 955 1199 934 1213 911 1227 C 886 1242 864 1254 844 1262 C 818 1272 792 1280 768 1286 C 744 1291 714 1294 678 1294 C 634 1294 593 1288 555 1276 C 519 1265 487 1244 457 1214 C 431 1188 409 1149 391 1098 C 374 1048 366 988 367 918 L 367 834 C 405 887 451 926 506 952 C 563 979 629 993 705 993 C 771 993 833 983 891 963 C 949 942 999 912 1040 872 C 1082 831 1115 781 1141 723 C 1164 667 1176 598 1176 516 L 1176 459 C 1176 378 1162 310 1135 254 C 1106 194 1068 144 1020 104 C 969 62 912 31 850 12 C 780 -10 709 -20 635 -20 C 561 -20 488 -8 416 14 C 349 36 289 71 236 121 C 185 167 145 227 117 301 C 87 379 72 465 72 561 Z M 367 473 C 367 423 373 382 387 350 C 401 317 419 289 442 266 C 464 244 491 227 524 217 C 552 207 585 203 623 203 C 661 203 694 207 723 217 C 751 226 779 242 805 264 C 829 284 848 312 862 346 C 875 378 882 419 883 469 L 883 508 C 883 558 876 599 862 631 C 845 667 827 695 809 713 C 785 733 758 749 727 760 C 698 769 664 774 625 774 C 588 774 555 769 526 760 C 494 749 467 734 444 715 C 421 695 402 669 387 635 C 373 603 367 562 367 512 L 367 473 Z" unicode="6" />
<glyph horiz-adv-x="1177" d="M 55 1061 L 55 1511 L 1130 1511 L 1130 1323 L 547 0 L 227 0 L 811 1300 L 309 1300 L 274 1061 L 55 1061 Z" unicode="7" />
<glyph horiz-adv-x="1277" d="M 72 420 L 72 463 C 72 506 78 545 90 580 C 103 618 119 650 139 678 C 159 706 185 732 215 754 C 242 774 276 793 317 811 C 285 826 260 841 242 856 C 217 875 198 896 184 918 C 167 942 155 969 147 997 C 137 1031 133 1064 133 1096 L 133 1135 C 133 1205 146 1265 172 1313 C 199 1363 235 1405 281 1438 C 321 1468 375 1491 442 1509 C 503 1525 568 1534 637 1534 C 703 1534 767 1525 829 1509 C 893 1491 946 1467 989 1438 C 1034 1405 1070 1363 1098 1313 C 1124 1265 1137 1205 1137 1135 L 1137 1096 C 1137 1060 1132 1028 1124 999 C 1114 967 1102 941 1087 920 C 1069 895 1049 874 1029 858 C 1009 842 984 827 956 813 C 996 795 1031 776 1059 756 C 1085 736 1111 710 1137 678 C 1157 652 1174 619 1188 580 C 1200 545 1206 506 1206 463 L 1206 420 C 1206 350 1191 287 1163 231 C 1133 173 1093 127 1044 92 C 990 54 930 26 864 8 C 791 -11 715 -20 636 -20 C 557 -20 482 -10 410 8 C 342 26 282 54 231 92 C 181 128 142 175 114 231 C 86 287 72 350 72 420 Z M 373 440 C 373 404 379 370 393 336 C 405 304 422 279 446 260 C 468 242 496 227 530 217 C 560 207 595 203 637 203 C 679 203 715 207 745 217 C 777 227 806 241 831 260 C 853 276 870 302 884 336 C 898 370 905 404 905 440 L 905 471 C 905 509 898 543 885 575 C 871 607 853 632 831 649 C 806 667 777 682 745 692 C 715 701 679 706 637 707 C 596 707 560 702 530 692 C 496 681 468 667 446 649 C 424 631 407 607 393 575 C 379 543 373 509 373 471 L 373 440 Z M 418 1098 C 418 1038 437 990 475 956 C 513 922 566 905 636 905 C 706 905 759 922 795 956 C 833 991 852 1038 852 1098 L 852 1116 C 852 1177 833 1226 795 1262 C 759 1296 707 1313 637 1313 C 567 1313 513 1295 475 1261 C 437 1227 418 1178 418 1116 L 418 1098 Z" unicode="8" />
<glyph horiz-adv-x="1245" d="M 72 985 L 72 1059 C 72 1133 87 1201 117 1264 C 147 1325 186 1375 236 1415 C 287 1455 346 1486 414 1507 C 482 1527 554 1538 630 1538 C 706 1538 778 1526 846 1503 C 911 1480 968 1445 1018 1399 C 1067 1352 1106 1291 1135 1217 C 1162 1147 1176 1060 1176 956 L 1176 582 C 1176 472 1159 379 1126 303 C 1092 223 1048 161 995 117 C 940 70 876 35 803 12 C 733 -10 657 -20 573 -20 C 522 -20 472 -16 422 -10 C 385 -4 342 5 293 20 C 256 32 220 46 186 63 C 158 76 129 94 98 117 L 225 330 C 273 297 320 272 367 254 C 423 233 485 223 555 223 C 609 223 655 228 692 240 C 730 250 764 270 795 299 C 823 325 844 360 858 406 C 873 454 881 509 881 571 L 881 670 C 848 619 804 579 748 549 C 697 521 634 508 559 508 C 489 508 425 518 365 539 C 303 561 252 591 211 629 C 165 671 131 720 109 778 C 84 838 72 907 72 985 Z M 365 993 C 365 942 371 901 385 870 C 400 834 419 807 442 788 C 468 766 495 750 524 741 C 552 731 586 727 625 727 C 661 727 694 731 723 741 C 754 751 781 767 805 788 C 827 808 845 836 860 872 C 873 904 880 945 881 995 L 881 1051 C 881 1101 874 1143 860 1176 C 845 1210 827 1239 805 1262 C 783 1284 755 1300 723 1311 C 690 1321 657 1327 625 1327 C 591 1327 557 1321 524 1311 C 496 1301 469 1284 442 1260 C 418 1238 399 1209 385 1174 C 371 1141 365 1099 365 1049 L 365 993 Z" unicode="9" />
<glyph horiz-adv-x="512" d="M 86 145 C 86 168 90 190 98 211 C 104 229 117 246 135 264 C 150 279 168 291 188 299 C 212 308 235 313 256 313 C 276 313 299 308 324 299 C 344 291 362 279 377 264 C 395 246 407 228 414 211 C 422 190 426 168 426 145 C 426 120 422 98 414 78 C 407 60 395 42 377 25 C 361 9 343 -2 323 -10 C 303 -18 280 -23 256 -23 C 231 -23 208 -18 188 -10 C 168 -2 150 9 135 25 C 117 43 104 60 98 78 C 90 98 86 120 86 145 Z M 86 721 C 86 745 90 768 98 788 C 104 804 117 821 135 839 C 153 857 170 869 188 877 C 208 885 231 889 256 889 C 280 889 303 885 324 877 C 342 870 359 858 377 840 C 394 822 406 804 414 788 C 422 767 426 745 426 721 C 426 697 422 675 414 655 C 407 637 395 619 377 601 C 359 583 341 571 324 565 C 303 557 280 553 256 553 C 231 553 208 557 188 565 C 170 571 152 584 135 602 C 117 620 105 637 98 655 C 90 675 86 697 86 721 Z" unicode=":" />
<glyph horiz-adv-x="512" d="M 86 147 C 86 170 90 192 98 213 C 106 233 118 251 133 266 C 148 281 166 293 186 301 C 206 309 229 313 254 313 C 276 313 298 308 322 299 C 340 292 358 279 377 260 C 393 243 406 221 414 195 C 423 163 428 133 428 104 L 428 90 C 428 17 418 -40 399 -84 C 378 -130 353 -168 324 -197 C 295 -224 261 -244 223 -256 C 186 -268 151 -274 119 -274 L 104 -274 L 104 -164 L 113 -164 C 125 -164 140 -160 160 -152 C 184 -141 202 -131 213 -121 C 226 -109 239 -92 252 -70 C 262 -51 266 -30 264 -8 C 239 -12 215 -10 193 -4 C 171 1 151 11 135 27 C 118 40 106 58 98 80 C 90 100 86 122 86 147 Z M 86 721 C 86 745 90 768 98 788 C 104 804 117 821 135 839 C 153 857 170 869 188 877 C 208 885 231 889 256 889 C 280 889 303 885 324 877 C 342 870 359 858 377 840 C 394 822 406 804 414 788 C 422 767 426 745 426 721 C 426 697 422 675 414 655 C 407 637 395 619 377 601 C 359 583 341 571 324 565 C 303 557 280 553 256 553 C 231 553 208 557 188 565 C 170 571 152 584 135 602 C 117 620 105 637 98 655 C 90 675 86 697 86 721 Z" unicode=";" />
<glyph horiz-adv-x="1015" d="M 78 582 L 78 803 L 938 1171 L 938 909 L 399 696 L 399 684 L 938 469 L 938 211 L 78 582 Z" unicode="&#x3C;" />
<glyph horiz-adv-x="1040" d="M 72 356 L 72 582 L 971 582 L 971 356 L 72 356 Z M 72 766 L 72 991 L 971 991 L 971 766 L 72 766 Z" unicode="=" />
<glyph horiz-adv-x="1015" d="M 78 211 L 78 473 L 616 686 L 616 698 L 78 913 L 78 1171 L 938 801 L 938 580 L 78 211 Z" unicode="&#x3E;" />
<glyph horiz-adv-x="1042" d="M 55 1350 C 81 1380 107 1405 135 1425 C 167 1449 202 1469 240 1485 C 278 1501 318 1514 362 1524 C 404 1533 452 1538 506 1538 C 568 1538 630 1530 690 1516 C 742 1504 791 1480 838 1446 C 877 1417 910 1377 938 1325 C 961 1279 973 1223 973 1157 L 973 1096 C 973 1056 969 1022 961 993 C 951 959 940 931 926 911 C 908 885 886 860 862 838 C 833 812 802 786 770 760 L 678 686 C 656 668 636 648 618 628 C 600 608 589 590 584 575 C 577 554 573 534 573 514 L 573 459 L 334 459 L 334 524 C 334 556 338 592 348 631 C 354 657 367 687 387 721 C 400 744 421 771 451 803 C 475 829 504 856 537 883 C 575 915 596 934 602 938 C 621 956 636 971 647 985 C 660 1004 670 1021 676 1036 C 682 1056 686 1077 686 1098 L 686 1143 C 686 1171 681 1194 672 1212 C 661 1231 647 1247 631 1260 C 617 1270 597 1279 569 1286 C 548 1291 523 1294 494 1294 C 469 1294 439 1291 403 1286 C 381 1282 357 1274 332 1264 C 309 1254 288 1241 270 1227 C 245 1207 226 1191 213 1178 L 55 1350 Z M 287 145 C 287 168 291 190 299 211 C 305 229 318 246 336 264 C 351 279 369 291 389 299 C 413 308 436 313 456 313 C 476 313 499 308 524 299 C 544 291 562 279 578 264 C 596 246 608 228 614 211 C 622 190 626 168 627 145 C 627 120 622 98 614 78 C 607 60 595 42 578 25 C 562 9 544 -2 524 -10 C 504 -18 481 -23 457 -23 C 432 -23 409 -18 389 -10 C 368 -2 350 9 336 25 C 318 43 305 60 299 78 C 291 98 287 120 287 145 Z" unicode="?" />
<glyph horiz-adv-x="1716" d="M 79 582 L 88 664 C 103 804 134 925 182 1026 C 231 1128 293 1213 368 1280 C 443 1346 529 1396 626 1430 C 718 1461 820 1477 931 1477 C 1049 1477 1157 1459 1255 1425 C 1350 1391 1433 1338 1503 1268 C 1569 1200 1619 1112 1652 1006 C 1684 903 1693 781 1679 639 L 1671 557 C 1665 493 1652 436 1634 385 C 1616 335 1590 290 1556 250 C 1523 210 1485 181 1443 162 C 1397 141 1347 131 1292 131 C 1147 131 1055 183 1017 287 C 1007 270 992 248 970 221 C 953 200 933 182 911 168 C 886 151 861 139 835 133 C 806 125 775 121 743 121 C 689 121 642 131 602 152 C 560 174 525 203 499 240 C 470 280 451 329 442 385 C 431 446 430 512 440 582 L 454 686 C 462 752 477 808 499 852 C 519 892 547 928 583 960 C 618 992 655 1013 694 1024 C 734 1036 779 1042 827 1042 C 857 1042 888 1037 921 1028 C 944 1021 969 1009 995 993 C 1017 979 1036 962 1052 942 C 1065 924 1078 902 1091 877 C 1099 900 1105 917 1110 928 C 1112 934 1116 943 1121 953 C 1125 963 1128 970 1130 973 C 1134 982 1139 994 1146 1008 C 1150 1016 1154 1020 1159 1020 L 1327 1020 L 1239 436 C 1231 381 1232 341 1243 315 C 1253 290 1275 278 1310 279 C 1332 279 1355 284 1380 295 C 1402 304 1421 321 1437 346 C 1455 372 1469 402 1480 438 C 1490 474 1499 521 1507 578 L 1513 641 C 1525 775 1518 886 1493 975 C 1465 1067 1426 1140 1374 1192 C 1319 1246 1253 1285 1177 1307 C 1096 1330 1013 1341 927 1341 C 875 1341 820 1335 763 1325 C 711 1315 661 1299 613 1276 C 565 1252 522 1223 483 1188 C 442 1151 406 1107 374 1055 C 341 1001 315 942 296 877 C 275 810 261 733 253 645 L 247 582 C 235 458 240 347 262 250 C 282 158 317 82 366 23 C 415 -35 477 -78 552 -106 C 627 -133 712 -147 806 -147 C 874 -147 938 -140 999 -127 C 1069 -110 1132 -87 1187 -59 L 1249 -180 C 1181 -212 1108 -238 1030 -256 C 956 -272 882 -281 808 -281 C 687 -281 579 -262 483 -225 C 387 -188 307 -134 241 -63 C 177 6 130 96 102 207 C 73 317 65 442 79 582 Z M 677 451 C 679 413 686 385 696 367 C 708 343 724 326 745 315 C 767 303 795 297 829 297 C 931 297 993 368 1013 510 L 1013 508 L 1028 604 C 1037 688 1029 750 1005 790 C 980 830 936 850 874 850 C 845 850 822 846 804 840 C 782 832 765 820 753 805 C 737 787 726 766 718 743 C 708 713 702 683 698 653 L 684 565 C 676 521 674 483 677 451 Z" unicode="@" />
<glyph horiz-adv-x="1619" d="M 39 0 L 39 193 L 174 193 L 602 1313 L 424 1313 L 424 1511 L 934 1511 L 1450 193 L 1583 193 L 1583 0 L 958 0 L 958 193 L 1130 193 L 1057 397 L 518 397 L 446 193 L 606 193 L 606 0 L 39 0 Z M 590 598 L 983 598 L 791 1135 L 782 1135 L 590 598 Z" unicode="A" />
<glyph horiz-adv-x="1415" d="M 39 0 L 39 199 L 215 199 L 215 1319 L 39 1319 L 39 1511 L 801 1511 C 870 1511 938 1502 1006 1485 C 1063 1469 1115 1444 1161 1409 C 1204 1376 1237 1335 1260 1286 C 1283 1235 1294 1180 1294 1120 L 1294 1081 C 1294 1051 1290 1023 1282 997 C 1274 971 1261 946 1245 922 C 1229 900 1208 878 1180 858 C 1152 838 1121 822 1085 809 L 1085 803 C 1133 789 1173 772 1206 752 C 1240 729 1269 702 1292 672 C 1314 643 1331 610 1343 573 C 1355 538 1361 501 1362 463 L 1362 424 C 1362 361 1349 303 1325 250 C 1300 195 1267 150 1225 115 C 1185 81 1133 53 1067 31 C 1005 10 937 0 862 0 L 39 0 Z M 516 219 L 842 219 C 870 219 897 223 922 233 C 952 245 975 258 993 274 C 1012 292 1028 315 1042 344 C 1054 371 1060 402 1061 438 L 1061 465 C 1061 497 1055 529 1044 559 C 1034 586 1019 610 999 631 C 979 650 956 665 930 676 C 901 686 872 692 842 692 L 516 692 L 516 219 Z M 516 889 L 795 889 C 821 889 847 892 874 899 C 897 904 919 915 940 932 C 958 945 972 965 983 991 C 993 1017 999 1046 999 1079 L 999 1106 C 999 1141 993 1171 981 1196 C 969 1219 952 1238 932 1253 C 914 1265 890 1274 860 1281 C 830 1288 803 1292 780 1292 L 516 1292 L 516 889 Z" unicode="B" />
<glyph horiz-adv-x="1363" d="M 78 647 L 78 868 C 78 937 85 1004 100 1069 C 113 1129 134 1185 164 1237 C 191 1287 223 1331 260 1368 C 298 1406 339 1437 385 1462 C 434 1489 482 1508 530 1520 C 580 1532 634 1538 692 1538 C 732 1538 773 1534 815 1528 C 843 1522 876 1512 913 1497 C 943 1485 968 1469 989 1450 C 1016 1425 1034 1405 1044 1391 C 1045 1396 1047 1404 1049 1414 C 1051 1424 1053 1432 1053 1436 C 1054 1441 1056 1448 1058 1458 C 1060 1468 1061 1473 1061 1475 C 1061 1477 1063 1486 1069 1501 C 1071 1507 1075 1511 1079 1511 L 1280 1511 L 1280 1073 L 1044 1073 C 1023 1155 986 1215 932 1253 C 878 1289 811 1308 731 1309 C 676 1309 628 1300 588 1282 C 546 1264 509 1236 479 1200 C 447 1162 424 1115 408 1059 C 391 1001 383 934 383 856 L 383 659 C 383 578 392 511 410 457 C 428 401 453 354 486 317 C 518 280 556 253 600 235 C 644 217 692 209 745 209 C 801 209 849 215 889 229 C 924 241 960 259 997 283 C 1023 299 1051 322 1081 352 C 1105 376 1127 400 1145 422 L 1325 262 C 1305 234 1277 201 1241 162 C 1212 130 1172 100 1122 70 C 1075 41 1020 18 958 0 C 896 -18 824 -27 741 -27 C 644 -27 555 -12 473 16 C 393 43 324 87 264 147 C 204 207 158 278 127 358 C 94 442 78 538 78 647 Z" unicode="C" />
<glyph horiz-adv-x="1505" d="M 39 0 L 39 193 L 215 193 L 215 1313 L 39 1313 L 39 1511 L 758 1511 C 860 1511 952 1496 1034 1468 C 1118 1438 1188 1397 1243 1346 C 1299 1291 1342 1223 1374 1143 C 1405 1061 1421 968 1421 864 L 1421 651 C 1421 545 1405 451 1374 369 C 1344 289 1300 222 1243 166 C 1187 111 1117 69 1034 41 C 956 13 864 0 758 0 L 39 0 Z M 516 217 L 737 217 C 797 217 849 226 895 244 C 944 263 984 290 1016 326 C 1048 362 1073 409 1090 465 C 1108 525 1116 591 1116 664 L 1116 852 C 1116 924 1107 991 1090 1051 C 1073 1105 1048 1151 1016 1188 C 986 1222 945 1247 895 1265 C 844 1283 791 1292 737 1292 L 516 1292 L 516 217 Z" unicode="D" />
<glyph horiz-adv-x="1316" d="M 39 0 L 39 193 L 215 193 L 215 1313 L 39 1313 L 39 1511 L 1225 1511 L 1225 1122 L 987 1122 L 963 1300 L 516 1300 L 516 889 L 748 889 L 764 997 L 963 997 L 963 557 L 764 557 L 745 678 L 516 678 L 516 211 L 1008 211 L 1036 410 L 1274 410 L 1274 0 L 39 0 Z" unicode="E" />
<glyph horiz-adv-x="1323" d="M 39 0 L 39 193 L 215 193 L 215 1313 L 39 1313 L 39 1511 L 1274 1511 L 1274 1112 L 1036 1112 L 1012 1300 L 516 1300 L 516 860 L 778 860 L 795 989 L 993 989 L 993 514 L 795 514 L 776 649 L 516 649 L 516 193 L 705 193 L 705 0 L 39 0 Z" unicode="F" />
<glyph horiz-adv-x="1415" d="M 78 647 L 78 868 C 78 973 93 1069 125 1155 C 156 1239 198 1310 252 1366 C 305 1420 371 1463 449 1493 C 528 1523 610 1538 696 1538 C 780 1538 851 1525 907 1499 C 960 1474 1007 1439 1047 1393 C 1048 1398 1050 1406 1052 1416 C 1054 1426 1055 1434 1055 1438 C 1056 1443 1058 1450 1060 1459 C 1062 1468 1063 1473 1063 1475 C 1064 1477 1067 1486 1071 1501 C 1073 1507 1077 1511 1081 1511 L 1282 1511 L 1282 1094 L 1047 1094 C 1026 1168 988 1221 934 1255 C 878 1290 810 1308 731 1309 C 677 1309 630 1300 590 1282 C 546 1262 509 1235 479 1200 C 447 1162 424 1115 408 1059 C 391 1001 383 934 383 856 L 383 659 C 383 582 392 513 410 453 C 425 398 449 351 481 313 C 511 277 548 251 594 233 C 640 215 688 206 737 207 C 841 207 919 233 971 287 C 1021 339 1047 418 1047 526 L 1047 582 L 821 582 L 821 795 L 1339 795 L 1339 514 C 1339 430 1325 354 1298 285 C 1273 222 1234 165 1180 115 C 1130 69 1067 34 991 8 C 921 -15 837 -27 737 -27 C 639 -27 551 -13 475 14 C 394 42 324 84 266 139 C 206 195 159 265 127 350 C 94 433 78 532 78 647 Z" unicode="G" />
<glyph horiz-adv-x="1638" d="M 39 0 L 39 193 L 215 193 L 215 1313 L 39 1313 L 39 1511 L 684 1511 L 684 1313 L 516 1313 L 516 889 L 1124 889 L 1124 1313 L 956 1313 L 956 1511 L 1602 1511 L 1602 1313 L 1425 1313 L 1425 193 L 1602 193 L 1602 0 L 956 0 L 956 193 L 1124 193 L 1124 678 L 516 678 L 516 193 L 684 193 L 684 0 L 39 0 Z" unicode="H" />
<glyph horiz-adv-x="768" d="M 39 0 L 39 193 L 233 193 L 233 1313 L 39 1313 L 39 1511 L 729 1511 L 729 1313 L 535 1313 L 535 193 L 729 193 L 729 0 L 39 0 Z" unicode="I" />
<glyph horiz-adv-x="1003" d="M 6 61 L 109 274 C 111 272 116 270 123 268 C 129 265 135 262 139 260 C 147 256 162 250 184 242 C 190 239 208 235 238 229 C 258 225 279 223 299 223 C 329 223 356 227 379 236 C 402 244 422 257 438 276 C 454 294 467 318 475 348 C 484 380 489 416 489 455 L 489 1313 L 293 1313 L 293 1511 L 965 1511 L 965 1313 L 791 1313 L 791 440 C 791 363 780 296 760 240 C 740 186 710 138 668 96 C 631 59 584 30 528 10 C 472 -10 411 -20 344 -20 C 312 -20 273 -17 227 -12 C 185 -6 154 -1 135 4 C 103 13 79 22 63 31 C 35 44 16 54 6 61 Z" unicode="J" />
<glyph horiz-adv-x="1576" d="M 39 0 L 39 193 L 215 193 L 215 1313 L 39 1313 L 39 1511 L 684 1511 L 684 1313 L 516 1313 L 516 727 L 1044 1313 L 928 1313 L 928 1511 L 1483 1511 L 1483 1313 L 1364 1313 L 920 858 L 1421 193 L 1540 193 L 1540 0 L 936 0 L 936 193 L 1065 193 L 717 649 L 516 444 L 516 193 L 684 193 L 684 0 L 39 0 Z" unicode="K" />
<glyph horiz-adv-x="1255" d="M 39 0 L 39 193 L 215 193 L 215 1313 L 39 1313 L 39 1511 L 707 1511 L 707 1313 L 516 1313 L 516 211 L 952 211 L 981 446 L 1219 446 L 1219 0 L 39 0 Z" unicode="L" />
<glyph horiz-adv-x="1861" d="M 39 0 L 39 193 L 215 193 L 215 1313 L 39 1313 L 39 1511 L 573 1511 L 924 670 L 932 670 L 1276 1511 L 1823 1511 L 1823 1313 L 1647 1313 L 1647 193 L 1823 193 L 1823 0 L 1178 0 L 1178 193 L 1346 193 L 1346 1094 L 1337 1094 L 1018 295 L 795 295 L 473 1094 L 465 1094 L 465 193 L 633 193 L 633 0 L 39 0 Z" unicode="M" />
<glyph horiz-adv-x="1626" d="M 39 0 L 39 193 L 215 193 L 215 1313 L 39 1313 L 39 1511 L 524 1511 L 1171 438 L 1180 438 L 1180 1313 L 1012 1313 L 1012 1511 L 1589 1511 L 1589 1313 L 1427 1313 L 1427 0 L 1118 0 L 471 1071 L 463 1071 L 463 193 L 631 193 L 631 0 L 39 0 Z" unicode="N" />
<glyph horiz-adv-x="1492" d="M 78 651 L 78 864 C 78 970 95 1067 131 1153 C 165 1236 212 1306 274 1364 C 336 1422 407 1465 487 1493 C 573 1523 659 1538 745 1538 C 832 1538 919 1523 1006 1493 C 1088 1464 1159 1421 1221 1364 C 1282 1306 1330 1236 1364 1153 C 1399 1067 1417 970 1417 864 L 1417 651 C 1417 540 1399 442 1364 356 C 1328 270 1281 199 1221 143 C 1162 88 1090 46 1006 16 C 924 -12 837 -27 745 -27 C 655 -27 569 -12 487 16 C 405 44 334 87 274 143 C 214 199 166 270 131 356 C 95 442 78 540 78 651 Z M 383 664 C 383 583 392 515 410 461 C 430 398 455 350 483 317 C 517 279 555 251 598 233 C 642 215 691 206 745 206 C 799 206 848 215 892 233 C 936 251 975 279 1010 317 C 1041 352 1066 400 1085 461 C 1103 515 1112 583 1112 664 L 1112 852 C 1112 932 1103 1000 1085 1055 C 1065 1113 1040 1160 1009 1196 C 978 1231 939 1258 893 1278 C 849 1296 799 1305 745 1305 C 691 1305 642 1296 598 1278 C 554 1260 515 1232 483 1196 C 453 1163 428 1116 410 1055 C 392 1000 383 932 383 852 L 383 664 Z" unicode="O" />
<glyph horiz-adv-x="1372" d="M 39 0 L 39 193 L 215 193 L 215 1313 L 39 1313 L 39 1511 L 780 1511 C 872 1511 952 1500 1018 1479 C 1090 1454 1148 1422 1190 1384 C 1238 1340 1272 1293 1292 1243 C 1315 1185 1327 1125 1327 1061 L 1327 1014 C 1327 950 1314 890 1290 834 C 1266 782 1230 735 1182 694 C 1134 654 1076 624 1009 604 C 942 583 866 573 780 573 L 516 573 L 516 193 L 684 193 L 684 0 L 39 0 Z M 516 791 L 760 791 C 848 791 914 811 956 852 C 1000 892 1022 950 1022 1024 L 1022 1059 C 1022 1133 1000 1190 956 1231 C 914 1271 848 1292 760 1292 L 516 1292 L 516 791 Z" unicode="P" />
<glyph horiz-adv-x="1492" d="M 78 651 L 78 864 C 78 970 95 1067 131 1153 C 165 1236 212 1306 274 1364 C 336 1422 407 1465 487 1493 C 573 1523 659 1538 745 1538 C 832 1538 919 1523 1006 1493 C 1088 1464 1159 1421 1221 1364 C 1282 1306 1330 1236 1364 1153 C 1399 1067 1417 970 1417 864 L 1417 651 C 1417 562 1406 483 1386 414 C 1366 351 1337 292 1298 236 C 1260 182 1214 139 1161 106 C 1103 70 1045 45 985 31 L 1389 -47 L 1337 -274 L 518 -115 L 545 6 C 481 21 418 47 358 84 C 303 116 254 161 210 219 C 166 276 134 339 113 408 C 89 481 78 562 78 651 Z M 383 657 C 383 576 392 509 410 455 C 430 392 455 344 483 311 C 517 273 555 245 598 227 C 642 209 691 200 745 201 C 798 201 849 209 899 227 C 947 245 986 271 1016 307 C 1047 345 1071 392 1087 449 C 1103 506 1112 575 1112 657 L 1112 852 C 1112 932 1103 1000 1085 1055 C 1065 1113 1040 1160 1009 1196 C 978 1231 939 1258 893 1278 C 849 1296 799 1305 745 1305 C 691 1305 642 1296 598 1278 C 554 1260 515 1232 483 1196 C 453 1163 428 1116 410 1055 C 392 1000 383 932 383 852 L 383 657 Z" unicode="Q" />
<glyph horiz-adv-x="1480" d="M 39 0 L 39 193 L 215 193 L 215 1313 L 39 1313 L 39 1511 L 797 1511 C 879 1511 956 1500 1028 1479 C 1097 1457 1154 1427 1198 1391 C 1243 1353 1278 1306 1303 1251 C 1327 1197 1339 1137 1339 1071 L 1339 1024 C 1339 977 1332 934 1319 895 C 1303 851 1284 814 1260 784 C 1231 750 1200 720 1167 696 C 1131 671 1090 650 1044 633 L 1284 193 L 1442 193 L 1442 0 L 1067 0 L 743 594 L 516 594 L 516 193 L 684 193 L 684 0 L 39 0 Z M 516 811 L 776 811 C 859 811 923 830 967 868 C 1012 906 1034 962 1034 1034 L 1034 1069 C 1034 1141 1011 1196 967 1235 C 923 1273 859 1292 776 1292 L 516 1292 L 516 811 Z" unicode="R" />
<glyph horiz-adv-x="1243" d="M 57 0 L 57 465 L 291 465 C 304 413 320 372 338 344 C 360 310 384 283 410 264 C 438 243 470 229 506 221 C 546 211 586 207 625 207 C 678 207 724 212 764 223 C 799 232 829 247 854 268 C 876 286 891 308 899 334 C 908 362 913 390 913 416 C 913 454 905 486 891 512 C 877 536 856 556 827 571 C 799 586 766 598 727 606 C 690 614 646 622 594 631 C 514 645 442 662 379 680 C 315 698 262 725 219 760 C 173 796 140 841 119 895 C 95 952 84 1024 84 1110 C 84 1182 95 1244 119 1294 C 143 1348 177 1394 219 1430 C 259 1465 310 1492 370 1511 C 430 1530 494 1540 561 1540 C 643 1540 712 1527 768 1501 C 821 1476 862 1442 891 1399 C 893 1407 896 1420 900 1439 C 903 1458 906 1472 909 1481 C 914 1501 920 1511 926 1511 L 1126 1511 L 1126 1098 L 901 1098 C 890 1134 877 1164 862 1188 C 844 1216 824 1239 803 1255 C 778 1273 749 1288 717 1298 C 687 1307 649 1312 604 1313 C 518 1313 454 1296 413 1263 C 372 1230 352 1183 352 1122 C 352 1074 360 1038 377 1012 C 390 988 413 969 446 954 C 477 938 515 928 559 924 C 598 918 649 910 711 899 C 787 885 852 870 905 852 C 962 831 1013 803 1059 768 C 1101 734 1134 689 1159 635 C 1183 580 1196 512 1196 430 C 1196 368 1184 309 1161 252 C 1139 197 1105 149 1061 109 C 1017 69 961 38 895 15 C 828 -8 752 -20 666 -20 C 582 -20 508 -7 444 18 C 382 42 332 82 293 137 C 285 78 279 45 276 37 C 270 12 264 0 258 0 L 57 0 Z" unicode="S" />
<glyph horiz-adv-x="1402" d="M 47 1081 L 47 1511 L 1356 1511 L 1356 1081 L 1118 1081 L 1094 1300 L 852 1300 L 852 193 L 1028 193 L 1028 0 L 375 0 L 375 193 L 551 193 L 551 1300 L 309 1300 L 285 1081 L 47 1081 Z" unicode="T" />
<glyph horiz-adv-x="1583" d="M 39 1313 L 39 1511 L 664 1511 L 664 1313 L 496 1313 L 496 565 C 496 506 503 453 518 406 C 532 360 553 323 580 295 C 604 267 638 246 680 231 C 716 217 762 211 817 211 C 869 211 913 217 950 231 C 989 246 1022 267 1049 295 C 1075 323 1096 360 1110 406 C 1123 448 1130 501 1130 565 L 1130 1313 L 963 1313 L 963 1511 L 1546 1511 L 1546 1313 L 1391 1313 L 1391 551 C 1391 454 1378 371 1352 301 C 1324 228 1287 168 1239 121 C 1192 74 1131 38 1057 12 C 985 -12 903 -25 811 -25 C 719 -25 635 -12 559 12 C 483 36 419 73 365 121 C 309 170 267 229 240 299 C 210 374 195 458 195 551 L 195 1313 L 39 1313 Z" unicode="U" />
<glyph horiz-adv-x="1605" d="M 39 1313 L 39 1511 L 659 1511 L 659 1313 L 483 1313 L 823 387 L 831 387 L 1167 1313 L 1001 1313 L 1001 1511 L 1567 1511 L 1567 1313 L 1438 1313 L 926 -14 L 688 -14 L 168 1313 L 39 1313 Z" unicode="V" />
<glyph horiz-adv-x="2273" d="M 39 1313 L 39 1511 L 649 1511 L 649 1313 L 473 1313 L 705 446 L 713 446 L 1044 1511 L 1253 1511 L 1606 451 L 1614 451 L 1845 1313 L 1679 1313 L 1679 1511 L 2236 1511 L 2236 1313 L 2107 1313 L 1714 -14 L 1464 -14 L 1141 1010 L 1130 1010 L 799 -14 L 559 -14 L 168 1313 L 39 1313 Z" unicode="W" />
<glyph horiz-adv-x="1589" d="M 39 0 L 39 199 L 176 199 L 598 772 L 184 1313 L 68 1313 L 68 1511 L 711 1511 L 711 1313 L 557 1313 L 829 934 L 836 934 L 1087 1313 L 930 1313 L 930 1511 L 1489 1511 L 1489 1313 L 1370 1313 L 985 756 L 1423 199 L 1552 199 L 1552 0 L 874 0 L 874 199 L 1047 199 L 754 598 L 748 598 L 461 199 L 604 199 L 604 0 L 39 0 Z" unicode="X" />
<glyph horiz-adv-x="1529" d="M 39 1313 L 39 1511 L 676 1511 L 676 1313 L 500 1313 L 805 762 L 813 762 L 1094 1313 L 928 1313 L 928 1511 L 1491 1511 L 1491 1313 L 1362 1313 L 930 532 L 930 193 L 1106 193 L 1106 0 L 453 0 L 453 193 L 629 193 L 629 530 L 168 1313 L 39 1313 Z" unicode="Y" />
<glyph horiz-adv-x="1333" d="M 76 0 L 76 205 L 897 1292 L 897 1300 L 393 1300 L 369 1139 L 133 1139 L 133 1511 L 1262 1511 L 1262 1305 L 440 219 L 440 211 L 985 211 L 1014 393 L 1249 393 L 1249 0 L 76 0 Z" unicode="Z" />
<glyph horiz-adv-x="692" d="M 106 -338 L 106 1581 L 633 1581 L 633 1382 L 360 1382 L 360 -145 L 633 -145 L 633 -338 L 106 -338 Z" unicode="[" />
<glyph horiz-adv-x="882" d="M 57 1581 L 295 1581 L 907 -338 L 670 -338 L 57 1581 Z" unicode="\" />
<glyph horiz-adv-x="692" d="M 61 -145 L 334 -145 L 334 1382 L 61 1382 L 61 1581 L 588 1581 L 588 -338 L 61 -338 L 61 -145 Z" unicode="]" />
<glyph horiz-adv-x="722" d="M 72 602 L 72 827 L 651 827 L 651 602 L 72 602 Z" unicode="^" />
<glyph horiz-adv-x="856" d="M -14 -201 L 872 -201 L 872 -393 L -14 -393 L -14 -201 Z" unicode="_" />
<glyph horiz-adv-x="1003" d="M 193 1511 L 492 1511 L 666 1169 L 432 1169 L 193 1511 Z" unicode="`" />
<glyph horiz-adv-x="1185" d="M 43 317 L 43 336 C 43 380 54 423 76 467 C 96 506 126 541 166 571 C 205 599 251 622 305 639 C 361 655 421 664 485 664 C 546 664 596 658 635 647 C 678 635 715 620 745 604 L 745 614 C 745 693 726 752 688 791 C 648 830 589 850 510 850 C 485 850 451 847 408 842 C 372 838 341 831 313 823 C 309 821 297 818 277 813 C 257 807 243 803 233 801 C 204 791 183 783 170 776 L 88 979 C 115 994 144 1008 176 1020 C 196 1028 231 1039 281 1053 C 308 1061 349 1068 403 1075 C 442 1080 490 1083 547 1083 C 621 1083 686 1073 743 1053 C 804 1031 853 1002 891 967 C 930 930 961 883 983 825 C 1005 769 1016 703 1016 629 L 1016 193 L 1151 193 L 1151 0 L 805 0 C 801 0 797 5 793 16 C 789 25 784 39 780 57 C 774 77 771 97 770 115 C 770 121 768 131 766 145 C 763 159 762 169 762 176 C 745 144 727 118 709 96 C 687 71 661 50 633 33 C 607 16 575 2 539 -8 C 506 -17 469 -22 428 -23 C 368 -23 315 -14 268 2 C 221 18 180 43 145 76 C 112 106 87 141 70 182 C 52 221 43 266 43 317 Z M 319 330 C 319 310 323 292 331 276 C 339 260 352 245 369 233 C 384 222 403 213 426 207 C 450 200 474 197 496 197 C 528 197 559 201 588 209 C 619 218 646 230 668 246 C 690 262 708 282 723 305 C 735 325 742 352 745 385 L 745 418 C 715 438 683 453 651 461 C 610 471 561 477 504 477 C 471 477 445 473 426 467 C 402 459 383 448 367 436 C 353 425 342 411 332 393 C 324 376 319 358 319 338 L 319 330 Z" unicode="a" />
<glyph horiz-adv-x="1298" d="M 31 1313 L 31 1511 L 461 1511 L 461 899 C 480 930 499 955 518 975 C 540 997 565 1016 594 1032 C 624 1048 656 1061 690 1069 C 732 1078 772 1083 811 1083 C 864 1083 919 1072 977 1051 C 1030 1030 1076 998 1114 956 C 1154 910 1186 858 1210 798 C 1233 738 1245 666 1245 580 L 1245 475 C 1245 390 1232 317 1208 256 C 1183 194 1150 142 1108 100 C 1068 60 1021 30 965 8 C 911 -12 855 -23 797 -23 C 750 -23 710 -18 676 -8 C 632 4 598 17 575 33 C 543 53 518 74 498 96 C 473 122 454 148 442 174 L 434 113 C 432 96 429 77 424 57 L 414 16 C 410 5 405 0 401 0 L 43 0 L 43 193 L 190 193 L 190 1313 L 31 1313 Z M 461 481 C 461 433 467 390 481 352 C 493 316 511 287 535 264 C 557 242 584 225 617 215 C 649 204 683 199 717 199 C 752 199 786 204 819 215 C 847 224 874 241 899 266 C 921 288 938 316 950 352 C 962 388 969 430 969 479 L 969 565 C 969 618 963 661 952 694 C 941 728 924 758 901 786 C 881 809 856 827 825 839 C 793 851 760 858 725 858 C 691 858 657 852 625 842 C 595 832 567 816 543 793 C 519 771 500 742 485 707 C 471 673 463 630 461 580 L 461 481 Z" unicode="b" />
<glyph horiz-adv-x="1069" d="M 55 492 L 55 563 C 55 647 67 722 92 788 C 118 857 150 912 190 952 C 234 996 284 1028 340 1050 C 396 1072 456 1083 522 1083 C 597 1083 656 1071 698 1047 C 742 1022 775 988 797 946 L 803 989 C 804 994 806 1001 808 1010 C 810 1019 811 1024 811 1026 L 819 1051 C 821 1057 825 1061 829 1061 L 1010 1061 L 1010 688 L 793 688 C 783 719 774 744 766 762 C 756 784 742 803 723 819 C 707 832 685 843 657 853 C 628 863 598 868 567 868 C 487 868 427 841 389 788 C 351 736 332 659 332 557 L 332 498 C 332 444 338 399 350 362 C 362 326 379 296 403 270 C 423 248 451 230 487 217 C 515 206 551 201 594 201 C 625 201 656 204 688 211 C 714 216 739 226 764 240 C 783 250 803 264 825 281 C 831 285 849 301 877 330 L 1034 176 C 1010 148 984 122 956 98 C 931 76 899 55 860 37 C 822 17 781 3 739 -6 C 691 -16 640 -22 586 -23 C 513 -23 447 -13 389 6 C 325 26 268 57 219 98 C 171 137 131 190 100 258 C 70 322 55 400 55 492 Z" unicode="c" />
<glyph horiz-adv-x="1298" d="M 55 481 L 55 586 C 55 670 67 743 92 805 C 116 866 150 918 193 961 C 232 1000 280 1031 336 1053 C 389 1073 445 1083 504 1083 C 544 1083 581 1079 614 1071 C 644 1064 675 1052 707 1036 C 733 1024 758 1006 782 983 C 802 963 822 941 840 915 L 840 1313 L 680 1313 L 680 1511 L 1110 1511 L 1110 199 L 1270 199 L 1270 0 L 899 0 C 895 0 891 6 887 18 C 883 31 878 46 874 63 C 868 86 865 107 864 125 L 856 190 C 838 157 819 128 799 104 C 774 75 748 53 721 37 C 689 17 655 3 618 -6 C 577 -16 534 -22 489 -23 C 431 -23 376 -12 324 8 C 272 27 226 59 186 104 C 145 149 113 202 90 262 C 66 322 55 395 55 481 Z M 332 496 C 332 446 338 403 350 366 C 362 329 379 298 399 274 C 422 246 447 227 475 217 C 505 205 538 199 575 199 C 607 199 640 204 674 215 C 704 224 732 241 758 266 C 781 286 800 316 815 354 C 830 389 838 431 840 479 L 840 594 C 837 647 829 688 817 717 C 802 749 784 776 762 797 C 738 819 712 834 682 844 C 653 853 620 858 584 858 C 548 858 514 852 481 842 C 450 832 423 815 401 793 C 379 771 362 742 350 707 C 338 673 332 631 332 582 L 332 496 Z" unicode="d" />
<glyph horiz-adv-x="1122" d="M 55 469 L 55 563 C 55 650 68 725 96 788 C 126 856 163 910 209 952 C 256 995 311 1028 375 1051 C 436 1073 504 1083 578 1083 C 648 1083 714 1071 776 1049 C 838 1025 890 992 931 948 C 972 904 1006 848 1032 778 C 1056 710 1069 633 1069 545 L 1069 455 L 332 455 C 334 404 342 365 354 338 C 369 306 387 281 408 262 C 430 241 457 227 489 219 C 519 211 554 207 594 207 C 622 207 658 209 702 215 C 726 217 757 224 795 236 C 829 245 855 254 874 262 C 896 271 920 283 946 297 L 1049 109 C 1005 81 972 62 950 51 C 914 33 880 19 846 10 C 808 0 768 -8 727 -14 C 689 -19 642 -22 586 -23 C 522 -23 457 -13 391 6 C 325 25 269 54 221 94 C 170 136 130 187 100 247 C 70 307 55 381 55 469 Z M 336 637 L 797 637 C 794 677 789 711 782 737 C 774 765 761 791 743 813 C 726 833 703 849 675 860 C 647 871 614 877 578 877 C 504 877 448 855 410 813 C 370 769 345 711 336 637 Z" unicode="e" />
<glyph horiz-adv-x="753" d="M 31 852 L 31 1061 L 190 1061 L 190 1147 C 190 1206 200 1259 221 1307 C 243 1356 271 1397 305 1430 C 340 1462 382 1488 430 1507 C 475 1525 526 1534 582 1534 C 621 1534 656 1530 688 1524 C 716 1518 743 1509 768 1499 L 723 1284 C 717 1285 709 1287 697 1290 C 685 1292 678 1294 676 1294 C 656 1298 634 1300 610 1300 C 592 1300 573 1296 553 1290 C 534 1284 518 1274 504 1260 C 493 1249 483 1232 473 1208 C 465 1187 461 1163 461 1135 L 461 1061 L 711 1061 L 711 852 L 461 852 L 461 193 L 621 193 L 621 0 L 43 0 L 43 193 L 190 193 L 190 852 L 31 852 Z" unicode="f" />
<glyph horiz-adv-x="1304" d="M 55 510 L 55 586 C 55 670 67 743 92 805 C 116 866 150 918 193 961 C 232 1000 280 1031 336 1053 C 389 1073 445 1083 504 1083 C 544 1083 585 1077 625 1067 C 667 1055 700 1041 725 1026 C 753 1008 779 987 801 963 C 825 937 844 911 856 885 C 858 912 861 932 864 946 C 865 951 867 960 869 974 C 871 988 872 998 874 1004 C 878 1022 882 1035 887 1044 C 891 1054 895 1060 899 1061 L 1257 1061 L 1257 862 L 1110 862 L 1110 43 C 1110 -39 1096 -108 1069 -164 C 1040 -224 1002 -273 954 -313 C 907 -351 852 -380 788 -401 C 724 -421 656 -432 584 -432 C 528 -432 478 -429 436 -424 C 390 -418 347 -410 305 -399 C 259 -388 222 -377 193 -367 C 165 -357 135 -344 102 -326 L 184 -113 C 210 -125 236 -135 262 -143 C 286 -151 318 -160 356 -170 C 401 -180 433 -187 453 -190 C 485 -194 514 -196 539 -197 C 583 -197 623 -192 659 -184 C 697 -176 728 -162 754 -143 C 782 -121 803 -93 817 -61 C 832 -24 840 19 840 70 L 840 190 C 820 158 801 133 782 115 C 760 93 735 73 707 57 C 677 40 644 28 610 20 C 566 10 525 6 489 6 C 435 6 380 17 324 39 C 270 59 224 91 186 133 C 145 178 113 231 90 291 C 66 351 55 424 55 510 Z M 332 524 C 332 474 338 431 350 395 C 363 355 379 324 399 301 C 419 276 445 257 475 245 C 505 233 538 227 575 227 C 607 227 640 232 674 244 C 704 253 732 270 758 295 C 781 315 800 345 815 383 C 830 418 838 460 840 508 L 840 594 C 837 647 829 688 817 717 C 802 749 784 776 762 797 C 738 819 712 834 682 844 C 653 853 620 858 584 858 C 548 858 514 852 481 842 C 450 832 423 815 401 793 C 379 771 362 742 350 707 C 338 673 332 631 332 582 L 332 524 Z" unicode="g" />
<glyph horiz-adv-x="1316" d="M 31 1313 L 31 1511 L 461 1511 L 461 897 C 496 954 542 999 598 1032 C 658 1066 723 1083 795 1083 C 846 1083 893 1073 936 1053 C 981 1031 1018 1003 1047 969 C 1079 929 1104 883 1120 831 C 1136 777 1145 717 1145 649 L 1145 193 L 1282 193 L 1282 0 L 874 0 L 874 614 C 874 692 857 751 825 793 C 793 832 742 852 672 852 C 639 852 609 846 582 834 C 560 824 538 808 518 784 C 502 766 489 742 477 713 C 469 691 463 663 461 629 L 461 193 L 608 193 L 608 0 L 43 0 L 43 193 L 190 193 L 190 1313 L 31 1313 Z" unicode="h" />
<glyph horiz-adv-x="669" d="M 31 862 L 31 1061 L 475 1061 L 475 193 L 635 193 L 635 0 L 43 0 L 43 193 L 205 193 L 205 862 L 31 862 Z M 152 1374 C 152 1392 156 1413 166 1438 C 172 1456 184 1473 201 1489 C 219 1507 236 1519 252 1526 C 272 1534 293 1538 315 1538 C 337 1538 358 1534 379 1526 C 397 1519 414 1507 432 1489 C 450 1471 462 1454 469 1438 C 477 1417 481 1396 481 1374 C 481 1352 477 1331 469 1311 C 462 1294 450 1277 432 1259 C 414 1241 397 1229 379 1223 C 358 1215 337 1210 315 1210 C 293 1210 272 1214 252 1223 C 235 1229 218 1242 201 1260 C 184 1276 172 1293 166 1311 C 156 1335 152 1356 152 1374 Z" unicode="i" />
<glyph horiz-adv-x="636" d="M -78 -383 L -33 -172 C -12 -177 1 -180 8 -182 C 27 -184 47 -186 68 -186 C 112 -186 146 -172 172 -145 C 198 -117 211 -77 211 -23 L 211 862 L 31 862 L 31 1061 L 481 1061 L 481 -35 C 481 -95 472 -147 454 -192 C 436 -237 411 -277 377 -311 C 344 -343 304 -369 256 -389 C 210 -407 159 -416 102 -416 C 62 -416 28 -412 -2 -406 C -37 -397 -62 -389 -78 -383 Z M 158 1374 C 158 1396 162 1417 170 1438 C 176 1454 188 1471 206 1489 C 224 1507 241 1519 258 1526 C 278 1534 299 1538 321 1538 C 343 1538 364 1534 385 1526 C 403 1519 420 1507 438 1489 C 454 1472 466 1455 473 1438 C 482 1413 487 1392 487 1374 C 487 1356 482 1335 473 1311 C 466 1293 454 1276 438 1260 C 420 1242 402 1229 385 1223 C 364 1215 343 1210 321 1210 C 299 1210 278 1214 258 1223 C 241 1229 224 1241 206 1259 C 188 1277 176 1294 170 1311 C 162 1331 158 1352 158 1374 Z" unicode="j" />
<glyph horiz-adv-x="1236" d="M 31 1313 L 31 1511 L 461 1511 L 461 557 L 788 862 L 676 862 L 676 1061 L 1190 1061 L 1190 862 L 1079 862 L 793 602 L 1065 193 L 1202 193 L 1202 0 L 874 0 L 586 436 L 461 328 L 461 193 L 602 193 L 602 0 L 43 0 L 43 193 L 190 193 L 190 1313 L 31 1313 Z" unicode="k" />
<glyph horiz-adv-x="673" d="M 31 1313 L 31 1511 L 475 1511 L 475 193 L 639 193 L 639 0 L 43 0 L 43 193 L 205 193 L 205 1313 L 31 1313 Z" unicode="l" />
<glyph horiz-adv-x="1902" d="M 31 862 L 31 1061 L 401 1061 C 405 1061 409 1055 414 1044 C 418 1030 422 1015 426 999 C 431 975 434 955 436 938 L 444 874 C 459 902 478 930 502 958 C 524 984 548 1006 575 1024 C 605 1043 635 1057 666 1067 C 701 1077 735 1083 768 1083 C 829 1083 885 1065 936 1030 C 986 994 1025 946 1053 885 C 1087 943 1132 991 1188 1028 C 1242 1064 1308 1083 1386 1083 C 1432 1083 1478 1073 1524 1055 C 1560 1038 1596 1010 1632 971 C 1666 933 1690 890 1706 842 C 1722 791 1731 734 1731 672 L 1731 193 L 1868 193 L 1868 0 L 1460 0 L 1460 637 C 1460 705 1445 757 1417 795 C 1387 833 1342 852 1282 852 C 1251 852 1224 846 1202 834 C 1177 820 1158 804 1145 786 C 1129 766 1118 745 1110 721 C 1100 692 1096 667 1096 647 L 1096 193 L 1233 193 L 1233 0 L 825 0 L 825 637 C 825 705 810 757 782 795 C 752 833 707 852 647 852 C 618 852 590 845 563 831 C 539 819 520 802 506 782 C 490 760 479 736 471 711 C 464 689 461 663 461 633 L 461 193 L 594 193 L 594 0 L 43 0 L 43 193 L 190 193 L 190 862 L 31 862 Z" unicode="m" />
<glyph horiz-adv-x="1316" d="M 31 862 L 31 1061 L 401 1061 C 405 1061 409 1054 414 1042 C 418 1031 422 1015 426 995 C 431 971 434 951 436 934 C 438 910 441 888 444 868 C 475 932 522 984 584 1024 C 644 1063 714 1083 795 1083 C 846 1083 893 1073 936 1053 C 981 1031 1018 1003 1047 969 C 1079 929 1104 883 1120 831 C 1136 777 1145 717 1145 649 L 1145 193 L 1282 193 L 1282 0 L 874 0 L 874 614 C 874 692 857 751 825 793 C 793 832 742 852 672 852 C 639 852 609 846 582 834 C 560 824 538 808 518 784 C 502 766 489 742 477 713 C 469 691 463 663 461 629 L 461 193 L 594 193 L 594 0 L 43 0 L 43 193 L 190 193 L 190 862 L 31 862 Z" unicode="n" />
<glyph horiz-adv-x="1157" d="M 55 485 L 55 575 C 55 658 68 730 96 791 C 124 855 162 908 209 950 C 255 992 311 1025 377 1048 C 442 1071 510 1083 580 1083 C 650 1083 718 1071 784 1049 C 847 1026 902 993 950 950 C 999 904 1037 851 1063 791 C 1090 725 1104 653 1104 575 L 1104 485 C 1104 407 1090 335 1063 270 C 1037 208 999 155 950 110 C 901 65 846 32 784 10 C 722 -12 654 -23 580 -23 C 506 -23 438 -12 377 10 C 314 32 258 65 209 111 C 162 153 124 206 96 270 C 68 330 55 401 55 485 Z M 332 492 C 332 450 337 409 348 369 C 357 333 372 303 393 277 C 413 251 439 230 471 215 C 499 201 536 195 580 195 C 625 195 662 201 690 215 C 720 228 745 248 766 276 C 786 302 801 333 811 369 C 821 408 827 449 827 492 L 827 569 C 827 611 821 652 811 692 C 800 728 785 760 766 786 C 746 810 721 830 690 846 C 661 859 624 866 580 866 C 536 866 499 859 471 846 C 438 830 412 810 393 786 C 373 760 358 728 348 692 C 337 652 332 611 332 569 L 332 492 Z" unicode="o" />
<glyph horiz-adv-x="1298" d="M 31 862 L 31 1061 L 401 1061 C 405 1061 409 1054 414 1042 C 418 1031 422 1015 426 995 C 431 971 434 951 436 934 C 438 910 441 888 444 868 C 457 899 476 928 500 956 C 522 982 548 1004 578 1024 C 606 1042 640 1056 680 1067 C 720 1077 764 1083 811 1083 C 864 1083 919 1072 977 1051 C 1030 1030 1076 998 1114 956 C 1154 910 1186 858 1210 798 C 1233 738 1245 666 1245 580 L 1245 475 C 1245 390 1232 317 1208 256 C 1183 194 1150 142 1108 100 C 1068 60 1021 30 965 8 C 911 -12 855 -23 797 -23 C 757 -23 720 -18 684 -10 C 655 -3 624 8 592 25 C 570 35 545 53 518 78 C 497 97 478 119 461 145 L 461 -201 L 618 -201 L 618 -393 L 43 -393 L 43 -201 L 190 -201 L 190 862 L 31 862 Z M 461 481 C 461 433 467 390 481 352 C 493 316 511 287 535 264 C 557 242 584 225 617 215 C 649 204 683 199 717 199 C 752 199 786 204 819 215 C 847 224 874 241 899 266 C 921 288 938 316 950 352 C 962 388 969 430 969 479 L 969 565 C 969 618 963 661 952 694 C 941 728 924 758 901 786 C 881 809 856 827 825 839 C 793 851 760 858 725 858 C 691 858 657 852 625 842 C 595 832 567 816 543 793 C 519 771 500 742 485 707 C 471 673 463 630 461 580 L 461 481 Z" unicode="p" />
<glyph horiz-adv-x="1304" d="M 55 481 L 55 586 C 55 670 67 743 92 805 C 116 866 150 918 193 961 C 232 1000 280 1031 336 1053 C 389 1073 445 1083 504 1083 C 544 1083 585 1077 625 1067 C 667 1055 700 1041 725 1026 C 753 1008 779 987 801 963 C 825 937 844 911 856 885 C 858 912 861 932 864 946 C 865 951 867 960 869 974 C 871 988 872 998 874 1004 C 878 1022 882 1035 887 1044 C 891 1054 895 1060 899 1061 L 1257 1061 L 1257 862 L 1110 862 L 1110 -201 L 1270 -201 L 1270 -393 L 682 -393 L 682 -201 L 840 -201 L 840 162 C 823 133 804 108 782 86 C 760 64 735 45 707 29 C 673 9 640 -3 610 -10 C 573 -18 533 -22 489 -23 C 431 -23 376 -12 324 8 C 272 27 226 59 186 104 C 145 149 113 202 90 262 C 66 322 55 395 55 481 Z M 332 496 C 332 446 338 403 350 366 C 362 329 379 298 399 274 C 422 246 447 227 475 217 C 505 205 538 199 575 199 C 610 199 644 205 677 217 C 710 229 738 247 762 270 C 785 293 804 324 819 362 C 832 397 839 442 840 496 L 840 594 C 837 647 829 688 817 717 C 802 749 784 776 762 797 C 738 819 712 834 682 844 C 653 853 620 858 584 858 C 548 858 514 852 481 842 C 450 832 423 815 401 793 C 379 771 362 742 350 707 C 338 673 332 631 332 582 L 332 496 Z" unicode="q" />
<glyph horiz-adv-x="921" d="M 31 862 L 31 1061 L 401 1061 C 406 1061 411 1052 416 1036 C 424 1003 428 983 430 975 C 431 967 433 954 435 936 C 437 918 438 905 440 897 C 441 885 444 861 449 825 C 458 849 474 880 496 918 C 514 946 536 973 563 999 C 589 1022 618 1041 651 1057 C 682 1070 718 1077 760 1077 C 783 1077 806 1075 829 1071 C 855 1067 878 1058 899 1044 L 836 784 C 824 789 804 795 776 801 C 752 805 731 807 711 807 C 679 807 649 800 621 788 C 588 774 561 758 541 739 C 516 717 497 689 483 657 C 467 623 460 587 461 549 L 461 193 L 594 193 L 594 0 L 43 0 L 43 193 L 190 193 L 190 862 L 31 862 Z" unicode="r" />
<glyph horiz-adv-x="1052" d="M 68 0 L 68 362 L 281 362 C 287 332 297 309 309 293 C 325 269 343 252 362 240 C 386 224 413 213 442 205 C 472 197 509 193 553 193 C 620 193 669 203 700 223 C 731 243 747 268 748 297 C 748 317 743 335 735 350 C 728 360 713 372 690 385 C 673 393 646 400 608 408 C 600 409 556 414 477 424 C 409 430 353 440 311 453 C 263 466 222 486 188 512 C 152 538 127 569 113 606 C 95 648 86 694 86 745 C 86 795 95 842 115 885 C 133 925 160 960 195 989 C 227 1016 267 1037 315 1052 C 363 1067 411 1075 461 1075 C 529 1075 583 1064 625 1044 C 669 1022 702 992 725 954 C 737 1024 748 1060 760 1061 L 940 1061 L 940 741 L 735 741 C 729 756 720 772 708 790 C 696 808 682 821 668 831 C 651 841 628 850 600 858 C 570 864 536 868 500 868 C 442 868 400 859 373 842 C 344 824 330 800 330 770 C 330 752 333 736 340 723 C 345 712 357 702 377 694 C 393 687 417 680 449 674 C 459 671 498 665 565 657 C 626 649 683 639 737 627 C 786 616 832 597 874 569 C 909 545 939 513 965 473 C 987 435 997 384 997 322 C 997 271 987 224 969 182 C 949 141 922 106 887 76 C 847 43 806 20 762 8 C 710 -7 657 -14 604 -14 C 567 -14 530 -10 494 -4 C 462 1 434 10 408 23 C 379 36 356 49 338 63 C 317 79 299 97 285 117 C 281 80 276 52 270 33 C 264 11 258 0 252 0 L 68 0 Z" unicode="s" />
<glyph horiz-adv-x="770" d="M 43 850 L 43 1059 L 190 1059 L 190 1298 L 461 1360 L 461 1059 L 715 1059 L 715 850 L 461 850 L 461 346 C 461 322 464 301 471 281 C 476 263 484 248 496 236 C 502 228 515 219 535 211 C 547 205 563 203 584 203 C 602 203 624 204 651 207 C 674 209 691 212 702 215 L 748 8 C 712 -2 684 -10 662 -14 C 633 -19 595 -22 547 -23 C 493 -23 444 -15 399 0 C 354 15 317 38 287 68 C 254 100 230 138 215 180 C 198 225 190 276 190 334 L 190 850 L 43 850 Z" unicode="t" />
<glyph horiz-adv-x="1304" d="M 31 862 L 31 1061 L 438 1061 L 438 430 C 438 359 453 304 485 264 C 516 224 565 205 633 205 C 668 205 699 211 725 225 C 751 239 772 257 788 281 C 806 305 819 332 827 360 C 835 388 840 419 840 451 L 840 862 L 707 862 L 707 1061 L 1110 1061 L 1110 193 L 1270 193 L 1270 0 L 899 0 C 895 0 891 6 887 18 C 883 31 878 46 874 63 C 868 87 865 107 864 123 L 856 188 C 840 158 821 129 799 102 C 774 73 750 51 727 35 C 699 15 670 1 639 -8 C 609 -17 574 -22 535 -23 C 483 -23 433 -13 387 6 C 343 24 304 51 272 88 C 238 126 212 169 194 219 C 176 268 168 327 168 395 L 168 862 L 31 862 Z" unicode="u" />
<glyph horiz-adv-x="1280" d="M 31 862 L 31 1061 L 559 1061 L 559 862 L 440 862 L 653 317 L 666 317 L 881 862 L 760 862 L 760 1061 L 1239 1061 L 1239 862 L 1122 862 L 752 -12 L 516 -12 L 147 862 L 31 862 Z" unicode="v" />
<glyph horiz-adv-x="1832" d="M 31 862 L 31 1061 L 557 1061 L 557 862 L 430 862 L 588 365 L 600 365 L 846 1061 L 1034 1061 L 1280 365 L 1292 365 L 1446 862 L 1323 862 L 1323 1061 L 1792 1061 L 1792 862 L 1675 862 L 1395 -12 L 1151 -12 L 928 631 L 918 631 L 688 -12 L 438 -12 L 147 862 L 31 862 Z" unicode="w" />
<glyph horiz-adv-x="1230" d="M 31 862 L 31 1061 L 578 1061 L 578 862 L 471 862 L 643 662 L 653 662 L 817 862 L 717 862 L 717 1061 L 1184 1061 L 1184 862 L 1083 862 L 791 537 L 1106 193 L 1196 193 L 1196 0 L 649 0 L 649 193 L 758 193 L 580 408 L 569 408 L 397 193 L 487 193 L 487 0 L 43 0 L 43 193 L 131 193 L 426 532 L 123 862 L 31 862 Z" unicode="x" />
<glyph horiz-adv-x="1280" d="M 31 862 L 31 1061 L 561 1061 L 561 862 L 438 862 L 651 317 L 664 317 L 879 862 L 756 862 L 756 1061 L 1239 1061 L 1239 862 L 1122 862 L 743 -63 C 724 -110 701 -155 675 -198 C 649 -241 618 -278 584 -309 C 550 -339 509 -363 463 -383 C 419 -401 366 -410 305 -410 C 277 -410 258 -409 246 -408 C 224 -405 207 -402 197 -399 L 154 -387 C 137 -383 124 -378 115 -373 L 162 -160 C 176 -164 193 -168 211 -172 C 229 -176 252 -178 279 -178 C 339 -178 387 -163 424 -135 C 460 -106 485 -65 498 -12 L 504 16 L 147 862 L 31 862 Z" unicode="y" />
<glyph horiz-adv-x="1069" d="M 59 0 L 59 174 L 639 858 L 639 864 L 326 864 L 301 727 L 80 727 L 80 1061 L 1006 1061 L 1006 905 L 408 203 L 408 197 L 762 197 L 791 354 L 1012 354 L 1012 0 L 59 0 Z" unicode="z" />
<glyph horiz-adv-x="817" d="M 39 500 L 39 731 L 92 731 C 122 731 144 733 159 739 C 174 745 187 754 199 768 C 209 780 215 795 217 813 C 219 837 221 859 221 879 L 221 1174 C 221 1252 231 1316 252 1366 C 272 1418 301 1460 338 1493 C 372 1523 415 1545 469 1561 C 518 1574 574 1581 637 1581 L 758 1581 L 758 1382 L 657 1382 C 627 1382 599 1378 575 1372 C 554 1366 536 1354 520 1335 C 504 1317 493 1295 485 1270 C 478 1248 475 1214 475 1169 L 475 836 C 475 796 471 766 465 745 C 457 719 446 698 432 684 C 416 667 400 654 382 645 C 364 635 341 626 313 618 L 313 610 C 335 603 358 594 383 582 C 401 572 417 559 432 543 C 445 526 456 506 465 483 C 471 462 475 432 475 393 L 475 68 C 475 21 478 -13 485 -35 C 493 -61 504 -82 520 -100 C 535 -118 553 -129 575 -135 C 599 -141 627 -145 657 -145 L 758 -145 L 758 -338 L 637 -338 C 574 -338 518 -331 469 -317 C 415 -301 372 -280 338 -252 C 302 -222 274 -180 252 -127 C 231 -75 221 -12 221 63 L 221 352 C 221 371 219 393 217 418 C 214 437 208 453 198 465 C 188 477 176 486 160 492 C 144 497 122 500 92 500 L 39 500 Z" unicode="{" />
<glyph horiz-adv-x="552" d="M 160 -338 L 160 1581 L 393 1581 L 393 -338 L 160 -338 Z" unicode="|" />
<glyph horiz-adv-x="817" d="M 61 -145 L 162 -145 C 193 -145 220 -141 244 -133 C 266 -125 285 -112 299 -96 C 314 -78 326 -55 334 -29 C 340 -4 344 30 344 74 L 344 395 C 344 434 347 464 354 485 C 362 508 373 528 387 545 C 402 561 418 574 436 584 C 460 596 484 605 506 612 L 506 621 C 484 627 460 637 436 649 C 418 658 401 671 387 688 C 373 704 362 724 354 748 C 347 768 344 798 344 838 L 344 1176 C 344 1221 340 1254 334 1276 C 327 1300 315 1321 299 1339 C 285 1354 267 1365 244 1372 C 219 1378 192 1382 162 1382 L 61 1382 L 61 1581 L 182 1581 C 244 1581 300 1574 350 1561 C 403 1545 447 1523 481 1495 C 516 1465 545 1423 567 1370 C 587 1318 598 1255 598 1180 L 598 879 C 598 859 599 837 602 813 C 603 795 609 780 621 768 C 631 754 644 745 659 739 C 674 733 697 731 727 731 L 780 731 L 780 500 L 727 500 C 697 500 674 497 659 492 C 642 486 629 477 620 465 C 610 452 604 436 602 418 C 599 393 598 371 598 352 L 598 70 C 598 -6 587 -71 567 -123 C 547 -175 518 -217 481 -250 C 447 -280 403 -302 350 -317 C 300 -330 244 -337 182 -338 L 61 -338 L 61 -145 Z" unicode="}" />
<glyph horiz-adv-x="901" d="M 55 604 C 77 682 111 742 158 784 C 202 823 256 843 322 844 C 353 844 379 839 401 831 C 416 825 437 817 465 807 C 484 797 502 789 520 782 C 533 775 551 772 573 772 C 596 772 615 779 629 795 C 644 813 658 832 670 854 L 848 782 C 824 702 791 643 748 604 C 702 563 647 543 582 543 C 551 543 524 547 502 555 C 496 556 486 559 472 565 C 458 570 446 574 438 578 C 418 586 400 593 383 600 C 366 608 348 612 330 612 C 308 612 289 604 274 590 C 257 573 243 554 233 532 L 55 604 Z" unicode="~" />
<glyph horiz-adv-x="512" d="" unicode="" />
<glyph horiz-adv-x="522" d="M 92 1145 C 92 1169 96 1192 104 1212 C 110 1228 123 1245 141 1263 C 159 1281 177 1293 195 1300 C 215 1308 238 1312 262 1313 C 285 1313 307 1308 327 1300 C 347 1292 366 1279 383 1263 C 399 1247 411 1230 418 1212 C 427 1187 432 1164 432 1144 C 432 1124 427 1102 418 1079 C 410 1058 398 1040 383 1026 C 366 1009 347 997 327 989 C 307 981 285 977 262 977 C 237 977 215 981 195 989 C 177 995 159 1008 141 1026 C 123 1044 111 1061 104 1079 C 96 1099 92 1121 92 1145 Z M 104 -221 L 166 831 L 358 831 L 420 -221 L 104 -221 Z" unicode="" />
<glyph horiz-adv-x="1054" d="M 55 492 L 55 569 C 55 653 67 726 92 788 C 118 852 150 904 190 944 C 230 984 278 1015 336 1038 C 388 1058 445 1072 508 1079 L 508 1270 L 680 1270 L 680 1077 C 715 1073 751 1065 788 1055 C 819 1045 849 1033 877 1018 C 908 1001 932 985 950 971 C 972 952 993 933 1012 915 L 852 739 C 824 766 799 789 776 807 C 750 827 718 842 680 852 L 680 207 C 722 219 756 235 782 256 C 816 283 842 307 860 328 L 1018 170 C 1006 154 984 133 954 106 C 936 89 911 71 881 53 C 855 36 825 22 791 10 C 758 -2 721 -10 680 -14 L 680 -256 L 508 -256 L 508 -18 C 450 -14 393 0 336 22 C 278 45 230 76 190 116 C 150 156 118 208 92 272 C 67 334 55 407 55 492 Z M 328 498 C 328 409 343 341 375 293 C 405 246 449 217 508 205 L 508 856 C 449 840 405 810 375 766 C 343 718 328 650 328 563 L 328 498 Z" unicode="" />
<glyph horiz-adv-x="1124" d="M 20 621 L 20 829 L 141 829 C 130 857 118 894 106 938 C 96 972 92 1007 92 1044 L 92 1098 C 92 1167 105 1228 131 1282 C 158 1338 195 1384 242 1421 C 289 1457 344 1486 408 1507 C 472 1527 540 1538 614 1538 C 667 1538 716 1534 762 1526 C 812 1516 854 1505 887 1493 C 936 1473 971 1457 991 1444 C 1031 1416 1061 1394 1081 1378 L 930 1169 C 909 1187 889 1202 870 1214 C 840 1233 816 1247 799 1255 C 783 1261 757 1270 719 1282 C 690 1290 660 1294 629 1294 C 551 1294 490 1275 448 1239 C 406 1202 385 1149 385 1079 L 385 1042 C 385 1005 389 970 397 936 C 405 903 415 867 428 829 L 807 829 L 807 621 L 479 621 C 483 596 485 570 485 543 C 485 470 472 407 446 354 C 420 299 378 251 322 211 L 813 211 L 842 362 L 1071 362 L 1071 0 L 57 0 L 57 203 C 83 216 105 231 123 248 C 146 268 164 289 176 311 C 194 341 206 371 213 401 C 222 441 227 480 227 518 C 227 530 225 547 223 569 C 221 582 218 599 213 621 L 20 621 Z" unicode="" />
<glyph horiz-adv-x="1150" d="M 92 391 L 299 608 C 281 634 268 660 262 686 C 255 713 252 744 252 780 C 252 808 255 838 262 870 C 267 897 279 924 299 952 L 92 1167 L 209 1276 L 408 1061 C 453 1092 507 1108 571 1108 C 637 1108 693 1092 739 1061 L 944 1276 L 1061 1155 L 852 952 C 872 922 885 895 891 872 C 896 849 899 818 899 780 C 899 716 882 658 848 608 L 1057 391 L 940 285 L 739 500 C 693 468 637 453 571 453 C 507 453 452 468 408 500 L 209 285 L 92 391 Z M 399 780 C 399 728 416 685 451 651 C 482 619 522 604 571 604 C 625 604 668 619 700 651 C 732 682 748 725 748 780 C 748 833 731 876 698 909 C 664 943 621 960 571 961 C 523 961 482 943 449 909 C 415 876 399 833 399 780 Z" unicode="" />
<glyph horiz-adv-x="1402" d="M 39 1313 L 39 1511 L 614 1511 L 614 1313 L 483 1313 L 741 780 L 750 780 L 987 1313 L 866 1313 L 866 1511 L 1364 1511 L 1364 1313 L 1255 1313 L 967 762 L 1227 762 L 1227 598 L 881 598 L 860 557 L 860 487 L 1227 487 L 1227 324 L 860 324 L 860 193 L 1042 193 L 1042 0 L 389 0 L 389 193 L 571 193 L 571 324 L 195 324 L 195 487 L 571 487 L 571 553 L 547 598 L 195 598 L 195 762 L 455 762 L 147 1313 L 39 1313 Z" unicode="" />
<glyph horiz-adv-x="552" d="M 160 -338 L 160 541 L 393 541 L 393 -338 L 160 -338 Z M 160 766 L 160 1581 L 393 1581 L 393 766 L 160 766 Z" unicode="" />
<glyph horiz-adv-x="1275" d="M 70 709 C 70 778 89 837 127 885 C 166 935 219 973 285 997 C 268 1024 256 1052 248 1081 C 240 1111 236 1144 236 1182 C 236 1232 245 1280 264 1325 C 283 1369 311 1406 348 1438 C 384 1468 429 1493 483 1511 C 535 1529 595 1538 664 1538 C 715 1538 762 1534 805 1526 C 847 1518 886 1505 924 1489 C 956 1473 990 1454 1024 1430 C 1056 1405 1086 1379 1112 1352 L 954 1180 C 943 1190 925 1207 901 1229 C 885 1241 865 1254 840 1270 C 815 1283 790 1292 766 1298 C 736 1304 706 1308 676 1309 C 642 1309 616 1306 598 1300 C 581 1294 564 1286 547 1274 C 533 1264 523 1251 516 1235 C 509 1218 506 1202 506 1187 C 506 1172 508 1159 512 1147 C 516 1136 522 1125 530 1114 C 538 1104 550 1093 567 1083 C 589 1069 609 1058 629 1049 L 952 891 C 990 873 1029 848 1071 817 C 1103 792 1130 765 1151 737 C 1171 708 1186 678 1194 647 C 1202 616 1206 583 1206 549 C 1206 515 1200 483 1190 453 C 1180 424 1165 397 1147 373 C 1129 348 1105 326 1077 307 C 1047 286 1017 270 989 260 C 1007 235 1020 206 1028 174 C 1036 143 1040 110 1040 76 C 1040 25 1030 -22 1012 -68 C 992 -114 965 -152 930 -180 C 892 -211 847 -236 797 -254 C 745 -272 684 -281 616 -281 C 516 -281 430 -266 360 -238 C 290 -210 228 -169 172 -115 L 330 57 C 352 37 369 24 381 16 C 403 0 423 -10 442 -18 C 464 -28 489 -36 516 -43 C 539 -48 568 -51 604 -51 C 631 -51 656 -47 680 -41 C 699 -35 716 -27 731 -16 C 741 -8 751 5 760 23 C 766 39 770 55 770 70 C 770 89 768 103 766 111 C 762 121 756 132 748 143 C 738 153 725 164 709 176 C 698 182 677 193 647 209 L 324 367 C 278 389 239 413 205 440 C 172 467 146 494 127 520 C 106 548 92 578 84 608 C 74 644 70 677 70 709 Z M 334 748 C 334 731 336 716 340 704 C 344 692 350 680 358 668 C 363 660 375 649 395 635 C 405 628 424 617 451 602 L 858 395 C 886 408 907 425 921 446 C 935 466 942 488 942 510 C 942 526 940 541 936 553 C 932 565 926 577 918 590 C 912 598 900 609 881 623 C 870 629 851 640 825 655 L 418 860 C 388 846 366 830 354 811 C 340 791 334 770 334 748 Z" unicode="" />
<glyph horiz-adv-x="1024" d="M 147 1376 C 155 1394 166 1410 182 1425 C 195 1438 211 1449 231 1458 C 249 1466 269 1470 291 1470 C 313 1470 332 1466 350 1458 C 369 1450 385 1439 399 1425 C 414 1409 426 1393 434 1376 C 442 1356 446 1336 446 1316 C 446 1296 442 1276 434 1257 C 426 1239 414 1222 399 1208 C 385 1194 369 1184 350 1176 C 332 1168 312 1163 290 1163 C 268 1163 249 1167 231 1176 C 211 1184 195 1194 182 1208 C 166 1223 155 1239 147 1257 C 139 1276 135 1296 135 1317 C 135 1337 139 1357 147 1376 Z M 590 1376 C 598 1394 609 1410 625 1425 C 638 1438 654 1449 674 1458 C 692 1466 711 1470 733 1470 C 755 1470 775 1466 793 1458 C 812 1450 828 1439 842 1425 C 857 1409 869 1393 877 1376 C 885 1356 889 1336 889 1316 C 889 1296 885 1276 877 1257 C 869 1239 857 1222 842 1208 C 828 1194 812 1184 793 1176 C 775 1168 755 1163 733 1163 C 711 1163 691 1167 674 1176 C 654 1184 638 1194 625 1208 C 609 1223 598 1239 590 1257 C 582 1276 578 1296 578 1317 C 578 1337 582 1357 590 1376 Z" unicode="" />
<glyph horiz-adv-x="1617" d="M 98 631 L 98 885 C 98 961 107 1028 127 1085 C 147 1145 175 1199 209 1249 C 237 1289 278 1331 330 1374 C 375 1410 424 1441 477 1466 C 527 1489 581 1507 639 1519 C 696 1531 752 1538 807 1538 C 861 1538 917 1532 975 1520 C 1037 1506 1093 1488 1141 1466 C 1194 1441 1243 1410 1288 1374 C 1340 1332 1380 1290 1409 1249 C 1443 1199 1470 1145 1491 1085 C 1510 1027 1520 961 1520 885 L 1520 631 C 1520 551 1510 483 1491 426 C 1470 363 1443 308 1409 260 C 1377 214 1337 172 1288 133 C 1247 99 1198 69 1141 43 C 1093 21 1037 3 975 -10 C 924 -20 868 -26 807 -26 C 745 -26 689 -21 639 -10 C 581 2 527 19 477 43 C 419 69 370 99 330 133 C 280 172 240 214 209 260 C 175 308 147 363 127 426 C 107 483 98 551 98 631 Z M 186 637 C 186 577 195 517 213 457 C 229 402 253 353 283 311 C 313 269 348 231 389 199 C 430 166 473 139 518 119 C 570 95 618 79 662 70 C 708 60 757 55 807 55 C 859 55 908 60 954 70 C 992 78 1040 94 1098 119 C 1143 139 1187 166 1229 199 C 1269 231 1305 269 1335 311 C 1367 356 1391 405 1407 457 C 1423 513 1432 573 1432 637 L 1432 879 C 1432 943 1423 1001 1407 1055 C 1391 1105 1367 1153 1335 1198 C 1305 1240 1269 1277 1229 1311 C 1187 1343 1143 1370 1098 1391 C 1040 1415 992 1432 954 1440 C 902 1450 853 1456 807 1456 C 761 1456 713 1450 662 1440 C 618 1430 570 1414 518 1391 C 472 1370 429 1343 389 1311 C 348 1278 313 1240 283 1198 C 253 1156 229 1108 213 1055 C 195 997 186 939 186 879 L 186 637 Z M 432 688 L 432 825 C 432 886 441 941 460 991 C 479 1040 505 1080 537 1112 C 571 1146 607 1170 647 1186 C 690 1202 735 1210 782 1210 C 835 1210 879 1200 913 1182 C 948 1161 973 1138 989 1112 C 995 1147 999 1166 999 1169 C 1001 1185 1005 1194 1010 1194 L 1141 1194 L 1141 922 L 985 922 C 971 968 952 1001 926 1020 C 897 1040 861 1051 819 1051 C 761 1051 718 1031 688 993 C 656 953 641 895 641 819 L 641 696 C 641 660 645 626 655 592 C 663 564 676 540 694 520 C 712 499 732 485 754 479 C 782 469 809 465 834 465 C 861 465 887 468 911 475 C 933 481 954 489 973 500 C 985 506 1000 518 1020 535 L 1055 569 L 1163 453 C 1151 436 1133 417 1110 397 C 1092 380 1068 364 1040 350 C 1012 334 981 323 946 315 C 910 307 869 303 821 303 C 765 303 713 311 666 328 C 618 344 577 369 543 401 C 506 436 479 476 461 520 C 441 569 432 625 432 688 Z" unicode="" />
<glyph horiz-adv-x="1077" d="M 53 848 L 53 866 C 53 908 62 947 82 983 C 100 1017 127 1048 162 1075 C 196 1101 238 1121 289 1137 C 341 1152 395 1159 451 1159 C 500 1159 544 1153 584 1143 C 615 1135 648 1122 682 1104 L 682 1112 C 682 1180 665 1232 631 1270 C 598 1305 545 1323 473 1323 C 440 1323 409 1321 381 1317 C 374 1315 346 1309 297 1298 C 268 1291 244 1284 225 1278 C 217 1275 206 1271 193 1265 C 180 1259 172 1256 168 1255 L 92 1444 C 116 1456 143 1468 172 1481 C 194 1490 225 1499 266 1509 C 312 1519 349 1526 377 1530 C 431 1535 475 1538 508 1538 C 576 1538 636 1529 688 1511 C 744 1491 789 1466 823 1434 C 859 1399 888 1356 909 1305 C 928 1257 938 1197 938 1126 L 938 739 L 1049 739 L 1049 563 L 737 563 C 733 563 729 568 725 578 C 723 582 722 588 720 597 C 718 605 716 611 715 614 C 709 632 706 649 705 666 C 705 672 703 682 700 694 C 697 706 696 715 696 721 C 688 703 671 679 647 649 C 633 632 612 614 582 594 C 557 577 529 565 498 557 C 462 547 429 543 397 543 C 346 543 298 550 254 565 C 218 577 182 599 145 631 C 117 654 95 686 78 727 C 61 763 53 804 53 848 Z M 313 860 C 313 840 316 825 323 813 C 330 801 341 789 356 778 C 371 767 387 759 403 753 C 419 747 440 745 465 745 C 493 745 521 749 549 757 C 576 765 599 777 618 791 C 634 801 650 820 664 846 C 676 868 682 893 682 920 L 682 936 C 658 952 631 965 600 975 C 570 984 527 989 473 989 C 423 989 384 977 354 954 C 326 932 313 903 313 868 L 313 860 Z" unicode="" />
<glyph horiz-adv-x="1060" d="M 66 512 L 66 528 L 311 979 L 557 979 L 319 518 L 557 61 L 311 61 L 66 512 Z M 475 512 L 475 528 L 721 979 L 967 979 L 729 518 L 967 61 L 721 61 L 475 512 Z" unicode="" />
<glyph horiz-adv-x="1536" d="M 213 727 L 213 920 L 1296 920 L 1296 352 L 1116 352 L 1116 727 L 213 727 Z" unicode="" />
<glyph horiz-adv-x="661" d="M 72 500 L 72 725 L 590 725 L 590 500 L 72 500 Z" unicode="" />
<glyph horiz-adv-x="1175" d="M 90 903 L 90 1081 C 90 1157 105 1224 135 1280 C 165 1336 204 1383 252 1423 C 300 1463 352 1491 410 1509 C 471 1528 530 1538 586 1538 C 626 1538 666 1534 705 1526 C 739 1519 777 1506 819 1487 C 847 1475 882 1453 922 1423 C 956 1397 984 1367 1008 1335 C 1032 1301 1051 1263 1065 1221 C 1078 1180 1085 1133 1085 1081 L 1085 903 C 1085 848 1078 800 1065 760 C 1051 718 1032 679 1008 645 C 982 608 953 578 922 555 C 888 529 853 508 819 494 C 782 477 744 465 705 457 C 667 449 627 444 586 444 C 526 444 467 453 410 471 C 350 490 297 518 252 555 C 205 593 166 641 135 700 C 105 756 90 823 90 903 Z M 176 907 C 176 840 188 783 213 737 C 239 687 271 648 309 618 C 351 585 394 562 440 549 C 492 533 540 526 586 526 C 632 526 681 533 733 549 C 778 562 822 585 864 618 C 902 648 934 687 960 737 C 986 786 999 843 999 907 L 999 1077 C 999 1138 986 1193 960 1243 C 934 1292 902 1332 864 1362 C 818 1397 775 1421 733 1434 C 681 1449 632 1456 586 1456 C 538 1456 489 1447 440 1431 C 391 1415 347 1392 309 1362 C 271 1332 239 1292 213 1243 C 188 1195 176 1140 176 1077 L 176 907 Z M 324 715 L 324 819 L 377 819 L 377 1182 L 324 1182 L 324 1286 L 625 1286 C 697 1286 753 1271 793 1243 C 831 1214 850 1171 850 1114 L 850 1090 C 850 1056 841 1026 825 1001 C 811 980 788 962 756 946 L 831 819 L 874 819 L 874 715 L 719 715 L 606 920 L 535 920 L 535 819 L 588 819 L 588 715 L 324 715 Z M 535 1032 L 621 1032 C 641 1032 658 1036 670 1044 C 682 1052 688 1068 688 1090 L 688 1112 C 688 1131 681 1145 669 1153 C 657 1161 641 1165 621 1165 L 535 1165 L 535 1032 Z" unicode="" />
<glyph horiz-adv-x="1024" d="M 223 1233 L 223 1450 L 799 1450 L 799 1233 L 223 1233 Z" unicode="" />
<glyph horiz-adv-x="876" d="M 90 1106 L 90 1192 C 90 1245 99 1292 117 1333 C 136 1377 160 1413 190 1442 C 221 1472 257 1494 299 1509 C 343 1525 389 1534 438 1534 C 487 1534 534 1525 578 1509 C 621 1492 658 1470 688 1442 C 719 1413 743 1377 760 1333 C 778 1286 786 1239 786 1192 L 786 1106 C 786 1055 777 1007 760 961 C 743 917 719 880 688 852 C 654 820 617 798 578 784 C 532 768 486 761 438 761 C 390 761 344 769 299 784 C 262 796 226 818 190 852 C 160 880 135 917 117 961 C 99 1001 90 1050 90 1106 Z M 287 1110 C 287 1050 300 1003 328 969 C 355 936 392 920 438 920 C 485 920 522 936 549 969 C 576 1003 590 1050 590 1110 L 590 1188 C 590 1252 576 1299 549 1331 C 520 1363 483 1380 438 1380 C 391 1380 354 1363 328 1331 C 300 1297 287 1249 287 1188 L 287 1110 Z" unicode="" />
<glyph horiz-adv-x="1536" d="M 201 764 L 201 936 L 672 936 L 672 1352 L 864 1352 L 864 936 L 1339 936 L 1339 764 L 864 764 L 864 352 L 672 352 L 672 764 L 201 764 Z M 205 25 L 205 215 L 1335 215 L 1335 25 L 205 25 Z" unicode="" />
<glyph horiz-adv-x="894" d="M 55 629 L 55 768 L 399 1108 C 451 1157 488 1198 512 1231 C 539 1269 553 1309 553 1352 C 553 1387 537 1415 506 1436 C 473 1458 437 1468 399 1468 C 361 1468 320 1455 276 1430 C 239 1408 204 1380 172 1348 L 63 1456 C 105 1501 157 1539 219 1571 C 283 1603 352 1620 428 1620 C 522 1620 598 1593 657 1540 C 717 1486 747 1421 748 1343 C 748 1272 717 1203 657 1135 C 595 1065 540 1013 492 977 L 268 788 L 776 788 L 776 629 L 55 629 Z" unicode="" />
<glyph horiz-adv-x="894" d="M 47 731 L 152 864 C 190 835 234 813 285 797 C 327 783 373 776 424 776 C 490 776 539 789 571 817 C 603 845 620 882 621 928 C 621 978 598 1016 553 1040 C 511 1063 455 1075 385 1075 L 311 1075 L 311 1204 L 373 1204 C 438 1204 490 1216 530 1241 C 568 1265 587 1297 588 1335 C 588 1379 571 1409 537 1427 C 501 1446 460 1456 412 1456 C 364 1456 317 1447 272 1430 C 231 1413 199 1398 176 1384 L 88 1516 C 148 1552 208 1579 268 1595 C 329 1611 389 1620 449 1620 C 547 1620 625 1598 684 1556 C 742 1514 772 1454 772 1376 C 772 1310 751 1259 711 1223 C 674 1189 622 1164 555 1149 C 625 1141 686 1117 737 1079 C 786 1042 811 983 811 903 C 811 811 774 740 700 688 C 627 637 538 612 432 612 C 343 612 268 623 207 645 C 143 667 90 696 47 731 Z" unicode="" />
<glyph horiz-adv-x="1024" d="M 348 1169 L 522 1511 L 821 1511 L 582 1169 L 348 1169 Z" unicode="" />
<glyph horiz-adv-x="1406" d="M 139 -281 C 139 -249 140 -191 143 -106 C 145 -42 150 26 156 100 C 162 168 166 220 168 256 C 168 265 168 275 169 287 C 169 299 170 308 171 314 C 171 320 172 325 172 328 C 172 332 172 336 173 340 C 173 344 174 347 175 350 C 175 352 176 354 176 356 L 176 1176 L 369 1176 L 369 319 C 369 257 396 210 450 176 C 504 142 564 125 629 125 C 715 125 791 146 858 190 C 920 230 970 294 1008 381 L 1008 1176 L 1200 1176 L 1200 307 L 1221 0 L 1057 0 L 1020 176 C 974 105 913 51 835 14 C 757 -22 669 -41 571 -41 C 542 -41 500 -32 444 -14 C 392 2 352 27 324 59 C 324 1 333 -55 352 -113 C 371 -170 381 -220 381 -264 C 381 -370 338 -424 252 -424 C 215 -424 187 -413 168 -391 C 148 -369 139 -333 139 -281 Z" unicode="" />
<glyph horiz-adv-x="1273" d="M 39 1087 L 39 1128 C 39 1188 48 1240 68 1284 C 90 1333 119 1373 156 1405 C 195 1439 243 1465 301 1483 C 361 1502 428 1511 504 1511 L 1227 1511 L 1227 1313 L 1075 1313 L 1075 -8 L 1227 -8 L 1227 -201 L 866 -201 L 866 1313 L 713 1313 L 713 -201 L 356 -201 L 356 -8 L 504 -8 L 504 715 C 428 715 363 723 309 741 C 250 760 201 785 162 817 C 121 849 90 888 70 933 C 49 978 39 1029 39 1087 Z" unicode="" />
<glyph horiz-adv-x="491" d="M 76 594 C 76 613 80 635 90 659 C 96 677 109 694 127 712 C 145 730 162 742 180 750 C 200 758 222 762 246 762 C 270 762 293 758 313 750 C 331 743 348 731 366 713 C 384 695 396 677 403 659 C 411 638 415 616 416 594 C 416 569 411 546 403 526 C 396 508 384 490 367 473 C 351 457 333 446 313 438 C 293 430 270 426 246 426 C 222 426 200 430 180 438 C 160 446 142 458 127 473 C 109 491 96 508 90 526 C 80 549 76 572 76 594 Z" unicode="" />
<glyph horiz-adv-x="1091" d="M 315 -414 L 365 -301 L 414 -317 C 432 -322 453 -325 479 -326 C 509 -326 534 -321 555 -313 C 575 -305 586 -288 586 -264 L 586 -252 C 586 -230 575 -214 553 -205 C 532 -195 494 -190 440 -190 L 420 -129 L 551 0 L 700 0 L 586 -96 C 650 -104 697 -121 727 -147 C 755 -171 770 -209 770 -260 L 770 -276 C 770 -308 763 -336 750 -358 C 735 -380 716 -399 694 -413 C 671 -427 644 -438 614 -444 C 580 -450 548 -454 520 -455 C 476 -455 437 -451 403 -444 C 370 -437 341 -427 315 -414 Z" unicode="" />
<glyph horiz-adv-x="768" d="M 143 1384 L 143 1528 L 391 1636 L 508 1636 L 508 629 L 324 629 L 324 1423 L 143 1384 Z" unicode="" />
<glyph horiz-adv-x="1081" d="M 66 997 L 66 1083 C 66 1151 78 1215 104 1276 C 127 1330 161 1378 207 1419 C 247 1455 298 1485 358 1507 C 415 1527 477 1538 543 1538 C 609 1538 671 1527 729 1507 C 786 1487 836 1457 879 1419 C 924 1378 958 1330 981 1276 C 1005 1218 1018 1154 1018 1083 L 1018 997 C 1018 926 1005 862 981 805 C 957 750 923 702 879 662 C 837 624 787 594 729 574 C 671 553 609 543 543 543 C 477 543 416 553 358 573 C 298 595 247 624 207 662 C 161 702 127 750 104 805 C 78 865 66 929 66 997 Z M 326 1004 C 326 971 330 935 340 897 C 348 864 361 836 381 813 C 399 791 421 774 449 762 C 475 750 506 743 543 743 C 579 743 611 749 639 762 C 665 774 687 791 705 813 C 724 836 738 864 746 897 C 754 929 758 965 758 1004 L 758 1077 C 758 1115 753 1150 745 1184 C 737 1214 723 1241 705 1266 C 684 1290 662 1308 639 1319 C 611 1331 579 1337 542 1337 C 505 1337 474 1330 448 1318 C 422 1306 400 1288 381 1266 C 361 1241 348 1214 340 1184 C 330 1146 326 1110 326 1077 L 326 1004 Z" unicode="" />
<glyph horiz-adv-x="1060" d="M 94 61 L 332 522 L 94 979 L 340 979 L 586 528 L 586 512 L 340 61 L 94 61 Z M 504 61 L 741 522 L 504 979 L 750 979 L 995 528 L 995 512 L 750 61 L 504 61 Z" unicode="" />
<glyph horiz-adv-x="1918" d="M 113 1384 L 113 1528 L 360 1636 L 475 1636 L 475 629 L 293 629 L 293 1423 L 113 1384 Z M 369 0 L 1339 1524 L 1520 1524 L 549 0 L 369 0 Z M 1061 219 L 1061 360 L 1511 981 L 1724 981 L 1724 377 L 1843 377 L 1843 219 L 1724 219 L 1724 0 L 1540 0 L 1540 219 L 1061 219 Z M 1260 369 L 1540 369 L 1540 768 L 1260 369 Z" unicode="" />
<glyph horiz-adv-x="1918" d="M 88 1384 L 88 1528 L 336 1636 L 453 1636 L 453 629 L 268 629 L 268 1423 L 88 1384 Z M 276 0 L 1247 1524 L 1427 1524 L 457 0 L 276 0 Z M 1137 0 L 1137 139 L 1481 479 C 1528 524 1565 565 1591 602 C 1618 640 1632 681 1632 725 C 1632 760 1616 788 1585 809 C 1555 829 1520 840 1481 840 C 1439 840 1397 827 1356 803 C 1318 781 1283 753 1251 721 L 1145 827 C 1187 872 1238 910 1300 942 C 1364 974 1433 991 1507 991 C 1602 991 1679 964 1739 911 C 1799 857 1829 793 1829 717 C 1829 644 1799 574 1739 506 C 1677 436 1622 384 1573 348 L 1348 160 L 1855 160 L 1855 0 L 1137 0 Z" unicode="" />
<glyph horiz-adv-x="1918" d="M 47 731 L 152 864 C 190 835 234 813 285 797 C 327 783 373 776 424 776 C 490 776 539 789 571 817 C 603 845 620 882 621 928 C 621 978 598 1016 553 1040 C 511 1063 455 1075 385 1075 L 311 1075 L 311 1204 L 373 1204 C 438 1204 490 1216 530 1241 C 568 1265 587 1297 588 1335 C 588 1379 571 1409 537 1427 C 501 1446 460 1456 412 1456 C 364 1456 317 1447 272 1430 C 231 1413 199 1398 176 1384 L 88 1516 C 148 1552 208 1579 268 1595 C 329 1611 389 1620 449 1620 C 547 1620 625 1598 684 1556 C 742 1514 772 1454 772 1376 C 772 1310 751 1259 711 1223 C 674 1189 622 1164 555 1149 C 625 1141 686 1117 737 1079 C 786 1042 811 983 811 903 C 811 811 774 740 700 688 C 627 637 538 612 432 612 C 343 612 268 623 207 645 C 143 667 90 696 47 731 Z M 440 0 L 1411 1524 L 1591 1524 L 621 0 L 440 0 Z M 1083 219 L 1083 360 L 1536 981 L 1749 981 L 1749 377 L 1868 377 L 1868 219 L 1749 219 L 1749 0 L 1565 0 L 1565 219 L 1083 219 Z M 1284 369 L 1565 369 L 1565 768 L 1284 369 Z" unicode="" />
<glyph horiz-adv-x="1042" d="M 72 133 L 72 195 C 72 234 76 268 84 297 C 93 331 105 358 119 379 C 137 405 158 429 182 453 C 210 479 241 504 274 530 L 365 604 C 392 626 412 645 426 662 C 444 682 455 700 461 715 C 467 735 471 756 471 776 L 471 831 L 711 831 L 711 766 C 711 728 706 692 698 659 C 691 633 678 603 659 569 C 645 545 624 518 596 487 C 575 465 546 438 508 408 C 496 398 484 389 473 380 C 462 371 452 362 442 354 C 421 336 405 319 395 305 C 379 285 370 269 367 256 C 361 239 358 218 358 193 L 358 147 C 358 118 363 95 373 78 C 385 57 398 41 414 31 C 430 20 451 11 475 4 C 495 -1 521 -4 551 -4 C 575 -4 605 -1 641 4 C 663 8 687 15 713 27 C 735 37 756 49 774 63 C 798 82 817 99 831 113 L 989 -59 C 967 -86 940 -111 909 -135 C 876 -159 841 -179 805 -195 C 767 -211 726 -224 682 -233 C 640 -242 592 -247 539 -248 C 476 -248 414 -240 354 -225 C 302 -213 253 -190 207 -156 C 169 -128 136 -89 109 -37 C 84 9 72 66 72 133 Z M 418 1145 C 418 1169 422 1192 430 1212 C 436 1228 449 1245 467 1263 C 485 1281 502 1293 520 1300 C 540 1308 563 1312 588 1313 C 611 1313 633 1308 653 1300 C 673 1292 692 1280 709 1264 C 727 1246 739 1228 745 1212 C 753 1191 757 1169 758 1145 C 758 1121 753 1099 745 1079 C 738 1061 726 1043 709 1026 C 692 1009 673 997 653 989 C 633 981 611 977 588 977 C 563 977 540 981 520 989 C 502 995 484 1008 466 1026 C 448 1044 436 1061 430 1079 C 422 1099 418 1121 418 1145 Z" unicode="" />
<glyph horiz-adv-x="1619" d="M 39 0 L 39 193 L 174 193 L 602 1313 L 424 1313 L 424 1511 L 934 1511 L 1450 193 L 1583 193 L 1583 0 L 958 0 L 958 193 L 1130 193 L 1057 397 L 518 397 L 446 193 L 606 193 L 606 0 L 39 0 Z M 424 1962 L 723 1962 L 897 1620 L 664 1620 L 424 1962 Z M 590 598 L 983 598 L 791 1135 L 782 1135 L 590 598 Z" unicode="" />
<glyph horiz-adv-x="1619" d="M 39 0 L 39 193 L 174 193 L 602 1313 L 424 1313 L 424 1511 L 934 1511 L 1450 193 L 1583 193 L 1583 0 L 958 0 L 958 193 L 1130 193 L 1057 397 L 518 397 L 446 193 L 606 193 L 606 0 L 39 0 Z M 590 598 L 983 598 L 791 1135 L 782 1135 L 590 598 Z M 662 1620 L 836 1962 L 1135 1962 L 895 1620 L 662 1620 Z" unicode="" />
<glyph horiz-adv-x="1619" d="M 39 0 L 39 193 L 174 193 L 602 1313 L 424 1313 L 424 1511 L 934 1511 L 1450 193 L 1583 193 L 1583 0 L 958 0 L 958 193 L 1130 193 L 1057 397 L 518 397 L 446 193 L 606 193 L 606 0 L 39 0 Z M 408 1620 L 659 1962 L 868 1962 L 1120 1620 L 899 1620 L 764 1761 L 629 1620 L 408 1620 Z M 590 598 L 983 598 L 791 1135 L 782 1135 L 590 598 Z" unicode="" />
<glyph horiz-adv-x="1619" d="M 39 0 L 39 193 L 174 193 L 602 1313 L 424 1313 L 424 1511 L 934 1511 L 1450 193 L 1583 193 L 1583 0 L 958 0 L 958 193 L 1130 193 L 1057 397 L 518 397 L 446 193 L 606 193 L 606 0 L 39 0 Z M 340 1692 C 360 1767 393 1825 438 1866 C 480 1904 533 1923 598 1923 C 625 1923 651 1919 676 1913 C 695 1907 715 1900 737 1890 L 791 1868 C 809 1861 826 1858 842 1858 C 865 1858 883 1864 897 1878 C 907 1888 920 1907 936 1935 L 1108 1874 C 1088 1798 1056 1740 1010 1700 C 968 1662 914 1642 850 1642 C 822 1642 796 1645 772 1653 C 746 1659 725 1666 711 1673 L 657 1696 C 639 1702 622 1706 606 1706 C 582 1706 564 1699 551 1686 C 539 1674 526 1655 512 1630 L 340 1692 Z M 590 598 L 983 598 L 791 1135 L 782 1135 L 590 598 Z" unicode="" />
<glyph horiz-adv-x="1619" d="M 39 0 L 39 193 L 174 193 L 602 1313 L 424 1313 L 424 1511 L 934 1511 L 1450 193 L 1583 193 L 1583 0 L 958 0 L 958 193 L 1130 193 L 1057 397 L 518 397 L 446 193 L 606 193 L 606 0 L 39 0 Z M 418 1827 C 426 1845 437 1861 453 1876 C 466 1889 482 1900 502 1909 C 520 1917 539 1921 561 1921 C 583 1921 603 1917 621 1909 C 640 1901 656 1890 670 1876 C 685 1860 697 1844 705 1827 C 713 1807 717 1787 717 1767 C 717 1747 713 1727 705 1708 C 697 1690 685 1673 670 1659 C 656 1645 640 1634 621 1626 C 603 1618 583 1614 561 1614 C 539 1614 519 1618 502 1626 C 482 1634 466 1645 453 1659 C 437 1674 426 1690 418 1708 C 410 1727 406 1747 406 1767 C 406 1787 410 1807 418 1827 Z M 590 598 L 983 598 L 791 1135 L 782 1135 L 590 598 Z M 860 1827 C 868 1845 879 1861 895 1876 C 908 1889 924 1900 944 1909 C 962 1917 981 1921 1003 1921 C 1025 1921 1045 1917 1063 1909 C 1082 1901 1098 1890 1112 1876 C 1127 1860 1139 1844 1147 1827 C 1155 1807 1159 1787 1159 1767 C 1159 1747 1155 1727 1147 1708 C 1139 1690 1127 1673 1112 1659 C 1098 1645 1082 1634 1063 1626 C 1045 1618 1025 1614 1003 1614 C 981 1614 962 1618 944 1626 C 924 1634 908 1645 895 1659 C 879 1674 868 1690 860 1708 C 852 1727 848 1747 848 1767 C 848 1787 852 1807 860 1827 Z" unicode="" />
<glyph horiz-adv-x="1619" d="M 39 0 L 39 193 L 174 193 L 602 1313 L 424 1313 L 424 1511 L 934 1511 L 1450 193 L 1583 193 L 1583 0 L 958 0 L 958 193 L 1130 193 L 1057 397 L 518 397 L 446 193 L 606 193 L 606 0 L 39 0 Z M 522 1858 L 522 1872 C 522 1912 529 1947 543 1976 C 559 2010 577 2036 596 2054 C 619 2076 646 2091 676 2101 C 708 2111 741 2117 774 2117 C 806 2117 839 2112 872 2101 C 902 2091 928 2076 952 2054 C 971 2036 989 2010 1006 1976 C 1019 1947 1026 1912 1026 1872 L 1026 1858 C 1026 1817 1019 1782 1006 1753 C 990 1721 972 1696 952 1677 C 928 1655 902 1639 872 1630 C 839 1619 806 1614 774 1614 C 741 1614 708 1619 676 1630 C 646 1639 619 1655 596 1677 C 575 1696 557 1721 543 1753 C 529 1782 522 1817 522 1858 Z M 590 598 L 983 598 L 791 1135 L 782 1135 L 590 598 Z M 666 1860 C 666 1824 674 1794 692 1769 C 708 1747 736 1736 774 1737 C 810 1737 838 1747 856 1769 C 874 1791 883 1821 883 1860 L 883 1870 C 883 1909 874 1940 856 1962 C 838 1984 810 1995 774 1995 C 736 1995 708 1984 692 1962 C 674 1937 665 1906 666 1870 L 666 1860 Z" unicode="" />
<glyph horiz-adv-x="2131" d="M 39 0 L 39 193 L 174 193 L 731 1313 L 530 1313 L 530 1511 L 2023 1511 L 2023 1122 L 1786 1122 L 1761 1300 L 1335 1300 L 1335 889 L 1546 889 L 1563 997 L 1761 997 L 1761 557 L 1563 557 L 1544 678 L 1335 678 L 1335 211 L 1806 211 L 1835 410 L 2073 410 L 2073 0 L 866 0 L 866 193 L 1042 193 L 1042 397 L 561 397 L 463 193 L 623 193 L 623 0 L 39 0 Z M 657 598 L 1042 598 L 1042 1300 L 993 1300 L 657 598 Z" unicode="" />
<glyph horiz-adv-x="1363" d="M 78 647 L 78 868 C 78 937 85 1004 100 1069 C 113 1129 134 1185 164 1237 C 191 1287 223 1331 260 1368 C 298 1406 339 1437 385 1462 C 434 1489 482 1508 530 1520 C 580 1532 634 1538 692 1538 C 732 1538 773 1534 815 1528 C 843 1522 876 1512 913 1497 C 943 1485 968 1469 989 1450 C 1016 1425 1034 1405 1044 1391 C 1045 1396 1047 1404 1049 1414 C 1051 1424 1053 1432 1053 1436 C 1054 1441 1056 1448 1058 1458 C 1060 1468 1061 1473 1061 1475 C 1061 1477 1063 1486 1069 1501 C 1071 1507 1075 1511 1079 1511 L 1280 1511 L 1280 1073 L 1044 1073 C 1023 1155 986 1215 932 1253 C 878 1289 811 1308 731 1309 C 676 1309 628 1300 588 1282 C 546 1264 509 1236 479 1200 C 447 1162 424 1115 408 1059 C 391 1001 383 934 383 856 L 383 659 C 383 578 392 511 410 457 C 428 401 453 354 486 317 C 518 280 556 253 600 235 C 644 217 692 209 745 209 C 801 209 849 215 889 229 C 924 241 960 259 997 283 C 1023 299 1051 322 1081 352 C 1105 376 1127 400 1145 422 L 1325 262 C 1300 228 1274 196 1247 168 C 1215 135 1179 106 1139 80 C 1091 50 1041 26 991 10 C 933 -9 869 -21 797 -25 L 713 -96 C 777 -104 824 -121 854 -147 C 882 -171 897 -209 897 -260 L 897 -276 C 897 -308 890 -336 877 -358 C 862 -380 843 -399 821 -413 C 798 -427 771 -438 741 -444 C 707 -450 675 -454 647 -455 C 603 -455 564 -451 530 -444 C 497 -437 468 -427 442 -414 L 492 -301 L 541 -317 C 559 -322 580 -325 606 -326 C 636 -326 661 -321 682 -313 C 702 -305 713 -288 713 -264 L 713 -252 C 713 -230 702 -214 680 -205 C 659 -195 621 -190 567 -190 L 547 -129 L 655 -23 C 570 -15 492 5 420 39 C 349 71 288 116 238 172 C 190 226 151 295 121 377 C 92 456 78 546 78 647 Z" unicode="" />
<glyph horiz-adv-x="1316" d="M 39 0 L 39 193 L 215 193 L 215 1313 L 39 1313 L 39 1511 L 1225 1511 L 1225 1122 L 987 1122 L 963 1300 L 516 1300 L 516 889 L 748 889 L 764 997 L 963 997 L 963 557 L 764 557 L 745 678 L 516 678 L 516 211 L 1008 211 L 1036 410 L 1274 410 L 1274 0 L 39 0 Z M 367 1962 L 666 1962 L 840 1620 L 606 1620 L 367 1962 Z" unicode="" />
<glyph horiz-adv-x="1316" d="M 39 0 L 39 193 L 215 193 L 215 1313 L 39 1313 L 39 1511 L 1225 1511 L 1225 1122 L 987 1122 L 963 1300 L 516 1300 L 516 889 L 748 889 L 764 997 L 963 997 L 963 557 L 764 557 L 745 678 L 516 678 L 516 211 L 1008 211 L 1036 410 L 1274 410 L 1274 0 L 39 0 Z M 549 1620 L 723 1962 L 1022 1962 L 782 1620 L 549 1620 Z" unicode="" />
<glyph horiz-adv-x="1316" d="M 39 0 L 39 193 L 215 193 L 215 1313 L 39 1313 L 39 1511 L 1225 1511 L 1225 1122 L 987 1122 L 963 1300 L 516 1300 L 516 889 L 748 889 L 764 997 L 963 997 L 963 557 L 764 557 L 745 678 L 516 678 L 516 211 L 1008 211 L 1036 410 L 1274 410 L 1274 0 L 39 0 Z M 330 1620 L 582 1962 L 791 1962 L 1042 1620 L 821 1620 L 686 1761 L 551 1620 L 330 1620 Z" unicode="" />
<glyph horiz-adv-x="1316" d="M 39 0 L 39 193 L 215 193 L 215 1313 L 39 1313 L 39 1511 L 1225 1511 L 1225 1122 L 987 1122 L 963 1300 L 516 1300 L 516 889 L 748 889 L 764 997 L 963 997 L 963 557 L 764 557 L 745 678 L 516 678 L 516 211 L 1008 211 L 1036 410 L 1274 410 L 1274 0 L 39 0 Z M 322 1827 C 330 1845 341 1861 356 1876 C 369 1889 385 1900 405 1908 C 424 1916 444 1921 465 1921 C 485 1921 505 1917 524 1909 C 546 1899 563 1888 575 1876 C 588 1862 599 1846 608 1827 C 616 1807 621 1787 621 1767 C 621 1747 616 1727 608 1708 C 600 1688 589 1672 575 1659 C 563 1647 546 1636 524 1626 C 504 1618 484 1614 464 1614 C 444 1614 424 1618 405 1626 C 386 1634 370 1645 356 1659 C 340 1674 329 1690 322 1708 C 313 1727 309 1747 309 1767 C 309 1787 313 1807 322 1827 Z M 764 1827 C 772 1845 783 1861 799 1876 C 812 1889 828 1900 848 1908 C 867 1916 887 1921 907 1921 C 927 1921 947 1916 966 1908 C 985 1900 1002 1889 1016 1876 C 1031 1860 1043 1844 1051 1827 C 1059 1807 1063 1787 1063 1767 C 1063 1747 1059 1727 1051 1708 C 1043 1690 1031 1673 1016 1659 C 1002 1645 986 1634 967 1626 C 947 1618 927 1614 907 1614 C 887 1614 867 1618 848 1626 C 828 1634 812 1645 799 1659 C 783 1674 772 1690 764 1708 C 756 1727 752 1747 752 1767 C 752 1787 756 1807 764 1827 Z" unicode="" />
<glyph horiz-adv-x="768" d="M 37 1962 L 336 1962 L 510 1620 L 276 1620 L 37 1962 Z M 39 0 L 39 193 L 233 193 L 233 1313 L 39 1313 L 39 1511 L 729 1511 L 729 1313 L 535 1313 L 535 193 L 729 193 L 729 0 L 39 0 Z" unicode="" />
<glyph horiz-adv-x="768" d="M 39 0 L 39 193 L 233 193 L 233 1313 L 39 1313 L 39 1511 L 729 1511 L 729 1313 L 535 1313 L 535 193 L 729 193 L 729 0 L 39 0 Z M 250 1620 L 424 1962 L 723 1962 L 483 1620 L 250 1620 Z" unicode="" />
<glyph horiz-adv-x="768" d="M 27 1620 L 279 1962 L 487 1962 L 739 1620 L 518 1620 L 383 1761 L 248 1620 L 27 1620 Z M 39 0 L 39 193 L 233 193 L 233 1313 L 39 1313 L 39 1511 L 729 1511 L 729 1313 L 535 1313 L 535 193 L 729 193 L 729 0 L 39 0 Z" unicode="" />
<glyph horiz-adv-x="768" d="M 18 1827 C 26 1845 37 1861 53 1876 C 66 1889 82 1900 102 1908 C 121 1916 141 1921 162 1921 C 182 1921 202 1916 221 1908 C 240 1900 256 1889 270 1876 C 285 1860 297 1844 305 1827 C 313 1807 317 1787 317 1767 C 317 1747 313 1727 305 1708 C 297 1690 285 1673 270 1659 C 256 1645 240 1634 221 1626 C 202 1618 182 1614 162 1614 C 141 1614 121 1618 102 1626 C 83 1634 67 1645 53 1659 C 37 1674 26 1690 18 1708 C 10 1727 6 1747 6 1767 C 6 1787 10 1807 18 1827 Z M 39 0 L 39 193 L 233 193 L 233 1313 L 39 1313 L 39 1511 L 729 1511 L 729 1313 L 535 1313 L 535 193 L 729 193 L 729 0 L 39 0 Z M 461 1827 C 469 1845 480 1861 496 1876 C 509 1889 525 1900 544 1908 C 563 1916 583 1921 604 1921 C 624 1921 644 1916 663 1908 C 682 1900 699 1889 713 1876 C 728 1860 740 1844 748 1827 C 756 1807 760 1787 760 1767 C 760 1747 756 1727 748 1708 C 740 1690 728 1673 713 1659 C 699 1645 683 1634 664 1626 C 644 1618 624 1614 604 1614 C 583 1614 563 1618 544 1626 C 525 1634 509 1645 496 1659 C 480 1674 469 1690 461 1708 C 453 1727 449 1747 449 1767 C 449 1787 453 1807 461 1827 Z" unicode="" />
<glyph horiz-adv-x="1505" d="M 39 0 L 39 193 L 215 193 L 215 672 L 55 672 L 55 883 L 215 883 L 215 1313 L 39 1313 L 39 1511 L 758 1511 C 860 1511 952 1496 1034 1468 C 1118 1438 1188 1397 1243 1346 C 1299 1291 1342 1223 1374 1143 C 1405 1061 1421 968 1421 864 L 1421 651 C 1421 545 1405 451 1374 369 C 1344 289 1300 222 1243 166 C 1187 111 1117 69 1034 41 C 956 13 864 0 758 0 L 39 0 Z M 516 217 L 737 217 C 797 217 849 226 895 244 C 944 263 984 290 1016 326 C 1048 362 1073 409 1090 465 C 1108 525 1116 591 1116 664 L 1116 852 C 1116 924 1107 991 1090 1051 C 1073 1105 1048 1151 1016 1188 C 986 1222 945 1247 895 1265 C 844 1283 791 1292 737 1292 L 516 1292 L 516 883 L 842 883 L 842 672 L 516 672 L 516 217 Z" unicode="" />
<glyph horiz-adv-x="1626" d="M 39 0 L 39 193 L 215 193 L 215 1313 L 39 1313 L 39 1511 L 524 1511 L 1171 438 L 1180 438 L 1180 1313 L 1012 1313 L 1012 1511 L 1589 1511 L 1589 1313 L 1427 1313 L 1427 0 L 1118 0 L 471 1071 L 463 1071 L 463 193 L 631 193 L 631 0 L 39 0 Z M 438 1692 C 458 1767 491 1825 537 1866 C 579 1904 632 1923 696 1923 C 722 1923 747 1919 772 1913 C 794 1907 815 1900 836 1890 L 889 1868 C 907 1861 924 1858 940 1858 C 963 1858 981 1864 995 1878 C 1005 1888 1018 1907 1034 1935 L 1206 1874 C 1186 1798 1154 1740 1108 1700 C 1066 1662 1012 1642 948 1642 C 920 1642 894 1645 870 1653 C 844 1659 823 1666 809 1673 L 756 1696 C 738 1702 721 1706 705 1706 C 681 1706 663 1699 649 1686 C 637 1674 624 1655 610 1630 L 438 1692 Z" unicode="" />
<glyph horiz-adv-x="1492" d="M 78 651 L 78 864 C 78 970 95 1067 131 1153 C 165 1236 212 1306 274 1364 C 336 1422 407 1465 487 1493 C 573 1523 659 1538 745 1538 C 832 1538 919 1523 1006 1493 C 1088 1464 1159 1421 1221 1364 C 1282 1306 1330 1236 1364 1153 C 1399 1067 1417 970 1417 864 L 1417 651 C 1417 540 1399 442 1364 356 C 1328 270 1281 199 1221 143 C 1162 88 1090 46 1006 16 C 924 -12 837 -27 745 -27 C 655 -27 569 -12 487 16 C 405 44 334 87 274 143 C 214 199 166 270 131 356 C 95 442 78 540 78 651 Z M 383 664 C 383 583 392 515 410 461 C 430 398 455 350 483 317 C 517 279 555 251 598 233 C 642 215 691 206 745 206 C 799 206 848 215 892 233 C 936 251 975 279 1010 317 C 1041 352 1066 400 1085 461 C 1103 515 1112 583 1112 664 L 1112 852 C 1112 932 1103 1000 1085 1055 C 1065 1113 1040 1160 1009 1196 C 978 1231 939 1258 893 1278 C 849 1296 799 1305 745 1305 C 691 1305 642 1296 598 1278 C 554 1260 515 1232 483 1196 C 453 1163 428 1116 410 1055 C 392 1000 383 932 383 852 L 383 664 Z M 387 1962 L 686 1962 L 860 1620 L 627 1620 L 387 1962 Z" unicode="" />
<glyph horiz-adv-x="1492" d="M 78 651 L 78 864 C 78 970 95 1067 131 1153 C 165 1236 212 1306 274 1364 C 336 1422 407 1465 487 1493 C 573 1523 659 1538 745 1538 C 832 1538 919 1523 1006 1493 C 1088 1464 1159 1421 1221 1364 C 1282 1306 1330 1236 1364 1153 C 1399 1067 1417 970 1417 864 L 1417 651 C 1417 540 1399 442 1364 356 C 1328 270 1281 199 1221 143 C 1162 88 1090 46 1006 16 C 924 -12 837 -27 745 -27 C 655 -27 569 -12 487 16 C 405 44 334 87 274 143 C 214 199 166 270 131 356 C 95 442 78 540 78 651 Z M 383 664 C 383 583 392 515 410 461 C 430 398 455 350 483 317 C 517 279 555 251 598 233 C 642 215 691 206 745 206 C 799 206 848 215 892 233 C 936 251 975 279 1010 317 C 1041 352 1066 400 1085 461 C 1103 515 1112 583 1112 664 L 1112 852 C 1112 932 1103 1000 1085 1055 C 1065 1113 1040 1160 1009 1196 C 978 1231 939 1258 893 1278 C 849 1296 799 1305 745 1305 C 691 1305 642 1296 598 1278 C 554 1260 515 1232 483 1196 C 453 1163 428 1116 410 1055 C 392 1000 383 932 383 852 L 383 664 Z M 625 1620 L 799 1962 L 1098 1962 L 858 1620 L 625 1620 Z" unicode="" />
<glyph horiz-adv-x="1492" d="M 78 651 L 78 864 C 78 970 95 1067 131 1153 C 165 1236 212 1306 274 1364 C 336 1422 407 1465 487 1493 C 573 1523 659 1538 745 1538 C 832 1538 919 1523 1006 1493 C 1088 1464 1159 1421 1221 1364 C 1282 1306 1330 1236 1364 1153 C 1399 1067 1417 970 1417 864 L 1417 651 C 1417 540 1399 442 1364 356 C 1328 270 1281 199 1221 143 C 1162 88 1090 46 1006 16 C 924 -12 837 -27 745 -27 C 655 -27 569 -12 487 16 C 405 44 334 87 274 143 C 214 199 166 270 131 356 C 95 442 78 540 78 651 Z M 383 664 C 383 583 392 515 410 461 C 430 398 455 350 483 317 C 517 279 555 251 598 233 C 642 215 691 206 745 206 C 799 206 848 215 892 233 C 936 251 975 279 1010 317 C 1041 352 1066 400 1085 461 C 1103 515 1112 583 1112 664 L 1112 852 C 1112 932 1103 1000 1085 1055 C 1065 1113 1040 1160 1009 1196 C 978 1231 939 1258 893 1278 C 849 1296 799 1305 745 1305 C 691 1305 642 1296 598 1278 C 554 1260 515 1232 483 1196 C 453 1163 428 1116 410 1055 C 392 1000 383 932 383 852 L 383 664 Z M 391 1620 L 643 1962 L 852 1962 L 1104 1620 L 883 1620 L 748 1761 L 612 1620 L 391 1620 Z" unicode="" />
<glyph horiz-adv-x="1492" d="M 78 651 L 78 864 C 78 970 95 1067 131 1153 C 165 1236 212 1306 274 1364 C 336 1422 407 1465 487 1493 C 573 1523 659 1538 745 1538 C 832 1538 919 1523 1006 1493 C 1088 1464 1159 1421 1221 1364 C 1282 1306 1330 1236 1364 1153 C 1399 1067 1417 970 1417 864 L 1417 651 C 1417 540 1399 442 1364 356 C 1328 270 1281 199 1221 143 C 1162 88 1090 46 1006 16 C 924 -12 837 -27 745 -27 C 655 -27 569 -12 487 16 C 405 44 334 87 274 143 C 214 199 166 270 131 356 C 95 442 78 540 78 651 Z M 365 1692 C 385 1767 418 1825 463 1866 C 505 1904 558 1923 623 1923 C 650 1923 676 1919 700 1913 C 719 1907 740 1900 762 1890 L 815 1868 C 833 1861 850 1858 866 1858 C 889 1858 908 1864 922 1878 C 932 1888 945 1907 961 1935 L 1133 1874 C 1112 1797 1079 1739 1034 1700 C 990 1662 936 1642 874 1642 C 846 1642 821 1645 797 1653 C 771 1659 750 1666 735 1673 L 682 1696 C 664 1702 647 1706 631 1706 C 607 1706 589 1699 575 1686 C 563 1674 550 1655 537 1630 L 365 1692 Z M 383 664 C 383 583 392 515 410 461 C 430 398 455 350 483 317 C 517 279 555 251 598 233 C 642 215 691 206 745 206 C 799 206 848 215 892 233 C 936 251 975 279 1010 317 C 1041 352 1066 400 1085 461 C 1103 515 1112 583 1112 664 L 1112 852 C 1112 932 1103 1000 1085 1055 C 1065 1113 1040 1160 1009 1196 C 978 1231 939 1258 893 1278 C 849 1296 799 1305 745 1305 C 691 1305 642 1296 598 1278 C 554 1260 515 1232 483 1196 C 453 1163 428 1116 410 1055 C 392 1000 383 932 383 852 L 383 664 Z" unicode="" />
<glyph horiz-adv-x="1492" d="M 78 651 L 78 864 C 78 970 95 1067 131 1153 C 165 1236 212 1306 274 1364 C 336 1422 407 1465 487 1493 C 573 1523 659 1538 745 1538 C 832 1538 919 1523 1006 1493 C 1088 1464 1159 1421 1221 1364 C 1282 1306 1330 1236 1364 1153 C 1399 1067 1417 970 1417 864 L 1417 651 C 1417 540 1399 442 1364 356 C 1328 270 1281 199 1221 143 C 1162 88 1090 46 1006 16 C 924 -12 837 -27 745 -27 C 655 -27 569 -12 487 16 C 405 44 334 87 274 143 C 214 199 166 270 131 356 C 95 442 78 540 78 651 Z M 383 1827 C 391 1845 402 1861 418 1876 C 431 1889 447 1900 467 1908 C 486 1916 506 1921 526 1921 C 546 1921 566 1916 585 1908 C 604 1900 621 1889 635 1876 C 650 1860 662 1844 670 1827 C 678 1807 682 1787 682 1767 C 682 1747 678 1727 670 1708 C 662 1690 650 1673 635 1659 C 621 1645 605 1634 586 1626 C 566 1618 546 1614 526 1614 C 506 1614 486 1618 467 1626 C 447 1634 431 1645 418 1659 C 402 1674 391 1690 383 1708 C 375 1727 371 1747 371 1767 C 371 1787 375 1807 383 1827 Z M 383 664 C 383 583 392 515 410 461 C 430 398 455 350 483 317 C 517 279 555 251 598 233 C 642 215 691 206 745 206 C 799 206 848 215 892 233 C 936 251 975 279 1010 317 C 1041 352 1066 400 1085 461 C 1103 515 1112 583 1112 664 L 1112 852 C 1112 932 1103 1000 1085 1055 C 1065 1113 1040 1160 1009 1196 C 978 1231 939 1258 893 1278 C 849 1296 799 1305 745 1305 C 691 1305 642 1296 598 1278 C 554 1260 515 1232 483 1196 C 453 1163 428 1116 410 1055 C 392 1000 383 932 383 852 L 383 664 Z M 825 1827 C 833 1845 844 1861 860 1876 C 873 1889 889 1900 909 1908 C 928 1916 948 1921 968 1921 C 988 1921 1008 1916 1028 1908 C 1047 1900 1063 1889 1077 1876 C 1092 1860 1104 1844 1112 1827 C 1120 1807 1124 1787 1124 1767 C 1124 1747 1120 1727 1112 1708 C 1104 1690 1092 1673 1077 1659 C 1063 1645 1047 1634 1028 1626 C 1008 1618 988 1614 968 1614 C 948 1614 928 1618 909 1626 C 890 1634 874 1645 860 1659 C 844 1674 833 1690 825 1708 C 817 1727 813 1747 813 1767 C 813 1787 817 1807 825 1827 Z" unicode="" />
<glyph horiz-adv-x="1150" d="M 88 371 L 428 711 L 88 1051 L 238 1198 L 575 858 L 915 1198 L 1065 1051 L 725 711 L 1065 371 L 915 223 L 575 561 L 238 223 L 88 371 Z" unicode="" />
<glyph horiz-adv-x="1492" d="M 78 651 L 78 864 C 78 970 95 1067 131 1153 C 165 1236 212 1306 274 1364 C 336 1422 407 1465 487 1493 C 573 1523 659 1538 745 1538 C 802 1538 859 1532 915 1520 C 969 1508 1021 1490 1071 1466 L 1169 1630 L 1319 1544 L 1214 1370 C 1274 1316 1323 1245 1362 1157 C 1398 1073 1417 976 1417 864 L 1417 651 C 1417 540 1399 442 1364 356 C 1328 270 1281 199 1221 143 C 1162 88 1090 46 1006 16 C 924 -12 837 -27 745 -27 C 685 -27 628 -20 573 -8 C 518 4 466 21 418 45 L 276 -190 L 127 -104 L 274 143 C 211 203 163 273 131 354 C 95 440 78 539 78 651 Z M 383 664 C 383 606 387 556 395 514 C 403 470 414 431 428 399 L 944 1255 C 886 1287 820 1304 745 1305 C 690 1305 641 1296 597 1278 C 553 1260 515 1232 483 1196 C 453 1163 428 1116 410 1055 C 392 1000 383 932 383 852 L 383 664 Z M 545 258 C 576 240 607 227 639 219 C 671 211 707 207 745 207 C 799 207 848 215 892 233 C 936 251 975 279 1010 317 C 1041 352 1066 400 1085 461 C 1103 515 1112 583 1112 664 L 1112 852 C 1112 909 1108 959 1100 1001 C 1093 1035 1081 1074 1063 1118 L 545 258 Z" unicode="" />
<glyph horiz-adv-x="1583" d="M 39 1313 L 39 1511 L 664 1511 L 664 1313 L 496 1313 L 496 565 C 496 506 503 453 518 406 C 532 360 553 323 580 295 C 604 267 638 246 680 231 C 716 217 762 211 817 211 C 869 211 913 217 950 231 C 989 246 1022 267 1049 295 C 1075 323 1096 360 1110 406 C 1123 448 1130 501 1130 565 L 1130 1313 L 963 1313 L 963 1511 L 1546 1511 L 1546 1313 L 1391 1313 L 1391 551 C 1391 454 1378 371 1352 301 C 1324 228 1287 168 1239 121 C 1192 74 1131 38 1057 12 C 985 -12 903 -25 811 -25 C 719 -25 635 -12 559 12 C 483 36 419 73 365 121 C 309 170 267 229 240 299 C 210 374 195 458 195 551 L 195 1313 L 39 1313 Z M 453 1962 L 752 1962 L 926 1620 L 692 1620 L 453 1962 Z" unicode="" />
<glyph horiz-adv-x="1583" d="M 39 1313 L 39 1511 L 664 1511 L 664 1313 L 496 1313 L 496 565 C 496 506 503 453 518 406 C 532 360 553 323 580 295 C 604 267 638 246 680 231 C 716 217 762 211 817 211 C 869 211 913 217 950 231 C 989 246 1022 267 1049 295 C 1075 323 1096 360 1110 406 C 1123 448 1130 501 1130 565 L 1130 1313 L 963 1313 L 963 1511 L 1546 1511 L 1546 1313 L 1391 1313 L 1391 551 C 1391 454 1378 371 1352 301 C 1324 228 1287 168 1239 121 C 1192 74 1131 38 1057 12 C 985 -12 903 -25 811 -25 C 719 -25 635 -12 559 12 C 483 36 419 73 365 121 C 309 170 267 229 240 299 C 210 374 195 458 195 551 L 195 1313 L 39 1313 Z M 711 1620 L 885 1962 L 1184 1962 L 944 1620 L 711 1620 Z" unicode="" />
<glyph horiz-adv-x="1583" d="M 39 1313 L 39 1511 L 664 1511 L 664 1313 L 496 1313 L 496 565 C 496 506 503 453 518 406 C 532 360 553 323 580 295 C 604 267 638 246 680 231 C 716 217 762 211 817 211 C 869 211 913 217 950 231 C 989 246 1022 267 1049 295 C 1075 323 1096 360 1110 406 C 1123 448 1130 501 1130 565 L 1130 1313 L 963 1313 L 963 1511 L 1546 1511 L 1546 1313 L 1391 1313 L 1391 551 C 1391 454 1378 371 1352 301 C 1324 228 1287 168 1239 121 C 1192 74 1131 38 1057 12 C 985 -12 903 -25 811 -25 C 719 -25 635 -12 559 12 C 483 36 419 73 365 121 C 309 170 267 229 240 299 C 210 374 195 458 195 551 L 195 1313 L 39 1313 Z M 457 1620 L 709 1962 L 918 1962 L 1169 1620 L 948 1620 L 813 1761 L 678 1620 L 457 1620 Z" unicode="" />
<glyph horiz-adv-x="1583" d="M 39 1313 L 39 1511 L 664 1511 L 664 1313 L 496 1313 L 496 565 C 496 506 503 453 518 406 C 532 360 553 323 580 295 C 604 267 638 246 680 231 C 716 217 762 211 817 211 C 869 211 913 217 950 231 C 989 246 1022 267 1049 295 C 1075 323 1096 360 1110 406 C 1123 448 1130 501 1130 565 L 1130 1313 L 963 1313 L 963 1511 L 1546 1511 L 1546 1313 L 1391 1313 L 1391 551 C 1391 454 1378 371 1352 301 C 1324 228 1287 168 1239 121 C 1192 74 1131 38 1057 12 C 985 -12 903 -25 811 -25 C 719 -25 635 -12 559 12 C 483 36 419 73 365 121 C 309 170 267 229 240 299 C 210 374 195 458 195 551 L 195 1313 L 39 1313 Z M 444 1827 C 452 1845 463 1861 479 1876 C 492 1889 508 1900 528 1908 C 547 1916 567 1921 587 1921 C 607 1921 627 1916 647 1908 C 666 1900 682 1889 696 1876 C 711 1860 723 1844 731 1827 C 739 1807 743 1787 743 1767 C 743 1747 739 1727 731 1708 C 723 1690 711 1673 696 1659 C 682 1645 666 1634 647 1626 C 627 1618 607 1614 587 1614 C 567 1614 547 1618 528 1626 C 509 1634 493 1645 479 1659 C 463 1674 452 1690 444 1708 C 436 1727 432 1747 432 1767 C 432 1787 436 1807 444 1827 Z M 920 1876 C 932 1888 949 1899 971 1909 C 990 1917 1010 1921 1030 1921 C 1050 1921 1070 1916 1089 1908 C 1108 1900 1125 1889 1139 1876 C 1154 1860 1166 1844 1174 1827 C 1182 1807 1186 1787 1186 1767 C 1186 1747 1182 1727 1174 1708 C 1166 1690 1154 1673 1139 1659 C 1125 1645 1109 1634 1090 1626 C 1070 1618 1050 1614 1030 1614 C 1009 1614 989 1618 971 1626 C 949 1635 932 1646 920 1659 C 906 1672 895 1688 887 1708 C 878 1727 874 1747 874 1767 C 874 1787 878 1807 886 1826 C 894 1845 906 1862 920 1876 Z" unicode="" />
<glyph horiz-adv-x="1529" d="M 39 1313 L 39 1511 L 676 1511 L 676 1313 L 500 1313 L 805 762 L 813 762 L 1094 1313 L 928 1313 L 928 1511 L 1491 1511 L 1491 1313 L 1362 1313 L 930 532 L 930 193 L 1106 193 L 1106 0 L 453 0 L 453 193 L 629 193 L 629 530 L 168 1313 L 39 1313 Z M 659 1620 L 834 1962 L 1133 1962 L 893 1620 L 659 1620 Z" unicode="" />
<glyph horiz-adv-x="1353" d="M 39 0 L 39 193 L 215 193 L 215 1313 L 39 1313 L 39 1511 L 684 1511 L 684 1313 L 516 1313 L 516 1190 L 780 1190 C 868 1190 947 1180 1016 1161 C 1082 1141 1137 1115 1180 1081 C 1224 1045 1256 1003 1276 954 C 1296 905 1307 850 1307 788 L 1307 745 C 1307 686 1295 631 1272 581 C 1248 531 1215 490 1171 459 C 1124 425 1069 399 1006 381 C 943 363 868 354 780 354 L 516 354 L 516 193 L 684 193 L 684 0 L 39 0 Z M 516 571 L 760 571 C 847 571 908 586 944 616 C 982 647 1001 694 1001 756 L 1001 786 C 1001 847 982 894 944 926 C 908 956 847 971 760 971 L 516 971 L 516 571 Z" unicode="" />
<glyph horiz-adv-x="1357" d="M 43 0 L 43 193 L 205 193 L 205 1034 C 205 1114 218 1185 244 1245 C 272 1309 309 1362 354 1405 C 402 1449 456 1481 518 1503 C 583 1526 652 1538 725 1538 C 808 1538 880 1527 942 1507 C 1006 1485 1056 1457 1094 1425 C 1133 1389 1162 1350 1180 1307 C 1199 1260 1208 1213 1208 1165 L 1208 1137 C 1208 1077 1189 1026 1153 985 C 1115 941 1065 909 1004 891 L 1004 887 C 1052 875 1090 861 1118 846 C 1150 828 1180 804 1206 774 C 1229 746 1248 711 1264 668 C 1277 627 1284 577 1284 518 L 1284 457 C 1284 369 1272 298 1249 242 C 1224 182 1191 132 1149 94 C 1108 57 1058 29 999 10 C 944 -8 880 -16 807 -16 C 755 -16 713 -13 682 -8 C 644 -1 611 7 584 18 L 631 236 C 644 230 667 223 700 215 C 722 209 749 207 782 207 C 858 207 915 228 952 270 C 988 313 1007 379 1008 467 L 1008 520 C 1008 558 1003 593 995 625 C 987 656 972 682 950 704 C 928 726 902 742 872 754 C 843 764 802 770 750 770 L 659 770 L 659 979 L 760 979 C 786 979 807 981 825 987 C 849 993 869 1002 883 1014 C 899 1026 913 1041 924 1061 C 934 1080 940 1103 940 1130 L 940 1151 C 940 1203 923 1244 889 1276 C 857 1306 803 1321 727 1321 C 643 1321 581 1296 539 1247 C 497 1199 475 1126 475 1028 L 475 0 L 43 0 Z" unicode="" />
<glyph horiz-adv-x="1185" d="M 43 317 L 43 336 C 43 380 54 423 76 467 C 96 506 126 541 166 571 C 205 599 251 622 305 639 C 361 655 421 664 485 664 C 546 664 596 658 635 647 C 678 635 715 620 745 604 L 745 614 C 745 693 726 752 688 791 C 648 830 589 850 510 850 C 485 850 451 847 408 842 C 372 838 341 831 313 823 C 309 821 297 818 277 813 C 257 807 243 803 233 801 C 204 791 183 783 170 776 L 88 979 C 115 994 144 1008 176 1020 C 196 1028 231 1039 281 1053 C 308 1061 349 1068 403 1075 C 442 1080 490 1083 547 1083 C 621 1083 686 1073 743 1053 C 804 1031 853 1002 891 967 C 930 930 961 883 983 825 C 1005 769 1016 703 1016 629 L 1016 193 L 1151 193 L 1151 0 L 805 0 C 801 0 797 5 793 16 C 789 25 784 39 780 57 C 774 77 771 97 770 115 C 770 121 768 131 766 145 C 763 159 762 169 762 176 C 745 144 727 118 709 96 C 687 71 661 50 633 33 C 607 16 575 2 539 -8 C 506 -17 469 -22 428 -23 C 368 -23 315 -14 268 2 C 221 18 180 43 145 76 C 112 106 87 141 70 182 C 52 221 43 266 43 317 Z M 240 1511 L 539 1511 L 713 1169 L 479 1169 L 240 1511 Z M 319 330 C 319 310 323 292 331 276 C 339 260 352 245 369 233 C 384 222 403 213 426 207 C 450 200 474 197 496 197 C 528 197 559 201 588 209 C 619 218 646 230 668 246 C 690 262 708 282 723 305 C 735 325 742 352 745 385 L 745 418 C 715 438 683 453 651 461 C 610 471 561 477 504 477 C 471 477 445 473 426 467 C 402 459 383 448 367 436 C 353 425 342 411 332 393 C 324 376 319 358 319 338 L 319 330 Z" unicode="" />
<glyph horiz-adv-x="1185" d="M 43 317 L 43 336 C 43 380 54 423 76 467 C 96 506 126 541 166 571 C 205 599 251 622 305 639 C 361 655 421 664 485 664 C 546 664 596 658 635 647 C 678 635 715 620 745 604 L 745 614 C 745 693 726 752 688 791 C 648 830 589 850 510 850 C 485 850 451 847 408 842 C 372 838 341 831 313 823 C 309 821 297 818 277 813 C 257 807 243 803 233 801 C 204 791 183 783 170 776 L 88 979 C 115 994 144 1008 176 1020 C 196 1028 231 1039 281 1053 C 308 1061 349 1068 403 1075 C 442 1080 490 1083 547 1083 C 621 1083 686 1073 743 1053 C 804 1031 853 1002 891 967 C 930 930 961 883 983 825 C 1005 769 1016 703 1016 629 L 1016 193 L 1151 193 L 1151 0 L 805 0 C 801 0 797 5 793 16 C 789 25 784 39 780 57 C 774 77 771 97 770 115 C 770 121 768 131 766 145 C 763 159 762 169 762 176 C 745 144 727 118 709 96 C 687 71 661 50 633 33 C 607 16 575 2 539 -8 C 506 -17 469 -22 428 -23 C 368 -23 315 -14 268 2 C 221 18 180 43 145 76 C 112 106 87 141 70 182 C 52 221 43 266 43 317 Z M 319 330 C 319 310 323 292 331 276 C 339 260 352 245 369 233 C 384 222 403 213 426 207 C 450 200 474 197 496 197 C 528 197 559 201 588 209 C 619 218 646 230 668 246 C 690 262 708 282 723 305 C 735 325 742 352 745 385 L 745 418 C 715 438 683 453 651 461 C 610 471 561 477 504 477 C 471 477 445 473 426 467 C 402 459 383 448 367 436 C 353 425 342 411 332 393 C 324 376 319 358 319 338 L 319 330 Z M 422 1169 L 596 1511 L 895 1511 L 655 1169 L 422 1169 Z" unicode="" />
<glyph horiz-adv-x="1185" d="M 43 317 L 43 336 C 43 380 54 423 76 467 C 96 506 126 541 166 571 C 205 599 251 622 305 639 C 361 655 421 664 485 664 C 546 664 596 658 635 647 C 678 635 715 620 745 604 L 745 614 C 745 693 726 752 688 791 C 648 830 589 850 510 850 C 485 850 451 847 408 842 C 372 838 341 831 313 823 C 309 821 297 818 277 813 C 257 807 243 803 233 801 C 204 791 183 783 170 776 L 88 979 C 115 994 144 1008 176 1020 C 196 1028 231 1039 281 1053 C 308 1061 349 1068 403 1075 C 442 1080 490 1083 547 1083 C 621 1083 686 1073 743 1053 C 804 1031 853 1002 891 967 C 930 930 961 883 983 825 C 1005 769 1016 703 1016 629 L 1016 193 L 1151 193 L 1151 0 L 805 0 C 801 0 797 5 793 16 C 789 25 784 39 780 57 C 774 77 771 97 770 115 C 770 121 768 131 766 145 C 763 159 762 169 762 176 C 745 144 727 118 709 96 C 687 71 661 50 633 33 C 607 16 575 2 539 -8 C 506 -17 469 -22 428 -23 C 368 -23 315 -14 268 2 C 221 18 180 43 145 76 C 112 106 87 141 70 182 C 52 221 43 266 43 317 Z M 219 1169 L 471 1511 L 680 1511 L 932 1169 L 711 1169 L 575 1311 L 440 1169 L 219 1169 Z M 319 330 C 319 310 323 292 331 276 C 339 260 352 245 369 233 C 384 222 403 213 426 207 C 450 200 474 197 496 197 C 528 197 559 201 588 209 C 619 218 646 230 668 246 C 690 262 708 282 723 305 C 735 325 742 352 745 385 L 745 418 C 715 438 683 453 651 461 C 610 471 561 477 504 477 C 471 477 445 473 426 467 C 402 459 383 448 367 436 C 353 425 342 411 332 393 C 324 376 319 358 319 338 L 319 330 Z" unicode="" />
<glyph horiz-adv-x="1185" d="M 43 317 L 43 336 C 43 380 54 423 76 467 C 96 506 126 541 166 571 C 205 599 251 622 305 639 C 361 655 421 664 485 664 C 546 664 596 658 635 647 C 678 635 715 620 745 604 L 745 614 C 745 693 726 752 688 791 C 648 830 589 850 510 850 C 485 850 451 847 408 842 C 372 838 341 831 313 823 C 309 821 297 818 277 813 C 257 807 243 803 233 801 C 204 791 183 783 170 776 L 88 979 C 115 994 144 1008 176 1020 C 196 1028 231 1039 281 1053 C 308 1061 349 1068 403 1075 C 442 1080 490 1083 547 1083 C 621 1083 686 1073 743 1053 C 804 1031 853 1002 891 967 C 930 930 961 883 983 825 C 1005 769 1016 703 1016 629 L 1016 193 L 1151 193 L 1151 0 L 805 0 C 801 0 797 5 793 16 C 789 25 784 39 780 57 C 774 77 771 97 770 115 C 770 121 768 131 766 145 C 763 159 762 169 762 176 C 745 144 727 118 709 96 C 687 71 661 50 633 33 C 607 16 575 2 539 -8 C 506 -17 469 -22 428 -23 C 368 -23 315 -14 268 2 C 221 18 180 43 145 76 C 112 106 87 141 70 182 C 52 221 43 266 43 317 Z M 162 1241 C 181 1316 214 1374 260 1415 C 302 1453 355 1472 420 1473 C 447 1473 473 1469 498 1462 C 517 1456 537 1449 559 1440 L 612 1417 C 630 1410 647 1407 664 1407 C 686 1407 704 1414 719 1430 C 731 1442 744 1460 758 1485 L 930 1423 C 909 1347 876 1289 831 1249 C 789 1211 736 1192 672 1192 C 646 1192 620 1195 596 1202 C 566 1210 544 1217 532 1223 L 479 1245 C 461 1251 444 1255 428 1255 C 404 1255 386 1248 373 1235 C 361 1223 348 1204 334 1180 L 162 1241 Z M 319 330 C 319 310 323 292 331 276 C 339 260 352 245 369 233 C 384 222 403 213 426 207 C 450 200 474 197 496 197 C 528 197 559 201 588 209 C 619 218 646 230 668 246 C 690 262 708 282 723 305 C 735 325 742 352 745 385 L 745 418 C 715 438 683 453 651 461 C 610 471 561 477 504 477 C 471 477 445 473 426 467 C 402 459 383 448 367 436 C 353 425 342 411 332 393 C 324 376 319 358 319 338 L 319 330 Z" unicode="" />
<glyph horiz-adv-x="1185" d="M 43 317 L 43 336 C 43 380 54 423 76 467 C 96 506 126 541 166 571 C 205 599 251 622 305 639 C 361 655 421 664 485 664 C 546 664 596 658 635 647 C 678 635 715 620 745 604 L 745 614 C 745 693 726 752 688 791 C 648 830 589 850 510 850 C 485 850 451 847 408 842 C 372 838 341 831 313 823 C 309 821 297 818 277 813 C 257 807 243 803 233 801 C 204 791 183 783 170 776 L 88 979 C 115 994 144 1008 176 1020 C 196 1028 231 1039 281 1053 C 308 1061 349 1068 403 1075 C 442 1080 490 1083 547 1083 C 621 1083 686 1073 743 1053 C 804 1031 853 1002 891 967 C 930 930 961 883 983 825 C 1005 769 1016 703 1016 629 L 1016 193 L 1151 193 L 1151 0 L 805 0 C 801 0 797 5 793 16 C 789 25 784 39 780 57 C 774 77 771 97 770 115 C 770 121 768 131 766 145 C 763 159 762 169 762 176 C 745 144 727 118 709 96 C 687 71 661 50 633 33 C 607 16 575 2 539 -8 C 506 -17 469 -22 428 -23 C 368 -23 315 -14 268 2 C 221 18 180 43 145 76 C 112 106 87 141 70 182 C 52 221 43 266 43 317 Z M 190 1376 C 198 1394 209 1410 225 1425 C 238 1438 254 1449 274 1457 C 293 1465 313 1470 334 1470 C 354 1470 374 1466 393 1458 C 412 1450 428 1439 442 1425 C 457 1409 469 1393 477 1376 C 485 1356 489 1336 489 1316 C 489 1296 485 1276 477 1257 C 469 1239 457 1222 442 1208 C 428 1194 412 1183 393 1175 C 374 1167 354 1163 334 1163 C 313 1163 293 1167 274 1175 C 255 1183 239 1194 225 1208 C 209 1223 198 1239 190 1257 C 182 1276 178 1296 178 1317 C 178 1337 182 1357 190 1376 Z M 319 330 C 319 310 323 292 331 276 C 339 260 352 245 369 233 C 384 222 403 213 426 207 C 450 200 474 197 496 197 C 528 197 559 201 588 209 C 619 218 646 230 668 246 C 690 262 708 282 723 305 C 735 325 742 352 745 385 L 745 418 C 715 438 683 453 651 461 C 610 471 561 477 504 477 C 471 477 445 473 426 467 C 402 459 383 448 367 436 C 353 425 342 411 332 393 C 324 376 319 358 319 338 L 319 330 Z M 633 1376 C 641 1394 652 1410 668 1425 C 681 1438 697 1449 716 1457 C 735 1465 755 1470 776 1470 C 796 1470 816 1466 835 1458 C 854 1450 871 1439 885 1425 C 900 1409 912 1393 920 1376 C 928 1356 932 1336 932 1316 C 932 1296 928 1276 920 1257 C 912 1239 900 1222 885 1208 C 871 1194 855 1183 836 1175 C 816 1167 796 1163 776 1163 C 755 1163 735 1167 716 1175 C 697 1183 681 1194 668 1208 C 652 1223 641 1239 633 1257 C 625 1276 621 1296 621 1317 C 621 1337 625 1357 633 1376 Z" unicode="" />
<glyph horiz-adv-x="1185" d="M 43 317 L 43 336 C 43 380 54 423 76 467 C 96 506 126 541 166 571 C 205 599 251 622 305 639 C 361 655 421 664 485 664 C 546 664 596 658 635 647 C 678 635 715 620 745 604 L 745 614 C 745 693 726 752 688 791 C 648 830 589 850 510 850 C 485 850 451 847 408 842 C 372 838 341 831 313 823 C 309 821 297 818 277 813 C 257 807 243 803 233 801 C 204 791 183 783 170 776 L 88 979 C 115 994 144 1008 176 1020 C 196 1028 231 1039 281 1053 C 308 1061 349 1068 403 1075 C 442 1080 490 1083 547 1083 C 621 1083 686 1073 743 1053 C 804 1031 853 1002 891 967 C 930 930 961 883 983 825 C 1005 769 1016 703 1016 629 L 1016 193 L 1151 193 L 1151 0 L 805 0 C 801 0 797 5 793 16 C 789 25 784 39 780 57 C 774 77 771 97 770 115 C 770 121 768 131 766 145 C 763 159 762 169 762 176 C 745 144 727 118 709 96 C 687 71 661 50 633 33 C 607 16 575 2 539 -8 C 506 -17 469 -22 428 -23 C 368 -23 315 -14 268 2 C 221 18 180 43 145 76 C 112 106 87 141 70 182 C 52 221 43 266 43 317 Z M 295 1407 L 295 1421 C 295 1461 301 1496 315 1526 C 331 1560 349 1586 369 1604 C 392 1626 419 1641 449 1651 C 481 1661 514 1667 547 1667 C 579 1667 612 1661 645 1651 C 675 1641 701 1626 725 1604 C 744 1586 762 1560 778 1526 C 791 1497 798 1462 799 1421 L 799 1407 C 799 1366 792 1331 778 1303 C 762 1271 745 1246 725 1227 C 701 1205 675 1189 645 1180 C 612 1169 579 1163 547 1163 C 514 1163 481 1168 449 1180 C 419 1189 392 1205 369 1227 C 348 1246 330 1271 315 1303 C 301 1331 295 1366 295 1407 Z M 319 330 C 319 310 323 292 331 276 C 339 260 352 245 369 233 C 384 222 403 213 426 207 C 450 200 474 197 496 197 C 528 197 559 201 588 209 C 619 218 646 230 668 246 C 690 262 708 282 723 305 C 735 325 742 352 745 385 L 745 418 C 715 438 683 453 651 461 C 610 471 561 477 504 477 C 471 477 445 473 426 467 C 402 459 383 448 367 436 C 353 425 342 411 332 393 C 324 376 319 358 319 338 L 319 330 Z M 438 1409 C 438 1371 447 1341 465 1319 C 483 1297 510 1286 547 1286 C 585 1286 612 1297 629 1319 C 647 1343 655 1373 655 1409 L 655 1419 C 655 1454 646 1484 629 1509 C 612 1532 585 1544 547 1544 C 511 1544 484 1532 465 1509 C 447 1487 438 1457 438 1419 L 438 1409 Z" unicode="" />
<glyph horiz-adv-x="1806" d="M 43 317 L 43 336 C 43 380 54 423 76 467 C 96 506 126 541 166 571 C 205 599 251 622 305 639 C 361 655 421 664 485 664 C 546 664 596 658 635 647 C 678 635 715 620 745 604 L 745 614 C 745 693 726 752 688 791 C 648 830 589 850 510 850 C 485 850 451 847 408 842 C 372 838 341 831 313 823 C 309 821 297 818 277 813 C 257 807 243 803 233 801 C 204 791 183 783 170 776 L 88 979 C 115 994 144 1008 176 1020 C 196 1028 231 1039 281 1053 C 308 1061 349 1068 403 1075 C 442 1080 490 1083 547 1083 C 633 1083 704 1070 760 1044 C 816 1018 861 980 897 930 C 941 983 993 1021 1053 1044 C 1118 1070 1188 1083 1262 1083 C 1332 1083 1398 1071 1460 1049 C 1522 1025 1574 992 1615 948 C 1656 904 1690 848 1716 778 C 1740 710 1753 633 1753 545 L 1753 455 L 1016 455 C 1018 404 1026 365 1038 338 C 1053 306 1071 281 1092 262 C 1114 241 1141 227 1174 219 C 1204 211 1239 207 1278 207 C 1306 207 1342 209 1386 215 C 1410 217 1441 224 1479 236 C 1513 245 1539 254 1559 262 C 1581 271 1604 283 1630 297 L 1733 109 C 1689 81 1656 62 1634 51 C 1598 33 1564 19 1530 10 C 1492 0 1452 -8 1411 -14 C 1373 -19 1326 -22 1270 -23 C 1226 -23 1182 -18 1139 -10 C 1102 -3 1061 9 1016 29 C 978 45 941 67 907 94 C 875 118 847 150 823 188 C 779 120 726 67 664 31 C 602 -4 533 -22 457 -23 C 389 -23 330 -14 279 2 C 231 17 188 42 150 76 C 114 107 88 142 70 182 C 52 221 43 266 43 317 Z M 319 330 C 319 310 323 292 331 276 C 339 260 352 245 369 233 C 384 222 403 213 426 207 C 450 200 474 197 496 197 C 528 197 559 201 588 209 C 619 218 646 230 668 246 C 690 262 708 282 723 305 C 735 325 742 352 745 385 L 745 418 C 715 438 683 453 651 461 C 610 471 561 477 504 477 C 471 477 445 473 426 467 C 402 459 383 448 367 436 C 353 425 342 411 332 393 C 324 376 319 358 319 338 L 319 330 Z M 1020 637 L 1481 637 C 1478 677 1473 711 1466 737 C 1458 765 1445 791 1427 813 C 1410 833 1387 849 1359 860 C 1331 871 1298 877 1262 877 C 1188 877 1132 855 1094 813 C 1054 769 1029 711 1020 637 Z" unicode="" />
<glyph horiz-adv-x="1069" d="M 55 492 L 55 563 C 55 647 67 722 92 788 C 118 857 150 912 190 952 C 234 996 284 1028 340 1050 C 396 1072 456 1083 522 1083 C 597 1083 656 1071 698 1047 C 742 1022 775 988 797 946 L 803 989 C 804 994 806 1001 808 1010 C 810 1019 811 1024 811 1026 L 819 1051 C 821 1057 825 1061 829 1061 L 1010 1061 L 1010 688 L 793 688 C 783 719 774 744 766 762 C 756 784 742 803 723 819 C 707 832 685 843 657 853 C 628 863 598 868 567 868 C 487 868 427 841 389 788 C 351 736 332 659 332 557 L 332 498 C 332 444 338 399 350 362 C 362 326 379 296 403 270 C 423 248 451 230 487 217 C 515 206 551 201 594 201 C 625 201 656 204 688 211 C 714 216 739 226 764 240 C 783 250 803 264 825 281 C 831 285 849 301 877 330 L 1034 176 C 1008 148 983 124 961 104 C 933 80 904 60 872 43 C 839 24 802 10 762 0 C 714 -12 669 -18 627 -20 L 539 -96 C 603 -104 650 -121 680 -147 C 708 -171 723 -209 723 -260 L 723 -276 C 723 -308 716 -336 702 -358 C 687 -380 668 -399 646 -413 C 624 -427 597 -438 567 -444 C 533 -450 501 -454 473 -455 C 429 -455 390 -451 356 -444 C 323 -437 294 -427 268 -414 L 317 -301 L 367 -317 C 385 -322 406 -325 432 -326 C 462 -326 487 -321 508 -313 C 528 -305 539 -288 539 -264 L 539 -252 C 539 -230 528 -214 506 -205 C 485 -195 447 -190 393 -190 L 373 -129 L 487 -14 C 427 -6 372 10 322 35 C 266 62 220 94 184 131 C 143 173 112 223 90 283 C 66 344 55 414 55 492 Z" unicode="" />
<glyph horiz-adv-x="1122" d="M 55 469 L 55 563 C 55 650 68 725 96 788 C 126 856 163 910 209 952 C 256 995 311 1028 375 1051 C 436 1073 504 1083 578 1083 C 648 1083 714 1071 776 1049 C 838 1025 890 992 931 948 C 972 904 1006 848 1032 778 C 1056 710 1069 633 1069 545 L 1069 455 L 332 455 C 334 404 342 365 354 338 C 369 306 387 281 408 262 C 430 241 457 227 489 219 C 519 211 554 207 594 207 C 622 207 658 209 702 215 C 726 217 757 224 795 236 C 829 245 855 254 874 262 C 896 271 920 283 946 297 L 1049 109 C 1005 81 972 62 950 51 C 914 33 880 19 846 10 C 808 0 768 -8 727 -14 C 689 -19 642 -22 586 -23 C 522 -23 457 -13 391 6 C 325 25 269 54 221 94 C 170 136 130 187 100 247 C 70 307 55 381 55 469 Z M 227 1511 L 526 1511 L 700 1169 L 467 1169 L 227 1511 Z M 336 637 L 797 637 C 794 677 789 711 782 737 C 774 765 761 791 743 813 C 726 833 703 849 675 860 C 647 871 614 877 578 877 C 504 877 448 855 410 813 C 370 769 345 711 336 637 Z" unicode="" />
<glyph horiz-adv-x="1122" d="M 55 469 L 55 563 C 55 650 68 725 96 788 C 126 856 163 910 209 952 C 256 995 311 1028 375 1051 C 436 1073 504 1083 578 1083 C 648 1083 714 1071 776 1049 C 838 1025 890 992 931 948 C 972 904 1006 848 1032 778 C 1056 710 1069 633 1069 545 L 1069 455 L 332 455 C 334 404 342 365 354 338 C 369 306 387 281 408 262 C 430 241 457 227 489 219 C 519 211 554 207 594 207 C 622 207 658 209 702 215 C 726 217 757 224 795 236 C 829 245 855 254 874 262 C 896 271 920 283 946 297 L 1049 109 C 1005 81 972 62 950 51 C 914 33 880 19 846 10 C 808 0 768 -8 727 -14 C 689 -19 642 -22 586 -23 C 522 -23 457 -13 391 6 C 325 25 269 54 221 94 C 170 136 130 187 100 247 C 70 307 55 381 55 469 Z M 336 637 L 797 637 C 794 677 789 711 782 737 C 774 765 761 791 743 813 C 726 833 703 849 675 860 C 647 871 614 877 578 877 C 504 877 448 855 410 813 C 370 769 345 711 336 637 Z M 459 1169 L 633 1511 L 932 1511 L 692 1169 L 459 1169 Z" unicode="" />
<glyph horiz-adv-x="1122" d="M 55 469 L 55 563 C 55 650 68 725 96 788 C 126 856 163 910 209 952 C 256 995 311 1028 375 1051 C 436 1073 504 1083 578 1083 C 648 1083 714 1071 776 1049 C 838 1025 890 992 931 948 C 972 904 1006 848 1032 778 C 1056 710 1069 633 1069 545 L 1069 455 L 332 455 C 334 404 342 365 354 338 C 369 306 387 281 408 262 C 430 241 457 227 489 219 C 519 211 554 207 594 207 C 622 207 658 209 702 215 C 726 217 757 224 795 236 C 829 245 855 254 874 262 C 896 271 920 283 946 297 L 1049 109 C 1005 81 972 62 950 51 C 914 33 880 19 846 10 C 808 0 768 -8 727 -14 C 689 -19 642 -22 586 -23 C 522 -23 457 -13 391 6 C 325 25 269 54 221 94 C 170 136 130 187 100 247 C 70 307 55 381 55 469 Z M 211 1169 L 463 1511 L 672 1511 L 924 1169 L 702 1169 L 567 1311 L 432 1169 L 211 1169 Z M 336 637 L 797 637 C 794 677 789 711 782 737 C 774 765 761 791 743 813 C 726 833 703 849 675 860 C 647 871 614 877 578 877 C 504 877 448 855 410 813 C 370 769 345 711 336 637 Z" unicode="" />
<glyph horiz-adv-x="1122" d="M 55 469 L 55 563 C 55 650 68 725 96 788 C 126 856 163 910 209 952 C 256 995 311 1028 375 1051 C 436 1073 504 1083 578 1083 C 648 1083 714 1071 776 1049 C 838 1025 890 992 931 948 C 972 904 1006 848 1032 778 C 1056 710 1069 633 1069 545 L 1069 455 L 332 455 C 334 404 342 365 354 338 C 369 306 387 281 408 262 C 430 241 457 227 489 219 C 519 211 554 207 594 207 C 622 207 658 209 702 215 C 726 217 757 224 795 236 C 829 245 855 254 874 262 C 896 271 920 283 946 297 L 1049 109 C 1005 81 972 62 950 51 C 914 33 880 19 846 10 C 808 0 768 -8 727 -14 C 689 -19 642 -22 586 -23 C 522 -23 457 -13 391 6 C 325 25 269 54 221 94 C 170 136 130 187 100 247 C 70 307 55 381 55 469 Z M 197 1376 C 205 1394 216 1410 231 1425 C 244 1438 261 1449 281 1458 C 299 1466 318 1470 340 1470 C 362 1470 381 1466 399 1458 C 418 1450 435 1439 449 1425 C 464 1409 475 1393 483 1376 C 491 1356 495 1336 495 1316 C 495 1296 491 1276 483 1257 C 475 1239 463 1222 449 1208 C 435 1194 419 1184 399 1176 C 381 1168 361 1163 339 1163 C 317 1163 298 1167 281 1176 C 261 1184 245 1194 231 1208 C 215 1223 204 1239 197 1257 C 188 1276 184 1296 184 1317 C 184 1337 188 1357 197 1376 Z M 336 637 L 797 637 C 794 677 789 711 782 737 C 774 765 761 791 743 813 C 726 833 703 849 675 860 C 647 871 614 877 578 877 C 504 877 448 855 410 813 C 370 769 345 711 336 637 Z M 639 1376 C 647 1394 658 1410 674 1425 C 687 1438 703 1449 723 1458 C 741 1466 760 1470 782 1470 C 804 1470 824 1466 842 1458 C 861 1450 877 1439 891 1425 C 906 1409 918 1393 926 1376 C 934 1356 938 1336 938 1316 C 938 1296 934 1276 926 1257 C 918 1239 906 1222 891 1208 C 877 1194 861 1184 842 1176 C 824 1168 804 1163 782 1163 C 760 1163 741 1167 723 1176 C 703 1184 687 1194 674 1208 C 658 1223 647 1239 639 1257 C 631 1276 627 1296 627 1317 C 627 1337 631 1357 639 1376 Z" unicode="" />
<glyph horiz-adv-x="669" d="M -6 1511 L 293 1511 L 467 1169 L 233 1169 L -6 1511 Z M 31 862 L 31 1061 L 475 1061 L 475 193 L 635 193 L 635 0 L 43 0 L 43 193 L 205 193 L 205 862 L 31 862 Z" unicode="" />
<glyph horiz-adv-x="669" d="M 31 862 L 31 1061 L 475 1061 L 475 193 L 635 193 L 635 0 L 43 0 L 43 193 L 205 193 L 205 862 L 31 862 Z M 170 1169 L 344 1511 L 643 1511 L 403 1169 L 170 1169 Z" unicode="" />
<glyph horiz-adv-x="669" d="M -63 1169 L 188 1511 L 397 1511 L 649 1169 L 428 1169 L 293 1311 L 158 1169 L -63 1169 Z M 31 862 L 31 1061 L 475 1061 L 475 193 L 635 193 L 635 0 L 43 0 L 43 193 L 205 193 L 205 862 L 31 862 Z" unicode="" />
<glyph horiz-adv-x="669" d="M -41 1376 C -33 1394 -21 1410 -6 1425 C 7 1438 23 1449 43 1458 C 61 1466 80 1470 102 1470 C 124 1470 144 1466 162 1458 C 181 1450 197 1439 211 1425 C 226 1409 238 1393 246 1376 C 254 1356 258 1336 258 1316 C 258 1296 254 1276 246 1257 C 238 1239 226 1222 211 1208 C 197 1194 181 1184 162 1176 C 144 1168 124 1163 102 1163 C 80 1163 61 1167 43 1176 C 23 1184 7 1194 -6 1208 C -21 1223 -33 1239 -41 1257 C -49 1276 -53 1296 -53 1317 C -53 1337 -49 1357 -41 1376 Z M 31 862 L 31 1061 L 475 1061 L 475 193 L 635 193 L 635 0 L 43 0 L 43 193 L 205 193 L 205 862 L 31 862 Z M 369 1376 C 377 1394 388 1410 403 1425 C 416 1438 433 1449 453 1458 C 471 1466 490 1470 512 1470 C 534 1470 553 1466 571 1458 C 590 1450 607 1439 621 1425 C 636 1409 647 1393 655 1376 C 663 1356 667 1336 667 1316 C 667 1296 663 1276 655 1257 C 647 1239 635 1222 621 1208 C 607 1194 591 1184 571 1176 C 553 1168 533 1163 511 1163 C 489 1163 470 1167 453 1176 C 433 1184 417 1194 403 1208 C 387 1223 376 1239 369 1257 C 360 1276 356 1296 356 1317 C 356 1337 360 1357 369 1376 Z" unicode="" />
<glyph horiz-adv-x="1157" d="M 55 485 L 55 575 C 55 658 66 729 90 788 C 113 847 145 899 186 944 C 222 983 267 1015 319 1040 C 367 1062 418 1073 473 1073 C 519 1073 560 1064 596 1047 C 628 1030 659 1007 688 979 L 526 1221 L 258 1137 L 217 1272 L 444 1341 L 332 1511 L 625 1511 L 688 1417 L 942 1497 L 983 1362 L 770 1296 L 881 1135 C 913 1087 946 1036 979 983 C 1007 935 1031 890 1049 848 C 1064 812 1078 768 1090 715 C 1099 675 1104 629 1104 575 L 1104 485 C 1104 407 1090 335 1063 270 C 1037 208 999 155 950 110 C 901 65 846 32 784 10 C 722 -12 654 -23 580 -23 C 506 -23 438 -12 377 10 C 314 32 258 65 209 111 C 162 153 124 206 96 270 C 68 330 55 401 55 485 Z M 332 492 C 332 450 337 409 348 369 C 357 333 372 303 393 277 C 413 251 439 230 471 215 C 499 201 536 195 580 195 C 625 195 662 201 690 215 C 720 228 745 248 766 276 C 786 302 801 333 811 369 C 821 408 827 449 827 492 L 827 569 C 827 611 821 652 811 692 C 800 728 785 760 766 786 C 746 810 721 830 690 846 C 661 859 624 866 580 866 C 536 866 499 859 471 846 C 438 830 412 810 393 786 C 373 760 358 728 348 692 C 337 652 332 611 332 569 L 332 492 Z" unicode="" />
<glyph horiz-adv-x="1316" d="M 31 862 L 31 1061 L 401 1061 C 405 1061 409 1054 414 1042 C 418 1031 422 1015 426 995 C 431 971 434 951 436 934 C 438 910 441 888 444 868 C 475 932 522 984 584 1024 C 644 1063 714 1083 795 1083 C 846 1083 893 1073 936 1053 C 981 1031 1018 1003 1047 969 C 1079 929 1104 883 1120 831 C 1136 777 1145 717 1145 649 L 1145 193 L 1282 193 L 1282 0 L 874 0 L 874 614 C 874 692 857 751 825 793 C 793 832 742 852 672 852 C 639 852 609 846 582 834 C 560 824 538 808 518 784 C 502 766 489 742 477 713 C 469 691 463 663 461 629 L 461 193 L 594 193 L 594 0 L 43 0 L 43 193 L 190 193 L 190 862 L 31 862 Z M 231 1241 C 250 1316 283 1374 330 1415 C 372 1453 425 1472 489 1473 C 515 1473 540 1469 565 1462 C 587 1456 608 1449 629 1440 L 682 1417 C 700 1410 717 1407 733 1407 C 755 1407 773 1414 788 1430 C 800 1442 813 1460 827 1485 L 999 1423 C 978 1347 945 1289 901 1249 C 859 1211 805 1192 741 1192 C 713 1192 688 1195 664 1202 C 638 1208 617 1215 602 1223 L 549 1245 C 531 1251 514 1255 498 1255 C 474 1255 456 1248 442 1235 C 430 1223 417 1204 403 1180 L 231 1241 Z" unicode="" />
<glyph horiz-adv-x="1157" d="M 55 485 L 55 575 C 55 658 68 730 96 791 C 124 855 162 908 209 950 C 255 992 311 1025 377 1048 C 442 1071 510 1083 580 1083 C 650 1083 718 1071 784 1049 C 847 1026 902 993 950 950 C 999 904 1037 851 1063 791 C 1090 725 1104 653 1104 575 L 1104 485 C 1104 407 1090 335 1063 270 C 1037 208 999 155 950 110 C 901 65 846 32 784 10 C 722 -12 654 -23 580 -23 C 506 -23 438 -12 377 10 C 314 32 258 65 209 111 C 162 153 124 206 96 270 C 68 330 55 401 55 485 Z M 236 1511 L 535 1511 L 709 1169 L 475 1169 L 236 1511 Z M 332 492 C 332 450 337 409 348 369 C 357 333 372 303 393 277 C 413 251 439 230 471 215 C 499 201 536 195 580 195 C 625 195 662 201 690 215 C 720 228 745 248 766 276 C 786 302 801 333 811 369 C 821 408 827 449 827 492 L 827 569 C 827 611 821 652 811 692 C 800 728 785 760 766 786 C 746 810 721 830 690 846 C 661 859 624 866 580 866 C 536 866 499 859 471 846 C 438 830 412 810 393 786 C 373 760 358 728 348 692 C 337 652 332 611 332 569 L 332 492 Z" unicode="" />
<glyph horiz-adv-x="1157" d="M 55 485 L 55 575 C 55 658 68 730 96 791 C 124 855 162 908 209 950 C 255 992 311 1025 377 1048 C 442 1071 510 1083 580 1083 C 650 1083 718 1071 784 1049 C 847 1026 902 993 950 950 C 999 904 1037 851 1063 791 C 1090 725 1104 653 1104 575 L 1104 485 C 1104 407 1090 335 1063 270 C 1037 208 999 155 950 110 C 901 65 846 32 784 10 C 722 -12 654 -23 580 -23 C 506 -23 438 -12 377 10 C 314 32 258 65 209 111 C 162 153 124 206 96 270 C 68 330 55 401 55 485 Z M 332 492 C 332 450 337 409 348 369 C 357 333 372 303 393 277 C 413 251 439 230 471 215 C 499 201 536 195 580 195 C 625 195 662 201 690 215 C 720 228 745 248 766 276 C 786 302 801 333 811 369 C 821 408 827 449 827 492 L 827 569 C 827 611 821 652 811 692 C 800 728 785 760 766 786 C 746 810 721 830 690 846 C 661 859 624 866 580 866 C 536 866 499 859 471 846 C 438 830 412 810 393 786 C 373 760 358 728 348 692 C 337 652 332 611 332 569 L 332 492 Z M 461 1169 L 635 1511 L 934 1511 L 694 1169 L 461 1169 Z" unicode="" />
<glyph horiz-adv-x="1157" d="M 55 485 L 55 575 C 55 658 68 730 96 791 C 124 855 162 908 209 950 C 255 992 311 1025 377 1048 C 442 1071 510 1083 580 1083 C 650 1083 718 1071 784 1049 C 847 1026 902 993 950 950 C 999 904 1037 851 1063 791 C 1090 725 1104 653 1104 575 L 1104 485 C 1104 407 1090 335 1063 270 C 1037 208 999 155 950 110 C 901 65 846 32 784 10 C 722 -12 654 -23 580 -23 C 506 -23 438 -12 377 10 C 314 32 258 65 209 111 C 162 153 124 206 96 270 C 68 330 55 401 55 485 Z M 223 1169 L 475 1511 L 684 1511 L 936 1169 L 715 1169 L 580 1311 L 444 1169 L 223 1169 Z M 332 492 C 332 450 337 409 348 369 C 357 333 372 303 393 277 C 413 251 439 230 471 215 C 499 201 536 195 580 195 C 625 195 662 201 690 215 C 720 228 745 248 766 276 C 786 302 801 333 811 369 C 821 408 827 449 827 492 L 827 569 C 827 611 821 652 811 692 C 800 728 785 760 766 786 C 746 810 721 830 690 846 C 661 859 624 866 580 866 C 536 866 499 859 471 846 C 438 830 412 810 393 786 C 373 760 358 728 348 692 C 337 652 332 611 332 569 L 332 492 Z" unicode="" />
<glyph horiz-adv-x="1157" d="M 55 485 L 55 575 C 55 658 68 730 96 791 C 124 855 162 908 209 950 C 255 992 311 1025 377 1048 C 442 1071 510 1083 580 1083 C 650 1083 718 1071 784 1049 C 847 1026 902 993 950 950 C 999 904 1037 851 1063 791 C 1090 725 1104 653 1104 575 L 1104 485 C 1104 407 1090 335 1063 270 C 1037 208 999 155 950 110 C 901 65 846 32 784 10 C 722 -12 654 -23 580 -23 C 506 -23 438 -12 377 10 C 314 32 258 65 209 111 C 162 153 124 206 96 270 C 68 330 55 401 55 485 Z M 197 1241 C 216 1316 249 1374 295 1415 C 337 1453 390 1472 455 1473 C 482 1473 508 1469 532 1462 C 551 1456 572 1449 594 1440 L 647 1417 C 665 1410 682 1407 698 1407 C 720 1407 738 1414 754 1430 C 766 1442 779 1460 793 1485 L 965 1423 C 944 1347 911 1289 866 1249 C 824 1211 771 1192 707 1192 C 681 1192 655 1195 631 1202 C 601 1210 579 1217 567 1223 C 556 1227 546 1231 536 1235 C 526 1239 518 1242 512 1245 C 494 1251 477 1255 463 1255 C 439 1255 421 1248 408 1235 C 396 1223 383 1204 369 1180 L 197 1241 Z M 332 492 C 332 450 337 409 348 369 C 357 333 372 303 393 277 C 413 251 439 230 471 215 C 499 201 536 195 580 195 C 625 195 662 201 690 215 C 720 228 745 248 766 276 C 786 302 801 333 811 369 C 821 408 827 449 827 492 L 827 569 C 827 611 821 652 811 692 C 800 728 785 760 766 786 C 746 810 721 830 690 846 C 661 859 624 866 580 866 C 536 866 499 859 471 846 C 438 830 412 810 393 786 C 373 760 358 728 348 692 C 337 652 332 611 332 569 L 332 492 Z" unicode="" />
<glyph horiz-adv-x="1157" d="M 55 485 L 55 575 C 55 658 68 730 96 791 C 124 855 162 908 209 950 C 255 992 311 1025 377 1048 C 442 1071 510 1083 580 1083 C 650 1083 718 1071 784 1049 C 847 1026 902 993 950 950 C 999 904 1037 851 1063 791 C 1090 725 1104 653 1104 575 L 1104 485 C 1104 407 1090 335 1063 270 C 1037 208 999 155 950 110 C 901 65 846 32 784 10 C 722 -12 654 -23 580 -23 C 506 -23 438 -12 377 10 C 314 32 258 65 209 111 C 162 153 124 206 96 270 C 68 330 55 401 55 485 Z M 215 1376 C 223 1394 234 1410 250 1425 C 263 1438 279 1449 299 1457 C 318 1465 338 1470 358 1470 C 378 1470 398 1466 417 1458 C 436 1450 453 1439 467 1425 C 482 1409 494 1393 502 1376 C 510 1356 514 1336 514 1316 C 514 1296 510 1276 502 1257 C 494 1239 482 1222 467 1208 C 453 1194 437 1183 418 1175 C 398 1167 378 1163 358 1163 C 338 1163 318 1167 299 1175 C 279 1183 263 1194 250 1208 C 234 1223 223 1239 215 1257 C 207 1276 203 1296 203 1317 C 203 1337 207 1357 215 1376 Z M 332 492 C 332 450 337 409 348 369 C 357 333 372 303 393 277 C 413 251 439 230 471 215 C 499 201 536 195 580 195 C 625 195 662 201 690 215 C 720 228 745 248 766 276 C 786 302 801 333 811 369 C 821 408 827 449 827 492 L 827 569 C 827 611 821 652 811 692 C 800 728 785 760 766 786 C 746 810 721 830 690 846 C 661 859 624 866 580 866 C 536 866 499 859 471 846 C 438 830 412 810 393 786 C 373 760 358 728 348 692 C 337 652 332 611 332 569 L 332 492 Z M 657 1376 C 665 1394 676 1410 692 1425 C 705 1438 721 1449 741 1457 C 760 1465 780 1470 800 1470 C 820 1470 840 1466 860 1458 C 879 1450 895 1439 909 1425 C 924 1409 936 1393 944 1376 C 952 1356 956 1336 956 1316 C 956 1296 952 1276 944 1257 C 936 1239 924 1222 909 1208 C 895 1194 879 1183 860 1175 C 840 1167 820 1163 800 1163 C 780 1163 760 1167 741 1175 C 722 1183 706 1194 692 1208 C 676 1223 665 1239 657 1257 C 649 1276 645 1296 645 1317 C 645 1337 649 1357 657 1376 Z" unicode="" />
<glyph horiz-adv-x="1122" d="M 72 602 L 72 827 L 1053 827 L 1053 602 L 72 602 Z M 395 317 C 395 340 399 362 408 383 C 414 399 426 416 444 434 C 460 450 478 462 496 469 C 516 477 538 481 561 481 C 584 481 606 477 626 469 C 646 461 664 449 680 434 C 696 417 708 400 715 383 C 723 362 727 340 727 317 C 727 294 723 272 715 252 C 708 234 696 217 680 201 C 664 185 646 174 626 166 C 606 158 584 154 561 154 C 537 154 516 158 496 166 C 478 172 460 184 444 201 C 426 219 414 236 408 252 C 399 272 395 293 395 317 Z M 395 1108 C 395 1130 399 1151 408 1171 C 414 1189 426 1207 444 1225 C 460 1241 478 1253 496 1260 C 516 1268 538 1272 561 1272 C 584 1272 606 1267 626 1259 C 646 1251 664 1239 679 1224 C 694 1209 706 1191 714 1171 C 722 1151 727 1130 727 1108 C 727 1084 723 1062 715 1042 C 708 1024 696 1007 680 991 C 664 975 646 964 626 956 C 606 948 584 944 561 944 C 537 944 516 948 496 956 C 478 962 460 974 444 991 C 426 1009 414 1026 408 1042 C 399 1062 395 1084 395 1108 Z" unicode="" />
<glyph horiz-adv-x="1157" d="M 55 485 L 55 575 C 55 658 68 730 96 791 C 124 855 162 908 209 950 C 255 992 311 1025 377 1048 C 442 1071 510 1083 580 1083 C 612 1083 649 1079 690 1073 C 724 1067 759 1058 795 1044 L 893 1206 L 1042 1120 L 942 956 C 992 912 1032 858 1061 795 C 1089 732 1104 659 1104 575 L 1104 485 C 1104 407 1090 335 1063 270 C 1037 208 999 155 950 110 C 901 65 846 32 784 10 C 722 -12 654 -23 580 -23 C 504 -23 432 -10 365 14 L 250 -172 L 100 -86 L 217 104 C 165 149 125 202 98 264 C 69 327 55 401 55 485 Z M 332 492 C 332 459 334 429 338 403 C 343 369 349 345 356 332 L 678 856 C 668 860 653 863 631 866 C 609 868 592 870 580 870 C 540 870 504 862 471 847 C 438 832 412 812 393 788 C 374 764 359 732 348 692 C 337 652 332 611 332 569 L 332 492 Z M 481 205 C 508 195 541 190 580 190 C 625 190 662 197 690 211 C 720 224 745 244 766 272 C 785 296 800 328 811 368 C 821 408 827 449 827 492 L 827 569 C 827 630 819 683 803 729 L 481 205 Z" unicode="" />
<glyph horiz-adv-x="1304" d="M 31 862 L 31 1061 L 438 1061 L 438 430 C 438 359 453 304 485 264 C 516 224 565 205 633 205 C 668 205 699 211 725 225 C 751 239 772 257 788 281 C 806 305 819 332 827 360 C 835 388 840 419 840 451 L 840 862 L 707 862 L 707 1061 L 1110 1061 L 1110 193 L 1270 193 L 1270 0 L 899 0 C 895 0 891 6 887 18 C 883 31 878 46 874 63 C 868 87 865 107 864 123 L 856 188 C 840 158 821 129 799 102 C 774 73 750 51 727 35 C 699 15 670 1 639 -8 C 609 -17 574 -22 535 -23 C 483 -23 433 -13 387 6 C 343 24 304 51 272 88 C 238 126 212 169 194 219 C 176 268 168 327 168 395 L 168 862 L 31 862 Z M 252 1511 L 551 1511 L 725 1169 L 492 1169 L 252 1511 Z" unicode="" />
<glyph horiz-adv-x="1304" d="M 31 862 L 31 1061 L 438 1061 L 438 430 C 438 359 453 304 485 264 C 516 224 565 205 633 205 C 668 205 699 211 725 225 C 751 239 772 257 788 281 C 806 305 819 332 827 360 C 835 388 840 419 840 451 L 840 862 L 707 862 L 707 1061 L 1110 1061 L 1110 193 L 1270 193 L 1270 0 L 899 0 C 895 0 891 6 887 18 C 883 31 878 46 874 63 C 868 87 865 107 864 123 L 856 188 C 840 158 821 129 799 102 C 774 73 750 51 727 35 C 699 15 670 1 639 -8 C 609 -17 574 -22 535 -23 C 483 -23 433 -13 387 6 C 343 24 304 51 272 88 C 238 126 212 169 194 219 C 176 268 168 327 168 395 L 168 862 L 31 862 Z M 467 1169 L 641 1511 L 940 1511 L 700 1169 L 467 1169 Z" unicode="" />
<glyph horiz-adv-x="1304" d="M 31 862 L 31 1061 L 438 1061 L 438 430 C 438 359 453 304 485 264 C 516 224 565 205 633 205 C 668 205 699 211 725 225 C 751 239 772 257 788 281 C 806 305 819 332 827 360 C 835 388 840 419 840 451 L 840 862 L 707 862 L 707 1061 L 1110 1061 L 1110 193 L 1270 193 L 1270 0 L 899 0 C 895 0 891 6 887 18 C 883 31 878 46 874 63 C 868 87 865 107 864 123 L 856 188 C 840 158 821 129 799 102 C 774 73 750 51 727 35 C 699 15 670 1 639 -8 C 609 -17 574 -22 535 -23 C 483 -23 433 -13 387 6 C 343 24 304 51 272 88 C 238 126 212 169 194 219 C 176 268 168 327 168 395 L 168 862 L 31 862 Z M 250 1169 L 502 1511 L 711 1511 L 963 1169 L 741 1169 L 606 1311 L 471 1169 L 250 1169 Z" unicode="" />
<glyph horiz-adv-x="1304" d="M 31 862 L 31 1061 L 438 1061 L 438 430 C 438 359 453 304 485 264 C 516 224 565 205 633 205 C 668 205 699 211 725 225 C 751 239 772 257 788 281 C 806 305 819 332 827 360 C 835 388 840 419 840 451 L 840 862 L 707 862 L 707 1061 L 1110 1061 L 1110 193 L 1270 193 L 1270 0 L 899 0 C 895 0 891 6 887 18 C 883 31 878 46 874 63 C 868 87 865 107 864 123 L 856 188 C 840 158 821 129 799 102 C 774 73 750 51 727 35 C 699 15 670 1 639 -8 C 609 -17 574 -22 535 -23 C 483 -23 433 -13 387 6 C 343 24 304 51 272 88 C 238 126 212 169 194 219 C 176 268 168 327 168 395 L 168 862 L 31 862 Z M 242 1376 C 250 1394 261 1410 276 1425 C 289 1438 306 1449 326 1458 C 344 1466 363 1470 385 1470 C 407 1470 426 1466 444 1458 C 463 1450 480 1439 494 1425 C 509 1409 520 1393 528 1376 C 536 1356 540 1336 540 1316 C 540 1296 536 1276 528 1257 C 520 1239 508 1222 494 1208 C 480 1194 464 1184 444 1176 C 426 1168 406 1163 384 1163 C 362 1163 343 1167 326 1176 C 306 1184 290 1194 276 1208 C 260 1223 249 1239 242 1257 C 233 1276 229 1296 229 1317 C 229 1337 233 1357 242 1376 Z M 684 1376 C 692 1394 703 1410 719 1425 C 732 1438 748 1449 768 1458 C 786 1466 805 1470 827 1470 C 849 1470 869 1466 887 1458 C 906 1450 922 1439 936 1425 C 951 1409 963 1393 971 1376 C 979 1356 983 1336 983 1316 C 983 1296 979 1276 971 1257 C 963 1239 951 1222 936 1208 C 922 1194 906 1184 887 1176 C 869 1168 849 1163 827 1163 C 805 1163 786 1167 768 1176 C 748 1184 732 1194 719 1208 C 703 1223 692 1239 684 1257 C 676 1276 672 1296 672 1317 C 672 1337 676 1357 684 1376 Z" unicode="" />
<glyph horiz-adv-x="1280" d="M 31 862 L 31 1061 L 561 1061 L 561 862 L 438 862 L 651 317 L 664 317 L 879 862 L 756 862 L 756 1061 L 1239 1061 L 1239 862 L 1122 862 L 743 -63 C 724 -110 701 -155 675 -198 C 649 -241 618 -278 584 -309 C 550 -339 509 -363 463 -383 C 419 -401 366 -410 305 -410 C 277 -410 258 -409 246 -408 C 224 -405 207 -402 197 -399 L 154 -387 C 137 -383 124 -378 115 -373 L 162 -160 C 176 -164 193 -168 211 -172 C 229 -176 252 -178 279 -178 C 339 -178 387 -163 424 -135 C 460 -106 485 -65 498 -12 L 504 16 L 147 862 L 31 862 Z M 539 1169 L 713 1511 L 1012 1511 L 772 1169 L 539 1169 Z" unicode="" />
<glyph horiz-adv-x="1259" d="M -10 1313 L -10 1511 L 420 1511 L 420 899 C 439 930 458 955 477 975 C 499 997 524 1016 553 1032 C 583 1048 615 1061 649 1069 C 691 1078 731 1083 770 1083 C 823 1083 878 1072 936 1051 C 989 1030 1035 998 1073 956 C 1113 910 1145 858 1169 798 C 1192 738 1204 666 1204 580 L 1204 475 C 1204 390 1191 317 1167 256 C 1142 194 1109 142 1067 100 C 1027 60 980 30 924 8 C 870 -12 814 -23 756 -23 C 716 -23 679 -18 643 -10 C 614 -3 583 8 551 25 C 529 35 504 53 477 78 C 456 97 437 119 420 145 L 420 -201 L 578 -201 L 578 -393 L 2 -393 L 2 -201 L 150 -201 L 150 1313 L -10 1313 Z M 420 481 C 420 433 426 390 440 352 C 452 316 470 287 494 264 C 516 242 543 225 576 215 C 608 204 642 199 676 199 C 711 199 745 204 778 215 C 806 224 833 241 858 266 C 880 288 897 316 909 352 C 921 388 928 430 928 479 L 928 565 C 928 618 922 661 911 694 C 900 728 883 758 860 786 C 840 809 815 827 784 839 C 752 851 719 858 684 858 C 651 858 617 852 582 842 C 552 832 524 814 498 788 C 473 763 454 733 440 698 C 426 662 420 618 420 565 L 420 481 Z" unicode="" />
<glyph horiz-adv-x="1280" d="M 31 862 L 31 1061 L 561 1061 L 561 862 L 438 862 L 651 317 L 664 317 L 879 862 L 756 862 L 756 1061 L 1239 1061 L 1239 862 L 1122 862 L 743 -63 C 724 -110 701 -155 675 -198 C 649 -241 618 -278 584 -309 C 550 -339 509 -363 463 -383 C 419 -401 366 -410 305 -410 C 277 -410 258 -409 246 -408 C 224 -405 207 -402 197 -399 L 154 -387 C 137 -383 124 -378 115 -373 L 162 -160 C 176 -164 193 -168 211 -172 C 229 -176 252 -178 279 -178 C 339 -178 387 -163 424 -135 C 460 -106 485 -65 498 -12 L 504 16 L 147 862 L 31 862 Z M 322 1425 C 334 1437 351 1448 373 1458 C 392 1466 412 1470 432 1470 C 452 1470 472 1466 491 1458 C 510 1450 527 1439 541 1425 C 556 1409 567 1393 575 1376 C 583 1356 587 1336 587 1316 C 587 1296 583 1276 575 1257 C 567 1239 555 1222 541 1208 C 527 1194 511 1183 492 1175 C 472 1167 452 1163 432 1163 C 411 1163 391 1167 373 1176 C 351 1185 334 1196 322 1208 C 308 1221 297 1237 289 1257 C 280 1276 276 1296 276 1317 C 276 1337 280 1357 288 1376 C 296 1395 308 1411 322 1425 Z M 731 1376 C 739 1394 750 1410 766 1425 C 779 1438 795 1449 815 1457 C 834 1465 854 1470 874 1470 C 894 1470 914 1466 934 1458 C 953 1450 969 1439 983 1425 C 998 1409 1010 1393 1018 1376 C 1026 1356 1030 1336 1030 1316 C 1030 1296 1026 1276 1018 1257 C 1010 1239 998 1222 983 1208 C 969 1194 953 1183 934 1175 C 914 1167 894 1163 874 1163 C 854 1163 834 1167 815 1175 C 795 1183 779 1194 766 1208 C 750 1223 739 1239 731 1257 C 723 1276 719 1296 719 1317 C 719 1337 723 1357 731 1376 Z" unicode="" />
<glyph horiz-adv-x="2048" d="M 86 676 L 86 840 C 86 952 101 1048 131 1130 C 161 1212 205 1282 264 1341 C 318 1395 388 1438 473 1468 C 555 1496 647 1511 750 1511 L 1939 1511 L 1939 1122 L 1702 1122 L 1677 1300 L 1251 1300 L 1251 889 L 1462 889 L 1479 997 L 1677 997 L 1677 557 L 1479 557 L 1460 678 L 1251 678 L 1251 211 L 1722 211 L 1751 410 L 1989 410 L 1989 0 L 750 0 C 647 0 555 14 473 43 C 388 73 318 115 264 170 C 205 228 161 299 131 381 C 101 463 86 561 86 676 Z M 391 688 C 391 610 400 539 418 475 C 434 413 459 363 492 325 C 524 287 564 258 612 240 C 661 220 714 211 770 211 L 950 211 L 950 1300 L 770 1300 C 714 1300 661 1290 612 1272 C 564 1252 524 1224 492 1186 C 459 1146 434 1098 418 1040 C 400 976 391 905 391 827 L 391 688 Z" unicode="" />
<glyph horiz-adv-x="1890" d="M 55 485 L 55 575 C 55 658 68 730 96 791 C 124 855 162 908 209 950 C 255 992 311 1025 377 1048 C 442 1071 510 1083 580 1083 C 660 1083 735 1068 803 1038 C 864 1010 917 968 963 911 C 1007 968 1060 1011 1124 1040 C 1189 1068 1263 1083 1346 1083 C 1416 1083 1482 1071 1544 1049 C 1606 1025 1658 992 1699 948 C 1740 904 1774 848 1800 778 C 1824 710 1837 633 1837 545 L 1837 455 L 1100 455 C 1102 404 1110 365 1122 338 C 1137 306 1155 281 1176 262 C 1198 241 1225 227 1257 219 C 1287 211 1322 207 1362 207 C 1390 207 1426 209 1470 215 C 1494 217 1525 224 1563 236 C 1597 245 1623 254 1642 262 C 1664 271 1688 283 1714 297 L 1817 109 C 1773 81 1740 62 1718 51 C 1682 33 1648 19 1614 10 C 1576 0 1536 -8 1495 -14 C 1457 -19 1410 -22 1354 -23 C 1274 -23 1200 -9 1130 18 C 1062 45 1005 87 961 145 C 917 90 863 48 799 20 C 736 -8 663 -23 580 -23 C 506 -23 438 -12 377 10 C 314 32 258 65 209 111 C 162 153 124 206 96 270 C 68 330 55 401 55 485 Z M 332 492 C 332 450 337 409 348 369 C 357 333 372 303 393 277 C 413 251 439 230 471 215 C 499 201 536 195 580 195 C 625 195 662 201 690 215 C 720 228 745 248 766 276 C 786 302 801 333 811 369 C 821 408 827 449 827 492 L 827 569 C 827 611 821 652 811 692 C 800 728 785 760 766 786 C 746 810 721 830 690 846 C 661 859 624 866 580 866 C 536 866 499 859 471 846 C 438 830 412 810 393 786 C 373 760 358 728 348 692 C 337 652 332 611 332 569 L 332 492 Z M 1104 637 L 1565 637 C 1562 677 1557 711 1550 737 C 1542 765 1529 791 1511 813 C 1494 833 1471 849 1443 860 C 1415 871 1382 877 1346 877 C 1272 877 1216 855 1178 813 C 1138 769 1113 711 1104 637 Z" unicode="" />
<glyph horiz-adv-x="1529" d="M 39 1313 L 39 1511 L 676 1511 L 676 1313 L 500 1313 L 805 762 L 813 762 L 1094 1313 L 928 1313 L 928 1511 L 1491 1511 L 1491 1313 L 1362 1313 L 930 532 L 930 193 L 1106 193 L 1106 0 L 453 0 L 453 193 L 629 193 L 629 530 L 168 1313 L 39 1313 Z M 432 1827 C 440 1845 451 1861 467 1876 C 480 1889 496 1900 516 1908 C 535 1916 555 1921 575 1921 C 595 1921 615 1916 635 1908 C 654 1900 670 1889 684 1876 C 699 1860 711 1844 719 1827 C 727 1807 731 1787 731 1767 C 731 1747 727 1727 719 1708 C 711 1690 699 1673 684 1659 C 670 1645 654 1634 635 1626 C 615 1618 595 1614 575 1614 C 555 1614 535 1618 516 1626 C 496 1634 480 1645 467 1659 C 451 1674 440 1690 432 1708 C 424 1727 420 1747 420 1767 C 420 1787 424 1807 432 1827 Z M 874 1827 C 882 1845 893 1861 909 1876 C 922 1889 938 1900 958 1908 C 977 1916 997 1921 1018 1921 C 1038 1921 1058 1917 1077 1909 C 1099 1899 1116 1888 1128 1876 C 1141 1862 1152 1846 1161 1827 C 1169 1807 1174 1787 1174 1767 C 1174 1747 1169 1727 1161 1708 C 1153 1688 1142 1672 1128 1659 C 1116 1647 1099 1636 1077 1626 C 1057 1618 1037 1614 1017 1614 C 997 1614 977 1618 958 1626 C 939 1634 923 1645 909 1659 C 893 1674 882 1690 874 1708 C 866 1727 862 1747 862 1767 C 862 1787 866 1807 874 1827 Z" unicode="" />
<glyph horiz-adv-x="1024" d="M 156 1169 L 408 1511 L 616 1511 L 868 1169 L 647 1169 L 512 1311 L 377 1169 L 156 1169 Z" unicode="" />
<glyph horiz-adv-x="1024" d="M 129 1241 C 148 1316 181 1374 227 1415 C 269 1453 322 1472 387 1473 C 414 1473 440 1469 465 1462 C 484 1456 504 1449 526 1440 L 580 1417 C 598 1410 615 1407 631 1407 C 653 1407 671 1414 686 1430 C 698 1442 711 1460 725 1485 L 897 1423 C 876 1347 843 1289 799 1249 C 757 1211 703 1192 639 1192 C 611 1192 585 1195 561 1202 C 535 1208 514 1215 500 1223 L 446 1245 C 428 1251 411 1255 395 1255 C 371 1255 353 1248 340 1235 C 328 1223 315 1204 301 1180 L 129 1241 Z" unicode="" />
<glyph horiz-adv-x="1024" d="M 223 1233 L 223 1450 L 799 1450 L 799 1233 L 223 1233 Z" unicode="" />
<glyph horiz-adv-x="1406" d="M 139 -281 C 139 -249 140 -191 143 -106 C 145 -42 150 26 156 100 C 162 168 166 220 168 256 C 168 265 168 275 169 287 C 169 299 170 308 171 314 C 171 320 172 325 172 328 C 172 332 172 336 173 340 C 173 344 174 347 175 350 C 175 352 176 354 176 356 L 176 1176 L 369 1176 L 369 319 C 369 257 396 210 450 176 C 504 142 564 125 629 125 C 715 125 791 146 858 190 C 920 230 970 294 1008 381 L 1008 1176 L 1200 1176 L 1200 307 L 1221 0 L 1057 0 L 1020 176 C 974 105 913 51 835 14 C 757 -22 669 -41 571 -41 C 542 -41 500 -32 444 -14 C 392 2 352 27 324 59 C 324 1 333 -55 352 -113 C 371 -170 381 -220 381 -264 C 381 -370 338 -424 252 -424 C 215 -424 187 -413 168 -391 C 148 -369 139 -333 139 -281 Z" unicode="" />
<glyph horiz-adv-x="1058" d="" unicode="" />
<glyph horiz-adv-x="2117" d="" unicode="" />
<glyph horiz-adv-x="1058" d="" unicode="" />
<glyph horiz-adv-x="2117" d="" unicode="" />
<glyph horiz-adv-x="704" d="" unicode="" />
<glyph horiz-adv-x="528" d="" unicode="" />
<glyph horiz-adv-x="352" d="" unicode="" />
<glyph horiz-adv-x="352" d="" unicode="" />
<glyph horiz-adv-x="262" d="" unicode="" />
<glyph horiz-adv-x="421" d="" unicode="" />
<glyph horiz-adv-x="116" d="" unicode="" />
<glyph horiz-adv-x="661" d="M 72 500 L 72 725 L 590 725 L 590 500 L 72 500 Z" unicode="" />
<glyph horiz-adv-x="661" d="M 72 500 L 72 725 L 590 725 L 590 500 L 72 500 Z" unicode="" />
<glyph horiz-adv-x="661" d="M 72 500 L 72 725 L 590 725 L 590 500 L 72 500 Z" unicode="" />
<glyph horiz-adv-x="1069" d="M 72 508 L 72 717 L 999 717 L 999 508 L 72 508 Z" unicode="" />
<glyph horiz-adv-x="1765" d="M 72 508 L 72 717 L 1696 717 L 1696 508 L 72 508 Z" unicode="" />
<glyph horiz-adv-x="477" d="M 72 1151 L 72 1167 C 72 1232 81 1288 100 1335 C 118 1377 142 1411 174 1439 C 205 1467 238 1485 274 1495 C 313 1505 349 1511 381 1511 L 395 1511 L 395 1401 L 387 1401 C 370 1401 352 1397 332 1391 C 310 1384 293 1375 281 1364 C 266 1352 254 1337 244 1321 C 234 1305 231 1286 233 1262 C 257 1266 281 1264 303 1257 C 323 1251 342 1241 358 1227 C 374 1213 387 1196 395 1174 C 403 1153 407 1132 408 1110 C 408 1086 403 1064 395 1044 C 388 1027 376 1011 360 995 C 344 979 326 968 306 960 C 286 952 265 948 244 948 C 220 948 198 952 178 961 C 160 967 141 980 123 999 C 111 1011 98 1032 86 1063 C 76 1086 72 1115 72 1151 Z" unicode="" />
<glyph horiz-adv-x="477" d="M 72 1364 C 72 1386 76 1407 84 1427 C 90 1445 102 1462 118 1478 C 134 1494 152 1506 170 1513 C 190 1521 212 1525 235 1525 C 258 1525 280 1521 301 1513 C 319 1506 337 1493 356 1475 C 368 1463 380 1441 393 1411 C 402 1387 407 1358 408 1323 L 408 1307 C 408 1241 398 1185 379 1139 C 361 1095 336 1059 305 1032 C 273 1004 240 986 205 977 C 165 966 130 961 98 961 L 84 961 L 84 1073 L 92 1073 C 108 1073 127 1076 147 1083 C 169 1089 186 1098 199 1110 C 213 1122 226 1136 236 1153 C 245 1168 248 1188 246 1212 C 218 1208 195 1208 176 1214 C 154 1220 135 1231 121 1247 C 104 1263 92 1280 86 1298 C 76 1322 72 1344 72 1364 Z" unicode="" />
<glyph horiz-adv-x="477" d="M 72 156 C 72 179 76 201 84 221 C 90 239 102 256 119 272 C 132 285 149 296 170 304 C 190 312 212 317 235 317 C 258 317 280 313 301 305 C 319 298 337 285 356 266 C 368 254 380 233 393 203 C 402 179 407 150 408 115 L 408 100 C 408 34 398 -21 379 -68 C 361 -112 336 -147 305 -174 C 273 -201 240 -219 205 -229 C 165 -239 130 -245 98 -246 L 84 -246 L 84 -135 L 92 -135 C 108 -135 127 -131 147 -125 C 169 -118 186 -109 198 -98 C 210 -87 223 -72 236 -53 C 245 -37 248 -18 246 6 C 218 2 195 2 176 8 C 152 14 134 25 121 39 C 104 55 92 72 86 90 C 76 114 72 136 72 156 Z" unicode="" />
<glyph horiz-adv-x="905" d="M 72 1151 L 72 1167 C 72 1232 81 1288 100 1335 C 118 1377 142 1411 174 1439 C 205 1467 238 1485 274 1495 C 313 1505 349 1511 381 1511 L 395 1511 L 395 1401 L 387 1401 C 370 1401 352 1397 332 1391 C 310 1384 293 1375 281 1364 C 266 1352 254 1337 244 1321 C 234 1305 231 1286 233 1262 C 257 1266 281 1264 303 1257 C 323 1251 342 1241 358 1227 C 374 1213 387 1196 395 1174 C 403 1153 407 1132 408 1110 C 408 1086 403 1064 395 1044 C 388 1027 376 1011 360 995 C 344 979 326 968 306 960 C 286 952 265 948 244 948 C 220 948 198 952 178 961 C 160 967 141 980 123 999 C 111 1011 98 1032 86 1063 C 76 1086 72 1115 72 1151 Z M 502 1151 L 502 1167 C 502 1232 511 1288 530 1335 C 546 1373 571 1408 604 1440 C 632 1466 665 1485 702 1495 C 741 1505 777 1511 809 1511 L 823 1511 L 823 1401 L 815 1401 C 799 1401 782 1397 762 1391 C 740 1384 723 1375 711 1364 C 696 1352 684 1337 674 1321 C 663 1304 659 1284 662 1262 C 686 1266 709 1264 731 1257 C 751 1251 770 1241 786 1227 C 802 1213 815 1196 823 1174 C 831 1153 835 1132 836 1110 C 836 1086 831 1064 823 1044 C 816 1027 804 1011 788 995 C 772 979 755 968 735 960 C 715 952 694 948 672 948 C 648 948 626 952 606 961 C 589 967 571 980 553 999 C 536 1015 524 1037 516 1063 C 506 1091 502 1121 502 1151 Z" unicode="" />
<glyph horiz-adv-x="905" d="M 72 1364 C 72 1387 76 1409 84 1430 C 90 1448 102 1465 119 1481 C 132 1494 149 1505 170 1513 C 190 1521 212 1526 235 1526 C 258 1526 280 1521 301 1513 C 319 1506 337 1493 356 1475 C 368 1463 380 1441 393 1411 C 402 1387 407 1358 408 1323 L 408 1309 C 408 1243 398 1187 379 1141 C 361 1097 336 1061 305 1034 C 273 1006 240 988 205 979 C 165 968 130 963 98 963 L 84 963 L 84 1073 L 92 1073 C 108 1073 127 1076 147 1083 C 169 1089 186 1098 198 1109 C 210 1120 223 1135 236 1155 C 245 1170 248 1190 246 1214 C 218 1210 195 1211 176 1217 C 152 1223 134 1233 121 1247 C 104 1263 92 1280 86 1298 C 76 1322 72 1344 72 1364 Z M 502 1364 C 502 1387 506 1409 514 1430 C 520 1448 532 1465 549 1481 C 562 1494 579 1505 600 1513 C 620 1521 642 1526 664 1526 C 687 1526 709 1521 729 1513 C 747 1506 765 1493 784 1475 C 796 1463 808 1441 821 1411 C 830 1387 835 1358 836 1323 L 836 1309 C 836 1243 826 1187 807 1141 C 789 1097 764 1061 733 1034 C 701 1006 668 988 633 979 C 593 968 558 963 526 963 L 512 963 L 512 1073 L 520 1073 C 536 1073 555 1076 575 1083 C 597 1089 614 1098 626 1109 C 638 1120 651 1135 664 1155 C 673 1170 676 1190 674 1214 C 646 1210 623 1211 604 1217 C 582 1223 564 1233 551 1247 C 533 1265 520 1282 514 1298 C 506 1318 502 1340 502 1364 Z" unicode="" />
<glyph horiz-adv-x="905" d="M 72 156 C 72 179 76 201 84 221 C 90 239 102 256 119 272 C 132 285 149 296 170 304 C 190 312 212 317 235 317 C 258 317 280 313 301 305 C 319 298 337 285 356 266 C 368 254 380 233 393 203 C 402 179 407 150 408 115 L 408 100 C 408 34 398 -21 379 -68 C 361 -112 336 -147 305 -174 C 273 -201 240 -219 205 -229 C 165 -239 130 -245 98 -246 L 84 -246 L 84 -135 L 92 -135 C 108 -135 127 -131 147 -125 C 169 -118 186 -109 198 -98 C 210 -87 223 -72 236 -53 C 245 -37 248 -18 246 6 C 218 2 195 2 176 8 C 152 14 134 25 121 39 C 104 55 92 72 86 90 C 76 114 72 136 72 156 Z M 502 156 C 502 179 506 201 514 221 C 520 239 532 256 549 272 C 562 285 579 296 600 304 C 620 312 642 317 664 317 C 687 317 709 313 729 305 C 747 298 765 285 784 266 C 796 254 808 233 821 203 C 830 179 835 150 836 115 L 836 100 C 836 34 826 -21 807 -68 C 789 -112 764 -147 733 -174 C 701 -201 668 -219 633 -229 C 593 -239 558 -245 526 -246 L 512 -246 L 512 -135 L 520 -135 C 536 -135 555 -131 575 -125 C 597 -118 614 -109 626 -98 C 638 -87 651 -72 664 -53 C 673 -37 676 -18 674 6 C 646 2 623 2 604 8 C 582 14 564 25 551 39 C 533 57 520 74 514 90 C 506 110 502 132 502 156 Z" unicode="" />
<glyph horiz-adv-x="694" d="M 80 678 C 80 714 86 748 100 780 C 114 811 133 839 158 864 C 181 887 210 906 244 922 C 275 935 310 942 348 942 C 387 942 423 935 455 922 C 489 906 517 887 541 864 C 563 842 581 814 596 780 C 609 748 616 714 616 678 C 616 640 609 605 596 573 C 579 536 561 508 541 489 C 516 466 487 448 455 434 C 423 420 388 414 348 414 C 310 414 275 420 244 434 C 211 448 182 467 158 489 C 134 509 115 537 100 573 C 86 605 80 640 80 678 Z" unicode="" />
<glyph horiz-adv-x="1474" d="M 76 145 C 76 165 80 187 90 211 C 96 229 109 246 127 264 C 142 279 160 291 180 299 C 204 308 226 313 246 313 C 268 313 290 308 313 299 C 333 291 351 279 367 264 C 385 246 397 228 403 211 C 411 190 415 168 416 145 C 416 120 411 98 403 78 C 396 60 384 42 367 25 C 351 9 333 -2 313 -10 C 293 -18 270 -23 246 -23 C 222 -23 200 -18 180 -10 C 160 -2 142 9 127 25 C 109 43 96 60 90 78 C 80 102 76 124 76 145 Z M 567 145 C 567 168 571 190 580 211 C 586 229 598 246 616 264 C 629 277 648 289 672 299 C 696 308 718 313 737 313 C 759 313 781 308 805 299 C 825 291 843 279 858 264 C 876 246 888 228 895 211 C 903 190 907 168 907 145 C 907 120 903 98 895 78 C 888 60 876 42 858 25 C 842 9 824 -2 804 -10 C 784 -18 761 -23 737 -23 C 713 -23 692 -18 672 -10 C 648 0 630 11 616 25 C 598 43 586 60 580 78 C 571 98 567 120 567 145 Z M 1059 145 C 1059 165 1063 187 1073 211 C 1079 229 1092 246 1110 264 C 1125 279 1143 291 1163 299 C 1187 308 1209 313 1229 313 C 1251 313 1273 308 1296 299 C 1316 291 1334 279 1350 264 C 1368 246 1380 228 1386 211 C 1394 190 1398 168 1399 145 C 1399 120 1394 98 1386 78 C 1379 60 1367 42 1350 25 C 1334 9 1316 -2 1296 -10 C 1276 -18 1253 -23 1229 -23 C 1205 -23 1183 -18 1163 -10 C 1143 -2 1125 9 1110 25 C 1092 43 1079 60 1073 78 C 1063 102 1059 124 1059 145 Z" unicode="" />
<glyph horiz-adv-x="421" d="" unicode="" />
<glyph horiz-adv-x="649" d="M 66 512 L 66 528 L 311 979 L 557 979 L 319 518 L 557 61 L 311 61 L 66 512 Z" unicode="" />
<glyph horiz-adv-x="649" d="M 94 61 L 332 522 L 94 979 L 340 979 L 586 528 L 586 512 L 340 61 L 94 61 Z" unicode="" />
<glyph horiz-adv-x="528" d="" unicode="" />
<glyph horiz-adv-x="1236" d="M 57 508 L 57 672 L 166 672 L 166 829 L 57 829 L 57 993 L 170 993 C 178 1084 197 1165 227 1237 C 255 1305 294 1361 344 1407 C 390 1449 448 1481 518 1505 C 583 1527 658 1538 743 1538 C 788 1538 837 1533 891 1524 C 936 1516 977 1503 1014 1487 C 1048 1471 1080 1452 1112 1429 C 1143 1406 1171 1380 1196 1352 L 1026 1176 C 1014 1191 995 1209 969 1231 C 952 1246 932 1260 909 1272 C 888 1282 864 1291 836 1298 C 812 1303 781 1306 743 1307 C 703 1307 666 1301 631 1290 C 597 1279 569 1262 547 1239 C 523 1213 506 1180 494 1141 C 482 1100 473 1051 469 993 L 817 993 L 817 829 L 467 829 L 467 672 L 817 672 L 817 508 L 469 508 C 473 448 482 399 496 362 C 509 326 528 295 553 268 C 575 244 603 227 637 217 C 672 206 709 201 748 201 C 784 201 817 205 846 213 C 878 222 904 232 922 242 C 948 255 969 270 987 287 L 1051 346 L 1208 174 C 1183 145 1156 118 1128 94 C 1100 70 1068 49 1030 30 C 992 11 951 -2 907 -12 C 863 -22 809 -27 743 -27 C 662 -27 588 -16 520 4 C 457 23 399 56 346 102 C 298 144 258 199 227 268 C 197 333 178 413 170 508 L 57 508 Z" unicode="" />
<glyph horiz-adv-x="1751" d="M 31 1274 L 31 1511 L 717 1511 L 717 1274 L 575 1274 L 563 1382 L 475 1382 L 475 868 L 557 868 L 557 756 L 190 756 L 190 868 L 272 868 L 272 1382 L 182 1382 L 172 1274 L 31 1274 Z M 793 756 L 793 868 L 872 868 L 872 1395 L 793 1395 L 793 1511 L 1108 1511 L 1257 1157 L 1262 1157 L 1409 1511 L 1722 1511 L 1722 1395 L 1645 1395 L 1645 868 L 1722 868 L 1722 756 L 1374 756 L 1374 868 L 1444 868 L 1444 1255 L 1440 1255 L 1296 911 L 1180 911 L 1036 1255 L 1032 1255 L 1032 868 L 1102 868 L 1102 756 L 793 756 Z" unicode="" />
<glyph horiz-adv-x="491" d="M 76 594 C 76 613 80 635 90 659 C 96 677 109 694 127 712 C 145 730 162 742 180 750 C 200 758 222 762 246 762 C 270 762 293 758 313 750 C 331 743 348 731 366 713 C 384 695 396 677 403 659 C 411 638 415 616 416 594 C 416 569 411 546 403 526 C 396 508 384 490 367 473 C 351 457 333 446 313 438 C 293 430 270 426 246 426 C 222 426 200 430 180 438 C 160 446 142 458 127 473 C 109 491 96 508 90 526 C 80 549 76 572 76 594 Z" unicode="" />
<glyph horiz-adv-x="1318" d="M 31 852 L 31 1061 L 190 1061 C 190 1140 203 1210 231 1272 C 257 1331 292 1380 336 1419 C 378 1457 429 1485 489 1505 C 549 1524 610 1534 670 1534 C 726 1534 775 1530 817 1522 C 856 1514 898 1501 942 1483 L 881 1268 C 863 1274 835 1282 797 1290 C 763 1296 729 1300 696 1300 C 666 1300 634 1295 602 1286 C 574 1278 550 1264 528 1245 C 510 1228 494 1203 481 1171 C 470 1142 463 1105 461 1061 L 1124 1061 L 1124 193 L 1284 193 L 1284 0 L 737 0 L 737 193 L 854 193 L 854 852 L 461 852 L 461 193 L 588 193 L 588 0 L 43 0 L 43 193 L 190 193 L 190 852 L 31 852 Z" unicode="" />
<glyph horiz-adv-x="1320" d="M 31 852 L 31 1061 L 190 1061 C 190 1141 203 1212 231 1274 C 257 1331 292 1380 338 1421 C 380 1459 430 1487 489 1507 C 543 1525 604 1534 670 1534 C 696 1534 734 1531 786 1526 C 826 1522 866 1513 905 1499 C 944 1505 978 1511 1006 1516 C 1044 1521 1067 1524 1075 1524 C 1094 1524 1106 1523 1112 1522 C 1120 1520 1124 1515 1124 1509 L 1124 193 L 1288 193 L 1288 0 L 737 0 L 737 193 L 854 193 L 854 1278 C 829 1288 803 1296 776 1300 C 747 1304 716 1306 684 1307 C 614 1307 560 1287 522 1249 C 484 1211 463 1148 461 1061 L 711 1061 L 711 852 L 461 852 L 461 193 L 588 193 L 588 0 L 43 0 L 43 193 L 190 193 L 190 852 L 31 852 Z" unicode="" />
<glyph horiz-adv-x="1980" d="M 31 852 L 31 1061 L 190 1061 L 190 1122 C 190 1181 200 1234 221 1282 C 243 1331 271 1372 305 1405 C 337 1435 379 1460 430 1481 C 479 1500 530 1509 582 1509 C 621 1509 656 1505 688 1499 C 716 1493 743 1485 768 1475 L 723 1260 C 703 1265 687 1269 675 1272 C 663 1274 641 1276 610 1276 C 592 1276 572 1272 552 1265 C 532 1258 516 1249 504 1237 C 493 1226 483 1208 473 1184 C 465 1163 461 1138 461 1110 L 461 1061 L 854 1061 C 854 1140 867 1210 895 1272 C 921 1331 956 1380 999 1419 C 1041 1457 1091 1485 1151 1505 C 1211 1524 1271 1534 1333 1534 C 1388 1534 1437 1530 1481 1522 C 1520 1514 1562 1501 1606 1483 L 1544 1268 C 1524 1276 1497 1283 1462 1290 C 1428 1296 1394 1300 1360 1300 C 1330 1300 1298 1295 1266 1286 C 1238 1278 1214 1264 1192 1245 C 1171 1226 1155 1201 1143 1171 C 1133 1146 1127 1109 1124 1061 L 1788 1061 L 1788 193 L 1948 193 L 1948 0 L 1401 0 L 1401 193 L 1518 193 L 1518 852 L 1124 852 L 1124 193 L 1251 193 L 1251 0 L 737 0 L 737 193 L 854 193 L 854 852 L 461 852 L 461 193 L 588 193 L 588 0 L 43 0 L 43 193 L 190 193 L 190 852 L 31 852 Z" unicode="" />
<glyph horiz-adv-x="1986" d="M 31 852 L 31 1061 L 190 1061 L 190 1122 C 190 1181 200 1234 221 1282 C 243 1331 271 1372 305 1405 C 337 1435 379 1460 430 1481 C 479 1500 530 1509 582 1509 C 621 1509 656 1505 688 1499 C 716 1493 743 1485 768 1475 L 723 1260 C 703 1265 687 1269 675 1272 C 663 1274 641 1276 610 1276 C 592 1276 572 1272 552 1265 C 532 1258 516 1249 504 1237 C 493 1226 483 1208 473 1184 C 465 1163 461 1138 461 1110 L 461 1061 L 854 1061 C 854 1141 867 1212 895 1274 C 921 1333 956 1382 999 1421 C 1041 1459 1091 1487 1151 1507 C 1205 1525 1266 1534 1333 1534 C 1359 1534 1398 1531 1450 1526 C 1490 1522 1530 1513 1569 1499 C 1599 1504 1633 1509 1671 1515 C 1709 1521 1732 1524 1739 1524 C 1758 1524 1770 1523 1776 1522 C 1784 1520 1788 1515 1788 1509 L 1788 193 L 1952 193 L 1952 0 L 1401 0 L 1401 193 L 1518 193 L 1518 1278 C 1490 1288 1464 1296 1440 1300 C 1411 1304 1380 1306 1348 1307 C 1278 1307 1224 1287 1186 1249 C 1147 1211 1126 1148 1124 1061 L 1374 1061 L 1374 852 L 1124 852 L 1124 193 L 1251 193 L 1251 0 L 737 0 L 737 193 L 854 193 L 854 852 L 461 852 L 461 193 L 588 193 L 588 0 L 43 0 L 43 193 L 190 193 L 190 852 L 31 852 Z" unicode="" />
</font>
</defs>
</svg>
