<?xml version="1.0" encoding="utf-8"?>
<!-- Generator: Adobe Illustrator 19.1.0, SVG Export Plug-In . SVG Version: 6.00 Build 0)  -->
<!DOCTYPE svg PUBLIC "-//W3C//DTD SVG 1.1//EN" "http://www.w3.org/Graphics/SVG/1.1/DTD/svg11.dtd">
<svg version="1.1" xmlns="http://www.w3.org/2000/svg" xmlns:xlink="http://www.w3.org/1999/xlink" x="0px" y="0px"
	 viewBox="0 0 300 200" style="enable-background:new 0 0 300 200;" xml:space="preserve">
<style type="text/css">
	.st0{display:none;}
	.st1{fill:#A17A94;}
	.st2{fill:#B96569;}
	.st3{fill:#CA7A68;}
	.st4{fill:#76909F;}
	.st5{fill:#B1AE68;}
	.st6{fill:#999999;}
	.st7{fill:#CF995A;}
	.st8{fill:#9C8F68;}
	.st9{fill:#6F9A7C;}
	.st10{fill:#FFFFFF;}
</style>
<g id="gray_icon_linework" class="st0">
</g>
<g id="BGs">
	<path class="st5" d="M276,200H24c-13.255,0-24-10.745-24-24V24C0,10.745,10.745,0,24,0h252c13.255,0,24,10.745,24,24v152
		C300,189.255,289.255,200,276,200z"/>
</g>
<g id="Layer_1">
	<g id="atv">
	</g>
	<g id="silo">
	</g>
	<g id="skid-loader">
		<g>
			<path class="st10" d="M142.218,21.75c-0.661-2.475-3.226-4.5-5.701-4.5H82.096c-2.475,0-4.5,2.025-4.5,4.5l0,86.657
				c17.07,5.334,29.46,21.265,29.46,40.093c0,7.492-1.984,14.511-5.422,20.601h29.13c-3.438-6.09-5.422-13.109-5.422-20.601
				c0-20.775,15.099-37.982,34.913-41.357L142.218,21.75z"/>
		</g>
		<g>
			<path class="st5" d="M145.985,104.536h-54.89c-2.475,0-4.5-2.025-4.5-4.5V30.75c0-2.475,2.025-4.5,4.5-4.5h38.26
				c2.475,0,5.052,2.025,5.727,4.5l14.176,69.286C149.933,102.511,148.46,104.536,145.985,104.536z"/>
		</g>
		<g>
			<path class="st10" d="M167.341,114c-19.023,0-34.5,15.477-34.5,34.5s15.477,34.5,34.5,34.5s34.5-15.477,34.5-34.5
				S186.364,114,167.341,114z"/>
			<path class="st5" d="M167.341,162c-7.444,0-13.5-6.056-13.5-13.5s6.056-13.5,13.5-13.5s13.5,6.056,13.5,13.5
				S174.785,162,167.341,162z"/>
		</g>
		<g>
			<path class="st10" d="M65.056,114c-19.023,0-34.5,15.477-34.5,34.5s15.477,34.5,34.5,34.5s34.5-15.477,34.5-34.5
				S84.079,114,65.056,114z"/>
			<path class="st5" d="M65.056,162c-7.444,0-13.5-6.056-13.5-13.5s6.056-13.5,13.5-13.5s13.5,6.056,13.5,13.5S72.5,162,65.056,162z
				"/>
		</g>
		<g>
			<circle class="st10" cx="42.507" cy="56.25" r="13.5"/>
		</g>
		<g>
			<circle class="st10" cx="219.77" cy="150.5" r="13.5"/>
		</g>
		<g>
			<path class="st10" d="M65.056,106.5c4.011,0,7.877,0.597,11.551,1.647L55.175,51.582L29.007,56.25v70.778
				C36.337,114.75,49.717,106.5,65.056,106.5z"/>
		</g>
		<g>
			<path class="st10" d="M213.933,151.888c-0.128-0.537-13.318-54.188-46.078-61.888C148.284,85.4,42.3,62.345,41.232,62.113
				l2.551-11.726C44.852,50.62,150.934,73.696,170.6,78.318c39.979,9.396,54.413,68.292,55.008,70.794L213.933,151.888z"/>
		</g>
		<g>
			<circle class="st5" cx="42.507" cy="56.25" r="4.5"/>
		</g>
		<g>
			<path class="st10" d="M229.135,181.5c-2.475,0-4.5-2.025-4.5-4.5v-69.5c0-2.475,2.025-4.5,4.5-4.5h14.372l33.601,78.5H229.135z"
				/>
		</g>
		<g>
			<circle class="st5" cx="219.77" cy="150.5" r="4.5"/>
		</g>
	</g>
	<g id="landscape">
	</g>
	<g id="tractor">
	</g>
	<g id="livestock">
	</g>
	<g id="truck">
	</g>
	<g id="other">
	</g>
</g>
</svg>
